<svg width="58" height="58" viewBox="0 0 58 58" fill="none" xmlns="http://www.w3.org/2000/svg">
<path d="M40.9969 53.7903L41.1344 54.2001C38.7981 55.3611 36.2557 56.1123 33.6445 56.5903V56.2489V54.3367C33.6445 53.8586 33.4384 53.4489 33.1635 53.1757C32.82 52.8342 32.4077 52.6293 31.9267 52.6293H24.3681C23.8871 52.6293 23.4749 52.8342 23.2 53.1757C22.8564 53.4489 22.6503 53.8586 22.6503 54.3367V56.044L21.9632 56.1123C19.7643 55.4976 17.5655 54.6781 15.5728 53.5171L15.6415 53.3806C16.3973 50.7854 18.7336 49.0781 21.4134 49.0781H35.1562C37.9735 49.0781 40.4472 51.0586 40.9969 53.7903Z" fill="#C4D4DD"/>
<path d="M40.3783 29.6154V38.6983C40.3783 39.6544 39.6225 40.4056 38.7292 40.4056H38.0421V34.3959C38.0421 30.23 34.6751 26.8837 30.4835 26.8154H26.292C23.2686 26.8837 20.52 28.6593 19.3519 31.4593C18.9396 32.4154 18.7334 33.3715 18.7334 34.3959V40.4056H18.3899C17.4279 40.4056 16.7407 39.6544 16.7407 38.6983V19.7812C16.7407 19.7812 17.0843 23.3325 22.9937 23.3325H34.0566C35.7745 23.3325 37.3549 24.0154 38.5231 25.1764C39.6912 26.3373 40.3783 27.9764 40.3783 29.6154Z" fill="#7EB5BD"/>
<path d="M30.4836 26.8164C34.6064 26.8164 38.0421 30.231 38.0421 34.3969V35.4896C31.6517 36.5823 25.0552 35.2164 19.6955 31.5969L19.2832 31.4603C20.5201 28.6603 23.2686 26.8164 26.292 26.8164H30.4836Z" fill="#7EB5BD"/>
<path d="M35.0874 41.1561C35.4997 41.4976 35.6371 42.1122 35.2936 42.522C34.95 42.9317 34.2629 43 33.8506 42.6586C33.4383 42.3171 33.3696 41.7025 33.7131 41.2927C34.0567 40.883 34.6751 40.8147 35.0874 41.1561Z" fill="#454E54"/>
<path d="M19.6954 31.5975C25.0551 35.217 31.6516 36.5829 38.042 35.4902V41.5C38.042 45.6658 34.675 49.0122 30.4835 49.0805H26.2919C22.1691 49.0122 18.8021 45.6658 18.7334 41.5V34.3975C18.7334 33.3731 18.9395 32.417 19.3518 31.4609L19.6954 31.5975ZM35.2935 42.5244C35.4996 42.2512 35.5683 41.7731 35.3622 41.4317C35.156 41.0902 34.7438 40.8853 34.4002 40.9536C33.9879 40.9536 33.6443 41.2268 33.5069 41.6365C33.4382 42.0463 33.5756 42.4561 33.8505 42.7292C34.2628 43.0024 34.9499 42.9341 35.2935 42.5244ZM23.8869 42.6609C24.0931 42.3195 24.1618 41.9097 23.9557 41.5683C23.7495 41.1585 23.406 40.9536 22.9937 41.0219C22.5814 41.0902 22.2378 41.3634 22.1004 41.7048C22.0317 42.1146 22.1691 42.5244 22.444 42.7975C22.925 43.139 23.5434 43.0707 23.8869 42.6609Z" fill="#F9E3D4"/>
<path d="M33.6443 56.2484V56.5899C32.1326 56.8631 30.5521 56.9313 28.9717 56.9313C26.6354 56.9313 24.2992 56.6582 21.9629 56.0435L22.65 55.9752V54.3362C22.65 53.8582 22.8562 53.4484 23.1997 53.1752C23.4746 52.8338 23.8869 52.6289 24.3679 52.6289H31.9264C32.4074 52.6289 32.8197 52.8338 33.1633 53.1752C33.4381 53.4484 33.6443 53.8582 33.6443 54.3362V56.2484Z" fill="#7EB5BD"/>
<path d="M30.0715 15C30.6899 15 31.2396 15.5463 31.2396 16.161C31.2396 16.8439 30.7586 17.3902 30.0715 17.3902C29.453 17.3902 28.9033 16.9122 28.9033 16.2976C28.9033 16.2293 28.9033 16.2293 28.9033 16.2293V16.161C28.9033 15.5463 29.3843 15 30.0715 15Z" fill="#FDAE76"/>
<path d="M28.9031 23.3323H26.7042V20.2591C24.2992 19.303 22.925 16.6396 23.406 14.0445C23.9557 11.4494 26.2232 9.60547 28.9031 9.60547C31.5142 9.60547 33.7818 11.4494 34.3315 14.0445C34.8812 16.6396 33.4382 19.303 31.0332 20.2591V23.3323H28.9031ZM26.4981 16.2299C26.5668 16.8445 27.0478 17.3225 27.6662 17.3225C28.2846 17.3225 28.8344 16.8445 28.9031 16.2299C28.9031 16.2299 28.9031 16.2299 28.9031 16.2982C28.9031 16.9128 29.4528 17.4591 30.0712 17.3908C30.7583 17.3908 31.3081 16.8445 31.3081 16.2299C31.3081 15.5469 30.7583 15.0006 30.0712 15.0006C29.4528 15.0006 28.9031 15.5469 28.9031 16.1616C28.8344 15.5469 28.2846 15.0689 27.6662 15.0689C27.0478 15.0689 26.5668 15.5469 26.4981 16.2299Z" fill="#FDAE76"/>
<path d="M26.498 16.2313C26.5668 15.5484 27.0478 15.0703 27.6662 15.0703C28.2846 15.0703 28.8343 15.5484 28.903 16.163V16.2313C28.8343 16.8459 28.2846 17.324 27.6662 17.324C27.0478 17.324 26.5668 16.8459 26.498 16.2313Z" fill="#FDAE76"/>
<path d="M26.7044 23.3319H31.0333V20.2587C33.4383 19.3026 34.8126 16.6392 34.3316 14.0441C33.7819 11.449 31.5143 9.60507 28.9032 9.60507C26.2234 9.60507 23.9558 11.449 23.4061 14.0441C22.9251 16.6392 24.2994 19.3026 26.7044 20.2587V23.3319ZM18.7335 41.4977C18.7335 45.6636 22.1005 49.0099 26.2921 49.0782H21.3447C18.7335 49.0782 16.3973 50.7856 15.6414 53.3124L15.5727 53.5173C4.23488 47.3026 -1.39966 34.1904 1.96732 21.6929C5.33431 9.2636 16.8095 0.727016 29.7278 1.06848C42.646 1.40994 53.6402 10.4929 56.3888 23.127C59.0686 35.7612 52.747 48.6002 41.1343 54.2002L40.9969 53.7904C40.4472 51.0587 37.9734 49.0782 35.1562 49.0782H30.4836C34.6065 49.0099 37.9735 45.6636 38.0422 41.4977V40.4051H38.6606C39.6226 40.4051 40.3097 39.6538 40.3097 38.6977V29.6148C40.3097 26.1319 37.5612 23.3319 34.0568 23.3319H22.9938C17.0844 23.3319 16.7408 19.7807 16.7408 19.7807V38.6977C16.7408 39.6538 17.428 40.4051 18.39 40.4051H18.7335V41.4977Z" fill="#EF8374"/>
<path d="M23.6812 41.2225C24.1622 41.564 24.2309 42.1786 23.8873 42.6567C23.5437 43.0664 22.9253 43.1347 22.4443 42.7933C22.032 42.4518 21.9633 41.8372 22.3069 41.3591C22.6505 40.9494 23.2689 40.8811 23.6812 41.2225Z" fill="#454E54"/>
<path d="M15.5727 53.5173C4.23488 47.3026 -1.39966 34.1904 1.96732 21.6929C5.33431 9.2636 16.8095 0.727016 29.7278 1.06848C42.646 1.40994 53.6402 10.5612 56.3888 23.127C59.0686 35.7612 52.747 48.6002 41.1343 54.2002C37.355 56.0441 33.1635 57.0002 28.9719 57.0002C26.6356 57.0002 24.2994 56.6587 21.9631 56.1124C19.7642 55.4977 17.5654 54.6782 15.5727 53.5173Z" stroke="#454E54" stroke-linejoin="round"/>
<path d="M36.7363 15H38.0419" stroke="#454E54" stroke-linejoin="round"/>
<path d="M19.627 15H20.9325" stroke="#454E54" stroke-linejoin="round"/>
<path d="M28.9033 7.07666V5.57422" stroke="#454E54" stroke-linejoin="round"/>
<path d="M30.4835 49.0798C34.6063 49.0115 37.9733 45.6652 38.042 41.4993V34.3969C38.042 30.231 34.6063 26.8847 30.4835 26.8164H26.2919C23.2685 26.8847 20.52 28.6603 19.3518 31.4603C18.9395 32.4164 18.7334 33.3725 18.7334 34.3969V41.4993C18.7334 45.6652 22.1004 49.0115 26.2919 49.0798" stroke="#454E54" stroke-linejoin="round"/>
<path d="M19.6953 31.5938C25.055 35.2133 31.6515 36.5791 38.0419 35.4864" stroke="#454E54" stroke-linejoin="round"/>
<path d="M40.9971 53.7903C40.4474 51.0586 37.9736 49.0781 35.1564 49.0781H21.3449C18.7337 49.0781 16.3975 50.7854 15.6416 53.3806" stroke="#454E54" stroke-linejoin="round"/>
<path d="M23.3374 15.1354C23.3374 12.3354 25.3988 10.0135 28.1474 9.67202C30.8959 9.26226 33.5071 11.0379 34.2629 13.7013C34.9501 16.433 33.5758 19.233 31.0334 20.2574V23.3306H26.7044V20.2574C24.643 19.4379 23.3374 17.3891 23.3374 15.1354Z" stroke="#454E54" stroke-linejoin="round"/>
<path d="M28.9033 23.331V16.2969" stroke="#454E54" stroke-linejoin="round"/>
<path d="M28.9033 16.161V16.2293C28.9033 16.2293 28.9033 16.2293 28.9033 16.2976C28.9033 16.9122 29.453 17.4585 30.0715 17.3902C30.7586 17.3902 31.3083 16.8439 31.3083 16.2293C31.3083 15.5463 30.7586 15 30.0715 15C29.453 15 28.9033 15.5463 28.9033 16.161Z" stroke="#454E54" stroke-linejoin="round"/>
<path d="M28.903 16.161C28.8343 15.5463 28.3533 15 27.6662 15C27.0478 15 26.498 15.5463 26.498 16.2293C26.498 16.8439 27.0478 17.3902 27.6662 17.3902C28.3533 17.3902 28.8343 16.9122 28.903 16.2293V16.161Z" stroke="#454E54" stroke-linejoin="round"/>
<path d="M35.4995 8.375L34.4688 9.60427" stroke="#454E54" stroke-linejoin="round"/>
<path d="M23.0624 9.74301L22.0317 8.58203" stroke="#454E54" stroke-linejoin="round"/>
<path d="M18.3899 40.4056C17.4279 40.4056 16.7407 39.6544 16.7407 38.6983V19.7812C16.7407 19.7812 17.0843 23.3325 22.9937 23.3325H34.0566C37.5611 23.3325 40.3783 26.1325 40.3783 29.6154V38.6983C40.3783 39.6544 39.6225 40.4056 38.7292 40.4056H38.0421" stroke="#454E54" stroke-linejoin="round"/>
<path d="M22.6504 56.0435V54.3362C22.6504 53.8582 22.8565 53.4484 23.2001 53.1752C23.475 52.8338 23.8872 52.6289 24.3682 52.6289H31.9268C32.4078 52.6289 32.8201 52.8338 33.1636 53.1752C33.4385 53.4484 33.6446 53.8582 33.6446 54.3362V56.2484" stroke="#454E54" stroke-linejoin="round"/>
<path opacity="0.07" d="M28.9721 1C28.0101 1 27.1168 1.06829 26.1548 1.13659C40.516 2.57073 51.4415 14.5902 51.4415 29C51.4415 43.4098 40.516 55.4293 26.1548 56.7951C36.3932 57.7512 46.288 53.039 51.9912 44.5024C57.6945 35.9659 58.3129 24.9707 53.503 15.8878C48.693 6.80488 39.2792 1.13659 28.9721 1Z" fill="black"/>
<path d="M18.4586 49.8293C19.0083 49.3513 21.3446 49.0781 21.3446 49.0781C20.039 53.0391 16.7407 51.4001 16.7407 51.4001C17.2217 50.8537 17.8401 50.3074 18.4586 49.8293Z" fill="#7EB5BD"/>
<path d="M18.4586 49.8293C17.8401 50.3074 17.2217 50.8537 16.7407 51.4001C16.7407 51.4001 20.039 53.0391 21.3446 49.0781C21.3446 49.0781 19.0083 49.3513 18.4586 49.8293Z" stroke="#454E54" stroke-linejoin="round"/>
<path d="M37.9734 49.8293C37.4237 49.3513 35.0874 49.0781 35.0874 49.0781C36.393 53.0391 39.76 51.4001 39.76 51.4001C39.2102 50.8537 38.5918 50.3074 37.9734 49.8293Z" fill="#7EB5BD"/>
<path d="M37.9734 49.8293C38.5918 50.3074 39.2102 50.8537 39.76 51.4001C39.76 51.4001 36.393 53.0391 35.0874 49.0781C35.0874 49.0781 37.4237 49.3513 37.9734 49.8293Z" stroke="#454E54" stroke-linejoin="round"/>
</svg>
