<svg xmlns="http://www.w3.org/2000/svg" width="83" height="83" viewBox="0 0 83 83"><style>.a{fill:#7EB5BD;}.b{fill:#6E7F89;}.c{fill:#FDAE76;}.d{stroke-linejoin:round;stroke-width:0.8;stroke:#6E7F89;}</style><g style="fill:none;stroke-width:1;stroke:none"><g transform="translate(-416 -231)translate(417 231)"><path d="M58.2 77.8L58.4 78.4C55 80.1 51.3 81.2 47.5 81.9L47.5 81.4 47.5 78.6C47.5 77.9 47.2 77.3 46.8 76.9 46.3 76.4 45.7 76.1 45 76.1L34 76.1C33.3 76.1 32.7 76.4 32.3 76.9 31.8 77.3 31.5 77.9 31.5 78.6L31.5 81.1 30.5 81.2C27.3 80.3 24.1 79.1 21.2 77.4L21.3 77.2C22.4 73.4 25.8 70.9 29.7 70.9L49.7 70.9C53.8 70.9 57.4 73.8 58.2 77.8L58.2 77.8Z" fill="#C4D4DD"/><path d="M57.3 42.4L57.3 55.7C57.3 57.1 56.2 58.2 54.9 58.2L53.9 58.2 53.9 49.4C53.9 43.3 49 38.4 42.9 38.3L36.8 38.3C32.4 38.4 28.4 41 26.7 45.1 26.1 46.5 25.8 47.9 25.8 49.4L25.8 58.2 25.3 58.2C23.9 58.2 22.9 57.1 22.9 55.7L22.9 28C22.9 28 23.4 33.2 32 33.2L48.1 33.2C50.6 33.2 52.9 34.2 54.6 35.9 56.3 37.6 57.3 40 57.3 42.4Z" class="a"/><path d="M42.9 38.3C48.9 38.3 53.9 43.3 53.9 49.4L53.9 51C44.6 52.6 35 50.6 27.2 45.3L26.6 45.1C28.4 41 32.4 38.3 36.8 38.3L42.9 38.3Z" class="a"/><path d="M49.6 59.3C50.2 59.8 50.4 60.7 49.9 61.3 49.4 61.9 48.4 62 47.8 61.5 47.2 61 47.1 60.1 47.6 59.5 48.1 58.9 49 58.8 49.6 59.3Z" class="b"/><path d="M27.2 45.3C35 50.6 44.6 52.6 53.9 51L53.9 59.8C53.9 65.9 49 70.8 42.9 70.9L36.8 70.9C30.8 70.8 25.9 65.9 25.8 59.8L25.8 49.4C25.8 47.9 26.1 46.5 26.7 45.1L27.2 45.3ZM49.9 61.3C50.2 60.9 50.3 60.2 50 59.7 49.7 59.2 49.1 58.9 48.6 59 48 59 47.5 59.4 47.3 60 47.2 60.6 47.4 61.2 47.8 61.6 48.4 62 49.4 61.9 49.9 61.3L49.9 61.3ZM33.3 61.5C33.6 61 33.7 60.4 33.4 59.9 33.1 59.3 32.6 59 32 59.1 31.4 59.2 30.9 59.6 30.7 60.1 30.6 60.7 30.8 61.3 31.2 61.7 31.9 62.2 32.8 62.1 33.3 61.5L33.3 61.5Z" fill="#F9E3D4"/><path d="M47.5 81.4L47.5 81.9C45.3 82.3 43 82.4 40.7 82.4 37.3 82.4 33.9 82 30.5 81.1L31.5 81 31.5 78.6C31.5 77.9 31.8 77.3 32.3 76.9 32.7 76.4 33.3 76.1 34 76.1L45 76.1C45.7 76.1 46.3 76.4 46.8 76.9 47.2 77.3 47.5 77.9 47.5 78.6L47.5 81.4Z" class="a"/><path d="M42.3 21C43.2 21 44 21.8 44 22.7 44 23.7 43.3 24.5 42.3 24.5 41.4 24.5 40.6 23.8 40.6 22.9 40.6 22.8 40.6 22.8 40.6 22.8L40.6 22.7C40.6 21.8 41.3 21 42.3 21L42.3 21Z" class="c"/><path d="M40.6 33.2L37.4 33.2 37.4 28.7C33.9 27.3 31.9 23.4 32.6 19.6 33.4 15.8 36.7 13.1 40.6 13.1 44.4 13.1 47.7 15.8 48.5 19.6 49.3 23.4 47.2 27.3 43.7 28.7L43.7 33.2 40.6 33.2ZM37.1 22.8C37.2 23.7 37.9 24.4 38.8 24.4 39.7 24.4 40.5 23.7 40.6 22.8 40.6 22.8 40.6 22.8 40.6 22.9 40.6 23.8 41.4 24.6 42.3 24.5 43.3 24.5 44.1 23.7 44.1 22.8 44.1 21.8 43.3 21 42.3 21 41.4 21 40.6 21.8 40.6 22.7 40.5 21.8 39.7 21.1 38.8 21.1 37.9 21.1 37.2 21.8 37.1 22.8L37.1 22.8Z" class="c"/><path d="M37.1 22.8C37.2 21.8 37.9 21.1 38.8 21.1 39.7 21.1 40.5 21.8 40.6 22.7 40.6 22.7 40.6 22.8 40.6 22.8 40.5 23.7 39.7 24.4 38.8 24.4 37.9 24.4 37.2 23.7 37.1 22.8L37.1 22.8Z" class="c"/><path d="M37.4 33.2L43.7 33.2 43.7 28.7C47.2 27.3 49.2 23.4 48.5 19.6 47.7 15.8 44.4 13.1 40.6 13.1 36.7 13.1 33.4 15.8 32.6 19.6 31.9 23.4 33.9 27.3 37.4 28.7L37.4 33.2ZM25.8 59.8C25.8 65.9 30.7 70.8 36.8 70.9L29.6 70.9C25.8 70.9 22.4 73.4 21.3 77.1L21.2 77.4C4.7 68.3-3.5 49.1 1.4 30.8 6.3 12.6 23 0.1 41.8 0.6 60.6 1.1 76.6 14.4 80.6 32.9 84.5 51.4 75.3 70.2 58.4 78.4L58.2 77.8C57.4 73.8 53.8 70.9 49.7 70.9L42.9 70.9C48.9 70.8 53.8 65.9 53.9 59.8L53.9 58.2 54.8 58.2C56.2 58.2 57.2 57.1 57.2 55.7L57.2 42.4C57.2 37.3 53.2 33.2 48.1 33.2L32 33.2C23.4 33.2 22.9 28 22.9 28L22.9 55.7C22.9 57.1 23.9 58.2 25.3 58.2L25.8 58.2 25.8 59.8Z" fill="#D4F4F2"/><path d="M33 59.4C33.7 59.9 33.8 60.8 33.3 61.5 32.8 62.1 31.9 62.2 31.2 61.7 30.6 61.2 30.5 60.3 31 59.6 31.5 59 32.4 58.9 33 59.4Z" class="b"/><path d="M21.2 77.4C4.7 68.3-3.5 49.1 1.4 30.8 6.3 12.6 23 0.1 41.8 0.6 60.6 1.1 76.6 14.5 80.6 32.9 84.5 51.4 75.3 70.2 58.4 78.4 52.9 81.1 46.8 82.5 40.7 82.5 37.3 82.5 33.9 82 30.5 81.2 27.3 80.3 24.1 79.1 21.2 77.4Z" class="d"/><path d="M52 21L53.9 21" class="d"/><path d="M27.1 21L29 21" class="d"/><path d="M40.6 9.4L40.6 7.2" class="d"/><path d="M42.9 70.9C48.9 70.8 53.8 65.9 53.9 59.8L53.9 49.4C53.9 43.3 48.9 38.4 42.9 38.3L36.8 38.3C32.4 38.4 28.4 41 26.7 45.1 26.1 46.5 25.8 47.9 25.8 49.4L25.8 59.8C25.8 65.9 30.7 70.8 36.8 70.9" class="d"/><path d="M27.2 45.3C35 50.6 44.6 52.6 53.9 51" class="d"/><path d="M58.2 77.8C57.4 73.8 53.8 70.9 49.7 70.9L29.6 70.9C25.8 70.9 22.4 73.4 21.3 77.2" class="d"/><path d="M32.5 21.2C32.5 17.1 35.5 13.7 39.5 13.2 43.5 12.6 47.3 15.2 48.4 19.1 49.4 23.1 47.4 27.2 43.7 28.7L43.7 33.2 37.4 33.2 37.4 28.7C34.4 27.5 32.5 24.5 32.5 21.2Z" class="d"/><polyline points="40.6 33.2 40.6 33.2 40.6 22.9" class="d"/><path d="M40.6 22.7C40.6 22.7 40.6 22.8 40.6 22.8 40.6 22.8 40.6 22.8 40.6 22.9 40.6 23.8 41.4 24.6 42.3 24.5 43.3 24.5 44.1 23.7 44.1 22.8 44.1 21.8 43.3 21 42.3 21 41.4 21 40.6 21.8 40.6 22.7L40.6 22.7Z" class="d"/><path d="M40.6 22.7C40.5 21.8 39.8 21 38.8 21 37.9 21 37.1 21.8 37.1 22.8 37.1 23.7 37.9 24.5 38.8 24.5 39.8 24.5 40.5 23.8 40.6 22.8L40.6 22.7 40.6 22.7Z" class="d"/><path d="M50.2 11.3L48.7 13.1" class="d"/><path d="M32.1 13.3L30.6 11.6" class="d"/><path d="M25.3 58.2C23.9 58.2 22.9 57.1 22.9 55.7L22.9 28C22.9 28 23.4 33.2 32 33.2L48.1 33.2C53.2 33.2 57.3 37.3 57.3 42.4L57.3 55.7C57.3 57.1 56.2 58.2 54.9 58.2L53.9 58.2" class="d"/><path d="M31.5 81.1L31.5 78.6C31.5 77.9 31.8 77.3 32.3 76.9 32.7 76.4 33.3 76.1 34 76.1L45 76.1C45.7 76.1 46.3 76.4 46.8 76.9 47.2 77.3 47.5 77.9 47.5 78.6L47.5 81.4" class="d"/><path d="M40.7 0.5C39.3 0.5 38 0.6 36.6 0.7 57.5 2.8 73.4 20.4 73.4 41.5 73.4 62.6 57.5 80.2 36.6 82.2 51.5 83.6 65.9 76.7 74.2 64.2 82.5 51.7 83.4 35.6 76.4 22.3 69.4 9 55.7 0.7 40.7 0.5Z" style="fill:#000;opacity:0.07"/><path d="M25.4 72C26.2 71.3 29.6 70.9 29.6 70.9 27.7 76.7 22.9 74.3 22.9 74.3 23.6 73.5 24.5 72.7 25.4 72L25.4 72Z" class="a"/><path d="M25.4 72C24.5 72.7 23.6 73.5 22.9 74.3 22.9 74.3 27.7 76.7 29.6 70.9 29.6 70.9 26.2 71.3 25.4 72Z" class="d"/><path d="M53.8 72C53 71.3 49.6 70.9 49.6 70.9 51.5 76.7 56.4 74.3 56.4 74.3 55.6 73.5 54.7 72.7 53.8 72L53.8 72Z" class="a"/><path d="M53.8 72C54.7 72.7 55.6 73.5 56.4 74.3 56.4 74.3 51.5 76.7 49.6 70.9 49.6 70.9 53 71.3 53.8 72Z" class="d"/></g></g></svg>
