<svg width="58" height="58" viewBox="0 0 58 58" fill="none" xmlns="http://www.w3.org/2000/svg">
<path d="M16.0959 30.2827H10.0258V49.5202C0.575816 40.8323 -1.70047 26.9041 4.36962 15.596C10.5087 4.35695 23.4766 -1.29708 35.8927 1.87469C48.3087 4.97751 57 16.2166 56.931 28.9726C56.931 29.7311 56.931 30.4896 56.862 31.248H47.2051V25.4561H40.7901V12.9069H22.5109V30.2827H16.0959ZM16.0959 22.6981C17.1996 22.6981 18.2342 22.0085 18.6481 20.9743C19.062 19.94 18.7861 18.7678 18.0273 18.0093C17.2685 17.2509 16.0959 17.044 15.0612 17.4577C14.0266 17.8714 13.4058 18.8368 13.4058 19.94C13.4058 20.6985 13.6817 21.388 14.1645 21.8706C14.7163 22.3533 15.4061 22.6981 16.0959 22.6981Z" fill="#EF8374"/>
<path d="M56.8621 31.2474C56.1723 40.349 51.0679 48.5542 43.1354 53.1739L42.9975 52.9671V45.7961H39.4106V54.9667C38.3759 55.3804 37.3413 55.7252 36.3066 56.001L36.2376 55.6562V45.5203H16.096V53.8635C13.8887 52.6913 11.8193 51.2433 10.0259 49.5885V30.351H22.5109V12.9062H40.7902V25.4554H47.2051V31.2474H56.8621ZM51.2059 38.2804V38.2115C51.2059 37.384 50.5851 36.6945 49.7573 36.6945H29.0639C28.2361 36.6945 27.5463 37.384 27.5463 38.2115V38.2804C27.5463 39.1078 28.2361 39.7284 29.0639 39.7284H49.7573C50.5851 39.7284 51.2059 39.0389 51.2059 38.2804ZM43.6873 32.0748V29.3857H27.5463V32.0748H43.6873ZM37.7551 18.0776C37.7551 17.2502 37.0653 16.5607 36.1686 16.5607H27.1325C26.3047 16.5607 25.615 17.2502 25.615 18.0776C25.615 18.974 26.3047 19.6635 27.1325 19.6635H36.1686C37.0653 19.6635 37.7551 18.974 37.7551 18.0776ZM37.7551 24.9038C37.7551 24.0074 37.0653 23.3179 36.1686 23.3179H27.1325C26.3047 23.3179 25.615 24.0074 25.615 24.9038C25.615 25.7312 26.3047 26.4208 27.1325 26.4208H36.1686C37.0653 26.4208 37.7551 25.7312 37.7551 24.9038ZM24.5113 38.0736C24.5113 37.0393 23.6146 36.1429 22.5799 36.1429C21.5452 36.1429 20.6485 37.0393 20.6485 38.0736C20.6485 39.1768 21.5452 40.0042 22.5799 40.0042C23.0628 40.0042 23.6146 39.8663 23.9595 39.4526C24.3044 39.1078 24.5113 38.6252 24.5113 38.0736ZM17.7514 38.0736C17.7514 37.0393 16.8547 36.1429 15.82 36.1429C14.7164 36.1429 13.8887 37.0393 13.8887 38.0736C13.8887 39.1768 14.7164 40.0042 15.82 40.0042C16.3029 40.0042 16.7857 39.8663 17.1306 39.4526C17.5445 39.1078 17.7514 38.6252 17.7514 38.0736Z" fill="#C4D4DD"/>
<path d="M51.2059 38.2122V38.2812C51.2059 39.1086 50.5161 39.7292 49.6884 39.7292H29.0639C28.2362 39.7292 27.5464 39.0397 27.5464 38.2812V38.2122C27.5464 37.3848 28.2362 36.6953 29.0639 36.6953H49.7574C50.5851 36.6953 51.2059 37.3848 51.2059 38.2122Z" fill="#E6EDF2"/>
<path d="M43.6873 29.457H27.5464V32.0772H43.6873V29.457Z" fill="#E6EDF2"/>
<path d="M42.9975 52.8989L43.1355 53.1057C41.9628 53.8642 40.6523 54.4848 39.4106 54.9674V45.7969H42.9975V52.8989Z" fill="#E6EDF2"/>
<path d="M36.1689 16.5625C36.9966 16.6315 37.6174 17.321 37.6174 18.0794C37.6174 18.9069 36.9966 19.5964 36.1689 19.6653H27.1328C26.7879 19.6653 26.374 19.4585 26.0981 19.1827C25.7532 18.9069 25.6152 18.4931 25.6152 18.0794C25.6152 17.252 26.305 16.5625 27.1328 16.5625H36.1689Z" fill="#7EB5BD"/>
<path d="M36.1689 23.3164C36.9966 23.3854 37.6174 24.0749 37.6174 24.9023C37.6174 25.7297 36.9966 26.3503 36.1689 26.4192H27.1328C26.305 26.4192 25.6152 25.7297 25.6152 24.9023C25.6152 24.0059 26.305 23.3164 27.1328 23.3164H36.1689Z" fill="#7EB5BD"/>
<path d="M36.2373 55.6593L36.3063 56.0041C29.5465 57.7968 22.3727 57.0383 16.0957 53.8666V45.5234H36.2373V55.6593Z" fill="#7EB5BD"/>
<path d="M22.5798 36.2148C23.3386 36.2148 24.0973 36.6975 24.3733 37.387C24.6492 38.1455 24.5112 38.9729 23.9594 39.5245C23.4076 40.0761 22.5798 40.214 21.8211 39.9382C21.1313 39.5935 20.6484 38.904 20.6484 38.1455C20.6484 37.0423 21.5452 36.2148 22.5798 36.2148Z" fill="#E6EDF2"/>
<path d="M16.0959 17.2539C17.1996 17.2539 18.2342 17.8745 18.6481 18.9087C19.062 19.943 18.855 21.1152 18.0963 21.8737C17.2685 22.6321 16.0959 22.9079 15.0612 22.4942C14.0955 22.0805 13.4058 21.0462 13.4058 19.943C13.4058 18.4261 14.6474 17.2539 16.0959 17.2539Z" fill="#7EB5BD"/>
<path d="M15.8201 36.2148C16.5788 36.2148 17.2686 36.6975 17.6135 37.387C17.8894 38.1455 17.6825 38.9729 17.1306 39.5245C16.5788 40.0761 15.7511 40.214 15.0613 39.9382C14.3025 39.5935 13.8887 38.904 13.8887 38.1455C13.8887 37.0423 14.7164 36.2148 15.8201 36.2148Z" fill="#E6EDF2"/>
<path d="M10.0258 49.5202C0.575816 40.8323 -1.70047 26.9041 4.36962 15.596C10.5087 4.35695 23.4766 -1.29708 35.8927 1.87469C48.3087 4.97751 57 16.2166 56.931 28.9726C56.931 29.7311 56.931 30.4896 56.862 31.248C56.1723 40.3496 50.9989 48.5549 43.1354 53.1746C41.9627 53.8641 40.6522 54.4847 39.4106 55.0363C38.3759 55.3811 37.3412 55.7258 36.3065 56.0016C29.5467 57.8633 22.3729 57.1049 16.0959 53.8641C13.8886 52.692 11.8193 51.244 10.0258 49.5892" stroke="#454E54" stroke-width="0.9" stroke-linejoin="round"/>
<path d="M16.0957 30.2839V22.6992" stroke="#454E54" stroke-width="0.9" stroke-linejoin="round"/>
<path d="M18.8552 19.943C18.8552 21.0462 18.1654 22.0805 17.1308 22.4942C16.1651 22.9079 14.9924 22.6321 14.1647 21.8737C13.4059 21.1152 13.199 19.943 13.6129 18.9087C14.0268 17.8745 14.9924 17.2539 16.0961 17.2539C16.8549 17.2539 17.5446 17.5297 18.0275 18.0124C18.5793 18.564 18.8552 19.2535 18.8552 19.943Z" stroke="#454E54" stroke-width="0.9" stroke-linejoin="round"/>
<path d="M36.1689 19.6653H27.1328C26.305 19.6653 25.6152 18.9758 25.6152 18.0794C25.6152 17.252 26.305 16.5625 27.1328 16.5625H36.1689C36.9966 16.6315 37.6174 17.252 37.6174 18.0794C37.6174 18.9069 36.9966 19.5964 36.1689 19.6653Z" stroke="#454E54" stroke-width="0.9" stroke-linejoin="round"/>
<path d="M36.1689 26.4192H27.1328C26.305 26.4192 25.6152 25.7297 25.6152 24.9023C25.6152 24.0059 26.305 23.3164 27.1328 23.3164H36.1689C36.9966 23.3854 37.6174 24.0749 37.6174 24.9023C37.6174 25.6608 36.9966 26.3503 36.1689 26.4192Z" stroke="#454E54" stroke-width="0.9" stroke-linejoin="round"/>
<path d="M10.0259 49.5195V30.282H16.096H22.5109V12.9062H40.7902V25.4554H47.2051V31.2474H56.8621" stroke="#454E54" stroke-width="0.9" stroke-linejoin="round"/>
<path d="M49.6884 39.7292H29.0639C28.2362 39.7292 27.5464 39.0397 27.5464 38.2812V38.2122C27.5464 37.3848 28.2362 36.6953 29.0639 36.6953H49.7574C50.5851 36.6953 51.2059 37.3848 51.2749 38.2122V38.2812C51.2059 38.626 51.068 39.0397 50.792 39.3155C50.5161 39.5913 50.1023 39.7292 49.6884 39.7292Z" stroke="#454E54" stroke-width="0.9" stroke-linejoin="round"/>
<path d="M16.0957 53.8666V45.5234H36.2373V55.6593" stroke="#454E54" stroke-width="0.9" stroke-linejoin="round"/>
<path d="M39.4106 54.9674V45.7969H42.9975V52.8989" stroke="#454E54" stroke-width="0.9" stroke-linejoin="round"/>
<path d="M17.7513 38.0765C17.7513 38.904 17.2685 39.5935 16.5787 39.9382C15.82 40.214 14.9922 40.0761 14.4404 39.5245C13.8886 38.9729 13.6816 38.1455 14.0265 37.387C14.3024 36.6975 14.9922 36.2148 15.82 36.2148C16.8546 36.2148 17.6824 37.0423 17.7513 38.0765Z" stroke="#454E54" stroke-width="0.9" stroke-linejoin="round"/>
<path d="M24.5112 38.0765C24.5112 38.904 24.0284 39.5935 23.3386 39.9382C22.6488 40.214 21.7521 40.0761 21.2003 39.5245C20.6484 38.9729 20.5105 38.1455 20.7864 37.387C21.0623 36.6975 21.8211 36.2148 22.5798 36.2148C23.6145 36.2148 24.5112 37.0423 24.5112 38.0765Z" stroke="#454E54" stroke-width="0.9" stroke-linejoin="round"/>
<path d="M43.6873 29.457H27.5464V32.0772H43.6873V29.457Z" stroke="#454E54" stroke-width="0.9" stroke-linejoin="round"/>
<path opacity="0.07" d="M28.9947 1.04688C27.6842 1.04688 26.3736 1.11583 25.063 1.32268C38.8586 3.25332 49.1364 15.044 49.1364 28.9722C49.1364 42.9694 38.8586 54.7601 25.063 56.6908C26.3736 56.8976 27.6842 56.9666 28.9947 56.9666C44.4459 56.9666 56.9999 44.4863 56.9999 28.9722C56.9999 13.5271 44.4459 1.04688 28.9947 1.04688Z" fill="black"/>
</svg>
