<svg xmlns="http://www.w3.org/2000/svg" width="83" height="83" viewBox="0 0 83 83"><style>.a{fill:#E6EDF2;}.b{fill:#7EB5BD;}.c{stroke-linejoin:round;stroke-width:0.9;stroke:#6E7F89;}</style><g style="fill:none;stroke-width:1;stroke:none"><g transform="translate(-584 -230)translate(585 231)"><path d="M21.9 42.5L13.1 42.5 13.1 70.4C-0.6 57.8-3.9 37.6 4.9 21.2 13.8 4.9 32.6-3.3 50.6 1.3 68.6 5.8 81.2 22.1 81.1 40.6 81.1 41.7 81.1 42.8 81 43.9L67 43.9 67 35.5 57.7 35.5 57.7 17.3 31.2 17.3 31.2 42.5 21.9 42.5ZM21.9 31.5C23.5 31.5 25 30.5 25.6 29 26.2 27.5 25.8 25.8 24.7 24.7 23.6 23.6 21.9 23.3 20.4 23.9 18.9 24.5 18 25.9 18 27.5 18 28.6 18.4 29.6 19.1 30.3 19.9 31 20.9 31.5 21.9 31.5Z" fill="#D4F4F2"/><path d="M81 43.9L81 43.9C80 57.1 72.6 69 61.1 75.7L60.9 75.4 60.9 65 55.7 65 55.7 78.3C54.2 78.9 52.7 79.4 51.2 79.8L51.1 79.3 51.1 64.6 21.9 64.6 21.9 76.7C18.7 75 15.7 72.9 13.1 70.5L13.1 70.5 13.1 42.6 31.2 42.6 31.2 17.3 57.7 17.3 57.7 35.5 67 35.5 67 43.9 81 43.9ZM72.8 54.1L72.8 54C72.8 52.8 71.9 51.8 70.7 51.8L40.7 51.8C39.5 51.8 38.5 52.8 38.5 54L38.5 54.1C38.5 55.3 39.5 56.2 40.7 56.2L70.7 56.2C71.9 56.2 72.8 55.2 72.8 54.1L72.8 54.1ZM61.9 45.1L61.9 41.2 38.5 41.2 38.5 45.1 61.9 45.1ZM53.3 24.8C53.3 23.6 52.3 22.6 51 22.6L37.9 22.6C36.7 22.6 35.7 23.6 35.7 24.8 35.7 26.1 36.7 27.1 37.9 27.1L51 27.1C52.3 27.1 53.3 26.1 53.3 24.8L53.3 24.8ZM53.3 34.7C53.3 33.4 52.3 32.4 51 32.4L37.9 32.4C36.7 32.4 35.7 33.4 35.7 34.7 35.7 35.9 36.7 36.9 37.9 36.9L51 36.9C52.3 36.9 53.3 35.9 53.3 34.7ZM34.1 53.8C34.1 52.3 32.8 51 31.3 51 29.8 51 28.5 52.3 28.5 53.8 28.5 55.4 29.8 56.6 31.3 56.6 32 56.6 32.8 56.4 33.3 55.8 33.8 55.3 34.1 54.6 34.1 53.8L34.1 53.8ZM24.3 53.8C24.3 52.3 23 51 21.5 51 19.9 51 18.7 52.3 18.7 53.8 18.7 55.4 19.9 56.6 21.5 56.6 22.2 56.6 22.9 56.4 23.4 55.8 24 55.3 24.3 54.6 24.3 53.8L24.3 53.8Z" fill="#C4D4DD"/><path d="M72.8 54L72.8 54.1C72.8 55.3 71.8 56.2 70.6 56.2L40.7 56.2C39.5 56.2 38.5 55.2 38.5 54.1L38.5 54C38.5 52.8 39.5 51.8 40.7 51.8L70.7 51.8C71.9 51.8 72.8 52.8 72.8 54Z" class="a"/><rect x="38.5" y="41.3" width="23.4" height="3.8" class="a"/><path d="M60.9 75.3L61.1 75.6C59.4 76.7 57.5 77.6 55.7 78.3L55.7 65 60.9 65 60.9 75.3Z" class="a"/><path d="M51 22.6C52.2 22.7 53.1 23.7 53.1 24.8 53.1 26 52.2 27 51 27.1L37.9 27.1C37.4 27.1 36.8 26.8 36.4 26.4 35.9 26 35.7 25.4 35.7 24.8 35.7 23.6 36.7 22.6 37.9 22.6L51 22.6Z" class="b"/><path d="M51 32.4C52.2 32.5 53.1 33.5 53.1 34.7 53.1 35.9 52.2 36.8 51 36.9L37.9 36.9C36.7 36.9 35.7 35.9 35.7 34.7 35.7 33.4 36.7 32.4 37.9 32.4L51 32.4Z" class="b"/><path d="M51.1 79.3L51.2 79.8C41.4 82.4 31 81.3 21.9 76.7L21.9 64.6 51.1 64.6 51.1 79.3Z" class="b"/><path d="M31.3 51.1C32.4 51.1 33.5 51.8 33.9 52.8 34.3 53.9 34.1 55.1 33.3 55.9 32.5 56.7 31.3 56.9 30.2 56.5 29.2 56 28.5 55 28.5 53.9 28.5 52.3 29.8 51.1 31.3 51.1L31.3 51.1Z" class="a"/><path d="M21.9 23.6C23.5 23.6 25 24.5 25.6 26 26.2 27.5 25.9 29.2 24.8 30.3 23.6 31.4 21.9 31.8 20.4 31.2 19 30.6 18 29.1 18 27.5 18 25.3 19.8 23.6 21.9 23.6Z" fill="#FF7C6E"/><path d="M21.5 51.1C22.6 51.1 23.6 51.8 24.1 52.8 24.5 53.9 24.2 55.1 23.4 55.9 22.6 56.7 21.4 56.9 20.4 56.5 19.3 56 18.7 55 18.7 53.9 18.7 52.3 19.9 51.1 21.5 51.1L21.5 51.1Z" class="a"/><path d="M13.1 70.4C-0.6 57.8-3.9 37.6 4.9 21.2 13.8 4.9 32.6-3.3 50.6 1.3 68.6 5.8 81.2 22.1 81.1 40.6 81.1 41.7 81.1 42.8 81 43.9 80 57.1 72.5 69 61.1 75.7 59.4 76.7 57.5 77.6 55.7 78.4 54.2 78.9 52.7 79.4 51.2 79.8 41.4 82.5 31 81.4 21.9 76.7 18.7 75 15.7 72.9 13.1 70.5" class="c"/><path d="M21.9 42.5L21.9 31.5" class="c"/><path d="M25.9 27.5C25.9 29.1 24.9 30.6 23.4 31.2 22 31.8 20.3 31.4 19.1 30.3 18 29.2 17.7 27.5 18.3 26 18.9 24.5 20.3 23.6 21.9 23.6 23 23.6 24 24 24.7 24.7 25.5 25.5 25.9 26.5 25.9 27.5L25.9 27.5Z" class="c"/><path d="M51 27.1L37.9 27.1C36.7 27.1 35.7 26.1 35.7 24.8 35.7 23.6 36.7 22.6 37.9 22.6L51 22.6C52.2 22.7 53.1 23.6 53.1 24.8 53.1 26 52.2 27 51 27.1L51 27.1Z" class="c"/><path d="M51 36.9L37.9 36.9C36.7 36.9 35.7 35.9 35.7 34.7 35.7 33.4 36.7 32.4 37.9 32.4L51 32.4C52.2 32.5 53.1 33.5 53.1 34.7 53.1 35.8 52.2 36.8 51 36.9L51 36.9Z" class="c"/><polyline points="13.1 70.4 13.1 70.4 13.1 42.5 21.9 42.5 31.2 42.5 31.2 17.3 57.7 17.3 57.7 35.5 67 35.5 67 43.9 81 43.9" class="c"/><path d="M70.6 56.2L40.7 56.2C39.5 56.2 38.5 55.2 38.5 54.1L38.5 54C38.5 52.8 39.5 51.8 40.7 51.8L70.7 51.8C71.9 51.8 72.8 52.8 72.9 54L72.9 54.1C72.8 54.6 72.6 55.2 72.2 55.6 71.8 56 71.2 56.2 70.6 56.2L70.6 56.2Z" class="c"/><polyline points="21.9 76.7 21.9 64.6 51.1 64.6 51.1 79.3" class="c"/><polyline points="55.7 78.3 55.7 65 60.9 65 60.9 75.3" class="c"/><path d="M24.3 53.8C24.3 55 23.6 56 22.6 56.5 21.5 56.9 20.3 56.7 19.5 55.9 18.7 55.1 18.4 53.9 18.9 52.8 19.3 51.8 20.3 51.1 21.5 51.1 23 51.1 24.2 52.3 24.3 53.8L24.3 53.8Z" class="c"/><path d="M34.1 53.8C34.1 55 33.4 56 32.4 56.5 31.4 56.9 30.1 56.7 29.3 55.9 28.5 55.1 28.3 53.9 28.7 52.8 29.1 51.8 30.2 51.1 31.3 51.1 32.8 51.1 34.1 52.3 34.1 53.8L34.1 53.8Z" class="c"/><rect x="38.5" y="41.3" width="23.4" height="3.8" class="c"/><path d="M40.6 0.1C38.7 0.1 36.8 0.2 34.9 0.5 54.9 3.3 69.8 20.4 69.8 40.6 69.8 60.9 54.9 78 34.9 80.8 36.8 81.1 38.7 81.2 40.6 81.2 63 81.2 81.2 63.1 81.2 40.6 81.2 18.2 63 0.1 40.6 0.1Z" style="fill:#000;opacity:0.07"/></g></g></svg>
