<?xml version="1.0" encoding="UTF-8"?>
<svg version="1.1" viewBox="0 0 189 192" xmlns="http://www.w3.org/2000/svg">
<g fill="none" fill-rule="evenodd">
<g transform="translate(1 1)">
<path d="m155 119c-2.1842-1.9977-5.04-3.1008-8-3.09h-6.5c-3.5386 0.004379-6.8904 1.5886-9.14 4.32l-2.22-1.45c-0.38796-0.74092-0.59365-1.5637-0.6-2.4 0.015825-1.4295 0.59893-2.7942 1.621-3.7938s2.3994-1.5522 3.829-1.5362h5.66v0.51h6.69v-0.51h6.19c2.973-0.027763 5.407 2.3571 5.44 5.33-0.001628 0.83692-0.20759 1.6608-0.6 2.4l-2.37 0.22z" fill="#7EB5BD" fill-rule="nonzero"/>
<path d="m43.32 113.93v4.78h-5.86c-9.21 0-9.83-5.58-9.83-5.58v29.67c-5.2e-6 0.686 0.27319 1.3437 0.7592 1.8279s1.1448 0.75478 1.8308 0.75212h0.59v1.74c0.0054694 6.5472 5.3029 11.858 11.85 11.88h-7.76c-4.1241 0.012939-7.747 2.7404-8.9 6.7-17.792-9.6513-26.651-30.239-21.426-49.795 5.2246-19.555 23.171-32.982 43.406-32.473s37.484 14.819 41.72 34.612c4.236 19.793-5.6456 39.91-23.9 48.656l-0.14-0.3c-0.90749-4.3296-4.7364-7.4228-9.16-7.4h-7.34c6.5455-0.022039 11.84-5.3344 11.84-11.88v-1.74h1c0.68507 0.002671 1.3429-0.26829 1.8273-0.75272 0.48442-0.48442 0.75539-1.1422 0.75272-1.8273v-14.26c0.0026539-2.6062-1.0308-5.1065-2.8727-6.9503-1.8419-1.8438-4.3412-2.8797-6.9473-2.8797h-4.76v-4.78c3.8305-1.5926 6.0037-5.6681 5.1917-9.7363-0.81201-4.0681-4.3833-6.9971-8.5317-6.9971s-7.7197 2.9289-8.5317 6.9971c-0.81201 4.0681 1.3612 8.1437 5.1917 9.7363z" fill="#E6EDF2" fill-rule="nonzero"/>
<path d="m81.91 64.56c-0.53317-0.67489-0.41951-1.654 0.25409-2.1888 0.6736-0.5348 1.653-0.42351 2.1894 0.2488s0.42751 1.652-0.2435 2.19c-0.32431 0.26005-0.739 0.37991-1.152 0.33297-0.41304-0.046936-0.79026-0.25678-1.048-0.58297z" fill="#6E7F89" fill-rule="nonzero"/>
<path d="m112.54 81.3l0.12 0.21c-12.252 7.0057-27.15 7.5991-39.92 1.59l0.08-0.18c0.58908-4.6554 4.5475-8.1468 9.24-8.15h21.6c4.0689 0.0022955 7.665 2.6467 8.88 6.53z" fill="#C4D4DD" fill-rule="nonzero"/>
<path d="m141.14 98.54c1.0043-5.226e-4 1.8276 0.79626 1.86 1.8v0.09c-0.049123 1.0085-0.89787 1.7914-1.9071 1.759-1.0092-0.032358-1.8061-0.86798-1.7905-1.8776 0.015583-1.0096 0.83785-1.8203 1.8476-1.8214l-0.01 0.05z" fill="#FDAE76" fill-rule="nonzero"/>
<path d="m153.5 122.2c-0.3951 1.1126-0.3951 2.3274 0 3.44-7.0647 3.6412-15.059 5.0799-22.95 4.13-0.19659-0.30585-0.42815-0.58775-0.69-0.84 2.7061-1.0124 4.1028-4.0058 3.14-6.73-0.087886-0.2188-0.18804-0.43248-0.3-0.64 0.41535 0.10425 0.84177 0.15798 1.27 0.16 1.7112 0.001608 3.3245-0.79766 4.36-2.16 0.88743 0.38255 1.8436 0.57992 2.81 0.58 1.21 0 5.81-0.31 6.81-0.84 1.0186 1.5197 2.7306 2.4282 4.56 2.42 0.42823-0.002024 0.85465-0.055747 1.27-0.16-0.10915 0.20606-0.20274 0.41999-0.28 0.64z" fill="#7EB5BD" fill-rule="nonzero"/>
<path d="m91.9 34.52s22.18-1 21.59 27.72h-5.74v-10.4c0.002758-1.5803-0.31356-3.1449-0.93-4.6-1.8663-4.3786-6.1603-7.2255-10.92-7.24h-6.5c-6.5377 0.016489-11.834 5.3123-11.85 11.85v11.08c6.984e-4 0.60933 0.047499 1.2177 0.14 1.82h-0.14-4.76s-5.79-28.68 19.11-30.23z" fill="#7EB5BD" fill-rule="nonzero"/>
<path d="m143 100.44c0.027351 1.0116 0.86244 1.8135 1.8743 1.7998 1.0119-0.013677 1.825-0.83786 1.825-1.8498 0-1.012-0.81311-1.8362-1.825-1.8498-1.0119-0.013677-1.847 0.78822-1.8743 1.7998-0.038182-1.0903-0.94302-1.9488-2.0338-1.9297-1.0908 0.019094-1.965 0.90877-1.965 1.9997s0.87424 1.9806 1.965 1.9997 1.9956-0.83944 2.0338-1.9297v-0.04zm0-10.39c4.1547-0.0076994 7.735 2.9233 8.548 6.9977 0.81293 4.0744-1.3684 8.155-5.208 9.7423v4.26h-6.69v-4.26c-3.8192-1.6046-5.9797-5.6772-5.1668-9.7392 0.81289-4.062 4.3743-6.9895 8.5168-7.0008z" fill="#FDAE76" fill-rule="nonzero"/>
<path d="m91.9 23.34c0.0040435 0.7541-0.44764 1.436-1.1436 1.7265s-1.4984 0.13196-2.0316-0.40128c-0.53324-0.53324-0.69174-1.3357-0.40128-2.0316s0.97237-1.1476 1.7265-1.1436c0.49065 0 0.96121 0.19491 1.3081 0.54185s0.54185 0.8175 0.54185 1.3081z" fill="#FDAE76" fill-rule="nonzero"/>
<path d="m155 119c1.2881 1.1543 2.3115 2.5733 3 4.16l-0.56 0.17c-1.229 0.8732-2.5266 1.6457-3.88 2.31-0.3951-1.1126-0.3951-2.3274 0-3.44 0.083724-0.22059 0.18401-0.43453 0.3-0.64-0.41535 0.10425-0.84177 0.15798-1.27 0.16-1.84 0.018335-3.5655-0.89141-4.59-2.42-1 0.53-5.6 0.84-6.81 0.84-0.96638-8.5e-5 -1.9226-0.19745-2.81-0.58-1.0355 1.3623-2.6488 2.1616-4.36 2.16-0.42823-0.002024-0.85465-0.055747-1.27-0.16l-2-0.41c0.21-0.32 0.44-0.62 0.68-0.92 2.2496-2.7314 5.6014-4.3156 9.14-4.32h6.43c2.96-0.01077 5.8158 1.0923 8 3.09z" fill="#7EB5BD" fill-rule="nonzero"/>
<path d="m143 100.39v0.1c-0.020222-0.030266-0.020222-0.069734 0-0.1z" fill="#FDAE76" fill-rule="nonzero"/>
<path d="m61 137.76c-10.001 1.7061-20.276-0.49555-28.7-6.15l-0.57-0.18c1.8632-4.3825 6.1579-7.2338 10.92-7.25h6.5c6.5238 0.021835 11.812 5.2963 11.85 11.82v1.76z" fill="#7EB5BD" fill-rule="nonzero"/>
<path d="m158.84 128.93v8.81h-0.09c-1.3524-0.44807-2.468-1.4208-3.0961-2.6995-0.62809-1.2788-0.71598-2.7563-0.24392-4.1005 0.26472-0.75743 0.70308-1.4424 1.28-2l2.15-0.01z" fill="#F9E3D4" fill-rule="nonzero"/>
<path d="m135.21 140.72c-0.49186 0.39583-1.1738 0.45616-1.7275 0.15283-0.55371-0.30333-0.87-0.9105-0.80122-1.5381 0.068777-0.6276 0.50906-1.1519 1.1153-1.3281s1.259 0.030385 1.6534 0.52334c0.53159 0.67302 0.42473 1.6481-0.24 2.19z" fill="#6E7F89" fill-rule="nonzero"/>
<path d="m131.11 130.91c0.86062 2.4479-0.18133 5.1587-2.46 6.4v-7.83c0.63 0.11 1.26 0.21 1.87 0.29 0.24561 0.3526 0.44396 0.73586 0.59 1.14z" fill="#F9E3D4" fill-rule="nonzero"/>
<rect x="139.65" y="111.05" width="3.34" height="1" fill="#fff" fill-rule="nonzero"/>
<path d="m38 105.9c-0.025043-4.3762 3.2045-8.0899 7.5418-8.6724s8.4323 2.1474 9.5628 6.3752c1.1305 4.2277-1.0554 8.6372-5.1046 10.297v4.78h-6.68v-4.78c-3.2202-1.3548-5.316-4.5064-5.32-8zm8.7 1.64c0-1.0217-0.82827-1.85-1.85-1.85s-1.85 0.82827-1.85 1.85 0.82827 1.85 1.85 1.85 1.85-0.82827 1.85-1.85c0.0055158 1.0204 0.83622 1.8437 1.8566 1.84 1.0204-0.003672 1.8452-0.83288 1.8433-1.8533s-0.82955-1.8467-1.85-1.8467c-0.49928-0.010806-0.98173 0.1807-1.3377 0.531-0.35594 0.35029-0.55515 0.82961-0.55233 1.329h0.04z" fill="#FDAE76" fill-rule="nonzero"/>
<path d="m48.51 105.68c0.7532-0.00405 1.4345 0.44655 1.7255 1.1413 0.29105 0.6947 0.13439 1.4964-0.39677 2.0304s-1.332 0.69501-2.0282 0.40771c-0.69626-0.2873-1.1505-0.96614-1.1505-1.7194-0.0026616-0.49238 0.19107-0.96551 0.5383-1.3146s0.81931-0.54539 1.3117-0.54538z" fill="#FDAE76" fill-rule="nonzero"/>
<path d="m54.45 149c0.67489 0.53318 1.654 0.41951 2.1888-0.25409 0.5348-0.6736 0.42351-1.653-0.2488-2.1894-0.67231-0.53643-1.652-0.42751-2.19 0.2435-0.53599 0.67726-0.42428 1.6603 0.25 2.2zm-18.07-2c-0.39988 0.49449-0.46196 1.1814-0.15722 1.7395 0.30473 0.55817 0.91608 0.87738 1.5483 0.80842s1.1603-0.51249 1.3375-1.1232c0.17721-0.61075-0.031507-1.2681-0.5286-1.6647-0.32306-0.26117-0.73695-0.3827-1.1499-0.33765-0.41298 0.045052-0.79093 0.25296-1.0501 0.57765zm-5.57-11c-0.0019368-1.5802 0.31435-3.1446 0.93-4.6l0.57 0.18c8.4241 5.6545 18.699 7.8561 28.7 6.15v9.36c0.0079665 3.1508-1.236 6.1757-3.4583 8.4092-2.2223 2.2336-5.2409 3.4928-8.3917 3.5008h-6.5c-6.5355-0.02195-11.828-5.3145-11.85-11.85v-11.15z" fill="#F9E3D4" fill-rule="nonzero"/>
<path d="m36.63 149.16c-0.66902-0.54085-0.7739-1.5212-0.23444-2.1914s1.5196-0.77707 2.1909-0.239c0.67126 0.53806 0.78023 1.518 0.24357 2.1904-0.25915 0.32469-0.6371 0.5326-1.0501 0.57765-0.41298 0.045051-0.82686-0.076477-1.1499-0.33765z" fill="#6E7F89" fill-rule="nonzero"/>
<path d="m107.75 62.24v0.68c-0.02195 6.5355-5.3145 11.828-11.85 11.85h-6.5c-5.8262-0.014127-10.784-4.2479-11.71-10-0.092501-0.60227-0.1393-1.2107-0.14-1.82v-9.39c10.001 1.7061 20.276-0.49555 28.7-6.15l0.57-0.17c0.61644 1.4551 0.93276 3.0197 0.93 4.6v10.4zm-5.82 2.76c0.32619-0.25769 0.53604-0.63492 0.58297-1.048 0.046937-0.41304-0.072921-0.82773-0.33297-1.152-0.54255-0.66916-1.5211-0.78036-2.2-0.25-0.67655 0.55228-0.77728 1.5485-0.225 2.225 0.55228 0.67655 1.5485 0.77728 2.225 0.225h-0.05zm-17.82-0.16c0.49856-0.39456 0.70993-1.0509 0.53535-1.6622s-0.70065-1.0571-1.3324-1.1289c-0.63173-0.071788-1.2444 0.24452-1.5517 0.80112s-0.24858 1.2436 0.14874 1.74c0.54861 0.66481 1.5306 0.76301 2.2 0.22v0.03z" fill="#F9E3D4" fill-rule="nonzero"/>
<path d="m144.85 98.54c1.0151 3.708e-4 1.8404 0.81869 1.8493 1.8338 0.008899 1.0151-0.80184 1.8478-1.8168 1.8659-1.015 0.018168-1.855-0.78494-1.8824-1.7997v-0.1c0.021825-1.0045 0.84533-1.8057 1.85-1.8z" fill="#FDAE76" fill-rule="nonzero"/>
<path d="m164.06 161.13l0.07 0.13c-12.918 7.0866-28.548 7.1355-41.51 0.13l1.23-0.26c0-5.14 4.17-10.44 9.3-10.44h21.61c5.13 0 9.3 5.31 9.3 10.44z" fill="#C4D4DD" fill-rule="nonzero"/>
<path d="m93.75 21.49c0.7541-0.0040435 1.436 0.44764 1.7265 1.1436s0.13196 1.4984-0.40128 2.0316c-0.53324 0.53324-1.3357 0.69174-2.0316 0.40128s-1.1476-0.97237-1.1436-1.7265c0-1.0217 0.82827-1.85 1.85-1.85z" fill="#FDAE76" fill-rule="nonzero"/>
<path d="m158.84 127.76l1.8e-5 1.17h-2.15c-1.5104-0.56131-2.6913-1.7678-3.22-3.29 1.3534-0.66429 2.651-1.4368 3.88-2.31l0.56-0.17c0.61644 1.4551 0.93276 3.0197 0.93 4.6z" fill="#F9E3D4" fill-rule="nonzero"/>
<path d="m129.14 118.78l2.22 1.45c-0.24 0.3-0.47 0.6-0.68 0.92-1.3143 1.953-2.0111 4.256-2 6.61v9.55c-0.28328 0.16131-0.5813 0.29525-0.89 0.4-2.8206 0.98005-5.9066-0.47848-6.94-3.28-0.96172-2.727 0.4399-5.7216 3.15-6.73-0.56925-0.56386-1.0064-1.2469-1.28-2-0.46878-1.3456-0.37816-2.823 0.25156-4.1013 0.62972-1.2782 1.7459-2.2504 3.0984-2.6987 0.99044-0.33471 2.0565-0.37638 3.07-0.12z" fill="#7EB5BD" fill-rule="nonzero"/>
<path d="m30.22 145.38c-0.68599 0.002659-1.3448-0.26799-1.8308-0.75212s-0.7592-1.1419-0.7592-1.8279v-29.67s0.62 5.58 9.83 5.58h17.35c2.6062-1e-6 5.1054 1.036 6.9473 2.8797 1.8419 1.8438 2.8753 4.3441 2.8727 6.9503v14.26c0.0026709 0.68507-0.26829 1.3429-0.75272 1.8273-0.48442 0.48442-1.1422 0.75539-1.8273 0.75272h-1v-9.38c-0.02195-6.5355-5.3145-11.828-11.85-11.85h-6.5c-4.7621 0.016204-9.0568 2.8675-10.92 7.25-0.61565 1.4554-0.93194 3.0198-0.93 4.6v9.35l-0.63 0.03z" fill="#7EB5BD" fill-rule="nonzero"/>
<path d="m56.4 146.56c0.43586 0.35727 0.64802 0.91992 0.55655 1.476-0.091469 0.5561-0.47267 1.0212-1 1.22-0.52733 0.19884-1.1207 0.10124-1.5566-0.25602-0.67379-0.55228-0.77228-1.5462-0.22-2.22s1.5462-0.77228 2.22-0.22z" fill="#6E7F89" fill-rule="nonzero"/>
<path d="m65.62 166.4l0.14 0.3c-12.663 6.0539-27.458 5.6822-39.8-1 1.1571-3.9739 4.8011-6.7048 8.94-6.7h21.6c4.4086-0.003802 8.2155 3.0851 9.12 7.4z" fill="#C4D4DD" fill-rule="nonzero"/>
<path d="m158.84 137.74v1.1c-0.016463 6.5338-5.3062 11.828-11.84 11.85h-6.5c-6.5377-0.016489-11.834-5.3123-11.85-11.85v-1.53c2.2787-1.2413 3.3206-3.9521 2.46-6.4-0.14604-0.40414-0.34439-0.7874-0.59-1.14 7.8909 0.94986 15.885-0.48879 22.95-4.13 0.5287 1.5222 1.7096 2.7287 3.22 3.29-0.57692 0.55762-1.0153 1.2426-1.28 2-0.47206 1.3442-0.38417 2.8217 0.24392 4.1005 0.62809 1.2788 1.7437 2.2515 3.0961 2.6995l0.09 0.01zm-5.84 3.14c0.66902-0.54085 0.7739-1.5212 0.23444-2.1914s-1.5196-0.77707-2.1909-0.239c-0.67126 0.53806-0.78023 1.518-0.24357 2.1904 0.25915 0.32469 0.6371 0.5326 1.0501 0.57765 0.41298 0.045051 0.82686-0.076477 1.1499-0.33765zm-17.82-0.16c0.66902-0.54085 0.7739-1.5212 0.23444-2.1914s-1.5196-0.77707-2.1909-0.239c-0.67126 0.53806-0.78023 1.518-0.24357 2.1904 0.25971 0.33366 0.64372 0.5476 1.0641 0.59285 0.42039 0.045243 0.84114-0.082092 1.1659-0.35285h-0.03z" fill="#F9E3D4" fill-rule="nonzero"/>
<path d="m134.3 98.75c0.014406 3.4992 2.1216 6.6501 5.35 8v4.26h-5.65c-1.4295-0.016002-2.8069 0.53658-3.829 1.5362s-1.6052 2.3643-1.621 3.7938c0.006354 0.83632 0.21204 1.6591 0.6 2.4-1.0123-0.24797-2.0746-0.19937-3.06 0.14-1.3526 0.44833-2.4687 1.4205-3.0984 2.6987-0.62972 1.2782-0.72034 2.7556-0.25156 4.1013 0.27359 0.75308 0.71075 1.4361 1.28 2-2.726 0.99227-4.1477 3.9917-3.19 6.73 1.0334 2.8015 4.1194 4.26 6.94 3.28 0.3087-0.10475 0.60672-0.23869 0.89-0.4v1.53c0.016489 6.5377 5.3123 11.834 11.85 11.85h-7.35c-5.13 0-9.3 5.3-9.3 10.44l-1.23 0.26c-17.385-9.43-26.165-29.445-21.331-48.623 4.8344-19.178 22.054-32.639 41.832-32.7 19.778-0.061939 37.081 13.291 42.036 32.438 4.9545 19.147-3.7007 39.217-21.026 48.756l-0.07-0.13c0-5.14-4.17-10.44-9.3-10.44h-7.77c6.5377-0.016489 11.834-5.3123 11.85-11.85v-1.1c2.8043 0.91473 5.8309-0.54563 6.86-3.31 0.9567-2.7411-0.47006-5.7418-3.2-6.73 0.57606-0.55833 1.0143-1.2431 1.28-2 0.47493-1.3441 0.38839-2.8228-0.24008-4.1023s-1.7459-2.2519-3.0999-2.6977c-0.98893-0.33908-2.0543-0.38767-3.07-0.14 0.39241-0.73922 0.59837-1.5631 0.6-2.4-0.032966-2.9729-2.467-5.3578-5.44-5.33h-6.19v-4.26c4.0492-1.66 6.2351-6.0695 5.1046-10.297-1.1305-4.2277-5.2254-6.9577-9.5628-6.3752s-7.5669 4.2962-7.5418 8.6724h-0.05z" fill="#E6EDF2" fill-rule="nonzero"/>
<path d="m46.66 107.54c-0.0055158 1.0204-0.83622 1.8437-1.8566 1.84-1.0204-0.003672-1.8452-0.83288-1.8433-1.8533s0.82955-1.8467 1.85-1.8467c0.49239-7e-6 0.96446 0.19628 1.3117 0.54538s0.54097 0.82224 0.5383 1.3146z" fill="#FDAE76" fill-rule="nonzero"/>
<path d="m106.82 47.24l-0.57 0.17c-8.4241 5.6545-18.699 7.8561-28.7 6.15v-1.72c0.021979-6.5338 5.3162-11.824 11.85-11.84h6.5c4.7597 0.014492 9.0537 2.8614 10.92 7.24z" fill="#7EB5BD" fill-rule="nonzero"/>
<path d="m113.49 62.24c0.59-28.69-21.59-27.72-21.59-27.72-24.89 1.55-19.11 30.24-19.11 30.24h4.76 0.14c0.9261 5.7521 5.8838 9.9859 11.71 10h-7.34c-4.6925 0.0031568-8.6509 3.4946-9.24 8.15l-0.08 0.18c-18.049-8.4932-27.959-28.22-23.996-47.771 3.963-19.55 20.772-33.861 40.704-34.655 19.932-0.79389 37.826 12.135 43.332 31.308 5.5054 19.173-2.8034 39.626-20.12 49.528l-0.12-0.21c-1.215-3.8833-4.8111-6.5277-8.88-6.53h-7.76c6.5355-0.02195 11.828-5.3145 11.85-11.85v-0.68l5.74 0.01zm-18.25-27.73v-4.77c3.8305-1.5926 6.0037-5.6681 5.1917-9.7363-0.81201-4.0681-4.3833-6.9971-8.5317-6.9971s-7.7197 2.9289-8.5317 6.9971c-0.81201 4.0681 1.3612 8.1437 5.1917 9.7363v4.77h6.68z" fill="#E6EDF2" fill-rule="nonzero"/>
<path d="m99.73 64.72c-0.26005-0.32431-0.37991-0.739-0.33297-1.152 0.046936-0.41304 0.25678-0.79026 0.58297-1.048 0.67886-0.53036 1.6574-0.41916 2.2 0.25 0.35727 0.43765 0.45391 1.0327 0.25352 1.5609-0.20038 0.52823-0.66735 0.90942-1.225 1-0.55765 0.090576-1.1213-0.12323-1.4785-0.56088v-0.05z" fill="#6E7F89" fill-rule="nonzero"/>
<path d="m91.9 34.51h-3.34v-4.77c-3.8305-1.5926-6.0037-5.6681-5.1917-9.7363 0.81201-4.0681 4.3833-6.9971 8.5317-6.9971s7.7197 2.9289 8.5317 6.9971c0.812 4.0681-1.3612 8.1437-5.1917 9.7363v4.77h-3.34zm-1.85-9.31c0.49239 7.2e-6 0.96446-0.19628 1.3117-0.54538s0.54097-0.82224 0.5383-1.3146c0 1.0217 0.82827 1.85 1.85 1.85s1.85-0.82827 1.85-1.85-0.82827-1.85-1.85-1.85-1.85 0.82827-1.85 1.85c-1.09e-5 -0.75321-0.45428-1.4321-1.1505-1.7194-0.69626-0.2873-1.4971-0.12632-2.0282 0.40771s-0.68782 1.3357-0.39677 2.0304c0.29105 0.6947 0.97233 1.1453 1.7255 1.1413z" fill="#FDAE76" fill-rule="nonzero"/>
<path d="m153 140.88c-0.43586 0.34833-1.0245 0.43768-1.5441 0.23438-0.5196-0.2033-0.89127-0.66836-0.975-1.22-0.083734-0.55164 0.13319-1.106 0.56905-1.4544 0.67379-0.53848 1.6565-0.42879 2.195 0.245 0.53848 0.67379 0.42879 1.6565-0.245 2.195z" fill="#6E7F89" fill-rule="nonzero"/>
<path d="m128.65 127.76c-0.011112-2.354 0.68571-4.657 2-6.61l2 0.41c0.11196 0.20752 0.21211 0.4212 0.3 0.64 0.95769 2.7383-0.46403 5.7377-3.19 6.73 0.26185 0.25225 0.49341 0.53415 0.69 0.84-0.61-0.08-1.24-0.18-1.87-0.29l0.07-1.72z" fill="#7EB5BD" fill-rule="nonzero"/>
<path d="m143 100.44v-0.09c-0.016077 0.027846-0.016077 0.062154 0 0.09z" fill="#FDAE76" fill-rule="nonzero"/>
<rect x="142.99" y="111.05" width="3.35" height="1" fill="#fff" fill-rule="nonzero"/>
<path d="m162.5 127.7c2.7299 0.98821 4.1567 3.9889 3.2 6.73-1.0291 2.7644-4.0557 4.2247-6.86 3.31v-10c0.002758-1.5803-0.31356-3.1449-0.93-4.6-0.68852-1.5867-1.7119-3.0057-3-4.16l2.42-0.22c1.0157-0.24767 2.0811-0.19908 3.07 0.14 1.354 0.44574 2.4715 1.4181 3.0999 2.6977s0.71501 2.7583 0.24008 4.1023c-0.2541 0.75312-0.67842 1.4375-1.24 2z" fill="#7EB5BD" fill-rule="nonzero"/>
<path d="m122.62 161.39c-19.262-10.411-27.752-33.539-19.802-53.939 7.9506-20.401 29.852-31.684 51.079-26.316 21.227 5.3684 35.131 25.707 32.427 47.435-2.7039 21.728-21.169 38.038-43.064 38.04-7.2073 0.005708-14.302-1.7886-20.64-5.22v0z" stroke="#6E7F89" stroke-linecap="round" stroke-linejoin="round" stroke-width="1.5"/>
<path d="m146.34 111.05v-4.26c3.8286-1.5946 5.9992-5.67 5.1862-9.7368s-4.3838-6.9944-8.5312-6.9944-7.7181 2.9275-8.5312 6.9944 1.3576 8.1423 5.1862 9.7368v4.26" stroke="#6E7F89" stroke-linecap="round" stroke-linejoin="round" stroke-width="1.5"/>
<polyline points="142.99 111.05 142.99 100.48 142.99 100.39" stroke="#6E7F89" stroke-linecap="round" stroke-linejoin="round" stroke-width="1.5"/>
<path d="m143 100.34v0.1 0c-0.038114 0.95209-0.83094 1.6987-1.7836 1.6796-0.95266-0.019061-1.715-0.7968-1.715-1.7496 0-0.95285 0.76233-1.7306 1.715-1.7496 0.95266-0.019061 1.7455 0.72756 1.7836 1.6796v0.04z" stroke="#6E7F89" stroke-linecap="round" stroke-linejoin="round" stroke-width="1.5"/>
<path d="m143 100.34c0.027351-1.0116 0.86244-1.8135 1.8743-1.7998 1.0119 0.013677 1.825 0.83785 1.825 1.8498 0 1.012-0.81311 1.8362-1.825 1.8498-1.0119 0.013677-1.847-0.78822-1.8743-1.7998-0.013333-0.032-0.013333-0.068 0-0.1v0z" stroke="#6E7F89" stroke-linecap="round" stroke-linejoin="round" stroke-width="1.5"/>
<path d="m130.66 98.54h-2.01" stroke="#6E7F89" stroke-linecap="round" stroke-linejoin="round" stroke-width="1.5"/>
<path d="m157.42 98.54h-2.02" stroke="#6E7F89" stroke-linecap="round" stroke-linejoin="round" stroke-width="1.5"/>
<path d="m143 86.06v-2.33" stroke="#6E7F89" stroke-linecap="round" stroke-linejoin="round" stroke-width="1.5"/>
<path d="m132.61 88.16l1.69 1.89" stroke="#6E7F89" stroke-linecap="round" stroke-linejoin="round" stroke-width="1.5"/>
<path d="m152.11 90.26l1.57-1.79" stroke="#6E7F89" stroke-linecap="round" stroke-linejoin="round" stroke-width="1.5"/>
<path d="m128.65 137.31c-0.28328 0.16131-0.5813 0.29525-0.89 0.4-2.8206 0.98005-5.9066-0.47848-6.94-3.28-0.95868-2.7355 0.458-5.7337 3.18-6.73-0.56925-0.56386-1.0064-1.2469-1.28-2-0.46878-1.3456-0.37816-2.823 0.25156-4.1013 0.62972-1.2782 1.7459-2.2504 3.0984-2.6987 0.98543-0.33937 2.0477-0.38797 3.06-0.14-0.38796-0.74092-0.59365-1.5637-0.6-2.4 0.015825-1.4295 0.59893-2.7942 1.621-3.7938s2.3994-1.5522 3.829-1.5362h18.54c2.973-0.027763 5.407 2.3571 5.44 5.33-0.001628 0.83692-0.20759 1.6608-0.6 2.4 1.0157-0.24767 2.0811-0.19908 3.07 0.14 1.354 0.44574 2.4715 1.4181 3.0999 2.6977s0.71501 2.7583 0.24008 4.1023c-0.26572 0.75695-0.70394 1.4417-1.28 2 2.7299 0.98821 4.1567 3.9889 3.2 6.73-1.0291 2.7644-4.0557 4.2247-6.86 3.31" stroke="#6E7F89" stroke-linecap="round" stroke-linejoin="round" stroke-width="1.5"/>
<path d="m147 150.69h7.77c5.13 0 9.3 5.3 9.3 10.44" stroke="#6E7F89" stroke-linecap="round" stroke-linejoin="round" stroke-width="1.5"/>
<path d="m123.85 161.13c0-5.14 4.17-10.44 9.3-10.44h7.35" stroke="#6E7F89" stroke-linecap="round" stroke-linejoin="round" stroke-width="1.5"/>
<path d="m147 150.69h-6.5c-6.5377-0.016489-11.834-5.3123-11.85-11.85v-11.08c-0.011112-2.354 0.68571-4.657 2-6.61 0.21-0.32 0.44-0.62 0.68-0.92 2.2496-2.7314 5.6014-4.3156 9.14-4.32h6.53c2.96-0.01077 5.8158 1.0923 8 3.09 1.2881 1.1543 2.3115 2.5733 3 4.16 0.61644 1.4551 0.93276 3.0197 0.93 4.6v11.08c-0.007937 3.1543-1.27 6.1759-3.5078 8.3987s-5.2679 3.4645-8.4222 3.4513v0z" stroke="#6E7F89" stroke-linecap="round" stroke-linejoin="round" stroke-width="1.5"/>
<path d="m157.35 123.33c-1.229 0.8732-2.5266 1.6457-3.88 2.31-7.0647 3.6412-15.059 5.0799-22.95 4.13-0.61-0.08-1.24-0.18-1.87-0.29" stroke="#6E7F89" stroke-linecap="round" stroke-linejoin="round" stroke-width="1.5"/>
<path d="m72.74 83.1c-19.969-9.3966-29.672-32.311-22.525-53.19 7.1476-20.88 28.858-33.04 50.396-28.228 21.538 4.8122 36.008 25.056 33.59 46.993s-20.952 38.542-43.021 38.546c-6.3751 0.0018505-12.672-1.405-18.44-4.12z" stroke="#6E7F89" stroke-linecap="round" stroke-linejoin="round" stroke-width="1.5"/>
<path d="m89.4 74.77c-5.8262-0.014127-10.784-4.2479-11.71-10-0.092501-0.60227-0.1393-1.2107-0.14-1.82v-11.11c0.021979-6.5338 5.3162-11.824 11.85-11.84h6.5c4.7621 0.016204 9.0568 2.8675 10.92 7.25 0.61644 1.4551 0.93276 3.0197 0.93 4.6v11.08c-0.02195 6.5355-5.3145 11.828-11.85 11.85" stroke="#6E7F89" stroke-linecap="round" stroke-linejoin="round" stroke-width="1.5"/>
<path d="m77.55 64.76h-4.76s-5.79-28.69 19.11-30.24c0 0 22.18-1 21.59 27.72h-5.74" stroke="#6E7F89" stroke-linecap="round" stroke-linejoin="round" stroke-width="1.5"/>
<path d="m106.25 47.41c-8.4241 5.6545-18.699 7.8561-28.7 6.15" stroke="#6E7F89" stroke-linecap="round" stroke-linejoin="round" stroke-width="1.5"/>
<path d="m72.82 82.92c0.58908-4.6554 4.5475-8.1468 9.24-8.15h21.6c4.0689 0.0022955 7.665 2.6467 8.88 6.53" stroke="#6E7F89" stroke-linecap="round" stroke-linejoin="round" stroke-width="1.5"/>
<path d="m100.6 21.71c0.025043-4.3762-3.2045-8.0899-7.5418-8.6724s-8.4323 2.1474-9.5628 6.3752c-1.1305 4.2277 1.0554 8.6372 5.1046 10.297v4.77h6.68v-4.74c3.2303-1.3591 5.3281-4.5255 5.32-8.03v0z" stroke="#6E7F89" stroke-linecap="round" stroke-linejoin="round" stroke-width="1.5"/>
<polyline points="91.9 34.52 91.9 34.51 91.9 23.34" stroke="#6E7F89" stroke-linecap="round" stroke-linejoin="round" stroke-width="1.5"/>
<path d="m91.9 23.34c0.0040435 0.7541-0.44764 1.436-1.1436 1.7265s-1.4984 0.13196-2.0316-0.40128c-0.53324-0.53324-0.69174-1.3357-0.40128-2.0316s0.97237-1.1476 1.7265-1.1436c0.49065 0 0.96121 0.19491 1.3081 0.54185s0.54185 0.8175 0.54185 1.3081z" stroke="#6E7F89" stroke-linecap="round" stroke-linejoin="round" stroke-width="1.5"/>
<path d="m95.6 23.34c0 1.0217-0.82827 1.85-1.85 1.85s-1.85-0.82827-1.85-1.85 0.82827-1.85 1.85-1.85c0.49065 0 0.96121 0.19491 1.3081 0.54185s0.54185 0.8175 0.54185 1.3081v0z" stroke="#6E7F89" stroke-linecap="round" stroke-linejoin="round" stroke-width="1.5"/>
<path d="m79.57 21.49h-2.02" stroke="#6E7F89" stroke-linecap="round" stroke-linejoin="round" stroke-width="1.5"/>
<path d="m106.32 21.49h-2.02" stroke="#6E7F89" stroke-linecap="round" stroke-linejoin="round" stroke-width="1.5"/>
<path d="m91.9 9.02v-2.34" stroke="#6E7F89" stroke-linecap="round" stroke-linejoin="round" stroke-width="1.5"/>
<path d="M81.51,11.11 L83.2,13" stroke="#6E7F89" stroke-linecap="round" stroke-linejoin="round" stroke-width="1.5"/>
<path d="m101.02 13.21l1.57-1.78" stroke="#6E7F89" stroke-linecap="round" stroke-linejoin="round" stroke-width="1.5"/>
<path d="m26 165.7c-19.455-10.545-28.007-33.932-19.945-54.54 8.0627-20.608 30.214-31.982 51.66-26.526 21.446 5.4567 35.468 26.035 32.701 47.99s-21.457 38.411-43.586 38.375c-7.2759-0.008333-14.435-1.8299-20.83-5.3z" stroke="#6E7F89" stroke-linecap="round" stroke-linejoin="round" stroke-width="1.5"/>
<path d="m58.99 105.68h2.02" stroke="#6E7F89" stroke-linecap="round" stroke-linejoin="round" stroke-width="1.5"/>
<path d="m32.24 105.68h2.02" stroke="#6E7F89" stroke-linecap="round" stroke-linejoin="round" stroke-width="1.5"/>
<path d="m46.66 93.21v-2.33" stroke="#6E7F89" stroke-linecap="round" stroke-linejoin="round" stroke-width="1.5"/>
<path d="m49.16 159c6.5455-0.022039 11.84-5.3344 11.84-11.88v-11.12c-0.02195-6.5355-5.3145-11.828-11.85-11.85h-6.5c-4.7621 0.016204-9.0568 2.8675-10.92 7.25-0.61565 1.4554-0.93194 3.0198-0.93 4.6v11.09c-0.01106 6.5628 5.2972 11.893 11.86 11.91" stroke="#6E7F89" stroke-linecap="round" stroke-linejoin="round" stroke-width="1.5"/>
<path d="m32.31 131.61c8.4241 5.6545 18.699 7.8561 28.7 6.15" stroke="#6E7F89" stroke-linecap="round" stroke-linejoin="round" stroke-width="1.5"/>
<path d="m65.62 166.4c-0.90446-4.3149-4.7114-7.4038-9.12-7.4h-21.6c-4.1241 0.012939-7.747 2.7404-8.9 6.7" stroke="#6E7F89" stroke-linecap="round" stroke-linejoin="round" stroke-width="1.5"/>
<path d="m43.32 118.71v-4.78c-3.8305-1.5926-6.0037-5.6681-5.1917-9.7363 0.81201-4.0681 4.3833-6.9971 8.5317-6.9971s7.7197 2.9289 8.5317 6.9971c0.81201 4.0681-1.3612 8.1437-5.1917 9.7363v4.78" stroke="#6E7F89" stroke-linecap="round" stroke-linejoin="round" stroke-width="1.5"/>
<path d="m46.66 118.71v-11.17" stroke="#6E7F89" stroke-linecap="round" stroke-linejoin="round" stroke-width="1.5"/>
<path d="m46.66 107.54c0.0055158 1.0204 0.83622 1.8437 1.8566 1.84 1.0204-0.003672 1.8452-0.83288 1.8433-1.8533s-0.82955-1.8467-1.85-1.8467c-0.49239-7e-6 -0.96446 0.19628-1.3117 0.54538s-0.54097 0.82224-0.5383 1.3146v0z" stroke="#6E7F89" stroke-linecap="round" stroke-linejoin="round" stroke-width="1.5"/>
<path d="m43 107.54c0.0055158 1.0204 0.83622 1.8437 1.8566 1.84 1.0204-0.003672 1.8452-0.83288 1.8433-1.8533s-0.82955-1.8467-1.85-1.8467c-0.49239-7e-6 -0.96446 0.19628-1.3117 0.54538s-0.54097 0.82224-0.5383 1.3146v0z" stroke="#6E7F89" stroke-linecap="round" stroke-linejoin="round" stroke-width="1.5"/>
<path d="m57.05 95.31l-1.69 1.89" stroke="#6E7F89" stroke-linecap="round" stroke-linejoin="round" stroke-width="1.5"/>
<path d="m37.54 97.4l-1.57-1.78" stroke="#6E7F89" stroke-linecap="round" stroke-linejoin="round" stroke-width="1.5"/>
<path d="m30.22 145.38c-0.68599 0.002659-1.3448-0.26799-1.8308-0.75212s-0.7592-1.1419-0.7592-1.8279v-29.67s0.62 5.58 9.83 5.58h17.35c2.6062-1e-6 5.1054 1.036 6.9473 2.8797 1.8419 1.8438 2.8753 4.3441 2.8727 6.9503v14.26c0.0026709 0.68507-0.26829 1.3429-0.75272 1.8273-0.48442 0.48442-1.1422 0.75539-1.8273 0.75272h-1" stroke="#6E7F89" stroke-linecap="round" stroke-linejoin="round" stroke-width="1.5"/>
<path d="m18 127.19c0.0063679-21.291 15.323-39.494 36.3-43.14-17.208-3.0098-34.559 4.4936-44.152 19.093-9.5928 14.6-9.5928 33.504 0 48.103 9.5928 14.6 26.944 22.103 44.152 19.093-20.979-3.6502-36.294-21.856-36.3-43.15z" fill="#000" fill-rule="nonzero" opacity=".07" style="mix-blend-mode:multiply"/>
<path d="m62.91 44.27c0.001434-21.29 15.315-39.494 36.29-43.14-17.213-3.0224-34.575 4.4767-44.175 19.08-9.5999 14.603-9.5999 33.516 0 48.12s26.962 22.103 44.175 19.08c-20.975-3.6463-36.289-21.85-36.29-43.14z" fill="#000" fill-rule="nonzero" opacity=".07" style="mix-blend-mode:multiply"/>
<path d="m115.5 123.34c0.006368-21.291 15.323-39.494 36.3-43.14-17.208-3.0098-34.559 4.4936-44.152 19.093-9.5928 14.6-9.5928 33.504 0 48.103 9.5928 14.6 26.944 22.103 44.152 19.093-20.981-3.6464-36.298-21.855-36.3-43.15z" fill="#000" fill-rule="nonzero" opacity=".07" style="mix-blend-mode:multiply"/>
<path d="m148.62 36.69v21.55" stroke="#6E7F89" stroke-linecap="round" stroke-linejoin="round" stroke-width="1.5"/>
<path d="m148.62 40.62s0 9.13 13.57 8.06" stroke="#6E7F89" stroke-linecap="round" stroke-linejoin="round" stroke-width="1.5"/>
<path d="m148.72 29.11c2.0545 0 3.72 1.6655 3.72 3.72s-1.6655 3.72-3.72 3.72-3.72-1.6655-3.72-3.72 1.6655-3.72 3.72-3.72z" fill="#FF7C6E" fill-rule="nonzero"/>
<path d="m152.43 32.83c-0.005519 2.0477-1.669 3.7037-3.7166 3.7-2.0477-0.0036771-3.7052-1.6656-3.7033-3.7133 0.001835-2.0477 1.6623-3.7067 3.71-3.7067 0.98569-3.6e-6 1.9309 0.39224 2.6269 1.0902s1.0857 1.6441 1.0831 2.6298v0z" stroke="#6E7F89" stroke-linecap="round" stroke-linejoin="round" stroke-width="1.5"/>
<circle cx="165.99" cy="47.78" r="3.71" fill="#FF7C6E" fill-rule="nonzero"/>
<circle cx="165.99" cy="47.78" r="3.71" stroke="#6E7F89" stroke-linecap="round" stroke-linejoin="round" stroke-width="1.5"/>
<path d="m186.2 76.37c0.86532 1.8557 0.063609 4.0617-1.7913 4.9288-1.8549 0.86711-4.0616 0.067519-4.9305-1.7866-0.8689-1.8541-0.071429-4.0615 1.7818-4.9322 0.89185-0.42196 1.9153-0.47025 2.8429-0.13413 0.92762 0.33612 1.6826 1.0288 2.0971 1.9241z" fill="#7EB5BD" fill-rule="nonzero"/>
<path d="m181.26 74.58c1.8542-0.87011 4.0627-0.073007 4.9338 1.7807 0.8711 1.8537 0.075162 4.0627-1.7781 4.9348-1.8533 0.87208-4.0626 0.077316-4.9357-1.7755-0.41985-0.89101-0.46816-1.9124-0.13426-2.8391s1.0226-1.6825 1.9143-2.1009v0z" stroke="#6E7F89" stroke-linecap="round" stroke-linejoin="round" stroke-width="1.5"/>
<path d="m7.27 164.29c0.86533 1.8557 0.063609 4.0617-1.7913 4.9288s-4.0616 0.067519-4.9305-1.7866c-0.8689-1.8541-0.071429-4.0615 1.7818-4.9322 0.89185-0.42196 1.9153-0.47025 2.8429-0.13413 0.92761 0.33612 1.6826 1.0288 2.0971 1.9241z" fill="#7EB5BD" fill-rule="nonzero"/>
<path d="m2.33 162.5c1.8542-0.87012 4.0627-0.073007 4.9338 1.7807s0.075162 4.0627-1.7781 4.9348-4.0626 0.077317-4.9357-1.7755c-0.41985-0.89101-0.46815-1.9124-0.13426-2.8391 0.3339-0.92666 1.0226-1.6825 1.9143-2.1009v0z" stroke="#6E7F89" stroke-linecap="round" stroke-linejoin="round" stroke-width="1.5"/>
<circle cx="148.72" cy="62.01" r="3.71" fill="#FF7C6E" fill-rule="nonzero"/>
<circle cx="148.72" cy="62.01" r="3.71" stroke="#6E7F89" stroke-linecap="round" stroke-linejoin="round" stroke-width="1.5"/>
<path d="m31.56 43.84v4.88c0 3.25-2.58 6-6.26 7.23-2.36 0.76-4 2.45-4 4.41v9.87" stroke="#6E7F89" stroke-linecap="round" stroke-linejoin="round" stroke-width="1.5"/>
<path d="m11.09 43.84v4.88c0 3.25 2.57 6 6.25 7.23 2.35 0.76 4 2.45 4 4.41v9.87" stroke="#6E7F89" stroke-linecap="round" stroke-linejoin="round" stroke-width="1.5"/>
<path d="m31.65 36.19c1.5055-0.0040471 2.865 0.89973 3.444 2.2895 0.57894 1.3897 0.26314 2.9914-0.79998 4.0574-1.0631 1.066-2.6639 1.3861-4.0552 0.8109s-2.2987-1.9323-2.2987-3.4378c-7.4e-6 -2.0506 1.6594-3.7145 3.71-3.72z" fill="#FF7C6E" fill-rule="nonzero"/>
<path d="m35.36 39.91c-0.0055193 2.0477-1.669 3.7037-3.7166 3.7s-3.7052-1.6656-3.7033-3.7133c0.0018348-2.0477 1.6623-3.7067 3.71-3.7067 2.0506 0.0055124 3.71 1.6694 3.71 3.72z" stroke="#6E7F89" stroke-linecap="round" stroke-linejoin="round" stroke-width="1.5"/>
<circle cx="21.32" cy="74.23" r="3.71" fill="#FF7C6E" fill-rule="nonzero"/>
<circle cx="21.32" cy="74.23" r="3.71" stroke="#6E7F89" stroke-linecap="round" stroke-linejoin="round" stroke-width="1.5"/>
<path d="m11 36.19c1.5055-0.0040471 2.865 0.89973 3.444 2.2895 0.57894 1.3897 0.26314 2.9914-0.79998 4.0574-1.0631 1.066-2.6639 1.3861-4.0552 0.8109-1.3913-0.57519-2.2987-1.9323-2.2987-3.4378 0.0054621-2.0483 1.6617-3.709 3.71-3.72z" fill="#FF7C6E" fill-rule="nonzero"/>
<path d="m14.7 39.91c-2.18e-5 1.5064-0.90855 2.8641-2.3011 3.4387s-2.9941 0.25264-4.0564-0.81542c-1.0623-1.0681-1.3756-2.6714-0.79354-4.0608 0.58209-1.3894 1.9447-2.2906 3.4511-2.2825 2.0467 0.011004 3.7 1.6733 3.7 3.72z" stroke="#6E7F89" stroke-linecap="round" stroke-linejoin="round" stroke-width="1.5"/>
<g transform="translate(83 161)">
<path d="m17 4.2h3.53c4.07 0 7.37 4 7.37 8.91v12" stroke="#6E7F89" stroke-linecap="round" stroke-linejoin="round" stroke-width="1.5"/>
<path d="m4.53 0.66c1.5185-0.0040441 2.8896 0.90813 3.4726 2.3103s0.26279 3.0175-0.81098 4.0913-2.6891 1.394-4.0913 0.81098-2.3144-1.9541-2.3103-3.4726c0-2.0655 1.6745-3.74 3.74-3.74z" fill="#F37A6E" fill-rule="nonzero"/>
<path d="m8.28 4.4c0.004047 1.5176-0.90704 2.8881-2.308 3.4717-1.401 0.58358-3.0155 0.26522-4.0901-0.80648-1.0746-1.0717-1.3972-2.6854-0.8174-4.0879 0.57984-1.4025 1.9479-2.3173 3.4655-2.3173 2.0672-7.35e-6 3.7445 1.6728 3.75 3.74z" stroke="#6E7F89" stroke-linecap="round" stroke-linejoin="round" stroke-width="1.5"/>
<path d="m4.53 21.64c1.5176-0.004047 2.8881 0.90704 3.4717 2.308 0.58358 1.401 0.26522 3.0155-0.80648 4.0901-1.0717 1.0746-2.6854 1.3972-4.0879 0.8174-1.4025-0.57984-2.3173-1.9479-2.3173-3.4655-7.35e-6 -2.0672 1.6728-3.7445 3.74-3.75z" fill="#F37A6E" fill-rule="nonzero"/>
<path d="m8.28 25.39c0 2.0711-1.6789 3.75-3.75 3.75s-3.75-1.6789-3.75-3.75 1.6789-3.75 3.75-3.75 3.75 1.6789 3.75 3.75z" stroke="#6E7F89" stroke-linecap="round" stroke-linejoin="round" stroke-width="1.5"/>
<path d="m4.53 8.15v13.49" stroke="#6E7F89" stroke-linecap="round" stroke-linejoin="round" stroke-width="1.5"/>
<path d="m27.88 21.41c2.0711 0 3.75 1.6789 3.75 3.75s-1.6789 3.75-3.75 3.75-3.75-1.6789-3.75-3.75 1.6789-3.75 3.75-3.75z" fill="#F37A6E" fill-rule="nonzero"/>
<path d="m31.62 25.16c-5.4e-6 1.5176-0.91475 2.8857-2.3173 3.4655-1.4025 0.57984-3.0162 0.25717-4.0879-0.8174-1.0717-1.0746-1.3901-2.6891-0.80648-4.0901 0.58358-1.401 1.954-2.312 3.4717-2.308 0.99364-3.6e-6 1.9464 0.3954 2.6481 1.099s1.0945 1.6574 1.0919 2.651v0z" stroke="#6E7F89" stroke-linecap="round" stroke-linejoin="round" stroke-width="1.5"/>
<polygon points="19.16 4.2 19.16 8.27 16.25 6.23 13.33 4.2 16.25 2.16 19.16 0.13" fill="#F37A6E" fill-rule="nonzero"/>
<polygon points="19.16 4.2 19.16 0.13 16.25 2.16 13.33 4.2 16.25 6.23 19.16 8.27" stroke="#6E7F89" stroke-linecap="round" stroke-linejoin="round" stroke-width="1.5"/>
</g>
</g>
</g>
</svg>
