<?xml version="1.0" encoding="UTF-8"?>
<svg version="1.1" viewBox="0 0 161 197" xmlns="http://www.w3.org/2000/svg">
<g fill="none" fill-rule="evenodd">
<g transform="translate(1)">
<path d="m135.75 37.33v142.27c1.2e-5 1.305-1.055 2.3645-2.36 2.37h-116.39c-1.3089 0-2.37-1.0611-2.37-2.37v-142.27h121.12zm-12.64 24.31l3.49-3.4-4.82-0.7-2.15-4.37-2.16 4.37-4.82 0.7 3.49 3.4-0.82 4.8 4.31-2.27 4.3 2.27-0.82-4.8zm2.08 87.24v-6.53h-61.73v6.53h61.73zm0-12.35v-6.53h-96.92v6.53h96.92zm0-12.35v-6.53h-96.92v6.53h96.92zm0-12.35v-6.53h-96.92v6.53h96.92zm0-31v-6.53h-46.81v6.53h46.81zm-20.08-19.19l3.49-3.4-4.82-0.7-2.16-4.37-2.15 4.37-4.82 0.7 3.49 3.4-0.82 4.8 4.3-2.27 4.31 2.27-0.82-4.8zm-1.39 31.19v-6.53h-25.34v6.53h25.34zm-16.61-31.19l3.48-3.4-4.81-0.7-2.16-4.37-2.15 4.37-4.82 0.7 3.49 3.4-0.83 4.8 4.31-2.27 4.31 2.27-0.82-4.8zm-16 7.73c4.033e-4 -10.835-7.3797-20.277-17.894-22.893s-21.458 2.2659-26.536 11.837-2.9819 21.371 5.0805 28.609c8.0624 7.2379 20.019 8.0533 28.989 1.9769 6.4637-4.3978 10.329-11.712 10.32-19.53h0.04zm-13.57 87.33c0-7.1797-5.8203-13-13-13s-13 5.8203-13 13 5.8203 13 13 13c3.4478 0 6.7544-1.3696 9.1924-3.8076 2.438-2.438 3.8076-5.7446 3.8076-9.1924z" fill="#E6EDF2" fill-rule="nonzero"/>
<path d="m135.75 27.86v9.47h-121.16v-9.47c0.002584-0.63382 0.25894-1.2402 0.71179-1.6837 0.45285-0.44346 1.0645-0.68705 1.6982-0.67635h116.39c0.62591 0 1.2262 0.24864 1.6688 0.69123 0.44259 0.44259 0.69123 1.0429 0.69123 1.6688zm-93.86 3.47c0.0040437-0.89162-0.53048-1.6975-1.3535-2.0406s-1.7717-0.15549-2.4021 0.47499-0.81807 1.5792-0.47499 2.4021 1.149 1.3575 2.0406 1.3535c1.2072-0.005475 2.1845-0.98277 2.19-2.19zm-9 0c0.0040487-0.89072-0.52939-1.696-1.3511-2.0397-0.82175-0.34367-1.7696-0.15792-2.4009 0.47048-0.63127 0.6284-0.82133 1.5754-0.48141 2.3988 0.33992 0.82331 1.1427 1.3604 2.0335 1.3604 1.2111 1.25e-5 2.1945-0.97888 2.2-2.19zm-9 0c0.0040487-0.89072-0.52939-1.696-1.3511-2.0397-0.82175-0.34367-1.7696-0.15792-2.4009 0.47048-0.63127 0.6284-0.82133 1.5754-0.48141 2.3988 0.33992 0.82331 1.1427 1.3604 2.0335 1.3604 1.2111 1.25e-5 2.1945-0.97888 2.2-2.19z" fill="#C4D4DD" fill-rule="nonzero"/>
<polygon points="126.6 58.24 123.11 61.64 123.93 66.44 119.63 64.17 115.32 66.44 116.14 61.64 112.65 58.24 117.47 57.54 119.63 53.17 121.78 57.54" fill="#FDAE76" fill-rule="nonzero"/>
<rect x="63.46" y="142.35" width="61.73" height="6.53" fill="#7EB5BD" fill-rule="nonzero"/>
<rect x="28.27" y="130" width="96.92" height="6.53" fill="#C4D4DD" fill-rule="nonzero"/>
<rect x="28.27" y="117.65" width="96.92" height="6.53" fill="#C4D4DD" fill-rule="nonzero"/>
<rect x="28.27" y="105.3" width="96.92" height="6.53" fill="#C4D4DD" fill-rule="nonzero"/>
<rect x="78.38" y="74.3" width="46.81" height="6.53" fill="#7EB5BD" fill-rule="nonzero"/>
<path d="m119.63 182v11.18c0.05062 1.5999-1.2004 2.9403-2.8 3h-113.6c-1.5981-0.05967-2.8463-1.4018-2.79-3v-144.4c-0.056259-1.5982 1.1919-2.9403 2.79-3h11.36v133.82c-0.0082035 0.64074 0.2434 1.2575 0.69745 1.7097 0.45405 0.45217 1.0718 0.7012 1.7125 0.69034h102.63z" fill="#C4D4DD" fill-rule="nonzero"/>
<polygon points="108.6 58.24 105.11 61.64 105.93 66.44 101.62 64.17 97.32 66.44 98.14 61.64 94.65 58.24 99.47 57.54 101.62 53.17 103.78 57.54" fill="#FDAE76" fill-rule="nonzero"/>
<rect x="78.38" y="86.3" width="25.34" height="6.53" fill="#7EB5BD" fill-rule="nonzero"/>
<polygon points="90.59 58.24 87.11 61.64 87.93 66.44 83.62 64.17 79.31 66.44 80.14 61.64 76.65 58.24 81.47 57.54 83.62 53.17 85.78 57.54" fill="#FDAE76" fill-rule="nonzero"/>
<path d="m47.48 45.78c10.363 5.694e-4 19.511 6.7637 22.551 16.671 3.0396 9.9068-0.74193 20.637-9.3211 26.449l-0.13-0.18c-0.58665-2.85-3.0903-4.8988-6-4.91h-4.85c4.3198-0.010992 7.819-3.5102 7.83-7.83v-1.14h1.57c0.97391 0.028069 1.7874-0.73623 1.82-1.71v-9.42c-0.059967-1.7826-0.82615-3.4683-2.1298-4.6856-1.3036-1.2173-3.0377-1.8665-4.8202-1.8044h-12.25c-6.5 0-6.94-3.69-6.94-3.69v19.6c0.032623 0.97377 0.84609 1.7381 1.82 1.71h1v1.16c0.010992 4.3198 3.5102 7.819 7.83 7.83h-5.13c-2.7417 1.659e-4 -5.1521 1.8151-5.91 4.45h-1c-8.1411-6.0806-11.474-16.691-8.2713-26.335 3.2024-9.6434 12.22-16.153 22.381-16.155l-0.05-0.01z" fill="#D4F4F2" fill-rule="nonzero"/>
<path d="m60.93 63.71v9.42c-0.032623 0.97377-0.84609 1.7381-1.82 1.71h-1.57v-6.18c-0.016448-4.3176-3.5124-7.8136-7.83-7.83h-4.29c-3.1452 0.010273-5.9815 1.8946-7.21 4.79-0.40499 0.94854-0.61581 1.9686-0.62 3v6.18h-1c-0.97391 0.028069-1.7874-0.73623-1.82-1.71v-19.56s0.44 3.69 6.94 3.69h12.29c3.7045-0.11793 6.805 2.7857 6.93 6.49z" fill="#7EB5BD" fill-rule="nonzero"/>
<path d="m60.58 88.72l0.13 0.18c-8.317 5.6357-19.291 5.3828-27.34-0.63h1c0.75786-2.6349 3.1683-4.4498 5.91-4.45h14.27c2.9179-0.0039717 5.4369 2.043 6.03 4.9z" fill="#C4D4DD" fill-rule="nonzero"/>
<path d="m57.54 74.84v1.16c-0.010992 4.3198-3.5102 7.819-7.83 7.83h-4.29c-4.3198-0.010992-7.819-3.5102-7.83-7.83v-7.32c0.0041932-1.0314 0.21501-2.0515 0.62-3l0.36 0.11c5.5763 3.7447 12.379 5.202 19 4.07l-0.03 4.98zm-2.89 2.23c0.32635-0.43518 0.245-1.0514-0.18312-1.387-0.42811-0.33558-1.0459-0.2674-1.3906 0.15344-0.34465 0.42085-0.28969 1.04 0.1237 1.3935 0.21001 0.17961 0.48498 0.26432 0.75965 0.23401 0.27467-0.030309 0.52456-0.17293 0.69035-0.39401zm-11.77 0.1c0.35622-0.44459 0.28459-1.0938-0.16-1.45s-1.0938-0.28459-1.45 0.16c-0.23044 0.2876-0.28994 0.67629-0.15609 1.0197 0.13385 0.34336 0.44071 0.58924 0.805 0.645 0.36429 0.055764 0.73065-0.087052 0.96109-0.37465z" fill="#F9E3D4" fill-rule="nonzero"/>
<path d="m57.54 68.66v1.14c-6.621 1.132-13.424-0.32525-19-4.07l-0.36-0.11c1.2285-2.8954 4.0648-4.7797 7.21-4.79h4.29c4.3293-3.15e-5 7.8435 3.5008 7.86 7.83z" fill="#7EB5BD" fill-rule="nonzero"/>
<path d="m54.49 75.61c0.41533 0.35094 0.47414 0.96943 0.13238 1.3924-0.34175 0.42292-0.95881 0.49527-1.3891 0.16286-0.43031-0.3324-0.51616-0.94772-0.19326-1.3852 0.16427-0.22257 0.4134-0.36715 0.68814-0.39936 0.27475-0.032212 0.55056 0.050825 0.76186 0.22936z" fill="#6E7F89" fill-rule="nonzero"/>
<path d="m44.49 143.66c7.1797 0 13 5.8203 13 13s-5.8203 13-13 13-13-5.8203-13-13 5.8203-13 13-13z" fill="#7EB5BD" fill-rule="nonzero"/>
<path d="m42.72 75.72c0.44459 0.35622 0.51622 1.0054 0.16 1.45s-1.0054 0.51622-1.45 0.16-0.51622-1.0054-0.16-1.45 1.0054-0.51622 1.45-0.16z" fill="#6E7F89" fill-rule="nonzero"/>
<path d="m39.7 29.13c1.215 0 2.2 0.98497 2.2 2.2s-0.98497 2.2-2.2 2.2-2.2-0.98497-2.2-2.2 0.98497-2.2 2.2-2.2z" fill="#D4F4F2" fill-rule="nonzero"/>
<path d="m30.69 29.13c0.89072-0.0040487 1.696 0.52939 2.0397 1.3511 0.34367 0.82175 0.15792 1.7696-0.47048 2.4009-0.6284 0.63127-1.5754 0.82133-2.3988 0.48141-0.82331-0.33992-1.3604-1.1427-1.3604-2.0335-1.25e-5 -1.2111 0.97888-2.1945 2.19-2.2z" fill="#D4F4F2" fill-rule="nonzero"/>
<path d="m21.69 29.13c0.89072-0.0040487 1.696 0.52939 2.0397 1.3511 0.34367 0.82175 0.15792 1.7696-0.47048 2.4009-0.6284 0.63127-1.5754 0.82133-2.3988 0.48141-0.82331-0.33992-1.3604-1.1427-1.3604-2.0335-1.25e-5 -1.2111 0.97888-2.1945 2.19-2.2z" fill="#D4F4F2" fill-rule="nonzero"/>
<path d="m135.75 37.33v142.27c1.2e-5 1.305-1.055 2.3645-2.36 2.37h-116.39c-1.3089 0-2.37-1.0611-2.37-2.37v-151.74c0.0055064-1.305 1.065-2.36 2.37-2.36h116.39c0.62591 0 1.2262 0.24864 1.6688 0.69123 0.44259 0.44259 0.69123 1.0429 0.69123 1.6688v9.47z" stroke="#6E7F89" stroke-linecap="round" stroke-linejoin="round" stroke-width="1.54"/>
<path d="m14.59 37.33h121.16" stroke="#6E7F89" stroke-linecap="round" stroke-linejoin="round" stroke-width="1.54"/>
<path d="m33.37 88.27c-9.2476-6.9501-12.088-19.582-6.7052-29.822 5.3826-10.24 17.398-15.062 28.367-11.385 10.968 3.6768 17.649 14.767 15.773 26.182s-11.756 19.783-23.324 19.755c-5.0913-0.007931-10.043-1.6677-14.11-4.73v0z" stroke="#6E7F89" stroke-linecap="round" stroke-linejoin="round" stroke-width="1.44"/>
<polygon points="83.62 53.17 85.78 57.54 90.59 58.24 87.11 61.64 87.93 66.44 83.62 64.17 79.31 66.44 80.14 61.64 76.65 58.24 81.47 57.54" stroke="#6E7F89" stroke-linecap="round" stroke-linejoin="round" stroke-width="1.44"/>
<polygon points="101.62 53.17 103.78 57.54 108.6 58.24 105.11 61.64 105.93 66.44 101.62 64.17 97.32 66.44 98.14 61.64 94.65 58.24 99.47 57.54" stroke="#6E7F89" stroke-linecap="round" stroke-linejoin="round" stroke-width="1.44"/>
<polygon points="119.63 53.17 121.78 57.54 126.6 58.24 123.11 61.64 123.93 66.44 119.63 64.17 115.32 66.44 116.14 61.64 112.65 58.24 117.47 57.54" stroke="#6E7F89" stroke-linecap="round" stroke-linejoin="round" stroke-width="1.44"/>
<path d="m23.89 31.33c0 1.215-0.98497 2.2-2.2 2.2s-2.2-0.98497-2.2-2.2 0.98497-2.2 2.2-2.2c0.58429-0.0026741 1.1454 0.22825 1.5586 0.64141 0.41316 0.41316 0.64409 0.97429 0.64141 1.5586z" stroke="#6E7F89" stroke-linecap="round" stroke-linejoin="round" stroke-width="1.54"/>
<path d="m32.89 31.33c0 0.88982-0.53601 1.692-1.3581 2.0325-0.82208 0.34052-1.7683 0.1523-2.3975-0.4769s-0.81742-1.5755-0.4769-2.3975c0.34052-0.82208 1.1427-1.3581 2.0325-1.3581 0.58429-0.0026741 1.1454 0.22825 1.5586 0.64141 0.41316 0.41316 0.64409 0.97429 0.64141 1.5586v0z" stroke="#6E7F89" stroke-linecap="round" stroke-linejoin="round" stroke-width="1.54"/>
<path d="m41.89 31.33c-9.2e-6 0.89072-0.53711 1.6936-1.3604 2.0335-0.82331 0.33992-1.7704 0.14986-2.3988-0.48141-0.6284-0.63127-0.81415-1.5792-0.47048-2.4009 0.34367-0.82175 1.1489-1.3552 2.0397-1.3511 0.58256-6.1e-6 1.1411 0.2321 1.5521 0.64497 0.41099 0.41287 0.64055 0.97248 0.63789 1.555z" stroke="#6E7F89" stroke-linecap="round" stroke-linejoin="round" stroke-width="1.54"/>
<rect x="78.38" y="74.3" width="46.81" height="6.53" stroke="#6E7F89" stroke-linecap="round" stroke-linejoin="round" stroke-width="1.54"/>
<rect x="28.27" y="105.3" width="96.92" height="6.53" stroke="#6E7F89" stroke-linecap="round" stroke-linejoin="round" stroke-width="1.54"/>
<rect x="28.27" y="117.65" width="96.92" height="6.53" stroke="#6E7F89" stroke-linecap="round" stroke-linejoin="round" stroke-width="1.54"/>
<rect x="28.27" y="130" width="96.92" height="6.53" stroke="#6E7F89" stroke-linecap="round" stroke-linejoin="round" stroke-width="1.54"/>
<rect x="63.46" y="142.35" width="61.73" height="6.53" stroke="#6E7F89" stroke-linecap="round" stroke-linejoin="round" stroke-width="1.54"/>
<rect x="78.38" y="86.3" width="25.34" height="6.53" stroke="#6E7F89" stroke-linecap="round" stroke-linejoin="round" stroke-width="1.54"/>
<path d="m49.71 83.81c4.3198-0.010992 7.819-3.5102 7.83-7.83v-7.32c-0.016448-4.3176-3.5124-7.8136-7.83-7.83h-4.29c-3.1452 0.010273-5.9815 1.8946-7.21 4.79-0.40499 0.94854-0.61581 1.9686-0.62 3v7.38c0.010992 4.3198 3.5102 7.819 7.83 7.83" stroke="#6E7F89" stroke-linecap="round" stroke-linejoin="round" stroke-width="1.44"/>
<path d="m38.57 65.73c5.5763 3.7447 12.379 5.202 19 4.07" stroke="#6E7F89" stroke-linecap="round" stroke-linejoin="round" stroke-width="1.44"/>
<path d="m60.58 88.72c-0.58665-2.85-3.0903-4.8988-6-4.91h-14.29c-2.7417 1.659e-4 -5.1521 1.8151-5.91 4.45" stroke="#6E7F89" stroke-linecap="round" stroke-linejoin="round" stroke-width="1.44"/>
<path d="m36.63 74.84c-0.97391 0.028069-1.7874-0.73623-1.82-1.71v-19.6s0.44 3.69 6.94 3.69h12.25c3.7045-0.11793 6.805 2.7857 6.93 6.49v9.42c-0.032623 0.97377-0.84609 1.7381-1.82 1.71h-0.74" stroke="#6E7F89" stroke-linecap="round" stroke-linejoin="round" stroke-width="1.44"/>
<path d="m57.54 156.7c0 7.1797-5.8203 13-13 13s-13-5.8203-13-13 5.8203-13 13-13 13 5.8203 13 13v0z" stroke="#6E7F89" stroke-linecap="round" stroke-linejoin="round" stroke-width="1.54"/>
<path d="m63.46 156.7h49.05" stroke="#6E7F89" stroke-linecap="round" stroke-linejoin="round" stroke-width="1.54"/>
<path d="m63.46 165.7h34.03" stroke="#6E7F89" stroke-linecap="round" stroke-linejoin="round" stroke-width="1.54"/>
<path d="m14.59 45.78h-11.36c-1.5981 0.05967-2.8463 1.4018-2.79 3v144.37c-0.056259 1.5982 1.1919 2.9403 2.79 3h113.6c1.5996-0.059707 2.8506-1.4001 2.8-3v-11.15" stroke="#6E7F89" stroke-linecap="round" stroke-linejoin="round" stroke-width="1.54"/>
<path d="m146 5.77l-6.71 10.28" stroke="#6E7F89" stroke-linecap="round" stroke-linejoin="round" stroke-width="1.54"/>
<path d="m157.77 20.29l-11.46 4.43" stroke="#6E7F89" stroke-linecap="round" stroke-linejoin="round" stroke-width="1.54"/>
<path d="m127.97 0.85l0.57 12.27" stroke="#6E7F89" stroke-linecap="round" stroke-linejoin="round" stroke-width="1.54"/>
<path d="m110.43 7.43l7.64 9.62" stroke="#6E7F89" stroke-linecap="round" stroke-linejoin="round" stroke-width="1.54"/>
<path d="m146.84 36.24l11.81 3.36" stroke="#6E7F89" stroke-linecap="round" stroke-linejoin="round" stroke-width="1.54"/>
<path d="m14.59 45.78v134c0 1.2371 1.0029 2.24 2.24 2.24h102.79v8.09h-106.78c-2.3472 0-4.25-1.9028-4.25-4.25v-140l6-0.08z" fill="#000" fill-rule="nonzero" opacity=".07"/>
<path d="m67.74 57.29c6.0323 10.128 3.6624 23.154-5.5505 30.508-9.2128 7.3541-22.44 6.7786-30.98-1.348 4.7076 7.9038 13.581 12.35 22.73 11.39 9.1493-0.96033 16.906-7.1518 19.87-15.861 2.9639-8.709 0.59462-18.347-6.0695-24.689z" fill="#000" fill-rule="nonzero" opacity=".07"/>
</g>
</g>
</svg>
