<?xml version="1.0" encoding="UTF-8"?>
<svg version="1.1" viewBox="0 0 258 170" xmlns="http://www.w3.org/2000/svg">
<g fill="none" fill-rule="evenodd">
<g transform="translate(1 1)">
<path d="m238.28 25.63v116.72c-0.016531 13.844-11.236 25.063-25.08 25.08h-187.62c-13.844-0.016531-25.063-11.236-25.08-25.08v-116.72c0.016531-13.844 11.236-25.063 25.08-25.08h187.62c13.844 0.016531 25.063 11.236 25.08 25.08zm-15 116.73v-116.73c-0.032761-5.5092-4.4908-9.9672-10-10h-187.7c-5.5115 0.027353-9.9726 4.4885-10 10v116.73c0.032761 5.5092 4.4908 9.9672 10 10h187.62c5.5187-0.021788 9.9917-4.4814 10.03-10h0.05z" fill="#C4D4DD" fill-rule="nonzero"/>
<path d="m223.23 25.63v116.73c-0.03815 5.507-4.493 9.9618-10 10h-187.65c-5.5092-0.032761-9.9672-4.4908-10-10v-116.73c0.027353-5.5115 4.4885-9.9726 10-10h187.62c5.5209 0.016366 9.9971 4.4791 10.03 10z" fill="#D5F4F2" fill-rule="nonzero"/>
<rect x=".5" y=".55" width="237.78" height="166.88" rx="25.08" stroke="#6E7F89" stroke-linecap="round" stroke-linejoin="round" stroke-width="1.5"/>
<path d="m213.2 152.39h-187.62c-5.5092-0.032761-9.9672-4.4908-10-10v-116.76c0.027353-5.5115 4.4885-9.9726 10-10h187.62c5.5092 0.032761 9.9672 4.4908 10 10v116.73c-0.021788 5.5187-4.4814 9.9917-10 10.03v0z" stroke="#6E7F89" stroke-linecap="round" stroke-linejoin="round" stroke-width="1.5"/>
<path d="m15.56 32.05h62.31c3.2143 0 5.82 2.6057 5.82 5.82v21.38c0 3.2198 2.6102 5.83 5.83 5.83h56.95c3.2143 0 5.82 2.6057 5.82 5.82v0c0 3.2143 2.6057 5.82 5.82 5.82h22" stroke="#6E7F89" stroke-linecap="round" stroke-linejoin="round" stroke-width="1.5"/>
<path d="m15.56 135.08h62.31c3.2143 0 5.82-2.6057 5.82-5.82v-21.38c0-1.5462 0.61423-3.0291 1.7076-4.1224 1.0933-1.0933 2.5762-1.7076 4.1224-1.7076h56.95c3.2143 0 5.82-2.6057 5.82-5.82v-1.93c-0.002655-1.5453 0.60935-3.0282 1.7011-4.1218 1.0918-1.0936 2.5736-1.7082 4.1189-1.7082h22" stroke="#6E7F89" stroke-linecap="round" stroke-linejoin="round" stroke-width="1.5"/>
<path d="m15.56 83.1h164.54" stroke="#6E7F89" stroke-linecap="round" stroke-linejoin="round" stroke-width="1.5"/>
<path d="m115.91 63.39c0.63991 1.3602 0.39581 2.9721-0.61815 4.0818-1.014 1.1097-2.5973 1.498-4.0096 0.9831-1.4123-0.51486-2.3743-1.831-2.4361-3.333s0.78873-2.8927 2.1539-3.522c1.8503-0.85883 4.0466-0.058138 4.91 1.79z" fill="#7EB5BD" fill-rule="nonzero"/>
<path d="m111 61.6c1.8542-0.87011 4.0627-0.073007 4.9338 1.7807 0.8711 1.8537 0.075162 4.0627-1.7781 4.9348-1.8533 0.87208-4.0626 0.077316-4.9357-1.7755-0.41985-0.89101-0.46816-1.9124-0.13426-2.8391s1.0226-1.6825 1.9143-2.1009v0z" stroke="#6E7F89" stroke-linecap="round" stroke-linejoin="round" stroke-width="1.5"/>
<path d="m140.65 100.65c0.86532 1.8557 0.063609 4.0617-1.7913 4.9288s-4.0616 0.067519-4.9305-1.7866c-0.8689-1.8541-0.071429-4.0615 1.7818-4.9322 0.89185-0.42196 1.9153-0.47025 2.8429-0.13413 0.92762 0.33612 1.6826 1.0288 2.0971 1.9241z" fill="#7EB5BD" fill-rule="nonzero"/>
<path d="m135.71 98.86c1.8542-0.87011 4.0627-0.073007 4.9338 1.7807 0.8711 1.8537 0.075162 4.0627-1.7781 4.9348s-4.0626 0.077317-4.9357-1.7755c-0.41985-0.89101-0.46816-1.9124-0.13426-2.8391s1.0226-1.6825 1.9143-2.1009v0z" stroke="#6E7F89" stroke-linecap="round" stroke-linejoin="round" stroke-width="1.5"/>
<path d="m42.64 41.43c0.53751 0.0011803 1.0569-0.19447 1.46-0.55l8.12-7.17c0.46925-0.42128 0.74115-1.0195 0.75-1.65 0.0037656-0.62907-0.26195-1.2297-0.73-1.65l-7.92-7.17c-0.58592-0.5359-1.4132-0.71851-2.1703-0.47904s-1.3289 0.86463-1.5 1.64c-0.17114 0.77537 0.084366 1.5831 0.67028 2.119l6.12 5.48-6.27 5.53c-0.69245 0.60855-0.93441 1.583-0.60707 2.4448 0.32734 0.86178 1.1552 1.4298 2.0771 1.4252v0.03z" fill="#F37A6E" fill-rule="nonzero" stroke="#6E7F89" stroke-linecap="round" stroke-linejoin="round" stroke-width="1.5"/>
<path d="m79.51 81.64c0.46805 0.42033 0.73377 1.0209 0.73 1.65-0.00885 0.63055-0.28075 1.2287-0.75 1.65l-8.12 7.16c-0.39965 0.36246-0.92047 0.56223-1.46 0.56-0.92001 4.422e-4 -1.7441-0.56913-2.0688-1.4299s-0.082242-1.8327 0.60881-2.4401l6.26-5.53-6.09-5.51c-0.90575-0.82843-0.96843-2.2343-0.14-3.14 0.82843-0.90575 2.2343-0.96843 3.14-0.14l7.89 7.17z" fill="#7EB5BD" fill-rule="nonzero"/>
<path d="m69.91 92.66c0.53953 0.0022259 1.0604-0.19754 1.46-0.56l8.12-7.16c0.46925-0.42128 0.74115-1.0195 0.75-1.65 0.0037656-0.62907-0.26195-1.2297-0.73-1.65l-7.92-7.17c-0.90575-0.82843-2.3116-0.76575-3.14 0.14-0.82843 0.90575-0.76575 2.3116 0.14 3.14l6.09 5.51-6.26 5.53c-0.69105 0.60735-0.93355 1.5793-0.60881 2.4401s1.1488 1.4304 2.0688 1.4299h0.03z" stroke="#6E7F89" stroke-linecap="round" stroke-linejoin="round" stroke-width="1.5"/>
<path d="m43.39 144.77c0.53751 0.00118 1.0569-0.19446 1.46-0.55l8.12-7.17c0.46485-0.42263 0.72987-1.0217 0.72987-1.65s-0.26501-1.2274-0.72987-1.65l-7.93-7.17c-0.90575-0.82843-2.3116-0.76575-3.14 0.14s-0.76575 2.3116 0.14 3.14l6.09 5.51-6.27 5.53c-0.43899 0.3885-0.70565 0.93551-0.74128 1.5206-0.035633 0.58514 0.16267 1.1605 0.55128 1.5994 0.43177 0.4954 1.0632 0.77072 1.72 0.75v0z" fill="#F37A6E" fill-rule="nonzero" stroke="#6E7F89" stroke-linecap="round" stroke-linejoin="round" stroke-width="1.5"/>
<path d="m124.66 74.36c0.53752 0.0011803 1.0569-0.19447 1.46-0.55l8.12-7.17c0.47244-0.41565 0.74827-1.0109 0.76-1.64-0.003353-0.63046-0.26762-1.2314-0.73-1.66l-7.92-7.16c-0.58413-0.5359-1.4098-0.71946-2.166-0.48154-0.75617 0.23792-1.328 0.86118-1.5 1.635-0.17204 0.77382 0.081823 1.5806 0.66595 2.1165l6.09 5.51-6.27 5.54c-0.68465 0.61006-0.92143 1.5796-0.59506 2.4365 0.32636 0.85698 1.148 1.4234 2.0651 1.4235h0.02z" fill="#F37A6E" fill-rule="nonzero" stroke="#6E7F89" stroke-linecap="round" stroke-linejoin="round" stroke-width="1.5"/>
<path d="m104.5 111.45c0.53752 0.00118 1.0569-0.19446 1.46-0.55l8.12-7.17c0.47021-0.41542 0.73965-1.0126 0.74-1.64 0.005356-0.63022-0.25621-1.2333-0.72-1.66l-7.92-7.16c-0.58413-0.5359-1.4098-0.71946-2.166-0.48154-0.75617 0.23792-1.328 0.86118-1.5 1.635s0.081823 1.5806 0.66595 2.1165l6.09 5.51-6.27 5.54c-0.68465 0.61006-0.92143 1.5796-0.59506 2.4365 0.32636 0.85698 1.148 1.4234 2.0651 1.4235h0.03z" fill="#F37A6E" fill-rule="nonzero" stroke="#6E7F89" stroke-linecap="round" stroke-linejoin="round" stroke-width="1.5"/>
<path d="m30.51 142.36v-116.73c0.016531-13.844 11.236-25.063 25.08-25.08h-30c-13.844 0.016531-25.063 11.236-25.08 25.08v116.73c0.016531 13.844 11.236 25.063 25.08 25.08h30c-13.844-0.016531-25.063-11.236-25.08-25.08z" fill="#000" fill-rule="nonzero" opacity=".07" style="mix-blend-mode:multiply"/>
<g transform="translate(179 40)">
<path d="m46.5 17.51c0.028019-3.8401-2.7987-7.1042-6.6034-7.6251-3.8047-0.52092-7.4048 1.8633-8.41 5.5695-1.0052 3.7063 0.89691 7.5828 4.4434 9.0556v4.2h5.87v-4.2c2.8307-1.1772 4.6819-3.9343 4.7-7z" stroke="#6E7F89" stroke-linecap="round" stroke-linejoin="round" stroke-width="1.5"/>
<path d="m38.86 28.76v-9.81" stroke="#6E7F89" stroke-linecap="round" stroke-linejoin="round" stroke-width="1.5"/>
<circle cx="37.24" cy="18.95" r="1.63" stroke="#6E7F89" stroke-linecap="round" stroke-linejoin="round" stroke-width="1.5"/>
<circle cx="40.49" cy="18.95" r="1.63" stroke="#6E7F89" stroke-linecap="round" stroke-linejoin="round" stroke-width="1.5"/>
<path d="m28.04 17.32h-1.77" stroke="#6E7F89" stroke-linecap="round" stroke-linejoin="round" stroke-width="1.5"/>
<path d="m51.52 17.32h-1.77" stroke="#6E7F89" stroke-linecap="round" stroke-linejoin="round" stroke-width="1.5"/>
<path d="m38.87 6.37v-2.05" stroke="#6E7F89" stroke-linecap="round" stroke-linejoin="round" stroke-width="1.5"/>
<path d="m29.75 8.21l1.48 1.66" stroke="#6E7F89" stroke-linecap="round" stroke-linejoin="round" stroke-width="1.5"/>
<path d="m46.87 10.05l1.38-1.56" stroke="#6E7F89" stroke-linecap="round" stroke-linejoin="round" stroke-width="1.5"/>
<path d="m39.09 1.08c17.352-0.010961 32.507 11.733 36.827 28.539s-3.2917 34.403-18.497 42.761l-0.07-0.12c0-4.51-3.66-9.16-8.17-9.16h-6.81c5.7369-0.016478 10.384-4.6631 10.4-10.4v-1c2.4517 0.80641 5.1022-0.47025 6-2.89 0.84262-2.4073-0.41105-5.044-2.81-5.91 0.50536-0.48547 0.89204-1.0809 1.13-1.74 0.42412-1.1848 0.35099-2.4909-0.20276-3.6209-0.55374-1.1301-1.541-1.9882-2.7372-2.3791-0.86643-0.29807-1.8005-0.33974-2.69-0.12 0.33773-0.62815 0.52273-1.327 0.54-2.04-0.02748-2.6139-2.166-4.7122-4.78-4.69h-5.42v-3.74c3.3689-1.3996 5.2808-4.9834 4.5672-8.561s-3.8541-6.1536-7.5022-6.1536-6.7886 2.576-7.5022 6.1536 1.1983 7.1614 4.5672 8.561v3.74h-5c-2.614-0.022204-4.7525 2.0761-4.78 4.69 0.0046638 0.73251 0.1865 1.453 0.53 2.1-0.88953-0.21974-1.8236-0.17807-2.69 0.12-1.5456 0.4932-2.7192 1.761-3.0919 3.3399-0.37273 1.579 0.11007 3.2378 1.2719 4.3701-2.395 0.87007-3.6436 3.5056-2.8 5.91 0.91065 2.4599 3.6243 3.7366 6.1 2.87 0.26602-0.090852 0.52365-0.20461 0.77-0.34v1.34c0.021963 5.7385 4.6714 10.384 10.41 10.4h-6.45c-4.51 0-8.17 4.65-8.17 9.16l-1.08 0.24c-15.303-8.2816-23.026-25.899-18.747-42.765s19.467-28.671 36.867-28.655l0.02-0.01z" fill="#E6ECF1" fill-rule="nonzero"/>
<path d="m56 42.92c2.3989 0.86601 3.6526 3.5027 2.81 5.91-0.89778 2.4198-3.5483 3.6964-6 2.89v-8.72c-0.0018066-2.9315-1.2443-5.7253-3.42-7.69l2.13-0.19c0.88953-0.21974 1.8236-0.17807 2.69 0.12 1.1962 0.39088 2.1835 1.249 2.7372 2.3791 0.55374 1.1301 0.62687 2.4361 0.20276 3.6209-0.25183 0.63951-0.64496 1.2138-1.15 1.68z" fill="#7EB5BD" fill-rule="nonzero"/>
<path d="m57.35 72.26l0.07 0.12c-11.342 6.2245-25.067 6.2697-36.45 0.12l1.08-0.24c0-4.51 3.66-9.16 8.17-9.16h19c4.47 0 8.13 4.65 8.13 9.16z" fill="#C4D4DD" fill-rule="nonzero"/>
<path d="m52.77 51.72v1c-0.016478 5.7369-4.6631 10.384-10.4 10.4h-5.7c-5.7386-0.016448-10.388-4.6615-10.41-10.4v-1.34c2.0042-1.0922 2.9193-3.4776 2.16-5.63-0.1275-0.35336-0.29884-0.68931-0.51-1 6.9349 0.8296 13.959-0.43461 20.17-3.63 0.45036 1.3382 1.4785 2.403 2.8 2.9-1.1629 1.1288-1.6477 2.7852-1.2769 4.3629s1.5429 2.8447 3.0869 3.3371h0.08zm-5.1 2.77c0.58823-0.47475 0.68079-1.3362 0.20684-1.9251-0.47395-0.58887-1.3353-0.68259-1.9248-0.20943-0.58951 0.47316-0.68439 1.3344-0.21203 1.9245 0.47702 0.58719 1.3379 0.68085 1.93 0.21zm-15.67-0.14c0.58823-0.47475 0.68079-1.3362 0.20684-1.9251-0.47395-0.58887-1.3353-0.68259-1.9248-0.20943-0.58951 0.47316-0.68439 1.3344-0.21203 1.9245 0.47702 0.58719 1.3379 0.68085 1.93 0.21z" fill="#F9E3D4" fill-rule="nonzero"/>
<path d="m52.77 44v7.72h-0.08c-1.544-0.49245-2.716-1.7595-3.0869-3.3371s0.11395-3.2341 1.2769-4.3629l1.89-0.02z" fill="#7EB5BD" fill-rule="nonzero"/>
<path d="m52.77 43v1h-1.89c-1.3215-0.49702-2.3496-1.5618-2.8-2.9-6.2105 3.1954-13.235 4.4596-20.17 3.63h-1.65v-1.73c0.027405-5.7363 4.6737-10.378 10.41-10.4h5.7c5.7347 0.02193 10.378 4.6653 10.4 10.4z" fill="#7EB5BD" fill-rule="nonzero"/>
<path d="m38.86 28.75h2.94v-0.45h5.43c2.614-0.016637 4.748 2.0861 4.77 4.7-0.0046638 0.73251-0.1865 1.453-0.53 2.1l-2.13 0.19c-1.9125-1.7466-4.4099-2.7134-7-2.71h-5.7c-3.1004 0.0083579-6.0347 1.4022-8 3.8l-2-1.28c-0.3435-0.64699-0.52534-1.3675-0.53-2.1 0.010133-1.2766 0.53479-2.4951 1.4552-3.3798 0.92042-0.88466 2.1588-1.3606 3.4348-1.3202h5v0.45h2.86z" fill="#7EB5BD" fill-rule="nonzero"/>
<path d="m47.88 52.56c0.47236 0.59015 0.37748 1.4514-0.21203 1.9245-0.58951 0.47316-1.4509 0.37943-1.9248-0.20943-0.47395-0.58887-0.38139-1.4503 0.20684-1.9251 0.59214-0.47085 1.453-0.37719 1.93 0.21z" fill="#6E7F89" fill-rule="nonzero"/>
<path d="m38.86 19c0 0.90022 0.72978 1.63 1.63 1.63s1.63-0.72978 1.63-1.63-0.72978-1.63-1.63-1.63-1.63 0.72978-1.63 1.63c0.0040502-0.66017-0.39051-1.2576-0.99927-1.513-0.60876-0.25545-1.3115-0.11847-1.7797 0.34691-0.46825 0.46538-0.60955 1.1672-0.35786 1.7776 0.2517 0.61032 0.84668 1.0085 1.5069 1.0086 0.89633 1.69e-5 1.6245-0.72368 1.63-1.62zm0 9.35h-2.93v-3.74c-3.363-1.3993-5.2705-4.9783-4.557-8.5502s3.8495-6.1435 7.492-6.1435 6.7785 2.5715 7.492 6.1435-1.194 7.1509-4.557 8.5502v3.74h-2.94z" fill="#FFC673" fill-rule="nonzero"/>
<rect x="38.86" y="28.3" width="2.94" height="1" fill="#7EB5BD" fill-rule="nonzero"/>
<path d="m40.49 17.32c0.90022 0 1.63 0.72978 1.63 1.63s-0.72978 1.63-1.63 1.63-1.63-0.72978-1.63-1.63 0.72978-1.63 1.63-1.63z" fill="#FFC673" fill-rule="nonzero"/>
<rect x="35.93" y="28.3" width="2.93" height="1" fill="#7EB5BD" fill-rule="nonzero"/>
<path d="m37.23 17.32c0.66017-0.0040502 1.2576 0.39051 1.513 0.99927 0.25545 0.60876 0.11847 1.3115-0.34691 1.7797-0.46538 0.46825-1.1672 0.60955-1.7776 0.35786-0.61032-0.2517-1.0085-0.84668-1.0086-1.5069-1.69e-5 -0.89633 0.72368-1.6245 1.62-1.63z" fill="#FFC673" fill-rule="nonzero"/>
<path d="m32.24 52.42c0.35277 0.43424 0.40844 1.0385 0.14097 1.5299s-0.80516 0.77267-1.3614 0.71215c-0.55619-0.060518-1.0208-0.45085-1.1763-0.98827-0.15553-0.53742 0.028805-1.1156 0.46671-1.4638 0.59214-0.47085 1.453-0.37719 1.93 0.21z" fill="#6E7F89" fill-rule="nonzero"/>
<path d="m26.7 35.09l2 1.28c-1.5449 1.8523-2.3907 4.188-2.39 6.6v8.39c-0.24635 0.13539-0.50398 0.24915-0.77 0.34-2.4757 0.86663-5.1894-0.4101-6.1-2.87-0.84361-2.4044 0.40503-5.0399 2.8-5.91-1.1619-1.1323-1.6447-2.7911-1.2719-4.3701 0.37273-1.579 1.5464-2.8467 3.0919-3.3399 0.85103-0.28838 1.7663-0.32998 2.64-0.12z" fill="#7EB5BD" fill-rule="nonzero"/>
<path d="m28.42 45.73c0.75932 2.1524-0.15583 4.5378-2.16 5.63v-6.63h1.65c0.21116 0.31069 0.3825 0.64664 0.51 1z" fill="#7EB5BD" fill-rule="nonzero"/>
<path d="m21 72.5c-16.916-9.1386-24.376-29.447-17.397-47.362 6.9786-17.916 26.209-27.827 44.85-23.116 18.641 4.7116 30.852 22.571 28.48 41.65-2.3724 19.08-18.586 33.404-37.813 33.408-6.3271 0.0056555-12.555-1.5686-18.12-4.58z" stroke="#6E7F89" stroke-linecap="round" stroke-linejoin="round" stroke-width="1.5"/>
<path d="m41.8 28.3v-3.74c3.3689-1.3996 5.2808-4.9834 4.5672-8.561s-3.8541-6.1536-7.5022-6.1536-6.7886 2.576-7.5022 6.1536 1.1983 7.1614 4.5672 8.561v3.74" stroke="#6E7F89" stroke-linecap="round" stroke-linejoin="round" stroke-width="1.5"/>
<path d="m38.86 28.3v-9.35" stroke="#6E7F89" stroke-linecap="round" stroke-linejoin="round" stroke-width="1.5"/>
<path d="m38.86 19c0 0.90022-0.72978 1.63-1.63 1.63s-1.63-0.72978-1.63-1.63 0.72978-1.63 1.63-1.63 1.63 0.72978 1.63 1.63v0z" stroke="#6E7F89" stroke-linecap="round" stroke-linejoin="round" stroke-width="1.5"/>
<path d="m42.11 19c-1.24e-5 0.66018-0.39824 1.2552-1.0086 1.5069-0.61032 0.2517-1.3122 0.1104-1.7776-0.35786-0.46538-0.46825-0.60236-1.171-0.34691-1.7797 0.25545-0.60876 0.85287-1.0033 1.513-0.99927 0.89632 0.005499 1.62 0.73367 1.62 1.63v0z" stroke="#6E7F89" stroke-linecap="round" stroke-linejoin="round" stroke-width="1.5"/>
<path d="m28.03 17.32h-1.77" stroke="#6E7F89" stroke-linecap="round" stroke-linejoin="round" stroke-width="1.5"/>
<path d="m51.52 17.32h-1.77" stroke="#6E7F89" stroke-linecap="round" stroke-linejoin="round" stroke-width="1.5"/>
<path d="m38.86 6.37v-2.05" stroke="#6E7F89" stroke-linecap="round" stroke-linejoin="round" stroke-width="1.5"/>
<path d="m29.74 8.21l1.48 1.66" stroke="#6E7F89" stroke-linecap="round" stroke-linejoin="round" stroke-width="1.5"/>
<path d="m46.86 10.05l1.38-1.56" stroke="#6E7F89" stroke-linecap="round" stroke-linejoin="round" stroke-width="1.5"/>
<path d="m42.37 63.1h6.81c4.51 0 8.17 4.65 8.17 9.16" stroke="#6E7F89" stroke-linecap="round" stroke-linejoin="round" stroke-width="1.5"/>
<path d="m22.05 72.26c0-4.51 3.66-9.16 8.17-9.16h6.45" stroke="#6E7F89" stroke-linecap="round" stroke-linejoin="round" stroke-width="1.5"/>
<path d="m52.77 51.72v1c-0.016478 5.7369-4.6631 10.384-10.4 10.4h-5.7c-5.7386-0.016448-10.388-4.6615-10.41-10.4v-1.34" stroke="#6E7F89" stroke-linecap="round" stroke-linejoin="round" stroke-width="1.5"/>
<path d="m52.77 51.72c2.4517 0.80641 5.1022-0.47025 6-2.89 0.84262-2.4073-0.41105-5.044-2.81-5.91 0.50536-0.48547 0.89204-1.0809 1.13-1.74 0.42412-1.1848 0.35099-2.4909-0.20276-3.6209-0.55374-1.1301-1.541-1.9882-2.7372-2.3791-0.86643-0.29807-1.8005-0.33974-2.69-0.12 0.34078-0.63414 0.52587-1.3402 0.54-2.06-0.02748-2.6139-2.166-4.7122-4.78-4.69h-16.22c-2.614-0.022204-4.7525 2.0761-4.78 4.69 0.0046638 0.73251 0.1865 1.453 0.53 2.1-0.88953-0.21974-1.8236-0.17807-2.69 0.12-1.5456 0.4932-2.7192 1.761-3.0919 3.3399-0.37273 1.579 0.11007 3.2378 1.2719 4.3701-2.395 0.87007-3.6436 3.5056-2.8 5.91 0.91065 2.4599 3.6243 3.7366 6.1 2.87 0.26602-0.090852 0.52365-0.20461 0.77-0.34 2.0042-1.0922 2.9193-3.4776 2.16-5.63-0.1275-0.35336-0.29884-0.68931-0.51-1 6.9349 0.8296 13.959-0.43461 20.17-3.63 0.45036 1.3382 1.4785 2.403 2.8 2.9-1.1629 1.1288-1.6477 2.7852-1.2769 4.3629s1.5429 2.8447 3.0869 3.3371l0.03 0.01z" stroke="#6E7F89" stroke-linecap="round" stroke-linejoin="round" stroke-width="1.5"/>
<path d="m11.1 39.08c0.0048211-19.051 14.115-35.153 33-37.66-1.6579-0.21674-3.328-0.32696-5-0.33-20.987 0-38 17.013-38 38s17.013 38 38 38c1.6724-0.0013246 3.3428-0.11491 5-0.34-18.889-2.5072-33-18.616-33-37.67z" fill="#000" fill-rule="nonzero" opacity=".07" style="mix-blend-mode:multiply"/>
</g>
</g>
</g>
</svg>
