<?xml version="1.0" encoding="UTF-8" standalone="no"?>
<svg>
<symbol id="clock" fill="#454E54" viewBox="0 0 18 18">
<path d="m9.75 4.5c0-0.41421-0.33579-0.75-0.75-0.75s-0.75 0.33579-0.75 0.75v4.5c0 0.28408 0.1605 0.54378 0.41459 0.67082l3 1.5c0.3705 0.1853 0.821 0.0351 1.0062-0.3354 0.1853-0.3705 0.0351-0.821-0.3354-1.0062l-2.5854-1.2927v-4.0365z"/>
<path d="m9 0.75c-4.5564 0-8.25 3.6936-8.25 8.25 0 4.5563 3.6936 8.25 8.25 8.25 4.5563 0 8.25-3.6937 8.25-8.25 0-4.5564-3.6937-8.25-8.25-8.25zm-6.75 8.25c0-3.7279 3.0221-6.75 6.75-6.75 3.7279 0 6.75 3.0221 6.75 6.75 0 3.7279-3.0221 6.75-6.75 6.75-3.7279 0-6.75-3.0221-6.75-6.75z" clip-rule="evenodd" fill-rule="evenodd"/>
</symbol>
<symbol id="calendar" fill="none" viewBox="0 0 24 24">
<path d="m17 2c0-0.55228-0.4477-1-1-1s-1 0.44772-1 1v1h-6v-1c0-0.55228-0.44772-1-1-1s-1 0.44772-1 1v1h-2.7778c-1.6779 0-3.2222 1.2466-3.2222 3v14c0 1.7534 1.5444 3 3.2222 3h15.556c1.6779 0 3.2222-1.2466 3.2222-3v-14c0-1.7534-1.5443-3-3.2222-3h-2.7778v-1zm4 7v-3c0-0.45579-0.4455-1-1.2222-1h-2.7778v1c0 0.55228-0.4477 1-1 1s-1-0.44772-1-1v-1h-6v1c0 0.55228-0.44772 1-1 1s-1-0.44772-1-1v-1h-2.7778c-0.77672 0-1.2222 0.54421-1.2222 1v3h18zm-18 2h18v9c0 0.4558-0.4455 1-1.2222 1h-15.556c-0.77672 0-1.2222-0.5442-1.2222-1v-9z" clip-rule="evenodd" fill="#454E54" fill-rule="evenodd"/>
</symbol>
<symbol id="pin" fill="#454E54" viewBox="0 0 16 18">
<path d="m7.5841 17.874s4e-4 2e-4 0.41643-0.6238l0.41602 0.624c-0.25192 0.168-0.58053 0.1677-0.83245-2e-4z"/>
<path d="m8.0005 4.5c-1.6569 0-3 1.3432-3 3s1.3431 3 3 3c1.6568 0 3-1.3432 3-3s-1.3432-3-3-3zm-1.5 3c0-0.82843 0.67157-1.5 1.5-1.5s1.5 0.67157 1.5 1.5-0.67157 1.5-1.5 1.5-1.5-0.67157-1.5-1.5z" clip-rule="evenodd" fill-rule="evenodd"/>
<path d="m7.5841 17.874 0.41643-0.6238c0.41602 0.624 0.41699 0.6234 0.41699 0.6234l0.00158-0.0011 5e-3 -0.0033 0.01719-0.0116c0.0146-0.01 0.03543-0.0242 0.06207-0.0427 0.05327-0.0369 0.12982-0.0906 0.22632-0.1603 0.19294-0.1393 0.46608-0.3427 0.79273-0.6028 0.65213-0.5193 1.5235-1.2695 2.3976-2.192 1.7173-1.8128 3.5805-4.4331 3.5805-7.3596 0-1.9891-0.7902-3.8968-2.1967-5.3033-1.4065-1.4065-3.3142-2.1967-5.3033-2.1967-1.9891 0-3.8968 0.79018-5.3033 2.1967-1.4065 1.4065-2.1967 3.3142-2.1967 5.3033 0 2.9265 1.8632 5.5468 3.5805 7.3596 0.87401 0.9225 1.7455 1.6727 2.3976 2.192 0.32665 0.2601 0.59979 0.4635 0.79272 0.6028 0.09651 0.0697 0.17306 0.1234 0.22633 0.1603 0.02664 0.0185 0.04746 0.0327 0.06207 0.0427l0.01719 0.0116 0.00499 0.0033 0.00215 0.0015zm-3.8262-14.616c1.1252-1.1252 2.6513-1.7574 4.2426-1.7574s3.1174 0.63214 4.2426 1.7574 1.7574 2.6513 1.7574 4.2426c0 2.3235-1.5118 4.5782-3.1695 6.3279-0.8135 0.8587-1.6295 1.5617-2.243 2.0502-0.22833 0.1818-0.42776 0.3333-0.58749 0.4513-0.15973-0.118-0.35917-0.2695-0.58749-0.4513-0.61351-0.4885-1.4296-1.1915-2.243-2.0502-1.6577-1.7497-3.1695-4.0044-3.1695-6.3279 0-1.5913 0.63214-3.1174 1.7574-4.2426z" clip-rule="evenodd" fill-rule="evenodd"/>
</symbol>
<symbol id="save" fill="none" viewBox="0 0 16 20">
<path d="M3 2C2.73478 2 2.48043 2.10536 2.29289 2.29289C2.10536 2.48043 2 2.73478 2 3V17.0568L7.41876 13.1863C7.76646 12.9379 8.23354 12.9379 8.58124 13.1863L14 17.0568V3C14 2.73478 13.8946 2.48043 13.7071 2.29289C13.5196 2.10536 13.2652 2 13 2H3ZM0.87868 0.87868C1.44129 0.31607 2.20435 0 3 0H13C13.7956 0 14.5587 0.31607 15.1213 0.87868C15.6839 1.44129 16 2.20435 16 3V19C16 19.3746 15.7907 19.7178 15.4576 19.8892C15.1245 20.0606 14.7236 20.0315 14.4188 19.8137L8 15.2289L1.58124 19.8137C1.27642 20.0315 0.875489 20.0606 0.542418 19.8892C0.209347 19.7178 0 19.3746 0 19V3C0 2.20435 0.31607 1.44129 0.87868 0.87868Z" clip-rule="evenodd" fill="#454E54" fill-rule="evenodd"/>
</symbol>
<symbol id="sponsorship" fill="none" viewBox="0 0 24 24">
    <path d="m3.1395 14.355c-1.9087-1.4621-3.1395-3.7646-3.1395-6.3547 0-4.4183 3.5817-8 8-8 4.4183 0 8 3.5817 8 8 0 2.5895-1.2303 4.8917-3.1383 6.3538l1.1296 8.5147c0.0505 0.3806-0.1214 0.7565-0.4423 0.9673s-0.7342 0.2192-1.0635 0.0217l-4.4855-2.6913-4.4855 2.6913c-0.32927 0.1976-0.74259 0.1891-1.0635-0.0217-0.32095-0.2108-0.49282-0.5868-0.44226-0.9675l1.1308-8.5136zm-1.1395-6.3547c0-3.3137 2.6863-6 6-6 3.3137 0 6 2.6863 6 6 0 2.0815-1.0599 3.9154-2.6695 4.9915-0.057 0.0295-0.1106 0.0643-0.1603 0.1035-0.9198 0.5736-2.0063 0.905-3.1702 0.905-3.3137 0-6-2.6863-6-6zm8.9861 7.4241c-0.9226 0.3714-1.9305 0.5759-2.9861 0.5759-1.0552 0-2.0626-0.2043-2.985-0.5755l-0.75052 5.6506 3.2211-1.9326c0.31668-0.19 0.71231-0.19 1.029 0l3.2214 1.9328-0.7498-5.6512z" clip-rule="evenodd" fill="#454E54" fill-rule="evenodd"/>
</symbol>
<symbol id="world" fill="none" stroke="#454E54" stroke-linecap="round" stroke-linejoin="round" stroke-width="1.1" viewBox="0 0 16 16">
<path d="M8 14.67A6.67 6.67 0 108 1.33a6.67 6.67 0 000 13.34zM1.33 8h13.34"/>
<path d="M8 1.33A10.2 10.2 0 0110.67 8 10.2 10.2 0 018 14.67 10.2 10.2 0 015.33 8c.05-2.47 1-4.84 2.67-6.67z"/>
</symbol>
<symbol id="thumbsup" fill="none" viewBox="0 0 22 22">
<path d="m11.398 0.012527c0.5317 0.055442 1.0239 0.29385 1.4299 0.69991 0.7502 0.75015 1.1716 1.7676 1.1716 2.8284v3h4.6549c0.4327-4e-3 0.8613 0.08567 1.2561 0.26289 0.3968 0.17807 0.7501 0.44028 1.0355 0.76845 0.2853 0.32817 0.4959 0.71446 0.6172 1.1321 0.1212 0.41765 0.1502 0.85666 0.085 1.2866l-1.38 8.9999v0c-0.1086 0.715-0.4721 1.3676-1.0231 1.836-0.5498 0.4673-1.2495 0.7207-1.9708 0.7141h-14.275c-0.79565 0-1.5587-0.3161-2.1213-0.8787s-0.87868-1.3257-0.87868-2.1213v-7c0-0.7957 0.31607-1.5588 0.87868-2.1214s1.3257-0.87868 2.1213-0.87868h2.3501l2.7791-6.2531c0.36996-0.83241 1.0362-1.5975 1.8484-1.9986 0.41499-0.20493 0.90299-0.33067 1.4208-0.27668zm-6.3985 10.528h-2c-0.26522 0-0.51957 0.1053-0.70711 0.2929-0.18753 0.1875-0.29289 0.4418-0.29289 0.7071v7c0 0.2652 0.10536 0.5195 0.29289 0.7071 0.18754 0.1875 0.44189 0.2929 0.70711 0.2929h2v-9zm2 9h10.291c0.2412 0.0027 0.4752-0.0818 0.659-0.238 0.1837-0.1562 0.3048-0.3735 0.341-0.612l1.38-9.0001v0c0.0217-0.1432 0.0121-0.28979-0.0283-0.42888-0.0404-0.13921-0.1106-0.26797-0.2057-0.37737-0.0952-0.10939-0.2129-0.19679-0.3452-0.25614-0.1322-0.05936-0.2758-0.08925-0.4208-0.08761l-0.0113 1.3e-4 -5.66-7e-5c-0.5523 0-1-0.44771-1-1v-4c0-0.53043-0.2107-1.0391-0.5858-1.4142-0.1005-0.10051-0.1736-0.11974-0.2231-0.12491-0.0635-0.00662-0.1726 0.00407-0.3278 0.08072-0.3281 0.16204-0.6945 0.54073-0.90641 1.0176l-2.9569 6.653v9.7878z" clip-rule="evenodd" fill="#454E54" fill-rule="evenodd"/>
</symbol>
<symbol id="network" fill="none" viewBox="0 0 20 22">
<path d="m13.158 6.8149c0.7249 0.73181 1.7305 1.1851 2.8419 1.1851 2.2091 0 4-1.7909 4-4s-1.7909-4-4-4-4 1.7909-4 4c0 0.37703 0.0522 0.74188 0.1497 1.0877l-5.3077 3.0974c-0.7249-0.73185-1.7305-1.1852-2.842-1.1852-2.2091 0-4 1.7909-4 4 0 2.2091 1.7909 4 4 4 1.1116 0 2.1174-0.4535 2.8423-1.1855l5.3086 3.0934c-0.0983 0.3471-0.1509 0.7135-0.1509 1.0921 0 2.2091 1.7909 4 4 4s4-1.7909 4-4-1.7909-4-4-4c-1.1098 0-2.1141 0.452-2.8387 1.1819l-5.3108-3.0947c0.0974-0.3457 0.14951-0.7104 0.14951-1.0872 0-0.377-0.05216-0.7418-0.14964-1.0876l5.3077-3.0975zm2.8419-4.8149c-1.1046 0-2 0.89543-2 2 0 0.3474 0.0886 0.67412 0.2444 0.95879 0.0101 0.01538 0.0199 0.03113 0.0293 0.04723 0.0093 0.01598 0.0181 0.03211 0.0265 0.04837 0.3529 0.56768 0.9822 0.94561 1.6998 0.94561 1.1046 0 2-0.89543 2-2s-0.8954-2-2-2zm-10.3 7.9453c0.00841 0.01641 0.01732 0.03269 0.02673 0.04882 0.00947 0.01622 0.01933 0.03212 0.02956 0.04762 0.15564 0.2845 0.24412 0.6111 0.24412 0.9583 0 0.3474-0.0886 0.6742-0.24444 0.9589-0.01023 0.0155-0.02009 0.0314-0.02956 0.0477-0.00918 0.0157-0.01788 0.0316-0.02611 0.0477-0.35286 0.5677-0.98224 0.9457-1.6999 0.9457-1.1046 0-2-0.8954-2-2 0-1.1046 0.89543-2 2-2 0.71745 0 1.3467 0.37777 1.6996 0.94526zm8.3004 8.0547c0-0.3251 0.0776-0.632 0.2152-0.9034 0.0247-0.0325 0.0477-0.0669 0.0688-0.1031 0.0202-0.0347 0.0381-0.0701 0.0538-0.1061 0.3589-0.5352 0.9694-0.8874 1.6622-0.8874 1.1046 0 2 0.8954 2 2s-0.8954 2-2 2-2-0.8954-2-2z" clip-rule="evenodd" fill="#454E54" fill-rule="evenodd"/>
</symbol>
<symbol id="suitcase" viewBox="0 0 20 20">
    <path d="m7.6699 0c-1.1046 0-2 0.89543-2 2v0.80005h-4.6426c-0.55228 0-1 0.44771-1 1v1.345l-0.027344 0.03397 0.027344 0.02201v12.799c0 0.5523 0.44772 1 1 1h18c0.5523 0 1-0.4477 1-1v-12.799l0.0268-0.02156-0.0268-0.03328v-1.3456c0-0.55229-0.4477-1-1-1h-4.6431v-0.80005c0-1.1046-0.8954-2-2-2h-4.7143zm4.7143 2.8v-0.80005h-4.7143v0.80005h4.7143zm4.9512 2h-14.617l3.9751 3.2h6.6665l3.9751-3.2zm-2.3081 4.4255v4.5745h-10v-4.574l-3-2.415v10.189h16v-10.189l-3 2.415zm-2 0.77447h-6v1.8h6v-1.8z" clip-rule="evenodd" fill-rule="evenodd"/>
</symbol>
<symbol id="document" viewBox="0 0 18 22">
    <path d="M0.87868 0.87868C1.44129 0.31607 2.20435 0 3 0H10C10.2652 0 10.5196 0.105357 10.7071 0.292893L17.7071 7.29289C17.8946 7.48043 18 7.73478 18 8V19C18 19.7957 17.6839 20.5587 17.1213 21.1213C16.5587 21.6839 15.7957 22 15 22H3C2.20435 22 1.44129 21.6839 0.87868 21.1213C0.31607 20.5587 0 19.7957 0 19V3C0 2.20435 0.31607 1.44129 0.87868 0.87868ZM3 2C2.73478 2 2.48043 2.10536 2.29289 2.29289C2.10536 2.48043 2 2.73478 2 3V19C2 19.2652 2.10536 19.5196 2.29289 19.7071C2.48043 19.8946 2.73478 20 3 20H15C15.2652 20 15.5196 19.8946 15.7071 19.7071C15.8946 19.5196 16 19.2652 16 19V8.41421L9.58579 2H3Z" clip-rule="evenodd" fill-rule="evenodd"/>
    <path d="m10 0c0.5523 0 1 0.44772 1 1v6h6c0.5523 0 1 0.44772 1 1s-0.4477 1-1 1h-7c-0.55229 0-1-0.44772-1-1v-7c0-0.55228 0.44771-1 1-1z" clip-rule="evenodd" fill-rule="evenodd"/>
</symbol>
<symbol id="rocketship" viewBox="0 0 18 24">
    <path d="m8.7458 22.921c1.2315-0.9162 2.3098-2.0315 3.189-3.2993 1.8117 0.7572 3.297 2.1399 4.1856 3.8782 0.577-1.1288 0.9025-2.4077 0.9025-3.7624 0-2.4261-1.0438-4.6086-2.7069-6.1224 0.1055-0.7026 0.1601-1.4222 0.1601-2.1546 0-4.7049-2.2557-8.8756-5.7303-11.461-3.4746 2.585-5.7303 6.7557-5.7303 11.461 0 0.7324 0.05464 1.452 0.16011 2.1546-1.6631 1.5138-2.7069 3.6963-2.7069 6.1224 0 1.3547 0.3255 2.6336 0.90251 3.7624 0.88859-1.7383 2.3739-3.121 4.1856-3.8782 0.87912 1.2678 1.9574 2.3831 3.1889 3.2993zm0-11.46c1.4066 0 2.5468-1.1402 2.5468-2.5468 0-1.4066-1.1402-2.5468-2.5468-2.5468-1.4065 0-2.5468 1.1402-2.5468 2.5468 0 1.4066 1.1403 2.5468 2.5468 2.5468z" clip-rule="evenodd" fill-rule="evenodd"/>
</symbol>
<symbol id="git" viewBox="0 0 23 23">
    <path d="m7 9.874c1.7252-0.44404 3-2.0101 3-3.874 0-2.2091-1.7909-4-4-4s-4 1.7909-4 4c0 1.8638 1.2748 3.4299 3 3.874v11.126c0 0.5523 0.44772 1 1 1s1-0.4477 1-1v-11.126zm-3-3.874c0-1.1046 0.89543-2 2-2s2 0.89543 2 2-0.89543 2-2 2-2-0.89543-2-2z" clip-rule="evenodd" fill-rule="evenodd"/>
    <path d="m14 18c0-1.8638 1.2748-3.4299 3-3.874v-6.126c0-0.26522-0.1054-0.51957-0.2929-0.70711-0.1875-0.18753-0.4419-0.29289-0.7071-0.29289h-3c-0.5523 0-1-0.44772-1-1s0.4477-1 1-1h3c0.7956 0 1.5587 0.31607 2.1213 0.87868s0.8787 1.3257 0.8787 2.1213v6.126c1.7252 0.4441 3 2.0102 3 3.874 0 2.2091-1.7909 4-4 4s-4-1.7909-4-4zm2 0c0-1.1046 0.8954-2 2-2s2 0.8954 2 2-0.8954 2-2 2-2-0.8954-2-2z" clip-rule="evenodd" fill-rule="evenodd"/>
</symbol>
<symbol id="couple" viewBox="0 0 23 23">
    <path d="m9 0c-2.7614 0-5 2.2386-5 5s2.2386 5 5 5c2.7614 0 5-2.2386 5-5s-2.2386-5-5-5zm-3 5c0-1.6568 1.3432-3 3-3 1.6569 0 3 1.3432 3 3s-1.3431 3-3 3c-1.6568 0-3-1.3432-3-3z" clip-rule="evenodd"  fill-rule="evenodd"/>
    <path d="m5 12c-1.3261 0-2.5978 0.5268-3.5355 1.4645-0.93769 0.9376-1.4645 2.2094-1.4645 3.5355v2c0 0.5523 0.44772 1 1 1 0.55228 0 1-0.4477 1-1v-2c0-0.7956 0.31607-1.5587 0.87868-2.1213s1.3257-0.8787 2.1213-0.8787h8c0.7956 0 1.5587 0.3161 2.1213 0.8787s0.8787 1.3256 0.8787 2.1213v2c0 0.5523 0.4477 1 1 1s1-0.4477 1-1v-2c0-1.3261-0.5268-2.5979-1.4645-3.5355-0.9376-0.9377-2.2094-1.4645-3.5355-1.4645h-8z" />
    <path d="m19.032 12.88c0.1381-0.5347 0.6835-0.8563 1.2182-0.7182 1.0727 0.2769 2.023 0.9023 2.7017 1.7779 0.6788 0.8755 1.0475 1.9517 1.0483 3.0596v2.0007c0 0.5523-0.4477 1-1 1-0.5522 0-1-0.4477-1-1v-1.9993c-5e-4 -0.6646-0.2218-1.3105-0.6289-1.8357-0.4073-0.5254-0.9775-0.9006-1.6211-1.0668-0.5347-0.138-0.8563-0.6834-0.7182-1.2182z"/>
    <path d="m16.248 0.16125c-0.535-0.13699-1.0798 0.18568-1.2168 0.72071-0.137 0.53503 0.1857 1.0798 0.7207 1.2168 0.6453 0.16523 1.2173 0.54053 1.6257 1.0667 0.4085 0.52621 0.6302 1.1734 0.6302 1.8395s-0.2217 1.3133-0.6302 1.8395c-0.4084 0.52621-0.9804 0.90151-1.6257 1.0667-0.535 0.13699-0.8577 0.68176-0.7207 1.2168s0.6818 0.8577 1.2168 0.72071c1.0755-0.27538 2.0288-0.90088 2.7095-1.7779 0.6808-0.87701 1.0503-1.9556 1.0503-3.0659s-0.3695-2.1888-1.0503-3.0659c-0.6807-0.87701-1.634-1.5025-2.7095-1.7779z"/>
</symbol>
<symbol id="union" viewBox="0 0 25 25">
    <path d="M4.5 6C4.22386 6 4 6.22386 4 6.5V7.5C4 7.77614 4.22386 8 4.5 8H5.5C5.77614 8 6 7.77614 6 7.5V6.5C6 6.22386 5.77614 6 5.5 6H4.5Z" />
    <path d="m4.5 11c-0.27614 0-0.5 0.2239-0.5 0.5v1c0 0.2761 0.22386 0.5 0.5 0.5h1c0.27614 0 0.5-0.2239 0.5-0.5v-1c0-0.2761-0.22386-0.5-0.5-0.5h-1z" />
    <path d="m4.5 16c-0.27614 0-0.5 0.2239-0.5 0.5v1c0 0.2761 0.22386 0.5 0.5 0.5h1c0.27614 0 0.5-0.2239 0.5-0.5v-1c0-0.2761-0.22386-0.5-0.5-0.5h-1z" />
    <path d="M7.5 6C7.22386 6 7 6.22386 7 6.5V7.5C7 7.77614 7.22386 8 7.5 8H8.5C8.77614 8 9 7.77614 9 7.5V6.5C9 6.22386 8.77614 6 8.5 6H7.5Z" />
    <path d="m7.5 11c-0.27614 0-0.5 0.2239-0.5 0.5v1c0 0.2761 0.22386 0.5 0.5 0.5h1c0.27614 0 0.5-0.2239 0.5-0.5v-1c0-0.2761-0.22386-0.5-0.5-0.5h-1z" />
    <path d="m7.5 16c-0.27614 0-0.5 0.2239-0.5 0.5v1c0 0.2761 0.22386 0.5 0.5 0.5h1c0.27614 0 0.5-0.2239 0.5-0.5v-1c0-0.2761-0.22386-0.5-0.5-0.5h-1z" />
    <path d="m2 2c-0.55228 0-1 0.44772-1 1v18c0 0.5523 0.44772 1 1 1h9c0.5523 0 1-0.4477 1-1v-18c0-0.55228-0.4477-1-1-1h-9zm1 18v-16h7v16h-7z" clip-rule="evenodd" />
    <path d="m16 9.5c0-0.27614 0.2239-0.5 0.5-0.5h1c0.2761 0 0.5 0.22386 0.5 0.5v1c0 0.2761-0.2239 0.5-0.5 0.5h-1c-0.2761 0-0.5-0.2239-0.5-0.5v-1z" />
    <path d="m16 13.5c0-0.2761 0.2239-0.5 0.5-0.5h1c0.2761 0 0.5 0.2239 0.5 0.5v1c0 0.2761-0.2239 0.5-0.5 0.5h-1c-0.2761 0-0.5-0.2239-0.5-0.5v-1z" />
    <path d="m16 17.5c0-0.2761 0.2239-0.5 0.5-0.5h1c0.2761 0 0.5 0.2239 0.5 0.5v1c0 0.2761-0.2239 0.5-0.5 0.5h-1c-0.2761 0-0.5-0.2239-0.5-0.5v-1z" />
    <path d="m19 9.5c0-0.27614 0.2239-0.5 0.5-0.5h1c0.2761 0 0.5 0.22386 0.5 0.5v1c0 0.2761-0.2239 0.5-0.5 0.5h-1c-0.2761 0-0.5-0.2239-0.5-0.5v-1z" />
    <path d="m19 13.5c0-0.2761 0.2239-0.5 0.5-0.5h1c0.2761 0 0.5 0.2239 0.5 0.5v1c0 0.2761-0.2239 0.5-0.5 0.5h-1c-0.2761 0-0.5-0.2239-0.5-0.5v-1z" />
    <path d="m19 17.5c0-0.2761 0.2239-0.5 0.5-0.5h1c0.2761 0 0.5 0.2239 0.5 0.5v1c0 0.2761-0.2239 0.5-0.5 0.5h-1c-0.2761 0-0.5-0.2239-0.5-0.5v-1z" />
    <path d="m14 5c-0.5523 0-1 0.44772-1 1v15c0 0.5523 0.4477 1 1 1h9c0.5523 0 1-0.4477 1-1v-15c0-0.55228-0.4477-1-1-1h-9zm1 15v-13h7v13h-7z" clip-rule="evenodd" fill-rule="evenodd"/>
</symbol>
<symbol id="issue-state" viewBox="0 0 18 18">
    <path d="m0 0.8c0-0.44183 0.35817-0.8 0.8-0.8h5.6c0.2201 0 0.43048 0.090684 0.58161 0.2507l6.8 7.2c0.2912 0.30832 0.2912 0.79028 0 1.0986l-6.8 7.2c-0.15113 0.16-0.36151 0.2507-0.58161 0.2507h-5.6c-0.44183 0-0.8-0.3582-0.8-0.8v-14.4zm1.6 0.8v12.8h4.4552l6.0444-6.4-6.0444-6.4h-4.4552z" clip-rule="evenodd" fill-rule="evenodd"/>
</symbol>
<symbol id="issue-level-beginner" viewBox="0 0 21 21">
    <rect y="12" width="4.66667" height="8" rx="1" fill="#454E54"/>
    <rect x="8.16797" y="6.66663" width="4.66667" height="13.3333" rx="1" fill="#EAEAEA"/>
    <rect x="16.332" width="4.66667" height="20" rx="1" fill="#EAEAEA"/>
</symbol>
<symbol id="issue-level-intermediate" viewBox="0 0 21 21">
    <rect y="12" width="4.66667" height="8" rx="1" fill="#454E54"/>
    <rect x="8.16797" y="6.66663" width="4.66667" height="13.3333" rx="1" fill="#454E54"/>
    <rect x="16.332" width="4.66667" height="20" rx="1" fill="#EAEAEA"/>
</symbol>
<symbol id="issue-level-advanced" viewBox="0 0 21 21">
    <rect y="12" width="4.66667" height="8" rx="1" fill="#454E54"/>
    <rect x="8.16797" y="6.66663" width="4.66667" height="13.3333" rx="1" fill="#454E54"/>
    <rect x="16.332" width="4.66667" height="20" rx="1" fill="#454E54"/>
</symbol>
</svg>
