<?xml version="1.0" encoding="UTF-8" standalone="no"?>
<svg>
    <!-- badges -->
    <symbol id="rating-1" viewBox="0 0 24 24">
        <path d="m12 .36a11.64 11.64 0 1 1 -11.64 11.64 11.64 11.64 0 0 1 11.64-11.64z" fill="#d4eded"/><path d="m12 24a12 12 0 1 1 12-12 12 12 0 0 1 -12 12zm0-23.28a11.28 11.28 0 1 0 11.28 11.28 11.29 11.29 0 0 0 -11.28-11.28z" fill="#6f7f88"/><path d="m13.22 7.76v9.09h-1.79v-7.19l-1.72.48-.44-1.54 2.39-.84z" fill="#6f7f88"/>
    </symbol>
    <symbol id="rating-2" viewBox="0 0 24 24">
        <circle cx="12" cy="12" fill="#d4eded" r="11.64"/><path d="m12 24a12 12 0 1 1 12-12 12 12 0 0 1 -12 12zm0-23.28a11.28 11.28 0 1 0 11.28 11.28 11.29 11.29 0 0 0 -11.28-11.28z" fill="#6f7f88"/><path d="m9.12 15.51 3.1-3.19a3 3 0 0 0 1-1.82 1.11 1.11 0 0 0 -1.18-1.18 1.64 1.64 0 0 0 -1.52 1.06l-1.47-.88a3.2 3.2 0 0 1 3-1.92 2.84 2.84 0 0 1 3 2.86 4.23 4.23 0 0 1 -1.49 2.9l-1.78 1.78h3.41v1.73h-6.07z" fill="#6f7f88"/>
    </symbol>
    <symbol id="rating-3" viewBox="0 0 24 24">
        <circle cx="12" cy="12" fill="#d4eded" r="11.64"/><path d="m12 24a12 12 0 1 1 12-12 12 12 0 0 1 -12 12zm0-23.28a11.28 11.28 0 1 0 11.28 11.28 11.29 11.29 0 0 0 -11.28-11.28z" fill="#6f7f88"/><path d="m15.07 14.05a3 3 0 0 1 -3.25 3 3.17 3.17 0 0 1 -3.11-1.92l1.53-.88a1.49 1.49 0 0 0 1.58 1c .94 0 1.46-.49 1.46-1.23s-.52-1.24-1.46-1.24h-.39l-.68-1 1.79-2.33h-3.54v-1.69h5.71v1.48l-1.71 2.21a2.69 2.69 0 0 1 2.07 2.6z" fill="#6f7f88"/>
    </symbol>
    <symbol id="rating-4" viewBox="0 0 24 24">
        <path d="m12 .36a11.64 11.64 0 1 1 -11.64 11.64 11.64 11.64 0 0 1 11.64-11.64z" fill="#d4eded"/><path d="m12 24a12 12 0 1 1 12-12 12 12 0 0 1 -12 12zm0-23.28a11.28 11.28 0 1 0 11.28 11.28 11.29 11.29 0 0 0 -11.28-11.28z" fill="#6f7f88"/><path d="m15.18 15.3h-1v1.55h-1.78v-1.55h-4.3v-1.66l3-5.88h1.92l-3 5.88h2.38v-2.15h1.81v2.15h1z" fill="#6f7f88"/>
    </symbol>
    <symbol id="rating-5" viewBox="0 0 24 24">
        <path d="m12 .36a11.64 11.64 0 1 1 -11.64 11.64 11.64 11.64 0 0 1 11.64-11.64z" fill="#d4eded"/><path d="m12 24a12 12 0 1 1 12-12 12 12 0 0 1 -12 12zm0-23.28a11.28 11.28 0 1 0 11.28 11.28 11.29 11.29 0 0 0 -11.28-11.28z" fill="#6f7f88"/><path d="m15.15 14.05a3 3 0 0 1 -3.25 3 3.18 3.18 0 0 1 -3.17-2l1.53-.89a1.52 1.52 0 0 0 1.64 1.09c.94 0 1.45-.49 1.45-1.23a1.24 1.24 0 0 0 -1.35-1.21h-2.8l.36-5.05h5.16v1.68h-3.5l-.11 1.63h.89a2.89 2.89 0 0 1 3.15 2.98z" fill="#6f7f88"/>
    </symbol>

    <!-- icons -->
    <symbol id="twitter" viewBox="0 0 24 24">
        <path d="m9.38 18.83a9.26 9.26 0 0 0 9.33-9.17v-.61a7.34 7.34 0 0 0 1.6-1.69 7.14 7.14 0 0 1 -1.87.53 3.43 3.43 0 0 0 1.42-1.78 7.94 7.94 0 0 1 -2 .8 3.18 3.18 0 0 0 -2.4-1.06 3.34 3.34 0 0 0 -3.29 3.29 1.72 1.72 0 0 0  .09.71 9.19 9.19 0 0 1 -6.8-3.47 3.46 3.46 0 0 0 -.46 1.69 3.53 3.53 0 0 0 1.42 2.76 3 3 0 0 1 -1.51-.45 3.25 3.25 0 0 0 2.67 3.2 2.67 2.67 0 0 1 -.89.09 1.46 1.46 0 0 1 -.62-.09 3.35 3.35 0 0 0 3.13 2.31 6.69 6.69 0 0 1 -4.09 1.43 2.69 2.69 0 0 1 -.8-.09 8.44 8.44 0 0 0 5.07 1.6"/>
    </symbol>
    <symbol id="twitter-circle" viewBox="0 0 400 400">
        <path d="m400 200c0 110.5-89.5 200-200 200s-200-89.5-200-200 89.5-200 200-200 200 89.5 200 200zm-236.6 105.5c88.7 0 137.2-73.5 137.2-137.2 0-2.1 0-4.2-0.1-6.2 9.4-6.8 17.6-15.3 24.1-25-8.6 3.8-17.9 6.4-27.7 7.6 10-6 17.6-15.4 21.2-26.7-9.3 5.5-19.6 9.5-30.6 11.7-8.8-9.4-21.3-15.2-35.2-15.2-26.6 0-48.2 21.6-48.2 48.2 0 3.8 0.4 7.5 1.3 11-40.1-2-75.6-21.2-99.4-50.4-4.1 7.1-6.5 15.4-6.5 24.2 0 16.7 8.5 31.5 21.5 40.1-7.9-0.2-15.3-2.4-21.8-6v0.6c0 23.4 16.6 42.8 38.7 47.3-4 1.1-8.3 1.7-12.7 1.7-3.1 0-6.1-0.3-9.1-0.9 6.1 19.2 23.9 33.1 45 33.5-16.5 12.9-37.3 20.6-59.9 20.6-3.9 0-7.7-0.2-11.5-0.7 21.1 13.8 46.5 21.8 73.7 21.8"/>
    </symbol>
    <symbol id="github" viewBox="20518 685 22 22">
        <path id="Path_99" data-name="Path 99" class="cls-1" d="M20540 695.4v1.2c-.047.382-.082.765-.142 1.143a11.016 11.016 0 0 1-9.258 9.132c-.33.052-.666.086-1 .125h-1.2a1.476 1.476 0 0 0-.19-.04 9.255 9.255 0 0 1-2.418-.45 10.848 10.848 0 0 1-7.62-8.637c-.082-.403-.116-.82-.172-1.228v-1.29a1.414 1.414 0 0 0 .04-.185 10.482 10.482 0 0 1 1.546-4.833 10.85 10.85 0 0 1 7.82-5.212c.314-.052.636-.086.95-.125h1.29c.364.047.734.082 1.1.142a11.02 11.02 0 0 1 9.13 9.28c.047.323.08.65.124.978zm-12.753 4.837c-.464-.1-.915-.172-1.354-.292a3.744 3.744 0 0 1-2.543-1.977 5.383 5.383 0 0 1-.48-2.054 3.912 3.912 0 0 1 .87-2.9.283.283 0 0 0 .048-.228 3.485 3.485 0 0 1 .017-1.968c.137-.5.18-.52.7-.417a6.022 6.022 0 0 1 1.912.852.446.446 0 0 0 .31.06 8.79 8.79 0 0 1 4.562 0 .494.494 0 0 0 .308-.056c.447-.223.877-.49 1.336-.68a3.956 3.956 0 0 1 .958-.2.254.254 0 0 1 .2.13 3.513 3.513 0 0 1 .133 2.23.312.312 0 0 0 .064.327 3.485 3.485 0 0 1 .725 1.418 5.386 5.386 0 0 1 .01 2.3 3.792 3.792 0 0 1-1.148 2.23 4.47 4.47 0 0 1-2.118 1.028c-.332.073-.667.125-1.024.193a2.437 2.437 0 0 1 .62 1.8v2.58c0 .274.094.46.308.5a.98.98 0 0 0 .5-.027 9.63 9.63 0 1 0-12.733-8.142 9.375 9.375 0 0 0 4.49 7.228 13.51 13.51 0 0 0 1.947.932.52.52 0 0 0 .77-.524v-1.555c-.293.03-.555.074-.817.087a2.37 2.37 0 0 1-2.526-1.517 2.5 2.5 0 0 0-1.044-1.3c-.138-.086-.327-.31-.3-.387.082-.2.322-.163.51-.133a1.842 1.842 0 0 1 1.355.958 2.034 2.034 0 0 0 2.71.846.262.262 0 0 0 .143-.138 2.333 2.333 0 0 1 .58-1.2z"/>
    </symbol>
    <symbol id="linkedin" viewBox="16355 -10561 16 16">
        <path id="LinkedIn_1_" d="M12.7 7.439v4.694h-2.725v-4.381c0-1.1-.393-1.851-1.379-1.851a1.488 1.488 0 0 0-1.396.999 1.883 1.883 0 0 0-.092.664v4.573h-2.721s.035-7.418 0-8.186h2.721v1.16l-.018.027h.018v-.031a2.7 2.7 0 0 1 2.453-1.352c1.792 0 3.139 1.169 3.139 3.684zm-11.159-7.439a1.418 1.418 0 1 0-.035 2.828h.018a1.419 1.419 0 1 0 .017-2.828zm-1.379 12.133h2.722v-8.186h-2.722z" transform="translate(15275 -14490) translate(1081.882 3930.882)"/>
    </symbol>
    <symbol id="linkedin-circle" viewBox="0 0 60 60">
        <path d="m46.837 44.137v-11.712c0-6.275-3.35-9.195-7.816-9.195-3.604 0-5.219 1.983-6.119 3.374v-2.894h-6.79c0.09 1.917 0 20.427 0 20.427h6.79v-11.408c0-0.609 0.044-1.219 0.224-1.655 0.49-1.22 1.607-2.483 3.482-2.483 2.458 0 3.44 1.873 3.44 4.618v10.929l6.789-1e-3zm-27.878-23.215c2.367 0 3.842-1.57 3.842-3.531-0.044-2.003-1.475-3.528-3.797-3.528s-3.841 1.524-3.841 3.528c0 1.961 1.474 3.531 3.753 3.531h0.043zm11.041 39.078c-16.568 0-30-13.432-30-30 0-16.569 13.432-30 30-30s30 13.431 30 30c0 16.568-13.432 30-30 30zm-7.646-15.863v-20.427h-6.789v20.427h6.789z"/>
    </symbol>
    <symbol id="facebook" viewBox="0 0 24 24">
        <path id="Path_238" d="M13.26 20.34v-7.6h2.6l.37-3h-3v-1.82c0-.83.28-1.48 1.48-1.48h1.58v-2.69c-.29 0-1.29-.09-2.29-.09a3.57 3.57 0 0 0-3.8 3.34 3.49 3.49 0 0 0 0 .56v2.21h-2.59v3h2.6v7.6z"/>
    </symbol>
    <symbol id="stackoverflow" viewBox="0 0 24 24">
        <path d="m18.986 21.865v-6.404h2.134v8.539h-19.276v-8.539h2.13v6.404zm-12.875-2.134h10.739v-2.137h-10.739zm.259-4.852 10.48 2.189.451-2.07-10.478-2.187zm1.359-5.056 9.705 4.53.903-1.95-9.706-4.53-.902 1.936zm2.715-4.785 8.217 6.855 1.359-1.62-8.216-6.853-1.35 1.617zm5.307-5.038-1.746 1.294 6.405 8.604 1.746-1.294-6.407-8.604z"/>
    </symbol>
    <symbol id="web" viewBox="0 0 87.800001 87.800001">
        <path d="m43.9 0c-24.2 0-43.9 19.7-43.9 43.9s19.7 43.9 43.9 43.9 43.9-19.7 43.9-43.9-19.7-43.9-43.9-43.9zm-39.9 45.9h11.8c.2 5.7 1 11.1 2.4 16h-10c-2.4-4.8-3.9-10.2-4.2-16zm50.7-4c-.1-5.6-.3-11-.8-16h11.5c1.5 4.9 2.4 10.3 2.6 16zm-10.8 41.9c-1.6-.3-4-6.5-5.5-17.9h11c-1.5 11.4-4 17.6-5.5 17.9zm-6-21.9c-.5-4.6-.8-10-.8-16h13.6c-.1 6-.4 11.4-.8 16zm-.8-20c .1-6 .4-11.4.8-16h12c .5 4.6.8 10 .8 16zm6.8-37.9c1.6.4 4 6.6 5.5 17.9h-11c1.5-11.3 3.9-17.5 5.5-17.9zm9.5 17.9c-.4-2.9-.8-5.6-1.3-8-.8-3.7-1.7-6.6-2.7-8.8 6 2.4 11.2 8.5 14.5 16.8zm-15.1-16.8c-1 2.2-1.9 5.1-2.7 8.8-.5 2.5-1 5.2-1.3 8h-10.5c3.4-8.3 8.5-14.4 14.5-16.8zm-4.4 20.8c-.5 5-.8 10.4-.8 16h-13.3c.2-5.7 1.1-11.1 2.6-16zm-18.1 16h-11.8c.3-5.7 1.8-11.1 4.3-16h10c-1.4 5-2.3 10.4-2.5 16zm4 4h13.2c.1 5.6.3 11 .8 16h-11.4c-1.5-4.8-2.4-10.2-2.6-16zm14.6 20c .4 2.9.8 5.6 1.3 8 .8 3.7 1.7 6.6 2.7 8.8-6-2.4-11.2-8.5-14.5-16.8zm15 16.9c1-2.2 1.9-5.1 2.7-8.8.5-2.5 1-5.2 1.3-8h10.5c-3.3 8.3-8.5 14.4-14.5 16.8zm4.5-20.9c.5-5 .8-10.4.8-16h13.2c-.2 5.7-1.1 11.1-2.6 16zm18-16h11.8c-.3 5.7-1.8 11.1-4.3 16h-10c1.5-4.9 2.4-10.3 2.5-16zm0-4c-.2-5.7-1-11.1-2.4-16h10c2.5 4.9 4 10.3 4.3 16zm5.2-20h-9c-2.2-6-5.4-11.1-9.1-14.9 7.5 3.1 13.8 8.3 18.1 14.9zm-48.4-14.8c-3.7 3.8-6.8 8.9-9.1 14.9h-9c4.4-6.7 10.7-11.9 18.1-14.9zm-18.1 58.8h9c2.2 6 5.4 11.1 9.1 14.9-7.4-3-13.7-8.3-18.1-14.9zm48.5 14.9c3.7-3.8 6.8-8.9 9.1-14.9h9c-4.4 6.6-10.7 11.9-18.1 14.9z"/>
    </symbol>
    <symbol id="resources" viewBox="0 0 24 24">
        <path d="M19 3.2H5A1.75 1.75 0 0 0 3.21 5v15a.34.34 0 0 0 .58.24l2.94-2.94H19a1.76 1.76 0 0 0 1.76-1.76V5A1.76 1.76 0 0 0 19 3.2zM8.48 11.12a.87.87 0 0 1-.88-.88.87.87 0 0 1 .88-.88.87.87 0 0 1 .88.88.87.87 0 0 1-.88.88zm3.52 0a.87.87 0 0 1-.88-.88.87.87 0 0 1 .88-.88.87.87 0 0 1 .88.88.87.87 0 0 1-.88.88zm3.52 0a.87.87 0 0 1-.88-.88.87.87 0 0 1 .88-.88.87.87 0 0 1 .88.88.87.87 0 0 1-.88.88z"/>
    </symbol>
    <symbol id="trends" viewBox="0 0 24 24" fill="none" stroke="currentColor" stroke-width="2" stroke-linecap="round" stroke-linejoin="round">
        <polyline points="23 6 13.5 15.5 8.5 10.5 1 18"></polyline><polyline points="17 6 23 6 23 12"></polyline>
    </symbol>
    <symbol id="hiring" viewBox="0 0 24 24">
        <path d="M17 11.17a2.49 2.49 0 0 0 0-5 2.65 2.65 0 0 0-.74.11 4.06 4.06 0 0 1 .74 2.4 4.16 4.16 0 0 1-.74 2.37 2.4 2.4 0 0 0 .74.12zM12.81 11.17a2.49 2.49 0 1 0-2.49-2.49 2.49 2.49 0 0 0 2.51 2.49zM9.56 11.65a.55.55 0 0 0 .2-.42.58.58 0 0 0-.57-.57H6.54V7.93A.56.56 0 0 0 6 7.36a.57.57 0 0 0-.43.19.59.59 0 0 0-.21.45v2.69H2.67a.55.55 0 0 0-.42.2.55.55 0 0 0-.2.42.58.58 0 0 0 .57.57h2.74v2.64a.57.57 0 0 0 .57.57.54.54 0 0 0 .42-.19.55.55 0 0 0 .19-.42v-2.6h2.6a.55.55 0 0 0 .42-.23zM13.66 12.83H12A4.14 4.14 0 0 0 7.86 17h9.94a4.14 4.14 0 0 0-4.14-4.17z"/><path d="M17.66 12.83h-2.02a4.15 4.15 0 0 1 3.41 4.07h2.75a4.14 4.14 0 0 0-4.14-4.07z"/>
    </symbol>
    <symbol id="contribute" viewBox="0 0 14 14">
        <path d="m19 278.18884 4.45914-4.46712c-.33012-.67872-.2156-1.51984.34706-2.08348.7091-.71064 1.85878-.71064 2.56788 0 .7091.7105.70896 1.86284 0 2.57334-.56224.5635-1.40098.67844-2.07802.34818l-4.43226 4.44024 9.84564-2.96674.81228-4.03942 2.47828-1.65186-5.3305-5.34198-1.67244 2.47114-4.00904.82586z" transform="translate(-19 -265)"/>
    </symbol>
    <symbol id="profile" viewBox="0 0 24 24">
        <path d="M19 3h-4.18a3 3 0 0 0-5.64 0H5a2 2 0 0 0-2 2v14a2 2 0 0 0 2 2h14a2 2 0 0 0 2-2V5a2 2 0 0 0-2-2zm-7 0a1 1 0 1 1-1 1 1 1 0 0 1 1-1zm0 4a3 3 0 1 1-3 3 3 3 0 0 1 3-3zm6 12H6a4 4 0 0 1 4-4h4a4 4 0 0 1 4 4z"/>
    </symbol>
    <symbol id="close" viewBox="0 0 24 24">
        <path d="M13.41 12l4.88-4.89a1 1 0 0 0-1.4-1.41L12 10.59 7.11 5.7a1 1 0 0 0-1.4 1.41L10.59 12l-4.88 4.89a1 1 0 0 0 1.4 1.4L12 13.41l4.89 4.88a1 1 0 0 0 1.4-1.4z"/>
    </symbol>
    <symbol id="like" viewBox="0 0 24 24">
        <path d="M20.11 5.26a4.74 4.74 0 0 1 0 6.67l-7.36 7.44a1.07 1.07 0 0 1-1.5 0l-7.36-7.43a4.74 4.74 0 0 1 0-6.67 4.64 4.64 0 0 1 6.56-.06l.05.06L12 6.78l1.5-1.52a4.63 4.63 0 0 1 6.55-.06l.06.06z"/>
    </symbol>
    <symbol id="bookmark" viewBox="0 0 24 24">
        <path d="M17 3H7a2 2 0 0 0-2 2v14.68a.68.68 0 0 0 1.07.55L12 16l5.93 4.23a.68.68 0 0 0 1.07-.55V5a2 2 0 0 0-2-2z"/>
    </symbol>
    <symbol id="dashboard" viewBox="0 50 556 466">
        <path d="m337.92 89.845c-176.64-56.32-337.92 74.24-337.92 243.2 0 23.04 2.56 66.56 10.24 92.16 0 5.12 5.12 10.24 10.24 10.24h468.48c5.12 0 10.24-5.12 12.8-10.24 5.12-25.6 10.24-69.12 10.24-92.16 0-110.08-69.12-209.92-174.08-243.2zm-81.92 38.4c15.36 0 25.6 10.24 25.6 25.6s-10.24 25.6-25.6 25.6-25.6-10.24-25.6-25.6 10.24-25.6 25.6-25.6zm-179.2 230.4c-15.36 0-25.6-10.24-25.6-25.6s10.24-25.6 25.6-25.6 25.6 10.24 25.6 25.6-10.24 25.6-25.6 25.6zm71.68-133.12c-10.24 10.24-25.6 10.24-35.84 0s-10.24-28.16-2.56-38.4c10.24-10.24 25.6-10.24 35.84 0s10.24 28.16 2.56 38.4zm107.52 158.72c-28.16 0-53.76-25.6-46.08-51.2s46.08-102.4 46.08-102.4 38.4 76.8 46.08 102.4-17.92 51.2-46.08 51.2zm145.92-158.72c-10.24 10.24-25.6 10.24-35.84 0s-10.24-25.6 0-35.84 25.6-10.24 35.84 0c7.68 7.68 7.68 25.6 0 35.84zm33.28 133.12c-15.36 0-25.6-10.24-25.6-25.6s10.24-25.6 25.6-25.6 25.6 10.24 25.6 25.6-10.24 25.6-25.6 25.6z"/>
    </symbol>
    <symbol id="jobs-board" viewBox="0 0 24 24">
        <path d="M4 13h5.93A1.06 1.06 0 0 0 11 12V4.07A1.06 1.06 0 0 0 9.93 3H4a1 1 0 0 0-1 1.07V12a1 1 0 0 0 1 1zm0 8h5.93A1.06 1.06 0 0 0 11 20v-3.94a1.06 1.06 0 0 0-1.06-1H4a1 1 0 0 0-1 1V20a1 1 0 0 0 1 1zm10 0h5.89A1 1 0 0 0 21 20v-7.94A1 1 0 0 0 19.93 11H14a1.06 1.06 0 0 0-1 1.06V20a1.06 1.06 0 0 0 1 1zM13 4.07V8a1.06 1.06 0 0 0 1 1h5.89A1 1 0 0 0 21 8V4.07A1 1 0 0 0 19.93 3H14a1.06 1.06 0 0 0-1 1.07z"/>
    </symbol>
    <symbol id="roll-down" viewBox="0 0 24 24">
        <path d="M8.12 8.54L12 12.42l3.88-3.88a1 1 0 0 1 1.41 0 1 1 0 0 1 0 1.41L12 15.25 6.71 10a1 1 0 0 1 0-1.41 1 1 0 0 1 1.41-.05z"/>
    </symbol>
    <symbol id="magic-link" viewBox="0 0 24 24">
        <path d="M2.44 4.88a.5.5 0 0 0 .5.5.5.5 0 0 0 .5-.5v-1.44h1.44a.5.5 0 0 0 .5-.5.5.5 0 0 0-.5-.5h-1.44v-1.44a.5.5 0 0 0-.5-.5.5.5 0 0 0-.5.5v1.44h-1.44a.5.5 0 0 0-.5.5.5.5 0 0 0 .5.5h1.44zM23 20.56h-1.44v-1.44a.5.5 0 0 0-.5-.5.5.5 0 0 0-.5.5v1.44h-1.44a.5.5 0 0 0-.5.5.5.5 0 0 0 .5.5h1.44v1.44a.5.5 0 0 0 .5.5.5.5 0 0 0 .5-.5v-1.44h1.44a.5.5 0 0 0 .5-.5.5.5 0 0 0-.5-.5zM4.82 19.16h-.56v-.56a.5.5 0 0 0-.5-.5.51.51 0 0 0-.5.5v.56h-.56a.51.51 0 0 0-.5.5.5.5 0 0 0 .5.5h.56v.56a.5.5 0 0 0 .5.5.5.5 0 0 0 .5-.5v-.56h.56a.5.5 0 0 0 .5-.5.5.5 0 0 0-.5-.5zM19.27 16.36v-8.72a1.47 1.47 0 0 0-1.45-1.46h-11.64a1.46 1.46 0 0 0-1.44 1.46v8.72a1.47 1.47 0 0 0 1.45 1.46h11.63a1.47 1.47 0 0 0 1.45-1.46zm-1.46-7.36l-5.43 3.4a.5.5 0 0 1-.27.08.47.47 0 0 1-.25-.07l-5.66-3.41a.49.49 0 0 1-.2-.66.51.51 0 0 1 .69-.18l5.39 3.25 5.17-3.24a.48.48 0 0 1 .68.16.5.5 0 0 1-.12.67z"/>
    </symbol>
    <symbol id="job-location" viewBox="0 0 24 24">
        <path d="m17.31 6.06a6.31 6.31 0 0 0 -10.62 6.8l5.09 8a .2.2 0 0 0  .08.08.27.27 0 0 0  .37-.08l5.08-7.95a6.31 6.31 0 0 0 0-6.85zm-5.31 6.09a2.82 2.82 0 1 1 2.82-2.82 2.82 2.82 0 0 1 -2.82 2.82z"/>
    </symbol>
    <symbol id="job-remote" viewBox="0 0 24 24">
        <path d="m22.28 11.4-8.75-7.88a2.29 2.29 0 0 0 -3.06 0l-8.75 7.88a.43.43 0 0 0  .29.76h2.2v7.33a1.57 1.57 0 0 0 1.58 1.57h12.42a1.57 1.57 0 0 0 1.58-1.57v-7.33h2.21a.43.43 0 0 0  .28-.76zm-10.28-1.82a2.18 2.18 0 1 1 -2.18 2.18 2.18 2.18 0 0 1 2.18-2.18zm4.84 8.63h-9.68v-.72c0-1.62 3.23-2.49 4.84-2.49s4.84.89 4.84 2.51z"/>
    </symbol>
    <symbol id="job-skills" viewBox="0 0 24 24">
        <path d="m18.05 20.06-4.38-10.3a2.58 2.58 0 0 0 -.89-4.43v-1.68a.79.79 0 1 0 -1.58 0v1.68a2.55 2.55 0 0 0 -1.8 2.46 2.6 2.6 0 0 0  .91 2l-4.31 10.21a.8.8 0 0 0  .44 1.05 1.06 1.06 0 0 0  .28.06.79.79 0 0 0  .73-.49l1.55-3.69a9.78 9.78 0 0 0 2.24.45v.21a.79.79 0 0 0 1.58 0v-.21a9.78 9.78 0 0 0 2.18-.45l1.58 3.74a.8.8 0 0 0  .73.48.88.88 0 0 0  .29-.07.76.76 0 0 0  .43-1zm-6.05-5.17a.78.78 0 0 0 -.79.79v.15a8.08 8.08 0 0 1 -1.64-.33l2.18-5.12a2.09 2.09 0 0 0  .5 0l2.15 5.12a8.3 8.3 0 0 1 -1.62.31v-.13a.79.79 0 0 0 -.78-.79zm1-7.1a1 1 0 1 1 -1-1 1 1 0 0 1 1 1z"/>
    </symbol>
    <symbol id="job-salary" viewBox="0 0 111.55 68">
        <path d="m9.09 47h-4.89a1.4 1.4 0 0 1 -1.4-1.4v-41.41a1.39 1.39 0 0 1 1.4-1.39h85a1.4 1.4 0 0 1 1.4 1.39v41.45a1.4 1.4 0 0 1 -1.4 1.4h-80.11z" fill="#fff"/><path d="m18.17 56.12h-4.89a1.4 1.4 0 0 1 -1.4-1.4v-4.89h77.31a4.2 4.2 0 0 0 4.19-4.19v-33.76h4.89a1.4 1.4 0 0 1 1.4 1.4v41.44a1.4 1.4 0 0 1 -1.4 1.4z" fill="#fff"/><path d="m108.76 63.8a1.4 1.4 0 0 1 -1.4 1.4h-85a1.39 1.39 0 0 1 -1.36-1.4v-4.88h77.3a4.21 4.21 0 0 0 4.2-4.2v-33.72h4.89a1.4 1.4 0 0 1 1.4 1.39z" fill="#fff"/><g fill="#ff7c6e"><path d="m19.67 41.55c-2.69 0-4.3-1.66-4.3-4.45v-8.58c0-1.89-.55-2.07-1.19-2.27a1.41 1.41 0 0 1 -1-1.33 1.39 1.39 0 0 1 1-1.33c.64-.21 1.19-.39 1.19-2.28v-8.58c0-2.78 1.61-4.45 4.3-4.45a1.4 1.4 0 0 1 0 2.8c-1 0-1.5.26-1.5 1.65v8.58a5.49 5.49 0 0 1 -1 3.61 5.44 5.44 0 0 1 1 3.6v8.58c0 1.39.53 1.65 1.5 1.65a1.4 1.4 0 1 1 0 2.8z"/><path d="m73.72 41.55a1.4 1.4 0 0 1 0-2.8c1 0 1.49-.26 1.49-1.65v-8.58a5.44 5.44 0 0 1 1-3.6 5.49 5.49 0 0 1 -1-3.61v-8.58c0-1.39-.52-1.65-1.49-1.65a1.4 1.4 0 0 1 0-2.8c2.68 0 4.28 1.72 4.28 4.45v8.58c0 1.89.55 2.07 1.19 2.28a1.39 1.39 0 0 1 1 1.33 1.4 1.4 0 0 1 -1 1.33c-.64.2-1.19.38-1.19 2.27v8.58c0 2.79-1.6 4.45-4.28 4.45z"/><path d="m47.43 33.07v1.85a.73.73 0 0 1 -.73.73.73.73 0 0 1 -.73-.73v-1.85a9.92 9.92 0 0 1 -4.87-1.46 1 1 0 0 1 -.35-1.24 1 1 0 0 1 1.41-.4 8.65 8.65 0 0 0 3.84 1.16v-5.3c-2.52-.62-5.17-1.42-5.17-4.52 0-2.26 1.62-4.23 5.17-4.53v-1.87a.73.73 0 0 1  .73-.73.73.73 0 0 1  .73.73v1.85a9.81 9.81 0 0 1 3.87.95 1 1 0 0 1  .44 1.23 1 1 0 0 1 -1.35.5 7.93 7.93 0 0 0 -3-.77v5.33c2.56.64 5.3 1.4 5.3 4.53.01 2.28-1.72 4.24-5.29 4.54zm-1.43-9.41v-4.93c-2.07.27-3 1.27-3 2.49 0 1.41 1.32 2.01 3 2.44zm4.52 5c0-1.46-1.37-2-3.06-2.49v4.92c2.09-.19 3.03-1.17 3.03-2.41z"/><path d="m46.69 41.55a16.64 16.64 0 1 1 16.64-16.63 16.65 16.65 0 0 1 -16.64 16.63zm0-30.47a13.84 13.84 0 1 0 13.84 13.84 13.85 13.85 0 0 0 -13.84-13.84z"/></g><path d="m18.17 47h71a1.4 1.4 0 0 0 1.4-1.4v-41.41a1.4 1.4 0 0 0 -1.4-1.39h-84.97a1.39 1.39 0 0 0 -1.4 1.39v41.45a1.4 1.4 0 0 0 1.4 1.36h14z" fill="none"/><path d="m107.36 21h-4.89v33.72a4.21 4.21 0 0 1 -4.2 4.2h-77.27v4.88a1.39 1.39 0 0 0 1.39 1.4h85a1.4 1.4 0 0 0 1.4-1.4v-41.44a1.4 1.4 0 0 0 -1.43-1.36z" fill="none"/><path d="m107.36 18.17h-4.89v-4.89a4.21 4.21 0 0 0 -4.2-4.2h-4.89v-4.89a4.2 4.2 0 0 0 -4.19-4.19h-84.99a4.2 4.2 0 0 0 -4.2 4.19v41.45a4.2 4.2 0 0 0 4.2 4.19h4.89v4.89a4.2 4.2 0 0 0 4.19 4.2h4.89v4.88a4.2 4.2 0 0 0 4.19 4.2h85a4.2 4.2 0 0 0 4.19-4.2v-41.44a4.2 4.2 0 0 0 -4.19-4.19zm-98.27 28.83h-4.89a1.4 1.4 0 0 1 -1.4-1.4v-41.41a1.39 1.39 0 0 1 1.4-1.39h85a1.4 1.4 0 0 1 1.4 1.39v41.45a1.4 1.4 0 0 1 -1.4 1.4h-80.11zm9.08 9.08h-4.89a1.4 1.4 0 0 1 -1.4-1.4v-4.85h77.31a4.2 4.2 0 0 0 4.19-4.19v-33.76h4.89a1.4 1.4 0 0 1 1.4 1.4v41.44a1.4 1.4 0 0 1 -1.4 1.4h-80.1zm90.59 7.68a1.4 1.4 0 0 1 -1.4 1.4h-85a1.39 1.39 0 0 1 -1.36-1.36v-4.88h77.3a4.21 4.21 0 0 0 4.2-4.2v-33.72h4.89a1.4 1.4 0 0 1 1.4 1.39z" fill="#ff7c6e"/>
    </symbol>
    <symbol id="search" viewBox="0 0 30 30">
        <path d="m10.3 18.2c-2.1 0-4.1-.8-5.6-2.3s-2.3-3.5-2.3-5.6.8-4.1 2.3-5.6 3.5-2.3 5.6-2.3 4.1.8 5.6 2.3 2.3 3.5 2.3 5.6-.8 4.1-2.3 5.6c-1.5 1.4-3.5 2.3-5.6 2.3z" fill="#e6edf2"/><path d="m28 25.6-9.4-9.4-.6-.6s-.1-.1-.2-.1l-.7-.2c2.4-3.4 2.2-8.1-.9-11.1-1.7-1.7-3.9-2.5-6.1-2.5s-4.4.8-6.1 2.5c-3.3 3.3-3.3 8.8 0 12.1 1.7 1.7 3.9 2.5 6.1 2.5 1.8 0 3.5-.5 5-1.6l.2.7c0 .1.1.1.1.2l.6.6 9.4 9.4c.3.3.9.3 1.2 0l1.2-1.2c.6-.4.6-.9.2-1.3zm-22.7-10.3c-2.8-2.7-2.8-7.3 0-10 1.3-1.3 3.1-2.1 5-2.1s3.7.7 5 2.1c1.3 1.3 2.1 3.1 2.1 5s-.7 3.7-2.1 5c-1.3 1.3-3.1 2.1-5 2.1s-3.7-.7-5-2.1z" fill="#6e7f89"/>
    </symbol>
    <symbol id="recommend" viewBox="0 0 13 15">
        <path d="m26.0098039 196.637786v1.07781h3.4901961c1.3807119 0 2.5 1.119288 2.5 2.5v6.284404c0 1.380712-1.1192881 2.5-2.5 2.5h-8c-1.3807119 0-2.5-1.119288-2.5-2.5v-6.284404c0-1.380712 1.1192881-2.5 2.5-2.5h3.4901961v-1.07781c-.4501326-.212355-.7647059-.697331-.7647059-1.261639 0-.760025.5706175-1.376147 1.2745098-1.376147s1.2745098.616122 1.2745098 1.376147c0 .564308-.3145733 1.049284-.7647059 1.261639zm-3.0588235 6.031939c.6335031 0 1.1470588-.55451 1.1470588-1.238532 0-.684023-.5135557-1.238532-1.1470588-1.238532s-1.1470588.554509-1.1470588 1.238532c0 .684022.5135557 1.238532 1.1470588 1.238532zm5.3529412 0c .6335031 0 1.1470588-.55451 1.1470588-1.238532 0-.684023-.5135557-1.238532-1.1470588-1.238532s-1.1470589.554509-1.1470589 1.238532c0 .684022.5135558 1.238532 1.1470589 1.238532zm-5.674312 2.201835c-.4560149 0-.825688.369673-.825688.825688s.3696731.825688.825688.825688h5.9956827c.4560149 0 .8256881-.369673.8256881-.825688s-.3696732-.825688-.8256881-.825688z" fill-rule="evenodd" transform="translate(-19 -194)"/>
    </symbol>
    <symbol id="tick" viewBox="0 0 16 16">
        <path d="m398 12c1.104172 0 2.143224.2083312 3.117188.625.973963.4166688 1.822913.9869755 2.546874 1.7109375.723962.723962 1.294269 1.5729118 1.710938 2.546875s.625 2.0130153.625 3.1171875-.208331 2.1432243-.625 3.1171875-.986976 1.822913-1.710938 2.546875c-.723961.723962-1.572911 1.2942687-2.546874 1.7109375-.973964.4166688-2.013016.625-3.117188.625s-2.143224-.2083312-3.117188-.625c-.973963-.4166688-1.822913-.9869755-2.546874-1.7109375-.723962-.723962-1.294269-1.5729118-1.710938-2.546875s-.625-2.0130153-.625-3.1171875.208331-2.1432243.625-3.1171875.986976-1.822913 1.710938-2.546875c.723961-.723962 1.572911-1.2942687 2.546874-1.7109375.973964-.4166688 2.013016-.625 3.117188-.625zm0 15.015625c.968755 0 1.8776-.184894 2.726562-.5546875.848963-.3697935 1.588539-.8723927 2.21875-1.5078125.630212-.6354198 1.130207-1.3775999 1.5-2.2265625.369794-.8489626.554688-1.7578077.554688-2.7265625s-.184894-1.8775999-.554688-2.7265625c-.369793-.8489626-.869788-1.5885385-1.5-2.21875-.630211-.6302115-1.369787-1.1302065-2.21875-1.5-.848962-.3697935-1.757807-.5546875-2.726562-.5546875s-1.8776.184894-2.726562.5546875c-.848963.3697935-1.588539.8697885-2.21875 1.5-.630212.6302115-1.130207 1.3697874-1.5 2.21875-.369794.8489626-.554688 1.7578077-.554688 2.7265625s.184894 1.8775999.554688 2.7265625c.369793.8489626.869788 1.5911427 1.5 2.2265625.630211.6354198 1.369787 1.138019 2.21875 1.5078125.848962.3697935 1.757807.5546875 2.726562.5546875zm3.1875-9.9375c.104167-.1041672.223958-.15625.359375-.15625s.255208.0520828.359375.15625c.09375.0937505.140625.2109368.140625.3515625s-.046875.257812-.140625.3515625l-4.984375 5.015625c-.010417.0104167-.020833.0208333-.03125.03125s-.020833.0208333-.03125.03125c-.09375.1041672-.210937.15625-.351563.15625-.140625 0-.257812-.0520828-.351562-.15625l-2.484375-2.46875c-.09375-.0937505-.140625-.2109368-.140625-.3515625s.046875-.257812.140625-.3515625c.104167-.1041672.223958-.15625.359375-.15625s.255208.0520828.359375.15625l2.109375 2.109375z" fill-rule="evenodd" transform="translate(-390 -12)"/>
    </symbol>
    <symbol id="cutout-tick" viewBox="0 0 14 14">
        <g fill="none" fill-rule="evenodd"><path d="M7 1a6 6 0 1 1 0 12A6 6 0 0 1 7 1zm0-1a7 7 0 1 0 0 14A7 7 0 0 0 7 0z" fill="#FF7C6E" fill-rule="nonzero"/><g><circle fill="#FF7C6E" cx="7" cy="7" r="7"/><path fill="#FFF" fill-rule="nonzero" d="M11 5l-5 5-3-3 1-1 2 2 4-4z"/></g></g>
    </symbol>
    <symbol id="error" viewBox="0 0 24 24">
        <path d="M12 2.829l9.172 9.171-9.172 9.171-9.172-9.171 9.172-9.171zm0-2.829l-12 12 12 12 12-12-12-12zm-1 7h2v6h-2v-6zm1 10.25c-.69 0-1.25-.56-1.25-1.25s.56-1.25 1.25-1.25 1.25.56 1.25 1.25-.56 1.25-1.25 1.25z"/>
    </symbol>
    <symbol id="cross" viewBox="0 0 14 14">
        <g fill="#ADADAD" fill-rule="evenodd"><path d="M7 1a6 6 0 1 1 0 12A6 6 0 0 1 7 1zm0-1a7 7 0 1 0 0 14A7 7 0 0 0 7 0z" fill-rule="nonzero"/><path d="M10 9l-1 1-2-2-2 2-1-1 2-2-2-2 1-1 2 2 2-2 1 1-2 2z"/></g>
    </symbol>
    <symbol id="add-new" viewBox="0 0 16 16">
        <path d="m7.94482759 0c-4.3770115 0-7.94482759 3.56781609-7.94482759 7.94482759 0 4.37701151 3.54942529 7.94482761 7.94482759 7.94482761 4.37701151 0 7.94482761-3.5494253 7.94482761-7.94482761 0-4.3770115-3.5678161-7.94482759-7.94482761-7.94482759zm5.11264371 9.2137931h-3.8436782v3.8436782h-2.53793103v-3.8436782h-3.84367816v-2.53793103h3.84367816v-3.84367816h2.55632184v3.84367816h3.84367819v2.53793103z" />
    </symbol>
    <symbol id="add-new-2" viewBox="0 0 17 17">
        <path d="m16.028 6.428v3.672h-6.156v6.084h-3.528v-6.084h-6.156v-3.672h6.156v-6.12h3.528v6.12z"/>
    </symbol>
    <symbol id="upload" viewBox="0 0 17 18">
      <path d="m15.001659 8.45032 1.119319 1.119319-6.861705 6.861682c-1.38247 1.365096-3.388194 1.888958-5.261637 1.374252-1.873442-.514706-3.329982-1.989784-3.820955-3.869585-.490973-1.879802.058212-3.878742 1.437132-5.24031l.043531-.043531 7.521311-7.521302c1.528817-1.516476 3.997514-1.506472 5.51399.022344s1.506473 3.997514-.020071 5.511726l-.186741.18674-7.458935 7.439149c-.90904.90904-2.382885.90904-3.291925 0s-.90904-2.382885.000161-3.292086l6.909601-6.905643 1.118998 1.119639-6.909441 6.905483c-.290858.290858-.290858.762431 0 1.053288.290857.290858.76243.290858 1.054031-.000743l7.458935-7.439148.18827-.18826c.908133-.900804.914076-2.367238.013272-3.275371-.900804-.908134-2.367237-.914077-3.273098-.015536l-7.519039 7.519039-.047082.047059c-.980055.967738-1.369381 2.384818-1.021322 3.71744.348058 1.332622 1.380623 2.378328 2.708736 2.743212 1.328114.364883 2.750004-.006491 3.726509-.970702z"/>
    </symbol>
    <symbol id="applications" viewBox="0 0 14 15">
        <g fill-rule="evenodd" transform=""><rect height="15" rx="2" width="14"/><g fill="#fff" fill-rule="nonzero"><path d="m3 4v-1h8v1z"/><path d="m3 8v-1h8v1z"/><path d="m3 12v-1h8v1z"/></g></g>
    </symbol>
    <symbol id="views" viewBox="0 0 18 14">
        <path d="m4.12876646 9.29609946c-1.16591907 0-2.11462702.94870794-2.11462702 2.11506584 0 .3633349.29444174.6582155.65821551.6582155s.6582155-.2948806.6582155-.6582155c0-.4405656.35806924-.7986348.79819601-.7986348.36377376 0 .6582155-.2948806.6582155-.65821553 0-.36333496-.29444174-.65821551-.6582155-.65821551zm9.74290594 0c-1.1659191 0-2.1141882.94870794-2.1141882 2.11506584 0 .3633349.2948805.6582155.6582155.6582155.3633349 0 .6582155-.2948806.6582155-.6582155 0-.4405656.3576304-.7986348.7977572-.7986348.3633349 0 .6582155-.2948806.6582155-.65821553 0-.36333496-.2948806-.65821551-.6582155-.65821551zm3.7961482.49497806-1.1834715-3.7105802c-.0057045-.02369576-.0127255-.04739152-.0215017-.07064847-.3637738-.9851292-1.1571429-1.72935153-2.1168211-2.06548025l-.1197952-.37474403c-.0061433-.02237932-.0127255-.04475865-.0210629-.06626036-.333057-.89912238-1.2010239-1.50336421-2.1598245-1.50336421-1.2694783 0-2.30199899 1.03295953-2.30199899 2.30199902v.99522185c-.23081424-.08995612-.48005851-.14392979-.74246709-.14392979s-.51165285.05397367-.7429059.14392979v-.99522185c0-1.2694783-1.03252072-2.30199902-2.30199902-2.30199902-.95967821 0-1.82764505.60424183-2.15982448 1.50380302-.00702097.01930766-.01316431.03861531-.01843003.05836178l-.12198928.38264261c-.96011701.33612872-1.75304729 1.08035105-2.11682106 2.06548025-.00877621.02281814-.01579717.04563628-.02150171.06933204l-1.18259385 3.70663091c-.21501707.49936619-.33481229 1.04831789-.33481229 1.62535349 0 2.276548 1.85221843 4.1283276 4.12876646 4.1283276 1.66221355 0 3.09405168-.9890785 3.74831789-2.4068747.32384203.2115066.70867869.3374452 1.12379327.3374452s.79995124-.1254998 1.12335448-.3374452c.6542662 1.4177962 2.0861043 2.4068747 3.7474403 2.4068747 2.276548 0 4.1283276-1.8522184 4.1283276-4.1283276 0-.5752804-.1189176-1.1224768-.3321794-1.62052658zm-13.53905414 4.43242318c-1.55075573 0-2.81233545-1.2615797-2.81233545-2.8118966 0-1.55075573 1.26157972-2.81233545 2.81233545-2.81233545 1.55075572 0 2.81277425 1.26157972 2.81277425 2.81233545 0 1.5503169-1.26201853 2.8118966-2.81277425 2.8118966zm4.87167235-2.0698683c-.40984885 0-.7429059-.3330571-.7429059-.7420283 0-.4098489.33305705-.7429059.7429059-.7429059.40941004 0 .74246709.3334959.74246709.7429059 0 .4089712-.33261824.7420283-.74246709.7420283zm4.87123359 2.0698683c-1.550317 0-2.8118967-1.2615797-2.8118967-2.8118966 0-1.55075573 1.2615797-2.81233545 2.8118967-2.81233545 1.5503169 0 2.8118966 1.26157972 2.8118966 2.81233545 0 1.5503169-1.2615797 2.8118966-2.8118966 2.8118966z" fill="#6e7f89" transform="translate(0 -2)"/>
    </symbol>
    <symbol id="high-match" viewBox="0 0 18 18">
        <path d="m0 9a9 9 0 1 0 9-9v9z"/><path d="m9 0a9 9 0 0 0 -9 9h9z" fill="#f4f5f8"/>
    </symbol>
    <symbol id="settings" viewBox="0 0 17 17">
        <path d="m7.29203869 0-.5375744 2.47284226c-.45041946.1301943-.88130247.30899726-1.28385417.53125l-2.125-1.36607143-1.70758929 1.70758929 1.36607143 2.125c-.22225274.4025517-.4010557.83343451-.53125 1.28385417l-2.47284226.5375744v2.41592262l2.47284226.53757439c.1301943.4504197.30899726.8813025.53125 1.2838542l-1.36607143 2.125 1.70758929 1.7075893 2.125-1.3660715c.4025517.2222528.83343471.4010557 1.28385417.53125l.5375744 2.4728423h2.41592262l.53757439-2.4728423c.4504197-.1301943.8813025-.3089972 1.2838542-.53125l2.125 1.3660715 1.7075893-1.7075893-1.3660715-2.125c.2222528-.4025517.4010557-.8334345.53125-1.2838542l2.4728423-.53757439v-2.41592262l-2.4728423-.5375744c-.1301943-.45041966-.3089972-.88130247-.53125-1.28385417l1.3660715-2.125-1.7075893-1.70758929-2.125 1.36607143c-.4025517-.22225274-.8334345-.4010557-1.2838542-.53125l-.53757439-2.47284226zm1.20796131 4.85714286c2.0118943 0 3.6428571 1.63096279 3.6428571 3.64285714 0 2.0118945-1.6309628 3.6428571-3.6428571 3.6428571-2.01189394 0-3.64285714-1.6309628-3.64285714-3.6428571 0-2.01189435 1.6309632-3.64285714 3.64285714-3.64285714z"/>
    </symbol>
    <symbol id="plus" viewBox="0 0 24 24">
        <path d="M24 9h-9v-9h-6v9h-9v6h9v9h6v-9h9z" fill="#ff7c6e"/>
    </symbol>
    <symbol id="minus" viewBox="0 0 24 24">
        <path d="M24 9 h-9 h-6 h-9 v6 h9 h6 h9 z" fill="#ff7c6e"/>
    </symbol>
    <symbol id="email" viewBox="0 0 15 15">
        <text fill-rule="evenodd" font-family="Montserrat-SemiBold, Montserrat" font-size="16" font-weight="500" transform="translate(-1 -53)"><tspan x="1" y="65">@</tspan></text>
    </symbol>
    <symbol id="search-new" viewBox="0 0 16 17">
        <path d="M15 14.35l-3.13-3.61a6.49 6.49 0 1 0-5.31 2.77 6.36 6.36 0 0 0 3.07-.78l3.1 3.58a1.513 1.513 0 1 0 2.27-2v.04zM1.32 7a5.2 5.2 0 1 1 10.4 0 5.2 5.2 0 0 1-10.4 0z" />
    </symbol>
    <symbol id="edit" viewBox="0 0 18 18">
        <path d="M14.8 0l-1.2 1.2 3.2 3.2L18 3.2 14.8 0zm-2 2L1 13.8 4.2 17 16 5.2 12.8 2zM.363 14.762L0 18l3.238-.362-2.875-2.876z" fill="#ADADAD" fill-rule="nonzero"/>
    </symbol>
    <symbol id="circle" viewBox="0 0 10 10">
        <circle cx="5" cy="5" r="5"/>
    </symbol>
    <symbol id="arrow-right" viewBox="0 0 14 12">
        <path d="M13.797 5.411L9.297.345C9.044.075 8.503-.02 8.207.28c-.295.299-.293.867.004 1.164l3.297 3.716H.75c-.414 0-.75.359-.75.8 0 .442.336.8.75.8h10.758L8.21 10.478c-.297.297-.317.886-.004 1.164.29.257.827.268 1.09-.064l4.5-5.067c.191-.204.34-.742 0-1.1z"/>
    </symbol>
    <symbol id="arrow-left" viewBox="0 0 14 12">
        <path d="M.203 6.515l4.5 5.067c.253.27.794.363 1.09.064.295-.3.293-.867-.004-1.164L2.492 6.765H13.25c.414 0 .75-.358.75-.8 0-.442-.336-.8-.75-.8H2.492L5.79 1.448c.297-.297.317-.886.004-1.164-.29-.256-.827-.268-1.09.064l-4.5 5.067c-.191.205-.34.743 0 1.1z"/>
    </symbol>
    <symbol id="info" viewBox="0 0 100 100">
        <path d="M50 5a45 45 0 1 0 0 90 45 45 0 0 0 0-90zm6 74H43V39h13v40zm-7-45c-4 0-6-3-6-7s2-6 6-6c5 0 7 3 7 6 0 4-2 7-7 7z"/>
    </symbol>
    <symbol id="contributors" viewBox="0 0 18 17">
        <g fill="#adadad"><path d="m5.44 8.09565217h.34c1.94 0 3.5-1.60289855 3.5-3.55072463v-.9942029c0-1.96811594-1.58-3.55072464-3.5-3.55072464h-.34c-1.94 0-3.5 1.60289855-3.5 3.55072464v.9942029c0 1.96811594 1.56 3.55072463 3.5 3.55072463z"/><path d="m13.6 7.54782609h.24c1.46 0 2.66-1.19710145 2.66-2.69855073v-.54782608c0-1.46086957-1.2-2.67826087-2.66-2.67826087h-.24c-1.46 0-2.66 1.19710145-2.66 2.69855072v.54782609c.02 1.46086956 1.2 2.67826087 2.66 2.67826087z"/><path d="m6.92 9.25217391h-2.54c-2.4 0-4.36 1.98840579-4.36 4.42318839v.284058c0 1.257971 1 2.2927536 2.26 2.2927536h6.76c1.24 0 2.26-1.0144927 2.26-2.2927536v-.284058c-.02-2.4347826-1.98-4.42318839-4.38-4.42318839z"/><path d="m14 8.48115942h-.68c-.8 0-1.54.24347826-2.18.66956522-.22.14202898-.26.46666666-.08.66956522.92 1.01449274 1.48 2.35362314 1.48 3.83478264v.0405797c0 .1826087.14.3449275.34.3449275h3.76c.74 0 1.34-.6086956 1.34-1.3594203v-.1623188c0-2.2318841-1.78-4.03768118-3.98-4.03768118z"/></g>
    </symbol>
    <symbol id="level1" viewBox="0 0 18 18">
        <g><path fill="#adadad" d="m0 9.9h5.4v8.1h-5.4z"/><path fill="#dedede" d="m6.3 3.6h5.4v14.4h-5.4z"/><path fill="#dedede" d="m12.6 0h5.4v18h-5.4z"/></g>
    </symbol>
    <symbol id="level2" viewBox="0 0 18 18">
        <g><path fill="#adadad" d="m0 9.9h5.4v8.1h-5.4z"/><path fill="#adadad" d="m6.3 3.6h5.4v14.4h-5.4z"/><path fill="#dedede" d="m12.6 0h5.4v18h-5.4z"/></g>
    </symbol>
    <symbol id="level3" viewBox="0 0 18 18">
        <g fill="#adadad" fill-rule="evenodd"><path d="m0 9.9h5.4v8.1h-5.4z"/><path d="m6.3 3.6h5.4v14.4h-5.4z"/><path d="m12.6 0h5.4v18h-5.4z"/></g>
    </symbol>
    <symbol id="pr" viewBox="0 0 15 18">
        <g><path d="m4.5 3.28327526c0-1.31080139-1.02531646-2.38327526-2.25-2.38327526-1.25316456 0-2.25 1.07247387-2.25 2.38327526 0 .95331011.54113924 1.78745645 1.33860759 2.14494774v8.0733449c-.76898734.3574913-1.33860759 1.1916377-1.33860759 2.1449478 0 1.3108014 1.02531646 2.3534843 2.25 2.3534843 1.25316456 0 2.25-1.0724739 2.25-2.3534843 0-.9533101-.54113924-1.7874565-1.33860759-2.1449478v-8.0733449c.79746835-.38728223 1.33860759-1.19163763 1.33860759-2.14494774zm-1.13924051 12.36324044c0 .6554007-.51265822 1.1618467-1.11075949 1.1618467-.62658228 0-1.11075949-.536237-1.11075949-1.1618467 0-.6554007.51265822-1.1618467 1.11075949-1.1618467.59810127-.029791 1.11075949.506446 1.11075949 1.1618467zm-1.11075949-11.20139375c-.62658228 0-1.11075949-.53623693-1.11075949-1.16184669 0-.6554007.51265822-1.16184669 1.11075949-1.16184669.59810127-.02979094 1.11075949.50644599 1.11075949 1.16184669 0 .62560976-.51265822 1.16184669-1.11075949 1.16184669z"/><path d="m12.9812137 13.4003407v-8.12606472c0-1.87052811-1.5408971-3.40374787-3.42079157-3.40374787h-.83208443v-1.87052811l-3.3283377 2.88245315 3.3283377 2.85178876v-1.87052811h.83208443c.80126647 0 1.41762527.6439523 1.41762527 1.41056218v8.09540032c-.8320844.3679728-1.44844321 1.2265758-1.44844321 2.2078365 0 1.3492334 1.10944591 2.4224872 2.43461741 2.4224872 1.3559894 0 2.4346174-1.1039182 2.4346174-2.4224872.0308179-.9505963-.554723-1.8091993-1.4176253-2.1771721zm-.9861742 3.4037479c-.6779947 0-1.2018997-.5519591-1.2018997-1.1959114 0-.6746167.5547229-1.1959114 1.2018997-1.1959114.6779947 0 1.2018997.5519591 1.2018997 1.1959114s-.5547229 1.1959114-1.2018997 1.1959114z"/></g>
    </symbol>
    <symbol id="issue-status">
        <g transform="translate(-120 -2048)" xmlns="http://www.w3.org/2000/svg">
            <polygon points="120 2048 132 2048 138 2054 132 2060 120 2060"/>
        </g>
    </symbol>

    <!-- Upvote -->
    <symbol id="upvote-circle" viewBox="0 0 60 60">
        <circle cx="30" cy="30" r="30"/>
        <path d="M28.3,25.1a1.87,1.87,0,0,0,1,2.5,2.2,2.2,0,0,0,.7.15V24A1.81,1.81,0,0,0,28.3,25.1Z"/>
        <path d="M31.8,26.6a2,2,0,0,0-1-2.5A2.06,2.06,0,0,0,30,24v3.8A1.82,1.82,0,0,0,31.8,26.6Z"/>
    </symbol>

    <symbol id="upvote-rocket" viewBox="0 0 21.54 37.69">
        <path d="M18.84,21.8c.53-5.71-1.4-11-3.13-14.54A31.35,31.35,0,0,0,11.62.91L11.3.59,11,.91a31.62,31.62,0,0,0-4.1,6.35C5.16,10.82,3.22,16.09,3.76,21.8L.53,25.14v10l4.09-4,2.8.1c.43.54.86,1.19,1.29,1.73v2.58l2.59,2.69,2.58-2.69V33c.43-.54.86-1.19,1.3-1.73l2.8-.1,4.09,4v-10Zm-6.79-4.95a2.23,2.23,0,0,1-.75.15,2.18,2.18,0,0,1-.75-.15,2,2,0,0,1-1.08-2.7,2,2,0,0,1,3.66,0A2,2,0,0,1,12.05,16.85Z" transform="translate(-0.53 -0.59)"/>
    </symbol>

    <!-- Loaders-->
    <symbol id="job-heart" viewBox="20 20 60 60">
        <circle cx="50" cy="50" fill="#7eb5bd" r="30"/><path d="m49.9 60.5-9.4-9.4c-2.7-2.7-2.7-7 0-9.6 1.3-1.3 3-2 4.8-2s3.4.7 4.7 1.9c1.3-1.2 2.9-1.9 4.7-1.9s3.5.7 4.8 2c2.7 2.7 2.7 7 0 9.6 0 0-3.1 3.1-9.4 9.4 0 0-.1.1-.1.1s-.1-.1-.1-.1z"/>
    </symbol>
    <symbol id="job-benefits" viewBox="0 0 65 60">
        <g fill="none" fill-rule="evenodd"><path fill="#D4F4F2" fill-rule="nonzero" d="M13 2h39l12 20-31 36L1 22z"/><g fill="#6E7F89" fill-rule="nonzero"><path d="M64 23H1 0v-1L12 1h41l12 21v1h-1zM3 21h59L51 3H14L3 21z"/><path d="M32 59L0 23v-2h2l28 33-11-32-7-20 1-1 1 1 6 18L32 1h1l12 18 6-18h1l1 1-7 20-11 31 28-32a1 1 0 0 1 1 0v2L34 58l-1 1h-1zm12-37L33 4 22 22l11 33 11-33z"/></g><path d="M0-2h64v64H0z"/></g>
    </symbol>
    <symbol id="job-contract" viewBox="0 0 54 56">
        <g fill="none" fill-rule="evenodd"><g fill-rule="nonzero"><path d="M7 31v-6l-1-2-4-3v-1l4-8 2-1 4 2h2l6-3 1-2V3l1-1h10l1 1v4l1 2 5 3h3l4-2 1 1 5 8a1 1 0 0 1 0 1l-4 3-2 2v6l2 2 3 2 1 2-5 8-1 1-4-3h-3l-5 4-1 2v4l-1 1h-9l-2-1v-4l-1-2-5-4h-3l-4 3-1-1-5-8v-2l4-2 1-2zm20-14a11 11 0 1 0 0 22 11 11 0 0 0 0-22z" fill="#A1C6D1"/><path d="M8 31l-1 3-4 2a527 527 0 0 0 5 9l4-3h3l6 4 1 3a172 172 0 0 1 1 4h9v-4l1-3 6-3h3l4 2 1-1 4-7-4-3-2-3v-6l2-3 2-1 2-2-5-8-1 1a68 68 0 0 0-2 1h-4l-5-3c-2 0-2-2-2-3a154 154 0 0 1 0-4H22v4c0 2-1 3-2 3a152 152 0 0 0-5 3h-4a52 52 0 0 0-4-2 3971 3971 0 0 0-3 9l3 2 1 3v6zm39-20zm-1 34zm4-22l-2 1v8l4 2c1 1 2 2 1 4l-5 8-1 1h-2l-4-3h-1a169 169 0 0 1-6 5v4c0 2-1 2-2 2h-9c-2 0-3 0-3-2a55 55 0 0 1 0-4v-1l-6-4h-1l-4 2H6l-5-9c-1-1-1-2 1-3l3-2 1-1v-6-1a63 63 0 0 1-5-3l-1-2h1v-1l4-8 4-1 3 2 2 1 2-2a153 153 0 0 1 4-3V3c0-2 1-3 2-3h10c1 0 2 1 2 3a53 53 0 0 1 0 4l1 1a166 166 0 0 1 6 3 31 31 0 0 1 2-1h1l1-1 3 1 5 8a2 2 0 0 1-1 3l-2 2z" fill="#6E7F89"/><path d="M36 19c2 2 3 6 3 9a12 12 0 1 1-3-9zm-9-3zm0 2a10 10 0 1 0 0 20 10 10 0 0 0 0-20z" fill="#6E7F89"/></g><path d="M-3-2h60v60H-3z"/></g>
    </symbol>
    <symbol id="job-tech" viewBox="0 0 30 35">
        <g fill="none" fill-rule="evenodd"><path d="M20 3l2 1 6 1h2v11a14 14 0 0 1-6 12h-1l-8 7-3-3-5-4-1-1a14 14 0 0 1-6-11V5h2l8-2 5-3 5 3z" fill="#FDAE76"/><path d="M29 5h-1a25 25 0 0 1-8-1l-5-3-4 3-9 1-1 1v12c0 4 2 7 5 9a486 486 0 0 1 7 5l2 2 8-6v-1l4-3 2-8V5zM15 34zm5-31l2 1 6 1h2v11a15 15 0 0 1-6 12 46299 46299 0 0 1-9 7l-3-2a192 192 0 0 0-6-5 14 14 0 0 1-6-12V5h2l8-2 5-3 5 3z" fill="#6E7F89" fill-rule="nonzero"/><path fill="#F7F3F0" fill-rule="nonzero" d="M15 7l3 6 7 1-5 4 1 7-6-3-6 3 1-7-5-4 7-1z"/><path d="M15 7l-3 6-6 1 4 4h1l-1 6 5-3 5 3-1-6 5-4-6-1-3-6zm-3 5l3-6 3 6 7 1v1l-5 4 1 7-6-3-6 3 1-7-5-4v-1l7-1z" fill="#6E7F89" fill-rule="nonzero"/></g>
    </symbol>
    <symbol id="job-money" viewBox="0 0 25 40">
        <g fill-rule="nonzero" fill="none"><path fill="#F7F3F0" d="M12 40l5-3 5-5 2-7-2-4-5-5-2-3V8l2-3-1-3-5-1-5 1-1 3 2 2v4l-1 4-4 3-1 6v7l2 4 5 3z"/><path d="M11 32l-2-1v-2h1l2 1 1-1-1-1c-2-1-4-1-4-3s1-3 3-3l1-1 1 1 1 1 1 1h-2-1l-2 1 2 1c1 0 3 1 3 3l-2 3-1 1-1-1z" fill="#ADADAD"/><path d="M8 12l-1-1-1-1h2L7 8l1-1h1a24 24 0 0 1 1 3h4l1-1 2-4V4l-1-1H7l1 1h5l1 1v1L7 5 5 3l2-2h10l2 2v3l-1 2h1v1l-2 1 1 1v1l-1 1v-1l3 4c2 2 5 6 5 11 0 7-6 12-13 12A13 13 0 0 1 0 26c0-4 3-8 5-11l3-3zm2 0l-3 4c-3 3-5 6-5 10v1c0 6 5 11 10 11 6 0 11-5 11-11 0-4-3-7-5-10l-3-5-1-1a7 7 0 0 1-4 1z" fill="#6E7F89"/></g>
    </symbol>
    <!-- Only used on company edit/profile -->
    <symbol id="play" viewBox="0 0 124.512 124.512">
        <path d="M113.956 57.006l-97.4-56.2c-4-2.3-9 .6-9 5.2v112.5c0 4.6 5 7.5 9 5.2l97.4-56.2c4-2.401 4-8.2 0-10.5z"/>
    </symbol>
    <symbol id="delete" viewBox="0 0 100 100">
        <path d="M19.125 88.598a6.91 6.91 0 0 0 6.912 6.912h47.932a6.905 6.905 0 0 0 6.906-6.912V25.69h-61.75v62.908zm50.666-75.972v-6.81c0-.732-.594-1.326-1.327-1.326H31.536c-.733 0-1.327.594-1.327 1.326v6.81H14.605v6.635h70.789v-6.635H69.791z"/>
    </symbol>
    <symbol id="company" fill-rule="evenodd" clip-rule="evenodd" image-rendering="optimizeQuality" shape-rendering="geometricPrecision" text-rendering="geometricPrecision" viewBox="0 0 846.66 1058.325"><path d="M102.48 126.78l306.51-60.64v652.64h28.67V194.01l306.51 48.82v475.95h38.55v61.74H63.93v-61.74h38.55v-592zm545.76 307.56h59.53v61.74h-59.53v-61.74zm-87.09 0h59.53v61.74h-59.53v-61.74zm-87.09 0h59.53v61.74h-59.53v-61.74zm174.18-99.77h59.53v61.74h-59.53v-61.74zm-87.09 0h59.53v61.74h-59.53v-61.74zm-87.09 0h59.53v61.74h-59.53v-61.74zM137.28 479.85h236.91v34.3H137.28v-34.3zm0-88.88h236.91v34.3H137.28v-34.3zm0-88.88h236.91v34.3H137.28v-34.3zm0-88.88h236.91v34.3H137.28v-34.3z"/>
    </symbol>
    <symbol id="people" viewBox="0 0 18 17">
        <g fill="#ADADAD" fill-rule="nonzero"><path d="M5.44 8.096h.34c1.94 0 3.5-1.603 3.5-3.551V3.55C9.28 1.583 7.7 0 5.78 0h-.34c-1.94 0-3.5 1.603-3.5 3.55v.995c0 1.968 1.56 3.55 3.5 3.55zM13.6 7.548h.24c1.46 0 2.66-1.197 2.66-2.699v-.548c0-1.46-1.2-2.678-2.66-2.678h-.24c-1.46 0-2.66 1.197-2.66 2.699v.548c.02 1.46 1.2 2.678 2.66 2.678zM6.92 9.252H4.38c-2.4 0-4.36 1.989-4.36 4.423v.284c0 1.258 1 2.293 2.26 2.293h6.76c1.24 0 2.26-1.014 2.26-2.293v-.284c-.02-2.434-1.98-4.423-4.38-4.423zM14 8.481h-.68a3.9 3.9 0 0 0-2.18.67.45.45 0 0 0-.08.67 5.678 5.678 0 0 1 1.48 3.834v.04c0 .183.14.346.34.346h3.76c.74 0 1.34-.61 1.34-1.36v-.162c0-2.232-1.78-4.038-3.98-4.038z"/></g>
    </symbol>
    <symbol id="location" viewbox="0 0 13 16">
        <g fill="none" fill-rule="evenodd"><path d="M-2-1h18v18H-2z"/><path d="M11.21 2.739C10.059.989 8.219 0 6.158 0c-2.06 0-3.9.989-5.054 2.739C-.05 4.463-.32 6.643.392 8.57c.196.507.49 1.04.883 1.52L6.157 16l4.857-5.908c.393-.482.712-.989.884-1.521.736-1.928.466-4.108-.687-5.832zM6.158 8.368c-1.374 0-2.502-1.141-2.502-2.536s1.128-2.536 2.502-2.536c1.374 0 2.502 1.141 2.502 2.536S7.531 8.368 6.157 8.368z" fill="#ADADAD" fill-rule="nonzero"/></g>
    </symbol>
    <symbol id="job-sponsorship" viewBox="0 0 378 512">
        <path d="M188.969 107.972C138.945 107.972 98.2459 148.668 98.2459 198.691C98.2459 248.719 138.945 289.414 188.969 289.414C238.992 289.414 279.687 248.719 279.687 198.691C279.687 148.668 238.992 107.972 188.969 107.972Z" fill="#FF7C6E"/>
        <path d="M377.933 260.089L350.421 198.691L377.933 137.293L319.589 103.789L305.757 37.9452L238.859 45.1366L188.968 0L139.074 45.1366L72.1795 37.9491L58.3475 103.793L0 137.293L27.5117 198.691L0 260.089L58.3475 293.593L65.8397 329.265L3.55859 461.605L68.5585 462.456L110.644 511.999L171.863 381.909L188.968 397.382L206.07 381.909L267.292 511.999L309.374 462.456L374.374 461.605L312.093 329.265L319.589 293.593L377.933 260.089ZM188.968 319.41C122.402 319.41 68.2499 265.257 68.2499 198.691C68.2499 132.125 122.402 77.9725 188.968 77.9725C255.531 77.9725 309.687 132.129 309.687 198.691C309.687 265.257 255.531 319.41 188.968 319.41V319.41Z" fill="#FF7C6E"/>
    </symbol>
</svg>
