<?xml version="1.0" encoding="UTF-8" standalone="no"?>
<svg>
    <!-- badges -->
    <symbol id="rating-1" viewBox="0 0 24 24">
        <path d="m12 .36a11.64 11.64 0 1 1 -11.64 11.64 11.64 11.64 0 0 1 11.64-11.64z" fill="#d4eded"/><path d="m12 24a12 12 0 1 1 12-12 12 12 0 0 1 -12 12zm0-23.28a11.28 11.28 0 1 0 11.28 11.28 11.29 11.29 0 0 0 -11.28-11.28z" fill="#6f7f88"/><path d="m13.22 7.76v9.09h-1.79v-7.19l-1.72.48-.44-1.54 2.39-.84z" fill="#6f7f88"/>
    </symbol>
    <symbol id="rating-2" viewBox="0 0 24 24">
        <circle cx="12" cy="12" fill="#d4eded" r="11.64"/><path d="m12 24a12 12 0 1 1 12-12 12 12 0 0 1 -12 12zm0-23.28a11.28 11.28 0 1 0 11.28 11.28 11.29 11.29 0 0 0 -11.28-11.28z" fill="#6f7f88"/><path d="m9.12 15.51 3.1-3.19a3 3 0 0 0 1-1.82 1.11 1.11 0 0 0 -1.18-1.18 1.64 1.64 0 0 0 -1.52 1.06l-1.47-.88a3.2 3.2 0 0 1 3-1.92 2.84 2.84 0 0 1 3 2.86 4.23 4.23 0 0 1 -1.49 2.9l-1.78 1.78h3.41v1.73h-6.07z" fill="#6f7f88"/>
    </symbol>
    <symbol id="rating-3" viewBox="0 0 24 24">
        <circle cx="12" cy="12" fill="#d4eded" r="11.64"/><path d="m12 24a12 12 0 1 1 12-12 12 12 0 0 1 -12 12zm0-23.28a11.28 11.28 0 1 0 11.28 11.28 11.29 11.29 0 0 0 -11.28-11.28z" fill="#6f7f88"/><path d="m15.07 14.05a3 3 0 0 1 -3.25 3 3.17 3.17 0 0 1 -3.11-1.92l1.53-.88a1.49 1.49 0 0 0 1.58 1c .94 0 1.46-.49 1.46-1.23s-.52-1.24-1.46-1.24h-.39l-.68-1 1.79-2.33h-3.54v-1.69h5.71v1.48l-1.71 2.21a2.69 2.69 0 0 1 2.07 2.6z" fill="#6f7f88"/>
    </symbol>
    <symbol id="rating-4" viewBox="0 0 24 24">
        <path d="m12 .36a11.64 11.64 0 1 1 -11.64 11.64 11.64 11.64 0 0 1 11.64-11.64z" fill="#d4eded"/><path d="m12 24a12 12 0 1 1 12-12 12 12 0 0 1 -12 12zm0-23.28a11.28 11.28 0 1 0 11.28 11.28 11.29 11.29 0 0 0 -11.28-11.28z" fill="#6f7f88"/><path d="m15.18 15.3h-1v1.55h-1.78v-1.55h-4.3v-1.66l3-5.88h1.92l-3 5.88h2.38v-2.15h1.81v2.15h1z" fill="#6f7f88"/>
    </symbol>
    <symbol id="rating-5" viewBox="0 0 24 24">
        <path d="m12 .36a11.64 11.64 0 1 1 -11.64 11.64 11.64 11.64 0 0 1 11.64-11.64z" fill="#d4eded"/><path d="m12 24a12 12 0 1 1 12-12 12 12 0 0 1 -12 12zm0-23.28a11.28 11.28 0 1 0 11.28 11.28 11.29 11.29 0 0 0 -11.28-11.28z" fill="#6f7f88"/><path d="m15.15 14.05a3 3 0 0 1 -3.25 3 3.18 3.18 0 0 1 -3.17-2l1.53-.89a1.52 1.52 0 0 0 1.64 1.09c.94 0 1.45-.49 1.45-1.23a1.24 1.24 0 0 0 -1.35-1.21h-2.8l.36-5.05h5.16v1.68h-3.5l-.11 1.63h.89a2.89 2.89 0 0 1 3.15 2.98z" fill="#6f7f88"/>
    </symbol>

    <!-- icons -->
    <symbol id="twitter" viewBox="0 0 24 24">
        <path d="M 24 4.300781 C 23.101563 4.699219 22.199219 5 21.199219 5.101563 C 22.199219 4.5 23 3.5 23.398438 2.398438 C 22.398438 3 21.398438 3.398438 20.300781 3.601563 C 19.300781 2.601563 18 2 16.601563 2 C 13.898438 2 11.699219 4.199219 11.699219 6.898438 C 11.699219 7.300781 11.699219 7.699219 11.800781 8 C 7.699219 7.800781 4.101563 5.898438 1.699219 2.898438 C 1.199219 3.601563 1 4.5 1 5.398438 C 1 7.101563 1.898438 8.601563 3.199219 9.5 C 2.398438 9.398438 1.601563 9.199219 1 8.898438 C 1 8.898438 1 8.898438 1 9 C 1 11.398438 2.699219 13.398438 4.898438 13.800781 C 4.5 13.898438 4.101563 14 3.601563 14 C 3.300781 14 3 14 2.699219 13.898438 C 3.300781 15.898438 5.101563 17.300781 7.300781 17.300781 C 5.601563 18.601563 3.5 19.398438 1.199219 19.398438 C 0.800781 19.398438 0.398438 19.398438 0 19.300781 C 2.199219 20.699219 4.800781 21.5 7.5 21.5 C 16.601563 21.5 21.5 14 21.5 7.5 C 21.5 7.300781 21.5 7.101563 21.5 6.898438 C 22.5 6.199219 23.300781 5.300781 24 4.300781"/>
    </symbol>
    <symbol id="twitter-circle" viewBox="0 0 400 400">
        <path d="m400 200c0 110.5-89.5 200-200 200s-200-89.5-200-200 89.5-200 200-200 200 89.5 200 200zm-236.6 105.5c88.7 0 137.2-73.5 137.2-137.2 0-2.1 0-4.2-0.1-6.2 9.4-6.8 17.6-15.3 24.1-25-8.6 3.8-17.9 6.4-27.7 7.6 10-6 17.6-15.4 21.2-26.7-9.3 5.5-19.6 9.5-30.6 11.7-8.8-9.4-21.3-15.2-35.2-15.2-26.6 0-48.2 21.6-48.2 48.2 0 3.8 0.4 7.5 1.3 11-40.1-2-75.6-21.2-99.4-50.4-4.1 7.1-6.5 15.4-6.5 24.2 0 16.7 8.5 31.5 21.5 40.1-7.9-0.2-15.3-2.4-21.8-6v0.6c0 23.4 16.6 42.8 38.7 47.3-4 1.1-8.3 1.7-12.7 1.7-3.1 0-6.1-0.3-9.1-0.9 6.1 19.2 23.9 33.1 45 33.5-16.5 12.9-37.3 20.6-59.9 20.6-3.9 0-7.7-0.2-11.5-0.7 21.1 13.8 46.5 21.8 73.7 21.8"/>
    </symbol>
    <symbol id="github" viewBox="20518 685 22 22">
        <path id="Path_99" data-name="Path 99" class="cls-1" d="M20540 695.4v1.2c-.047.382-.082.765-.142 1.143a11.016 11.016 0 0 1-9.258 9.132c-.33.052-.666.086-1 .125h-1.2a1.476 1.476 0 0 0-.19-.04 9.255 9.255 0 0 1-2.418-.45 10.848 10.848 0 0 1-7.62-8.637c-.082-.403-.116-.82-.172-1.228v-1.29a1.414 1.414 0 0 0 .04-.185 10.482 10.482 0 0 1 1.546-4.833 10.85 10.85 0 0 1 7.82-5.212c.314-.052.636-.086.95-.125h1.29c.364.047.734.082 1.1.142a11.02 11.02 0 0 1 9.13 9.28c.047.323.08.65.124.978zm-12.753 4.837c-.464-.1-.915-.172-1.354-.292a3.744 3.744 0 0 1-2.543-1.977 5.383 5.383 0 0 1-.48-2.054 3.912 3.912 0 0 1 .87-2.9.283.283 0 0 0 .048-.228 3.485 3.485 0 0 1 .017-1.968c.137-.5.18-.52.7-.417a6.022 6.022 0 0 1 1.912.852.446.446 0 0 0 .31.06 8.79 8.79 0 0 1 4.562 0 .494.494 0 0 0 .308-.056c.447-.223.877-.49 1.336-.68a3.956 3.956 0 0 1 .958-.2.254.254 0 0 1 .2.13 3.513 3.513 0 0 1 .133 2.23.312.312 0 0 0 .064.327 3.485 3.485 0 0 1 .725 1.418 5.386 5.386 0 0 1 .01 2.3 3.792 3.792 0 0 1-1.148 2.23 4.47 4.47 0 0 1-2.118 1.028c-.332.073-.667.125-1.024.193a2.437 2.437 0 0 1 .62 1.8v2.58c0 .274.094.46.308.5a.98.98 0 0 0 .5-.027 9.63 9.63 0 1 0-12.733-8.142 9.375 9.375 0 0 0 4.49 7.228 13.51 13.51 0 0 0 1.947.932.52.52 0 0 0 .77-.524v-1.555c-.293.03-.555.074-.817.087a2.37 2.37 0 0 1-2.526-1.517 2.5 2.5 0 0 0-1.044-1.3c-.138-.086-.327-.31-.3-.387.082-.2.322-.163.51-.133a1.842 1.842 0 0 1 1.355.958 2.034 2.034 0 0 0 2.71.846.262.262 0 0 0 .143-.138 2.333 2.333 0 0 1 .58-1.2z"/>
    </symbol>
    <symbol id="linkedin" viewBox="16355 -10561 16 16">
        <path id="LinkedIn_1_" d="M12.7 7.439v4.694h-2.725v-4.381c0-1.1-.393-1.851-1.379-1.851a1.488 1.488 0 0 0-1.396.999 1.883 1.883 0 0 0-.092.664v4.573h-2.721s.035-7.418 0-8.186h2.721v1.16l-.018.027h.018v-.031a2.7 2.7 0 0 1 2.453-1.352c1.792 0 3.139 1.169 3.139 3.684zm-11.159-7.439a1.418 1.418 0 1 0-.035 2.828h.018a1.419 1.419 0 1 0 .017-2.828zm-1.379 12.133h2.722v-8.186h-2.722z" transform="translate(15275 -14490) translate(1081.882 3930.882)"/>
    </symbol>
    <symbol id="linkedin-circle" viewBox="0 0 60 60">
        <path d="m46.837 44.137v-11.712c0-6.275-3.35-9.195-7.816-9.195-3.604 0-5.219 1.983-6.119 3.374v-2.894h-6.79c0.09 1.917 0 20.427 0 20.427h6.79v-11.408c0-0.609 0.044-1.219 0.224-1.655 0.49-1.22 1.607-2.483 3.482-2.483 2.458 0 3.44 1.873 3.44 4.618v10.929l6.789-1e-3zm-27.878-23.215c2.367 0 3.842-1.57 3.842-3.531-0.044-2.003-1.475-3.528-3.797-3.528s-3.841 1.524-3.841 3.528c0 1.961 1.474 3.531 3.753 3.531h0.043zm11.041 39.078c-16.568 0-30-13.432-30-30 0-16.569 13.432-30 30-30s30 13.431 30 30c0 16.568-13.432 30-30 30zm-7.646-15.863v-20.427h-6.789v20.427h6.789z"/>
    </symbol>
    <symbol id="facebook" viewBox="0 0 24 24">
        <path id="Path_238" d="M13.26 20.34v-7.6h2.6l.37-3h-3v-1.82c0-.83.28-1.48 1.48-1.48h1.58v-2.69c-.29 0-1.29-.09-2.29-.09a3.57 3.57 0 0 0-3.8 3.34 3.49 3.49 0 0 0 0 .56v2.21h-2.59v3h2.6v7.6z"/>
    </symbol>
    <symbol id="facebook-circle" viewBox="0 0 167 167">
        <path d="M83.829,0.349C37.532,0.349,0,37.881,0,84.178c0,41.523,30.222,75.911,69.848,82.57v-65.081H49.626 v-23.42h20.222V60.978c0-20.037,12.238-30.956,30.115-30.956c8.562,0,15.92,0.638,18.056,0.919v20.944l-12.399,0.006 c-9.72,0-11.594,4.618-11.594,11.397v14.947h23.193l-3.025,23.42H94.026v65.653c41.476-5.048,73.631-40.312,73.631-83.154 C167.657,37.881,130.125,0.349,83.829,0.349z"/>
    </symbol>
    <symbol id="stackoverflow" viewBox="0 0 24 24">
        <path d="m18.986 21.865v-6.404h2.134v8.539h-19.276v-8.539h2.13v6.404zm-12.875-2.134h10.739v-2.137h-10.739zm.259-4.852 10.48 2.189.451-2.07-10.478-2.187zm1.359-5.056 9.705 4.53.903-1.95-9.706-4.53-.902 1.936zm2.715-4.785 8.217 6.855 1.359-1.62-8.216-6.853-1.35 1.617zm5.307-5.038-1.746 1.294 6.405 8.604 1.746-1.294-6.407-8.604z"/>
    </symbol>
    <symbol id="stackoverflow-with-colors" viewBox="0 0 79 94">
        <path d="M66.435 84.817v-24.94h8.278v33.218H0V59.877h8.277v24.94h58.158z" fill="#BCBBBB"/><path d="M17.415 57.513l40.635 8.492 1.72-8.17-40.635-8.492-1.72 8.17zm5.375-19.35l37.625 17.522 3.44-7.525L26.23 30.53l-3.44 7.633zm10.428-18.49l31.927 26.552 5.267-6.343L38.485 13.33l-5.267 6.342zM53.858 0l-6.665 4.945L71.918 38.27l6.664-4.945L53.858 0zM16.555 76.433H58.05v-8.278H16.555v8.278z" fill="#F48024"/>
    </symbol>
    <symbol id="web" viewBox="0 0 87.800001 87.800001">
        <path d="m43.9 0c-24.2 0-43.9 19.7-43.9 43.9s19.7 43.9 43.9 43.9 43.9-19.7 43.9-43.9-19.7-43.9-43.9-43.9zm-39.9 45.9h11.8c.2 5.7 1 11.1 2.4 16h-10c-2.4-4.8-3.9-10.2-4.2-16zm50.7-4c-.1-5.6-.3-11-.8-16h11.5c1.5 4.9 2.4 10.3 2.6 16zm-10.8 41.9c-1.6-.3-4-6.5-5.5-17.9h11c-1.5 11.4-4 17.6-5.5 17.9zm-6-21.9c-.5-4.6-.8-10-.8-16h13.6c-.1 6-.4 11.4-.8 16zm-.8-20c .1-6 .4-11.4.8-16h12c .5 4.6.8 10 .8 16zm6.8-37.9c1.6.4 4 6.6 5.5 17.9h-11c1.5-11.3 3.9-17.5 5.5-17.9zm9.5 17.9c-.4-2.9-.8-5.6-1.3-8-.8-3.7-1.7-6.6-2.7-8.8 6 2.4 11.2 8.5 14.5 16.8zm-15.1-16.8c-1 2.2-1.9 5.1-2.7 8.8-.5 2.5-1 5.2-1.3 8h-10.5c3.4-8.3 8.5-14.4 14.5-16.8zm-4.4 20.8c-.5 5-.8 10.4-.8 16h-13.3c.2-5.7 1.1-11.1 2.6-16zm-18.1 16h-11.8c.3-5.7 1.8-11.1 4.3-16h10c-1.4 5-2.3 10.4-2.5 16zm4 4h13.2c.1 5.6.3 11 .8 16h-11.4c-1.5-4.8-2.4-10.2-2.6-16zm14.6 20c .4 2.9.8 5.6 1.3 8 .8 3.7 1.7 6.6 2.7 8.8-6-2.4-11.2-8.5-14.5-16.8zm15 16.9c1-2.2 1.9-5.1 2.7-8.8.5-2.5 1-5.2 1.3-8h10.5c-3.3 8.3-8.5 14.4-14.5 16.8zm4.5-20.9c.5-5 .8-10.4.8-16h13.2c-.2 5.7-1.1 11.1-2.6 16zm18-16h11.8c-.3 5.7-1.8 11.1-4.3 16h-10c1.5-4.9 2.4-10.3 2.5-16zm0-4c-.2-5.7-1-11.1-2.4-16h10c2.5 4.9 4 10.3 4.3 16zm5.2-20h-9c-2.2-6-5.4-11.1-9.1-14.9 7.5 3.1 13.8 8.3 18.1 14.9zm-48.4-14.8c-3.7 3.8-6.8 8.9-9.1 14.9h-9c4.4-6.7 10.7-11.9 18.1-14.9zm-18.1 58.8h9c2.2 6 5.4 11.1 9.1 14.9-7.4-3-13.7-8.3-18.1-14.9zm48.5 14.9c3.7-3.8 6.8-8.9 9.1-14.9h9c-4.4 6.6-10.7 11.9-18.1 14.9z"/>
    </symbol>
    <symbol id="resources" viewBox="0 0 24 24">
        <path d="M19 3.2H5A1.75 1.75 0 0 0 3.21 5v15a.34.34 0 0 0 .58.24l2.94-2.94H19a1.76 1.76 0 0 0 1.76-1.76V5A1.76 1.76 0 0 0 19 3.2zM8.48 11.12a.87.87 0 0 1-.88-.88.87.87 0 0 1 .88-.88.87.87 0 0 1 .88.88.87.87 0 0 1-.88.88zm3.52 0a.87.87 0 0 1-.88-.88.87.87 0 0 1 .88-.88.87.87 0 0 1 .88.88.87.87 0 0 1-.88.88zm3.52 0a.87.87 0 0 1-.88-.88.87.87 0 0 1 .88-.88.87.87 0 0 1 .88.88.87.87 0 0 1-.88.88z"/>
    </symbol>
    <symbol id="trends" viewBox="0 0 24 24" fill="none" stroke="currentColor" stroke-width="2" stroke-linecap="round" stroke-linejoin="round">
        <polyline points="23 6 13.5 15.5 8.5 10.5 1 18"></polyline><polyline points="17 6 23 6 23 12"></polyline>
    </symbol>
    <symbol id="hiring" viewBox="0 0 24 24">
        <path d="M17 11.17a2.49 2.49 0 0 0 0-5 2.65 2.65 0 0 0-.74.11 4.06 4.06 0 0 1 .74 2.4 4.16 4.16 0 0 1-.74 2.37 2.4 2.4 0 0 0 .74.12zM12.81 11.17a2.49 2.49 0 1 0-2.49-2.49 2.49 2.49 0 0 0 2.51 2.49zM9.56 11.65a.55.55 0 0 0 .2-.42.58.58 0 0 0-.57-.57H6.54V7.93A.56.56 0 0 0 6 7.36a.57.57 0 0 0-.43.19.59.59 0 0 0-.21.45v2.69H2.67a.55.55 0 0 0-.42.2.55.55 0 0 0-.2.42.58.58 0 0 0 .57.57h2.74v2.64a.57.57 0 0 0 .57.57.54.54 0 0 0 .42-.19.55.55 0 0 0 .19-.42v-2.6h2.6a.55.55 0 0 0 .42-.23zM13.66 12.83H12A4.14 4.14 0 0 0 7.86 17h9.94a4.14 4.14 0 0 0-4.14-4.17z"/><path d="M17.66 12.83h-2.02a4.15 4.15 0 0 1 3.41 4.07h2.75a4.14 4.14 0 0 0-4.14-4.07z"/>
    </symbol>
    <symbol id="contribute" viewBox="0 0 14 14">
        <path d="m19 278.18884 4.45914-4.46712c-.33012-.67872-.2156-1.51984.34706-2.08348.7091-.71064 1.85878-.71064 2.56788 0 .7091.7105.70896 1.86284 0 2.57334-.56224.5635-1.40098.67844-2.07802.34818l-4.43226 4.44024 9.84564-2.96674.81228-4.03942 2.47828-1.65186-5.3305-5.34198-1.67244 2.47114-4.00904.82586z" transform="translate(-19 -265)"/>
    </symbol>
    <symbol id="profile" viewBox="0 0 24 24">
        <path d="M19 3h-4.18a3 3 0 0 0-5.64 0H5a2 2 0 0 0-2 2v14a2 2 0 0 0 2 2h14a2 2 0 0 0 2-2V5a2 2 0 0 0-2-2zm-7 0a1 1 0 1 1-1 1 1 1 0 0 1 1-1zm0 4a3 3 0 1 1-3 3 3 3 0 0 1 3-3zm6 12H6a4 4 0 0 1 4-4h4a4 4 0 0 1 4 4z"/>
    </symbol>
    <symbol id="close" viewBox="0 0 24 24">
        <path d="M13.41 12l4.88-4.89a1 1 0 0 0-1.4-1.41L12 10.59 7.11 5.7a1 1 0 0 0-1.4 1.41L10.59 12l-4.88 4.89a1 1 0 0 0 1.4 1.4L12 13.41l4.89 4.88a1 1 0 0 0 1.4-1.4z"/>
    </symbol>
    <symbol id="like" viewBox="0 0 24 24">
        <path d="M20.11 5.26a4.74 4.74 0 0 1 0 6.67l-7.36 7.44a1.07 1.07 0 0 1-1.5 0l-7.36-7.43a4.74 4.74 0 0 1 0-6.67 4.64 4.64 0 0 1 6.56-.06l.05.06L12 6.78l1.5-1.52a4.63 4.63 0 0 1 6.55-.06l.06.06z"/>
    </symbol>
    <symbol id="bookmark" viewBox="0 0 24 24">
        <path d="M17 3H7a2 2 0 0 0-2 2v14.68a.68.68 0 0 0 1.07.55L12 16l5.93 4.23a.68.68 0 0 0 1.07-.55V5a2 2 0 0 0-2-2z"/>
    </symbol>
    <symbol id="dashboard" viewBox="0 50 556 466">
        <path d="m337.92 89.845c-176.64-56.32-337.92 74.24-337.92 243.2 0 23.04 2.56 66.56 10.24 92.16 0 5.12 5.12 10.24 10.24 10.24h468.48c5.12 0 10.24-5.12 12.8-10.24 5.12-25.6 10.24-69.12 10.24-92.16 0-110.08-69.12-209.92-174.08-243.2zm-81.92 38.4c15.36 0 25.6 10.24 25.6 25.6s-10.24 25.6-25.6 25.6-25.6-10.24-25.6-25.6 10.24-25.6 25.6-25.6zm-179.2 230.4c-15.36 0-25.6-10.24-25.6-25.6s10.24-25.6 25.6-25.6 25.6 10.24 25.6 25.6-10.24 25.6-25.6 25.6zm71.68-133.12c-10.24 10.24-25.6 10.24-35.84 0s-10.24-28.16-2.56-38.4c10.24-10.24 25.6-10.24 35.84 0s10.24 28.16 2.56 38.4zm107.52 158.72c-28.16 0-53.76-25.6-46.08-51.2s46.08-102.4 46.08-102.4 38.4 76.8 46.08 102.4-17.92 51.2-46.08 51.2zm145.92-158.72c-10.24 10.24-25.6 10.24-35.84 0s-10.24-25.6 0-35.84 25.6-10.24 35.84 0c7.68 7.68 7.68 25.6 0 35.84zm33.28 133.12c-15.36 0-25.6-10.24-25.6-25.6s10.24-25.6 25.6-25.6 25.6 10.24 25.6 25.6-10.24 25.6-25.6 25.6z"/>
    </symbol>
    <symbol id="jobs-board" viewBox="0 0 24 24">
        <path d="M4 13h5.93A1.06 1.06 0 0 0 11 12V4.07A1.06 1.06 0 0 0 9.93 3H4a1 1 0 0 0-1 1.07V12a1 1 0 0 0 1 1zm0 8h5.93A1.06 1.06 0 0 0 11 20v-3.94a1.06 1.06 0 0 0-1.06-1H4a1 1 0 0 0-1 1V20a1 1 0 0 0 1 1zm10 0h5.89A1 1 0 0 0 21 20v-7.94A1 1 0 0 0 19.93 11H14a1.06 1.06 0 0 0-1 1.06V20a1.06 1.06 0 0 0 1 1zM13 4.07V8a1.06 1.06 0 0 0 1 1h5.89A1 1 0 0 0 21 8V4.07A1 1 0 0 0 19.93 3H14a1.06 1.06 0 0 0-1 1.07z"/>
    </symbol>
    <symbol id="roll-down" viewBox="0 0 24 24">
        <path d="M8.12 8.54L12 12.42l3.88-3.88a1 1 0 0 1 1.41 0 1 1 0 0 1 0 1.41L12 15.25 6.71 10a1 1 0 0 1 0-1.41 1 1 0 0 1 1.41-.05z"/>
    </symbol>
    <symbol id="job-location" viewBox="0 0 24 24">
        <path d="m17.31 6.06a6.31 6.31 0 0 0 -10.62 6.8l5.09 8a .2.2 0 0 0  .08.08.27.27 0 0 0  .37-.08l5.08-7.95a6.31 6.31 0 0 0 0-6.85zm-5.31 6.09a2.82 2.82 0 1 1 2.82-2.82 2.82 2.82 0 0 1 -2.82 2.82z"/>
    </symbol>
    <symbol id="job-remote" viewBox="0 0 24 24">
        <path d="m22.28 11.4-8.75-7.88a2.29 2.29 0 0 0 -3.06 0l-8.75 7.88a.43.43 0 0 0  .29.76h2.2v7.33a1.57 1.57 0 0 0 1.58 1.57h12.42a1.57 1.57 0 0 0 1.58-1.57v-7.33h2.21a.43.43 0 0 0  .28-.76zm-10.28-1.82a2.18 2.18 0 1 1 -2.18 2.18 2.18 2.18 0 0 1 2.18-2.18zm4.84 8.63h-9.68v-.72c0-1.62 3.23-2.49 4.84-2.49s4.84.89 4.84 2.51z"/>
    </symbol>
    <symbol id="job-skills" viewBox="0 0 24 24">
        <path d="m18.05 20.06-4.38-10.3a2.58 2.58 0 0 0 -.89-4.43v-1.68a.79.79 0 1 0 -1.58 0v1.68a2.55 2.55 0 0 0 -1.8 2.46 2.6 2.6 0 0 0  .91 2l-4.31 10.21a.8.8 0 0 0  .44 1.05 1.06 1.06 0 0 0  .28.06.79.79 0 0 0  .73-.49l1.55-3.69a9.78 9.78 0 0 0 2.24.45v.21a.79.79 0 0 0 1.58 0v-.21a9.78 9.78 0 0 0 2.18-.45l1.58 3.74a.8.8 0 0 0  .73.48.88.88 0 0 0  .29-.07.76.76 0 0 0  .43-1zm-6.05-5.17a.78.78 0 0 0 -.79.79v.15a8.08 8.08 0 0 1 -1.64-.33l2.18-5.12a2.09 2.09 0 0 0  .5 0l2.15 5.12a8.3 8.3 0 0 1 -1.62.31v-.13a.79.79 0 0 0 -.78-.79zm1-7.1a1 1 0 1 1 -1-1 1 1 0 0 1 1 1z"/>
    </symbol>
    <symbol id="job-salary" viewBox="0 0 111.55 68">
        <path d="m9.09 47h-4.89a1.4 1.4 0 0 1 -1.4-1.4v-41.41a1.39 1.39 0 0 1 1.4-1.39h85a1.4 1.4 0 0 1 1.4 1.39v41.45a1.4 1.4 0 0 1 -1.4 1.4h-80.11z" fill="#fff"/><path d="m18.17 56.12h-4.89a1.4 1.4 0 0 1 -1.4-1.4v-4.89h77.31a4.2 4.2 0 0 0 4.19-4.19v-33.76h4.89a1.4 1.4 0 0 1 1.4 1.4v41.44a1.4 1.4 0 0 1 -1.4 1.4z" fill="#fff"/><path d="m108.76 63.8a1.4 1.4 0 0 1 -1.4 1.4h-85a1.39 1.39 0 0 1 -1.36-1.4v-4.88h77.3a4.21 4.21 0 0 0 4.2-4.2v-33.72h4.89a1.4 1.4 0 0 1 1.4 1.39z" fill="#fff"/><g fill="#ff7c6e"><path d="m19.67 41.55c-2.69 0-4.3-1.66-4.3-4.45v-8.58c0-1.89-.55-2.07-1.19-2.27a1.41 1.41 0 0 1 -1-1.33 1.39 1.39 0 0 1 1-1.33c.64-.21 1.19-.39 1.19-2.28v-8.58c0-2.78 1.61-4.45 4.3-4.45a1.4 1.4 0 0 1 0 2.8c-1 0-1.5.26-1.5 1.65v8.58a5.49 5.49 0 0 1 -1 3.61 5.44 5.44 0 0 1 1 3.6v8.58c0 1.39.53 1.65 1.5 1.65a1.4 1.4 0 1 1 0 2.8z"/><path d="m73.72 41.55a1.4 1.4 0 0 1 0-2.8c1 0 1.49-.26 1.49-1.65v-8.58a5.44 5.44 0 0 1 1-3.6 5.49 5.49 0 0 1 -1-3.61v-8.58c0-1.39-.52-1.65-1.49-1.65a1.4 1.4 0 0 1 0-2.8c2.68 0 4.28 1.72 4.28 4.45v8.58c0 1.89.55 2.07 1.19 2.28a1.39 1.39 0 0 1 1 1.33 1.4 1.4 0 0 1 -1 1.33c-.64.2-1.19.38-1.19 2.27v8.58c0 2.79-1.6 4.45-4.28 4.45z"/><path d="m47.43 33.07v1.85a.73.73 0 0 1 -.73.73.73.73 0 0 1 -.73-.73v-1.85a9.92 9.92 0 0 1 -4.87-1.46 1 1 0 0 1 -.35-1.24 1 1 0 0 1 1.41-.4 8.65 8.65 0 0 0 3.84 1.16v-5.3c-2.52-.62-5.17-1.42-5.17-4.52 0-2.26 1.62-4.23 5.17-4.53v-1.87a.73.73 0 0 1  .73-.73.73.73 0 0 1  .73.73v1.85a9.81 9.81 0 0 1 3.87.95 1 1 0 0 1  .44 1.23 1 1 0 0 1 -1.35.5 7.93 7.93 0 0 0 -3-.77v5.33c2.56.64 5.3 1.4 5.3 4.53.01 2.28-1.72 4.24-5.29 4.54zm-1.43-9.41v-4.93c-2.07.27-3 1.27-3 2.49 0 1.41 1.32 2.01 3 2.44zm4.52 5c0-1.46-1.37-2-3.06-2.49v4.92c2.09-.19 3.03-1.17 3.03-2.41z"/><path d="m46.69 41.55a16.64 16.64 0 1 1 16.64-16.63 16.65 16.65 0 0 1 -16.64 16.63zm0-30.47a13.84 13.84 0 1 0 13.84 13.84 13.85 13.85 0 0 0 -13.84-13.84z"/></g><path d="m18.17 47h71a1.4 1.4 0 0 0 1.4-1.4v-41.41a1.4 1.4 0 0 0 -1.4-1.39h-84.97a1.39 1.39 0 0 0 -1.4 1.39v41.45a1.4 1.4 0 0 0 1.4 1.36h14z" fill="none"/><path d="m107.36 21h-4.89v33.72a4.21 4.21 0 0 1 -4.2 4.2h-77.27v4.88a1.39 1.39 0 0 0 1.39 1.4h85a1.4 1.4 0 0 0 1.4-1.4v-41.44a1.4 1.4 0 0 0 -1.43-1.36z" fill="none"/><path d="m107.36 18.17h-4.89v-4.89a4.21 4.21 0 0 0 -4.2-4.2h-4.89v-4.89a4.2 4.2 0 0 0 -4.19-4.19h-84.99a4.2 4.2 0 0 0 -4.2 4.19v41.45a4.2 4.2 0 0 0 4.2 4.19h4.89v4.89a4.2 4.2 0 0 0 4.19 4.2h4.89v4.88a4.2 4.2 0 0 0 4.19 4.2h85a4.2 4.2 0 0 0 4.19-4.2v-41.44a4.2 4.2 0 0 0 -4.19-4.19zm-98.27 28.83h-4.89a1.4 1.4 0 0 1 -1.4-1.4v-41.41a1.39 1.39 0 0 1 1.4-1.39h85a1.4 1.4 0 0 1 1.4 1.39v41.45a1.4 1.4 0 0 1 -1.4 1.4h-80.11zm9.08 9.08h-4.89a1.4 1.4 0 0 1 -1.4-1.4v-4.85h77.31a4.2 4.2 0 0 0 4.19-4.19v-33.76h4.89a1.4 1.4 0 0 1 1.4 1.4v41.44a1.4 1.4 0 0 1 -1.4 1.4h-80.1zm90.59 7.68a1.4 1.4 0 0 1 -1.4 1.4h-85a1.39 1.39 0 0 1 -1.36-1.36v-4.88h77.3a4.21 4.21 0 0 0 4.2-4.2v-33.72h4.89a1.4 1.4 0 0 1 1.4 1.39z" fill="#ff7c6e"/>
    </symbol>
    <symbol id="search" viewBox="0 0 30 30">
        <path d="m10.3 18.2c-2.1 0-4.1-.8-5.6-2.3s-2.3-3.5-2.3-5.6.8-4.1 2.3-5.6 3.5-2.3 5.6-2.3 4.1.8 5.6 2.3 2.3 3.5 2.3 5.6-.8 4.1-2.3 5.6c-1.5 1.4-3.5 2.3-5.6 2.3z" fill="#e6edf2"/><path d="m28 25.6-9.4-9.4-.6-.6s-.1-.1-.2-.1l-.7-.2c2.4-3.4 2.2-8.1-.9-11.1-1.7-1.7-3.9-2.5-6.1-2.5s-4.4.8-6.1 2.5c-3.3 3.3-3.3 8.8 0 12.1 1.7 1.7 3.9 2.5 6.1 2.5 1.8 0 3.5-.5 5-1.6l.2.7c0 .1.1.1.1.2l.6.6 9.4 9.4c.3.3.9.3 1.2 0l1.2-1.2c.6-.4.6-.9.2-1.3zm-22.7-10.3c-2.8-2.7-2.8-7.3 0-10 1.3-1.3 3.1-2.1 5-2.1s3.7.7 5 2.1c1.3 1.3 2.1 3.1 2.1 5s-.7 3.7-2.1 5c-1.3 1.3-3.1 2.1-5 2.1s-3.7-.7-5-2.1z" fill="#6e7f89"/>
    </symbol>
    <symbol id="recommend" viewBox="0 0 13 15">
        <path d="m26.0098039 196.637786v1.07781h3.4901961c1.3807119 0 2.5 1.119288 2.5 2.5v6.284404c0 1.380712-1.1192881 2.5-2.5 2.5h-8c-1.3807119 0-2.5-1.119288-2.5-2.5v-6.284404c0-1.380712 1.1192881-2.5 2.5-2.5h3.4901961v-1.07781c-.4501326-.212355-.7647059-.697331-.7647059-1.261639 0-.760025.5706175-1.376147 1.2745098-1.376147s1.2745098.616122 1.2745098 1.376147c0 .564308-.3145733 1.049284-.7647059 1.261639zm-3.0588235 6.031939c.6335031 0 1.1470588-.55451 1.1470588-1.238532 0-.684023-.5135557-1.238532-1.1470588-1.238532s-1.1470588.554509-1.1470588 1.238532c0 .684022.5135557 1.238532 1.1470588 1.238532zm5.3529412 0c .6335031 0 1.1470588-.55451 1.1470588-1.238532 0-.684023-.5135557-1.238532-1.1470588-1.238532s-1.1470589.554509-1.1470589 1.238532c0 .684022.5135558 1.238532 1.1470589 1.238532zm-5.674312 2.201835c-.4560149 0-.825688.369673-.825688.825688s.3696731.825688.825688.825688h5.9956827c.4560149 0 .8256881-.369673.8256881-.825688s-.3696732-.825688-.8256881-.825688z" fill-rule="evenodd" transform="translate(-19 -194)"/>
    </symbol>
    <symbol id="tick" viewBox="0 0 16 16">
        <path d="m398 12c1.104172 0 2.143224.2083312 3.117188.625.973963.4166688 1.822913.9869755 2.546874 1.7109375.723962.723962 1.294269 1.5729118 1.710938 2.546875s.625 2.0130153.625 3.1171875-.208331 2.1432243-.625 3.1171875-.986976 1.822913-1.710938 2.546875c-.723961.723962-1.572911 1.2942687-2.546874 1.7109375-.973964.4166688-2.013016.625-3.117188.625s-2.143224-.2083312-3.117188-.625c-.973963-.4166688-1.822913-.9869755-2.546874-1.7109375-.723962-.723962-1.294269-1.5729118-1.710938-2.546875s-.625-2.0130153-.625-3.1171875.208331-2.1432243.625-3.1171875.986976-1.822913 1.710938-2.546875c.723961-.723962 1.572911-1.2942687 2.546874-1.7109375.973964-.4166688 2.013016-.625 3.117188-.625zm0 15.015625c.968755 0 1.8776-.184894 2.726562-.5546875.848963-.3697935 1.588539-.8723927 2.21875-1.5078125.630212-.6354198 1.130207-1.3775999 1.5-2.2265625.369794-.8489626.554688-1.7578077.554688-2.7265625s-.184894-1.8775999-.554688-2.7265625c-.369793-.8489626-.869788-1.5885385-1.5-2.21875-.630211-.6302115-1.369787-1.1302065-2.21875-1.5-.848962-.3697935-1.757807-.5546875-2.726562-.5546875s-1.8776.184894-2.726562.5546875c-.848963.3697935-1.588539.8697885-2.21875 1.5-.630212.6302115-1.130207 1.3697874-1.5 2.21875-.369794.8489626-.554688 1.7578077-.554688 2.7265625s.184894 1.8775999.554688 2.7265625c.369793.8489626.869788 1.5911427 1.5 2.2265625.630211.6354198 1.369787 1.138019 2.21875 1.5078125.848962.3697935 1.757807.5546875 2.726562.5546875zm3.1875-9.9375c.104167-.1041672.223958-.15625.359375-.15625s.255208.0520828.359375.15625c.09375.0937505.140625.2109368.140625.3515625s-.046875.257812-.140625.3515625l-4.984375 5.015625c-.010417.0104167-.020833.0208333-.03125.03125s-.020833.0208333-.03125.03125c-.09375.1041672-.210937.15625-.351563.15625-.140625 0-.257812-.0520828-.351562-.15625l-2.484375-2.46875c-.09375-.0937505-.140625-.2109368-.140625-.3515625s.046875-.257812.140625-.3515625c.104167-.1041672.223958-.15625.359375-.15625s.255208.0520828.359375.15625l2.109375 2.109375z" fill-rule="evenodd" transform="translate(-390 -12)"/>
    </symbol>
    <symbol id="cutout-tick" viewBox="0 0 14 14">
        <g fill="none" fill-rule="evenodd"><path d="M7 1a6 6 0 1 1 0 12A6 6 0 0 1 7 1zm0-1a7 7 0 1 0 0 14A7 7 0 0 0 7 0z" fill="#FF7C6E" fill-rule="nonzero"/><g><circle fill="#FF7C6E" cx="7" cy="7" r="7"/><path fill="#FFF" fill-rule="nonzero" d="M11 5l-5 5-3-3 1-1 2 2 4-4z"/></g></g>
    </symbol>
    <symbol id="error" viewBox="0 0 24 24">
        <path d="M12 2.829l9.172 9.171-9.172 9.171-9.172-9.171 9.172-9.171zm0-2.829l-12 12 12 12 12-12-12-12zm-1 7h2v6h-2v-6zm1 10.25c-.69 0-1.25-.56-1.25-1.25s.56-1.25 1.25-1.25 1.25.56 1.25 1.25-.56 1.25-1.25 1.25z"/>
    </symbol>
    <symbol id="cross" viewBox="0 0 14 14">
        <g fill="#ADADAD" fill-rule="evenodd"><path d="M7 1a6 6 0 1 1 0 12A6 6 0 0 1 7 1zm0-1a7 7 0 1 0 0 14A7 7 0 0 0 7 0z" fill-rule="nonzero"/><path d="M10 9l-1 1-2-2-2 2-1-1 2-2-2-2 1-1 2 2 2-2 1 1-2 2z"/></g>
    </symbol>
    <symbol id="add-new" viewBox="0 0 16 16">
        <path d="m7.94482759 0c-4.3770115 0-7.94482759 3.56781609-7.94482759 7.94482759 0 4.37701151 3.54942529 7.94482761 7.94482759 7.94482761 4.37701151 0 7.94482761-3.5494253 7.94482761-7.94482761 0-4.3770115-3.5678161-7.94482759-7.94482761-7.94482759zm5.11264371 9.2137931h-3.8436782v3.8436782h-2.53793103v-3.8436782h-3.84367816v-2.53793103h3.84367816v-3.84367816h2.55632184v3.84367816h3.84367819v2.53793103z" />
    </symbol>
    <symbol id="add-new-2" viewBox="0 0 17 17">
        <path d="m16.028 6.428v3.672h-6.156v6.084h-3.528v-6.084h-6.156v-3.672h6.156v-6.12h3.528v6.12z"/>
    </symbol>
    <symbol id="upload" viewBox="0 0 17 18">
      <path d="m15.001659 8.45032 1.119319 1.119319-6.861705 6.861682c-1.38247 1.365096-3.388194 1.888958-5.261637 1.374252-1.873442-.514706-3.329982-1.989784-3.820955-3.869585-.490973-1.879802.058212-3.878742 1.437132-5.24031l.043531-.043531 7.521311-7.521302c1.528817-1.516476 3.997514-1.506472 5.51399.022344s1.506473 3.997514-.020071 5.511726l-.186741.18674-7.458935 7.439149c-.90904.90904-2.382885.90904-3.291925 0s-.90904-2.382885.000161-3.292086l6.909601-6.905643 1.118998 1.119639-6.909441 6.905483c-.290858.290858-.290858.762431 0 1.053288.290857.290858.76243.290858 1.054031-.000743l7.458935-7.439148.18827-.18826c.908133-.900804.914076-2.367238.013272-3.275371-.900804-.908134-2.367237-.914077-3.273098-.015536l-7.519039 7.519039-.047082.047059c-.980055.967738-1.369381 2.384818-1.021322 3.71744.348058 1.332622 1.380623 2.378328 2.708736 2.743212 1.328114.364883 2.750004-.006491 3.726509-.970702z"/>
    </symbol>
    <symbol id="applications" viewBox="0 0 14 15">
        <g fill-rule="evenodd" transform=""><rect height="15" rx="2" width="14"/><g fill="#fff" fill-rule="nonzero"><path d="m3 4v-1h8v1z"/><path d="m3 8v-1h8v1z"/><path d="m3 12v-1h8v1z"/></g></g>
    </symbol>
    <symbol id="views" viewBox="0 0 18 14">
        <path d="m4.12876646 9.29609946c-1.16591907 0-2.11462702.94870794-2.11462702 2.11506584 0 .3633349.29444174.6582155.65821551.6582155s.6582155-.2948806.6582155-.6582155c0-.4405656.35806924-.7986348.79819601-.7986348.36377376 0 .6582155-.2948806.6582155-.65821553 0-.36333496-.29444174-.65821551-.6582155-.65821551zm9.74290594 0c-1.1659191 0-2.1141882.94870794-2.1141882 2.11506584 0 .3633349.2948805.6582155.6582155.6582155.3633349 0 .6582155-.2948806.6582155-.6582155 0-.4405656.3576304-.7986348.7977572-.7986348.3633349 0 .6582155-.2948806.6582155-.65821553 0-.36333496-.2948806-.65821551-.6582155-.65821551zm3.7961482.49497806-1.1834715-3.7105802c-.0057045-.02369576-.0127255-.04739152-.0215017-.07064847-.3637738-.9851292-1.1571429-1.72935153-2.1168211-2.06548025l-.1197952-.37474403c-.0061433-.02237932-.0127255-.04475865-.0210629-.06626036-.333057-.89912238-1.2010239-1.50336421-2.1598245-1.50336421-1.2694783 0-2.30199899 1.03295953-2.30199899 2.30199902v.99522185c-.23081424-.08995612-.48005851-.14392979-.74246709-.14392979s-.51165285.05397367-.7429059.14392979v-.99522185c0-1.2694783-1.03252072-2.30199902-2.30199902-2.30199902-.95967821 0-1.82764505.60424183-2.15982448 1.50380302-.00702097.01930766-.01316431.03861531-.01843003.05836178l-.12198928.38264261c-.96011701.33612872-1.75304729 1.08035105-2.11682106 2.06548025-.00877621.02281814-.01579717.04563628-.02150171.06933204l-1.18259385 3.70663091c-.21501707.49936619-.33481229 1.04831789-.33481229 1.62535349 0 2.276548 1.85221843 4.1283276 4.12876646 4.1283276 1.66221355 0 3.09405168-.9890785 3.74831789-2.4068747.32384203.2115066.70867869.3374452 1.12379327.3374452s.79995124-.1254998 1.12335448-.3374452c.6542662 1.4177962 2.0861043 2.4068747 3.7474403 2.4068747 2.276548 0 4.1283276-1.8522184 4.1283276-4.1283276 0-.5752804-.1189176-1.1224768-.3321794-1.62052658zm-13.53905414 4.43242318c-1.55075573 0-2.81233545-1.2615797-2.81233545-2.8118966 0-1.55075573 1.26157972-2.81233545 2.81233545-2.81233545 1.55075572 0 2.81277425 1.26157972 2.81277425 2.81233545 0 1.5503169-1.26201853 2.8118966-2.81277425 2.8118966zm4.87167235-2.0698683c-.40984885 0-.7429059-.3330571-.7429059-.7420283 0-.4098489.33305705-.7429059.7429059-.7429059.40941004 0 .74246709.3334959.74246709.7429059 0 .4089712-.33261824.7420283-.74246709.7420283zm4.87123359 2.0698683c-1.550317 0-2.8118967-1.2615797-2.8118967-2.8118966 0-1.55075573 1.2615797-2.81233545 2.8118967-2.81233545 1.5503169 0 2.8118966 1.26157972 2.8118966 2.81233545 0 1.5503169-1.2615797 2.8118966-2.8118966 2.8118966z" fill="#6e7f89" transform="translate(0 -2)"/>
    </symbol>
    <symbol id="high-match" viewBox="0 0 18 18">
        <path d="m0 9a9 9 0 1 0 9-9v9z"/><path d="m9 0a9 9 0 0 0 -9 9h9z" fill="#f4f5f8"/>
    </symbol>
    <symbol id="settings" viewBox="0 0 17 17">
        <path d="m7.29203869 0-.5375744 2.47284226c-.45041946.1301943-.88130247.30899726-1.28385417.53125l-2.125-1.36607143-1.70758929 1.70758929 1.36607143 2.125c-.22225274.4025517-.4010557.83343451-.53125 1.28385417l-2.47284226.5375744v2.41592262l2.47284226.53757439c.1301943.4504197.30899726.8813025.53125 1.2838542l-1.36607143 2.125 1.70758929 1.7075893 2.125-1.3660715c.4025517.2222528.83343471.4010557 1.28385417.53125l.5375744 2.4728423h2.41592262l.53757439-2.4728423c.4504197-.1301943.8813025-.3089972 1.2838542-.53125l2.125 1.3660715 1.7075893-1.7075893-1.3660715-2.125c.2222528-.4025517.4010557-.8334345.53125-1.2838542l2.4728423-.53757439v-2.41592262l-2.4728423-.5375744c-.1301943-.45041966-.3089972-.88130247-.53125-1.28385417l1.3660715-2.125-1.7075893-1.70758929-2.125 1.36607143c-.4025517-.22225274-.8334345-.4010557-1.2838542-.53125l-.53757439-2.47284226zm1.20796131 4.85714286c2.0118943 0 3.6428571 1.63096279 3.6428571 3.64285714 0 2.0118945-1.6309628 3.6428571-3.6428571 3.6428571-2.01189394 0-3.64285714-1.6309628-3.64285714-3.6428571 0-2.01189435 1.6309632-3.64285714 3.64285714-3.64285714z"/>
    </symbol>
    <symbol id="plus" viewBox="0 0 24 24">
        <path d="M24 9h-9v-9h-6v9h-9v6h9v9h6v-9h9z" fill="#ff7c6e"/>
    </symbol>
    <symbol id="minus" viewBox="0 0 24 24">
        <path d="M24 9 h-9 h-6 h-9 v6 h9 h6 h9 z" fill="#ff7c6e"/>
    </symbol>
    <symbol id="email" viewBox="0 0 15 15">
        <text fill-rule="evenodd" font-family="Montserrat-SemiBold, Montserrat" font-size="16" font-weight="500" transform="translate(-1 -53)"><tspan x="1" y="65">@</tspan></text>
    </symbol>
    <symbol id="mail" viewBox="0 0 24 24" fill="none" stroke="currentColor" stroke-width="2" stroke-linecap="round" stroke-linejoin="round">
        <path d="M4 4h16c1.1 0 2 .9 2 2v12c0 1.1-.9 2-2 2H4c-1.1 0-2-.9-2-2V6c0-1.1.9-2 2-2z"/><path d="M22 6l-10 7L2 6"/>
    </symbol>
    <symbol id="search-new" viewBox="0 0 16 17">
        <path d="M15 14.35l-3.13-3.61a6.49 6.49 0 1 0-5.31 2.77 6.36 6.36 0 0 0 3.07-.78l3.1 3.58a1.513 1.513 0 1 0 2.27-2v.04zM1.32 7a5.2 5.2 0 1 1 10.4 0 5.2 5.2 0 0 1-10.4 0z" />
    </symbol>
    <symbol id="edit" viewBox="0 0 18 18">
        <path d="M14.8 0l-1.2 1.2 3.2 3.2L18 3.2 14.8 0zm-2 2L1 13.8 4.2 17 16 5.2 12.8 2zM.363 14.762L0 18l3.238-.362-2.875-2.876z" fill="#ADADAD" fill-rule="nonzero"/>
    </symbol>
    <symbol id="circle" viewBox="0 0 10 10">
        <circle cx="5" cy="5" r="5"/>
    </symbol>
    <symbol id="arrow-right" viewBox="0 0 14 12">
        <path d="M13.797 5.411L9.297.345C9.044.075 8.503-.02 8.207.28c-.295.299-.293.867.004 1.164l3.297 3.716H.75c-.414 0-.75.359-.75.8 0 .442.336.8.75.8h10.758L8.21 10.478c-.297.297-.317.886-.004 1.164.29.257.827.268 1.09-.064l4.5-5.067c.191-.204.34-.742 0-1.1z"/>
    </symbol>
    <symbol id="arrow-left" viewBox="0 0 14 12">
        <path d="M.203 6.515l4.5 5.067c.253.27.794.363 1.09.064.295-.3.293-.867-.004-1.164L2.492 6.765H13.25c.414 0 .75-.358.75-.8 0-.442-.336-.8-.75-.8H2.492L5.79 1.448c.297-.297.317-.886.004-1.164-.29-.256-.827-.268-1.09.064l-4.5 5.067c-.191.205-.34.743 0 1.1z"/>
    </symbol>
    <symbol id="info" viewBox="0 0 100 100">
        <path d="M50 5a45 45 0 1 0 0 90 45 45 0 0 0 0-90zm6 74H43V39h13v40zm-7-45c-4 0-6-3-6-7s2-6 6-6c5 0 7 3 7 6 0 4-2 7-7 7z"/>
    </symbol>
    <symbol id="contributors" viewBox="0 0 18 17">
        <g fill="#adadad"><path d="m5.44 8.09565217h.34c1.94 0 3.5-1.60289855 3.5-3.55072463v-.9942029c0-1.96811594-1.58-3.55072464-3.5-3.55072464h-.34c-1.94 0-3.5 1.60289855-3.5 3.55072464v.9942029c0 1.96811594 1.56 3.55072463 3.5 3.55072463z"/><path d="m13.6 7.54782609h.24c1.46 0 2.66-1.19710145 2.66-2.69855073v-.54782608c0-1.46086957-1.2-2.67826087-2.66-2.67826087h-.24c-1.46 0-2.66 1.19710145-2.66 2.69855072v.54782609c.02 1.46086956 1.2 2.67826087 2.66 2.67826087z"/><path d="m6.92 9.25217391h-2.54c-2.4 0-4.36 1.98840579-4.36 4.42318839v.284058c0 1.257971 1 2.2927536 2.26 2.2927536h6.76c1.24 0 2.26-1.0144927 2.26-2.2927536v-.284058c-.02-2.4347826-1.98-4.42318839-4.38-4.42318839z"/><path d="m14 8.48115942h-.68c-.8 0-1.54.24347826-2.18.66956522-.22.14202898-.26.46666666-.08.66956522.92 1.01449274 1.48 2.35362314 1.48 3.83478264v.0405797c0 .1826087.14.3449275.34.3449275h3.76c.74 0 1.34-.6086956 1.34-1.3594203v-.1623188c0-2.2318841-1.78-4.03768118-3.98-4.03768118z"/></g>
    </symbol>
    <symbol id="level1" viewBox="0 0 18 18">
        <g><path fill="#adadad" d="m0 9.9h5.4v8.1h-5.4z"/><path fill="#dedede" d="m6.3 3.6h5.4v14.4h-5.4z"/><path fill="#dedede" d="m12.6 0h5.4v18h-5.4z"/></g>
    </symbol>
    <symbol id="level2" viewBox="0 0 18 18">
        <g><path fill="#adadad" d="m0 9.9h5.4v8.1h-5.4z"/><path fill="#adadad" d="m6.3 3.6h5.4v14.4h-5.4z"/><path fill="#dedede" d="m12.6 0h5.4v18h-5.4z"/></g>
    </symbol>
    <symbol id="level3" viewBox="0 0 18 18">
        <g fill="#adadad" fill-rule="evenodd"><path d="m0 9.9h5.4v8.1h-5.4z"/><path d="m6.3 3.6h5.4v14.4h-5.4z"/><path d="m12.6 0h5.4v18h-5.4z"/></g>
    </symbol>
    <symbol id="pr" viewBox="0 0 15 18">
        <g><path d="m4.5 3.28327526c0-1.31080139-1.02531646-2.38327526-2.25-2.38327526-1.25316456 0-2.25 1.07247387-2.25 2.38327526 0 .95331011.54113924 1.78745645 1.33860759 2.14494774v8.0733449c-.76898734.3574913-1.33860759 1.1916377-1.33860759 2.1449478 0 1.3108014 1.02531646 2.3534843 2.25 2.3534843 1.25316456 0 2.25-1.0724739 2.25-2.3534843 0-.9533101-.54113924-1.7874565-1.33860759-2.1449478v-8.0733449c.79746835-.38728223 1.33860759-1.19163763 1.33860759-2.14494774zm-1.13924051 12.36324044c0 .6554007-.51265822 1.1618467-1.11075949 1.1618467-.62658228 0-1.11075949-.536237-1.11075949-1.1618467 0-.6554007.51265822-1.1618467 1.11075949-1.1618467.59810127-.029791 1.11075949.506446 1.11075949 1.1618467zm-1.11075949-11.20139375c-.62658228 0-1.11075949-.53623693-1.11075949-1.16184669 0-.6554007.51265822-1.16184669 1.11075949-1.16184669.59810127-.02979094 1.11075949.50644599 1.11075949 1.16184669 0 .62560976-.51265822 1.16184669-1.11075949 1.16184669z"/><path d="m12.9812137 13.4003407v-8.12606472c0-1.87052811-1.5408971-3.40374787-3.42079157-3.40374787h-.83208443v-1.87052811l-3.3283377 2.88245315 3.3283377 2.85178876v-1.87052811h.83208443c.80126647 0 1.41762527.6439523 1.41762527 1.41056218v8.09540032c-.8320844.3679728-1.44844321 1.2265758-1.44844321 2.2078365 0 1.3492334 1.10944591 2.4224872 2.43461741 2.4224872 1.3559894 0 2.4346174-1.1039182 2.4346174-2.4224872.0308179-.9505963-.554723-1.8091993-1.4176253-2.1771721zm-.9861742 3.4037479c-.6779947 0-1.2018997-.5519591-1.2018997-1.1959114 0-.6746167.5547229-1.1959114 1.2018997-1.1959114.6779947 0 1.2018997.5519591 1.2018997 1.1959114s-.5547229 1.1959114-1.2018997 1.1959114z"/></g>
    </symbol>
    <symbol id="issue-status">
        <g transform="translate(-120 -2048)" xmlns="http://www.w3.org/2000/svg">
            <polygon points="120 2048 132 2048 138 2054 132 2060 120 2060"/>
        </g>
    </symbol>

    <!-- Upvote -->
    <symbol id="upvote-circle" viewBox="0 0 60 60">
        <circle cx="30" cy="30" r="30"/>
        <path d="M28.3,25.1a1.87,1.87,0,0,0,1,2.5,2.2,2.2,0,0,0,.7.15V24A1.81,1.81,0,0,0,28.3,25.1Z"/>
        <path d="M31.8,26.6a2,2,0,0,0-1-2.5A2.06,2.06,0,0,0,30,24v3.8A1.82,1.82,0,0,0,31.8,26.6Z"/>
    </symbol>

    <symbol id="upvote-rocket" viewBox="0 0 21.54 37.69">
        <path d="M18.84,21.8c.53-5.71-1.4-11-3.13-14.54A31.35,31.35,0,0,0,11.62.91L11.3.59,11,.91a31.62,31.62,0,0,0-4.1,6.35C5.16,10.82,3.22,16.09,3.76,21.8L.53,25.14v10l4.09-4,2.8.1c.43.54.86,1.19,1.29,1.73v2.58l2.59,2.69,2.58-2.69V33c.43-.54.86-1.19,1.3-1.73l2.8-.1,4.09,4v-10Zm-6.79-4.95a2.23,2.23,0,0,1-.75.15,2.18,2.18,0,0,1-.75-.15,2,2,0,0,1-1.08-2.7,2,2,0,0,1,3.66,0A2,2,0,0,1,12.05,16.85Z" transform="translate(-0.53 -0.59)"/>
    </symbol>
    <!-- Only used on company edit/profile -->
    <symbol id="play" viewBox="0 0 124.512 124.512">
        <path d="M113.956 57.006l-97.4-56.2c-4-2.3-9 .6-9 5.2v112.5c0 4.6 5 7.5 9 5.2l97.4-56.2c4-2.401 4-8.2 0-10.5z"/>
    </symbol>
    <symbol id="delete" viewBox="0 0 100 100">
        <path d="M19.125 88.598a6.91 6.91 0 0 0 6.912 6.912h47.932a6.905 6.905 0 0 0 6.906-6.912V25.69h-61.75v62.908zm50.666-75.972v-6.81c0-.732-.594-1.326-1.327-1.326H31.536c-.733 0-1.327.594-1.327 1.326v6.81H14.605v6.635h70.789v-6.635H69.791z"/>
    </symbol>
    <symbol id="company" fill-rule="evenodd" clip-rule="evenodd" image-rendering="optimizeQuality" shape-rendering="geometricPrecision" text-rendering="geometricPrecision" viewBox="0 0 846.66 1058.325"><path d="M102.48 126.78l306.51-60.64v652.64h28.67V194.01l306.51 48.82v475.95h38.55v61.74H63.93v-61.74h38.55v-592zm545.76 307.56h59.53v61.74h-59.53v-61.74zm-87.09 0h59.53v61.74h-59.53v-61.74zm-87.09 0h59.53v61.74h-59.53v-61.74zm174.18-99.77h59.53v61.74h-59.53v-61.74zm-87.09 0h59.53v61.74h-59.53v-61.74zm-87.09 0h59.53v61.74h-59.53v-61.74zM137.28 479.85h236.91v34.3H137.28v-34.3zm0-88.88h236.91v34.3H137.28v-34.3zm0-88.88h236.91v34.3H137.28v-34.3zm0-88.88h236.91v34.3H137.28v-34.3z"/>
    </symbol>
    <symbol id="people" viewBox="0 0 18 17">
        <g fill="#ADADAD" fill-rule="nonzero"><path d="M5.44 8.096h.34c1.94 0 3.5-1.603 3.5-3.551V3.55C9.28 1.583 7.7 0 5.78 0h-.34c-1.94 0-3.5 1.603-3.5 3.55v.995c0 1.968 1.56 3.55 3.5 3.55zM13.6 7.548h.24c1.46 0 2.66-1.197 2.66-2.699v-.548c0-1.46-1.2-2.678-2.66-2.678h-.24c-1.46 0-2.66 1.197-2.66 2.699v.548c.02 1.46 1.2 2.678 2.66 2.678zM6.92 9.252H4.38c-2.4 0-4.36 1.989-4.36 4.423v.284c0 1.258 1 2.293 2.26 2.293h6.76c1.24 0 2.26-1.014 2.26-2.293v-.284c-.02-2.434-1.98-4.423-4.38-4.423zM14 8.481h-.68a3.9 3.9 0 0 0-2.18.67.45.45 0 0 0-.08.67 5.678 5.678 0 0 1 1.48 3.834v.04c0 .183.14.346.34.346h3.76c.74 0 1.34-.61 1.34-1.36v-.162c0-2.232-1.78-4.038-3.98-4.038z"/></g>
    </symbol>
    <symbol id="location" viewbox="0 0 13 16">
        <g fill="none" fill-rule="evenodd"><path d="M-2-1h18v18H-2z"/><path d="M11.21 2.739C10.059.989 8.219 0 6.158 0c-2.06 0-3.9.989-5.054 2.739C-.05 4.463-.32 6.643.392 8.57c.196.507.49 1.04.883 1.52L6.157 16l4.857-5.908c.393-.482.712-.989.884-1.521.736-1.928.466-4.108-.687-5.832zM6.158 8.368c-1.374 0-2.502-1.141-2.502-2.536s1.128-2.536 2.502-2.536c1.374 0 2.502 1.141 2.502 2.536S7.531 8.368 6.157 8.368z" fill="#ADADAD" fill-rule="nonzero"/></g>
    </symbol>
    <symbol id="location-round" viewBox="0 0 18 18" fill="none">
      <path d="M15.75 7.5c0 5.25-6.75 9.75-6.75 9.75s-6.75-4.5-6.75-9.75a6.75 6.75 0 0113.5 0z" stroke="#999" stroke-linecap="round" stroke-linejoin="round"/><path d="M9 9.75a2.25 2.25 0 100-4.5 2.25 2.25 0 000 4.5z" stroke="#999" stroke-linecap="round" stroke-linejoin="round"/>
    </symbol>
    <symbol width="16" height="16" viewBox="0 0 16 16" fill="none" id="home">
      <path d="M2 6l6-4.67L14 6v7.33a1.33 1.33 0 01-1.33 1.34H3.33A1.33 1.33 0 012 13.33V6z" stroke="#999" stroke-linecap="round" stroke-linejoin="round"/><path d="M6 14.67V8h4v6.67" stroke="#999" stroke-linecap="round" stroke-linejoin="round"/>
    </symbol>
    <symbol width="16" height="16" viewBox="0 0 16 16" fill="none" id="contract">
      <path d="M9.33 1.33H4a1.33 1.33 0 00-1.33 1.34v10.66A1.33 1.33 0 004 14.67h8a1.33 1.33 0 001.33-1.34v-8l-4-4z" stroke="#FD7D72" stroke-linecap="round" stroke-linejoin="round"/><path d="M9.33 1.33v4h4M10.67 8.67H5.33M10.67 11.33H5.33M6.67 6H5.33" stroke="#FD7D72" stroke-linecap="round" stroke-linejoin="round"/>
    </symbol>
    <symbol width="16" height="16" viewBox="0 0 16 16" fill="none" id="award">
      <path d="M8 10A4.67 4.67 0 108 .67 4.67 4.67 0 008 10z" stroke="#FD7D72" stroke-linecap="round" stroke-linejoin="round"/><path d="M5.47 9.26l-.8 6.07 3.33-2 3.33 2-.8-6.08" stroke="#FD7D72" stroke-linecap="round" stroke-linejoin="round"/>
    </symbol>
    <symbol width="16" height="16" viewBox="0 0 16 16" fill="none" id="globe">
      <path d="M8 14.67A6.67 6.67 0 108 1.33a6.67 6.67 0 000 13.34zM1.33 8h13.34" stroke="#FD7D72" stroke-linecap="round" stroke-linejoin="round"/><path d="M8 1.33A10.2 10.2 0 0110.67 8 10.2 10.2 0 018 14.67 10.2 10.2 0 015.33 8c.05-2.47 1-4.84 2.67-6.67z" stroke="#FD7D72" stroke-linecap="round" stroke-linejoin="round"/>
    </symbol>
    <symbol id="job-sponsorship" viewBox="0 0 378 512">
        <path d="M188.969 107.972C138.945 107.972 98.2459 148.668 98.2459 198.691C98.2459 248.719 138.945 289.414 188.969 289.414C238.992 289.414 279.687 248.719 279.687 198.691C279.687 148.668 238.992 107.972 188.969 107.972Z" />
        <path d="M377.933 260.089L350.421 198.691L377.933 137.293L319.589 103.789L305.757 37.9452L238.859 45.1366L188.968 0L139.074 45.1366L72.1795 37.9491L58.3475 103.793L0 137.293L27.5117 198.691L0 260.089L58.3475 293.593L65.8397 329.265L3.55859 461.605L68.5585 462.456L110.644 511.999L171.863 381.909L188.968 397.382L206.07 381.909L267.292 511.999L309.374 462.456L374.374 461.605L312.093 329.265L319.589 293.593L377.933 260.089ZM188.968 319.41C122.402 319.41 68.2499 265.257 68.2499 198.691C68.2499 132.125 122.402 77.9725 188.968 77.9725C255.531 77.9725 309.687 132.129 309.687 198.691C309.687 265.257 255.531 319.41 188.968 319.41V319.41Z" />
    </symbol>
    <symbol id="stat-card-applications" viewBox="0 0 74 74" fill="none">
        <circle cx="37" cy="37" r="32" stroke="#1AAEA8" stroke-opacity="0.25" stroke-width="10"/>
        <path d="M36.7542 5C54.5631 5 69 19.3269 69 37C69 54.6731 54.5631 69 36.7542 69C23.9721 69 17 62.2942 17 62.2942" stroke="#1AAEA8" stroke-width="10"/>
    </symbol>
    <symbol id="stat-card-issues" viewBox="0 0 74 74" fill="none">
        <path d="M37 5C54.6731 5 69 19.3269 69 37C69 54.6731 54.6731 69 37 69C19.3269 69 5 54.6731 5 37C5 27.5834 9.0674 19.1167 15.5412 13.2611" stroke="#1AAEA8" stroke-width="10"/>
    </symbol>
    <symbol id="stat-card-salary" viewBox="0 0 59 72" fill="none">
        <rect x="22" y="18.0344" width="15.3913" height="53.4596" fill="#1AAEA8" fill-opacity="0.25"/>
        <rect y="32.8486" width="15.3913" height="38.6455" fill="#1AAEA8" fill-opacity="0.25"/>
        <rect x="44.0605" width="14.8783" height="71.4942" fill="#1AAEA8"/>
    <symbol id="case" viewBox="0 0 20 20">
        <path  fill-rule="evenodd" clip-rule="evenodd" d="M14.282 0H5.718v2.736H1c-.552 0-1 .45-1 1.005v13.255C0 17.55.448 18 1 18h18c.552 0 1-.45 1-1.004V3.74c0-.555-.448-1.005-1-1.005h-4.718V0zm-1.85 2.736v-.878H7.568v.878h4.864zM5 9.092L1.85 6.546v9.596h16.3V6.546L15 9.092v3.285H5V9.092zm8.95-1.535l3.664-2.963H2.386L6.05 7.557h7.899zm-.8 1.857h-6.3v1.105h6.3V9.414z"/>
    </symbol>
    <symbol id="commit" viewBox="0 0 20 20">
        <path fill-rule="evenodd" clip-rule="evenodd" d="M5 7.87398C6.72523 7.42994 8 5.86384 8 4C8 1.79086 6.20914 0 4 0C1.79086 0 0 1.79086 0 4C0 5.86384 1.27477 7.42994 3 7.87398V19C3 19.5523 3.44772 20 4 20C4.55228 20 5 19.5523 5 19V7.87398ZM2 4C2 2.89543 2.89543 2 4 2C5.10457 2 6 2.89543 6 4C6 5.10457 5.10457 6 4 6C2.89543 6 2 5.10457 2 4Z"/>
        <path fill-rule="evenodd" clip-rule="evenodd" d="M12 16C12 14.1362 13.2748 12.5701 15 12.126V6C15 5.73478 14.8946 5.48043 14.7071 5.29289C14.5196 5.10536 14.2652 5 14 5H11C10.4477 5 10 4.55228 10 4C10 3.44772 10.4477 3 11 3H14C14.7956 3 15.5587 3.31607 16.1213 3.87868C16.6839 4.44129 17 5.20435 17 6V12.126C18.7252 12.5701 20 14.1362 20 16C20 18.2091 18.2091 20 16 20C13.7909 20 12 18.2091 12 16ZM14 16C14 14.8954 14.8954 14 16 14C17.1046 14 18 14.8954 18 16C18 17.1046 17.1046 18 16 18C14.8954 18 14 17.1046 14 16Z"/>
    </symbol>
    <symbol id="article" viewBox="0 0 18 22">
        <path fill-rule="evenodd" clip-rule="evenodd" d="M0.87868 0.87868C1.44129 0.31607 2.20435 0 3 0H10C10.2652 0 10.5196 0.105357 10.7071 0.292893L17.7071 7.29289C17.8946 7.48043 18 7.73478 18 8V19C18 19.7957 17.6839 20.5587 17.1213 21.1213C16.5587 21.6839 15.7957 22 15 22H3C2.20435 22 1.44129 21.6839 0.87868 21.1213C0.31607 20.5587 0 19.7957 0 19V3C0 2.20435 0.31607 1.44129 0.87868 0.87868ZM3 2C2.73478 2 2.48043 2.10536 2.29289 2.29289C2.10536 2.48043 2 2.73478 2 3V19C2 19.2652 2.10536 19.5196 2.29289 19.7071C2.48043 19.8946 2.73478 20 3 20H15C15.2652 20 15.5196 19.8946 15.7071 19.7071C15.8946 19.5196 16 19.2652 16 19V8.41421L9.58579 2H3Z"/>
        <path fill-rule="evenodd" clip-rule="evenodd" d="M10 0C10.5523 0 11 0.447715 11 1V7H17C17.5523 7 18 7.44772 18 8C18 8.55228 17.5523 9 17 9H10C9.44771 9 9 8.55228 9 8V1C9 0.447715 9.44771 0 10 0Z"/>
    </symbol>
    <symbol id="reset" viewBox="0 0 24 24">
        <path d="M16.707.293a1 1 0 10-1.414 1.414L17.586 4H6a5 5 0 00-5 5v2a1 1 0 102 0V9a3 3 0 013-3h11.586l-2.293 2.293a1 1 0 001.414 1.414l4-4A.996.996 0 0021 5L16.707.293zM16.707.293l4 4c.193.193.29.445.293.698L16.707.293zM6.688 14.293a1 1 0 010 1.414L4.395 18H16a3 3 0 003-3v-2a1 1 0 112 0v2a5 5 0 01-5 5H4.395l2.293 2.293a1 1 0 11-1.415 1.414l-4-4a1 1 0 010-1.414l4-4a1 1 0 011.415 0z"/>
    </symbol>
    <symbol id="feed" viewBox="0 0 100 125">
        <circle cx="18" cy="82" r="8"/>
        <path d="M10 10v16a64 64 0 0164 64h16a80 80 0 00-80-80z"/>
        <path d="M10 42v16a32 32 0 0132 32h16a48 48 0 00-48-48z"/>
    </symbol>
    <symbol id="menu" viewBox="0 0 26 20">
        <path d="M0 1.23288C0 0.551978 0.58203 0 1.3 0H24.7C25.418 0 26 0.551978 26 1.23288C26 1.91378 25.418 2.46575 24.7 2.46575H1.3C0.58203 2.46575 0 1.91378 0 1.23288Z"/>
        <path d="M0 10C0 9.3191 0.58203 8.76712 1.3 8.76712H24.7C25.418 8.76712 26 9.3191 26 10C26 10.6809 25.418 11.2329 24.7 11.2329H1.3C0.58203 11.2329 0 10.6809 0 10Z"/>
        <path d="M6.5 17.5342C5.78203 17.5342 5.2 18.0862 5.2 18.7671C5.2 19.448 5.78203 20 6.5 20H24.7C25.418 20 26 19.448 26 18.7671C26 18.0862 25.418 17.5342 24.7 17.5342H6.5Z"/>
    </symbol>
    <symbol id="clock" fill="#454E54" viewBox="0 0 18 18">
        <path d="m9.75 4.5c0-0.41421-0.33579-0.75-0.75-0.75s-0.75 0.33579-0.75 0.75v4.5c0 0.28408 0.1605 0.54378 0.41459 0.67082l3 1.5c0.3705 0.1853 0.821 0.0351 1.0062-0.3354 0.1853-0.3705 0.0351-0.821-0.3354-1.0062l-2.5854-1.2927v-4.0365z"/>
        <path d="m9 0.75c-4.5564 0-8.25 3.6936-8.25 8.25 0 4.5563 3.6936 8.25 8.25 8.25 4.5563 0 8.25-3.6937 8.25-8.25 0-4.5564-3.6937-8.25-8.25-8.25zm-6.75 8.25c0-3.7279 3.0221-6.75 6.75-6.75 3.7279 0 6.75 3.0221 6.75 6.75 0 3.7279-3.0221 6.75-6.75 6.75-3.7279 0-6.75-3.0221-6.75-6.75z" clip-rule="evenodd" fill-rule="evenodd"/>
    </symbol>
    <symbol id="calendar" fill="none" viewBox="0 0 24 24">
        <path d="m17 2c0-0.55228-0.4477-1-1-1s-1 0.44772-1 1v1h-6v-1c0-0.55228-0.44772-1-1-1s-1 0.44772-1 1v1h-2.7778c-1.6779 0-3.2222 1.2466-3.2222 3v14c0 1.7534 1.5444 3 3.2222 3h15.556c1.6779 0 3.2222-1.2466 3.2222-3v-14c0-1.7534-1.5443-3-3.2222-3h-2.7778v-1zm4 7v-3c0-0.45579-0.4455-1-1.2222-1h-2.7778v1c0 0.55228-0.4477 1-1 1s-1-0.44772-1-1v-1h-6v1c0 0.55228-0.44772 1-1 1s-1-0.44772-1-1v-1h-2.7778c-0.77672 0-1.2222 0.54421-1.2222 1v3h18zm-18 2h18v9c0 0.4558-0.4455 1-1.2222 1h-15.556c-0.77672 0-1.2222-0.5442-1.2222-1v-9z" clip-rule="evenodd" fill="#454E54" fill-rule="evenodd"/>
    </symbol>
    <symbol id="pin" fill="#454E54" viewBox="0 0 16 18">
        <path d="m7.5841 17.874s4e-4 2e-4 0.41643-0.6238l0.41602 0.624c-0.25192 0.168-0.58053 0.1677-0.83245-2e-4z"/>
        <path d="m8.0005 4.5c-1.6569 0-3 1.3432-3 3s1.3431 3 3 3c1.6568 0 3-1.3432 3-3s-1.3432-3-3-3zm-1.5 3c0-0.82843 0.67157-1.5 1.5-1.5s1.5 0.67157 1.5 1.5-0.67157 1.5-1.5 1.5-1.5-0.67157-1.5-1.5z" clip-rule="evenodd" fill-rule="evenodd"/>
        <path d="m7.5841 17.874 0.41643-0.6238c0.41602 0.624 0.41699 0.6234 0.41699 0.6234l0.00158-0.0011 5e-3 -0.0033 0.01719-0.0116c0.0146-0.01 0.03543-0.0242 0.06207-0.0427 0.05327-0.0369 0.12982-0.0906 0.22632-0.1603 0.19294-0.1393 0.46608-0.3427 0.79273-0.6028 0.65213-0.5193 1.5235-1.2695 2.3976-2.192 1.7173-1.8128 3.5805-4.4331 3.5805-7.3596 0-1.9891-0.7902-3.8968-2.1967-5.3033-1.4065-1.4065-3.3142-2.1967-5.3033-2.1967-1.9891 0-3.8968 0.79018-5.3033 2.1967-1.4065 1.4065-2.1967 3.3142-2.1967 5.3033 0 2.9265 1.8632 5.5468 3.5805 7.3596 0.87401 0.9225 1.7455 1.6727 2.3976 2.192 0.32665 0.2601 0.59979 0.4635 0.79272 0.6028 0.09651 0.0697 0.17306 0.1234 0.22633 0.1603 0.02664 0.0185 0.04746 0.0327 0.06207 0.0427l0.01719 0.0116 0.00499 0.0033 0.00215 0.0015zm-3.8262-14.616c1.1252-1.1252 2.6513-1.7574 4.2426-1.7574s3.1174 0.63214 4.2426 1.7574 1.7574 2.6513 1.7574 4.2426c0 2.3235-1.5118 4.5782-3.1695 6.3279-0.8135 0.8587-1.6295 1.5617-2.243 2.0502-0.22833 0.1818-0.42776 0.3333-0.58749 0.4513-0.15973-0.118-0.35917-0.2695-0.58749-0.4513-0.61351-0.4885-1.4296-1.1915-2.243-2.0502-1.6577-1.7497-3.1695-4.0044-3.1695-6.3279 0-1.5913 0.63214-3.1174 1.7574-4.2426z" clip-rule="evenodd" fill-rule="evenodd"/>
    </symbol>
    <symbol id="save" fill="none" viewBox="0 0 16 20">
        <path d="M3 2C2.73478 2 2.48043 2.10536 2.29289 2.29289C2.10536 2.48043 2 2.73478 2 3V17.0568L7.41876 13.1863C7.76646 12.9379 8.23354 12.9379 8.58124 13.1863L14 17.0568V3C14 2.73478 13.8946 2.48043 13.7071 2.29289C13.5196 2.10536 13.2652 2 13 2H3ZM0.87868 0.87868C1.44129 0.31607 2.20435 0 3 0H13C13.7956 0 14.5587 0.31607 15.1213 0.87868C15.6839 1.44129 16 2.20435 16 3V19C16 19.3746 15.7907 19.7178 15.4576 19.8892C15.1245 20.0606 14.7236 20.0315 14.4188 19.8137L8 15.2289L1.58124 19.8137C1.27642 20.0315 0.875489 20.0606 0.542418 19.8892C0.209347 19.7178 0 19.3746 0 19V3C0 2.20435 0.31607 1.44129 0.87868 0.87868Z" clip-rule="evenodd" fill="#454E54" fill-rule="evenodd"/>
    </symbol>
    <symbol id="sponsorship" fill="none" viewBox="0 0 24 24">
        <path d="m3.1395 14.355c-1.9087-1.4621-3.1395-3.7646-3.1395-6.3547 0-4.4183 3.5817-8 8-8 4.4183 0 8 3.5817 8 8 0 2.5895-1.2303 4.8917-3.1383 6.3538l1.1296 8.5147c0.0505 0.3806-0.1214 0.7565-0.4423 0.9673s-0.7342 0.2192-1.0635 0.0217l-4.4855-2.6913-4.4855 2.6913c-0.32927 0.1976-0.74259 0.1891-1.0635-0.0217-0.32095-0.2108-0.49282-0.5868-0.44226-0.9675l1.1308-8.5136zm-1.1395-6.3547c0-3.3137 2.6863-6 6-6 3.3137 0 6 2.6863 6 6 0 2.0815-1.0599 3.9154-2.6695 4.9915-0.057 0.0295-0.1106 0.0643-0.1603 0.1035-0.9198 0.5736-2.0063 0.905-3.1702 0.905-3.3137 0-6-2.6863-6-6zm8.9861 7.4241c-0.9226 0.3714-1.9305 0.5759-2.9861 0.5759-1.0552 0-2.0626-0.2043-2.985-0.5755l-0.75052 5.6506 3.2211-1.9326c0.31668-0.19 0.71231-0.19 1.029 0l3.2214 1.9328-0.7498-5.6512z" clip-rule="evenodd" fill="#454E54" fill-rule="evenodd"/>
    </symbol>
    <symbol id="world" fill="none" stroke="#454E54" stroke-linecap="round" stroke-linejoin="round" stroke-width="1.1" viewBox="0 0 16 16">
        <path d="M8 14.67A6.67 6.67 0 108 1.33a6.67 6.67 0 000 13.34zM1.33 8h13.34"/>
        <path d="M8 1.33A10.2 10.2 0 0110.67 8 10.2 10.2 0 018 14.67 10.2 10.2 0 015.33 8c.05-2.47 1-4.84 2.67-6.67z"/>
    </symbol>
    <symbol id="thumbsup" fill="none" viewBox="0 0 22 22">
        <path d="m11.398 0.012527c0.5317 0.055442 1.0239 0.29385 1.4299 0.69991 0.7502 0.75015 1.1716 1.7676 1.1716 2.8284v3h4.6549c0.4327-4e-3 0.8613 0.08567 1.2561 0.26289 0.3968 0.17807 0.7501 0.44028 1.0355 0.76845 0.2853 0.32817 0.4959 0.71446 0.6172 1.1321 0.1212 0.41765 0.1502 0.85666 0.085 1.2866l-1.38 8.9999v0c-0.1086 0.715-0.4721 1.3676-1.0231 1.836-0.5498 0.4673-1.2495 0.7207-1.9708 0.7141h-14.275c-0.79565 0-1.5587-0.3161-2.1213-0.8787s-0.87868-1.3257-0.87868-2.1213v-7c0-0.7957 0.31607-1.5588 0.87868-2.1214s1.3257-0.87868 2.1213-0.87868h2.3501l2.7791-6.2531c0.36996-0.83241 1.0362-1.5975 1.8484-1.9986 0.41499-0.20493 0.90299-0.33067 1.4208-0.27668zm-6.3985 10.528h-2c-0.26522 0-0.51957 0.1053-0.70711 0.2929-0.18753 0.1875-0.29289 0.4418-0.29289 0.7071v7c0 0.2652 0.10536 0.5195 0.29289 0.7071 0.18754 0.1875 0.44189 0.2929 0.70711 0.2929h2v-9zm2 9h10.291c0.2412 0.0027 0.4752-0.0818 0.659-0.238 0.1837-0.1562 0.3048-0.3735 0.341-0.612l1.38-9.0001v0c0.0217-0.1432 0.0121-0.28979-0.0283-0.42888-0.0404-0.13921-0.1106-0.26797-0.2057-0.37737-0.0952-0.10939-0.2129-0.19679-0.3452-0.25614-0.1322-0.05936-0.2758-0.08925-0.4208-0.08761l-0.0113 1.3e-4 -5.66-7e-5c-0.5523 0-1-0.44771-1-1v-4c0-0.53043-0.2107-1.0391-0.5858-1.4142-0.1005-0.10051-0.1736-0.11974-0.2231-0.12491-0.0635-0.00662-0.1726 0.00407-0.3278 0.08072-0.3281 0.16204-0.6945 0.54073-0.90641 1.0176l-2.9569 6.653v9.7878z" clip-rule="evenodd" fill="#454E54" fill-rule="evenodd"/>
    </symbol>
    <symbol id="network" fill="none" viewBox="0 0 20 22">
        <path d="m13.158 6.8149c0.7249 0.73181 1.7305 1.1851 2.8419 1.1851 2.2091 0 4-1.7909 4-4s-1.7909-4-4-4-4 1.7909-4 4c0 0.37703 0.0522 0.74188 0.1497 1.0877l-5.3077 3.0974c-0.7249-0.73185-1.7305-1.1852-2.842-1.1852-2.2091 0-4 1.7909-4 4 0 2.2091 1.7909 4 4 4 1.1116 0 2.1174-0.4535 2.8423-1.1855l5.3086 3.0934c-0.0983 0.3471-0.1509 0.7135-0.1509 1.0921 0 2.2091 1.7909 4 4 4s4-1.7909 4-4-1.7909-4-4-4c-1.1098 0-2.1141 0.452-2.8387 1.1819l-5.3108-3.0947c0.0974-0.3457 0.14951-0.7104 0.14951-1.0872 0-0.377-0.05216-0.7418-0.14964-1.0876l5.3077-3.0975zm2.8419-4.8149c-1.1046 0-2 0.89543-2 2 0 0.3474 0.0886 0.67412 0.2444 0.95879 0.0101 0.01538 0.0199 0.03113 0.0293 0.04723 0.0093 0.01598 0.0181 0.03211 0.0265 0.04837 0.3529 0.56768 0.9822 0.94561 1.6998 0.94561 1.1046 0 2-0.89543 2-2s-0.8954-2-2-2zm-10.3 7.9453c0.00841 0.01641 0.01732 0.03269 0.02673 0.04882 0.00947 0.01622 0.01933 0.03212 0.02956 0.04762 0.15564 0.2845 0.24412 0.6111 0.24412 0.9583 0 0.3474-0.0886 0.6742-0.24444 0.9589-0.01023 0.0155-0.02009 0.0314-0.02956 0.0477-0.00918 0.0157-0.01788 0.0316-0.02611 0.0477-0.35286 0.5677-0.98224 0.9457-1.6999 0.9457-1.1046 0-2-0.8954-2-2 0-1.1046 0.89543-2 2-2 0.71745 0 1.3467 0.37777 1.6996 0.94526zm8.3004 8.0547c0-0.3251 0.0776-0.632 0.2152-0.9034 0.0247-0.0325 0.0477-0.0669 0.0688-0.1031 0.0202-0.0347 0.0381-0.0701 0.0538-0.1061 0.3589-0.5352 0.9694-0.8874 1.6622-0.8874 1.1046 0 2 0.8954 2 2s-0.8954 2-2 2-2-0.8954-2-2z" clip-rule="evenodd" fill="#454E54" fill-rule="evenodd"/>
    </symbol>
    <symbol id="suitcase" viewBox="0 0 20 20">
        <path d="m7.6699 0c-1.1046 0-2 0.89543-2 2v0.80005h-4.6426c-0.55228 0-1 0.44771-1 1v1.345l-0.027344 0.03397 0.027344 0.02201v12.799c0 0.5523 0.44772 1 1 1h18c0.5523 0 1-0.4477 1-1v-12.799l0.0268-0.02156-0.0268-0.03328v-1.3456c0-0.55229-0.4477-1-1-1h-4.6431v-0.80005c0-1.1046-0.8954-2-2-2h-4.7143zm4.7143 2.8v-0.80005h-4.7143v0.80005h4.7143zm4.9512 2h-14.617l3.9751 3.2h6.6665l3.9751-3.2zm-2.3081 4.4255v4.5745h-10v-4.574l-3-2.415v10.189h16v-10.189l-3 2.415zm-2 0.77447h-6v1.8h6v-1.8z" clip-rule="evenodd" fill-rule="evenodd"/>
    </symbol>
    <symbol id="document" viewBox="0 0 18 22">
        <path d="M0.87868 0.87868C1.44129 0.31607 2.20435 0 3 0H10C10.2652 0 10.5196 0.105357 10.7071 0.292893L17.7071 7.29289C17.8946 7.48043 18 7.73478 18 8V19C18 19.7957 17.6839 20.5587 17.1213 21.1213C16.5587 21.6839 15.7957 22 15 22H3C2.20435 22 1.44129 21.6839 0.87868 21.1213C0.31607 20.5587 0 19.7957 0 19V3C0 2.20435 0.31607 1.44129 0.87868 0.87868ZM3 2C2.73478 2 2.48043 2.10536 2.29289 2.29289C2.10536 2.48043 2 2.73478 2 3V19C2 19.2652 2.10536 19.5196 2.29289 19.7071C2.48043 19.8946 2.73478 20 3 20H15C15.2652 20 15.5196 19.8946 15.7071 19.7071C15.8946 19.5196 16 19.2652 16 19V8.41421L9.58579 2H3Z" clip-rule="evenodd" fill-rule="evenodd"/>
        <path d="m10 0c0.5523 0 1 0.44772 1 1v6h6c0.5523 0 1 0.44772 1 1s-0.4477 1-1 1h-7c-0.55229 0-1-0.44772-1-1v-7c0-0.55228 0.44771-1 1-1z" clip-rule="evenodd" fill-rule="evenodd"/>
    </symbol>
    <symbol id="rocketship" viewBox="0 0 18 24">
        <path d="m8.7458 22.921c1.2315-0.9162 2.3098-2.0315 3.189-3.2993 1.8117 0.7572 3.297 2.1399 4.1856 3.8782 0.577-1.1288 0.9025-2.4077 0.9025-3.7624 0-2.4261-1.0438-4.6086-2.7069-6.1224 0.1055-0.7026 0.1601-1.4222 0.1601-2.1546 0-4.7049-2.2557-8.8756-5.7303-11.461-3.4746 2.585-5.7303 6.7557-5.7303 11.461 0 0.7324 0.05464 1.452 0.16011 2.1546-1.6631 1.5138-2.7069 3.6963-2.7069 6.1224 0 1.3547 0.3255 2.6336 0.90251 3.7624 0.88859-1.7383 2.3739-3.121 4.1856-3.8782 0.87912 1.2678 1.9574 2.3831 3.1889 3.2993zm0-11.46c1.4066 0 2.5468-1.1402 2.5468-2.5468 0-1.4066-1.1402-2.5468-2.5468-2.5468-1.4065 0-2.5468 1.1402-2.5468 2.5468 0 1.4066 1.1403 2.5468 2.5468 2.5468z" clip-rule="evenodd" fill-rule="evenodd"/>
    </symbol>
    <symbol id="git" viewBox="0 0 23 23">
        <path d="m7 9.874c1.7252-0.44404 3-2.0101 3-3.874 0-2.2091-1.7909-4-4-4s-4 1.7909-4 4c0 1.8638 1.2748 3.4299 3 3.874v11.126c0 0.5523 0.44772 1 1 1s1-0.4477 1-1v-11.126zm-3-3.874c0-1.1046 0.89543-2 2-2s2 0.89543 2 2-0.89543 2-2 2-2-0.89543-2-2z" clip-rule="evenodd" fill-rule="evenodd"/>
        <path d="m14 18c0-1.8638 1.2748-3.4299 3-3.874v-6.126c0-0.26522-0.1054-0.51957-0.2929-0.70711-0.1875-0.18753-0.4419-0.29289-0.7071-0.29289h-3c-0.5523 0-1-0.44772-1-1s0.4477-1 1-1h3c0.7956 0 1.5587 0.31607 2.1213 0.87868s0.8787 1.3257 0.8787 2.1213v6.126c1.7252 0.4441 3 2.0102 3 3.874 0 2.2091-1.7909 4-4 4s-4-1.7909-4-4zm2 0c0-1.1046 0.8954-2 2-2s2 0.8954 2 2-0.8954 2-2 2-2-0.8954-2-2z" clip-rule="evenodd" fill-rule="evenodd"/>
    </symbol>
    <symbol id="couple" viewBox="0 0 23 23">
        <path d="m9 0c-2.7614 0-5 2.2386-5 5s2.2386 5 5 5c2.7614 0 5-2.2386 5-5s-2.2386-5-5-5zm-3 5c0-1.6568 1.3432-3 3-3 1.6569 0 3 1.3432 3 3s-1.3431 3-3 3c-1.6568 0-3-1.3432-3-3z" clip-rule="evenodd"  fill-rule="evenodd"/>
        <path d="m5 12c-1.3261 0-2.5978 0.5268-3.5355 1.4645-0.93769 0.9376-1.4645 2.2094-1.4645 3.5355v2c0 0.5523 0.44772 1 1 1 0.55228 0 1-0.4477 1-1v-2c0-0.7956 0.31607-1.5587 0.87868-2.1213s1.3257-0.8787 2.1213-0.8787h8c0.7956 0 1.5587 0.3161 2.1213 0.8787s0.8787 1.3256 0.8787 2.1213v2c0 0.5523 0.4477 1 1 1s1-0.4477 1-1v-2c0-1.3261-0.5268-2.5979-1.4645-3.5355-0.9376-0.9377-2.2094-1.4645-3.5355-1.4645h-8z" />
        <path d="m19.032 12.88c0.1381-0.5347 0.6835-0.8563 1.2182-0.7182 1.0727 0.2769 2.023 0.9023 2.7017 1.7779 0.6788 0.8755 1.0475 1.9517 1.0483 3.0596v2.0007c0 0.5523-0.4477 1-1 1-0.5522 0-1-0.4477-1-1v-1.9993c-5e-4 -0.6646-0.2218-1.3105-0.6289-1.8357-0.4073-0.5254-0.9775-0.9006-1.6211-1.0668-0.5347-0.138-0.8563-0.6834-0.7182-1.2182z"/>
        <path d="m16.248 0.16125c-0.535-0.13699-1.0798 0.18568-1.2168 0.72071-0.137 0.53503 0.1857 1.0798 0.7207 1.2168 0.6453 0.16523 1.2173 0.54053 1.6257 1.0667 0.4085 0.52621 0.6302 1.1734 0.6302 1.8395s-0.2217 1.3133-0.6302 1.8395c-0.4084 0.52621-0.9804 0.90151-1.6257 1.0667-0.535 0.13699-0.8577 0.68176-0.7207 1.2168s0.6818 0.8577 1.2168 0.72071c1.0755-0.27538 2.0288-0.90088 2.7095-1.7779 0.6808-0.87701 1.0503-1.9556 1.0503-3.0659s-0.3695-2.1888-1.0503-3.0659c-0.6807-0.87701-1.634-1.5025-2.7095-1.7779z"/>
    </symbol>
    <symbol id="union" viewBox="0 0 25 25">
        <path d="M4.5 6C4.22386 6 4 6.22386 4 6.5V7.5C4 7.77614 4.22386 8 4.5 8H5.5C5.77614 8 6 7.77614 6 7.5V6.5C6 6.22386 5.77614 6 5.5 6H4.5Z" />
        <path d="m4.5 11c-0.27614 0-0.5 0.2239-0.5 0.5v1c0 0.2761 0.22386 0.5 0.5 0.5h1c0.27614 0 0.5-0.2239 0.5-0.5v-1c0-0.2761-0.22386-0.5-0.5-0.5h-1z" />
        <path d="m4.5 16c-0.27614 0-0.5 0.2239-0.5 0.5v1c0 0.2761 0.22386 0.5 0.5 0.5h1c0.27614 0 0.5-0.2239 0.5-0.5v-1c0-0.2761-0.22386-0.5-0.5-0.5h-1z" />
        <path d="M7.5 6C7.22386 6 7 6.22386 7 6.5V7.5C7 7.77614 7.22386 8 7.5 8H8.5C8.77614 8 9 7.77614 9 7.5V6.5C9 6.22386 8.77614 6 8.5 6H7.5Z" />
        <path d="m7.5 11c-0.27614 0-0.5 0.2239-0.5 0.5v1c0 0.2761 0.22386 0.5 0.5 0.5h1c0.27614 0 0.5-0.2239 0.5-0.5v-1c0-0.2761-0.22386-0.5-0.5-0.5h-1z" />
        <path d="m7.5 16c-0.27614 0-0.5 0.2239-0.5 0.5v1c0 0.2761 0.22386 0.5 0.5 0.5h1c0.27614 0 0.5-0.2239 0.5-0.5v-1c0-0.2761-0.22386-0.5-0.5-0.5h-1z" />
        <path d="m2 2c-0.55228 0-1 0.44772-1 1v18c0 0.5523 0.44772 1 1 1h9c0.5523 0 1-0.4477 1-1v-18c0-0.55228-0.4477-1-1-1h-9zm1 18v-16h7v16h-7z" clip-rule="evenodd" />
        <path d="m16 9.5c0-0.27614 0.2239-0.5 0.5-0.5h1c0.2761 0 0.5 0.22386 0.5 0.5v1c0 0.2761-0.2239 0.5-0.5 0.5h-1c-0.2761 0-0.5-0.2239-0.5-0.5v-1z" />
        <path d="m16 13.5c0-0.2761 0.2239-0.5 0.5-0.5h1c0.2761 0 0.5 0.2239 0.5 0.5v1c0 0.2761-0.2239 0.5-0.5 0.5h-1c-0.2761 0-0.5-0.2239-0.5-0.5v-1z" />
        <path d="m16 17.5c0-0.2761 0.2239-0.5 0.5-0.5h1c0.2761 0 0.5 0.2239 0.5 0.5v1c0 0.2761-0.2239 0.5-0.5 0.5h-1c-0.2761 0-0.5-0.2239-0.5-0.5v-1z" />
        <path d="m19 9.5c0-0.27614 0.2239-0.5 0.5-0.5h1c0.2761 0 0.5 0.22386 0.5 0.5v1c0 0.2761-0.2239 0.5-0.5 0.5h-1c-0.2761 0-0.5-0.2239-0.5-0.5v-1z" />
        <path d="m19 13.5c0-0.2761 0.2239-0.5 0.5-0.5h1c0.2761 0 0.5 0.2239 0.5 0.5v1c0 0.2761-0.2239 0.5-0.5 0.5h-1c-0.2761 0-0.5-0.2239-0.5-0.5v-1z" />
        <path d="m19 17.5c0-0.2761 0.2239-0.5 0.5-0.5h1c0.2761 0 0.5 0.2239 0.5 0.5v1c0 0.2761-0.2239 0.5-0.5 0.5h-1c-0.2761 0-0.5-0.2239-0.5-0.5v-1z" />
        <path d="m14 5c-0.5523 0-1 0.44772-1 1v15c0 0.5523 0.4477 1 1 1h9c0.5523 0 1-0.4477 1-1v-15c0-0.55228-0.4477-1-1-1h-9zm1 15v-13h7v13h-7z" clip-rule="evenodd" fill-rule="evenodd"/>
    </symbol>
    <symbol id="issue-state" viewBox="0 0 18 18">
        <path d="m0 0.8c0-0.44183 0.35817-0.8 0.8-0.8h5.6c0.2201 0 0.43048 0.090684 0.58161 0.2507l6.8 7.2c0.2912 0.30832 0.2912 0.79028 0 1.0986l-6.8 7.2c-0.15113 0.16-0.36151 0.2507-0.58161 0.2507h-5.6c-0.44183 0-0.8-0.3582-0.8-0.8v-14.4zm1.6 0.8v12.8h4.4552l6.0444-6.4-6.0444-6.4h-4.4552z" clip-rule="evenodd" fill-rule="evenodd"/>
    </symbol>
    <symbol id="issue-level-beginner" viewBox="0 0 21 21">
        <rect y="12" width="4.66667" height="8" rx="1" fill="#454E54"/>
        <rect x="8.16797" y="6.66663" width="4.66667" height="13.3333" rx="1" fill="#EAEAEA"/>
        <rect x="16.332" width="4.66667" height="20" rx="1" fill="#EAEAEA"/>
    </symbol>
    <symbol id="issue-level-intermediate" viewBox="0 0 21 21">
        <rect y="12" width="4.66667" height="8" rx="1" fill="#454E54"/>
        <rect x="8.16797" y="6.66663" width="4.66667" height="13.3333" rx="1" fill="#454E54"/>
        <rect x="16.332" width="4.66667" height="20" rx="1" fill="#EAEAEA"/>
    </symbol>
    <symbol id="issue-level-advanced" viewBox="0 0 21 21">
        <rect y="12" width="4.66667" height="8" rx="1" fill="#454E54"/>
        <rect x="8.16797" y="6.66663" width="4.66667" height="13.3333" rx="1" fill="#454E54"/>
        <rect x="16.332" width="4.66667" height="20" rx="1" fill="#454E54"/>
    </symbol>
</svg>
