<?xml version="1.0" encoding="UTF-8" standalone="no"?>
<svg>
    <symbol id="cp-infrastructure" viewBox="0 0 22 24"><g fill="none" fill-rule="evenodd"><path d="M-1 0h24v24H-1z"/><path d="M2.75 18.75h10.5a1.5 1.5 0 0 1 1.5 1.5v1.5a1.5 1.5 0 0 1-1.5 1.5H2.75a1.5 1.5 0 0 1-1.5-1.5v-1.5a1.5 1.5 0 0 1 1.5-1.5zM2.75 11.25h10.5a1.5 1.5 0 0 1 1.5 1.5v1.5a1.5 1.5 0 0 1-1.5 1.5H2.75a1.5 1.5 0 0 1-1.5-1.5v-1.5a1.5 1.5 0 0 1 1.5-1.5zM2.75 3.75h10.5a1.5 1.5 0 0 1 1.5 1.5v1.5a1.5 1.5 0 0 1-1.5 1.5H2.75a1.5 1.5 0 0 1-1.5-1.5v-1.5a1.5 1.5 0 0 1 1.5-1.5zM14.75 21.75h4.5a1.5 1.5 0 0 0 1.5-1.5V.75M14.75 14.25h6M14.75 6.75h6" stroke="#ADADAD" stroke-width="1.5" stroke-linecap="round" stroke-linejoin="round"/></g></symbol>
    <symbol id="cp-ops" viewBox="0 0 24 24"><g stroke="#ADADAD" stroke-width="1.5" fill="none" fill-rule="evenodd" stroke-linecap="round" stroke-linejoin="round"><path d="M13.5 6.748a3.75 3.75 0 1 1 0 7.5 3.75 3.75 0 0 1 0-7.5zM21 .748a2.25 2.25 0 1 1 0 4.5 2.25 2.25 0 0 1 0-4.5zM21 13.498a2.25 2.25 0 1 1 0 4.5 2.25 2.25 0 0 1 0-4.5zM13.5 18.748a2.25 2.25 0 1 1 0 4.5 2.25 2.25 0 0 1 0-4.5zM3 18.748a2.25 2.25 0 1 1 0 4.5 2.25 2.25 0 0 1 0-4.5zM3.75 2.998a2.25 2.25 0 1 1 0 4.5 2.25 2.25 0 0 1 0-4.5zM16.151 7.848l3.26-3.26M16.794 12.292l2.285 2.285M13.5 14.248v4.5M10.851 13.147L4.59 19.408M10.001 9.149L5.61 6.514"/></g></symbol>
    <symbol id="cp-software" viewBox="0 0 24 24"><g fill="none" fill-rule="evenodd"><path d="M0 0h24v24H0z"/><path d="M12 15.751v7.5M4.5 23.251h15M22.875 22.5a.375.375 0 1 0 .002 0h-.002M1.125 22.5a.375.375 0 1 0 .002 0h-.002M12 .751c3.728 0 6.75 1.343 6.75 3s-3.022 3-6.75 3-6.75-1.343-6.75-3 3.022-3 6.75-3z" stroke="#ADADAD" stroke-width="1.5" stroke-linecap="round" stroke-linejoin="round"/><path d="M5.25 3.751v4.5c0 1.657 3.022 3 6.75 3s6.75-1.343 6.75-3v-4.5" stroke="#ADADAD" stroke-width="1.5" stroke-linecap="round" stroke-linejoin="round"/><path d="M5.25 8.251v4.5c0 1.657 3.022 3 6.75 3s6.75-1.343 6.75-3v-4.5" stroke="#ADADAD" stroke-width="1.5" stroke-linecap="round" stroke-linejoin="round"/></g></symbol>
    <symbol id="cp-tools" viewBox="0 0 24 24"><g fill="none" fill-rule="evenodd"><path d="M0 0h24v24H0z"/><path d="M9.4 16.742L16.741 9.4a4.55 4.55 0 0 0 6.066-6.066l-1.425 1.429a1.516 1.516 0 0 1-2.144-2.144l1.424-1.425A4.55 4.55 0 0 0 14.6 7.26L7.259 14.6a4.55 4.55 0 0 0-6.066 6.066l1.425-1.424a1.516 1.516 0 0 1 2.144 2.144l-1.424 1.422A4.55 4.55 0 0 0 9.4 16.742z" stroke="#ADADAD" stroke-width="1.5" stroke-linecap="round" stroke-linejoin="round"/></g></symbol>
    <symbol id="cp-culture" viewBox="0 0 24 16"><g fill="none" fill-rule="evenodd"><path d="M0-4h24v24H0z"/><path d="M20.29 10.34l-5.16.986M14.416 4.478l-3.468 1.146a1.15 1.15 0 0 1-1.405-.611 1.165 1.165 0 0 1 .529-1.53l3.359-1.689a2.342 2.342 0 0 1 1.861-.108l4.973 1.819" stroke="#ADADAD" stroke-width="1.5" stroke-linecap="round" stroke-linejoin="round"/><path d="M3.685 10.348H6.13l3.512 3.936A1.343 1.343 0 0 0 12 13.408v-.615l.175.07a1.656 1.656 0 0 0 2.271-1.537h.489a1.468 1.468 0 0 0 1.174-2.348L12.97 4.956M10.583 3.225l-.358-.295a2.098 2.098 0 0 0-2.024-.258L3.75 4.452" stroke="#ADADAD" stroke-width="1.5" stroke-linecap="round" stroke-linejoin="round"/><path d="M.75 2.75h2a.96.96 0 0 1 1 .916v6.417a.962.962 0 0 1-1 .917h-2M23.25 11h-2a.962.962 0 0 1-1-.917V3.666a.96.96 0 0 1 1-.916h2M12 12.793l-.978-.978M14.446 11.326l-1.468-1.468" stroke="#ADADAD" stroke-width="1.5" stroke-linecap="round" stroke-linejoin="round"/></g></symbol>
    <symbol id="cp-diversity" viewBox="0 0 24 24"><g stroke="#ADADAD" stroke-width="1.5" fill="none" fill-rule="evenodd" stroke-linecap="round" stroke-linejoin="round"><path d="M12 2.25a3 3 0 1 1 0 6 3 3 0 0 1 0-6zM15.75 15.75V13.5a3.75 3.75 0 0 0-7.5 0v2.25h1.5l.75 6h3l.75-6h1.5zM6 18L.75 23.25M23.25 6.75v-6h-6M.75 17.25v6h6M23.25.75L18 6M18 18l5.25 5.25M.75 6.75v-6h6M23.25 17.25v6h-6M.75.75L6 6"/></g></symbol>
    <symbol id="cp-extra" viewBox="0 0 22 24"><g fill="none" fill-rule="evenodd"><path d="M-1 0h24v24H-1z"/><path d="M17.75 13.5H4.25v8.25a1.5 1.5 0 0 0 1.5 1.5h10.5a1.5 1.5 0 0 0 1.5-1.5V13.5zM3.5 9h15a.75.75 0 0 1 .75.75v3a.75.75 0 0 1-.75.75h-15a.75.75 0 0 1-.75-.75v-3A.75.75 0 0 1 3.5 9zM11 9v14.25M11 2.25V.75M16.25 3.311l1.061-1.061M19.307 6.287l1.386-.574M5.75 3.311L4.689 2.25M2.693 6.287l-1.386-.574" stroke="#ADADAD" stroke-width="1.5" stroke-linecap="round" stroke-linejoin="round"/></g></symbol>
    <symbol id="cp-financial" viewBox="0 0 24 24"><g fill="none" fill-rule="evenodd"><path d="M0 0h24v24H0z"/><path d="M23.25 10.5a3 3 0 0 1-3 3M6 6.8a8.316 8.316 0 0 0-3.4 4.45H.75v6h2.49a8.466 8.466 0 0 0 2.01 2.372V22.5c0 .414.336.75.75.75h1.5a.75.75 0 0 0 .75-.75v-1.241a9.51 9.51 0 0 0 6 .011v1.23c0 .414.336.75.75.75h1.5a.75.75 0 0 0 .75-.75v-2.863a7.94 7.94 0 0 0 3-6.137 8.054 8.054 0 0 0-3.757-6.706M8.25 7.5a6.761 6.761 0 0 1 6 0" stroke="#ADADAD" stroke-width="1.5" stroke-linecap="round" stroke-linejoin="round"/><path d="M11.25.75a3 3 0 1 1 0 6 3 3 0 0 1 0-6z" stroke="#ADADAD" stroke-width="1.5" stroke-linecap="round" stroke-linejoin="round"/></g></symbol>
    <symbol id="cp-health-and-wellness" viewBox="0 0 24 24"><g fill="none" fill-rule="evenodd"><path d="M0 0h24v24H0z"/><path d="M13.068 12.418a1.5 1.5 0 0 1-2.121.015l-.015-.015-5.324-5.4A3.6 3.6 0 0 1 4.9 2.781a3.841 3.841 0 0 1 6.057-.954L12 2.841l1.044-1.014a3.842 3.842 0 0 1 6.057.954 3.6 3.6 0 0 1-.709 4.241l-5.324 5.396zM3.75 23.25l-2.014-2.381a4.501 4.501 0 0 1-.986-2.811v-5.172a1.5 1.5 0 0 1 3 0v3.75" stroke="#ADADAD" stroke-width="1.5" stroke-linecap="round" stroke-linejoin="round"/><path d="M8.25 23.25v-3c0-.89-.263-1.76-.757-2.5l-1.142-1.71a1.4 1.4 0 0 0-1.977-.44 1.4 1.4 0 0 0-.474 1.786l1.352 2.25M20.25 23.25l2.014-2.381a4.501 4.501 0 0 0 .986-2.811v-5.172a1.5 1.5 0 0 0-3 0v3.75" stroke="#ADADAD" stroke-width="1.5" stroke-linecap="round" stroke-linejoin="round"/><path d="M15.75 23.25v-3c0-.89.263-1.76.757-2.5l1.142-1.712a1.401 1.401 0 0 1 1.977-.445 1.4 1.4 0 0 1 .476 1.791l-1.352 2.25" stroke="#ADADAD" stroke-width="1.5" stroke-linecap="round" stroke-linejoin="round"/></g></symbol>
    <symbol id="cp-parents" viewBox="0 0 24 22"><g fill="none" fill-rule="evenodd"><path d="M0-1h24v24H0z"/><path d="M19.5 1.25a3 3 0 1 1 0 6 3 3 0 0 1 0-6zM17.812 19.25l.188 1.5h3l.75-6h1.5V12.5a3.75 3.75 0 0 0-6-3M4.5 1.25a3 3 0 1 1 0 6 3 3 0 0 1 0-6zM6.188 19.25L6 20.75H3l-.75-6H.75V12.5a3.75 3.75 0 0 1 6-3M12 5.75a2.25 2.25 0 1 1 0 4.5 2.25 2.25 0 0 1 0-4.5zM12 11.75a3.75 3.75 0 0 0-3.75 3.75v.75h1.5l.75 4.5H12M12 11.75a3.75 3.75 0 0 1 3.75 3.75v.75h-1.5l-.75 4.5H12" stroke="#ADADAD" stroke-width="1.5" stroke-linecap="round" stroke-linejoin="round"/></g></symbol>
    <symbol id="cp-professional-dev" viewBox="0 0 24 24"><g fill="none" fill-rule="evenodd"><path d="M0 0h24v24H0z"/><path d="M5.25.75a3 3 0 1 1 0 6 3 3 0 0 1 0-6zM7.5 23.25l.75-7.5h1.5v-3a4.5 4.5 0 0 0-9 0v3h1.5l.75 7.5h4.5zM11.25 6.75l4.5-4.5 3 3 4.5-4.5" stroke="#ADADAD" stroke-width="1.5" stroke-linecap="round" stroke-linejoin="round"/><path stroke="#ADADAD" stroke-width="1.5" stroke-linecap="round" stroke-linejoin="round" d="M23.25 4.5V.75H19.5"/></g></symbol>
    <symbol id="cp-vacation" viewBox="0 0 24 22"><g stroke="#ADADAD" stroke-width="1.5" fill="none" fill-rule="evenodd" stroke-linecap="round" stroke-linejoin="round"><path d="M23.251 16a5.958 5.958 0 0 1-6.75-1.633 5.929 5.929 0 0 1-9 0A5.955 5.955 0 0 1 .75 15.994M.75 20.313a5.954 5.954 0 0 0 6.75-1.632 5.929 5.929 0 0 0 9 0 5.958 5.958 0 0 0 6.75 1.633M6 11.75a6 6 0 1 1 12 0M3.001 11.75H.751M23.251 11.75h-2.25M12.001 1.25V3.5M18.001 5.75l1.5-1.5M6.001 5.75l-1.5-1.5"/></g></symbol>
    <symbol id="location" viewbox="0 0 13 16">
        <g fill="none" fill-rule="evenodd"><path d="M-2-1h18v18H-2z"/><path d="M11.21 2.739C10.059.989 8.219 0 6.158 0c-2.06 0-3.9.989-5.054 2.739C-.05 4.463-.32 6.643.392 8.57c.196.507.49 1.04.883 1.52L6.157 16l4.857-5.908c.393-.482.712-.989.884-1.521.736-1.928.466-4.108-.687-5.832zM6.158 8.368c-1.374 0-2.502-1.141-2.502-2.536s1.128-2.536 2.502-2.536c1.374 0 2.502 1.141 2.502 2.536S7.531 8.368 6.157 8.368z" fill="#ADADAD" fill-rule="nonzero"/></g>
    </symbol>
    <symbol id="funding" viewBox="0 0 17 15">
        <g fill="none" fill-rule="evenodd"><path d="M0-1h18v18H0z"/><path d="M7.375 0A.378.378 0 0 0 7 .375v2.25c0 .205.17.375.375.375h5.25c.205 0 .375-.17.375-.375V.375A.378.378 0 0 0 12.625 0h-5.25zm-3 4A.379.379 0 0 0 4 4.375v2.25c0 .204.17.375.375.375h5.25C9.83 7 10 6.83 10 6.625v-2.25A.379.379 0 0 0 9.625 4h-5.25zm7 0a.379.379 0 0 0-.375.375v2.25c0 .204.17.375.375.375h5.25c.205 0 .375-.17.375-.375v-2.25A.379.379 0 0 0 16.625 4h-5.25zm-11 4A.378.378 0 0 0 0 8.375v2.25c0 .204.17.375.375.375h5.25c.205 0 .375-.17.375-.375v-2.25A.378.378 0 0 0 5.625 8H.375zm7 0A.378.378 0 0 0 7 8.375v2.25c0 .204.17.375.375.375h5.25c.205 0 .375-.17.375-.375v-2.25A.378.378 0 0 0 12.625 8h-5.25zm-3 4a.379.379 0 0 0-.375.375v2.25c0 .204.17.375.375.375h5.25c.205 0 .375-.17.375-.375v-2.25A.379.379 0 0 0 9.625 12h-5.25zm7 0a.379.379 0 0 0-.375.375v2.25c0 .204.17.375.375.375h5.25c.205 0 .375-.17.375-.375v-2.25a.379.379 0 0 0-.375-.375h-5.25z" fill="#ADADAD" fill-rule="nonzero"/></g>
    </symbol>
    <symbol id="founded" viewBox="0 0 18 17">
        <g fill="#ADADAD" fill-rule="evenodd"><path d="M0 7h18v10H0V7zm11 3.077v5.017h5.048v-5.017H11zM14.8 2H18v4H0V2h3.4v1.524h2.4V2h6.6v1.524h2.4V2z"/><path d="M4 0h1v3H4zM13 0h1v3h-1z"/></g>
    </symbol>
    <symbol id="people" viewBox="0 0 18 17">
        <g fill="#ADADAD" fill-rule="nonzero"><path d="M5.44 8.096h.34c1.94 0 3.5-1.603 3.5-3.551V3.55C9.28 1.583 7.7 0 5.78 0h-.34c-1.94 0-3.5 1.603-3.5 3.55v.995c0 1.968 1.56 3.55 3.5 3.55zM13.6 7.548h.24c1.46 0 2.66-1.197 2.66-2.699v-.548c0-1.46-1.2-2.678-2.66-2.678h-.24c-1.46 0-2.66 1.197-2.66 2.699v.548c.02 1.46 1.2 2.678 2.66 2.678zM6.92 9.252H4.38c-2.4 0-4.36 1.989-4.36 4.423v.284c0 1.258 1 2.293 2.26 2.293h6.76c1.24 0 2.26-1.014 2.26-2.293v-.284c-.02-2.434-1.98-4.423-4.38-4.423zM14 8.481h-.68a3.9 3.9 0 0 0-2.18.67.45.45 0 0 0-.08.67 5.678 5.678 0 0 1 1.48 3.834v.04c0 .183.14.346.34.346h3.76c.74 0 1.34-.61 1.34-1.36v-.162c0-2.232-1.78-4.038-3.98-4.038z"/></g>
    </symbol>
    <symbol id="industry" viewBox="0 0 16 15">
        <g fill="none" fill-rule="evenodd"><path d="M-1-1h18v18H-1z"/><path d="M14.17 2.35c.3.155.482.478.461.821v10.152h.64c.415.047.729.407.729.836s-.314.789-.73.836H.91a.812.812 0 0 1-.784-.39.86.86 0 0 1 0-.893.812.812 0 0 1 .784-.39h.64V3.173a.864.864 0 0 1 .46-.821L7.727.07a.96.96 0 0 1 .718 0l1.147.457 1.311.523 1.457.582 1.275.505.536.214zM2.25 4.5V6L7 4.5V3L2.25 4.5zm0 3V9l4.783-.98v-1.5L2.25 7.5zm0 3V12L7 11.5V10l-4.75.5z" fill="#ADADAD" fill-rule="nonzero"/></g>
    </symbol>
    <symbol id="chevron_left" viewBox="0 0 86 86">
        <path d="m64.998 80.095c1.338 1.352 1.338 3.541 0 4.893-1.336 1.35-3.506 1.352-4.844 0l-39.151-39.54c-1.338-1.352-1.338-3.543 0-4.895l39.15-39.539c1.338-1.352 3.506-1.352 4.844 0s1.338 3.542 3e-3 4.893l-35.706 37.094 35.704 37.094z"/>
    </symbol>
    <symbol id="chevron_right" viewBox="0 0 86 86">
        <path d="m21.003 80.094c-1.338 1.352-1.338 3.541 0 4.893 1.337 1.35 3.506 1.352 4.845 0l39.149-39.539c1.338-1.352 1.338-3.543 0-4.895l-39.149-39.539c-1.339-1.352-3.506-1.352-4.845 0-1.338 1.352-1.338 3.541-1e-3 4.893l35.704 37.093-35.703 37.094z"/>
    </symbol>
    <symbol id="info" viewBox="0 0 22 22">
        <g fill="none" fill-rule="evenodd"><circle fill="#FFD4CF" cx="11" cy="11" r="11"/><text font-family="Montserrat-Bold, Montserrat" font-size="14" font-weight="bold" fill="#FFF"><tspan x="8.809" y="16">i</tspan></text></g>
    </symbol>
</svg>
