<?xml version="1.0" encoding="UTF-8" standalone="no"?>
<svg>
    <symbol id="cp-infrastructure" width="45" height="45" viewbox="0 0 45 45">
        <g fill="none" fill-rule="evenodd"><path d="M0 0h45v45H0z"/><path d="M44.702 21.525l-.008-.183-4.287-1.562 3.71-2.49-.046-.187a22.094 22.094 0 0 0-2.36-5.815l-.093-.158-4.273.577 2.016-3.72-.126-.144a22.307 22.307 0 0 0-4.835-4.15l-.156-.099-3.361 2.387.054-4.083-.175-.07A22.085 22.085 0 0 0 24.516.33L24.33.313 22.5 3.915 20.67.313l-.185.016c-2.149.194-4.25.698-6.247 1.499l-.174.07.053 4.082-3.361-2.387-.156.1a22.322 22.322 0 0 0-4.835 4.15l-.126.143 2.015 3.72-4.273-.576-.092.158a22.083 22.083 0 0 0-2.36 5.815l-.047.186 3.71 2.49-4.287 1.562-.008.184c-.012.31-.023.622-.023.935 0 1.74.208 3.487.617 5.195l.045.188 4.698.508-3.25 3.573.08.168a22.281 22.281 0 0 0 3.344 5.036l.127.145 4.604-1.816-1.267 4.862.151.11a22.205 22.205 0 0 0 5.248 2.836l.18.068 3.333-3.864 1.16 4.99.188.026c1.009.134 2.008.203 2.969.203.96 0 1.96-.069 2.968-.203l.189-.026 1.16-4.99 3.332 3.864.179-.068a22.23 22.23 0 0 0 5.248-2.836l.15-.11-1.266-4.862 4.604 1.816.127-.145a22.242 22.242 0 0 0 3.344-5.036l.08-.168-3.25-3.573 4.698-.508.045-.188c.409-1.709.616-3.457.616-5.195 0-.313-.01-.625-.023-.935zm-1.083 5.814l-5.385.581 3.727 4.1a21.728 21.728 0 0 1-3.053 4.6l-5.249-2.07 1.444 5.545a21.66 21.66 0 0 1-4.788 2.589l-3.788-4.392-1.318 5.674c-1.842.23-3.576.23-5.417 0l-1.318-5.673-3.788 4.39a21.622 21.622 0 0 1-4.788-2.588l1.444-5.545-5.248 2.07a21.677 21.677 0 0 1-3.055-4.6l3.728-4.1-5.386-.58a21.737 21.737 0 0 1-.558-4.88c0-.243.007-.486.016-.728l4.957-1.806-4.288-2.877a21.533 21.533 0 0 1 2.163-5.325l4.98.671-2.347-4.333a21.791 21.791 0 0 1 4.435-3.806l3.94 2.797-.062-4.784A21.518 21.518 0 0 1 20.349.894L22.5 5.126 24.651.894c1.969.194 3.895.656 5.732 1.375l-.063 4.784 3.941-2.797a21.79 21.79 0 0 1 4.435 3.806l-2.347 4.333 4.98-.67a21.544 21.544 0 0 1 2.162 5.324l-4.287 2.877 4.956 1.806c.01.242.016.485.016.728a21.75 21.75 0 0 1-.557 4.88z" fill="#6E7F89" fill-rule="nonzero"/><path d="M22.5 13.423c-5.01 0-9.085 4.075-9.085 9.085 0 5.01 4.076 9.085 9.085 9.085 5.01 0 9.085-4.076 9.085-9.085 0-5.01-4.076-9.085-9.085-9.085zm0 17.62c-4.707 0-8.536-3.828-8.536-8.536 0-4.706 3.83-8.536 8.536-8.536 4.707 0 8.536 3.83 8.536 8.536 0 4.708-3.83 8.536-8.536 8.536z" fill="#6E7F89" fill-rule="nonzero"/></g>
    </symbol>
    <symbol id="cp-ci-cd" width="45" height="24" viewbox="0 0 45 24">
        <g fill="none" fill-rule="evenodd"><path d="M0-10h45v45H0z"/><path d="M34.082 3.455v2.573l5.695-2.847L34.082.334v2.572H8.24C3.848 2.906.274 6.48.274 10.872v2.404h.55v-2.404c0-4.09 3.326-7.417 7.416-7.417h25.842zm.549-2.233l3.92 1.959-3.92 1.959V1.222zM44.177 10.872v2.404c0 4.089-3.327 7.416-7.417 7.416H10.917v-2.573l-5.694 2.847 5.694 2.847v-2.572H36.76c4.392 0 7.966-3.574 7.966-7.965v-2.404h-.55zM10.369 22.925l-3.92-1.96 3.92-1.959v3.92z" fill="#6E7F89" fill-rule="nonzero"/></g>
    </symbol>
    <symbol id="cp-source-control" width="40" height="45" viewbox="0 0 40 45">
        <g fill="none" fill-rule="evenodd"><path d="M-1 0h45v45H-1z"/><path d="M33.702 33.998v.556a4.95 4.95 0 0 1 4.944 4.945 4.95 4.95 0 0 1-4.944 4.945 4.95 4.95 0 0 1-4.945-4.945c0-.769.177-1.512.526-2.209a4.92 4.92 0 0 1 4.418-2.736v-.556a5.469 5.469 0 0 0-4.768 2.77L10.52 24.733c.317-.71.478-1.46.478-2.234s-.16-1.524-.478-2.234L28.932 8.232a5.466 5.466 0 0 0 4.77 2.769c3.032 0 5.5-2.468 5.5-5.5 0-3.033-2.468-5.501-5.5-5.501A5.506 5.506 0 0 0 28.2 5.5c0 .773.169 1.52.486 2.23l-18.43 12.045A5.46 5.46 0 0 0 5.5 16.999 5.506 5.506 0 0 0 0 22.5C0 25.533 2.467 28 5.5 28a5.457 5.457 0 0 0 4.757-2.776l18.43 12.047a5.429 5.429 0 0 0-.485 2.228c0 3.034 2.467 5.501 5.5 5.501s5.5-2.467 5.5-5.5a5.506 5.506 0 0 0-5.5-5.502zm0-33.442A4.95 4.95 0 0 1 38.645 5.5a4.95 4.95 0 0 1-4.945 4.944 4.916 4.916 0 0 1-4.418-2.735l-.004-.008a4.888 4.888 0 0 1-.523-2.201A4.95 4.95 0 0 1 33.701.556zM9.917 24.709l-.004.007A4.92 4.92 0 0 1 5.5 27.445a4.95 4.95 0 0 1-4.944-4.944 4.95 4.95 0 0 1 4.944-4.945 4.919 4.919 0 0 1 4.419 2.735 4.894 4.894 0 0 1 0 4.418z" fill="#6E7F89" fill-rule="nonzero"/></g>
    </symbol>
    <symbol id="cp-software" width="45" height="30" viewbox="0 0 45 30">
        <g fill="none" fill-rule="evenodd"><path d="M0-8h45v45H0z"/><path d="M42.418.383H2.582v23.658h39.836V.383zm-.549 23.11H3.131V.933h38.738v22.56zM.274 25.14v.275c0 2.115 2.459 3.836 5.481 3.836h33.49c3.022 0 5.48-1.721 5.48-3.836v-.275H.275zm38.971 3.562H5.755c-2.58 0-4.705-1.328-4.915-3.013h43.32c-.21 1.685-2.334 3.013-4.915 3.013z" fill="#6E7F89" fill-rule="nonzero"/><path d="M27.18 12.94h-3.582V4.94h-2.196v8.002H17.82l4.68 6.892 4.68-6.892zm-5.229.55V5.488h1.098v8.002h3.095L22.5 18.856l-3.644-5.366h3.095z" fill="#6E7F89" fill-rule="nonzero"/></g>
    </symbol>
    <symbol id="cp-hardware" width="24" height="45" viewbox="0 0 24 45">
        <g fill="none" fill-rule="evenodd"><path d="M-10 0h45v45h-45z"/><path d="M.364.274v44.452h23.418V.274H.364zm22.87 43.903H.913V.823h22.32v43.354z" fill="#6E7F89" fill-rule="nonzero"/><path fill="#6E7F89" fill-rule="nonzero" d="M4.62 7.013h14.906v1H4.62zM4.62 12.118h14.906v1H4.62zM12.073 33.15a2.933 2.933 0 0 0-2.929 2.929 2.933 2.933 0 0 0 2.93 2.929 2.933 2.933 0 0 0 2.928-2.929 2.933 2.933 0 0 0-2.929-2.929zm0 5.31a2.382 2.382 0 0 1-2.38-2.381 2.382 2.382 0 0 1 2.38-2.38 2.382 2.382 0 0 1 2.38 2.38 2.382 2.382 0 0 1-2.38 2.38z"/></g>
    </symbol>
</svg>
