<?xml version="1.0" encoding="UTF-8" standalone="no"?>
<svg>
    <symbol id="chevron_left" viewBox="0 0 86 86">
        <path d="m64.998 80.095c1.338 1.352 1.338 3.541 0 4.893-1.336 1.35-3.506 1.352-4.844 0l-39.151-39.54c-1.338-1.352-1.338-3.543 0-4.895l39.15-39.539c1.338-1.352 3.506-1.352 4.844 0s1.338 3.542 3e-3 4.893l-35.706 37.094 35.704 37.094z"/>
    </symbol>
    <symbol id="chevron_right" viewBox="0 0 86 86">
        <path d="m21.003 80.094c-1.338 1.352-1.338 3.541 0 4.893 1.337 1.35 3.506 1.352 4.845 0l39.149-39.539c1.338-1.352 1.338-3.543 0-4.895l-39.149-39.539c-1.339-1.352-3.506-1.352-4.845 0-1.338 1.352-1.338 3.541-1e-3 4.893l35.704 37.093-35.703 37.094z"/>
    </symbol>
</svg>
