<?xml version="1.0" encoding="UTF-8" standalone="no"?>
<svg>
    <symbol id="job-tech" viewBox="0 0 24 24"><g fill="none" fill-rule="evenodd"><path d="M0 0h24v24H0z"/><path d="M12 15.751v7.5M4.5 23.251h15M22.875 22.5a.375.375 0 1 0 .002 0h-.002M1.125 22.5a.375.375 0 1 0 .002 0h-.002M12 .751c3.728 0 6.75 1.343 6.75 3s-3.022 3-6.75 3-6.75-1.343-6.75-3 3.022-3 6.75-3z" stroke="#ADADAD" stroke-width="1.5" stroke-linecap="round" stroke-linejoin="round"/><path d="M5.25 3.751v4.5c0 1.657 3.022 3 6.75 3s6.75-1.343 6.75-3v-4.5" stroke="#ADADAD" stroke-width="1.5" stroke-linecap="round" stroke-linejoin="round"/><path d="M5.25 8.251v4.5c0 1.657 3.022 3 6.75 3s6.75-1.343 6.75-3v-4.5" stroke="#ADADAD" stroke-width="1.5" stroke-linecap="round" stroke-linejoin="round"/></g></symbol>
    <symbol id="job-contract" viewBox="0 0 24 16"><g fill="none" fill-rule="evenodd"><path d="M0-4h24v24H0z"/><path d="M20.29 10.34l-5.16.986M14.416 4.478l-3.468 1.146a1.15 1.15 0 0 1-1.405-.611 1.165 1.165 0 0 1 .529-1.53l3.359-1.689a2.342 2.342 0 0 1 1.861-.108l4.973 1.819" stroke="#ADADAD" stroke-width="1.5" stroke-linecap="round" stroke-linejoin="round"/><path d="M3.685 10.348H6.13l3.512 3.936A1.343 1.343 0 0 0 12 13.408v-.615l.175.07a1.656 1.656 0 0 0 2.271-1.537h.489a1.468 1.468 0 0 0 1.174-2.348L12.97 4.956M10.583 3.225l-.358-.295a2.098 2.098 0 0 0-2.024-.258L3.75 4.452" stroke="#ADADAD" stroke-width="1.5" stroke-linecap="round" stroke-linejoin="round"/><path d="M.75 2.75h2a.96.96 0 0 1 1 .916v6.417a.962.962 0 0 1-1 .917h-2M23.25 11h-2a.962.962 0 0 1-1-.917V3.666a.96.96 0 0 1 1-.916h2M12 12.793l-.978-.978M14.446 11.326l-1.468-1.468" stroke="#ADADAD" stroke-width="1.5" stroke-linecap="round" stroke-linejoin="round"/></g></symbol>
    <symbol id="job-money" viewBox="0 0 24 24"><g fill="none" fill-rule="evenodd"><path d="M0 0h24v24H0z"/><path d="M23.25 10.5a3 3 0 0 1-3 3M6 6.8a8.316 8.316 0 0 0-3.4 4.45H.75v6h2.49a8.466 8.466 0 0 0 2.01 2.372V22.5c0 .414.336.75.75.75h1.5a.75.75 0 0 0 .75-.75v-1.241a9.51 9.51 0 0 0 6 .011v1.23c0 .414.336.75.75.75h1.5a.75.75 0 0 0 .75-.75v-2.863a7.94 7.94 0 0 0 3-6.137 8.054 8.054 0 0 0-3.757-6.706M8.25 7.5a6.761 6.761 0 0 1 6 0" stroke="#ADADAD" stroke-width="1.5" stroke-linecap="round" stroke-linejoin="round"/><path d="M11.25.75a3 3 0 1 1 0 6 3 3 0 0 1 0-6z" stroke="#ADADAD" stroke-width="1.5" stroke-linecap="round" stroke-linejoin="round"/></g></symbol>
    <symbol id="job-benefits" viewBox="0 0 22 24"><g fill="none" fill-rule="evenodd"><path d="M-1 0h24v24H-1z"/><path d="M17.75 13.5H4.25v8.25a1.5 1.5 0 0 0 1.5 1.5h10.5a1.5 1.5 0 0 0 1.5-1.5V13.5zM3.5 9h15a.75.75 0 0 1 .75.75v3a.75.75 0 0 1-.75.75h-15a.75.75 0 0 1-.75-.75v-3A.75.75 0 0 1 3.5 9zM11 9v14.25M11 2.25V.75M16.25 3.311l1.061-1.061M19.307 6.287l1.386-.574M5.75 3.311L4.689 2.25M2.693 6.287l-1.386-.574" stroke="#ADADAD" stroke-width="1.5" stroke-linecap="round" stroke-linejoin="round"/></g></symbol>
</svg>
