<?xml version="1.0" encoding="UTF-8" standalone="no"?>
<svg>
    <symbol id="javascript-tag" viewBox="0 0 210 210">
        <path fill-rule="evenodd" clip-rule="evenodd" d="M18 17h175v175H18V17zm46.014 146.243c3.877 8.222 11.513 15.034 24.669 15.034 14.566 0 24.551-7.753 24.551-24.786v-56.15H96.788v55.918c0 8.222-3.407 10.336-8.81 10.336-5.638 0-7.988-3.876-10.572-8.457l-13.392 8.105v-.002.002zm71.543-9.515l-13.39 7.753c4.815 9.515 14.683 16.798 29.954 16.798 15.624 0 27.253-8.105 27.253-22.907 0-13.744-7.871-19.851-21.85-25.843l-4.111-1.762c-7.047-3.054-10.102-5.052-10.102-9.986 0-3.993 3.055-7.047 7.871-7.047 4.699 0 7.752 1.997 10.571 7.047l12.805-8.222c-5.403-9.515-12.921-13.157-23.376-13.157-14.685 0-24.082 9.398-24.082 21.732 0 13.392 7.871 19.735 19.736 24.786l4.11 1.763c7.518 3.288 11.982 5.285 11.982 10.924 0 4.699-4.345 8.106-11.159 8.106-8.105 0-12.687-4.229-16.212-9.985z" fill="#FF7C6E"/>
    </symbol>
    <symbol id="clojure-tag" viewBox="0 0 210 210">
        <path d="M102.033 106.242a408.325 408.325 0 00-2.829 6.268c-3.52 7.976-7.418 17.68-8.842 23.897-.511 2.215-.828 4.959-.822 8.001 0 1.204.064 2.468.167 3.757a46.444 46.444 0 0015.964 2.844c5.11-.01 10.02-.854 14.614-2.382-1.08-.987-2.11-2.04-3.049-3.226-6.229-7.943-9.704-19.585-15.203-39.159zM79.035 66.776c-11.897 8.385-19.682 22.213-19.711 37.885.03 15.437 7.58 29.087 19.178 37.506 2.844-11.85 9.975-22.7 20.669-44.45a175.02 175.02 0 00-2.169-5.66c-2.962-7.43-7.238-16.06-11.053-19.968-1.946-2.042-4.306-3.806-6.914-5.313z" fill="#FF7C6E"/>
        <path d="M146.044 157.822c-6.138-.77-11.204-1.698-15.636-3.261a55.46 55.46 0 01-24.736 5.792c-30.756 0-55.687-24.928-55.69-55.692 0-16.692 7.353-31.656 18.987-41.862-3.111-.752-6.356-1.19-9.671-1.184-16.34.154-33.589 9.197-40.77 33.619-.671 3.555-.511 6.243-.511 9.428 0 48.413 39.248 87.661 87.657 87.661 29.647 0 55.837-14.731 71.697-37.261-8.578 2.138-16.828 3.16-23.892 3.182-2.648 0-5.133-.141-7.435-.422z" fill="#FF7C6E"/>
        <path d="M129.572 140.836c.541.268 1.768.706 3.476 1.19 11.486-8.432 18.95-22.014 18.98-37.365h-.005c-.043-25.592-20.753-46.3-46.351-46.35-5.088.01-9.976.85-14.553 2.366 9.411 10.727 13.937 26.058 18.315 42.827.002.008.006.014.008.02.008.014 1.4 4.657 3.79 10.817 2.374 6.152 5.755 13.768 9.443 19.318 2.421 3.72 5.084 6.393 6.897 7.177z" fill="#FF7C6E"/>
        <path d="M105.674 17c-29.361 0-55.333 14.454-71.24 36.616 8.278-5.185 16.732-7.055 24.109-6.989 10.19.03 18.2 3.19 22.044 5.35.928.536 1.81 1.112 2.673 1.704a55.458 55.458 0 0122.411-4.71c30.759.004 55.695 24.931 55.699 55.69h-.004c0 15.508-6.343 29.53-16.569 39.627 2.51.281 5.187.456 7.92.442 9.709.005 20.202-2.137 28.069-8.754 5.13-4.321 9.427-10.648 11.811-20.134a88.49 88.49 0 00.734-11.18c0-48.41-39.244-87.662-87.657-87.662z" fill="#FF7C6E"/>
    </symbol>
    <symbol id="haskell-tag" viewBox="0 0 210 210">
        <path d="M18 164.382l40.153-60.19L18 44h30.114l40.153 60.192-40.152 60.19H18z" fill="#FF7C6E"/>
        <path d="M58.153 164.382l40.152-60.19L58.153 44h30.114l80.302 120.382h-30.111l-25.094-37.618-25.099 37.618H58.153zM155.188 129.271l-13.384-20.065h46.845v20.066h-33.461v-.001zm-20.076-30.094l-13.384-20.065h66.921v20.065h-53.537z" fill="#FF7C6E"/>
    </symbol>
    <symbol id="scala-tag" viewBox="0 0 210 210">
        <path d="M53 98.462v39.23c0-3.269 105-9.807 105-26.154v-39.23C158 88.654 53 95.192 53 98.46zM53 46.154v39.23c0-3.269 105-9.807 105-26.153V20c0 16.346-105 22.885-105 26.154zM53 150.769V190c0-3.269 105-9.808 105-26.154v-39.231c0 16.347-105 22.885-105 26.154z" fill="#FF7C6E"/>
    </symbol>
    <symbol id="java-tag" viewBox="0 0 210 210">
        <path d="M72.39 170.284h0l-.001.001-.004-.006-1.159-2.733c-4.007 1.124-6.905 2.447-8.7 3.964-.91.769-1.6 1.642-1.962 2.63a4.414 4.414 0 00-.01 3.037c.66 1.871 2.459 3.415 4.681 4.661 2.284 1.282 5.292 2.404 8.804 3.302 14.011 3.581 37.032 3.831 57.413-4.94l3.359-1.446-3.406-1.33a75.99 75.99 0 01-7.936-3.65 63.384 63.384 0 01-2.881-1.625l-.15-.092-.036-.022-.007-.005-.002-.001h0l-.499-.314-.58.11c-17.738 3.371-25.878 3.63-41.943 1.79-3.298-.381-5.075-.931-5.957-1.426-.382-.215-.514-.374-.55-.427.043-.158.261-.49.734-.898a6.31 6.31 0 01.787-.577l.006-.003zm0 0l.001-.001v.001zM66.26 145.059l1.366 2.622.003.004-.009.007-.053.041c-.048.039-.122.098-.215.176-.185.158-.438.384-.703.657-.567.586-1.031 1.227-1.186 1.765-.069.239-.058.394-.024.503.032.102.124.295.452.544.723.549 2.341 1.185 5.624 1.526l-5.256-7.845zm0 0c-4.394 1.464-7.55 3.003-9.512 4.614-1.962 1.613-3.068 3.632-2.285 5.821.686 1.92 2.673 3.368 5.057 4.48 2.474 1.153 5.759 2.12 9.629 2.868 15.46 2.99 41.312 2.694 65.761-4.485l4.449-1.306-4.371-1.548c-2.404-.851-4.383-2.06-5.764-3.062-.688-.5-1.222-.944-1.579-1.258a13.007 13.007 0 01-.493-.455l-.02-.019-.001-.001m-60.872-5.649l60.872 5.649m0 0h0l-.001-.001h0l-.001-.001-.562-.572-.79.152c-23.524 4.549-37.062 4.4-54.262 2.618l55.616-2.196zM106.887 109.281v.001c2.283 2.639 3.211 5.13 3.401 7.352.192 2.24-.357 4.328-1.217 6.154-.862 1.829-2.018 3.351-2.971 4.423-.474.533-.891.947-1.185 1.225a12.957 12.957 0 01-.424.382l-.017.015-.001.001h-.001l.006.007 1.639 2.482-.69-1.332c.69 1.332.691 1.332.691 1.331l.002-.001.005-.002.018-.009.061-.033.223-.121c.192-.105.467-.259.811-.46a48.383 48.383 0 002.769-1.749c2.228-1.511 5.104-3.719 7.626-6.478 2.512-2.749 4.755-6.135 5.562-10.006.82-3.935.124-8.221-2.984-12.614h0c-.477-.674-.944-1.325-1.399-1.96-2.161-3.014-4.032-5.626-5.287-8.193-1.479-3.025-2-5.8-1.059-8.84.966-3.124 3.539-6.754 8.791-11.28 5.236-4.514 13.002-9.807 24.133-16.29l-1.119-2.751.365 1.455a105.698 105.698 0 00-.367-1.455l-.003.001-.012.003-.041.01-.157.041-.595.16a92.58 92.58 0 00-2.203.634 124.746 124.746 0 00-7.575 2.552c-6.104 2.274-13.949 5.733-20.762 10.451-6.784 4.697-12.755 10.788-14.752 18.393-2.027 7.717.136 16.572 8.718 26.501z" fill="#FF7C6E" stroke="#FF7C6E" stroke-width="3"/>
        <path d="M33.021 202.712c-3.809-.62-6.596-1.455-8.462-2.504-1.865-1.049-3.121-2.516-3.057-4.419.06-1.734 1.227-3.245 2.589-4.452 1.417-1.257 3.34-2.446 5.495-3.514 4.318-2.142 9.828-3.927 14.795-4.815 2.484-.444 4.881-.673 6.956-.592 2.023.078 3.963.457 5.338 1.429l4.384 3.101-5.352-.38h0-.003 0-.008a8.408 8.408 0 00-.368-.009c-.277-.002-.703.005-1.27.041-1.132.072-2.822.261-4.992.734l-.003.001c-2.078.448-6.435 1.75-9.32 3.284-.712.379-1.288.748-1.704 1.092-.35.289-.508.497-.572.608.12.136.439.401 1.176.724h0c4.844 2.117 13.018 3.635 23.08 4.574 10.01.933 21.728 1.28 33.552 1.13 23.707-.301 47.594-2.593 58.942-6.045 2.948-.898 4.655-1.819 5.608-2.61.919-.764 1.067-1.342 1.081-1.659.017-.377-.14-.767-.392-1.13a3.296 3.296 0 00-.333-.403c-.045-.046-.08-.079-.099-.097a.156.156 0 00-.018-.015l.002.001.003.003.003.002.001.001.007-.008 1.57-2.513c2.702 1.224 4.777 2.927 4.828 5.307.025 1.168-.465 2.227-1.192 3.139-.723.908-1.746 1.752-2.975 2.541-4.864 3.121-14.087 6.056-26.307 8.243-24.549 4.392-61.961 5.89-102.983-.79zm0 0l.241-1.481-.24 1.481zM75.394 123.161l.101-1.497.247 2.956-.083-.348.082.348h0l-.005.001-.019.005-.076.018-.3.073a163.765 163.765 0 00-4.977 1.324c-3.097.878-6.93 2.069-9.995 3.345-1.541.641-2.822 1.277-3.708 1.873-.443.298-.734.552-.905.748l-.022.026c.135.101.366.241.74.402 1.091.468 2.975.939 5.942 1.336v.001c9.979 1.341 30.073 1.045 48.894-.538 7.657-.649 15.339-1.664 21.113-2.517 2.886-.427 5.291-.813 6.974-1.092.841-.14 1.502-.253 1.952-.331l.512-.089.131-.023.032-.006.008-.001.002-.001h0l.265 1.477-.265-1.477.857 2.853.001.002-67.498-8.868zm0 0l.1-1.497h-.006l-.011-.001-.04-.002-.141-.008a39.38 39.38 0 00-2.477-.01 61.908 61.908 0 00-7.084.622c-5.96.851-14.17 2.801-23.22 7.194h0c-1.379.67-2.485 1.369-3.259 2.119-.769.746-1.371 1.71-1.31 2.861.063 1.143.757 2.014 1.527 2.633.779.627 1.82 1.153 3.008 1.608 4.716 1.805 13.258 3.036 23.436 3.631 20.434 1.195 48.304-.137 67.406-5.181l.252-.067.214-.147c1.88-1.289 4.148-2.51 5.973-3.418a73.954 73.954 0 012.903-1.37l.172-.075.042-.019.01-.004.003-.001h0l-67.498-8.868z" fill="#FF7C6E" stroke="#FF7C6E" stroke-width="3"/>
        <path d="M141.452 159.297l-.511.266-.201.54c.004-.012.003-.01-.007.005-.017.026-.06.089-.142.184l-.717.189v1.156c.449.837 1.286 1.146 1.826 1.238l.056.212c12.978-3.425 21.686-8.198 26.998-13.416 5.33-5.237 7.265-10.969 6.496-16.119-1.543-10.329-13.551-16.963-26.459-12.406h0l-.004.002c-1.34.477-2.34 1.259-2.995 1.9a8.668 8.668 0 00-.96 1.116l-.059.087-.019.029-.007.01-.003.004-.001.002v.001c-.001.001-.001.001 1.265.806l-1.266-.805-2.518 3.961 4.345-1.765.003-.001.032-.012a16.214 16.214 0 01.895-.297 38.363 38.363 0 013.209-.798h.001c5.479-1.147 12.112 2.602 13.139 8.648 1.009 5.942-3.279 15.288-22.396 25.263zm5.116-32.803s0 0 0 0h0zM118.987 10l1.063-1.058-3.858-3.875 1.34 5.3c2.068 8.179 1.268 14.842-1.245 20.586-2.532 5.786-6.845 10.742-11.973 15.404-3.437 3.126-7.154 6.048-10.899 8.992a411.071 411.071 0 00-5.614 4.467c-5.5 4.48-10.706 9.203-14.343 14.687-2.567 3.87-3.562 7.868-3.24 11.965.319 4.062 1.925 8.124 4.395 12.18 4.919 8.076 13.488 16.472 23.176 25.249l2.38-1.717c-1.779-4.036-4.512-7.943-7.173-11.747l-.833-1.192c-2.959-4.248-5.72-8.404-7.245-12.783-1.505-4.316-1.8-8.825.196-13.82 2.017-5.049 6.428-10.734 14.627-17.236 20.936-16.596 26.347-30.55 26.201-40.632-.073-5.01-1.52-8.941-2.957-11.625a22.143 22.143 0 00-1.978-3.08 15.239 15.239 0 00-.868-1.03 18.12 18.12 0 00-.06-.063l-.018-.02-.007-.006-.002-.002A75.682 75.682 0 00118.987 10z" fill="#FF7C6E" stroke="#FF7C6E" stroke-width="3"/>
    </symbol>
    <symbol id="aws-tag" viewBox="0 0 210 210">
        <mask id="a" maskUnits="userSpaceOnUse" x="19.401" y="49" width="169" height="60" fill="#000">
            <path fill="#fff" d="M19.401 49h169v60h-169z"/>
            <path d="M64.444 89.875c0 2.203.238 3.99.655 5.299a31.868 31.868 0 001.905 4.286c.298.477.417.953.417 1.37 0 .595-.357 1.19-1.131 1.786l-3.751 2.5c-.536.357-1.072.536-1.548.536-.595 0-1.19-.298-1.786-.834a18.397 18.397 0 01-2.143-2.798 46.085 46.085 0 01-1.846-3.512c-4.643 5.477-10.477 8.215-17.502 8.215-5.001 0-8.99-1.428-11.907-4.286-2.917-2.858-4.406-6.668-4.406-11.43 0-5.06 1.786-9.169 5.418-12.264 3.632-3.096 8.454-4.644 14.586-4.644 2.024 0 4.107.179 6.31.476 2.203.298 4.465.774 6.846 1.31v-4.346c0-4.525-.952-7.68-2.797-9.525-1.906-1.846-5.12-2.739-9.705-2.739-2.083 0-4.226.238-6.43.774-2.202.536-4.345 1.19-6.429 2.024-.952.417-1.667.655-2.083.774-.417.12-.715.179-.953.179-.833 0-1.25-.596-1.25-1.846v-2.917c0-.952.119-1.667.417-2.084.297-.416.833-.833 1.666-1.25 2.084-1.071 4.585-1.964 7.502-2.679 2.917-.774 6.013-1.13 9.287-1.13 7.084 0 12.264 1.607 15.598 4.821 3.274 3.215 4.941 8.097 4.941 14.645v19.29h.12zm-24.17 9.05c1.964 0 3.988-.358 6.131-1.072 2.144-.715 4.049-2.024 5.656-3.81.953-1.131 1.667-2.382 2.024-3.81.358-1.43.596-3.156.596-5.18v-2.5a49.694 49.694 0 00-5.477-1.012 44.866 44.866 0 00-5.597-.358c-3.988 0-6.905.774-8.87 2.382-1.965 1.607-2.917 3.87-2.917 6.846 0 2.798.714 4.882 2.203 6.31 1.428 1.49 3.512 2.203 6.25 2.203zm47.805 6.429c-1.072 0-1.786-.178-2.262-.595-.477-.357-.893-1.191-1.25-2.322l-13.99-46.02c-.358-1.19-.537-1.964-.537-2.38 0-.953.476-1.49 1.43-1.49h5.833c1.132 0 1.905.18 2.322.596.476.357.834 1.19 1.19 2.322l10.002 39.411 9.288-39.411c.297-1.19.655-1.965 1.131-2.322s1.31-.595 2.381-.595h4.763c1.131 0 1.905.178 2.381.595.476.357.893 1.19 1.131 2.322l9.407 39.888 10.299-39.888c.357-1.19.774-1.965 1.191-2.322.476-.357 1.25-.595 2.321-.595h5.537c.953 0 1.488.476 1.488 1.488 0 .298-.059.596-.119.953-.059.357-.178.833-.416 1.488l-14.348 46.019c-.357 1.191-.774 1.965-1.25 2.322-.476.358-1.25.596-2.262.596h-5.12c-1.132 0-1.905-.179-2.382-.596-.476-.416-.893-1.19-1.131-2.381l-9.228-38.4-9.168 38.34c-.297 1.191-.655 1.965-1.13 2.382-.477.417-1.31.595-2.382.595h-5.12zm76.5 1.608c-3.095 0-6.191-.358-9.168-1.072-2.976-.714-5.298-1.488-6.846-2.381-.953-.536-1.607-1.132-1.846-1.667a4.208 4.208 0 01-.357-1.667v-3.037c0-1.25.477-1.845 1.37-1.845.357 0 .714.06 1.071.178.357.12.893.358 1.488.596a32.395 32.395 0 006.549 2.084c2.381.476 4.703.714 7.085.714 3.75 0 6.667-.655 8.692-1.965 2.024-1.31 3.095-3.215 3.095-5.655 0-1.667-.536-3.037-1.607-4.168-1.072-1.13-3.096-2.143-6.013-3.095l-8.632-2.68c-4.346-1.369-7.561-3.393-9.526-6.072-1.964-2.62-2.976-5.537-2.976-8.632 0-2.5.535-4.703 1.607-6.608 1.072-1.906 2.5-3.572 4.286-4.882 1.786-1.37 3.811-2.381 6.192-3.096 2.381-.714 4.882-1.012 7.501-1.012 1.31 0 2.679.06 3.989.238 1.369.179 2.619.417 3.87.655 1.19.298 2.321.595 3.393.953 1.072.357 1.905.714 2.5 1.071.834.476 1.429.953 1.786 1.489.358.476.536 1.13.536 1.964v2.798c0 1.25-.476 1.905-1.369 1.905-.476 0-1.25-.238-2.262-.714-3.394-1.548-7.204-2.322-11.431-2.322-3.393 0-6.072.536-7.918 1.667-1.845 1.131-2.798 2.858-2.798 5.298 0 1.667.595 3.096 1.786 4.227 1.191 1.132 3.394 2.263 6.549 3.275l8.454 2.679c4.286 1.369 7.382 3.274 9.227 5.715 1.846 2.44 2.739 5.239 2.739 8.335 0 2.56-.536 4.881-1.548 6.905-1.072 2.025-2.5 3.811-4.346 5.239-1.846 1.489-4.048 2.56-6.608 3.334-2.679.834-5.477 1.251-8.514 1.251z"/>
        </mask>
        <path d="M64.444 89.875c0 2.203.238 3.99.655 5.299a31.868 31.868 0 001.905 4.286c.298.477.417.953.417 1.37 0 .595-.357 1.19-1.131 1.786l-3.751 2.5c-.536.357-1.072.536-1.548.536-.595 0-1.19-.298-1.786-.834a18.397 18.397 0 01-2.143-2.798 46.085 46.085 0 01-1.846-3.512c-4.643 5.477-10.477 8.215-17.502 8.215-5.001 0-8.99-1.428-11.907-4.286-2.917-2.858-4.406-6.668-4.406-11.43 0-5.06 1.786-9.169 5.418-12.264 3.632-3.096 8.454-4.644 14.586-4.644 2.024 0 4.107.179 6.31.476 2.203.298 4.465.774 6.846 1.31v-4.346c0-4.525-.952-7.68-2.797-9.525-1.906-1.846-5.12-2.739-9.705-2.739-2.083 0-4.226.238-6.43.774-2.202.536-4.345 1.19-6.429 2.024-.952.417-1.667.655-2.083.774-.417.12-.715.179-.953.179-.833 0-1.25-.596-1.25-1.846v-2.917c0-.952.119-1.667.417-2.084.297-.416.833-.833 1.666-1.25 2.084-1.071 4.585-1.964 7.502-2.679 2.917-.774 6.013-1.13 9.287-1.13 7.084 0 12.264 1.607 15.598 4.821 3.274 3.215 4.941 8.097 4.941 14.645v19.29h.12zm-24.17 9.05c1.964 0 3.988-.358 6.131-1.072 2.144-.715 4.049-2.024 5.656-3.81.953-1.131 1.667-2.382 2.024-3.81.358-1.43.596-3.156.596-5.18v-2.5a49.694 49.694 0 00-5.477-1.012 44.866 44.866 0 00-5.597-.358c-3.988 0-6.905.774-8.87 2.382-1.965 1.607-2.917 3.87-2.917 6.846 0 2.798.714 4.882 2.203 6.31 1.428 1.49 3.512 2.203 6.25 2.203zm47.805 6.429c-1.072 0-1.786-.178-2.262-.595-.477-.357-.893-1.191-1.25-2.322l-13.99-46.02c-.358-1.19-.537-1.964-.537-2.38 0-.953.476-1.49 1.43-1.49h5.833c1.132 0 1.905.18 2.322.596.476.357.834 1.19 1.19 2.322l10.002 39.411 9.288-39.411c.297-1.19.655-1.965 1.131-2.322s1.31-.595 2.381-.595h4.763c1.131 0 1.905.178 2.381.595.476.357.893 1.19 1.131 2.322l9.407 39.888 10.299-39.888c.357-1.19.774-1.965 1.191-2.322.476-.357 1.25-.595 2.321-.595h5.537c.953 0 1.488.476 1.488 1.488 0 .298-.059.596-.119.953-.059.357-.178.833-.416 1.488l-14.348 46.019c-.357 1.191-.774 1.965-1.25 2.322-.476.358-1.25.596-2.262.596h-5.12c-1.132 0-1.905-.179-2.382-.596-.476-.416-.893-1.19-1.131-2.381l-9.228-38.4-9.168 38.34c-.297 1.191-.655 1.965-1.13 2.382-.477.417-1.31.595-2.382.595h-5.12zm76.5 1.608c-3.095 0-6.191-.358-9.168-1.072-2.976-.714-5.298-1.488-6.846-2.381-.953-.536-1.607-1.132-1.846-1.667a4.208 4.208 0 01-.357-1.667v-3.037c0-1.25.477-1.845 1.37-1.845.357 0 .714.06 1.071.178.357.12.893.358 1.488.596a32.395 32.395 0 006.549 2.084c2.381.476 4.703.714 7.085.714 3.75 0 6.667-.655 8.692-1.965 2.024-1.31 3.095-3.215 3.095-5.655 0-1.667-.536-3.037-1.607-4.168-1.072-1.13-3.096-2.143-6.013-3.095l-8.632-2.68c-4.346-1.369-7.561-3.393-9.526-6.072-1.964-2.62-2.976-5.537-2.976-8.632 0-2.5.535-4.703 1.607-6.608 1.072-1.906 2.5-3.572 4.286-4.882 1.786-1.37 3.811-2.381 6.192-3.096 2.381-.714 4.882-1.012 7.501-1.012 1.31 0 2.679.06 3.989.238 1.369.179 2.619.417 3.87.655 1.19.298 2.321.595 3.393.953 1.072.357 1.905.714 2.5 1.071.834.476 1.429.953 1.786 1.489.358.476.536 1.13.536 1.964v2.798c0 1.25-.476 1.905-1.369 1.905-.476 0-1.25-.238-2.262-.714-3.394-1.548-7.204-2.322-11.431-2.322-3.393 0-6.072.536-7.918 1.667-1.845 1.131-2.798 2.858-2.798 5.298 0 1.667.595 3.096 1.786 4.227 1.191 1.132 3.394 2.263 6.549 3.275l8.454 2.679c4.286 1.369 7.382 3.274 9.227 5.715 1.846 2.44 2.739 5.239 2.739 8.335 0 2.56-.536 4.881-1.548 6.905-1.072 2.025-2.5 3.811-4.346 5.239-1.846 1.489-4.048 2.56-6.608 3.334-2.679.834-5.477 1.251-8.514 1.251z" fill="#FF7C6E"/>
        <path d="M64.444 89.875c0 2.203.238 3.99.655 5.299a31.868 31.868 0 001.905 4.286c.298.477.417.953.417 1.37 0 .595-.357 1.19-1.131 1.786l-3.751 2.5c-.536.357-1.072.536-1.548.536-.595 0-1.19-.298-1.786-.834a18.397 18.397 0 01-2.143-2.798 46.085 46.085 0 01-1.846-3.512c-4.643 5.477-10.477 8.215-17.502 8.215-5.001 0-8.99-1.428-11.907-4.286-2.917-2.858-4.406-6.668-4.406-11.43 0-5.06 1.786-9.169 5.418-12.264 3.632-3.096 8.454-4.644 14.586-4.644 2.024 0 4.107.179 6.31.476 2.203.298 4.465.774 6.846 1.31v-4.346c0-4.525-.952-7.68-2.797-9.525-1.906-1.846-5.12-2.739-9.705-2.739-2.083 0-4.226.238-6.43.774-2.202.536-4.345 1.19-6.429 2.024-.952.417-1.667.655-2.083.774-.417.12-.715.179-.953.179-.833 0-1.25-.596-1.25-1.846v-2.917c0-.952.119-1.667.417-2.084.297-.416.833-.833 1.666-1.25 2.084-1.071 4.585-1.964 7.502-2.679 2.917-.774 6.013-1.13 9.287-1.13 7.084 0 12.264 1.607 15.598 4.821 3.274 3.215 4.941 8.097 4.941 14.645v19.29h.12zm-24.17 9.05c1.964 0 3.988-.358 6.131-1.072 2.144-.715 4.049-2.024 5.656-3.81.953-1.131 1.667-2.382 2.024-3.81.358-1.43.596-3.156.596-5.18v-2.5a49.694 49.694 0 00-5.477-1.012 44.866 44.866 0 00-5.597-.358c-3.988 0-6.905.774-8.87 2.382-1.965 1.607-2.917 3.87-2.917 6.846 0 2.798.714 4.882 2.203 6.31 1.428 1.49 3.512 2.203 6.25 2.203zm47.805 6.429c-1.072 0-1.786-.178-2.262-.595-.477-.357-.893-1.191-1.25-2.322l-13.99-46.02c-.358-1.19-.537-1.964-.537-2.38 0-.953.476-1.49 1.43-1.49h5.833c1.132 0 1.905.18 2.322.596.476.357.834 1.19 1.19 2.322l10.002 39.411 9.288-39.411c.297-1.19.655-1.965 1.131-2.322s1.31-.595 2.381-.595h4.763c1.131 0 1.905.178 2.381.595.476.357.893 1.19 1.131 2.322l9.407 39.888 10.299-39.888c.357-1.19.774-1.965 1.191-2.322.476-.357 1.25-.595 2.321-.595h5.537c.953 0 1.488.476 1.488 1.488 0 .298-.059.596-.119.953-.059.357-.178.833-.416 1.488l-14.348 46.019c-.357 1.191-.774 1.965-1.25 2.322-.476.358-1.25.596-2.262.596h-5.12c-1.132 0-1.905-.179-2.382-.596-.476-.416-.893-1.19-1.131-2.381l-9.228-38.4-9.168 38.34c-.297 1.191-.655 1.965-1.13 2.382-.477.417-1.31.595-2.382.595h-5.12zm76.5 1.608c-3.095 0-6.191-.358-9.168-1.072-2.976-.714-5.298-1.488-6.846-2.381-.953-.536-1.607-1.132-1.846-1.667a4.208 4.208 0 01-.357-1.667v-3.037c0-1.25.477-1.845 1.37-1.845.357 0 .714.06 1.071.178.357.12.893.358 1.488.596a32.395 32.395 0 006.549 2.084c2.381.476 4.703.714 7.085.714 3.75 0 6.667-.655 8.692-1.965 2.024-1.31 3.095-3.215 3.095-5.655 0-1.667-.536-3.037-1.607-4.168-1.072-1.13-3.096-2.143-6.013-3.095l-8.632-2.68c-4.346-1.369-7.561-3.393-9.526-6.072-1.964-2.62-2.976-5.537-2.976-8.632 0-2.5.535-4.703 1.607-6.608 1.072-1.906 2.5-3.572 4.286-4.882 1.786-1.37 3.811-2.381 6.192-3.096 2.381-.714 4.882-1.012 7.501-1.012 1.31 0 2.679.06 3.989.238 1.369.179 2.619.417 3.87.655 1.19.298 2.321.595 3.393.953 1.072.357 1.905.714 2.5 1.071.834.476 1.429.953 1.786 1.489.358.476.536 1.13.536 1.964v2.798c0 1.25-.476 1.905-1.369 1.905-.476 0-1.25-.238-2.262-.714-3.394-1.548-7.204-2.322-11.431-2.322-3.393 0-6.072.536-7.918 1.667-1.845 1.131-2.798 2.858-2.798 5.298 0 1.667.595 3.096 1.786 4.227 1.191 1.132 3.394 2.263 6.549 3.275l8.454 2.679c4.286 1.369 7.382 3.274 9.227 5.715 1.846 2.44 2.739 5.239 2.739 8.335 0 2.56-.536 4.881-1.548 6.905-1.072 2.025-2.5 3.811-4.346 5.239-1.846 1.489-4.048 2.56-6.608 3.334-2.679.834-5.477 1.251-8.514 1.251z" stroke="#FF7C6E" stroke-width="4" mask="url(#a)"/>
        <path d="M176.425 136.699l.001-.001c.959-.709 1.554-1.579 1.754-2.516a3.28 3.28 0 00-.522-2.57c-1.004-1.447-3.05-2.076-5.085-1.158-21.839 9.231-45.575 13.728-67.17 13.728-32.028 0-62.99-8.822-88.08-23.378-1.425-.845-2.993-.659-3.834.453-.843 1.115-.583 2.672.634 3.771h0c23.517 21.237 54.652 34.013 89.196 34.013 24.637 0 53.315-7.724 73.106-22.342zm6.773-9.477l.006.007c.157.199.308.553.385 1.134.076.572.07 1.288-.016 2.133-.173 1.691-.656 3.763-1.304 5.965-1.294 4.397-3.196 9.147-4.388 12.097l-.002.003c-.229.573-.321 1.168-.191 1.723a1.884 1.884 0 001.05 1.305c1.018.471 2.227.029 3.157-.762 5.448-4.583 8.829-11.595 10.585-17.731.88-3.078 1.364-5.979 1.488-8.304.062-1.161.035-2.202-.087-3.062-.116-.821-.337-1.625-.778-2.177h0l-.007-.008c-.432-.529-1.15-.927-1.917-1.24-.802-.327-1.803-.614-2.942-.851-2.281-.475-5.205-.762-8.402-.717-6.37.091-13.994 1.509-19.819 5.599l-.006.004-.006.005c-.992.718-1.718 1.782-1.522 2.883.105.586.466 1.066.996 1.347.504.267 1.102.327 1.711.251 3.19-.387 8.248-.991 12.813-1.101 2.287-.056 4.406.014 6.086.284.84.135 1.538.314 2.079.536.548.225.866.464 1.031.677z" fill="#FF7C6E" stroke="#FF7C6E" stroke-width="2"/>
    </symbol>
    <symbol id="erlang-tag" viewBox="0 0 210 210">
        <path d="M45.442 153.137c-13.583-14.393-21.53-34.277-21.51-58.002-.019-20.98 6.574-39.015 17.907-52.738l-.019.007H18V153.14h27.425l.017-.002zM170.893 153.145c5.851-6.267 11.094-13.648 15.845-22.088l-26.365-13.183c-9.26 15.054-22.801 28.91-41.526 29.002-27.252-.092-37.959-23.396-37.9-53.39h101.836c.136-3.386.136-4.96 0-6.59.665-17.845-4.064-32.845-12.668-44.526l-.044.034H193v110.734h-22.157l.05.007z" fill="#FF7C6E"/>
        <path d="M82.596 67.78c1.127-13.58 11.834-22.713 24.388-22.74 12.639.027 21.771 9.16 22.081 22.74h-46.47z" fill="#FF7C6E"/>
    </symbol>
    <symbol id="docker-tag" viewBox="0 0 210 210">
        <path d="M189.45 83.984c-3.873-2.687-12.749-3.695-19.689-2.352-.807-6.718-4.518-12.597-10.974-17.804l-3.711-2.687-2.582 3.863c-3.228 5.04-4.842 12.093-4.358 18.812.162 2.351.969 6.55 3.389 10.246-2.259 1.343-6.939 3.023-13.071 3.023H21.776l-.323 1.344c-1.13 6.718-1.13 27.713 12.104 43.838 10.005 12.261 24.852 18.476 44.38 18.476 42.281 0 73.588-20.324 88.274-57.108 5.81.168 18.236 0 24.53-12.597.161-.336.484-1.007 1.613-3.527l.646-1.343-3.55-2.184zm-74.397-47.365H97.302v16.796h17.751V36.619zm0 20.155H97.302V73.57h17.751V56.774zm-20.979 0H76.322V73.57h17.752V56.774zm-20.98 0H55.344V73.57h17.752V56.774zM52.116 76.93H34.363v16.796h17.752V76.93zm20.98 0H55.343v16.796h17.752V76.93zm20.98 0H76.321v16.796h17.752V76.93zm20.978 0H97.302v16.796h17.751V76.93zm20.98 0h-17.752v16.796h17.752V76.93z" fill="#FF7C6E"/>
    </symbol>
    <symbol id="graphql-tag" viewBox="0 0 210 210">
        <path fill-rule="evenodd" clip-rule="evenodd" d="M126.002 33.389l38.378 22.158a16.759 16.759 0 013.775-2.987c7.96-4.575 18.112-1.859 22.735 6.1 4.575 7.96 1.859 18.112-6.101 22.736a16.672 16.672 0 01-4.432 1.765v44.334c1.502.364 2.978.945 4.385 1.753 8.007 4.623 10.723 14.775 6.1 22.735-4.575 7.959-14.775 10.676-22.734 6.1a16.493 16.493 0 01-4.115-3.339l-38.144 22.023c.545 1.648.84 3.41.84 5.243 0 9.151-7.435 16.634-16.634 16.634-9.198 0-16.634-7.436-16.634-16.634 0-1.635.235-3.215.673-4.707l-38.367-22.152a16.745 16.745 0 01-3.724 2.932c-8.007 4.576-18.159 1.859-22.734-6.1-4.576-7.96-1.86-18.112 6.1-22.735a16.67 16.67 0 014.385-1.754V83.161a16.674 16.674 0 01-4.432-1.765c-7.96-4.576-10.677-14.776-6.1-22.735 4.575-7.96 14.774-10.676 22.734-6.1a16.754 16.754 0 013.757 2.968l38.389-22.165a16.683 16.683 0 01-.68-4.73c0-9.199 7.435-16.634 16.633-16.634 9.199 0 16.634 7.435 16.634 16.634 0 1.653-.24 3.249-.687 4.755zm-3.998 6.827l38.469 22.211a16.608 16.608 0 001.582 12.868c2.341 4.073 6.156 6.774 10.39 7.826v44.39c-.216.053-.431.11-.644.171L121.557 40.66c.152-.145.3-.293.447-.444zm-23.44.454L48.323 127.69a16.524 16.524 0 00-.656-.176V83.121c4.234-1.052 8.049-3.752 10.39-7.826a16.61 16.61 0 001.575-12.893L98.09 40.198c.155.16.313.318.475.472zm16.139 3.942l50.232 87.001a16.702 16.702 0 00-4.682 8.121H59.858a16.672 16.672 0 00-1.754-4.385 16.74 16.74 0 00-2.923-3.715l50.241-87.018c1.47.425 3.025.652 4.633.652 1.614 0 3.174-.229 4.648-.656zm7.654 126.191l38.22-22.066a17.17 17.17 0 01-.308-1.092H59.837c-.053.216-.11.431-.172.644l38.407 22.175a16.585 16.585 0 0111.983-5.088 16.59 16.59 0 0112.302 5.427z" fill="#FF7C6E"/>
    </symbol>
    <symbol id="nodejs-tag" viewBox="0 0 210 210">
        <path d="M105 189.783c-2.422 0-4.683-.646-6.783-1.777L76.74 175.248c-3.23-1.776-1.615-2.422-.646-2.745 4.36-1.453 5.168-1.776 9.69-4.36.484-.323 1.13-.162 1.614.161l16.473 9.851c.646.323 1.453.323 1.937 0l64.435-37.304c.646-.323.969-.969.969-1.776V64.627c0-.807-.323-1.453-.969-1.776l-64.435-37.143c-.646-.323-1.453-.323-1.937 0L39.435 62.851c-.646.323-.97 1.13-.97 1.776v74.448c0 .645.324 1.453.97 1.776l17.602 10.174c9.528 4.845 15.503-.808 15.503-6.46V71.087c0-.969.808-1.938 1.938-1.938h8.236c.97 0 1.938.808 1.938 1.938v73.478c0 12.758-6.944 20.187-19.056 20.187-3.714 0-6.62 0-14.857-4.038l-16.956-9.689c-4.2-2.423-6.783-6.944-6.783-11.789V64.789c0-4.845 2.584-9.367 6.783-11.789l64.434-37.304c4.038-2.261 9.528-2.261 13.566 0L176.217 53c4.199 2.422 6.783 6.944 6.783 11.789v74.447c0 4.845-2.584 9.366-6.783 11.789l-64.434 37.304c-2.1.969-4.522 1.454-6.783 1.454zm19.863-51.193c-28.26 0-34.074-12.919-34.074-23.901 0-.969.807-1.937 1.938-1.937h8.397c.969 0 1.777.646 1.777 1.614 1.292 8.559 5.006 12.758 22.124 12.758 13.565 0 19.379-3.068 19.379-10.335 0-4.199-1.615-7.267-22.77-9.367-17.603-1.776-28.584-5.652-28.584-19.701 0-13.081 10.981-20.833 29.391-20.833 20.671 0 30.845 7.106 32.137 22.609 0 .484-.162.969-.485 1.453-.323.323-.807.646-1.292.646h-8.397c-.808 0-1.615-.646-1.777-1.453-1.938-8.882-6.944-11.789-20.186-11.789-14.857 0-16.634 5.168-16.634 9.043 0 4.684 2.1 6.137 22.125 8.721 19.863 2.584 29.229 6.298 29.229 20.186-.161 14.212-11.788 22.286-32.298 22.286z" fill="#FF7C6E"/>
    </symbol>
    <symbol id="akka-tag" viewBox="0 0 210 210">
        <path fill-rule="evenodd" clip-rule="evenodd" d="M186.763 119.12c15.245 21.593.287 57.313-20.579 40.631-29.771-23.772-74.517-15.964-94.799-10.659 24.8-23.947 49.44-35.859 70.114-39.417 19.986-3.438 36.007.933 45.264 9.445zm-33.773-15.597c-30.64-2.289-61.43 14.875-92.275 48.779 0 0 .231-.085.676-.238 27.504-28.875 55.548-43.236 79.261-47.316a84.326 84.326 0 0112.338-1.225z" fill="#FF7C6E"/>
        <path d="M61.305 151.786c25.371-26.331 67.559-55.685 106.87-44.843 9.146 2.581 15.636 7.892 19.84 14.235l-37.172-75.009c-5.31-8.482-18.881-6.711-26.552-.221l-98.241 82.31c-8.924 7.671-9.44 21.315-1.18 29.576 7.302 7.301 18.881 7.965 26.92 1.475l9.515-7.523z" fill="#FF7C6E"/>
    </symbol>
    <symbol id="bitcoin-tag" viewBox="0 0 210 210">
        <path fill-rule="evenodd" clip-rule="evenodd" d="M82.446 187.454c45.495 11.356 91.654-16.338 103.011-61.899 11.358-45.56-16.404-91.718-61.899-103.009C77.996 11.19 31.904 38.884 20.546 84.445c-11.357 45.494 16.339 91.652 61.9 103.009zm42.299-114.495c11.82 4.05 20.386 10.16 18.726 21.45-1.195 8.234-5.777 12.284-11.953 13.679 8.367 4.383 12.617 11.09 8.566 22.644-4.98 14.411-16.933 15.606-32.871 12.618l-3.851 15.472-9.297-2.324 3.785-15.273c-2.39-.598-4.913-1.262-7.436-1.926h-.001l-3.852 15.34-9.297-2.325 3.852-15.472a226.093 226.093 0 00-3.78-.987c-.946-.242-1.897-.485-2.86-.74l-12.153-3.054 4.648-10.692s6.84 1.793 6.774 1.66c2.59.664 3.785-1.062 4.25-2.191L84.104 96.4c.332.133.664.2.996.266-.35-.175-.649-.248-.896-.308a18.994 18.994 0 01-.1-.024l4.383-17.465c.133-1.992-.531-4.516-4.317-5.445.133-.067-6.773-1.66-6.773-1.66l2.457-9.961 12.883 3.187v.067c1.926.465 3.918.93 5.976 1.394l3.786-15.273 9.296 2.324-3.718 15.008c2.523.531 5.047 1.129 7.504 1.726l3.718-14.941 9.297 2.324-3.851 15.34zm-29.58 55.496c7.547 2.012 24.356 6.492 26.99-4.164 2.74-10.84-13.324-14.468-21.217-16.251-.908-.205-1.707-.385-2.357-.55l-5.114 20.52c.491.124 1.062.276 1.698.445zm7.296-30c6.31 1.705 20.176 5.451 22.616-4.246 2.441-9.824-10.92-12.815-17.49-14.286a77.451 77.451 0 01-1.967-.456l-4.649 18.594c.428.108.929.243 1.49.395z" fill="#FF7C6E"/>
    </symbol>
    <symbol id="c++-tag" viewBox="0 0 210 210">
        <path d="M197.167 109.443h-9.722v9.724h-9.724v-9.724H168v-9.721h9.721V90h9.724v9.722h9.722v9.721zM161.165 109.443h-9.721v9.724h-9.722v-9.724H132v-9.721h9.722V90h9.722v9.722h9.721v9.721z" fill="#FF7C6E"/>
        <path d="M139.703 125.597c-7.248 12.854-21.021 21.541-36.828 21.541-15.71 0-29.405-8.578-36.69-21.296a42.062 42.062 0 01-5.574-20.968c0-23.341 18.923-42.263 42.264-42.263 15.609 0 29.232 8.471 36.553 21.059l36.941-21.272C161.686 37.052 134.273 20 102.875 20 55.999 20 18 58 18 104.874c0 15.378 4.091 29.799 11.241 42.238 14.646 25.48 42.137 42.637 73.634 42.637 31.555 0 59.089-17.226 73.714-42.781l-36.886-21.371z" fill="#FF7C6E"/>
    </symbol>
    <symbol id="c#-tag" viewBox="0 0 210 210">
        <path d="M165 84v12h12V84h6v12h12v6h-12v12h12v6h-12v12h-6v-12h-12v12h-6v-12h-12v-6h12v-12h-12v-6h12V84h6zm12 18h-12v12h12v-12z" fill="#FF7C6E"/>
        <path d="M99.19 23c31.514 0 59.029 17.077 73.766 42.46l-.144-.244-37.078 21.303c-7.306-12.342-20.698-20.67-36.06-20.842l-.484-.003c-23.428 0-42.421 18.95-42.421 42.325a42.05 42.05 0 005.595 20.999c7.312 12.737 21.057 21.328 36.826 21.328 15.865 0 29.689-8.7 36.964-21.573l-.177.309 37.023 21.4c-14.576 25.169-41.713 42.194-72.861 42.533l-.95.005c-31.613 0-59.206-17.182-73.906-42.7C18.106 137.843 14 123.4 14 107.999 14 61.056 52.14 23 99.19 23z" fill="#FF7C6E"/>
    </symbol>
    <symbol id="elm-tag" viewBox="0 0 210 210">
        <path d="M107 108.718L25.719 190h162.563L107 108.718zM156.942 149.225L193 185.283v-72.116l-36.058 36.058zM102.282 104L21 22.718v162.565L102.282 104zM193 94.464V18h-76.464L193 94.464zM152.408 63.307l40.506 40.507-40.691 40.691-40.507-40.506 40.692-40.692zM25.717 18l37.44 37.44h81.384L107.101 18H25.717zM107 99.283l37.169-37.17H69.83L107 99.283z" fill="#FF7C6E"/>
    </symbol>
    <symbol id="etherium-tag" viewBox="0 0 210 210">
        <path d="M104.982 4l-1.31 4.453v129.22l1.31 1.308 59.982-35.456L104.982 4z" fill="#FF7C6E"/>
        <path d="M104.982 4L45 103.525l59.982 35.456V4zM104.982 150.338l-.738.9v46.031l.738 2.157L165 114.9l-60.018 35.438z" fill="#FF7C6E"/>
        <path d="M104.982 199.425v-49.088L45 114.9l59.982 84.525zM104.982 138.981l59.981-35.455-59.981-27.264v62.719zM45 103.526l59.982 35.455V76.262l-59.981 27.264z" fill="#FF7C6E"/>
    </symbol>
    <symbol id="f#-tag" viewBox="0 0 210 210">
        <path d="M17 104.102L100.525 18v43.05l-41.762 43.052 41.762 43.051v43.05L17 104.102z" fill="#FF7C6E"/>
        <path d="M70.695 104.102l29.831-30.75v61.5l-29.83-30.75zM193 104.102L106.491 18v43.05l41.763 43.052-41.763 43.051v43.05L193 104.102z" fill="#FF7C6E"/>
    </symbol>
    <symbol id="git-tag" viewBox="0 0 210 210">
        <path d="M190.66 97.613l-77.28-77.275c-4.447-4.45-11.666-4.45-16.12 0L81.215 36.386l20.356 20.356c4.731-1.598 10.155-.526 13.927 3.245 3.789 3.795 4.853 9.266 3.216 14.012l19.618 19.619c4.747-1.635 10.223-.577 14.014 3.22 5.298 5.296 5.298 13.88 0 19.18-5.3 5.3-13.883 5.3-19.185 0-3.985-3.989-4.97-9.843-2.952-14.752L111.912 82.97l-.002 48.147a13.719 13.719 0 013.587 2.566c5.298 5.296 5.298 13.879 0 19.183-5.3 5.298-13.888 5.298-19.18 0-5.298-5.304-5.298-13.887 0-19.183a13.583 13.583 0 014.44-2.96V82.127a13.395 13.395 0 01-4.44-2.96c-4.014-4.008-4.98-9.898-2.923-14.827L73.33 44.27l-52.99 52.985c-4.452 4.456-4.452 11.674 0 16.125l77.281 77.277c4.449 4.451 11.666 4.451 16.121 0l76.919-76.917c4.451-4.454 4.451-11.676 0-16.127z" fill="#FF7C6E"/>
    </symbol>
    <symbol id="go-tag" viewBox="0 0 210 210">
        <path d="M119.984 71.453l.461.308c5.419 3.578 9.305 8.486 11.861 14.416.613.92.204 1.432-1.023 1.739l-2.077.53c-4.694 1.21-8.42 2.228-13.053 3.437l-2.643.689c-.952.235-1.214.136-2.226-1.016l-.143-.164c-1.443-1.636-2.525-2.728-4.437-3.704l-.369-.181c-6.441-3.17-12.678-2.25-18.506 1.533-6.953 4.5-10.531 11.145-10.43 19.427.103 8.18 5.727 14.928 13.804 16.053 6.953.92 12.781-1.534 17.382-6.749.92-1.124 1.738-2.351 2.76-3.783H91.612c-2.147 0-2.658-1.329-1.943-3.067l.355-.834c1.314-3.058 3.352-7.452 4.676-9.965l.289-.54c.353-.614 1.07-1.442 2.451-1.442h32.904c1.478-4.682 3.876-9.106 7.074-13.292 7.464-9.815 16.462-14.928 28.629-17.075 10.429-1.84 20.245-.818 29.14 5.215 8.077 5.521 13.087 12.985 14.417 22.8 1.738 13.804-2.25 25.051-11.759 34.662-6.748 6.85-15.03 11.145-24.539 13.087-2.76.512-5.521.614-8.179.92-9.305-.204-17.791-2.862-24.948-8.997-5.034-4.351-8.502-9.7-10.225-15.926a43 43 0 01-4.294 6.928c-7.362 9.714-16.973 15.746-29.14 17.382-10.02 1.329-19.325-.613-27.504-6.748-7.566-5.726-11.86-13.292-12.985-22.699-1.33-11.144 1.942-21.165 8.69-29.958 7.26-9.508 16.871-15.541 28.63-17.688 9.432-1.706 18.471-.654 26.633 4.702zm48.64 14.652l-.328.072c-9.509 2.148-15.643 8.18-17.893 17.791-1.84 7.975 2.045 16.053 9.407 19.325 5.623 2.454 11.247 2.147 16.666-.614 8.077-4.192 12.474-10.736 12.985-19.529-.102-1.329-.102-2.351-.307-3.374-1.819-10.008-10.936-15.719-20.53-13.671zM47.749 104.786c.409 0 .613.307.613.716l-.204 2.454c0 .409-.41.716-.716.716l-22.29-.103c-.409 0-.51-.306-.306-.613l1.431-2.556c.205-.307.614-.614 1.023-.614h20.449zm2.25-9.406c.408 0 .613.306.51.613l-.818 2.454c-.102.409-.51.613-.92.613L.41 99.163c-.409 0-.511-.205-.307-.511L2.25 95.89c.205-.307.716-.511 1.125-.511h46.624zm5.316-9.407c.409 0 .511.307.307.614l-1.739 2.658c-.204.307-.715.613-1.022.613l-37.013-.102c-.409 0-.511-.204-.307-.511l2.148-2.76c.204-.308.715-.512 1.124-.512h36.502z" fill="#FF7C6E"/>
    </symbol>
    <symbol id="ocaml-tag" viewBox="0 0 210 210">
        <path d="M106.827 175.588c-.618-1.282-1.391-3.794-1.902-4.897-.485-1.034-1.96-3.725-2.699-4.588-1.606-1.881-1.982-2.022-2.454-4.396-.822-4.135-2.996-11.632-5.558-16.807-1.324-2.67-3.525-4.913-5.54-6.85-1.758-1.698-5.722-4.558-6.414-4.415-6.474 1.293-8.483 7.643-11.528 12.673-1.685 2.783-3.47 5.149-4.798 8.109-1.226 2.722-1.117 5.736-3.217 8.073-2.153 2.399-3.553 4.951-4.608 8.052-.2.588-.767 6.773-1.383 8.238l-.001.004 9.623-.678c8.966.611 6.378 4.048 20.373 3.299l22.099-.684c-.687-2.025-1.63-4.37-1.993-5.133z" fill="#FF7C6E"/>
        <path d="M170.952 29H40.055C27.88 29 18.01 38.872 18.01 51.047v48.104c3.154-1.14 7.691-7.852 9.113-9.484 2.487-2.854 2.938-6.494 4.177-8.787 2.822-5.222 3.307-8.813 9.72-8.813 2.99 0 4.176.69 6.199 3.403 1.407 1.887 3.837 5.373 4.974 7.703 1.313 2.689 3.453 6.327 4.394 7.062.696.545 1.386.954 2.032 1.197 1.04.39 1.9-.326 2.596-.88.888-.707 1.271-2.148 2.092-4.07 1.186-2.772 2.477-6.095 3.212-7.254 1.271-2.004 1.705-4.383 3.078-5.535 2.025-1.699 4.668-1.818 5.395-1.962 4.069-.803 5.919 1.962 7.923 3.748 1.312 1.172 3.104 3.531 4.377 6.693.995 2.469 2.261 4.753 2.79 6.18.513 1.376 1.776 3.582 2.524 6.227.68 2.401 2.499 4.242 3.19 5.383 0 0 1.058 2.964 7.493 5.673 1.395.588 4.215 1.544 5.898 2.156 2.796 1.016 5.504.884 8.953.47 2.458 0 3.79-3.56 4.908-6.411.66-1.685 1.293-6.514 1.725-7.885.417-1.334-.559-2.365.272-3.534.973-1.365 1.551-1.44 2.112-3.218 1.207-3.81 8.178-4.002 12.097-4.002 3.266 0 2.85 3.171 8.392 2.086 3.173-.622 6.231.41 9.6 1.302 2.837.752 5.504 1.61 7.102 3.48 1.035 1.212 3.601 7.282.986 7.54.251.308.435.863.905 1.167-.582 2.289-3.117.658-4.525.364-1.897-.393-3.237.06-5.093.881-3.173 1.413-7.815 1.248-10.579 3.551-2.346 1.951-2.341 6.307-3.435 8.748 0 0-3.037 7.816-9.668 12.598-1.699 1.226-5.019 4.175-12.241 5.291-3.241.501-6.273.542-9.601.376-1.629-.078-3.164-.162-4.798-.183-.962-.007-4.189-.11-4.029.199l-.36.896c.056.295.174 1.032.207 1.21.132.724.169 1.301.196 1.966.05 1.369-.113 2.796-.043 4.177.145 2.866 1.208 5.478 1.342 8.369.147 3.219 1.739 6.625 3.279 9.254.585 1.001 1.475 1.115 1.863 2.347.454 1.413.024 2.91.245 4.416.867 5.836 2.548 11.936 5.176 17.204a1.405 1.405 0 00.062.132c3.245-.546 6.497-1.713 10.713-2.336 7.732-1.147 18.484-.556 25.391-1.203 17.477-1.643 26.962 7.168 42.658 3.557V51.048C192.997 38.872 183.13 29 170.952 29zM105.65 132.488c-.024-.264-.012-.227.025-.064l-.025.064z" fill="#FF7C6E"/>
        <path d="M58.354 152.733c1.22-2.662 1.924-5.692 2.933-8.414.968-2.612 2.48-6.303 5.058-7.618-.314-.367-5.387-.535-6.74-.671-1.51-.153-2.912-.325-4.378-.621-2.738-.553-5.73-1.09-8.426-1.736-1.637-.396-7.092-2.328-8.277-2.872-2.779-1.281-4.625-4.762-6.797-4.404-1.387.227-2.738.702-3.6 2.101-.704 1.14-.944 3.1-1.431 4.416-.566 1.527-1.543 2.952-2.398 4.406-1.573 2.668-4.404 5.081-5.623 7.681a16.794 16.794 0 00-.668 1.757v29.717c1.423.243 2.912.542 4.578.987 12.294 3.281 15.294 3.558 27.353 2.18l1.131-.15v-.001c.923-1.922 1.636-8.46 2.234-10.484.466-1.552 1.107-2.789 1.35-4.373.23-1.506-.021-2.94-.151-4.308-.335-3.427 2.5-4.651 3.852-7.593z" fill="#FF7C6E"/>
    </symbol>
    <symbol id="postgres-tag" viewBox="0 0 210 210">
        <path fill-rule="evenodd" clip-rule="evenodd" d="M159.405 72.079c.383-2.492.745-4.88.79-7.51-10.497-1.302-14.678 1.117-16.326 3.471-5.531 7.908 5.274 27.286 9.889 35.561 1.186 2.126 2.042 3.662 2.436 4.618a26.415 26.415 0 001.406 2.891c3.174-6.754 2.355-13.599 1.556-20.247-.396-3.291-.805-6.695-.699-9.969.108-3.36.534-6.128.946-8.805l.002-.01zm24.235-34.96c-8.616-11.009-20.785-16.764-36.168-17.103-6.072-.136-11.496.631-15.462 1.453 9.22 4.068 15.974 10.1 20.604 15.49 8.466 9.855 12.619 20.742 12.962 24.38a4.19 4.19 0 01-.088 1.427c.134 3.794-.352 7.012-.831 10.122l-.001.009c-.389 2.521-.79 5.128-.887 8.168-.093 2.871.274 5.928.663 9.164.948 7.886 2.012 16.781-3.431 25.771l.083.103.183.23c.219.274.431.541.639.805 21.066-33.149 28.342-71.574 21.734-80.018zM53.231 139.939c.967.322 3.905 1.301 8.158-3.813a390.192 390.192 0 0114.26-16.171 26.016 26.016 0 01-1.887-1.78c-5.839-6.092-8.497-14.531-7.29-23.153 1.297-9.278.811-17.472.55-21.873-.071-1.203-.123-2.077-.121-2.694-.037-1.6-.397-27.772 14.771-43.092.073-.074.149-.145.224-.215.06-.057.12-.113.179-.171-9.244-3.013-32.248-8.952-46.24.97-8.598 6.098-12.544 17.445-11.73 33.725.257 5.148 3.514 23.506 9.086 41.763 6.44 21.099 13.744 34.404 20.04 36.504zm18.503-44.181c-.978 7 1.159 13.83 5.865 18.74 3.7 3.862 8.567 5.999 13.57 6.014.573-2.355 1.498-4.834 2.492-7.5l.007-.017.393-1.057c.508-1.367 1.103-2.689 1.733-4.087v-.001c3.054-6.787 6.856-15.233 2.474-35.497-.847-3.915-2.882-6.19-6.225-6.956-7.323-1.678-17.592 3.825-19.808 5.79.02.416.05.937.085 1.53l.007.117v.004c.272 4.587.777 13.121-.593 22.92zm3.087 44.545c.771.526 2.085 1.16 3.546 1.525 7.09 1.774 16.963 1.896 23.739-7.59.803-1.125.557-2.57.339-3.332-.462-1.612-1.6-3.077-2.77-3.561-1.442-.598-2.237-.928-3.976 1.019v.001c-1.16 1.296-2 2.361-2.74 3.3l-.015.018c-3.243 4.119-4.728 5.516-14.346 7.496-1.987.409-3.133.821-3.777 1.124zm35.201 38.017c2.745 6.862 6.91 12.865 18.676 10.344 11.348-2.433 15.384-6.518 17.275-17.486 1.433-8.302 4.253-31.799 4.65-36.818-.492-10.002 4.904-12.003 7.908-12.869-.382-.549-.885-1.177-1.403-1.824l-.01-.012c-1.703-2.128-4.035-5.042-5.836-9.408-.275-.668-1.151-2.239-2.165-4.057-5.532-9.92-17.041-30.56-9.602-41.195 3.42-4.889 10.166-6.847 20.084-5.838-1.319-3.918-4.624-11.183-10.727-18.395-7.082-8.37-19.632-18.413-39.202-18.733-9.933-.164-18.085 2.884-24.206 9.058-9.722 9.805-12.321 25.302-13.009 33.595.453-.253.938-.512 1.468-.78 2.464-1.25 7.405-3.43 12.807-3.989 9.01-.933 14.952 3.086 16.732 11.316 4.752 21.974.374 31.701-2.823 38.803-.592 1.314-1.15 2.557-1.596 3.756l-.397 1.064c-.943 2.529-1.814 4.864-2.316 6.932 2.354-.602 4.313.21 5.38.652 2.686 1.113 4.925 3.798 5.844 7.008.15.524.258 1.045.328 1.559.081.267.123.55.115.844-.618 22.063.253 42.042 2.025 46.473zm54.689-43.13c4.884-.229 10.024-1.299 13.096-2.725 3.573-1.659 6.092-3.507 7.564-4.883l-.045.009a4.97 4.97 0 01-.075.015c-10.916 2.253-18.648 1.945-22.984-.917a9.234 9.234 0 01-.743-.545c-.353.124-.718.226-1.092.332l-.034.009c-2.455.69-4.776 1.341-4.472 7.574.646.527 3.391 1.384 8.785 1.131z" fill="#FF7C6E"/>
    </symbol>
    <symbol id="python-tag" viewBox="0 0 210 210">
        <path d="M104.674 21c-42.792 0-40.12 18.516-40.12 18.516l.048 19.182h40.835v5.76H48.382S21 61.357 21 104.44c0 43.081 23.9 41.553 23.9 41.553h14.264v-19.991s-.77-23.847 23.518-23.847h40.501s22.755.367 22.755-21.943V43.324S149.393 21 104.674 21zM82.157 33.9c4.063 0 7.347 3.276 7.347 7.33 0 4.053-3.284 7.33-7.347 7.33-4.063 0-7.346-3.277-7.346-7.33 0-4.054 3.283-7.33 7.346-7.33z" fill="#FF7C6E"/>
        <path d="M105.326 188c42.792 0 40.12-18.516 40.12-18.516l-.048-19.182h-40.835v-5.759h57.055S189 147.641 189 104.56c0-43.081-23.9-41.553-23.9-41.553h-14.264v19.991s.769 23.847-23.518 23.847H86.817s-22.755-.367-22.755 21.943v36.888S60.607 188 105.326 188zm22.517-12.899c-4.063 0-7.347-3.277-7.347-7.33 0-4.054 3.284-7.33 7.347-7.33 4.063 0 7.346 3.276 7.346 7.33 0 4.053-3.283 7.33-7.346 7.33z" fill="#FF7C6E"/>
    </symbol>
    <symbol id="react-tag" viewBox="0 0 210 210">
        <mask id="a" maskUnits="userSpaceOnUse" x="16" y="24" width="179" height="160" fill="#000">
            <path fill="#fff" d="M16 24h179v160H16z"/>
            <path d="M161.885 76.465a116.945 116.945 0 00-5.633-1.775c.318-1.3.61-2.581.87-3.842 4.264-20.7 1.476-37.376-8.045-42.867-9.129-5.264-24.059.225-39.138 13.348a116.639 116.639 0 00-4.358 3.998 104.996 104.996 0 00-2.9-2.678C86.878 28.617 71.038 22.704 61.526 28.21c-9.12 5.28-11.822 20.957-7.983 40.575.37 1.895.804 3.83 1.294 5.797a115.828 115.828 0 00-6.477 2.037C29.833 83.079 18 93.202 18 103.703c0 10.845 12.702 21.723 32 28.319a98.634 98.634 0 004.732 1.48 114.439 114.439 0 00-1.374 6.247c-3.66 19.277-.802 34.584 8.294 39.83 9.396 5.418 25.164-.151 40.519-13.573a99.38 99.38 0 003.652-3.365 114.307 114.307 0 004.731 4.316c14.873 12.799 29.562 17.967 38.65 12.705 9.386-5.433 12.437-21.876 8.476-41.882a97.474 97.474 0 00-1.05-4.677c1.108-.328 2.195-.666 3.255-1.017C179.947 125.439 193 114.693 193 103.703c0-10.54-12.214-20.731-31.115-27.238zm-4.351 48.525c-.957.316-1.939.623-2.939.919-2.215-7.011-5.204-14.467-8.862-22.17 3.49-7.52 6.364-14.88 8.517-21.846 1.79.518 3.527 1.065 5.202 1.641 16.194 5.575 26.072 13.818 26.072 20.169 0 6.765-10.668 15.547-27.99 21.287zm-7.188 14.242c1.752 8.846 2.002 16.844.842 23.096-1.043 5.619-3.139 9.364-5.73 10.865-5.515 3.192-17.309-.958-30.029-11.903a107.83 107.83 0 01-4.4-4.012c4.931-5.393 9.859-11.663 14.669-18.626 8.46-.751 16.453-1.978 23.701-3.653a90.77 90.77 0 01.947 4.233zm-72.684 33.409c-5.389 1.903-9.68 1.957-12.275.462-5.52-3.184-7.814-15.474-4.684-31.96.358-1.888.785-3.827 1.277-5.81 7.169 1.586 15.103 2.726 23.583 3.414 4.842 6.813 9.913 13.076 15.023 18.56a92.941 92.941 0 01-3.335 3.07c-6.79 5.935-13.593 10.146-19.59 12.264zm-25.244-47.693c-8.533-2.916-15.58-6.707-20.41-10.843-4.341-3.718-6.532-7.408-6.532-10.402 0-6.373 9.5-14.5 25.345-20.025a107.91 107.91 0 016.024-1.895c2.19 7.123 5.062 14.57 8.529 22.102-3.512 7.643-6.425 15.209-8.636 22.416a92.217 92.217 0 01-4.32-1.353zm8.462-57.599c-3.289-16.808-1.105-29.487 4.392-32.669 5.854-3.389 18.8 1.444 32.445 13.56a98.42 98.42 0 012.626 2.423c-5.084 5.46-10.109 11.675-14.908 18.448-8.23.763-16.109 1.989-23.352 3.63a109.622 109.622 0 01-1.203-5.392zm75.487 18.64a237.273 237.273 0 00-5.322-8.752c5.584.706 10.934 1.643 15.957 2.79-1.508 4.833-3.388 9.887-5.601 15.068a259.995 259.995 0 00-5.034-9.106zm-30.784-29.983c3.449 3.735 6.902 7.906 10.299 12.432a220.118 220.118 0 00-20.684-.005c3.4-4.483 6.883-8.649 10.385-12.427zM74.603 86.04c-1.73 3-3.378 6.022-4.94 9.05-2.177-5.163-4.04-10.24-5.561-15.143 4.993-1.117 10.317-2.03 15.865-2.723a219.693 219.693 0 00-5.364 8.816zm5.524 44.675c-5.732-.64-11.136-1.506-16.128-2.593 1.545-4.99 3.45-10.175 5.672-15.449a219.873 219.873 0 004.961 9.055 220.908 220.908 0 005.495 8.987zm25.663 21.212c-3.543-3.823-7.077-8.052-10.529-12.601 3.35.132 6.767.199 10.239.199 3.567 0 7.093-.08 10.564-.235-3.408 4.631-6.849 8.866-10.274 12.637zm35.683-39.523c2.339 5.331 4.311 10.489 5.876 15.394-5.074 1.158-10.552 2.09-16.324 2.783a261.888 261.888 0 005.372-8.905 237.611 237.611 0 005.076-9.272zm-11.552 5.537a244.882 244.882 0 01-8.395 13.545c-5.193.372-10.558.563-16.026.563-5.446 0-10.743-.169-15.844-.5a212.106 212.106 0 01-8.554-13.567 209.883 209.883 0 01-7.466-14.1 212.13 212.13 0 017.444-14.108v.001a210.104 210.104 0 018.485-13.508 211.845 211.845 0 0115.935-.6c5.418 0 10.762.208 15.965.605a225.496 225.496 0 018.431 13.463 245.31 245.31 0 017.545 14.041 225.041 225.041 0 01-7.52 14.165zm15.422-83.483c5.86 3.38 8.139 17.009 4.457 34.88a99.52 99.52 0 01-.786 3.48c-7.261-1.675-15.145-2.922-23.399-3.696-4.809-6.848-9.792-13.073-14.793-18.463a109.498 109.498 0 014.024-3.69c12.92-11.244 24.995-15.684 30.497-12.51zM105.5 88.076c8.63 0 15.627 6.996 15.627 15.627 0 8.63-6.997 15.627-15.627 15.627s-15.627-6.997-15.627-15.627S96.87 88.076 105.5 88.076z"/>
        </mask>
        <path d="M161.885 76.465a116.945 116.945 0 00-5.633-1.775c.318-1.3.61-2.581.87-3.842 4.264-20.7 1.476-37.376-8.045-42.867-9.129-5.264-24.059.225-39.138 13.348a116.639 116.639 0 00-4.358 3.998 104.996 104.996 0 00-2.9-2.678C86.878 28.617 71.038 22.704 61.526 28.21c-9.12 5.28-11.822 20.957-7.983 40.575.37 1.895.804 3.83 1.294 5.797a115.828 115.828 0 00-6.477 2.037C29.833 83.079 18 93.202 18 103.703c0 10.845 12.702 21.723 32 28.319a98.634 98.634 0 004.732 1.48 114.439 114.439 0 00-1.374 6.247c-3.66 19.277-.802 34.584 8.294 39.83 9.396 5.418 25.164-.151 40.519-13.573a99.38 99.38 0 003.652-3.365 114.307 114.307 0 004.731 4.316c14.873 12.799 29.562 17.967 38.65 12.705 9.386-5.433 12.437-21.876 8.476-41.882a97.474 97.474 0 00-1.05-4.677c1.108-.328 2.195-.666 3.255-1.017C179.947 125.439 193 114.693 193 103.703c0-10.54-12.214-20.731-31.115-27.238zm-4.351 48.525c-.957.316-1.939.623-2.939.919-2.215-7.011-5.204-14.467-8.862-22.17 3.49-7.52 6.364-14.88 8.517-21.846 1.79.518 3.527 1.065 5.202 1.641 16.194 5.575 26.072 13.818 26.072 20.169 0 6.765-10.668 15.547-27.99 21.287zm-7.188 14.242c1.752 8.846 2.002 16.844.842 23.096-1.043 5.619-3.139 9.364-5.73 10.865-5.515 3.192-17.309-.958-30.029-11.903a107.83 107.83 0 01-4.4-4.012c4.931-5.393 9.859-11.663 14.669-18.626 8.46-.751 16.453-1.978 23.701-3.653a90.77 90.77 0 01.947 4.233zm-72.684 33.409c-5.389 1.903-9.68 1.957-12.275.462-5.52-3.184-7.814-15.474-4.684-31.96.358-1.888.785-3.827 1.277-5.81 7.169 1.586 15.103 2.726 23.583 3.414 4.842 6.813 9.913 13.076 15.023 18.56a92.941 92.941 0 01-3.335 3.07c-6.79 5.935-13.593 10.146-19.59 12.264zm-25.244-47.693c-8.533-2.916-15.58-6.707-20.41-10.843-4.341-3.718-6.532-7.408-6.532-10.402 0-6.373 9.5-14.5 25.345-20.025a107.91 107.91 0 016.024-1.895c2.19 7.123 5.062 14.57 8.529 22.102-3.512 7.643-6.425 15.209-8.636 22.416a92.217 92.217 0 01-4.32-1.353zm8.462-57.599c-3.289-16.808-1.105-29.487 4.392-32.669 5.854-3.389 18.8 1.444 32.445 13.56a98.42 98.42 0 012.626 2.423c-5.084 5.46-10.109 11.675-14.908 18.448-8.23.763-16.109 1.989-23.352 3.63a109.622 109.622 0 01-1.203-5.392zm75.487 18.64a237.273 237.273 0 00-5.322-8.752c5.584.706 10.934 1.643 15.957 2.79-1.508 4.833-3.388 9.887-5.601 15.068a259.995 259.995 0 00-5.034-9.106zm-30.784-29.983c3.449 3.735 6.902 7.906 10.299 12.432a220.118 220.118 0 00-20.684-.005c3.4-4.483 6.883-8.649 10.385-12.427zM74.603 86.04c-1.73 3-3.378 6.022-4.94 9.05-2.177-5.163-4.04-10.24-5.561-15.143 4.993-1.117 10.317-2.03 15.865-2.723a219.693 219.693 0 00-5.364 8.816zm5.524 44.675c-5.732-.64-11.136-1.506-16.128-2.593 1.545-4.99 3.45-10.175 5.672-15.449a219.873 219.873 0 004.961 9.055 220.908 220.908 0 005.495 8.987zm25.663 21.212c-3.543-3.823-7.077-8.052-10.529-12.601 3.35.132 6.767.199 10.239.199 3.567 0 7.093-.08 10.564-.235-3.408 4.631-6.849 8.866-10.274 12.637zm35.683-39.523c2.339 5.331 4.311 10.489 5.876 15.394-5.074 1.158-10.552 2.09-16.324 2.783a261.888 261.888 0 005.372-8.905 237.611 237.611 0 005.076-9.272zm-11.552 5.537a244.882 244.882 0 01-8.395 13.545c-5.193.372-10.558.563-16.026.563-5.446 0-10.743-.169-15.844-.5a212.106 212.106 0 01-8.554-13.567 209.883 209.883 0 01-7.466-14.1 212.13 212.13 0 017.444-14.108v.001a210.104 210.104 0 018.485-13.508 211.845 211.845 0 0115.935-.6c5.418 0 10.762.208 15.965.605a225.496 225.496 0 018.431 13.463 245.31 245.31 0 017.545 14.041 225.041 225.041 0 01-7.52 14.165zm15.422-83.483c5.86 3.38 8.139 17.009 4.457 34.88a99.52 99.52 0 01-.786 3.48c-7.261-1.675-15.145-2.922-23.399-3.696-4.809-6.848-9.792-13.073-14.793-18.463a109.498 109.498 0 014.024-3.69c12.92-11.244 24.995-15.684 30.497-12.51zM105.5 88.076c8.63 0 15.627 6.996 15.627 15.627 0 8.63-6.997 15.627-15.627 15.627s-15.627-6.997-15.627-15.627S96.87 88.076 105.5 88.076z" fill="#FF7C6E"/>
        <path d="M161.885 76.465a116.945 116.945 0 00-5.633-1.775c.318-1.3.61-2.581.87-3.842 4.264-20.7 1.476-37.376-8.045-42.867-9.129-5.264-24.059.225-39.138 13.348a116.639 116.639 0 00-4.358 3.998 104.996 104.996 0 00-2.9-2.678C86.878 28.617 71.038 22.704 61.526 28.21c-9.12 5.28-11.822 20.957-7.983 40.575.37 1.895.804 3.83 1.294 5.797a115.828 115.828 0 00-6.477 2.037C29.833 83.079 18 93.202 18 103.703c0 10.845 12.702 21.723 32 28.319a98.634 98.634 0 004.732 1.48 114.439 114.439 0 00-1.374 6.247c-3.66 19.277-.802 34.584 8.294 39.83 9.396 5.418 25.164-.151 40.519-13.573a99.38 99.38 0 003.652-3.365 114.307 114.307 0 004.731 4.316c14.873 12.799 29.562 17.967 38.65 12.705 9.386-5.433 12.437-21.876 8.476-41.882a97.474 97.474 0 00-1.05-4.677c1.108-.328 2.195-.666 3.255-1.017C179.947 125.439 193 114.693 193 103.703c0-10.54-12.214-20.731-31.115-27.238zm-4.351 48.525c-.957.316-1.939.623-2.939.919-2.215-7.011-5.204-14.467-8.862-22.17 3.49-7.52 6.364-14.88 8.517-21.846 1.79.518 3.527 1.065 5.202 1.641 16.194 5.575 26.072 13.818 26.072 20.169 0 6.765-10.668 15.547-27.99 21.287zm-7.188 14.242c1.752 8.846 2.002 16.844.842 23.096-1.043 5.619-3.139 9.364-5.73 10.865-5.515 3.192-17.309-.958-30.029-11.903a107.83 107.83 0 01-4.4-4.012c4.931-5.393 9.859-11.663 14.669-18.626 8.46-.751 16.453-1.978 23.701-3.653a90.77 90.77 0 01.947 4.233zm-72.684 33.409c-5.389 1.903-9.68 1.957-12.275.462-5.52-3.184-7.814-15.474-4.684-31.96.358-1.888.785-3.827 1.277-5.81 7.169 1.586 15.103 2.726 23.583 3.414 4.842 6.813 9.913 13.076 15.023 18.56a92.941 92.941 0 01-3.335 3.07c-6.79 5.935-13.593 10.146-19.59 12.264zm-25.244-47.693c-8.533-2.916-15.58-6.707-20.41-10.843-4.341-3.718-6.532-7.408-6.532-10.402 0-6.373 9.5-14.5 25.345-20.025a107.91 107.91 0 016.024-1.895c2.19 7.123 5.062 14.57 8.529 22.102-3.512 7.643-6.425 15.209-8.636 22.416a92.217 92.217 0 01-4.32-1.353zm8.462-57.599c-3.289-16.808-1.105-29.487 4.392-32.669 5.854-3.389 18.8 1.444 32.445 13.56a98.42 98.42 0 012.626 2.423c-5.084 5.46-10.109 11.675-14.908 18.448-8.23.763-16.109 1.989-23.352 3.63a109.622 109.622 0 01-1.203-5.392zm75.487 18.64a237.273 237.273 0 00-5.322-8.752c5.584.706 10.934 1.643 15.957 2.79-1.508 4.833-3.388 9.887-5.601 15.068a259.995 259.995 0 00-5.034-9.106zm-30.784-29.983c3.449 3.735 6.902 7.906 10.299 12.432a220.118 220.118 0 00-20.684-.005c3.4-4.483 6.883-8.649 10.385-12.427zM74.603 86.04c-1.73 3-3.378 6.022-4.94 9.05-2.177-5.163-4.04-10.24-5.561-15.143 4.993-1.117 10.317-2.03 15.865-2.723a219.693 219.693 0 00-5.364 8.816v0zm5.524 44.675c-5.732-.64-11.136-1.506-16.128-2.593 1.545-4.99 3.45-10.175 5.672-15.449a219.873 219.873 0 004.961 9.055h0a220.908 220.908 0 005.495 8.987zm25.663 21.212c-3.543-3.823-7.077-8.052-10.529-12.601 3.35.132 6.767.199 10.239.199 3.567 0 7.093-.08 10.564-.235-3.408 4.631-6.849 8.866-10.274 12.637zm35.683-39.523c2.339 5.331 4.311 10.489 5.876 15.394-5.074 1.158-10.552 2.09-16.324 2.783a261.888 261.888 0 005.372-8.905 237.611 237.611 0 005.076-9.272zm-11.552 5.537a244.882 244.882 0 01-8.395 13.545c-5.193.372-10.558.563-16.026.563-5.446 0-10.743-.169-15.844-.5a212.106 212.106 0 01-8.554-13.567h0a209.883 209.883 0 01-7.466-14.1 212.13 212.13 0 017.444-14.108v.001a210.104 210.104 0 018.485-13.508 211.845 211.845 0 0115.935-.6h0c5.418 0 10.762.208 15.965.605a225.496 225.496 0 018.431 13.463 245.31 245.31 0 017.545 14.041 225.041 225.041 0 01-7.52 14.165zm15.422-83.483c5.86 3.38 8.139 17.009 4.457 34.88a99.52 99.52 0 01-.786 3.48c-7.261-1.675-15.145-2.922-23.399-3.696-4.809-6.848-9.792-13.073-14.793-18.463a109.498 109.498 0 014.024-3.69c12.92-11.244 24.995-15.684 30.497-12.51zM105.5 88.076c8.63 0 15.627 6.996 15.627 15.627 0 8.63-6.997 15.627-15.627 15.627s-15.627-6.997-15.627-15.627S96.87 88.076 105.5 88.076z" stroke="#FF7C6E" stroke-width="4" mask="url(#a)"/>
    </symbol>
    <symbol id="rust-tag" viewBox="0 0 210 210">
        <path d="M187.852 102.941l-7.053-4.366a92.206 92.206 0 00-.2-2.055l6.061-5.653a2.42 2.42 0 00.725-2.249 2.417 2.417 0 00-1.529-1.801l-7.748-2.897a98.832 98.832 0 00-.607-2l4.833-6.713a2.427 2.427 0 00-1.58-3.815l-8.17-1.33c-.318-.619-.648-1.229-.982-1.834l3.433-7.536c.352-.767.28-1.66-.189-2.356a2.414 2.414 0 00-2.103-1.078l-8.292.29a65.358 65.358 0 00-1.31-1.59l1.906-8.077a2.428 2.428 0 00-2.92-2.921l-8.076 1.904a68.098 68.098 0 00-1.592-1.31l.291-8.292a2.42 2.42 0 00-1.077-2.103 2.425 2.425 0 00-2.355-.191l-7.535 3.435a87.667 87.667 0 00-1.834-.984l-1.333-8.172a2.426 2.426 0 00-3.813-1.58l-6.718 4.834a73.16 73.16 0 00-1.997-.605l-2.897-7.75a2.422 2.422 0 00-1.801-1.533 2.432 2.432 0 00-2.247.726l-5.653 6.066a73.244 73.244 0 00-2.055-.201l-4.366-7.055a2.426 2.426 0 00-4.127 0l-4.366 7.055c-.687.056-1.374.125-2.056.2l-5.655-6.065a2.425 2.425 0 00-4.048.807l-2.897 7.75c-.671.192-1.336.396-1.999.605l-6.716-4.833a2.42 2.42 0 00-2.348-.273 2.431 2.431 0 00-1.467 1.852l-1.332 8.172c-.617.32-1.227.648-1.835.984l-7.534-3.435a2.419 2.419 0 00-2.355.19 2.418 2.418 0 00-1.077 2.104l.289 8.292c-.536.428-1.068.866-1.593 1.31l-8.075-1.904a2.435 2.435 0 00-2.275.647 2.424 2.424 0 00-.646 2.274l1.902 8.077a77.428 77.428 0 00-1.307 1.59l-8.292-.29a2.425 2.425 0 00-2.294 3.433l3.435 7.537a74.11 74.11 0 00-.984 1.835l-8.17 1.329a2.428 2.428 0 00-1.58 3.815l4.834 6.713c-.21.663-.414 1.329-.607 2l-7.75 2.897a2.429 2.429 0 00-.804 4.05l6.063 5.653c-.076.682-.143 1.37-.2 2.055l-7.054 4.366A2.423 2.423 0 0021 105.005c0 .843.435 1.623 1.15 2.062l7.052 4.366c.058.687.125 1.373.2 2.055l-6.062 5.655a2.426 2.426 0 00.805 4.048l7.75 2.897c.192.671.396 1.337.606 2l-4.833 6.715a2.424 2.424 0 001.58 3.813l8.17 1.329c.319.62.646 1.23.983 1.838l-3.435 7.533a2.424 2.424 0 00.191 2.357 2.42 2.42 0 002.103 1.077l8.289-.291c.432.539.867 1.067 1.31 1.592l-1.902 8.079c-.193.819.05 1.674.646 2.27a2.418 2.418 0 002.275.645l8.075-1.902c.525.446 1.057.879 1.593 1.306l-.29 8.294a2.425 2.425 0 003.433 2.292l7.534-3.433c.607.337 1.217.664 1.835.984l1.332 8.167c.135.831.69 1.534 1.467 1.854a2.433 2.433 0 002.349-.272l6.712-4.836c.663.21 1.33.416 2 .609l2.897 7.746a2.42 2.42 0 001.801 1.53 2.414 2.414 0 002.248-.726l5.654-6.062c.683.078 1.37.144 2.057.205l4.366 7.053a2.427 2.427 0 004.126 0l4.366-7.053a81.651 81.651 0 002.055-.205l5.653 6.062a2.415 2.415 0 002.247.726 2.42 2.42 0 001.801-1.53l2.898-7.746a78.364 78.364 0 002-.609l6.714 4.836a2.43 2.43 0 003.814-1.582l1.332-8.167c.616-.32 1.226-.652 1.835-.984l7.534 3.433a2.423 2.423 0 003.432-2.292l-.289-8.294c.536-.428 1.067-.86 1.591-1.306l8.075 1.902a2.415 2.415 0 002.273-.645c.597-.596.84-1.451.647-2.27l-1.902-8.079c.443-.525.879-1.053 1.306-1.592l8.293.291a2.417 2.417 0 002.102-1.077 2.42 2.42 0 00.19-2.357l-3.434-7.533c.336-.608.665-1.218.983-1.838l8.17-1.329a2.415 2.415 0 001.852-1.467 2.423 2.423 0 00-.273-2.346l-4.833-6.715c.209-.663.413-1.329.607-2l7.748-2.897a2.418 2.418 0 001.53-1.801 2.414 2.414 0 00-.726-2.247l-6.061-5.655c.074-.682.141-1.369.201-2.055l7.053-4.366a2.42 2.42 0 001.149-2.062c0-.841-.433-1.623-1.148-2.064zm-47.205 58.508a4.997 4.997 0 01-3.828-5.937 4.982 4.982 0 015.921-3.835 4.996 4.996 0 013.831 5.933 4.992 4.992 0 01-5.924 3.839zm-2.397-16.208a4.547 4.547 0 00-5.401 3.499l-2.504 11.685c-7.727 3.508-16.308 5.456-25.345 5.456a61.23 61.23 0 01-25.876-5.701l-2.503-11.686a4.546 4.546 0 00-5.4-3.497l-10.316 2.215a61.28 61.28 0 01-5.334-6.287h50.196c.568 0 .947-.103.947-.62v-17.756c0-.517-.379-.62-.947-.62h-14.68v-11.255h15.878c1.449 0 7.749.414 9.764 8.467.631 2.477 2.016 10.533 2.963 13.113.944 2.892 4.786 8.671 8.881 8.671h25.013c.284 0 .587-.033.907-.09a61.58 61.58 0 01-5.689 6.674l-10.554-2.268zm-69.425 15.964a4.986 4.986 0 01-5.925-3.834 5 5 0 013.83-5.938 4.993 4.993 0 015.925 3.84c.576 2.696-1.138 5.355-3.83 5.932zM49.783 83.99a4.998 4.998 0 01-2.537 6.593 4.985 4.985 0 01-6.583-2.543 4.998 4.998 0 012.538-6.592 4.986 4.986 0 016.582 2.542zm-5.852 13.874l10.746-4.776a4.556 4.556 0 002.313-6.01l-2.213-5.004h8.704v39.236H45.92a61.498 61.498 0 01-2.34-16.848c0-2.229.12-4.433.351-6.598zm47.159-3.811V82.488h20.729c1.07 0 7.56 1.237 7.56 6.09 0 4.029-4.978 5.473-9.071 5.473H91.09v.002zm75.332 10.409c0 1.535-.056 3.053-.168 4.56h-6.302c-.631 0-.885.415-.885 1.033v2.894c0 6.812-3.841 8.293-7.207 8.671-3.205.361-6.759-1.342-7.197-3.304-1.891-10.635-5.042-12.907-10.018-16.831 6.175-3.922 12.601-9.707 12.601-17.45 0-8.36-5.732-13.627-9.639-16.21-5.482-3.613-11.551-4.337-13.188-4.337H59.246c8.837-9.864 20.815-16.85 34.362-19.393l7.683 8.06a4.543 4.543 0 006.43.147l8.595-8.222c18.011 3.353 33.26 14.565 42.048 29.947l-5.884 13.29a4.56 4.56 0 002.315 6.01l11.329 5.033c.195 2.011.298 4.043.298 6.102zm-65.128-67.223a4.984 4.984 0 017.053.162 5 5 0 01-.166 7.064 4.981 4.981 0 01-7.053-.163 5.002 5.002 0 01.166-7.063zm58.395 46.994a4.983 4.983 0 016.581-2.541 4.998 4.998 0 012.537 6.592 4.983 4.983 0 01-6.582 2.543 5.001 5.001 0 01-2.536-6.594z" fill="#FF7C6E"/>
    </symbol>
    <symbol id="serverless-tag" viewBox="0 0 210 210">
        <path d="M0 110.826h31.152L21.5 139.974H0v-29.148zm0-55.413h49.5L39.85 84.56H0V55.413zM0 0h67.85l-9.652 29.146H0V0zm98.552 0H176v29.146H88.902L98.552 0zM80.204 55.413H176V84.56H70.553l9.651-29.147zm-18.35 55.413H176v29.148H52.204l9.65-29.148z" fill="#FF7C6E"/>
    </symbol>
    <symbol id="typescript-tag" viewBox="0 0 210 210">
        <path fill-rule="evenodd" clip-rule="evenodd" d="M17 106v88h176V18H17v88zm38.92.584l-.056 7.207h22.908v65.092H94.975v-65.092h22.908v-7.068c0-3.911-.084-7.18-.195-7.263-.084-.112-14.024-.168-30.926-.14l-30.758.084-.084 7.18zm114.102-1.043c-3.129-3.241-6.538-5.224-11.007-6.341-3.045-.755-10.253-.978-13.354-.392-9.554 1.816-16.175 7.934-18.047 16.706-.531 2.515-.363 8.745.307 11.231.81 2.989 2.766 6.565 4.833 8.8 3.576 3.855 7.487 6.286 16.567 10.197 7.934 3.436 10.727 5.084 12.096 7.04 1.062 1.536 1.313 2.43 1.313 4.47 0 2.262-.67 3.799-2.291 5.28-3.799 3.408-11.509 3.827-17.125.866-1.955-1.034-5.196-4.135-6.676-6.398l-1.062-1.564-5.057 2.933c-2.793 1.62-5.755 3.324-6.537 3.771-.81.475-1.536.922-1.62 1.034-.196.335 2.961 5.001 4.582 6.789 4.134 4.581 10.839 8.073 17.907 9.33 3.24.587 10.392.671 13.409.14 9.75-1.648 16.678-6.621 19.472-13.94 2.542-6.733 1.704-15.784-2.039-21.455-3.353-5.085-8.744-8.661-21.344-14.08-6.844-2.962-9.023-4.414-10.197-6.845-.558-1.117-.754-1.927-.754-3.296-.028-4.666 3.408-7.459 8.744-7.096 3.632.251 6.007 1.676 8.269 4.972.755 1.118 1.425 1.844 1.593 1.733 4.637-2.878 12.292-8.018 12.236-8.242-.196-.754-2.598-3.911-4.218-5.643z" fill="#FF7C6E"/>
    </symbol>
    <symbol id="elixir-tag" viewBox="0 0 210 210">
        <path fill-rule="evenodd" clip-rule="evenodd" d="M75.064 37.303c10.055-14.909 22.19-28.835 29.125-33.458 3.525-2.254 6.472-2.485 8.725-.578 1.85 1.618 2.543 4.565 2.601 10.344 0 6.24 1.387 13.522 4.16 21.785 3.814 11.558 6.819 15.892 24.444 35.366 19.359 21.439 26.813 33.401 31.379 50.159 1.386 5.259 1.502 6.414 1.502 18.029 0 10.691-.173 13.176-1.214 17.683-3.062 13.002-7.974 22.364-16.064 30.569-6.01 6.184-10.286 9.131-18.434 13.06-17.799 8.495-38.14 9.824-55.36 3.641-20.11-7.223-33.863-21.035-40.855-40.855-3.988-11.327-5.895-27.68-4.739-40.336 2.311-24.964 15.025-56.226 34.73-85.409zM67.34 141.16c-.347-5.952-.289-6.125 1.04-7.05 1.734-1.271 4.103-1.271 5.663 0 1.04.867 1.387 2.023 1.792 6.357.982 9.362 4.045 15.891 10.633 22.479 6.587 6.588 13.117 9.651 22.479 10.633 4.334.404 5.489.751 6.356 1.791 1.272 1.561 1.272 3.93 0 5.663-.924 1.33-1.098 1.387-7.05 1.041-21.901-1.156-39.757-19.012-40.913-40.914z" fill="#FF7C6E"/>
    </symbol>
    <symbol id="chevron_left" viewBox="0 0 86 86">
        <path d="m64.998 80.095c1.338 1.352 1.338 3.541 0 4.893-1.336 1.35-3.506 1.352-4.844 0l-39.151-39.54c-1.338-1.352-1.338-3.543 0-4.895l39.15-39.539c1.338-1.352 3.506-1.352 4.844 0s1.338 3.542 3e-3 4.893l-35.706 37.094 35.704 37.094z"/>
    </symbol>
    <symbol id="chevron_right" viewBox="0 0 86 86">
        <path d="m21.003 80.094c-1.338 1.352-1.338 3.541 0 4.893 1.337 1.35 3.506 1.352 4.845 0l39.149-39.539c1.338-1.352 1.338-3.543 0-4.895l-39.149-39.539c-1.339-1.352-3.506-1.352-4.845 0-1.338 1.352-1.338 3.541-1e-3 4.893l35.704 37.093-35.703 37.094z"/>
    </symbol>
</svg>