<?xml version="1.0" encoding="UTF-8"?>
<svg version="1.1" viewBox="0 0 399 232" xmlns="http://www.w3.org/2000/svg">
<g fill="none" fill-rule="evenodd">
<g transform="translate(1 1)">
<circle cx="22.84" cy="130.02" r="4.02" fill="#D4F4F2" fill-rule="nonzero"/>
<circle cx="4.13" cy="113.83" r="4.02" fill="#D4F4F2" fill-rule="nonzero"/>
<circle cx="4.13" cy="145.43" r="4.02" fill="#D4F4F2" fill-rule="nonzero"/>
<path d="m129 108c20.26 12.18 26.82 37.8 14.78 57.77s-38.49 26.53-58.25 14.39c-20.09-12.34-26.11-37.71-13.79-58.12 5.6659-9.5279 14.921-16.381 25.687-19.021 10.766-2.6399 22.142-0.84522 31.573 4.9811zm1.9 35.38c0.81086-2.856 1.0186-5.8494 0.61-8.79-0.35075-2.9993-1.6304-5.814-3.66-8.05-0.094752-0.10211-0.13555-0.24306-0.11-0.38 0.1-0.6 0.21-1.2 0.25-1.8 0.11606-1.8553-0.055985-3.7174-0.51-5.52-0.10934-0.51686-0.26669-1.0224-0.47-1.51-0.54 0-1.06 0.08-1.58 0.14-1.2541 0.12643-2.4834 0.43292-3.65 0.91-1.4716 0.64239-2.8809 1.419-4.21 2.32-0.14351 0.10602-0.32676 0.14267-0.5 0.1-2.1354-0.46962-4.3063-0.76063-6.49-0.87-1.9854-0.098413-3.9756-0.031515-5.95 0.2-1.5002 0.177-2.9869 0.45429-4.45 0.83-0.15867 0.050039-0.33189 0.016148-0.46-0.09-2.321-1.7799-5.0569-2.9397-7.95-3.37-0.5-0.07-1-0.11-1.53-0.17-1.197 3.0374-1.3794 6.3804-0.52 9.53-0.016309 0.032303-0.036454 0.062522-0.06 0.09l-0.11 0.13c-2.1451 2.398-3.3926 5.4655-3.53 8.68-0.093419 1.3664-0.06665 2.7383 0.08 4.1 0.13242 1.4433 0.44484 2.8643 0.93 4.23 0.66072 1.9307 1.8157 3.6546 3.35 5 1.3594 1.1238 2.8884 2.025 4.53 2.67 2.4582 0.93338 5.0317 1.5288 7.65 1.77l1.05 0.12v0.06l-0.34 0.16c-0.51 0.21-1 0.41-1.51 0.64-1.2084 0.52262-2.1512 1.5159-2.61 2.75-0.16802 0.44499-0.50625 0.8048-0.94 1-0.21 0.1-0.4 0.21-0.61 0.3-1.6709 0.80388-3.6277 0.74796-5.25-0.15-1.0018-0.53164-1.8995-1.2396-2.65-2.09-0.52-0.58-1-1.19-1.53-1.79-0.62397-0.78465-1.4037-1.4316-2.29-1.9-0.56979-0.27135-1.2008-0.38858-1.83-0.34-0.38313 0.039219-0.73875 0.21703-1 0.5-0.25 0.25-0.24 0.46 0 0.71l0.16 0.14c0.46 0.41 0.93 0.81 1.38 1.23 1.1126 1.0112 2.0488 2.2008 2.77 3.52 0.35 0.68 0.81 1.31 1.23 2 0.62482 0.93226 1.4928 1.6758 2.51 2.15 2.2161 1.2204 4.8331 1.4876 7.25 0.74h0.16v0.08c-0.051618 1.0237-0.028223 2.0497 0.07 3.07 0.06 0.92 0.1 1.85 0.09 2.77-0.018595 0.96954-0.46525 1.8812-1.22 2.49-0.25 0.22-0.53 0.4-0.79 0.6s-0.43 0.31-0.62 0.48c-0.17232 0.12348-0.26187 0.3324-0.23248 0.54235 0.029393 0.20995 0.17287 0.38624 0.37248 0.45765 0.18277 0.082848 0.37956 0.13035 0.58 0.14 0.37941 0.030005 0.76059 0.030005 1.14 0 1.0509-0.047423 2.0624-0.41366 2.9-1.05 0.56791-0.38412 0.99598-0.94201 1.22-1.59 0.14119-0.47694 0.20864-0.97267 0.2-1.47v-5.4-2.78c0.005813-0.33922 0.059683-0.6759 0.16-1 0.27708-0.73176 0.89885-1.2786 1.66-1.46v0.44 9.89c0.006582 0.58161-0.02683 1.163-0.1 1.74-0.084434 0.94919-0.37814 1.8679-0.86 2.69-0.24 0.38-0.46 0.78-0.69 1.17 0.14736 0.21309 0.40437 0.32212 0.66 0.28 0.38929-0.037044 0.77645-0.093784 1.16-0.17 1.481-0.29123 2.7-1.3394 3.21-2.76 0.43543-1.1222 0.65593-2.3163 0.65-3.52v-10.21h2.17v0.43 9.93c-0.007954 1.3007 0.27925 2.5863 0.84 3.76 0.28259 0.60663 0.72078 1.1276 1.27 1.51 0.87189 0.5395 1.8516 0.88088 2.87 1 0.20146 0.050096 0.41467-0.002271 0.57-0.14-0.12212-0.59841-0.38237-1.16-0.76-1.64-0.26004-0.34039-0.44416-0.73251-0.54-1.15-0.16938-0.80543-0.24986-1.627-0.24-2.45v-10.45-0.29c0.38957 0.10053 0.75396 0.28102 1.07 0.53 0.51088 0.34813 0.83206 0.91295 0.87 1.53 0.015191 0.28646 0.015191 0.57354 0 0.86v7.45 0.86c0.050065 0.76341 0.3899 1.4789 0.95 2 1.2447 1.1238 2.9154 1.6527 4.58 1.45 0.2016-0.027323 0.39553-0.09537 0.57-0.2 0.15497-0.104 0.24795-0.27837 0.24795-0.465s-0.092977-0.361-0.24795-0.465l-0.28-0.16c-0.83465-0.49858-1.543-1.183-2.07-2-0.078983-0.13004-0.12371-0.27798-0.13-0.43-0.06-1.41-0.12-2.83-0.14-4.24v-5.1c-2.55e-4 -0.78565-0.097661-1.5683-0.29-2.33-0.28833-1.4162-1.1215-2.6624-2.32-3.47-0.59-0.4-1.21-0.76-1.81-1.14l-0.36-0.21c0.18 0 0.3-0.05 0.41-0.05 1.1635-0.086267 2.3218-0.23313 3.47-0.44 2.5224-0.44335 4.9139-1.4444 7-2.93 2.4761-1.5943 4.2912-4.0311 5.11-6.86l0.02-0.03z" fill="#E6EDF2" fill-rule="nonzero"/>
<path d="m391.8 119.88c3.87 1.83 5.07 4.54 4 8.61l-6.49 24.51c-0.89 3.36-2.85 5-6.4 4.9-5.59-0.17-11.2-0.34-16.77-0.88-10.3-1-17.76 8.19-17.71 16.12 0.073328 1.8223 0.41016 3.6243 1 5.35 1.52 4.93 3.2 9.82 4.81 14.73 1.38 4.23 0.41 6.87-3.38 9.07-7.12 4.16-14.253 8.3133-21.4 12.46-3.31 1.91-6.44 1.45-9-1.36-3.74-4.09-7.44-8.21-11.17-12.31-7.18-7.92-21.14-6-26 3.57-2.52 5-5.0267 10-7.52 15-1.93 3.87-4.31 5-8.44 3.89l-24.49-6.48c-3.284-0.72157-5.4907-3.8093-5.11-7.15 0.42-5.08 0.58-10.21 1.45-15.22 1.55-8.85-5.89-16.3-12.58-17.95-2.6257-0.75706-5.4221-0.67666-8 0.23-5.1267 1.7267-10.27 3.4233-15.43 5.09-4.38 1.42-7.77 0.09-10-3.91-3.8733-6.94-7.73-13.88-11.57-20.82-2.29-4.14-1.94-6.1 1.54-9.23 3.93-3.54 7.74-7.21 11.78-10.63 8.59-7.27 5.89-21.9-3.71-26.43-4.95-2.34-9.79-4.89-14.69-7.34-3.74-1.88-4.95-4.51-3.89-8.52 2.12-8.04 4.2467-16.083 6.38-24.13 1-3.89 3.79-5.9 7.8-5.56 4.95 0.41 9.93 0.71 14.85 1.44 11.26 1.68 21.78-10.95 17.41-21.42-2.07-5-3.46-10.26-5.14-15.41-1.17-3.61-0.34-6.34 2.92-8.29 7.4-4.43 14.88-8.76 22.38-13 2.91-1.65 6.07-1 8.38 1.57 3.69 4 7.54 8 11 12.23 4.5 5.56 12.33 6.42 18.25 4.07 4.1195-1.5561 7.3888-4.7818 9-8.88 1.88-4.53 4-9 6-13.43 1.58-3.43 4.53-5 8.18-4.07 8.3733 2.1067 16.707 4.3133 25 6.62 3.77 1 5.29 3.47 5.07 7.34-0.32 5.66-0.66 11.31-0.92 17-0.48 10.73 10.72 19.24 20.88 15.89 5.56-1.83 11.11-3.7 16.66-5.57 2.5656-0.82763 5.3614 0.24161 6.72 2.57 4.6667 7.5533 9.28 15.147 13.84 22.78 1.74 2.93 0.85 6.53-2.05 9.19-3.95 3.62-7.76 7.4-11.94 10.74-8.48 6.78-5.64 23.11 4.49 26.8 4.84 1.68 9.4 4.04 14.01 6.22zm-49.61 7.29c8.53-32-10.55-64.38-43-73-32.11-8.52-64 9.87-72.58 41.81-8.75 32.72 9.51 65 41.81 73.87 31.73 8.75 65.23-10.63 73.77-42.68z" fill="#C4D4DD" fill-rule="nonzero"/>
<path d="m346.79 21.27c2.2091 0 4 1.7909 4 4s-1.7909 4-4 4-4-1.7909-4-4 1.7909-4 4-4z" fill="#7EB5BD" fill-rule="nonzero"/>
<path d="m262.26 135.14c6.3678 9.5027 17.865 14.191 29.062 11.85 11.197-2.3405 19.854-11.241 21.882-22.499s-2.9777-22.62-12.654-28.721v-12.59c0-8.2843-6.7157-15-15-15s-15 6.7157-15 15v12.59c-6.3989 4.0493-10.892 10.511-12.46 17.919-1.5683 7.4083-0.079022 15.136 4.1301 21.431l0.04 0.02zm36.9-81c32.48 8.61 51.56 41 43 73s-42 51.43-73.8 42.69c-32.3-8.89-50.56-41.15-41.81-73.87 8.57-31.91 40.5-50.3 72.61-41.78v-0.04zm26.32 44.12c0.58068-2.1971-0.22149-4.5275-2.0315-5.9016-1.81-1.3742-4.2702-1.5206-6.2305-0.37093-1.9603 1.1497-3.0333 3.3684-2.7174 5.6189s1.9583 4.0881 4.1593 4.6537c2.9749 0.77593 6.0191-0.99167 6.82-3.96v-0.04zm-72.81 4c2.1943-0.56803 3.8299-2.4028 4.143-4.6478 0.31309-2.2449-0.758-4.4572-2.7132-5.604-1.9552-1.1467-4.4089-1.0018-6.2154 0.36726s-2.6096 3.6921-2.0344 5.8845c0.36326 1.445 1.2864 2.6861 2.5658 3.4496 1.2794 0.76352 2.81 0.98674 4.2542 0.62042v-0.07zm0 44.86c2.1943-0.56803 3.8299-2.4028 4.143-4.6478s-0.758-4.4572-2.7132-5.604c-1.9552-1.1467-4.4089-1.0018-6.2154 0.36726-1.8065 1.369-2.6096 3.6921-2.0344 5.8845 0.36326 1.445 1.2864 2.6861 2.5658 3.4496 1.2794 0.76352 2.81 0.98674 4.2542 0.62042v-0.07z" fill="#E6EDF2" fill-rule="nonzero"/>
<path d="m321.44 91.48c2.1943 0.56803 3.8299 2.4028 4.143 4.6478 0.31309 2.2449-0.758 4.4572-2.7132 5.604-1.9552 1.1467-4.4089 1.0018-6.2154-0.36726-1.8065-1.369-2.6096-3.6921-2.0344-5.8845 0.78313-2.9845 3.8329-4.7732 6.82-4z" fill="#FF7C6E" fill-rule="nonzero"/>
<path d="m262.26 135.14c-4.2091-6.2949-5.6983-14.023-4.1301-21.431 1.5683-7.4083 6.0612-13.87 12.46-17.919h30c9.6761 6.1011 14.682 17.463 12.654 28.721s-10.685 20.159-21.882 22.499c-11.197 2.3405-22.694-2.3475-29.062-11.85l-0.04-0.02zm38.29-30.4c0-1.2371-1.0029-2.24-2.24-2.24s-2.24 1.0029-2.24 2.24 1.0029 2.24 2.24 2.24 2.24-1.0029 2.24-2.24zm2.5 20.48c0-7.27-7.82-13.17-17.46-13.17s-17.46 5.9-17.46 13.17 7.82 13.16 17.46 13.16 17.46-5.89 17.46-13.16zm-19.21-20.56c1.3e-5 -1.178-0.95202-2.1345-2.13-2.14h-8.89c-0.5648-0.002364-1.1063 0.22506-1.5 0.63-0.61115 0.60802-0.79554 1.5245-0.46708 2.3215 0.32846 0.79706 1.105 1.3175 1.9671 1.3185h8.89c0.56573 0.002675 1.1091-0.22088 1.5091-0.62091s0.62358-0.94336 0.62091-1.5091z" fill="#FF7C6E" fill-rule="nonzero"/>
<path d="m300.55 83.18v12.59h-17.19v-7.49c0-0.60751-0.49249-1.1-1.1-1.1h-3.37c-0.60751 0-1.1 0.49249-1.1 1.1v7.49h-7.22v-12.59c0-8.2843 6.7157-15 15-15s15 6.7157 15 15h-0.02zm-9.67 3.23l-8.33-8.87-0.41 0.32c-2.4466 2.303-2.563 6.1534-0.26 8.6 2.303 2.4466 6.1534 2.563 8.6 0.26l0.4-0.31zm-0.31-6.83c0-0.87813-0.71187-1.59-1.59-1.59s-1.59 0.71187-1.59 1.59 0.71187 1.59 1.59 1.59 1.59-0.71187 1.59-1.59z" fill="#D4F4F2" fill-rule="nonzero"/>
<path d="m298.63 124.19c0.7532-0.00405 1.4345 0.44655 1.7255 1.1413s0.13439 1.4964-0.39677 2.0304c-0.53116 0.53403-1.332 0.69501-2.0282 0.40771s-1.1505-0.96614-1.1505-1.7194c-1.5e-5 -1.0234 0.82666-1.8545 1.85-1.86z" fill="#6E7F89" fill-rule="nonzero"/>
<path d="m298.31 102.49c0.91094-0.004049 1.7344 0.54157 2.0858 1.382 0.35141 0.84044 0.16139 1.8098-0.48132 2.4554-0.6427 0.64557-1.6112 0.83991-2.4532 0.49225-0.842-0.34766-1.3913-1.1687-1.3913-2.0797-0.00266-0.59582 0.23216-1.1681 0.65254-1.5904 0.42037-0.42225 0.99164-0.65962 1.5875-0.65961z" fill="#7EB5BD" fill-rule="nonzero"/>
<path d="m286.67 135.3c3.5875-0.53948 6.2407-3.6221 6.24-7.25h-14.65c-2e-6 1.9431 0.77258 3.8065 2.1475 5.1796s3.2394 2.1431 5.1825 2.1404c0.36118 0.001604 0.72204-0.021785 1.08-0.07zm-1.08-23.25c9.64 0 17.46 5.9 17.46 13.17s-7.82 13.16-17.46 13.16-17.46-5.89-17.46-13.16 7.87-13.17 17.46-13.17zm14.9 14c0.00405-0.7532-0.44655-1.4345-1.1413-1.7255s-1.4964-0.13439-2.0304 0.39677c-0.53403 0.53116-0.69501 1.332-0.40771 2.0282s0.96614 1.1505 1.7194 1.1505c1.0234 1.5e-5 1.8545-0.82666 1.86-1.85zm-26.09 0c0.00405-0.7532-0.44655-1.4345-1.1413-1.7255s-1.4964-0.13439-2.0304 0.39677c-0.53403 0.53116-0.69501 1.332-0.40771 2.0282s0.96614 1.1505 1.7194 1.1505c1.0234 1.5e-5 1.8545-0.82666 1.86-1.85z" fill="#D4F4F2" fill-rule="nonzero"/>
<path d="m278.26 128.05h14.65c7.41e-4 3.6279-2.6525 6.7105-6.24 7.25 0.45331-1.8375-0.49976-3.7312-2.2456-4.462-1.7458-0.73074-3.7637-0.080536-4.7544 1.532-0.9164-1.254-1.4102-2.7669-1.41-4.32z" fill="#6E7F89" fill-rule="nonzero"/>
<path d="m282.55 77.54l8.33 8.87-0.4 0.31c-2.4466 2.303-6.297 2.1866-8.6-0.26-2.303-2.4466-2.1866-6.297 0.26-8.6l0.41-0.32z" fill="#7EB5BD" fill-rule="nonzero"/>
<path d="m289 78c0.6431 0 1.2229 0.38739 1.469 0.98153 0.2461 0.59414 0.11007 1.278-0.34467 1.7328s-1.1386 0.59077-1.7328 0.34467c-0.59414-0.2461-0.98153-0.82587-0.98153-1.469 0-0.87813 0.71187-1.59 1.59-1.59z" fill="#FF7C6E" fill-rule="nonzero"/>
<path d="m283.89 130.67c2.0387 0.52097 3.2784 2.5857 2.78 4.63-0.35796 0.048215-0.71882 0.071604-1.08 0.07-2.3393 0.003413-4.5394-1.1115-5.92-3 0.88344-1.4287 2.5929-2.1173 4.22-1.7z" fill="#FF7C6E" fill-rule="nonzero"/>
<path d="m283.36 88.28v7.49h-5.57v-7.49c0-0.60751 0.49249-1.1 1.1-1.1h3.37c0.60751 0 1.1 0.49249 1.1 1.1z" fill="#7EB5BD" fill-rule="nonzero"/>
<path d="m281.71 102.52c0.86356 0.002583 1.6409 0.52394 1.9711 1.3219 0.33012 0.79797 0.14828 1.7162-0.46106 2.3281-0.40405 0.39442-0.94537 0.61668-1.51 0.62h-8.89c-0.86209-9.16e-4 -1.6386-0.52139-1.9671-1.3185-0.32846-0.79706-0.14408-1.7135 0.46708-2.3215 0.39373-0.40494 0.9352-0.63236 1.5-0.63h8.89z" fill="#7EB5BD" fill-rule="nonzero"/>
<circle cx="272.54" cy="126.05" r="1.86" fill="#6E7F89" fill-rule="nonzero"/>
<path d="m256.71 95.51c0.57942 2.1963-0.22271 4.5252-2.0317 5.8989s-4.2678 1.521-6.2278 0.37307c-1.96-1.1479-3.0345-3.3644-2.7214-5.6142s1.9519-4.0887 4.1509-4.6578c2.9895-0.77371 6.0423 1.0141 6.83 4z" fill="#FF7C6E" fill-rule="nonzero"/>
<path d="m256.71 140.37c0.57942 2.1963-0.22271 4.5252-2.0317 5.8989s-4.2678 1.521-6.2278 0.37307c-1.96-1.1479-3.0345-3.3644-2.7214-5.6142s1.9519-4.0887 4.1509-4.6578c2.9895-0.77372 6.0423 1.0141 6.83 4z" fill="#FF7C6E" fill-rule="nonzero"/>
<circle cx="213.92" cy="201.13" r="8.03" fill="#D4F4F2" fill-rule="nonzero"/>
<path d="m193.33 132.93c0.66 2.54-0.77 5-3.48 6.35-3.68 1.83-7.31 3.81-11.1 5.37-7.71 3.19-9.11 15.86-2.43 20.74 3.16 2.31 6 5 9 7.62 2.46 2.17 2.76 4.44 1.1 7.21l-10 16.69c-1.38 2.29-3.18 3.09-5.77 2.25-4.1-1.32-8.2-2.65-12.2-4.24-7.39-2.94-14.86 2.24-16.52 8.1-0.34305 1.3587-0.48788 2.7599-0.43 4.16 0.06 4 0.26 7.93 0.39 11.9 0.12 3.42-1.16 5.16-4.43 6-6.1467 1.5467-12.3 3.0833-18.46 4.61-2.5579 0.84825-5.336-0.42725-6.36-2.92-1.89-3.82-3.73-7.66-5.61-11.48-3.61-7.38-14.33-8.95-19.94-2.92-2.9333 3.1467-5.8533 6.3067-8.76 9.48-2.25 2.45-4.25 2.76-7.07 1.07l-16.68-10c-2.2827-1.2184-3.2586-3.9772-2.25-6.36 1.4-3.66 2.62-7.42 4.33-10.92 3-6.21-0.86-13.3-5.45-15.95-1.7732-1.1141-3.8492-1.6488-5.94-1.53-4.16 0.16667-8.32 0.31667-12.48 0.45-3.54 0.11-5.76-1.6-6.54-5-1.3733-5.9533-2.7333-11.903-4.08-17.85-0.81-3.55-0.13-4.92 3.1-6.48 3.66-1.77 7.26-3.66 11-5.33 7.9-3.53 9-14.9 2.92-20.3-3.15-2.78-6.18-5.71-9.27-8.56-2.36-2.19-2.69-4.39-1-7.12 3.28-5.4933 6.57-10.973 9.87-16.44 1.2441-2.5111 4.2281-3.6197 6.81-2.53 3.56 1.37 7.18 2.65 10.64 4.25 8 3.65 18.43-3.43 17.44-12.09-0.46-4.12-0.36-8.31-0.49-12.47-0.1-2.92 1.1-4.76 3.92-5.5 6.4133-1.68 12.85-3.29 19.31-4.83 2.4124-0.60917 4.9056 0.6481 5.85 2.95 1.85 3.78 3.86 7.5 5.49 11.38 2.13 5.07 7.72 7.37 12.6 6.91 3.3756-0.26787 6.4809-1.9495 8.55-4.63 2.36-2.94 4.86-5.77 7.33-8.63 1.6154-2.1703 4.6367-2.7169 6.91-1.25 5.72 3.3333 11.407 6.7467 17.06 10.24 2.57 1.58 3.17 3.7 2.18 6.51-1.45 4.11-2.91 8.2-4.31 12.33-2.65 7.81 3.8 16.5 12 16.2 4.5-0.16667 8.9967-0.35 13.49-0.55 2.0694-0.062805 3.9039 1.3224 4.41 3.33 1.8467 6.5667 3.63 13.16 5.35 19.78zm-49.57 32.87c12-20 5.48-45.59-14.78-57.77-9.4258-5.8297-20.798-7.6306-31.564-4.9983-10.766 2.6322-20.024 9.4771-25.696 18.998-12.32 20.41-6.3 45.78 13.79 58.12 19.76 12.18 46.2 5.64 58.25-14.35z" fill="#7EB5BD" fill-rule="nonzero"/>
<path d="m180.65 19.65c2.4067 0.0055199 4.3537 1.96 4.35 4.3667-0.003678 2.4067-1.9567 4.3552-4.3633 4.3533-2.4067-0.0018358-4.3567-1.9533-4.3567-4.36-3e-6 -1.1581 0.46072-2.2686 1.2805-3.0865s1.9314-1.2761 3.0895-1.2735z" fill="#D4F4F2" fill-rule="nonzero"/>
<path d="m168.49 60c1.7684-0.0040467 3.3649 1.0581 4.0445 2.6907s0.30814 3.5139-0.94088 4.7658c-1.249 1.2519-3.1294 1.6276-4.7636 0.9518-1.6342-0.6758-2.7-2.2699-2.7-4.0383-6e-6 -2.4096 1.9504-4.3645 4.36-4.37z" fill="#D4F4F2" fill-rule="nonzero"/>
<path d="m156.34 19.65c1.7662-0.0080971 3.3627 1.0501 4.0433 2.6799 0.68056 1.6298 0.31066 3.5092-0.93678 4.7595s-3.126 1.6245-4.7573 0.94773c-1.6314-0.67681-2.6932-2.2709-2.6892-4.0371 0.0109-2.394 1.946-4.3336 4.34-4.35z" fill="#D4F4F2" fill-rule="nonzero"/>
<path d="m131.49 134.62c0.40859 2.9406 0.20086 5.934-0.61 8.79-0.76762 2.793-2.5047 5.2213-4.9 6.85-2.0861 1.4856-4.4776 2.4867-7 2.93-1.1482 0.20687-2.3065 0.35373-3.47 0.44-0.11 0-0.23 0-0.41 0.05l0.36 0.21c0.6 0.38 1.22 0.74 1.81 1.14 1.1985 0.80765 2.0317 2.0538 2.32 3.47 0.19234 0.76174 0.28974 1.5443 0.29 2.33v5.1c0 1.41 0.08 2.83 0.14 4.24 0.00629 0.15202 0.051017 0.29996 0.13 0.43 0.52698 0.81701 1.2354 1.5014 2.07 2l0.28 0.16c0.15497 0.104 0.24795 0.27837 0.24795 0.465s-0.092977 0.361-0.24795 0.465c-0.17447 0.10463-0.3684 0.17268-0.57 0.2-1.6646 0.2027-3.3353-0.32624-4.58-1.45-0.5601-0.52115-0.89994-1.2366-0.95-2v-0.86-7.45c0.015191-0.28646 0.015191-0.57354 0-0.86-0.037945-0.61705-0.35912-1.1819-0.87-1.53-0.31604-0.24898-0.68043-0.42947-1.07-0.53v0.29 10.45c-0.009861 0.82299 0.07062 1.6446 0.24 2.45 0.095836 0.41749 0.27996 0.80961 0.54 1.15 0.37763 0.48 0.63788 1.0416 0.76 1.64-0.15533 0.13773-0.36854 0.1901-0.57 0.14-1.0184-0.11912-1.9981-0.4605-2.87-1-0.54922-0.38238-0.98741-0.90337-1.27-1.51-0.56075-1.1737-0.84795-2.4593-0.84-3.76v-9.93-0.43h-2.17v10.23c0.005932 1.2037-0.21457 2.3978-0.65 3.52-0.50995 1.4206-1.729 2.4688-3.21 2.76-0.38355 0.076216-0.77071 0.13296-1.16 0.17-0.25563 0.042123-0.51264-0.06691-0.66-0.28 0.23-0.39 0.45-0.79 0.69-1.17 0.48186-0.82213 0.77557-1.7408 0.86-2.69 0.07317-0.57702 0.10658-1.1584 0.1-1.74v-9.89-0.44c-0.76115 0.18138-1.3829 0.72824-1.66 1.46-0.10032 0.3241-0.15419 0.66078-0.16 1v2.78 5.36c0.008639 0.49733-0.058807 0.99306-0.2 1.47-0.22402 0.64799-0.65209 1.2059-1.22 1.59-0.83763 0.63634-1.8491 1.0026-2.9 1.05-0.37941 0.030005-0.76059 0.030005-1.14 0-0.20044-0.009649-0.39723-0.057152-0.58-0.14-0.1996-0.071416-0.34308-0.24771-0.37248-0.45765-0.029393-0.20995 0.060158-0.41886 0.23248-0.54235 0.19-0.17 0.41-0.32 0.62-0.48s0.54-0.38 0.79-0.6c0.75475-0.60885 1.2014-1.5205 1.22-2.49 0-0.92 0-1.85-0.09-2.77-0.098223-1.0203-0.12162-2.0463-0.07-3.07v-0.08h-0.16c-2.4169 0.74756-5.0339 0.48045-7.25-0.74-1.0172-0.47422-1.8852-1.2177-2.51-2.15-0.42-0.65-0.88-1.28-1.23-2-0.72119-1.3192-1.6574-2.5088-2.77-3.52-0.45-0.42-0.92-0.82-1.38-1.23l-0.16-0.14c-0.26-0.25-0.27-0.46 0-0.71 0.26125-0.28297 0.61687-0.46078 1-0.5 0.62923-0.048577 1.2602 0.068653 1.83 0.34 0.88633 0.46843 1.666 1.1154 2.29 1.9 0.51 0.6 1 1.21 1.53 1.79 0.75046 0.85036 1.6482 1.5584 2.65 2.09 1.6223 0.89796 3.5791 0.95388 5.25 0.15 0.21-0.09 0.4-0.2 0.61-0.3 0.43375-0.1952 0.77198-0.55501 0.94-1 0.45882-1.2341 1.4016-2.2274 2.61-2.75 0.5-0.23 1-0.43 1.51-0.64l0.34-0.16v-0.06l-1.05-0.12c-2.6183-0.24119-5.1918-0.83662-7.65-1.77-1.6416-0.64505-3.1706-1.5462-4.53-2.67-1.5343-1.3454-2.6893-3.0693-3.35-5-0.48516-1.3657-0.79758-2.7867-0.93-4.23-0.14665-1.3617-0.17342-2.7336-0.08-4.1 0.13739-3.2145 1.3849-6.282 3.53-8.68l0.11-0.13c0.023546-0.027478 0.043691-0.057697 0.06-0.09-0.85939-3.1496-0.67697-6.4926 0.52-9.53 0.52 0.06 1 0.1 1.53 0.17 2.8931 0.43034 5.629 1.5901 7.95 3.37 0.12811 0.10615 0.30133 0.14004 0.46 0.09 1.4631-0.37571 2.9498-0.653 4.45-0.83 1.9744-0.23152 3.9646-0.29841 5.95-0.2 2.1837 0.10937 4.3546 0.40038 6.49 0.87 0.17324 0.042667 0.35649 0.006018 0.5-0.1 1.3291-0.901 2.7384-1.6776 4.21-2.32 1.1666-0.47708 2.3959-0.78357 3.65-0.91 0.52-0.06 1-0.09 1.58-0.14 0.20331 0.48761 0.36066 0.99314 0.47 1.51 0.45402 1.8026 0.62606 3.6647 0.51 5.52 0 0.6-0.15 1.2-0.25 1.8-0.025554 0.13694 0.015248 0.27789 0.11 0.38 1.9575 2.2817 3.1563 5.1161 3.43 8.11z" fill="#6E7F89" fill-rule="nonzero"/>
<path d="m51.15 179.64c-1.7732-1.1141-3.8492-1.6488-5.94-1.53-4.16 0.16667-8.32 0.31667-12.48 0.45-3.54 0.11-5.76-1.6-6.54-5-1.3733-5.9533-2.7333-11.903-4.08-17.85-0.81-3.55-0.13-4.92 3.1-6.48 3.66-1.77 7.26-3.66 11-5.33 7.9-3.53 9-14.9 2.92-20.3-3.15-2.78-6.18-5.71-9.27-8.56-2.36-2.19-2.69-4.39-1-7.12 3.28-5.4933 6.57-10.973 9.87-16.44 1.264-2.5245 4.285-3.6151 6.87-2.48 3.56 1.37 7.18 2.65 10.64 4.25 8 3.65 18.43-3.43 17.44-12.09-0.46-4.12-0.36-8.31-0.49-12.47-0.1-2.92 1.1-4.76 3.92-5.5 6.4133-1.68 12.85-3.29 19.31-4.83 2.4124-0.60917 4.9056 0.6481 5.85 2.95 1.85 3.78 3.86 7.5 5.49 11.38 2.13 5.07 7.72 7.37 12.6 6.91 3.3756-0.26787 6.4809-1.9495 8.55-4.63 2.36-2.94 4.86-5.77 7.33-8.63 1.6154-2.1703 4.6367-2.7169 6.91-1.25 5.72 3.3333 11.407 6.7467 17.06 10.24 2.57 1.58 3.17 3.7 2.18 6.51-1.45 4.11-2.91 8.2-4.31 12.33-2.65 7.81 3.8 16.5 12 16.2 4.5-0.16667 8.9967-0.35 13.49-0.55 2.0694-0.062805 3.9039 1.3224 4.41 3.33 1.84 6.58 3.62 13.17 5.34 19.77 0.66 2.54-0.77 5-3.48 6.35-3.68 1.83-7.31 3.81-11.1 5.37-7.71 3.19-9.11 15.86-2.43 20.74 3.16 2.31 6 5 9 7.62 2.46 2.17 2.76 4.44 1.1 7.21l-10 16.69c-1.38 2.29-3.18 3.09-5.77 2.25-4.1-1.32-8.2-2.65-12.2-4.24-7.39-2.94-14.86 2.24-16.52 8.1-0.34305 1.3587-0.48788 2.7599-0.43 4.16 0.06 4 0.26 7.93 0.39 11.9 0.12 3.42-1.16 5.16-4.43 6-6.1467 1.5467-12.3 3.0833-18.46 4.61-2.5579 0.84825-5.336-0.42725-6.36-2.92-1.89-3.82-3.73-7.66-5.61-11.48-3.61-7.38-14.33-8.95-19.94-2.92-2.9333 3.1467-5.8533 6.3067-8.76 9.48-2.25 2.45-4.25 2.76-7.07 1.07l-16.68-10c-2.2827-1.2184-3.2586-3.9772-2.25-6.36 1.4-3.66 2.62-7.42 4.33-10.92 2.99-6.25-0.91-13.34-5.5-15.99z" stroke="#6E7F89" stroke-linecap="round" stroke-linejoin="round" stroke-width="2"/>
<path d="m143.76 165.8c12-20 5.48-45.59-14.78-57.77-9.4258-5.8297-20.798-7.6306-31.564-4.9983-10.766 2.6322-20.024 9.4771-25.696 18.998-12.32 20.41-6.3 45.78 13.79 58.12 19.76 12.18 46.2 5.64 58.25-14.35z" stroke="#6E7F89" stroke-linecap="round" stroke-linejoin="round" stroke-width="2"/>
<path d="m226.58 176.75c-2.6257-0.75706-5.4221-0.67666-8 0.23-5.1267 1.7267-10.27 3.4233-15.43 5.09-4.38 1.42-7.77 0.09-10-3.91-3.8733-6.94-7.73-13.88-11.57-20.82-2.29-4.14-1.94-6.1 1.54-9.23 3.93-3.54 7.74-7.21 11.78-10.63 8.59-7.27 5.89-21.9-3.71-26.43-4.95-2.34-9.79-4.89-14.69-7.34-3.74-1.88-4.95-4.51-3.89-8.52 2.12-8.04 4.2467-16.083 6.38-24.13 1-3.89 3.79-5.9 7.8-5.56 4.95 0.41 9.93 0.71 14.85 1.44 11.26 1.68 21.78-10.95 17.41-21.42-2.07-5-3.46-10.26-5.14-15.41-1.17-3.61-0.34-6.34 2.92-8.29 7.4-4.43 14.88-8.76 22.38-13 2.91-1.65 6.07-1 8.38 1.57 3.69 4 7.54 8 11 12.23 4.5 5.56 12.33 6.42 18.25 4.07 4.1195-1.5561 7.3888-4.7818 9-8.88 1.88-4.53 4-9 6-13.43 1.58-3.43 4.53-5 8.18-4.07 8.3733 2.1067 16.707 4.3133 25 6.62 3.77 1 5.29 3.47 5.07 7.34-0.32 5.66-0.66 11.31-0.92 17-0.48 10.73 10.72 19.24 20.88 15.89 5.56-1.83 11.11-3.7 16.66-5.57 2.5656-0.82763 5.3614 0.24161 6.72 2.57 4.6667 7.5533 9.28 15.147 13.84 22.78 1.74 2.93 0.85 6.53-2.05 9.19-3.95 3.62-7.76 7.4-11.94 10.74-8.48 6.78-5.64 23.11 4.49 26.8 4.77 1.73 9.33 4.09 13.94 6.27 3.87 1.83 5.07 4.54 4 8.61l-6.4 24.45c-0.89 3.36-2.85 5-6.4 4.9-5.59-0.17-11.2-0.34-16.77-0.88-10.3-1-17.76 8.19-17.71 16.12 0.073328 1.8223 0.41016 3.6243 1 5.35 1.52 4.93 3.2 9.82 4.81 14.73 1.38 4.23 0.41 6.87-3.38 9.07-7.12 4.16-14.253 8.3133-21.4 12.46-3.31 1.91-6.44 1.45-9-1.36-3.74-4.09-7.44-8.21-11.17-12.31-7.18-7.92-21.14-6-26 3.57-2.52 5-5.0267 10-7.52 15-1.93 3.87-4.31 5-8.44 3.89l-24.49-6.48c-3.284-0.72157-5.4907-3.8093-5.11-7.15 0.42-5.08 0.58-10.21 1.45-15.22 1.53-8.84-5.91-16.29-12.6-17.94z" stroke="#6E7F89" stroke-linecap="round" stroke-linejoin="round" stroke-width="2"/>
<path d="m342.19 127.17c8.53-32-10.55-64.38-43-73-32.11-8.52-64 9.87-72.58 41.81-8.75 32.72 9.51 65 41.81 73.87 31.73 8.75 65.23-10.63 73.77-42.68z" stroke="#6E7F89" stroke-linecap="round" stroke-linejoin="round" stroke-width="2"/>
<path d="m300.55 95.77c10.562 6.6773 15.438 19.532 11.962 31.534-3.4758 12.002-14.467 20.262-26.962 20.262s-23.486-8.2596-26.962-20.262c-3.4758-12.002 1.4005-24.857 11.962-31.534" stroke="#6E7F89" stroke-linecap="round" stroke-linejoin="round" stroke-width="2"/>
<path d="m303.05 125.22c0 7.27-7.82 13.16-17.46 13.16s-17.46-5.89-17.46-13.16 7.82-13.17 17.46-13.17 17.46 5.95 17.46 13.17z" stroke="#6E7F89" stroke-linecap="round" stroke-linejoin="round" stroke-width="2"/>
<path d="m283.36 95.77h17.19v-12.59c0-8.2843-6.7157-15-15-15s-15 6.7157-15 15v12.59h7.22" stroke="#6E7F89" stroke-linecap="round" stroke-linejoin="round" stroke-width="2"/>
<path d="m281.88 86.46c2.3045 2.4433 6.1521 2.5596 8.6 0.26l0.4-0.31-8.33-8.87-0.41 0.32c-1.1758 1.1054-1.864 2.633-1.9127 4.2461s0.54581 3.1795 1.6527 4.3539v0z" stroke="#6E7F89" stroke-linecap="round" stroke-linejoin="round" stroke-width="2"/>
<path d="m287.39 79.58c-0.005445 0.87679 0.69993 1.5925 1.5767 1.5998s1.594-0.69654 1.6032-1.5733c0.009179-0.87676-0.69314-1.5955-1.5699-1.6065-0.42342-0.0053346-0.83148 0.15845-1.1337 0.45505s-0.47366 0.7015-0.47629 1.1249z" stroke="#6E7F89" stroke-linecap="round" stroke-linejoin="round" stroke-width="2"/>
<path d="m287.83 80.74l-1.03 1" stroke="#6E7F89" stroke-linecap="round" stroke-linejoin="round" stroke-width="2"/>
<path d="m295.34 79.46c0-3.4131-2.7669-6.18-6.18-6.18" stroke="#6E7F89" stroke-linecap="round" stroke-linejoin="round" stroke-width="2"/>
<path d="m277.79 95.77h5.57v-7.49c0-0.60751-0.49249-1.1-1.1-1.1h-3.37c-0.60751 0-1.1 0.49249-1.1 1.1v7.49z" stroke="#6E7F89" stroke-linecap="round" stroke-linejoin="round" stroke-width="2"/>
<path d="m256.71 140.37c0.57942 2.1963-0.22271 4.5252-2.0317 5.8989s-4.2678 1.521-6.2278 0.37307c-1.96-1.1479-3.0345-3.3644-2.7214-5.6142s1.9519-4.0887 4.1509-4.6578c2.9895-0.77372 6.0423 1.0141 6.83 4v0z" stroke="#6E7F89" stroke-linecap="round" stroke-linejoin="round" stroke-width="2"/>
<path d="m281.71 106.79h-8.89c-0.86209-9.16e-4 -1.6386-0.52139-1.9671-1.3185-0.32846-0.79706-0.14408-1.7135 0.46708-2.3215 0.39373-0.40494 0.9352-0.63236 1.5-0.63h8.89c0.86356 0.002583 1.6409 0.52394 1.9711 1.3219 0.33012 0.79797 0.14828 1.7162-0.46106 2.3281-0.40405 0.39442-0.94537 0.61668-1.51 0.62v0z" stroke="#6E7F89" stroke-linecap="round" stroke-linejoin="round" stroke-width="2"/>
<path d="m300.55 104.74c-0.005517 1.2358-1.0108 2.2337-2.2466 2.23s-2.2352-1.0075-2.2333-2.2433 1.0042-2.2367 2.24-2.2367c0.59582-6e-6 1.1671 0.23737 1.5875 0.65961 0.42037 0.42225 0.6552 0.99457 0.65254 1.5904z" stroke="#6E7F89" stroke-linecap="round" stroke-linejoin="round" stroke-width="2"/>
<path d="m279.67 132.37c-0.9164-1.254-1.4102-2.7669-1.41-4.32h14.65c7.41e-4 3.6279-2.6525 6.7105-6.24 7.25-0.35796 0.048215-0.71882 0.071604-1.08 0.07-2.3393 0.003413-4.5394-1.1115-5.92-3v0z" stroke="#6E7F89" stroke-linecap="round" stroke-linejoin="round" stroke-width="2"/>
<path d="m256.71 95.51c0.57942 2.1963-0.22271 4.5252-2.0317 5.8989s-4.2678 1.521-6.2278 0.37307c-1.96-1.1479-3.0345-3.3644-2.7214-5.6142s1.9519-4.0887 4.1509-4.6578c2.9895-0.77371 6.0423 1.0141 6.83 4v0z" stroke="#6E7F89" stroke-linecap="round" stroke-linejoin="round" stroke-width="2"/>
<polyline points="256.3 139.17 262.26 135.14 262.27 135.14" stroke="#6E7F89" stroke-linecap="round" stroke-linejoin="round" stroke-width="2"/>
<path d="m314.62 95.51c-0.58068 2.1971 0.22149 4.5275 2.0315 5.9016s4.2702 1.5206 6.2305 0.37093c1.9603-1.1497 3.0333-3.3684 2.7174-5.6189s-1.9583-4.0881-4.1593-4.6537c-2.9871-0.77325-6.0369 1.0155-6.82 4v0z" stroke="#6E7F89" stroke-linecap="round" stroke-linejoin="round" stroke-width="2"/>
<path d="m286.66 135.34v0c0.45331-1.8375-0.49976-3.7312-2.2456-4.462-1.7458-0.73074-3.7637-0.080536-4.7544 1.532v0" stroke="#6E7F89" stroke-linecap="round" stroke-linejoin="round" stroke-width="2"/>
<path d="m315.44 100.29l-6.16 4.17" stroke="#6E7F89" stroke-linecap="round" stroke-linejoin="round" stroke-width="2"/>
<path d="m255.81 100.41l5.99 4.05" stroke="#6E7F89" stroke-linecap="round" stroke-linejoin="round" stroke-width="2"/>
<path d="m180.54 28.65v5.73c0 3.82-3 7.1-7.36 8.5-2.77 0.9-4.69 2.88-4.69 5.19" stroke="#6E7F89" stroke-linecap="round" stroke-linejoin="round" stroke-width="2"/>
<path d="m156.47 28.65v5.73c0 3.82 3 7.1 7.34 8.5 2.78 0.9 4.68 2.88 4.68 5.19v11.61 0" stroke="#6E7F89" stroke-linecap="round" stroke-linejoin="round" stroke-width="2"/>
<path d="m185 24c0.004044 1.7693-1.0592 3.3665-2.693 4.0454-1.6339 0.67896-3.5159 0.30571-4.767-0.94538-1.2511-1.2511-1.6243-3.1331-0.94538-4.767 0.67896-1.6339 2.2761-2.6971 4.0454-2.693 2.408 0 4.36 1.952 4.36 4.36z" stroke="#6E7F89" stroke-linecap="round" stroke-linejoin="round" stroke-width="2"/>
<path d="m172.86 64.38c0 2.4135-1.9565 4.37-4.37 4.37s-4.37-1.9565-4.37-4.37 1.9565-4.37 4.37-4.37c1.159 0 2.2705 0.46041 3.0901 1.2799 0.81953 0.81953 1.2799 1.9311 1.2799 3.0901z" stroke="#6E7F89" stroke-linecap="round" stroke-linejoin="round" stroke-width="2"/>
<path d="m160.71 24c0.004047 1.7684-1.0581 3.3649-2.6907 4.0445-1.6326 0.67954-3.5139 0.30814-4.7658-0.94088-1.2519-1.249-1.6276-3.1294-0.9518-4.7636 0.6758-1.6342 2.2699-2.7 4.0383-2.7 2.4096-6.3e-6 4.3645 1.9504 4.37 4.36z" stroke="#6E7F89" stroke-linecap="round" stroke-linejoin="round" stroke-width="2"/>
<circle cx="213.92" cy="201.13" r="8.03" stroke="#6E7F89" stroke-linecap="round" stroke-linejoin="round" stroke-width="2"/>
<path d="m350.8 25.28c0 2.2091-1.7909 4-4 4s-4-1.7909-4-4 1.7909-4 4-4 4 1.7909 4 4z" stroke="#6E7F89" stroke-linecap="round" stroke-linejoin="round" stroke-width="2"/>
<polyline points="4.02 118.01 4.02 122.27 4.02 141.35" stroke="#6E7F89" stroke-linecap="round" stroke-linejoin="round" stroke-width="2"/>
<path d="m4 122.27s0 9.89 14.7 8.73" stroke="#6E7F89" stroke-linecap="round" stroke-linejoin="round" stroke-width="2"/>
<circle cx="4.13" cy="113.83" r="4.02" stroke="#6E7F89" stroke-linecap="round" stroke-linejoin="round" stroke-width="2"/>
<circle cx="22.84" cy="130.02" r="4.02" stroke="#6E7F89" stroke-linecap="round" stroke-linejoin="round" stroke-width="2"/>
<circle cx="4.13" cy="145.43" r="4.02" stroke="#6E7F89" stroke-linecap="round" stroke-linejoin="round" stroke-width="2"/>
<polyline points="31.32 186.09 31.32 194.94 31.32 203.78" stroke="#6E7F89" stroke-linecap="round" stroke-linejoin="round" stroke-width="2"/>
<polyline points="40.17 194.94 31.32 194.94 22.48 194.94" stroke="#6E7F89" stroke-linecap="round" stroke-linejoin="round" stroke-width="2"/>
<polyline points="373.3 169.93 373.3 176.88 373.3 183.83" stroke="#6E7F89" stroke-linecap="round" stroke-linejoin="round" stroke-width="2"/>
<polyline points="380.25 176.88 373.3 176.88 366.35 176.88" stroke="#6E7F89" stroke-linecap="round" stroke-linejoin="round" stroke-width="2"/>
<g transform="translate(21 58)" fill="#000" fill-rule="nonzero" opacity=".07" style="mix-blend-mode:multiply">
<path d="m109.36 21.61c3.3785-0.25798 6.4876-1.9416 8.55-4.63 2.26-2.81 4.63-5.52 7-8.24l-2.76-1.64c-2.2733-1.4669-5.2946-0.92032-6.91 1.25-2.47 2.85-5 5.69-7.33 8.63-1.2683 1.6256-2.9261 2.905-4.82 3.72 1.9904 0.78835 4.1376 1.1 6.27 0.91z"/>
<path d="m45 35.13l0.28 0.13c8 3.65 18.43-3.43 17.45-12.09-0.47-4.12-0.37-8.31-0.5-12.47-0.1-2.92 1.1-4.76 3.92-5.5 4.65-1.22 9.32-2.38 14-3.53-1.2106-1.247-2.9997-1.744-4.68-1.3-6.45 1.55-12.89 3.14-19.31 4.83-2.82 0.74-4 2.58-3.92 5.5 0.13 4.16 0 8.35 0.49 12.47 0.55 5.25-3.06 9.91-7.73 11.96z"/>
<path d="m159.09 52.37c1.77-0.06 3.53-0.14 5.29-0.21-0.56883-0.23971-1.1831-0.35234-1.8-0.33l-6.44 0.26c0.96642 0.22464 1.9586 0.31881 2.95 0.28z"/>
<path d="m15.19 115.53c-1.3733-5.94-2.7333-11.887-4.08-17.84-0.81-3.54-0.13-4.92 3.1-6.48 3.66-1.77 7.26-3.66 11-5.32 7.9-3.54 9-14.91 2.92-20.31-3.15-2.78-6.18-5.7-9.27-8.56-2.36-2.19-2.69-4.39-1-7.12 3.28-5.48 6.57-10.96 9.87-16.44 0.21116-0.35567 0.45559-0.6905 0.73-1-1.26-0.48-2.53-0.95-3.78-1.44-2.5983-1.191-5.673-0.10711-6.95 2.45-3.3333 5.4733-6.6233 10.953-9.87 16.44-1.64 2.73-1.31 4.93 1 7.12 3.09 2.86 6.12 5.78 9.27 8.56 6.12 5.4 5 16.77-2.92 20.31-3.71 1.66-7.31 3.55-11 5.32-3.23 1.56-3.91 2.94-3.1 6.48 1.3333 5.9533 2.6933 11.9 4.08 17.84 0.78 3.43 3 5.14 6.54 5 2.52-0.08 5-0.18 7.55-0.27-2.13-0.59-3.51-2.19-4.09-4.74z"/>
<path d="m147.39 136.92c-3.0255-1.2005-6.4099-1.1138-9.37 0.24 3.8 1.48 7.69 2.74 11.57 4 1.9064 0.8259 4.1307 0.17416 5.29-1.55-2.52-0.84-5.02-1.71-7.49-2.69z"/>
<path d="m101.58 168.75c-1.89-3.82-3.73-7.66-5.61-11.48-2.9-5.92-10.35-8.09-16.09-5.61 2.649 1.0604 4.8162 3.0568 6.09 5.61 1.87 3.82 3.72 7.66 5.61 11.48 1.024 2.4927 3.8021 3.7683 6.36 2.92l4.84-1.21c-0.48944-0.50169-0.89466-1.0791-1.2-1.71z"/>
<path d="m43.52 154.87c-2.2827-1.2184-3.2586-3.9772-2.25-6.36 1.4-3.66 2.62-7.42 4.33-10.92 3-6.21-0.86-13.3-5.45-15.95-1.7732-1.1141-3.8492-1.6488-5.94-1.53-2.37 0.1-4.75 0.17-7.13 0.26 1.0885 0.24458 2.1269 0.67415 3.07 1.27 4.59 2.65 8.49 9.74 5.45 15.95-1.71 3.5-2.93 7.26-4.33 10.92-1.0102 2.3803-0.038896 5.1382 2.24 6.36l16.7 10c2.81 1.69 4.81 1.38 7.06-1.07l0.42-0.45c-4.7267-2.8067-9.45-5.6333-14.17-8.48z"/>
</g>
<path d="m143.76 165.8c12-20 5.48-45.59-14.78-57.77-9.4258-5.8297-20.798-7.6306-31.564-4.9983-10.766 2.6322-20.024 9.4771-25.696 18.998-12.32 20.41-6.3 45.79 13.79 58.12 19.76 12.18 46.2 5.64 58.25-14.35z" fill="#000" fill-rule="nonzero" opacity=".02"/>
<path d="m96.85 179.36c-20.1-12.34-26.12-37.72-13.79-58.12 5.87-9.8431 15.56-16.81 26.76-19.24-15.468-1.0013-30.189 6.7611-38.1 20.09-12.32 20.41-6.3 45.79 13.79 58.12 9.1265 5.5731 20.044 7.4308 30.5 5.19-6.7871-0.40195-13.369-2.4769-19.16-6.04z" fill="#000" fill-rule="nonzero" opacity=".04"/>
<g transform="translate(172)" fill="#000" fill-rule="nonzero" opacity=".05">
<path d="m47.07 45.52c3.26 7.82-1.79 16.85-9.25 20.22 4 0.31 7.92 0.62 11.84 1.2 11.26 1.68 21.78-11 17.42-21.42-2.08-5-3.47-10.26-5.14-15.41-1.18-3.61-0.34-6.34 2.91-8.29 4.5867-2.74 9.2-5.4467 13.84-8.12-1.0267-1.1067-2.0533-2.22-3.08-3.34-2.31-2.53-5.47-3.22-8.38-1.57-7.5 4.27-15 8.6-22.38 13-3.26 2-4.09 4.68-2.92 8.29 1.68 5.18 3.07 10.46 5.14 15.44z"/>
<path d="m124.84 26.66c4.123-1.5507 7.3941-4.7782 9-8.88 1.88-4.53 4-9 6-13.43 0.13859-0.3091 0.29554-0.60963 0.47-0.9-4.0933-1.08-8.19-2.1367-12.29-3.17-3.65-0.92-6.6 0.64-8.18 4.07-2.06 4.45-4.15 8.9-6 13.43-1.083 2.7166-2.9052 5.0757-5.26 6.81 4.61 3.73 11.14 4.1 16.26 2.07z"/>
<path d="m198.14 47.1l4.33-1.44c-0.32-0.52-0.63-1-1-1.56-1.3524-2.3299-4.1472-3.4003-6.71-2.57l-10.28 3.47c3.9768 2.7917 9.0283 3.5683 13.66 2.1z"/>
<path d="m157.25 201.06c-5.63-6.19-15.39-6.36-21.68-1.57 0.59954 0.47576 1.1582 1.0009 1.67 1.57 3.73 4.1 7.43 8.23 11.17 12.31 2.57 2.81 5.7 3.27 9 1.36l8-4.66-8.16-9.01z"/>
<path d="m214.14 157c-2.2108-0.21691-4.4423 0.049234-6.54 0.78l3.32 0.1c1.2891 0.089369 2.5759-0.20278 3.7-0.84l-0.48-0.04z"/>
<path d="m41.17 178.16c-3.86-6.94-7.7167-13.883-11.57-20.83-2.29-4.13-1.94-6.09 1.54-9.22 3.93-3.54 7.75-7.21 11.78-10.63 8.59-7.28 5.9-21.9-3.7-26.43-5-2.34-9.8-4.89-14.69-7.34-3.75-1.88-5-4.51-3.9-8.52 2.12-8.04 4.2467-16.083 6.38-24.13 0.37644-1.6108 1.2597-3.0584 2.52-4.13-4.87-0.72-9.81-1-14.72-1.44-4-0.33-6.76 1.67-7.8 5.57-2.1267 8.04-4.2533 16.083-6.38 24.13-1.06 4 0.15 6.64 3.89 8.52 4.9 2.45 9.74 5 14.69 7.34 9.6 4.53 12.3 19.15 3.71 26.43-4 3.42-7.85 7.09-11.79 10.63-3.47 3.13-3.82 5.09-1.53 9.22 3.8467 6.9533 7.7033 13.897 11.57 20.83 2.22 4 5.61 5.33 10 3.91 3.4533-1.12 6.8933-2.25 10.32-3.39-0.12-0.17-0.22-0.34-0.32-0.52z"/>
<path d="m90.82 217.07c-3.284-0.72157-5.4907-3.8093-5.11-7.15 0.43-5.08 0.58-10.21 1.46-15.22 1.54-8.85-5.9-16.3-12.59-17.95-2.6255-0.75907-5.4225-0.67865-8 0.23-2.24 0.76-4.48 1.5-6.72 2.24 4.7 3.25 8.42 9 7.28 15.48-0.87 5-1 10.14-1.45 15.22-0.38074 3.3407 1.826 6.4284 5.11 7.15l24.49 6.48c3.86 1 6.19 0.12 8.06-3.16l-12.53-3.32z"/>
</g>
<path d="m283.39 169.86c-32.3-8.9-50.56-41.15-41.81-73.87 6.0029-23.198 25.538-40.396 49.31-43.41-29.322-3.8298-56.902 14.791-64.31 43.42-8.75 32.72 9.51 65 41.81 73.87 7.5007 2.0596 15.337 2.6036 23.05 1.6-2.7177-0.3474-5.4077-0.88539-8.05-1.61z" fill="#000" fill-rule="nonzero" opacity=".04"/>
</g>
</g>
</svg>
