<?xml version="1.0" encoding="UTF-8"?>
<svg version="1.1" viewBox="0 0 421 343" xmlns="http://www.w3.org/2000/svg">
<g fill="none" fill-rule="evenodd">
<g transform="translate(0 1)">
<g transform="translate(308 91)">
<path d="m13.11 31c1.3559-0.0040473 2.5804 0.80958 3.1021 2.0611 0.52167 1.2515 0.23753 2.694-0.71977 3.6542-0.9573 0.96017-2.399 1.2486-3.652 0.73069-1.253-0.51792-2.0703-1.7401-2.0703-3.0959-8.23e-6 -1.8463 1.4938-3.3445 3.34-3.35z" fill="#FF7C6E" fill-rule="nonzero"/>
<path d="m22.43 0c1.3559 6.0408e-6 2.578 0.81729 3.0959 2.0703 0.51792 1.253 0.22948 2.6947-0.73069 3.652-0.96017 0.9573-2.4027 1.2414-3.6542 0.71977-1.2515-0.52167-2.0651-1.7463-2.0611-3.1021 0.0055112-1.8462 1.5037-3.34 3.35-3.34z" fill="#FF7C6E" fill-rule="nonzero"/>
<path d="m3.8 0c1.3559 6.0408e-6 2.578 0.81729 3.0959 2.0703 0.51792 1.253 0.22948 2.6947-0.73069 3.652-0.96017 0.9573-2.4027 1.2414-3.6542 0.71977-1.2515-0.52167-2.0651-1.7463-2.0611-3.1021 0.0055112-1.8462 1.5037-3.34 3.35-3.34z" fill="#FF7C6E" fill-rule="nonzero"/>
<path d="m22.34 6.91v4.39c0 2.93-2.32 5.44-5.64 6.52-2.12 0.69-3.59 2.21-3.59 4" stroke="#6E7F89" stroke-linejoin="round" stroke-width="2"/>
<path d="m3.89 6.91v4.39c0 2.93 2.32 5.44 5.63 6.52 2.13 0.69 3.59 2.21 3.59 4v8.9" stroke="#6E7F89" stroke-linejoin="round" stroke-width="2"/>
<path d="m25.77 3.35c0.004044 1.3568-0.81067 2.582-2.0634 3.1031s-2.696 0.2351-3.6554-0.72427c-0.95938-0.95938-1.2454-2.4027-0.72427-3.6554 0.52108-1.2527 1.7463-2.0674 3.1031-2.0634 1.8424 0.0054914 3.3345 1.4976 3.34 3.34z" stroke="#6E7F89" stroke-linejoin="round" stroke-width="2"/>
<path d="m16.46 34.3c0 1.8502-1.4998 3.35-3.35 3.35s-3.35-1.4998-3.35-3.35 1.4998-3.35 3.35-3.35 3.35 1.4998 3.35 3.35z" stroke="#6E7F89" stroke-linejoin="round" stroke-width="2"/>
<path d="m7.14 3.35c-6.04e-6 1.3559-0.81729 2.578-2.0703 3.0959-1.253 0.51792-2.6947 0.22948-3.652-0.73069-0.9573-0.96017-1.2414-2.4027-0.71977-3.6542 0.52167-1.2515 1.7463-2.0651 3.1021-2.0611 1.8462 0.0055112 3.34 1.5037 3.34 3.35z" stroke="#6E7F89" stroke-linejoin="round" stroke-width="2"/>
</g>
<g transform="translate(80 110)" stroke="#6E7F89" stroke-linecap="round" stroke-linejoin="round" stroke-width="2">
<path d="m8.42 0.51v15.58"/>
<path d="m16.21 8.3h-15.58"/>
</g>
<path d="m51.44 180.26c1.5133 0 2.74 1.2267 2.74 2.74s-1.2267 2.74-2.74 2.74-2.74-1.2267-2.74-2.74c0-0.72669 0.28868-1.4236 0.80253-1.9375 0.51385-0.51385 1.2108-0.80253 1.9375-0.80253z" fill="#D5F4F2" fill-rule="nonzero"/>
<path d="m54.17 183c-7.4e-6 1.1091-0.66867 2.1089-1.6938 2.5324-1.0251 0.42351-2.2044 0.18724-2.9872-0.59846-0.78284-0.78571-1.0148-1.9659-0.58754-2.9894 0.42725-1.0235 1.4294-1.6885 2.5385-1.6845 1.5094 0.005509 2.73 1.2306 2.73 2.74z" stroke="#6E7F89" stroke-linejoin="round" stroke-width="2"/>
<g transform="translate(114 7)">
<circle cx="86.22" cy="86.01" r="85.72" fill="#D4F4F2" fill-rule="nonzero"/>
<path d="m78 124.45h17.28c5.2327-0.002651 10.25-2.0839 13.948-5.7859 3.6982-3.702 5.7744-8.7214 5.7717-13.954v-37.4c0.002653-5.2345-2.0749-10.255-5.7752-13.958-3.7004-3.7023-8.7203-5.7823-13.955-5.7823h-22c-10.902 0-19.74 8.8379-19.74 19.74v30.32c0 1.56 0.06 3.11 0.17 4.66l0.27 3.8c0.62414 9.855 8.4753 17.71 18.33 18.34h1 17.28" fill="#F8E3D5" fill-rule="nonzero" stroke="#6E7F89" stroke-linejoin="round" stroke-width="2"/>
<circle cx="107.37" cy="95.17" r="3.12" fill="#6E7F89" fill-rule="nonzero"/>
<circle cx="70.37" cy="95.46" r="3.12" fill="#6E7F89" fill-rule="nonzero"/>
<path d="m60.55 106.14l-0.28-3.79c-0.11-1.55-0.17-3.1-0.17-4.65v-30.24c0.023797-5.2512 2.1348-10.277 5.8676-13.971 3.7329-3.6935 8.7812-5.751 14.032-5.7194l-6.45 3.657e-4c-5.2477-0.026585-10.291 2.0333-14.019 5.7262s-5.8367 8.7161-5.8605 13.964v30.24c0 1.55 0.06 3.1 0.17 4.65l0.28 3.79c0.67258 9.874 8.5802 17.709 18.46 18.29h1 6.42-1c-9.8759-0.58604-17.778-8.4196-18.45-18.29z" fill="#000" fill-rule="nonzero" opacity=".07" style="mix-blend-mode:multiply"/>
<path d="m72.91 136.46h-5.29c-2.6448 0.010991-4.7845 2.1552-4.79 4.8v17.91c0.0054757 2.6448 2.1452 4.789 4.79 4.8h36.85c2.6448-0.010991 4.7845-2.1552 4.79-4.8v-17.91c-0.005476-2.6448-2.1452-4.789-4.79-4.8h-31.56zm58.76 26.29v11.59h-91.25l9.2e-6 -15.34h10c1.7673 0 3.2-1.4327 3.2-3.2s-1.4327-3.2-3.2-3.2h-10c-0.0024524-3.0257 0.48728-6.0316 1.45-8.9 4.41 2.4667 9.9508 1.4496 13.197-2.4226s3.2811-9.5054 0.082848-13.417c4.114-2.2301 8.7205-3.3954 13.4-3.39h35c4.7269-0.009742 9.3789 1.1808 13.52 3.46-2.5359 3.1554-3.0362 7.486-1.2866 11.137 1.7495 3.6505 5.4385 5.9734 9.4866 5.9734 1.7441 6.16e-4 3.4614-0.42872 5-1.25 0.94792 2.8402 1.4275 5.8158 1.42 8.81v3.2h-10c-1.7673 0-3.2 1.4327-3.2 3.2-0.001438 0.84578 0.33731 1.6566 0.94 2.25 0.59837 0.60138 1.4116 0.93965 2.26 0.94h10l-0.02 0.56z" fill="#E6ECF1" fill-rule="nonzero"/>
<path d="m131.67 155.78v6.39h-10c-0.84836-3.53e-4 -1.6616-0.33862-2.26-0.94-0.60269-0.59339-0.94144-1.4042-0.94-2.25 0-1.7673 1.4327-3.2 3.2-3.2h10z" fill="#C4D4DD" fill-rule="nonzero"/>
<path d="m130.25 143.77c-3.2622 1.751-7.2042 1.6601-10.382-0.23931-3.178-1.8994-5.125-5.3283-5.1278-9.0307-0.002374-2.3972 0.81639-4.723 2.32-6.59 6.2444 3.4281 10.958 9.0953 13.19 15.86z" fill="#C4D4DD" fill-rule="nonzero"/>
<path d="m83.34 145l0.14-0.06c1.4642-0.82004 3.2536-0.80101 4.7 0.05 0.10882 0.060529 0.24118 0.060529 0.35 0 0.94871-0.39096 1.9879-0.50873 3-0.34 2.0409 0.30959 3.7627 1.6824 4.519 3.6031 0.75634 1.9207 0.43286 4.0989-0.84902 5.7169-0.13 0.17-0.27 0.33-0.43 0.52 0.49849 0.05491 1.0015 0.05491 1.5 0 1.7121-0.060053 3.1476-1.312 3.44-3 0.15369-0.91641 0.12651-1.854-0.08-2.76-0.73807-4.0218-4.0759-7.0524-8.15-7.4-2.8118-0.26526-5.5851 0.8048-7.49 2.89-0.2613 0.2193-0.48141 0.48344-0.65 0.78zm25.92-3.74v17.91c-0.005476 2.6448-2.1452 4.789-4.79 4.8h-31.56v-27.51h31.56c2.6448 0.010991 4.7845 2.1552 4.79 4.8zm-11.16 14.35l-0.33 0.07c-1.4478 0.36386-2.9664 0.33625-4.4-0.08-0.10289-0.040163-0.21711-0.040163-0.32 0-2.4202 1.126-5.2968 0.44825-6.9597-1.6399-1.6629-2.0881-1.6796-5.0434-0.040348-7.1501 0.22848-0.28916 0.47924-0.55999 0.75-0.81-0.23674-0.074499-0.48209-0.11819-0.73-0.13-2.1792-0.11634-4.1059 1.4036-4.5 3.55-0.15492 0.77904-0.15492 1.581 0 2.36 0.70718 4.4227 4.5212 7.6773 9 7.68 1.9884 0.015438 3.9259-0.62806 5.51-1.83 0.77483-0.56355 1.4565-1.2452 2.02-2.02zm-2.63-5.27c0-0.15 0-0.32-0.05-0.49-0.11598-1.2655-0.74917-2.4269-1.75-3.21-1.1953-0.98639-2.7972-1.3262-4.29-0.91-0.17 0.05-0.22 0.09-0.09 0.25 0.43806 0.58708 0.77596 1.2426 1 1.94 0.32 0.8 0.5 1.64 0.75 2.45 0.30358 1.01 0.72656 1.9802 1.26 2.89 0.19481 0.3793 0.49752 0.69245 0.87 0.9 0.15293 0.084922 0.34331 0.060619 0.47-0.06 1.1422-0.91615 1.8137-2.2959 1.83-3.76zm-3.9 4.76c0.19461-0.026087 0.38373-0.083496 0.56-0.17-1.13-1.23-1.35-2.83-1.86-4.34l-0.08 0.13c-0.31 0.68-0.6 1.38-0.86 2.09-0.23516 0.58824-0.35402 1.2165-0.35 1.85 0 0.17 0.06 0.26 0.22 0.3 0.76643 0.24105 1.5805 0.28914 2.37 0.14zm-1.68-5.27c0.054036-0.11392 0.054036-0.24608 0-0.36-0.22068-0.57746-0.47443-1.1417-0.76-1.69-0.2512-0.49712-0.62669-0.92084-1.09-1.23-0.097632-0.084369-0.24237-0.084369-0.34 0-1.1753 0.89885-1.8692 2.2904-1.88 3.77 0.0017294 0.2408 0.018428 0.48127 0.05 0.72 0.15977 1.2282 0.79985 2.3429 1.78 3.1 0.13 0.12 0.17 0.08 0.21-0.07 0.101-0.37577 0.23831-0.74082 0.41-1.09 0.51-1.07 1.09-2.09 1.62-3.15z" fill="#D4F4F2" fill-rule="nonzero"/>
<path d="m99.6 148.7c0.20651 0.90597 0.23369 1.8436 0.08 2.76-0.29236 1.688-1.7279 2.9399-3.44 3-0.49849 0.05491-1.0015 0.05491-1.5 0 0.16-0.19 0.3-0.35 0.43-0.52 1.2819-1.618 1.6054-3.7962 0.84902-5.7169-0.75634-1.9207-2.4781-3.2935-4.519-3.6031-1.0121-0.16873-2.0513-0.050961-3 0.34-0.10882 0.060529-0.24118 0.060529-0.35 0-1.4464-0.85101-3.2358-0.87004-4.7-0.05l-0.14 0.06c0.15664-0.30486 0.36662-0.57919 0.62-0.81 1.9049-2.0852 4.6782-3.1553 7.49-2.89 4.0948 0.33798 7.451 3.3864 8.18 7.43z" fill="#6E7F89" fill-rule="nonzero"/>
<path d="m97.77 155.68l0.33-0.07c-0.5591 0.76619-1.2338 1.4409-2 2-1.5841 1.2019-3.5216 1.8454-5.51 1.83-4.4788-0.002749-8.2928-3.2573-9-7.68-0.15492-0.77904-0.15492-1.581 0-2.36 0.39414-2.1464 2.3208-3.6663 4.5-3.55 0.24791 0.011808 0.49326 0.055501 0.73 0.13-0.27076 0.25001-0.52152 0.52084-0.75 0.81-1.6392 2.1068-1.6225 5.062 0.040348 7.1501 1.6629 2.0881 4.5394 2.7659 6.9597 1.6399 0.10289-0.040163 0.21711-0.040163 0.32 0 1.4256 0.41924 2.9368 0.45374 4.38 0.1z" fill="#80B5BC" fill-rule="nonzero"/>
<path d="m95.42 149.85c0 0.17 0 0.34 0.05 0.49-0.0040513 1.4558-0.65655 2.8341-1.78 3.76-0.12669 0.12062-0.31707 0.14492-0.47 0.06-0.37248-0.20755-0.67519-0.5207-0.87-0.9-0.53344-0.9098-0.95642-1.88-1.26-2.89-0.25-0.81-0.43-1.65-0.75-2.45-0.22404-0.6974-0.56194-1.3529-1-1.94-0.13-0.16-0.08-0.2 0.09-0.25 1.4928-0.4162 3.0947-0.076389 4.29 0.91 0.98209 0.79225 1.5965 1.9524 1.7 3.21z" fill="#6E7F89" fill-rule="nonzero"/>
<path d="m92.13 154.93c-0.17627 0.086504-0.36539 0.14391-0.56 0.17-0.78948 0.14914-1.6036 0.10105-2.37-0.14-0.16 0-0.21-0.13-0.22-0.3-0.0040208-0.63349 0.11484-1.2618 0.35-1.85 0.26-0.71 0.55-1.41 0.86-2.09l0.08-0.13c0.51 1.51 0.73 3.11 1.86 4.34z" fill="#80B5BC" fill-rule="nonzero"/>
<path d="m89.91 149.47c0.054036 0.11392 0.054036 0.24608 0 0.36-0.53 1.06-1.11 2.08-1.6 3.15-0.17169 0.34918-0.309 0.71423-0.41 1.09 0 0.15-0.08 0.19-0.21 0.07-0.98015-0.7571-1.6202-1.8718-1.78-3.1-0.031572-0.23873-0.048271-0.4792-0.05-0.72 0.010759-1.4796 0.7047-2.8711 1.88-3.77 0.097632-0.084369 0.24237-0.084369 0.34 0 0.46331 0.30916 0.8388 0.73288 1.09 1.23 0.27877 0.54873 0.52584 1.113 0.74 1.69z" fill="#80B5BC" fill-rule="nonzero"/>
<path d="m72.91 150.2v13.8h-5.29c-2.6448-0.010991-4.7845-2.1552-4.79-4.8v-9h10.08zm-2.85 8.8c0.0040486-0.91903-0.54644-1.7498-1.3944-2.1043-0.84791-0.35451-1.8259-0.16277-2.4772 0.48565-0.65129 0.64842-0.84734 1.6256-0.49658 2.475 0.35076 0.84947 1.1791 1.4036 2.0981 1.4036 1.2498 1.2e-5 2.2645-1.0102 2.27-2.26z" fill="#C4D4DD" fill-rule="nonzero"/>
<path d="m72.91 136.46v13.74h-10.08v-8.94c0.0054757-2.6448 2.1452-4.789 4.79-4.8h5.29zm-3.11 5.86c-8.9e-6 -0.91904-0.55416-1.7474-1.4036-2.0981s-1.8266-0.15471-2.475 0.49658c-0.64842 0.65129-0.84016 1.6293-0.48565 2.4772 0.35451 0.84791 1.1853 1.3984 2.1043 1.3944 0.60113 6e-6 1.1775-0.23947 1.6016-0.66547 0.42412-0.426 0.66105-1.0034 0.65839-1.6045z" fill="#C4D4DD" fill-rule="nonzero"/>
<path d="m67.79 156.71c0.91903-0.004049 1.7498 0.54644 2.1043 1.3944 0.35451 0.84791 0.16277 1.8259-0.48565 2.4772-0.64842 0.65129-1.6256 0.84734-2.475 0.49658s-1.4036-1.1791-1.4036-2.0981c-1.21e-5 -1.2498 1.0102-2.2645 2.26-2.27z" fill="#80B5BC" fill-rule="nonzero"/>
<path d="m67.54 140.06c0.91904 9e-6 1.7474 0.55416 2.0981 1.4036 0.35076 0.84947 0.15471 1.8266-0.49658 2.475-0.65129 0.64842-1.6293 0.84016-2.4772 0.48565-0.84791-0.35451-1.3984-1.1853-1.3944-2.1043-5.9e-6 -0.60113 0.23947-1.1775 0.66547-1.6016s1.0034-0.66105 1.6045-0.65839z" fill="#80B5BC" fill-rule="nonzero"/>
<path d="m55.15 127.84c3.1983 3.912 3.1635 9.5452-0.082848 13.417s-8.7872 4.8893-13.197 2.4226c2.2596-6.772 7.0061-12.434 13.28-15.84z" fill="#C4D4DD" fill-rule="nonzero"/>
<path d="m50.45 152.58c1.7673 0 3.2 1.4327 3.2 3.2s-1.4327 3.2-3.2 3.2h-10v-6.4h10z" fill="#C4D4DD" fill-rule="nonzero"/>
<path d="m40.42 152.58c-0.0053112-7.4622 2.9567-14.62 8.2332-19.897 5.2766-5.2766 12.435-8.2385 19.897-8.2332h35c12.141-0.004173 22.913 7.7874 26.71 19.32 0.94792 2.8402 1.4275 5.8158 1.42 8.81l8.7e-5 3.2" stroke="#6E7F89" stroke-linecap="round" stroke-linejoin="round" stroke-width="2"/>
<polyline points="131.67 162.75 131.67 174.34 40.42 174.34 40.42 160.36 40.42 158.98" stroke="#6E7F89" stroke-linecap="round" stroke-linejoin="round" stroke-width="2"/>
<path d="m55.15 127.84c3.1983 3.912 3.1635 9.5452-0.082848 13.417s-8.7872 4.8893-13.197 2.4226" stroke="#6E7F89" stroke-linecap="round" stroke-linejoin="round" stroke-width="2"/>
<path d="m130.26 143.76c-3.2622 1.751-7.2042 1.6601-10.382-0.23931-3.178-1.8994-5.125-5.3283-5.1278-9.0307-0.002374-2.3972 0.81639-4.723 2.32-6.59" stroke="#6E7F89" stroke-linecap="round" stroke-linejoin="round" stroke-width="2"/>
<path d="m72.91 136.46h31.56c2.6448 0.010991 4.7845 2.1552 4.79 4.8v17.91c-0.005476 2.6448-2.1452 4.789-4.79 4.8h-36.85c-2.6448-0.010991-4.7845-2.1552-4.79-4.8v-17.91c0.0054757-2.6448 2.1452-4.789 4.79-4.8h5.29z" stroke="#6E7F89" stroke-linecap="round" stroke-linejoin="round" stroke-width="2"/>
<polyline points="72.91 136.43 72.91 136.46 72.91 150.2 72.91 163.97" stroke="#6E7F89" stroke-linecap="round" stroke-linejoin="round" stroke-width="2"/>
<path d="m70.06 159c0 1.2537-1.0163 2.27-2.27 2.27s-2.27-1.0163-2.27-2.27 1.0163-2.27 2.27-2.27 2.27 1.0163 2.27 2.27v0z" stroke="#6E7F89" stroke-linecap="round" stroke-linejoin="round" stroke-width="2"/>
<path d="m69.8 142.32c0.0040437 0.91994-0.54754 1.7514-1.3967 2.1053s-1.8279 0.16034-2.4784-0.49016c-0.6505-0.6505-0.84407-1.6293-0.49016-2.4784 0.35392-0.84914 1.1853-1.4007 2.1053-1.3967 1.2459 0.005477 2.2545 1.0141 2.26 2.26z" stroke="#6E7F89" stroke-linecap="round" stroke-linejoin="round" stroke-width="2"/>
<path d="m40.42 152.58h10c1.7673 0 3.2 1.4327 3.2 3.2s-1.4327 3.2-3.2 3.2h-10" stroke="#6E7F89" stroke-linecap="round" stroke-linejoin="round" stroke-width="2"/>
<path d="m131.67 155.78h-10c-1.7673 0-3.2 1.4327-3.2 3.2-0.001438 0.84578 0.33731 1.6566 0.94 2.25 0.59837 0.60138 1.4116 0.93965 2.26 0.94h10" stroke="#6E7F89" stroke-linecap="round" stroke-linejoin="round" stroke-width="2"/>
<path d="m62.83 150.2h10.08" stroke="#6E7F89" stroke-linecap="round" stroke-linejoin="round" stroke-width="2"/>
<path d="m40.42 152.58v6.4" stroke="#6E7F89" stroke-linecap="round" stroke-linejoin="round" stroke-width="2"/>
<path d="m131.67 162.17v0.58" stroke="#6E7F89" stroke-linecap="round" stroke-linejoin="round" stroke-width="2"/>
</g>
<path d="m214.92 18.69v25.62h-14.18c0.8372-0.0054543 1.5145-0.6828 1.52-1.52v-3.08c1.8e-5 -0.84111-0.67891-1.5245-1.52-1.53h0.18c0.69752 2.16e-5 1.2645-0.56251 1.27-1.26v-1.72c-0.005441-0.69914-0.57086-1.2646-1.27-1.27 0.06-0.6 0.21-1.84 0.33-2.43 0.39913-1.6151 1.2086-3.0997 2.35-4.31 2.5985-2.7282 3.2756-6.763 1.71-10.19-1.61-3.86-4.71-5.73-9-6-0.64096 0.061231-1.2784 0.15468-1.91 0.28-2.3511 0.58144-4.4075 2.0045-5.78 4-1.5235 1.9918-2.1469 4.5289-1.72 7 0.30261 1.9485 1.2084 3.7531 2.59 5.16 1.2543 1.2879 2.0577 2.9473 2.29 4.73 0.08 0.6 0.07 1.21 0.1 1.81h0.27c-0.70081 0.0053489-1.2692 0.56925-1.28 1.27v1.72c0.010925 0.6991 0.58081 1.2601 1.28 1.26h0.31c-0.84109 0.0054974-1.52 0.68889-1.52 1.53v3.08c0 0.83947 0.68053 1.52 1.52 1.52h-14.46v-25.67c0.23338-10.025 8.4272-18.03 18.455-18.03s18.222 8.0053 18.455 18.03h0.01z" fill="#D5F4F2" fill-rule="nonzero"/>
<path d="m196.47 33.93h-4.57c0-0.6 0-1.21-0.1-1.81-0.23227-1.7827-1.0357-3.4421-2.29-4.73-1.3816-1.4069-2.2874-3.2115-2.59-5.16-0.42691-2.4711 0.1965-5.0082 1.72-7 1.3725-1.9955 3.4289-3.4186 5.78-4 0.63157-0.12532 1.269-0.21877 1.91-0.28 4.27 0.24 7.37 2.11 9 6 1.5689 3.443 0.87509 7.4951-1.75 10.22-1.1414 1.2103-1.9509 2.6949-2.35 4.31-0.12 0.59-0.27 1.83-0.33 2.43l-4.43 0.02zm4-11.75c0-1.1046-0.89543-2-2-2s-2 0.89543-2 2 0.89543 2 2 2c1.0889-0.021783 1.9602-0.91086 1.96-2h0.04zm-4.12 0c0-1.1046-0.89543-2-2-2s-2 0.89543-2 2 0.89543 2 2 2c1.1007-0.021891 1.9767-0.92922 1.96-2.03l0.04 0.03z" fill="#FDAE76" fill-rule="nonzero"/>
<path d="m202.26 39.71v3.08c-0.005454 0.8372-0.6828 1.5145-1.52 1.52h-8.26c-0.83947 0-1.52-0.68053-1.52-1.52v-3.08c-1.8e-5 -0.84111 0.67891-1.5245 1.52-1.53h8.26c0.84109 0.0054974 1.52 0.68889 1.52 1.53z" fill="#98BAC8" fill-rule="nonzero"/>
<path d="m202.19 35.2v1.72c-0.005492 0.69749-0.57248 1.26-1.27 1.26h-8.75c-0.69919 8.54e-5 -1.2691-0.5609-1.28-1.26v-1.72c0.010845-0.70075 0.57919-1.2647 1.28-1.27h8.75c0.69914 0.005441 1.2646 0.57086 1.27 1.27z" fill="#98BAC8" fill-rule="nonzero"/>
<path d="m198.45 20.2c1.1046 0 2 0.89543 2 2s-0.89543 2-2 2-2-0.89543-2-2 0.89543-2 2-2z" fill="#FDAE76" fill-rule="nonzero"/>
<path d="m194.34 20.17c1.1046 0 2 0.89543 2 2s-0.89543 2-2 2-2-0.89543-2-2 0.89543-2 2-2z" fill="#FDAE76" fill-rule="nonzero"/>
<path d="m200.74 44.31h14.18v-25.62c-0.23338-10.025-8.4272-18.03-18.455-18.03s-18.222 8.0053-18.455 18.03v25.62h14.47" stroke="#6E7F89" stroke-linejoin="round" stroke-width="2"/>
<path d="m181.7 19.33h1.83" stroke="#6E7F89" stroke-linejoin="round" stroke-width="2"/>
<path d="m208.9 19.33h1.83" stroke="#6E7F89" stroke-linejoin="round" stroke-width="2"/>
<path d="m183.57 12.19l1.6 0.9" stroke="#6E7F89" stroke-linejoin="round" stroke-width="2"/>
<path d="m207.56 13.65l1.64-0.82" stroke="#6E7F89" stroke-linejoin="round" stroke-width="2"/>
<path d="m204.4 9.64l1.18-1.4" stroke="#6E7F89" stroke-linejoin="round" stroke-width="2"/>
<path d="m188.66 6.92l0.96 1.57" stroke="#6E7F89" stroke-linejoin="round" stroke-width="2"/>
<path d="m200.12 5.34l-0.49 1.77" stroke="#6E7F89" stroke-linejoin="round" stroke-width="2"/>
<path d="m194.58 4.9l0.2 1.82" stroke="#6E7F89" stroke-linejoin="round" stroke-width="2"/>
<path d="m192.17 33.93h-0.27c0-0.6 0-1.21-0.1-1.81-0.23227-1.7827-1.0357-3.4421-2.29-4.73-1.3816-1.4069-2.2874-3.2115-2.59-5.16-0.42691-2.4711 0.1965-5.0082 1.72-7 1.3725-1.9955 3.4289-3.4186 5.78-4 0.63157-0.12532 1.269-0.21877 1.91-0.28 4.27 0.24 7.37 2.11 9 6 1.5689 3.443 0.87509 7.4951-1.75 10.22-1.1414 1.2103-1.9509 2.6949-2.35 4.31-0.12 0.59-0.27 1.83-0.33 2.43" stroke="#6E7F89" stroke-linejoin="round" stroke-width="2"/>
<path d="m192.48 38.18h-0.31c-0.69919 8.54e-5 -1.2691-0.5609-1.28-1.26v-1.72c0.010845-0.70075 0.57919-1.2647 1.28-1.27h8.75c0.69914 0.005441 1.2646 0.57086 1.27 1.27v1.72c-0.005492 0.69749-0.57248 1.26-1.27 1.26h-0.18" stroke="#6E7F89" stroke-linejoin="round" stroke-width="2"/>
<path d="m192.48 44.31c-0.40313 0-0.78975-0.16014-1.0748-0.4452-0.28506-0.28506-0.4452-0.67167-0.4452-1.0748v-3.08c-1.8e-5 -0.84111 0.67891-1.5245 1.52-1.53h8.26c0.84109 0.0054974 1.52 0.68889 1.52 1.53v3.08c-0.005454 0.8372-0.6828 1.5145-1.52 1.52" stroke="#6E7F89" stroke-linejoin="round" stroke-width="2"/>
<path d="m196.47 33.93v-10.79" stroke="#6E7F89" stroke-linejoin="round" stroke-width="2"/>
<path d="m207.26 26.96l1.6 0.9" stroke="#6E7F89" stroke-linejoin="round" stroke-width="2"/>
<path d="m183.23 27.22l1.64-0.82" stroke="#6E7F89" stroke-linejoin="round" stroke-width="2"/>
<path d="m196.31 22.15c0 1.1046-0.89543 2-2 2s-2-0.89543-2-2 0.89543-2 2-2 2 0.89543 2 2z" stroke="#6E7F89" stroke-linejoin="round" stroke-width="2"/>
<path d="m200.43 22.18c0 1.1046-0.89543 2-2 2s-2-0.89543-2-2 0.89543-2 2-2 2 0.89543 2 2z" stroke="#6E7F89" stroke-linejoin="round" stroke-width="2"/>
<path d="m244.64 90.76c5.0862 1.8815 8.5074 6.6784 8.63 12.1 0 6-4.34 11-10.27 12.65 0.20849 0.90532 0.31582 1.831 0.32 2.76 0 7.28-6.41 13.18-14.32 13.18h-64.71c-7.91 0-14.32-5.9-14.32-13.18-5.61e-4 -0.92929 0.10682-1.8555 0.32-2.76-5.94-1.61-10.28-6.66-10.28-12.65 0.12418-5.4242 3.5499-10.222 8.64-12.1-2.6566-2.3726-4.1859-5.7582-4.21-9.32 0-6.34 4.87-11.64 11.35-12.9-0.96034-1.7787-1.4621-3.7687-1.46-5.79 0-7.28 6.41-13.18 14.32-13.18 1.3506 0.0037707 2.695 0.18191 4 0.53 1.13-6.23 7-11 14.12-11 3.6036-0.024826 7.0948 1.2537 9.83 3.6 2.738-2.3416 6.2273-3.6194 9.83-3.6 7.1 0 13 4.76 14.12 11 1.3052-0.34678 2.6495-0.5249 4-0.53 7.91 0 14.32 5.9 14.32 13.18-0.002869 2.0207-0.50436 4.0095-1.46 5.79 6.49 1.26 11.35 6.56 11.35 12.9-0.004768 3.5471-1.4998 6.929-4.12 9.32z" fill="#80B5BC" fill-rule="nonzero"/>
<path d="m164.29 131.45c-7.91 0-14.32-5.9-14.32-13.18-5.61e-4 -0.92929 0.10682-1.8555 0.32-2.76-5.94-1.61-10.28-6.66-10.28-12.65 0.12418-5.4242 3.5499-10.222 8.64-12.1-2.6566-2.3726-4.1859-5.7582-4.21-9.32 0-6.34 4.87-11.64 11.35-12.9-0.96034-1.7787-1.4621-3.7687-1.46-5.79 0-7.28 6.41-13.18 14.32-13.18 1.3506 0.0037707 2.695 0.18191 4 0.53 1.13-6.23 7-11 14.12-11 3.6036-0.024826 7.0948 1.2537 9.83 3.6 2.738-2.3416 6.2273-3.6194 9.83-3.6 7.1 0 13 4.76 14.12 11 1.3052-0.34678 2.6495-0.5249 4-0.53 7.91 0 14.32 5.9 14.32 13.18-0.002869 2.0207-0.50436 4.0095-1.46 5.79 6.49 1.26 11.35 6.56 11.35 12.9-0.025244 3.5595-1.5501 6.9433-4.2 9.32 5.0862 1.8815 8.5074 6.6784 8.63 12.1 0 6-4.34 11-10.27 12.65 0.20849 0.90532 0.31582 1.831 0.32 2.76 0 7.28-6.41 13.18-14.32 13.18h-64.63z" stroke="#6E7F89" stroke-linejoin="round" stroke-width="2"/>
<path d="m192 131.45h17.28c5.2327-0.002651 10.25-2.0839 13.948-5.7859 3.6982-3.702 5.7744-8.7214 5.7717-13.954v-37.4c0.002653-5.2345-2.0749-10.255-5.7752-13.958-3.7004-3.7023-8.7203-5.7823-13.955-5.7823h-22c-10.902 0-19.74 8.8379-19.74 19.74v30.32c0 1.56 0.06 3.11 0.17 4.66l0.27 3.8c0.62414 9.855 8.4753 17.71 18.33 18.34h1 17.28" fill="#F8E3D5" fill-rule="nonzero" stroke="#6E7F89" stroke-linejoin="round" stroke-width="2"/>
<circle cx="221.37" cy="102.17" r="3.12" fill="#6E7F89" fill-rule="nonzero"/>
<circle cx="184.37" cy="102.46" r="3.12" fill="#6E7F89" fill-rule="nonzero"/>
<path d="m174.55 113.14l-0.28-3.79c-0.11-1.55-0.17-3.1-0.17-4.65v-30.24c0.023797-5.2512 2.1348-10.277 5.8676-13.971 3.7329-3.6935 8.7812-5.751 14.032-5.7194l-6.45 3.657e-4c-5.2477-0.026585-10.291 2.0333-14.019 5.7262-3.7285 3.6929-5.8367 8.7161-5.8605 13.964v30.24c0 1.55 0.06 3.1 0.17 4.65l0.28 3.79c0.67258 9.874 8.5802 17.709 18.46 18.29h1 6.42-1c-9.8759-0.58604-17.778-8.4196-18.45-18.29z" fill="#000" fill-rule="nonzero" opacity=".07" style="mix-blend-mode:multiply"/>
<path d="m187.86 54.57h21.31c10.935 0 19.8 8.8648 19.8 19.8v9.4h-34.38c-4.0177-0.003071-7.9817-0.9231-11.59-2.69-3.3151-1.6589-6.1515-4.1373-8.24-7.2l-5.44-7.83c0.94775-1.8507 2.1531-3.5577 3.58-5.07 3.8815-4.1195 9.3-6.4412 14.96-6.41z" fill="#80B5BC" fill-rule="nonzero" stroke="#6E7F89" stroke-linejoin="round" stroke-width="2"/>
<circle cx="325.32" cy="247.49" r="85.72" fill="#D4F4F2" fill-rule="nonzero"/>
<g transform="translate(278 198)">
<path d="m34.52 100.59h-5.37c-2.6779 0.010992-4.8445 2.1821-4.85 4.86v18.17c0.010916 2.6757 2.1744 4.8436 4.85 4.86h37.37c2.6796-0.010959 4.849-2.1804 4.86-4.86v-18.17c-0.0055012-2.6818-2.1782-4.8545-4.86-4.86h-32zm59.58 16.34l5.2e-6 20.16h-92.53l7.52e-6 -20.16c-0.0022368-3.0599 0.49427-6.0998 1.47-9 4.4559 2.4607 10.03 1.4277 13.308-2.4663 3.2783-3.894 3.3461-9.5624 0.16191-13.534 4.172-2.2627 8.8439-3.4452 13.59-3.44h0.56c1.5679 0.40369 3.181 0.60533 4.8 0.6h21.54c1.6124 0.0051558 3.2189-0.19649 4.78-0.6h3.75c4.7965-0.0081991 9.5168 1.1994 13.72 3.51-3.1421 3.9657-3.0636 9.5939 0.18788 13.47 3.2515 3.8766 8.78 4.9335 13.232 2.5296 0.94909 2.8815 1.4318 5.8962 1.43 8.93zm-76.72 8.46c-9.6e-6 -0.85028-0.51275-1.6166-1.2987-1.9411-0.78594-0.32445-1.69-0.14294-2.2898 0.45973-0.5998 0.60267-0.77699 1.5076-0.4488 2.2919 0.32819 0.78439 1.097 1.2935 1.9473 1.2894 0.55604 6e-6 1.0892-0.22156 1.4814-0.61568 0.39224-0.39412 0.61126-0.92829 0.6086-1.4843zm-7 0c0-1.1598-0.9402-2.1-2.1-2.1s-2.1 0.9402-2.1 2.1 0.9402 2.1 2.1 2.1c1.1559-0.005504 2.09-0.9441 2.09-2.1h0.01z" fill="#E6EDF2" fill-rule="nonzero"/>
<path d="m92.67 108c-4.4654 2.4197-10.018 1.353-13.269-2.5491-3.2509-3.9021-3.2975-9.5558-0.11127-13.511 6.3241 3.4764 11.103 9.2121 13.38 16.06z" fill="#C4D4DD" fill-rule="nonzero"/>
<path d="m86.75 24.7v43.3c0 3.8108-3.0892 6.9-6.9 6.9h-10s6.69-0.23 6.49-9.65v-0.22-32-0.83c-0.45523-10.348-8.9821-18.5-19.34-18.49h-21.54c-5.1284-7e-7 -10.047 2.0379-13.672 5.6652s-5.6607 8.5465-5.6581 13.675v39.77h-15.58s6.69-0.23 6.48-9.63v-31.59s-1.46-25.54 23.14-31.07c1.5323-0.34749 3.0988-0.52192 4.67-0.52h28.07c9.4244-0.085304 17.986 5.4752 21.74 14.12 0.13 0.32 0.26 0.64 0.38 1 1.1349 3.0631 1.7173 6.3034 1.72 9.57z" fill="#7EB5BD" fill-rule="nonzero"/>
<path d="m76.37 33.05v32 0.22c0.2 9.42-6.49 9.65-6.49 9.65h5.8c-1.8686 6.6524-7.1445 11.802-13.84 13.51h-31.18c-8.5524-2.1924-14.532-9.901-14.53-18.73v-25.97h50.87v-4.63c-0.0026591-1.8255 0.72134-3.577 2.0122-4.8678 1.2908-1.2908 3.0423-2.0148 4.8678-2.0122h2.46c0.02 0.28 0.03 0.55 0.03 0.83zm-13.49 27.57c0-1.69-1.37-3.06-3.06-3.06s-3.06 1.37-3.06 3.06 1.37 3.06 3.06 3.06c0.81238 0.0026679 1.5923-0.31887 2.1667-0.89331 0.57444-0.57444 0.89598-1.3543 0.89331-2.1667zm-36.24 0.24c0-1.69-1.37-3.06-3.06-3.06s-3.06 1.37-3.06 3.06 1.37 3.06 3.06 3.06 3.06-1.37 3.06-3.06z" fill="#F9E3D4" fill-rule="nonzero"/>
<path d="m76.35 32.22h-2.46c-1.8272-0.0053214-3.5813 0.7175-4.8743 2.0086-1.293 1.2911-2.0184 3.0441-2.0157 4.8714v4.63h-50.87l2.6e-6 -10.68c-0.0026531-5.1284 2.0327-10.048 5.6581-13.675s8.5435-5.6652 13.672-5.6652h21.54c10.369-0.014914 18.905 8.1504 19.35 18.51z" fill="#7EB5BD" fill-rule="nonzero"/>
<path d="m71.38 105.45v18.17c-0.010959 2.6796-2.1804 4.849-4.86 4.86h-32v-27.89h32c2.6818 0.005501 4.8545 2.1782 4.86 4.86zm-9.1 10.06c0.17975-0.30287 0.27634-0.64783 0.28-1-0.010024-0.45285-0.16415-0.89072-0.44-1.25-0.32861-0.4487-0.73504-0.83482-1.2-1.14-0.92862-0.59667-1.9392-1.0548-3-1.36-0.16-0.06-0.16 0-0.13-0.23 0.19569-0.84616 0.29631-1.7115 0.3-2.58v-0.63c-0.026372-0.56194-0.15515-1.1143-0.38-1.63-0.29817-0.77271-1.0418-1.2817-1.87-1.28-0.42387 7.3e-4 -0.84406 0.078669-1.24 0.23-0.71718 0.26621-1.3911 0.63688-2 1.1-0.46229 0.33186-0.90317 0.69258-1.32 1.08-0.05 0.05-0.08 0.07-0.14 0-0.23-0.2-0.45-0.4-0.69-0.59-0.68213-0.58085-1.443-1.0623-2.26-1.43-0.57407-0.27128-1.2057-0.39829-1.84-0.37-0.44144 0.036547-0.85579 0.22779-1.17 0.54-0.36676 0.36599-0.61724 0.83216-0.72 1.34-0.19817 0.85874-0.24219 1.7459-0.13 2.62 0.053488 0.56922 0.14705 1.1339 0.28 1.69 0 0.06 0 0.08-0.06 0.1l-0.44 0.14c-0.9034 0.30079-1.7639 0.71761-2.56 1.24-0.56938 0.34784-1.0463 0.82814-1.39 1.4-0.25283 0.41265-0.33867 0.90622-0.24 1.38 0.10807 0.45501 0.33595 0.8728 0.66 1.21 0.49869 0.50904 1.0761 0.93448 1.71 1.26 0.72616 0.37979 1.4861 0.69114 2.27 0.93 0.07 0 0.08 0.05 0.07 0.11-0.028031 0.092096-0.051394 0.18555-0.07 0.28-0.13126 0.66011-0.21812 1.3283-0.26 2-0.018275 0.51136 0.0084951 1.0233 0.08 1.53 0.057055 0.48983 0.21359 0.96284 0.46 1.39 0.19774 0.3703 0.51493 0.66282 0.9 0.83 0.45581 0.18892 0.95921 0.23087 1.44 0.12 0.50729-0.097392 0.99643-0.27281 1.45-0.52 0.91659-0.48803 1.7613-1.1005 2.51-1.82 0.07-0.06 0.11-0.07 0.18 0 0.59507 0.56046 1.245 1.0596 1.94 1.49 0.59127 0.38251 1.2442 0.65993 1.93 0.82 0.41344 0.10497 0.84656 0.10497 1.26 0 0.53398-0.14724 0.98298-0.50934 1.24-1 0.2951-0.62636 0.45523-1.3078 0.47-2v-0.91c0-0.3-0.07-0.79-0.12-1.18s-0.11-0.63-0.18-0.94c0-0.06 0-0.1 0.07-0.12s0.4-0.13 0.61-0.21c0.89929-0.30122 1.7512-0.72884 2.53-1.27 0.50367-0.35716 0.91781-0.82606 1.21-1.37z" fill="#D4F4F2" fill-rule="nonzero"/>
<path d="m46.51 115.81c-0.22 0.57-0.42 1.14-0.59 1.72 0 0.06 0 0.08 0.06 0.09 0.48 0.11 1 0.22 1.47 0.29 0.10286 0.013991 0.20714 0.013991 0.31 0l-1.25-2.1zm16.05-1.29c-0.0036575 0.35217-0.10025 0.69713-0.28 1-0.30369 0.5196-0.72071 0.96396-1.22 1.3-0.77884 0.54116-1.6307 0.96878-2.53 1.27-0.21 0.08-0.4 0.15-0.61 0.21s-0.09 0.06-0.07 0.12c0.07 0.31 0.12 0.63 0.18 0.94s0.1 0.78 0.12 1.18 0 0.61 0 0.91c-0.014774 0.69224-0.1749 1.3736-0.47 2-0.25702 0.49066-0.70602 0.85276-1.24 1-0.41344 0.10497-0.84656 0.10497-1.26 0-0.68578-0.16007-1.3387-0.43749-1.93-0.82-0.69499-0.43036-1.3449-0.92954-1.94-1.49-0.07-0.07-0.11-0.06-0.18 0-0.74874 0.7195-1.5934 1.332-2.51 1.82-0.45357 0.24719-0.94271 0.42261-1.45 0.52-0.48079 0.11087-0.98419 0.068921-1.44-0.12-0.38507-0.16718-0.70226-0.4597-0.9-0.83-0.24641-0.42716-0.40294-0.90017-0.46-1.39-0.071505-0.50666-0.098275-1.0186-0.08-1.53 0.041879-0.67173 0.12874-1.3399 0.26-2 0.018606-0.094452 0.041969-0.1879 0.07-0.28 0-0.06 0-0.09-0.07-0.11-0.78389-0.23886-1.5438-0.55021-2.27-0.93-0.63392-0.32552-1.2113-0.75096-1.71-1.26-0.32405-0.3372-0.55193-0.75499-0.66-1.21-0.098667-0.47378-0.012828-0.96735 0.24-1.38 0.34375-0.57186 0.82062-1.0522 1.39-1.4 0.79607-0.52239 1.6566-0.93921 2.56-1.24l0.44-0.14c0.05 0 0.08 0 0.06-0.1-0.13295-0.55605-0.22651-1.1208-0.28-1.69-0.11219-0.87414-0.068168-1.7613 0.13-2.62 0.10276-0.50784 0.35324-0.97401 0.72-1.34 0.31421-0.31221 0.72856-0.50345 1.17-0.54 0.63431-0.028286 1.2659 0.098725 1.84 0.37 0.817 0.36771 1.5779 0.84915 2.26 1.43 0.24 0.19 0.46 0.39 0.69 0.59 0.06 0.06 0.09 0 0.14 0 0.41683-0.38742 0.85771-0.74814 1.32-1.08 0.60888-0.46312 1.2828-0.83379 2-1.1 0.39594-0.15133 0.81613-0.22927 1.24-0.23 0.82824-0.001695 1.5718 0.50729 1.87 1.28 0.22485 0.51567 0.35363 1.0681 0.38 1.63v0.63c-0.0036855 0.86848-0.10431 1.7338-0.3 2.58 0 0.18 0 0.17 0.13 0.23 1.0608 0.30518 2.0714 0.76333 3 1.36 0.46496 0.30518 0.87139 0.6913 1.2 1.14 0.29387 0.37704 0.45237 0.84197 0.45 1.32zm-1 0c-0.010718-0.25665-0.1056-0.50263-0.27-0.7-0.2957-0.38304-0.66237-0.70558-1.08-0.95-0.80062-0.48877-1.6611-0.87194-2.56-1.14-0.09 0-0.1 0-0.11 0.07-0.22967 0.80953-0.51708 1.6016-0.86 2.37-0.11912 0.19311-0.11912 0.43689 0 0.63 0.3447 0.78252 0.63538 1.5877 0.87 2.41 0 0.06 0.05 0.09 0.12 0.06 0.86105-0.25813 1.6872-0.62084 2.46-1.08 0.42337-0.25245 0.80186-0.57349 1.12-0.95 0.16626-0.20099 0.26431-0.44963 0.28-0.71l0.03-0.01zm-4.62 8.17c0.16791-0.5468 0.23897-1.1187 0.21-1.69v-0.55c-0.046692-0.59518-0.13356-1.1865-0.26-1.77 0-0.07 0-0.1-0.12-0.07-0.87611 0.20911-1.7645 0.36275-2.66 0.46-0.11896 0.013491-0.22729 0.074878-0.3 0.17-0.32 0.45-0.67 0.89-1 1.32-0.23 0.26-0.46 0.53-0.7 0.77 0 0-0.07 0.06 0 0.12 0.27 0.24 0.55 0.48 0.84 0.71 0.55992 0.44688 1.175 0.81994 1.83 1.11 0.40228 0.19265 0.84405 0.28854 1.29 0.28 0.21082-0.012599 0.40987-0.10146 0.56-0.25 0.1344-0.17814 0.2298-0.38257 0.28-0.6l0.03-0.01zm0.2-14.79c0-0.23 0-0.53-0.05-0.82-0.041951-0.37166-0.14678-0.73348-0.31-1.07-0.10985-0.25604-0.33094-0.44766-0.6-0.52-0.21375-0.050256-0.43625-0.050256-0.65 0-0.5139 0.095049-1.0056 0.28495-1.45 0.56-0.72364 0.43087-1.3948 0.94431-2 1.53-0.06 0-0.05 0.07 0 0.11 0.64561 0.68074 1.2468 1.4022 1.8 2.16 0.047128 0.064429 0.12035 0.1047 0.2 0.11l0.7 0.08c0.67281 0.096237 1.3403 0.2264 2 0.39 0.07 0 0.09 0 0.09-0.07l0.08-0.37c0.11713-0.68694 0.17069-1.3832 0.16-2.08l0.03-0.01zm-0.66 9.71c0.09 0 0.1 0 0.08-0.13-0.14-0.44-0.29-0.89-0.45-1.32l-0.16-0.42c-0.38428 0.76167-0.80819 1.5027-1.27 2.22 0.59-0.08 1.18-0.2 1.77-0.34l0.03-0.01zm0.07-6.08c0-0.09 0-0.12-0.08-0.13-0.49-0.11-1-0.21-1.48-0.29-0.099326-0.016414-0.20067-0.016414-0.3 0 0.45 0.7 0.87 1.41 1.26 2.17 0.19-0.6 0.39-1.16 0.57-1.74l0.03-0.01zm-1.18 3c0.036707-0.047017 0.036707-0.11298 0-0.16-0.14-0.31-0.3-0.63-0.47-0.93-0.4597-0.86953-0.9706-1.711-1.53-2.52-0.019625-0.038505-0.057103-0.06474-0.1-0.07-0.23 0-0.45 0-0.68-0.05h-1.74c-0.58 0-1.06 0-1.59 0.07-0.061164 0.005384-0.11647 0.038565-0.15 0.09-0.75729 1.095-1.4261 2.2487-2 3.45-0.030224 0.056194-0.030224 0.12381 0 0.18 0.19 0.38 0.39 0.77 0.6 1.15 0.4225 0.78303 0.88995 1.541 1.4 2.27 0.018603 0.054342 0.073105 0.087882 0.13 0.08h0.34c0.55 0 1.1 0 1.68 0.06s1.29 0 1.95-0.09c0.074813-0.003634 0.14264-0.045083 0.18-0.11 0.7407-1.0648 1.3929-2.1886 1.95-3.36l0.03-0.06zm-2.85 4.62h-2.54c0.41 0.51 0.81 1 1.25 1.44 0 0.05 0.07 0 0.09 0 0.36-0.38 0.7-0.77 1-1.18 0.062402-0.061571 0.11929-0.12849 0.17-0.2l0.03-0.06zm0-9.38v-0.06c-0.37333-0.46667-0.76333-0.91667-1.17-1.35 0-0.06-0.08-0.06-0.13 0-0.32 0.33-0.62 0.68-0.91 1-0.10648 0.12488-0.20661 0.25505-0.3 0.39 0.82086-0.020617 1.6422 0.006094 2.46 0.08l0.05-0.06zm-2 11.64s0.05-0.06 0-0.11c-0.64994-0.69293-1.2577-1.4242-1.82-2.19-0.023133-0.044542-0.069841-0.071788-0.12-0.07l-1.1-0.14c-0.57-0.1-1.13-0.2-1.69-0.34 0 0-0.07 0-0.08 0.06s-0.06 0.26-0.08 0.39c-0.12923 0.622-0.19954 1.2548-0.21 1.89v0.71c0.023209 0.40371 0.1075 0.80156 0.25 1.18 0.10781 0.33194 0.36805 0.59219 0.7 0.7 0.18503 0.034916 0.37497 0.034916 0.56 0 0.39952-0.060323 0.78739-0.18174 1.15-0.36 0.86073-0.43975 1.6552-0.99857 2.36-1.66l0.08-0.06zm0-13.78c0-0.05 0.05-0.08 0-0.12-0.53727-0.49957-1.1198-0.94816-1.74-1.34-0.57038-0.38685-1.2192-0.64295-1.9-0.75-0.4229-0.087876-0.85443 0.10571-1.07 0.48-0.07268 0.12242-0.12979 0.25343-0.17 0.39-0.16724 0.54366-0.24161 1.1116-0.22 1.68v0.74c0.053226 0.5343 0.13669 1.0651 0.25 1.59 0 0.07 0 0.08 0.1 0.06l0.64-0.14c0.7-0.15 1.4-0.26 2.1-0.34 0.063934 0.001314 0.12553-0.024049 0.17-0.07 0.53043-0.74594 1.1118-1.4543 1.74-2.12l0.1-0.06zm-2.64 3.4c-0.59 0.09-1.19 0.2-1.77 0.34-0.08 0-0.08 0-0.06 0.1 0.12 0.41 0.26 0.82 0.4 1.22l0.21 0.54c0.26-0.72 0.67-1.44 1.12-2.14l0.1-0.06zm-1.89 3.51c0.029046-0.045782 0.029046-0.10422 0-0.15l-0.28-0.66c-0.26606-0.65368-0.4964-1.3213-0.69-2 0-0.05 0-0.09-0.1-0.06-0.86455 0.26167-1.694 0.6277-2.47 1.09-0.40713 0.23434-0.77217 0.53516-1.08 0.89-0.21642 0.22716-0.3411 0.52638-0.35 0.84 0.0013221 0.14062 0.039232 0.27848 0.11 0.4 0.1859 0.33124 0.44186 0.61791 0.75 0.84 0.48993 0.38464 1.0278 0.70398 1.6 0.95 0.46667 0.20834 0.944 0.39192 1.43 0.55 0.06 0 0.1 0 0.12-0.06s0.07-0.25 0.11-0.38c0.15-0.69 0.43-1.45 0.75-2.19l0.1-0.06z" fill="#7EB5BD" fill-rule="nonzero"/>
<path d="m59.82 57.57c1.2386 6.6e-6 2.355 0.74664 2.828 1.8913 0.47304 1.1447 0.2094 2.4616-0.66783 3.336s-2.195 1.1337-3.3381 0.65691-1.8861-1.5956-1.882-2.8342c-4.4e-6 -0.81065 0.32271-1.5879 0.89686-2.1602 0.57415-0.57227 1.3525-0.89244 2.1631-0.88978z" fill="#6E7F89" fill-rule="nonzero"/>
<path d="m30.66 88.41h31.16c-1.5611 0.40351-3.1676 0.60516-4.78 0.6h-21.58c-1.619 0.0053269-3.2321-0.19631-4.8-0.6z" fill="#E6EDF2" fill-rule="nonzero"/>
<path d="m61.26 113.83c0.1644 0.19737 0.25928 0.44335 0.27 0.7-0.019897 0.27089-0.1289 0.52757-0.31 0.73-0.31814 0.37651-0.69663 0.69755-1.12 0.95-0.77279 0.45916-1.599 0.82187-2.46 1.08-0.07 0-0.1 0-0.12-0.06-0.23462-0.82226-0.5253-1.6275-0.87-2.41-0.11912-0.19311-0.11912-0.43689 0-0.63 0.34292-0.76844 0.63033-1.5605 0.86-2.37 0-0.06 0-0.11 0.11-0.07 0.89891 0.26806 1.7594 0.65123 2.56 1.14 0.41674 0.24147 0.78335 0.56056 1.08 0.94z" fill="#D4F4F2" fill-rule="nonzero"/>
<path d="m57.12 121c0.028974 0.57126-0.042095 1.1432-0.21 1.69-0.075534 0.22874-0.20205 0.43732-0.37 0.61-0.15013 0.14854-0.34918 0.2374-0.56 0.25-0.44595 0.008535-0.88772-0.087352-1.29-0.28-0.65504-0.29006-1.2701-0.66312-1.83-1.11-0.29-0.23-0.57-0.47-0.84-0.71-0.06-0.06 0-0.09 0-0.12 0.24-0.24 0.47-0.51 0.7-0.77 0.36-0.43 0.71-0.87 1-1.32 0.072706-0.095122 0.18104-0.15651 0.3-0.17 0.89546-0.097254 1.7839-0.25089 2.66-0.46 0.07 0 0.1 0 0.12 0.07 0.12644 0.58347 0.21331 1.1748 0.26 1.77 0.06 0.21 0.05 0.41 0.06 0.55z" fill="#D4F4F2" fill-rule="nonzero"/>
<path d="m57.06 107.09c0 0.29 0 0.59 0.05 0.82-0.0064189 0.69498-0.076715 1.3879-0.21 2.07l-0.08 0.37s0 0.09-0.09 0.07c-0.65967-0.1636-1.3272-0.29376-2-0.39l-0.73-0.03c-0.07965-0.005299-0.15287-0.045571-0.2-0.11-0.55316-0.75778-1.1544-1.4793-1.8-2.16 0 0-0.05-0.07 0-0.11 0.6052-0.58569 1.2764-1.0991 2-1.53 0.44439-0.27505 0.9361-0.46495 1.45-0.56 0.21375-0.050256 0.43625-0.050256 0.65 0 0.26906 0.072343 0.49015 0.26396 0.6 0.52 0.17737 0.32407 0.29906 0.67563 0.36 1.04z" fill="#D4F4F2" fill-rule="nonzero"/>
<path d="m56.53 117.49c0 0.09 0 0.12-0.08 0.13-0.59 0.14-1.18 0.26-1.8 0.35 0.46181-0.71732 0.88572-1.4583 1.27-2.22l0.16 0.42c0.16 0.43 0.31 0.88 0.45 1.32z" fill="#D4F4F2" fill-rule="nonzero"/>
<path d="m56.44 111.41c0.08 0 0.1 0 0.08 0.13-0.18 0.58-0.38 1.14-0.6 1.72-0.39-0.76-0.81-1.47-1.26-2.17 0.099326-0.016414 0.20067-0.016414 0.3 0 0.5 0.11 1.04 0.21 1.48 0.32z" fill="#D4F4F2" fill-rule="nonzero"/>
<path d="m55.34 114.43c0.036707 0.047017 0.036707 0.11298 0 0.16-0.56972 1.1972-1.2387 2.3445-2 3.43-0.037362 0.064917-0.10519 0.10637-0.18 0.11-0.66 0.06-1.31 0.08-1.95 0.09s-1.13 0-1.68-0.06h-0.34c-0.056895 0.007882-0.1114-0.025658-0.13-0.08-0.51005-0.72904-0.9775-1.487-1.4-2.27-0.21-0.38-0.41-0.77-0.6-1.15-0.030224-0.056194-0.030224-0.12381 0-0.18 0.57393-1.2013 1.2427-2.355 2-3.45 0.033534-0.051435 0.088836-0.084616 0.15-0.09 0.53 0 1.06-0.05 1.59-0.07s1.17 0 1.74 0c0.23 0 0.45 0.05 0.68 0.05 0.042897 0.00526 0.080375 0.031495 0.1 0.07 0.5594 0.80899 1.0703 1.6505 1.53 2.52 0.15 0.29 0.35 0.61 0.49 0.92zm-2 0.09c0.0040437-0.85927-0.51099-1.636-1.3041-1.9667-0.79309-0.3307-1.7074-0.14996-2.315 0.45764s-0.78834 1.5219-0.45764 2.315c0.3307 0.79309 1.1074 1.3081 1.9667 1.3041 1.1591-0.010923 2.0946-0.95082 2.1-2.11h0.01z" fill="#D4F4F2" fill-rule="nonzero"/>
<path d="m51.23 112.4c1.1695 0.005517 2.1137 0.9571 2.11 2.1266-0.0036734 1.1695-0.95377 2.1152-2.1233 2.1133s-2.1167-0.95044-2.1167-2.12c-6.3e-6 -0.564 0.22472-1.1047 0.62446-1.5026 0.39974-0.39787 0.94155-0.62005 1.5055-0.61739z" fill="#6E7F89" fill-rule="nonzero"/>
<path d="m50 119.21h2.54c-0.051829 0.085814-0.11213 0.16622-0.18 0.24-0.32 0.41-0.66 0.8-1 1.18 0 0-0.05 0.07-0.09 0-0.51-0.43-0.91-0.91-1.27-1.42z" fill="#D4F4F2" fill-rule="nonzero"/>
<path d="m52.45 109.77v0.06c-0.84259-0.049965-1.6874-0.049965-2.53 0 0.093392-0.13495 0.19352-0.26512 0.3-0.39 0.29-0.35 0.59-0.7 0.91-1 0.05-0.06 0.08-0.06 0.13 0 0.42667 0.42 0.82333 0.86333 1.19 1.33z" fill="#D4F4F2" fill-rule="nonzero"/>
<path d="m50.44 121.36c0.05 0.05 0 0.07 0 0.11-0.72473 0.69243-1.5467 1.2753-2.44 1.73-0.36261 0.17826-0.75048 0.29968-1.15 0.36-0.18503 0.034916-0.37497 0.034916-0.56 0-0.33195-0.10781-0.59219-0.36806-0.7-0.7-0.1425-0.37844-0.22679-0.77629-0.25-1.18v-0.71c0.010463-0.6352 0.080774-1.268 0.21-1.89 0-0.13 0.06-0.26 0.08-0.39s0-0.07 0.08-0.06c0.56 0.14 1.12 0.24 1.69 0.34l1.1 0.14c0.050159-0.001788 0.096867 0.025458 0.12 0.07 0.56262 0.76233 1.1704 1.4903 1.82 2.18z" fill="#D4F4F2" fill-rule="nonzero"/>
<path d="m50.42 107.57c0.05 0 0 0.07 0 0.12-0.65105 0.68296-1.2526 1.4115-1.8 2.18-0.044472 0.045951-0.10607 0.071314-0.17 0.07-0.7 0.08-1.4 0.19-2.1 0.34l-0.64 0.14c-0.06 0-0.08 0-0.1-0.06-0.11331-0.52485-0.19677-1.0557-0.25-1.59v-0.74c-0.021612-0.56838 0.052763-1.1363 0.22-1.68 0.040211-0.13657 0.09732-0.26758 0.17-0.39 0.21557-0.37429 0.6471-0.56788 1.07-0.48 0.68083 0.10705 1.3296 0.36315 1.9 0.75 0.60636 0.39387 1.1754 0.8424 1.7 1.34z" fill="#D4F4F2" fill-rule="nonzero"/>
<path d="m47.74 111.08c-0.45 0.7-0.86 1.42-1.26 2.19l-0.21-0.54c-0.14-0.4-0.28-0.81-0.4-1.22 0-0.06 0-0.09 0.06-0.1 0.62-0.13 1.22-0.24 1.81-0.33z" fill="#D4F4F2" fill-rule="nonzero"/>
<path d="m47.76 118c-0.10286 0.013991-0.20714 0.013991-0.31 0-0.49-0.07-1-0.18-1.47-0.29-0.06 0-0.08 0-0.06-0.09 0.17-0.58 0.37-1.15 0.59-1.72l1.25 2.1z" fill="#D4F4F2" fill-rule="nonzero"/>
<path d="m45.89 114.45c0.029046 0.045782 0.029046 0.10422 0 0.15-0.32 0.74-0.6 1.5-0.85 2.26 0 0.13-0.08 0.25-0.11 0.38s-0.06 0.08-0.12 0.06c-0.486-0.15808-0.96333-0.34166-1.43-0.55-0.57223-0.24602-1.1101-0.56536-1.6-0.95-0.3147-0.20724-0.5808-0.48016-0.78-0.8-0.070768-0.12152-0.10868-0.25938-0.11-0.4 0.0089027-0.31362 0.13358-0.61284 0.35-0.84 0.30783-0.35484 0.67287-0.65566 1.08-0.89 0.77601-0.4623 1.6055-0.82833 2.47-1.09 0.08 0 0.08 0 0.1 0.06 0.1936 0.67867 0.42394 1.3463 0.69 2l0.31 0.61z" fill="#D4F4F2" fill-rule="nonzero"/>
<path d="m34.52 100.59v27.89h-5.37c-2.6756-0.016427-4.8391-2.1843-4.85-4.86v-18.17c0.0054763-2.6779 2.1721-4.849 4.85-4.86h5.37z" fill="#C4D4DD" fill-rule="nonzero"/>
<path d="m23.58 57.8c1.69 0 3.06 1.37 3.06 3.06s-1.37 3.06-3.06 3.06-3.06-1.37-3.06-3.06 1.37-3.06 3.06-3.06z" fill="#6E7F89" fill-rule="nonzero"/>
<path d="m16.51 91.85c3.1842 3.9713 3.1163 9.6397-0.16191 13.534-3.2783 3.894-8.8522 4.927-13.308 2.4663 2.3115-6.8412 7.1229-12.556 13.47-16z" fill="#C4D4DD" fill-rule="nonzero"/>
<circle cx="15.29" cy="125.39" r="2.1" fill="#7EB5BD" fill-rule="nonzero"/>
<path d="m8.27 123.29c1.1598 0 2.1 0.9402 2.1 2.1s-0.9402 2.1-2.1 2.1-2.1-0.9402-2.1-2.1 0.9402-2.1 2.1-2.1z" fill="#7EB5BD" fill-rule="nonzero"/>
<path d="m16.13 69.68c-0.0024868 8.829 5.9776 16.538 14.53 18.73" stroke="#6E7F89" stroke-linecap="round" stroke-linejoin="round" stroke-width="2"/>
<path d="m76.37 65v-32-0.83c-0.47129-10.348-9.0116-18.487-19.37-18.46h-21.54c-5.1284-7e-7 -10.047 2.0379-13.672 5.6652s-5.6607 8.5465-5.6581 13.675v10.68" stroke="#6E7F89" stroke-linecap="round" stroke-linejoin="round" stroke-width="2"/>
<path d="m76 32.22h-2.08c-1.8324-0.013339-3.5942 0.70594-4.8937 1.9979s-2.029 3.0496-2.0263 4.8821v4.63h-50.87v29.09h-15.58s6.69-0.23 6.48-9.63v-31.59s-1.46-25.54 23.14-31.07c1.5323-0.34749 3.0988-0.52192 4.67-0.52h28.07c9.4244-0.085304 17.986 5.4752 21.74 14.12 0.13 0.32 0.26 0.64 0.38 1 1.1384 3.0726 1.7209 6.3233 1.72 9.6v43.27c0 3.8108-3.0892 6.9-6.9 6.9h-10s6.69-0.23 6.49-9.65" stroke="#6E7F89" stroke-linecap="round" stroke-linejoin="round" stroke-width="2"/>
<path d="m75.66 74.9c-1.8686 6.6524-7.1445 11.802-13.84 13.51" stroke="#6E7F89" stroke-linecap="round" stroke-linejoin="round" stroke-width="2"/>
<path d="m92.67 108c0.9512 2.8879 1.434 5.9095 1.43 8.95l2.43e-5 20.16h-92.53l7.52e-6 -20.18c-0.0022368-3.0599 0.49427-6.0998 1.47-9 3.8836-11.645 14.785-19.496 27.06-19.49h35.47c12.306-0.0041276 23.228 7.8795 27.1 19.56v0z" stroke="#6E7F89" stroke-linecap="round" stroke-linejoin="round" stroke-width="2"/>
<path d="m16.51 91.85c3.1842 3.9713 3.1163 9.6397-0.16191 13.534-3.2783 3.894-8.8522 4.927-13.308 2.4663" stroke="#6E7F89" stroke-linecap="round" stroke-linejoin="round" stroke-width="2"/>
<path d="m92.67 108c-4.4654 2.4197-10.018 1.353-13.269-2.5491-3.2509-3.9021-3.2975-9.5558-0.11127-13.511" stroke="#6E7F89" stroke-linecap="round" stroke-linejoin="round" stroke-width="2"/>
<path d="m34.52 100.59h32c2.6818 0.005501 4.8545 2.1782 4.86 4.86v18.17c-0.010959 2.6796-2.1804 4.849-4.86 4.86h-37.37c-2.6756-0.016427-4.8391-2.1843-4.85-4.86v-18.17c0.0054763-2.6779 2.1721-4.849 4.85-4.86h5.37z" stroke="#6E7F89" stroke-linecap="round" stroke-linejoin="round" stroke-width="2"/>
<polyline points="34.52 100.56 34.52 100.59 34.52 128.48" stroke="#6E7F89" stroke-linecap="round" stroke-linejoin="round" stroke-width="2"/>
<path d="m10.37 125.39c0 1.1598-0.9402 2.1-2.1 2.1s-2.1-0.9402-2.1-2.1 0.9402-2.1 2.1-2.1c0.55695 0 1.0911 0.22125 1.4849 0.61508 0.39383 0.39383 0.61508 0.92797 0.61508 1.4849z" stroke="#6E7F89" stroke-linecap="round" stroke-linejoin="round" stroke-width="2"/>
<circle cx="15.29" cy="125.39" r="2.1" stroke="#6E7F89" stroke-linecap="round" stroke-linejoin="round" stroke-width="2"/>
<path d="m86.22 97.12v-11.3" stroke="#6E7F89" stroke-linecap="round" stroke-linejoin="round" stroke-width="2"/>
<path d="m90.08 82c0 2.1318-1.7282 3.86-3.86 3.86s-3.86-1.7282-3.86-3.86 1.7282-3.86 3.86-3.86 3.86 1.7282 3.86 3.86v0z" stroke="#6E7F89" stroke-linecap="round" stroke-linejoin="round" stroke-width="2"/>
</g>
<path d="m343.77 172.71v25.63h-14.18c0.40487 9e-6 0.79301-0.16151 1.0784-0.44873 0.28534-0.28722 0.44431-0.67641 0.44165-1.0813v-3.07c1.8e-5 -0.84111-0.67891-1.5245-1.52-1.53h0.19c0.7014 0 1.27-0.5686 1.27-1.27v-1.71c0-0.7014-0.5686-1.27-1.27-1.27 0.05-0.6 0.2-1.84 0.33-2.43 0.3954-1.6144 1.2015-3.0991 2.34-4.31 2.6097-2.7342 3.2909-6.7822 1.72-10.22-1.62-3.85-4.71-5.72-9-6-0.56 0.08-1.25 0.13-1.92 0.28-2.339 0.57268-4.3899 1.9766-5.77 3.95-1.527 1.9903-2.1541 4.5275-1.73 7 0.30641 1.9502 1.2115 3.7569 2.59 5.17 1.2596 1.2801 2.0641 2.9383 2.29 4.72 0.068196 0.60425 0.10158 1.2119 0.1 1.82h0.27c-0.7014 0-1.27 0.5686-1.27 1.27v1.71c0 0.7014 0.5686 1.27 1.27 1.27h0.32c-0.84273 0.005455-1.5245 0.68727-1.53 1.53v3.07c0 0.845 0.685 1.53 1.53 1.53h-14.45v-25.61c0-10.19 8.2603-18.45 18.45-18.45s18.45 8.2603 18.45 18.45z" fill="#D5F4F2" fill-rule="nonzero"/>
<path d="m325.32 188h-4.57c0.001584-0.60808-0.031804-1.2158-0.1-1.82-0.22586-1.7817-1.0304-3.4399-2.29-4.72-1.3785-1.4131-2.2836-3.2198-2.59-5.17-0.42409-2.4725 0.20298-5.0097 1.73-7 1.3801-1.9734 3.431-3.3773 5.77-3.95 0.67-0.15 1.36-0.2 1.92-0.28 4.27 0.25 7.36 2.12 9 6 1.5652 3.4485 0.86763 7.5029-1.76 10.23-1.1385 1.2109-1.9446 2.6956-2.34 4.31-0.13 0.59-0.28 1.83-0.33 2.43l-4.44-0.03zm4-11.75c0-1.1046-0.89543-2-2-2s-2 0.89543-2 2 0.89543 2 2 2c0.53047-0.010503 1.035-0.23136 1.4026-0.61396s0.5681-0.89558 0.55738-1.426l0.04 0.04zm-4.11 0c0-1.1046-0.89543-2-2-2s-2 0.89543-2 2 0.89543 2 2 2c0.53581-0.010386 1.045-0.23538 1.4135-0.62452 0.36847-0.38915 0.56534-0.90989 0.54649-1.4455l0.04 0.07z" fill="#FDAE76" fill-rule="nonzero"/>
<path d="m331.11 193.74v3.07c0.002664 0.40486-0.1563 0.79405-0.44165 1.0813-0.28534 0.28722-0.67348 0.44874-1.0784 0.44873h-8.25c-0.845 0-1.53-0.685-1.53-1.53v-3.07c0.005455-0.84273 0.68727-1.5245 1.53-1.53h8.25c0.84109 0.005497 1.52 0.68889 1.52 1.53z" fill="#98BAC8" fill-rule="nonzero"/>
<path d="m331.05 189.23v1.71c0 0.7014-0.5686 1.27-1.27 1.27h-8.78c-0.7014 0-1.27-0.5686-1.27-1.27v-1.71c0.021609-0.68573 0.58393-1.2303 1.27-1.23h8.76c0.69382-0.011269 1.2682 0.53643 1.29 1.23z" fill="#98BAC8" fill-rule="nonzero"/>
<path d="m327.3 174.23c1.1046 0 2 0.89543 2 2s-0.89543 2-2 2-2-0.89543-2-2 0.89543-2 2-2z" fill="#FDAE76" fill-rule="nonzero"/>
<path d="m323.19 174.2c1.1046 0 2 0.89543 2 2s-0.89543 2-2 2-2-0.89543-2-2 0.89543-2 2-2z" fill="#FDAE76" fill-rule="nonzero"/>
<path d="m329.59 198.34h14.18v-25.63c0-10.19-8.2603-18.45-18.45-18.45s-18.45 8.2603-18.45 18.45v25.63h14.47" stroke="#6E7F89" stroke-linejoin="round" stroke-width="2"/>
<path d="m310.55 173.35h1.83" stroke="#6E7F89" stroke-linejoin="round" stroke-width="2"/>
<path d="m337.75 173.35h1.84" stroke="#6E7F89" stroke-linejoin="round" stroke-width="2"/>
<path d="m312.42 166.22l1.6 0.9" stroke="#6E7F89" stroke-linejoin="round" stroke-width="2"/>
<path d="m336.41 167.67l1.64-0.82" stroke="#6E7F89" stroke-linejoin="round" stroke-width="2"/>
<path d="m333.26 163.67l1.18-1.4" stroke="#6E7F89" stroke-linejoin="round" stroke-width="2"/>
<path d="m317.52 160.95l0.95 1.57" stroke="#6E7F89" stroke-linejoin="round" stroke-width="2"/>
<path d="m328.98 159.37l-0.5 1.77" stroke="#6E7F89" stroke-linejoin="round" stroke-width="2"/>
<path d="m323.44 158.93l0.2 1.82" stroke="#6E7F89" stroke-linejoin="round" stroke-width="2"/>
<path d="m321 188h-0.27c0.001584-0.60808-0.031804-1.2158-0.1-1.82-0.22586-1.7817-1.0304-3.4399-2.29-4.72-1.3785-1.4131-2.2836-3.2198-2.59-5.17-0.42409-2.4725 0.20298-5.0097 1.73-7 1.3801-1.9734 3.431-3.3773 5.77-3.95 0.67-0.15 1.36-0.2 1.92-0.28 4.27 0.25 7.36 2.12 9 6 1.5652 3.4485 0.86763 7.5029-1.76 10.23-1.1385 1.2109-1.9446 2.6956-2.34 4.31-0.13 0.59-0.28 1.83-0.33 2.43" stroke="#6E7F89" stroke-linejoin="round" stroke-width="2"/>
<path d="m321.34 192.21h-0.34c-0.7014 0-1.27-0.5686-1.27-1.27v-1.71c0.021609-0.68573 0.58393-1.2303 1.27-1.23h8.76c0.7014 0 1.27 0.5686 1.27 1.27v1.71c0 0.7014-0.5686 1.27-1.27 1.27h-0.19" stroke="#6E7F89" stroke-linejoin="round" stroke-width="2"/>
<path d="m321.34 198.34c-0.845 0-1.53-0.685-1.53-1.53v-3.07c0.005455-0.84273 0.68727-1.5245 1.53-1.53h8.25c0.84109 0.005497 1.52 0.68889 1.52 1.53v3.07c0.002664 0.40486-0.1563 0.79405-0.44165 1.0813-0.28534 0.28722-0.67348 0.44874-1.0784 0.44873" stroke="#6E7F89" stroke-linejoin="round" stroke-width="2"/>
<path d="m325.32 187.96v-10.79" stroke="#6E7F89" stroke-linejoin="round" stroke-width="2"/>
<path d="m336.12 180.99l1.59 0.89" stroke="#6E7F89" stroke-linejoin="round" stroke-width="2"/>
<path d="m312.08 181.25l1.64-0.82" stroke="#6E7F89" stroke-linejoin="round" stroke-width="2"/>
<path d="m325.17 176.18c0 1.1046-0.89543 2-2 2s-2-0.89543-2-2 0.89543-2 2-2 2 0.89543 2 2z" stroke="#6E7F89" stroke-linejoin="round" stroke-width="2"/>
<path d="m329.28 176.21c0 1.1046-0.89543 2-2 2s-2-0.89543-2-2 0.89543-2 2-2 2 0.89543 2 2z" stroke="#6E7F89" stroke-linejoin="round" stroke-width="2"/>
<path d="m320.41 198.34h10.7" stroke="#6E7F89" stroke-linejoin="round" stroke-width="2"/>
<g transform="translate(0 162)">
<circle cx="86.58" cy="86.11" r="85.72" fill="#D4F4F2" fill-rule="nonzero"/>
<path d="m122.73 82.15c2e-6 1.6673-0.66301 3.2662-1.8429 4.4442-1.1799 1.178-2.7798 1.8385-4.4471 1.8358h-66.76c-3.47 4.4e-6 -6.2845-2.81-6.29-6.28v-26.49c0.032962-11.921 9.6888-21.577 21.61-21.61h34.67c6.1159 0 11.981 2.4295 16.306 6.7541s6.7541 10.19 6.7541 16.306v25.04z" fill="#80B5BC" fill-rule="nonzero" stroke="#6E7F89" stroke-linejoin="round" stroke-width="2"/>
<path d="m76.81 122.19h17.26c5.2292 1e-6 10.244-2.078 13.941-5.7765 3.6966-3.6985 5.772-8.7144 5.7694-13.944v-37.35c0.002653-5.2291-2.0728-10.245-5.7694-13.944-3.6966-3.6985-8.7115-5.7765-13.941-5.7765h-22c-5.2292-7e-7 -10.244 2.078-13.941 5.7765-3.6966 3.6985-5.772 8.7144-5.7694 13.944v30.28c0 1.56 0 3.11 0.17 4.66l0.27 3.79c0.62025 9.844 8.466 17.69 18.31 18.31h1 17.26" fill="#F8E3D5" fill-rule="nonzero" stroke="#6E7F89" stroke-linejoin="round" stroke-width="2"/>
<circle cx="106.19" cy="92.94" r="3.12" fill="#6E7F89" fill-rule="nonzero"/>
<circle cx="69.23" cy="93.23" r="3.12" fill="#6E7F89" fill-rule="nonzero"/>
<path d="m72.72 45.4h21.28c10.92 0.0055209 19.77 8.8597 19.77 19.78v9.39l-34.33-2.8e-6c-4.0279 0.0018541-8.0027-0.91831-11.62-2.69-3.3069-1.6586-6.1361-4.1333-8.22-7.19l-5.43-7.82c0.94853-1.8477 2.1501-3.5542 3.57-5.07 3.888-4.1209 9.3146-6.4394 14.98-6.4z" fill="#80B5BC" fill-rule="nonzero" stroke="#6E7F89" stroke-linejoin="round" stroke-width="2"/>
<path d="m59.43 103.9l-0.28-3.79c-0.11-1.54-0.17-3.09-0.17-4.64v-30.2c0.055096-10.915 8.9452-19.72 19.86-19.67h-6.45c-5.2407-0.023924-10.276 2.035-13.999 5.7239-3.7226 3.6889-5.8273 8.7054-5.8511 13.946v30.2c0 1.55 0 3.1 0.17 4.64l0.27 3.79c0.66869 9.863 8.5709 17.688 18.44 18.26h1 6.45-1c-9.8691-0.57191-17.771-8.397-18.44-18.26z" fill="#000" fill-rule="nonzero" opacity=".07" style="mix-blend-mode:multiply"/>
<path d="m123.79 162.68v-14.4" fill="#E6EDF2" fill-rule="nonzero" stroke="#6E7F89" stroke-linecap="round" stroke-linejoin="round" stroke-width="2"/>
<path d="m123.79 140.69c1.5379-0.004047 2.9265 0.91922 3.5179 2.3389 0.59132 1.4196 0.26868 3.0557-0.81732 4.1446-1.086 1.0889-2.7212 1.4158-4.1424 0.82824s-2.3481-1.9738-2.3481-3.5117c-7e-6 -2.0948 1.6952-3.7945 3.79-3.8z" fill="#FE7C6F" fill-rule="nonzero"/>
<path d="m127.59 144.49c0 2.0987-1.7013 3.8-3.8 3.8s-3.8-1.7013-3.8-3.8 1.7013-3.8 3.8-3.8 3.8 1.7013 3.8 3.8v0z" stroke="#6E7F89" stroke-linecap="round" stroke-linejoin="round" stroke-width="2"/>
<path d="m36.03 102.98v5.93" stroke="#6E7F89" stroke-linecap="round" stroke-linejoin="round" stroke-width="2"/>
<path d="m33.06 105.94h5.93" stroke="#6E7F89" stroke-linecap="round" stroke-linejoin="round" stroke-width="2"/>
<path d="m53.51 125.58c3.1862 3.9113 3.1438 9.5348-0.10091 13.398-3.2447 3.8629-8.7764 4.8754-13.179 2.4123 2.264-6.7645 7.01-12.418 13.28-15.82v0.01z" fill="#C4D4DD" fill-rule="nonzero"/>
<path d="m128.51 141.47c-4.4007 2.3843-9.8726 1.331-13.074-2.5166-3.2011-3.8476-3.2414-9.4199-0.096278-13.313 6.2323 3.4232 10.938 9.0789 13.17 15.83z" fill="#C4D4DD" fill-rule="nonzero"/>
<path d="m38.79 150.28c-0.001599-3.0215 0.48466-6.0235 1.44-8.89 4.4027 2.4631 9.9344 1.4506 13.179-2.4123 3.2447-3.8629 3.2871-9.4863 0.10091-13.398 4.1094-2.2222 8.7083-3.3839 13.38-3.38h34.94c4.7222-0.007633 9.3696 1.1792 13.51 3.45-3.1451 3.8935-3.1048 9.4657 0.096278 13.313 3.2011 3.8476 8.673 4.9009 13.074 2.5166 0.94312 2.8414 1.4226 5.8162 1.42 8.81l1e-5 28.24h-91.14l3.9e-6 -28.25z" fill="#E6EDF2" fill-rule="nonzero"/>
<path d="m128.51 141.47c0.94312 2.8414 1.4226 5.8162 1.42 8.81l1e-5 28.24h-91.14l1.8e-6 -28.24c-0.0026559-7.4525 2.9573-14.6 8.228-19.869 5.2706-5.2688 12.42-8.2262 19.872-8.2209h34.94c12.125-0.012534 22.886 7.7641 26.68 19.28z" stroke="#6E7F89" stroke-linecap="round" stroke-linejoin="round" stroke-width="2"/>
<path d="m53.51 125.58c3.1862 3.9113 3.1438 9.5348-0.10091 13.398-3.2447 3.8629-8.7764 4.8754-13.179 2.4123" stroke="#6E7F89" stroke-linecap="round" stroke-linejoin="round" stroke-width="2"/>
<path d="m128.52 141.47v0c-4.4007 2.3843-9.8726 1.331-13.074-2.5166-3.2011-3.8476-3.2414-9.4199-0.096278-13.313" stroke="#6E7F89" stroke-linecap="round" stroke-linejoin="round" stroke-width="2"/>
<path d="m107.55 139v17.9c-0.010991 2.6393-2.1507 4.7745-4.79 4.78h-31.2v-27.49h31.2c1.273 0.002649 2.4929 0.5109 3.3912 1.413 0.8983 0.90205 1.4015 2.124 1.3988 3.397z" fill="#D4F4F2" fill-rule="nonzero"/>
<path d="m71.56 134.19v27.46h-5.56c-2.6376-0.005501-4.7745-2.1424-4.78-4.78v-17.87c0.0055008-2.6376 2.1424-4.7745 4.78-4.78l5.56-0.03z" fill="#C4D4DD" fill-rule="nonzero"/>
<path d="m71.56 134.19h31.2c2.6393 0.005476 4.779 2.1407 4.79 4.78v17.9c-0.010991 2.6393-2.1507 4.7745-4.79 4.78h-36.76c-2.6376-0.005501-4.7745-2.1424-4.78-4.78v-17.87c0.0055008-2.6376 2.1424-4.7745 4.78-4.78l5.56-0.03z" stroke="#6E7F89" stroke-linecap="round" stroke-linejoin="round" stroke-width="2"/>
<path d="m71.56 134.19v27.46" stroke="#6E7F89" stroke-linecap="round" stroke-linejoin="round" stroke-width="2"/>
<rect x="110.86" y="151.83" width="15" height="3.85" rx="1.92" fill="#E6EDF2" fill-rule="nonzero" stroke="#6E7F89" stroke-linecap="round" stroke-linejoin="round" stroke-width="2"/>
<path d="m38.8 151.83h6.78" fill="#E6EDF2" fill-rule="nonzero" stroke="#6E7F89" stroke-linecap="round" stroke-linejoin="round" stroke-width="2"/>
<path d="m39.42 157.83h7.43" fill="#E6EDF2" fill-rule="nonzero" stroke="#6E7F89" stroke-linecap="round" stroke-linejoin="round" stroke-width="2"/>
<path d="m94 149.67v4.11c-0.022096 0.1736-0.11653 0.32978-0.26 0.43-0.24053 0.20799-0.51896 0.36758-0.82 0.47-1.4041 0.47296-2.8509 0.80788-4.32 1-1.7 0.28-3.41 0.47-5.12 0.72-0.2809 0.033548-0.55853 0.090411-0.83 0.17v-0.17-3.89c0-0.15 0-0.21 0.19-0.23 0.63-0.13 1.27-0.21 1.91-0.3l2.18-0.3c0.032 0.013333 0.068 0.013333 0.1 0h0.33c0.74-0.12 1.48-0.23 2.22-0.36 1.0836-0.16885 2.1508-0.4298 3.19-0.78 0.36062-0.11014 0.6991-0.28276 1-0.51 0.11-0.14 0.14-0.29 0.23-0.36z" fill="#FE7C6F" fill-rule="nonzero"/>
<path d="m82.69 145.26v-4.12c0-0.16 0.11-0.16 0.2-0.17l1.42-0.23c2.34-0.32 4.7-0.59 7-1.12 0.61401-0.12587 1.2137-0.31349 1.79-0.56 0.37971-0.11296 0.70176-0.36702 0.9-0.71 0.07 0.08 0 0.16 0 0.23v3.67c0.010936 0.29603-0.13304 0.5764-0.38 0.74l-0.3 0.21c-0.22 0.09-0.45 0.19-0.67 0.26-1.3901 0.43613-2.8155 0.75065-4.26 0.94-0.72 0.12-1.44 0.22-2.15 0.31l-2.16 0.29c-0.46883 0.054117-0.9333 0.141-1.39 0.26z" fill="#FE7C6F" fill-rule="nonzero"/>
<path d="m94 144v4.11c-0.02277 0.18118-0.12551 0.34264-0.28 0.44-0.12 0.1-0.26 0.19-0.39 0.28-0.93792 0.39322-1.9176 0.67839-2.92 0.85-1 0.2-1.95 0.35-2.93 0.49l-2.61 0.37c-0.73 0.1-1.46 0.17-2.18 0.34v-3.82c0-0.44 0-0.45 0.44-0.52 1-0.14 2-0.27 3-0.42 0.29264-0.017684 0.5835-0.057802 0.87-0.12h0.24l2.49-0.4c1.0194-0.16022 2.0231-0.4078 3-0.74 0.39336-0.12118 0.75758-0.32201 1.07-0.59 0.11-0.07 0.12-0.2 0.2-0.27z" fill="#FE7C6F" fill-rule="nonzero"/>
<path d="m94 144c-0.12 0.05-0.13 0.18-0.21 0.25-0.31242 0.26799-0.67664 0.46882-1.07 0.59-0.97694 0.3322-1.9806 0.57978-3 0.74l-2.49 0.4h-0.23l-2.16-0.3c-0.66-0.09-1.32-0.16-2-0.3-0.08 0-0.22 0-0.21-0.15 0.47309-0.12134 0.95435-0.20823 1.44-0.26l2.16-0.29c0.71-0.09 1.43-0.19 2.15-0.31 1.4445-0.18935 2.8699-0.50387 4.26-0.94 0.22-0.07 0.45-0.17 0.67-0.26 0.26556 0.1128 0.48684 0.3095 0.63 0.56 0.039441 0.084551 0.059919 0.1767 0.06 0.27z" fill="#C13D36" fill-rule="nonzero"/>
<path d="m82.69 150.91c0.72-0.17 1.45-0.24 2.18-0.34l2.61-0.37c1-0.14 2-0.29 2.93-0.49 1.0024-0.17161 1.9821-0.45678 2.92-0.85 0.2568 0.12229 0.47229 0.31692 0.62 0.56 0.023919 0.085016 0.023919 0.17498 0 0.26-0.13 0.07-0.16 0.22-0.27 0.32-0.3009 0.22724-0.63938 0.39986-1 0.51-1.0392 0.3502-2.1064 0.61115-3.19 0.78-0.74 0.13-1.48 0.24-2.22 0.36h-0.33c-1.36-0.19-2.73-0.34-4.08-0.58 0.02-0.01-0.16 0.04-0.17-0.16z" fill="#C13D36" fill-rule="nonzero"/>
</g>
<path d="m90.56 191.12v1.71c0 0.7014-0.5686 1.27-1.27 1.27h-8.75c-0.7014 0-1.27-0.5686-1.27-1.27v-1.71c0.0087731-0.67102 0.53055-1.2232 1.2-1.27h8.82c0.33682 0 0.65985 0.1338 0.89803 0.37197 0.23817 0.23817 0.37197 0.5612 0.37197 0.89803z" fill="#98BAC8" fill-rule="nonzero"/>
<path d="m90.49 186.87v1.71c0.001026 0.67495-0.52608 1.2328-1.2 1.27h-8.82c-0.69749-0.005492-1.26-0.57248-1.26-1.27v-1.71c-2.16e-5 -0.69752 0.56251-1.2645 1.26-1.27h8.75c0.33682 0 0.65985 0.1338 0.89803 0.37197 0.23817 0.23817 0.37197 0.5612 0.37197 0.89803z" fill="#98BAC8" fill-rule="nonzero"/>
<circle cx="86.75" cy="173.86" r="1.97" fill="#FDAE76" fill-rule="nonzero"/>
<path d="m84.77 185.6h-4.56c0-0.6 0-1.21-0.1-1.81-0.23642-1.7785-1.0394-3.4335-2.29-4.72-1.3752-1.4102-2.2769-3.2137-2.58-5.16-0.43442-2.4713 0.18972-5.0114 1.72-7 1.3759-1.9756 3.4291-3.3776 5.77-3.94 0.63157-0.12532 1.269-0.21877 1.91-0.28 4.26 0.24 7.36 2.12 9 6 1.5577 3.4461 0.86072 7.4934-1.76 10.22-1.1322 1.2077-1.9376 2.6842-2.34 4.29-0.12 0.59-0.27 1.83-0.33 2.43l-4.44-0.03zm2-13.71c-1.1046 0-2 0.89543-2 2s0.89543 2 2 2 2-0.89543 2-2c2.67e-5 -0.53392-0.21343-1.0457-0.59284-1.4213-0.37941-0.37565-0.89327-0.58401-1.4272-0.57867h0.02zm-4.11 3.92c1.1046 0 2-0.89543 2-2s-0.89543-2-2-2-2 0.89543-2 2c-5.48e-5 1.0968 0.88325 1.989 1.98 2h0.02z" fill="#FDAE76" fill-rule="nonzero"/>
<circle cx="82.64" cy="173.84" r="1.97" fill="#FDAE76" fill-rule="nonzero"/>
<path d="m80.21 185.6h0.26c-0.69749 0.005492-1.26 0.57248-1.26 1.27v1.71c-2.16e-5 0.69752 0.56251 1.2645 1.26 1.27-0.66945 0.046762-1.1912 0.59898-1.2 1.27v1.71c0 0.7014 0.5686 1.27 1.27 1.27h8.75c0.7014 0 1.27-0.5686 1.27-1.27v-1.71c-0.7014 0.01933-1.2857-0.5336-1.305-1.235s0.5336-1.2857 1.235-1.305v-1.71c0-0.7014-0.5686-1.27-1.27-1.27 0.06-0.6 0.21-1.84 0.33-2.43 0.40236-1.6058 1.2078-3.0823 2.34-4.29 2.6207-2.7266 3.3177-6.7739 1.76-10.22-1.61-3.84-4.71-5.72-9-6-0.64096 0.061231-1.2784 0.15468-1.91 0.28-2.3409 0.56243-4.3941 1.9644-5.77 3.94-1.5303 1.9886-2.1544 4.5287-1.72 7 0.30305 1.9463 1.2048 3.7498 2.58 5.16 1.2506 1.2865 2.0536 2.9415 2.29 4.72 0.07 0.63 0.07 1.24 0.09 1.84zm23-15.22v25.62h-36.87v-25.62c-2e-7 -6.5844 3.5127-12.669 9.215-15.961 5.7023-3.2922 12.728-3.2922 18.43 0 5.7023 3.2922 9.215 9.3764 9.215 15.961h0.01z" fill="#D5F4F2" fill-rule="nonzero"/>
<path d="m103.2 196v-25.62c0-10.179-8.2514-18.43-18.43-18.43s-18.43 8.2514-18.43 18.43v25.62h36.86z" stroke="#6E7F89" stroke-linejoin="round" stroke-width="2"/>
<path d="m70.01 171.02h1.84" stroke="#6E7F89" stroke-linejoin="round" stroke-width="2"/>
<path d="m97.19 171.02h1.83" stroke="#6E7F89" stroke-linejoin="round" stroke-width="2"/>
<path d="m71.89 163.89l1.59 0.9" stroke="#6E7F89" stroke-linejoin="round" stroke-width="2"/>
<path d="m95.85 165.35l1.64-0.83" stroke="#6E7F89" stroke-linejoin="round" stroke-width="2"/>
<path d="m92.69 161.34l1.19-1.4" stroke="#6E7F89" stroke-linejoin="round" stroke-width="2"/>
<path d="m76.98 158.63l0.95 1.56" stroke="#6E7F89" stroke-linejoin="round" stroke-width="2"/>
<path d="m88.42 157.05l-0.49 1.76" stroke="#6E7F89" stroke-linejoin="round" stroke-width="2"/>
<path d="m82.89 156.61l0.2 1.82" stroke="#6E7F89" stroke-linejoin="round" stroke-width="2"/>
<path d="m80.47 185.6h-0.26c0-0.6 0-1.21-0.1-1.81-0.23642-1.7785-1.0394-3.4335-2.29-4.72-1.3752-1.4102-2.2769-3.2137-2.58-5.16-0.43442-2.4713 0.18972-5.0114 1.72-7 1.3759-1.9756 3.4291-3.3776 5.77-3.94 0.63157-0.12532 1.269-0.21877 1.91-0.28 4.26 0.24 7.36 2.12 9 6 1.5577 3.4461 0.86072 7.4934-1.76 10.22-1.1322 1.2077-1.9376 2.6842-2.34 4.29-0.12 0.59-0.27 1.83-0.33 2.43" stroke="#6E7F89" stroke-linejoin="round" stroke-width="2"/>
<path d="m80.47 189.85c-0.69749-0.005492-1.26-0.57248-1.26-1.27v-1.71c-2.16e-5 -0.69752 0.56251-1.2645 1.26-1.27h8.75c0.7014 0 1.27 0.5686 1.27 1.27v1.71c0.001026 0.67495-0.52608 1.2328-1.2 1.27" stroke="#6E7F89" stroke-linejoin="round" stroke-width="2"/>
<path d="m89.29 189.85c0.7014 0 1.27 0.5686 1.27 1.27v1.71c0 0.7014-0.5686 1.27-1.27 1.27h-8.75c-0.7014 0-1.27-0.5686-1.27-1.27v-1.71c0.0087731-0.67102 0.53055-1.2232 1.2-1.27h8.82z" stroke="#6E7F89" stroke-linejoin="round" stroke-width="2"/>
<path d="m84.77 185.6v-10.78" stroke="#6E7F89" stroke-linejoin="round" stroke-width="2"/>
<path d="m95.55 178.64l1.6 0.9" stroke="#6E7F89" stroke-linejoin="round" stroke-width="2"/>
<path d="m71.55 178.91l1.64-0.82" stroke="#6E7F89" stroke-linejoin="round" stroke-width="2"/>
<circle cx="82.64" cy="173.84" r="1.97" stroke="#6E7F89" stroke-linejoin="round" stroke-width="2"/>
<circle cx="86.75" cy="173.86" r="1.97" stroke="#6E7F89" stroke-linejoin="round" stroke-width="2"/>
<circle cx="255.04" cy="30.92" r="18.19" fill="#FF7C6E" fill-rule="nonzero"/>
<circle cx="255.04" cy="30.92" r="18.19" stroke="#6E7F89" stroke-linejoin="round" stroke-width="2"/>
<path d="m254.16 38c-0.82004-3.905e-4 -1.6042-0.33645-2.17-0.93l-6.82-7.18c-1.1432-1.204-1.094-3.1068 0.11-4.25s3.1068-1.094 4.25 0.11l4.65 4.9 18.28-19.11c1.153-1.1468 3.0097-1.1662 4.1864-0.043773 1.1767 1.1225 1.2448 2.978 0.15364 4.1838l-20.46 21.39c-0.56822 0.59607-1.3565 0.93235-2.18 0.93z" fill="#D6EEEE" fill-rule="nonzero" stroke="#6E7F89" stroke-linejoin="round" stroke-width="2"/>
<path d="m300.6 269l-0.28-3.79c-0.11-1.55-0.17-3.1-0.17-4.65v-30.22c0.0551-10.914 8.9358-19.723 19.85-19.69l-6.45 2.54e-4c-5.2477-0.026585-10.291 2.0333-14.019 5.7262-3.7285 3.6929-5.8367 8.7161-5.8605 13.964v30.24c0 1.55 0.06 3.1 0.17 4.65l0.28 3.79c0.67258 9.874 8.5802 17.709 18.46 18.29h1 6.42-1c-9.8635-0.61132-17.74-8.4496-18.4-18.31z" fill="#000" fill-rule="nonzero" opacity=".07" style="mix-blend-mode:multiply"/>
<g transform="translate(106 33)">
<circle cx="47.3" cy="165.05" r="4.66" fill="#E6EBF0" fill-rule="nonzero" stroke="#6E7F89" stroke-linecap="round" stroke-linejoin="round" stroke-width="2"/>
<circle cx="4.99" cy="5.04" r="4.66" fill="#E6EBF0" fill-rule="nonzero" stroke="#6E7F89" stroke-linecap="round" stroke-linejoin="round" stroke-width="2"/>
<rect x="289.76" y="202.76" width="23.94" height="7.98" rx="3.99" fill="#80B5BD" fill-rule="nonzero" stroke="#6E7F89" stroke-linecap="round" stroke-linejoin="round" stroke-width="2"/>
<path d="m99.43 165.64h3.57c4.07 0 7.38 4 7.38 8.92v12" stroke="#6E7F89" stroke-linecap="round" stroke-linejoin="round" stroke-width="2"/>
<path d="m110.33 182.85c2.0711 0 3.75 1.6789 3.75 3.75s-1.6789 3.75-3.75 3.75-3.75-1.6789-3.75-3.75 1.6789-3.75 3.75-3.75z" fill="#FF7C6E" fill-rule="nonzero"/>
<path d="m114.07 186.6c-5e-6 1.5176-0.91475 2.8857-2.3173 3.4655s-3.0162 0.25717-4.0879-0.8174c-1.0717-1.0746-1.3901-2.6891-0.80648-4.0901 0.58358-1.401 1.954-2.312 3.4717-2.308 0.99364-4e-6 1.9464 0.3954 2.6481 1.099 0.70167 0.70355 1.0945 1.6574 1.0919 2.651v0z" stroke="#6E7F89" stroke-linecap="round" stroke-linejoin="round" stroke-width="2"/>
<path d="m87 162.1c1.5185-0.004044 2.8896 0.90813 3.4726 2.3103s0.26279 3.0175-0.81098 4.0913c-1.0738 1.0738-2.6891 1.394-4.0913 0.81098-1.4022-0.58299-2.3144-1.9541-2.3103-3.4726 0-0.99191 0.39403-1.9432 1.0954-2.6446 0.70139-0.70139 1.6527-1.0954 2.6446-1.0954z" fill="#FF7C6E" fill-rule="nonzero"/>
<path d="m90.73 165.84c0.0040303 1.5195-0.90923 2.8912-2.3126 3.4736-1.4034 0.58239-3.0196 0.26035-4.0925-0.81551s-1.3907-2.6929-0.80455-4.0947c0.58615-1.4018 1.9603-2.3114 3.4797-2.3033 2.0594 0.010976 3.7245 1.6806 3.73 3.74z" stroke="#6E7F89" stroke-linecap="round" stroke-linejoin="round" stroke-width="2"/>
<path d="m87 183.08c1.5176-0.004047 2.8881 0.90704 3.4717 2.308 0.58358 1.401 0.26522 3.0155-0.80648 4.0901-1.0717 1.0746-2.6854 1.3972-4.0879 0.8174-1.4025-0.57984-2.3173-1.9479-2.3173-3.4655-7.3e-6 -2.0672 1.6728-3.7445 3.74-3.75z" fill="#FF7C6E" fill-rule="nonzero"/>
<path d="m90.73 186.83c0 2.0711-1.6789 3.75-3.75 3.75s-3.75-1.6789-3.75-3.75 1.6789-3.75 3.75-3.75 3.75 1.6789 3.75 3.75z" stroke="#6E7F89" stroke-linecap="round" stroke-linejoin="round" stroke-width="2"/>
<polygon points="101.61 165.64 101.61 169.71 98.7 167.67 95.78 165.64 98.7 163.6 101.61 161.57" fill="#FF7C6E" fill-rule="nonzero"/>
<polygon points="101.61 165.64 101.61 161.57 98.7 163.6 95.78 165.64 98.7 167.67 101.61 169.71" stroke="#6E7F89" stroke-linecap="round" stroke-linejoin="round" stroke-width="2"/>
<path d="m86.99 169.59v13.49" fill="#D6EEEE" fill-rule="nonzero" stroke="#6E7F89" stroke-linecap="round" stroke-linejoin="round" stroke-width="2"/>
</g>
</g>
</g>
</svg>
