<?xml version="1.0" encoding="UTF-8"?>
<svg version="1.1" viewBox="0 0 314 266" xmlns="http://www.w3.org/2000/svg">
<g fill="none" fill-rule="evenodd">
<g transform="translate(1 1)">
<rect x="155.85" y="116.74" width="30.9" height="38.28" fill="#C4D4DD" fill-rule="nonzero"/>
<path d="m10.83 83.29c1.3478-0.0040474 2.5651 0.80471 3.0836 2.0487 0.51857 1.244 0.23615 2.6779-0.71544 3.6324s-2.3847 1.2412-3.6302 0.72636c-1.2456-0.51483-2.058-1.7297-2.058-3.0775-8.28e-6 -1.8352 1.4848-3.3245 3.32-3.33z" fill="#D4F4F2" fill-rule="nonzero"/>
<path d="m175 11.19c2.2344-0.0040443 4.2509 1.3394 5.1079 3.403 0.85696 2.0636 0.38532 4.4403-1.1947 6.0203-1.58 1.58-3.9567 2.0516-6.0203 1.1947s-3.407-2.8734-3.403-5.1079c-0.002661-1.4622 0.577-2.8652 1.6109-3.8991 1.0339-1.0339 2.4369-1.6136 3.8991-1.6109z" fill="#FDFEFF" fill-rule="nonzero"/>
<circle cx="16.55" cy="16.15" r="5.51" fill="#FF7C6E" fill-rule="nonzero"/>
<path d="m146.76 44.27v62.48h-103.62v-62.48h103.62zm-10.46 52.78v-10.57h-39.51v10.57h39.51zm-45.41 0v-10.57h-39.5v10.57h39.5z" fill="#FDFEFF" fill-rule="nonzero"/>
<path d="m146.76 116.74v104.87h-103.62v-104.87h103.62zm-10.46 94.2v-10.56h-39.51v10.56h39.51zm0-61.12v-8.24h-82.05v8.24h82.05zm0-16.36v-8.23h-82.05v8.23h82.05zm-45.41 77.48v-10.56h-39.5v10.56h39.5z" fill="#FDFEFF" fill-rule="nonzero"/>
<path d="m197.32 33.77v199.37h-164v-199.37h164zm-10.57 121.23v-38.26h-30.9v38.26h30.9zm0-48.27v-62.46h-30.9v62.48l30.9-0.02zm-40 114.86v-104.85h-103.61v104.87l103.61-0.02zm0-114.86v-62.46h-103.61v62.48l103.61-0.02z" fill="#E6EDF2" fill-rule="nonzero"/>
<rect x="54.25" y="125.23" width="82.05" height="8.23" fill="#D4F4F2" fill-rule="nonzero"/>
<path d="m10.83 67.83c1.3487-0.004044 2.5666 0.8058 3.0846 2.051 0.51798 1.2452 0.23372 2.68-0.71994 3.6336s-2.3884 1.2379-3.6336 0.71994c-1.2452-0.51798-2.0551-1.7359-2.051-3.0846 0-1.8336 1.4864-3.32 3.32-3.32z" fill="#D4F4F2" fill-rule="nonzero"/>
<path d="m33.36 33.77v71.6h-33.19v-71.6h33.19zm-19.2 21.92c0-1.8391-1.4909-3.33-3.33-3.33-1.8391 0-3.33 1.4909-3.33 3.33s1.4909 3.33 3.33 3.33c1.8391 0 3.33-1.4909 3.33-3.33zm0 15.46c0-1.8391-1.4909-3.33-3.33-3.33-1.8391 0-3.33 1.4909-3.33 3.33s1.4909 3.33 3.33 3.33c0.88399 0.0026666 1.7325-0.34732 2.3576-0.97239 0.62508-0.62508 0.97506-1.4736 0.97239-2.3576zm0 15.47c0.0040474-1.3478-0.80471-2.5651-2.0487-3.0836-1.244-0.51857-2.6779-0.23615-3.6324 0.71544-0.95445 0.95158-1.2412 2.3847-0.72636 3.6302 0.51483 1.2456 1.7297 2.058 3.0775 2.058 1.8352 8.3e-6 3.3245-1.4848 3.33-3.32z" fill="#C4D4DD" fill-rule="nonzero"/>
<path d="m10.83 52.36c1.3478-0.0040474 2.5651 0.80471 3.0836 2.0487 0.51857 1.244 0.23615 2.6779-0.71544 3.6324s-2.3847 1.2412-3.6302 0.72636c-1.2456-0.51483-2.058-1.7297-2.058-3.0775-8.28e-6 -1.8352 1.4848-3.3245 3.32-3.33z" fill="#D4F4F2" fill-rule="nonzero"/>
<rect x="162.2" y="93.38" width="18.24" height="7.19" fill="#D4F4F2" fill-rule="nonzero"/>
<rect x="160.42" y="64.53" width="6.27" height="6.27" fill="#D4F4F2" fill-rule="nonzero"/>
<rect x="54.25" y="141.58" width="82.05" height="8.23" fill="#D4F4F2" fill-rule="nonzero"/>
<rect x="96.79" y="86.48" width="39.51" height="10.56" fill="#FF7C6E" fill-rule="nonzero"/>
<rect x="51.39" y="86.48" width="39.51" height="10.56" fill="#F4D4D0" fill-rule="nonzero"/>
<rect x=".17" y="105.37" width="33.19" height="127.76" fill="#C4D4DD" fill-rule="nonzero"/>
<path d="m186.75 44.27v62.48h-30.9v-62.48h30.9zm-6.31 56.3v-7.19h-18.24v7.19h18.24zm-13.76-29.77v-6.27h-6.26v6.27h6.26zm0.2-16.29c0-1.6569-1.3431-3-3-3s-3 1.3431-3 3 1.3431 3 3 3 3-1.3431 3-3z" fill="#C4D4DD" fill-rule="nonzero"/>
<rect x="51.39" y="200.38" width="39.51" height="10.56" fill="#F4D4D0" fill-rule="nonzero"/>
<rect x="96.79" y="200.38" width="39.51" height="10.56" fill="#FF7C6E" fill-rule="nonzero"/>
<path d="m179 20.49c1.7882-1.8995 1.996-4.7938 0.49747-6.9293-1.4985-2.1354-4.291-2.9244-6.6854-1.8888-2.3944 1.0356-3.7319 3.6108-3.2021 6.1651 0.52984 2.5544 2.7812 4.3851 5.39 4.3829 1.5154 0.0023106 2.9639-0.62415 4-1.73zm18.36-20.14v33.42h-197.19v-33.42h197.19zm-175.26 15.8c-0.0055205-3.0418-2.4749-5.5037-5.5167-5.5-3.0418 0.0036787-5.5052 2.4715-5.5033 5.5133s2.4682 5.5067 5.51 5.5067c3.0314-0.022002 5.4756-2.4886 5.47-5.52h0.04z" fill="#C4D4DD" fill-rule="nonzero"/>
<circle cx="163.85" cy="54.51" r="3.03" fill="#D4F4F2" fill-rule="nonzero"/>
<polygon points="197.32 33.77 197.32 233.14 33.36 233.14 0.17 233.14 0.17 105.37 0.17 33.77 0.17 0.35 197.32 0.35" stroke="#6E7F89" stroke-linecap="round" stroke-linejoin="round" stroke-width="2"/>
<polyline points="0.17 33.77 33.36 33.77 195.69 33.77" stroke="#6E7F89" stroke-linecap="round" stroke-linejoin="round" stroke-width="2"/>
<polyline points="33.36 33.77 33.36 105.37 33.36 233.14" stroke="#6E7F89" stroke-linecap="round" stroke-linejoin="round" stroke-width="2"/>
<path d="m33.36 105.37h-33.19" stroke="#6E7F89" stroke-linecap="round" stroke-linejoin="round" stroke-width="2"/>
<circle cx="16.55" cy="16.15" r="5.51" stroke="#6E7F89" stroke-linecap="round" stroke-linejoin="round" stroke-width="2"/>
<path d="m180.47 16.7c0 3.0431-2.4669 5.51-5.51 5.51s-5.51-2.4669-5.51-5.51 2.4669-5.51 5.51-5.51c1.4646-0.01075 2.8724 0.56631 3.908 1.602 1.0357 1.0357 1.6127 2.4434 1.602 3.908z" stroke="#6E7F89" stroke-linecap="round" stroke-linejoin="round" stroke-width="2"/>
<path d="m178.96 20.49l3.59 3.59" stroke="#6E7F89" stroke-linecap="round" stroke-linejoin="round" stroke-width="2"/>
<path d="m31.78 16.15h27.5" stroke="#6E7F89" stroke-linecap="round" stroke-linejoin="round" stroke-width="2"/>
<rect x="43.14" y="44.27" width="103.61" height="62.48" stroke="#6E7F89" stroke-linecap="round" stroke-linejoin="round" stroke-width="2"/>
<rect x="155.85" y="44.27" width="30.9" height="62.48" stroke="#6E7F89" stroke-linecap="round" stroke-linejoin="round" stroke-width="2"/>
<rect x="43.14" y="116.74" width="103.61" height="104.87" stroke="#6E7F89" stroke-linecap="round" stroke-linejoin="round" stroke-width="2"/>
<rect x="155.85" y="116.74" width="30.9" height="38.28" stroke="#6E7F89" stroke-linecap="round" stroke-linejoin="round" stroke-width="2"/>
<rect x="51.39" y="86.48" width="39.51" height="10.56" stroke="#6E7F89" stroke-linecap="round" stroke-linejoin="round" stroke-width="2"/>
<rect x="96.79" y="86.48" width="39.51" height="10.56" stroke="#6E7F89" stroke-linecap="round" stroke-linejoin="round" stroke-width="2"/>
<rect x="51.39" y="200.38" width="39.51" height="10.56" stroke="#6E7F89" stroke-linecap="round" stroke-linejoin="round" stroke-width="2"/>
<rect x="96.79" y="200.38" width="39.51" height="10.56" stroke="#6E7F89" stroke-linecap="round" stroke-linejoin="round" stroke-width="2"/>
<rect x="54.25" y="125.23" width="82.05" height="8.23" stroke="#6E7F89" stroke-linecap="round" stroke-linejoin="round" stroke-width="2"/>
<rect x="54.25" y="141.58" width="82.05" height="8.23" stroke="#6E7F89" stroke-linecap="round" stroke-linejoin="round" stroke-width="2"/>
<path d="m55.29 159.4h71.9" stroke="#6E7F89" stroke-linecap="round" stroke-linejoin="round" stroke-width="2"/>
<path d="m55.29 169.18h43.45" stroke="#6E7F89" stroke-linecap="round" stroke-linejoin="round" stroke-width="2"/>
<path d="m55.29 179.83h64.81" stroke="#6E7F89" stroke-linecap="round" stroke-linejoin="round" stroke-width="2"/>
<path d="m80.79 55.16h53.52" stroke="#6E7F89" stroke-linecap="round" stroke-linejoin="round" stroke-width="2"/>
<path d="m80.79 65.16h33.76" stroke="#6E7F89" stroke-linecap="round" stroke-linejoin="round" stroke-width="2"/>
<path d="m80.79 75.5h53.52" stroke="#6E7F89" stroke-linecap="round" stroke-linejoin="round" stroke-width="2"/>
<rect x="160.42" y="64.53" width="6.27" height="6.27" stroke="#6E7F89" stroke-linecap="round" stroke-linejoin="round" stroke-width="2"/>
<path d="m160.85 80.5v2.93" stroke="#6E7F89" stroke-linejoin="round" stroke-width="2"/>
<path d="m163.83 78.22v5.21" stroke="#6E7F89" stroke-linejoin="round" stroke-width="2"/>
<path d="m166.88 76.45v6.98" stroke="#6E7F89" stroke-linejoin="round" stroke-width="2"/>
<circle cx="163.85" cy="54.51" r="3.03" stroke="#6E7F89" stroke-linejoin="round" stroke-width="2"/>
<path d="m171.8 54.51h7.87" stroke="#6E7F89" stroke-linecap="round" stroke-linejoin="round" stroke-width="2"/>
<path d="m171.8 67.66h7.87" stroke="#6E7F89" stroke-linecap="round" stroke-linejoin="round" stroke-width="2"/>
<path d="m171.8 79.93h7.87" stroke="#6E7F89" stroke-linecap="round" stroke-linejoin="round" stroke-width="2"/>
<rect x="162.2" y="93.38" width="18.24" height="7.19" stroke="#6E7F89" stroke-linecap="round" stroke-linejoin="round" stroke-width="2"/>
<path d="m14.16 55.69c0 1.8391-1.4909 3.33-3.33 3.33-1.8391 0-3.33-1.4909-3.33-3.33s1.4909-3.33 3.33-3.33c1.8368 0.0054913 3.3245 1.4932 3.33 3.33v0z" stroke="#6E7F89" stroke-linecap="round" stroke-linejoin="round" stroke-width="2"/>
<path d="m14.16 71.15c0.0040474 1.3478-0.80471 2.5651-2.0487 3.0836-1.244 0.51857-2.6779 0.23615-3.6324-0.71544-0.95445-0.95158-1.2412-2.3847-0.72636-3.6302 0.51483-1.2456 1.7297-2.058 3.0775-2.058 1.8352-8.3e-6 3.3245 1.4848 3.33 3.32z" stroke="#6E7F89" stroke-linecap="round" stroke-linejoin="round" stroke-width="2"/>
<path d="m14.16 86.62c0 1.8391-1.4909 3.33-3.33 3.33-1.8391 0-3.33-1.4909-3.33-3.33s1.4909-3.33 3.33-3.33c0.88399-0.0026666 1.7325 0.34732 2.3576 0.97239 0.62508 0.62508 0.97506 1.4736 0.97239 2.3576v0z" stroke="#6E7F89" stroke-linecap="round" stroke-linejoin="round" stroke-width="2"/>
<path d="m18.25 55.16h6.08" stroke="#6E7F89" stroke-linecap="round" stroke-linejoin="round" stroke-width="2"/>
<path d="m18.25 71.15h6.08" stroke="#6E7F89" stroke-linecap="round" stroke-linejoin="round" stroke-width="2"/>
<path d="m18.25 86.98h6.08" stroke="#6E7F89" stroke-linecap="round" stroke-linejoin="round" stroke-width="2"/>
<path d="m163.83 129.34h13.85" stroke="#6E7F89" stroke-linecap="round" stroke-linejoin="round" stroke-width="2"/>
<path d="m163.83 137.31h13.85" stroke="#6E7F89" stroke-linecap="round" stroke-linejoin="round" stroke-width="2"/>
<path d="m163.83 145.28h8.18" stroke="#6E7F89" stroke-linecap="round" stroke-linejoin="round" stroke-width="2"/>
<g transform="translate(50 53)">
<circle cx="167.72" cy="115.04" r="93.34" fill="#D4F4F2" fill-rule="nonzero" stroke="#6E7F89" stroke-width="2"/>
<g transform="translate(116 61)">
<path d="m50.17 124.94c0.025282-0.053847 0.025282-0.11615 0-0.17-0.1-0.23-0.2-0.47-0.29-0.7-0.29688-0.71294-0.55722-1.4405-0.78-2.18 0-0.05 0-0.1-0.09-0.07-0.94691 0.28032-1.8542 0.68021-2.7 1.19-0.44198 0.26722-0.83721 0.60502-1.17 1-0.23671 0.24872-0.37219 0.57674-0.38 0.92 0.0010132 0.14699 0.038831 0.29138 0.11 0.42 0.20162 0.36376 0.48173 0.67804 0.82 0.92 0.53471 0.41201 1.1236 0.7485 1.75 1 0.50573 0.23528 1.0269 0.43575 1.56 0.6 0.07 0 0.1 0 0.12-0.07s0.08-0.27 0.13-0.4c0.25644-0.83792 0.56367-1.6594 0.92-2.46zm5.83 6.56c0.39-0.42 0.76-0.84 1.11-1.28 0.076074-0.082635 0.14312-0.17315 0.2-0.27-0.92266 0.05001-1.8473 0.05001-2.77 0 0.44 0.57 0.89 1.08 1.35 1.57 0.11 0.07 0.11 0.01 0.11-0.02zm0-13.29c0-0.07-0.08-0.07-0.14 0-0.34 0.35-0.66 0.73-1 1.12l-0.32 0.42c0.91568-0.060084 1.8343-0.060084 2.75 0 0.012504-0.021658 0.012504-0.048342 0-0.07-0.39-0.51-0.82-1-1.29-1.47zm5.06 8c-0.42 0.83-0.87 1.61-1.37 2.4 0.67-0.1 1.31-0.22 2-0.37 0.09 0 0.12-0.05 0.09-0.14-0.15-0.48-0.31-1-0.49-1.44-0.09-0.16-0.14-0.3-0.21-0.46l-0.02 0.01zm-1.06-2.47c-0.50612-0.94852-1.0671-1.8667-1.68-2.75-0.02058-0.04097-0.064412-0.064878-0.11-0.06l-0.73-0.05c-0.64 0-1.26-0.06-1.9 0s-1.16 0.05-1.73 0.09c-0.069271 0.004642-0.13229 0.04171-0.17 0.1-0.81445 1.1878-1.5334 2.4384-2.15 3.74-0.036148 0.058175-0.036148 0.13182 0 0.19 0.2 0.42 0.41 0.85 0.63 1.26 0.46729 0.85227 0.97796 1.68 1.53 2.48 0.028836 0.049951 0.082325 0.080516 0.14 0.08h0.37c0.61 0 1.21 0.05 1.84 0.06s1.4 0 2.11-0.1c0.089044 3.12e-4 0.17205-0.044966 0.22-0.12 0.79841-1.1872 1.5103-2.4305 2.13-3.72 0.034371-0.055078 0.034371-0.12492 0-0.18-0.21-0.34-0.37-0.68-0.5-1.02zm-7.73-2.63h-0.05c-0.64951 0.088563-1.2938 0.21208-1.93 0.37-0.07 0-0.08 0-0.06 0.1 0.14 0.45 0.29 0.9 0.45 1.34l0.22 0.58c0.39702-0.81966 0.83765-1.6175 1.32-2.39h0.05zm2.9 11.18c-0.71834-0.74844-1.3865-1.5435-2-2.38-0.038564-0.044075-0.091914-0.072528-0.15-0.08l-1.19-0.15c-0.62-0.09-1.23-0.22-1.84-0.36 0 0-0.08 0-0.09 0.05s-0.06 0.29-0.09 0.44c-0.13328 0.67894-0.2069 1.3682-0.22 2.06v0.76c0.020335 0.44367 0.11849 0.88031 0.29 1.29 0.10857 0.36199 0.38948 0.64664 0.75 0.76 0.19801 0.039866 0.40199 0.039866 0.6 0 0.43736-0.056928 0.86084-0.19244 1.25-0.4 0.96642-0.49548 1.8557-1.1288 2.64-1.88 0.04-0.03 0.04-0.05 0-0.11h0.05zm-2-12.5c0.61077-0.83867 1.279-1.6339 2-2.38v-0.13c-0.58035-0.54482-1.2135-1.0305-1.89-1.45-0.61934-0.42406-1.3273-0.7011-2.07-0.81-0.46126-0.12636-0.94743 0.091578-1.16 0.52-0.081171 0.13123-0.14503 0.2724-0.19 0.42-0.18368 0.58844-0.26486 1.2041-0.24 1.82-0.018736 0.26634-0.018736 0.53366 0 0.8 0.05757 0.58519 0.15108 1.1663 0.28 1.74 0 0.07 0 0.08 0.11 0.06l0.69-0.15c0.75992-0.15973 1.5276-0.27989 2.3-0.36 0.050614-0.012462 0.096066-0.040433 0.13-0.08h0.04zm-2.3 6.46c-0.23 0.62-0.45 1.24-0.63 1.88 0 0.06 0 0.09 0.05 0.1 0.54 0.12 1.07 0.23 1.61 0.31 0.1125 0.019408 0.2275 0.019408 0.34 0l-1.36-2.33-0.01 0.04zm11.13 3.06c-0.95086 0.2321-1.9164 0.39916-2.89 0.5-0.13044 0.01004-0.24875 0.080286-0.32 0.19-0.35533 0.49582-0.73583 0.97311-1.14 1.43-0.24 0.29-0.49 0.58-0.75 0.85-0.05 0-0.08 0.07 0 0.12 0.28946 0.27262 0.59322 0.52965 0.91 0.77 0.60838 0.49799 1.2811 0.91171 2 1.23 0.43522 0.2012 0.91063 0.30038 1.39 0.29 0.23249-0.003324 0.45468-0.096498 0.62-0.26 0.1809-0.19341 0.31441-0.42619 0.39-0.68 0.18848-0.59081 0.26976-1.2106 0.24-1.83v-0.6c-0.055182-0.6462-0.15543-1.2878-0.3-1.92-0.09-0.09-0.15-0.11-0.15-0.09zm-2.2-9.35c0.74 0.11 1.48 0.24 2.21 0.42 0.08 0 0.09 0 0.11-0.07s0.05-0.27 0.07-0.39c0.15122-0.74427 0.23489-1.5007 0.25-2.26 0-0.26 0-0.58-0.07-0.9-0.037843-0.40808-0.15324-0.80519-0.34-1.17-0.1191-0.27868-0.35815-0.48831-0.65-0.57-0.23116-0.045042-0.46884-0.045042-0.7 0-0.56206 0.10714-1.1005 0.31371-1.59 0.61-0.79826 0.47081-1.5427 1.0274-2.22 1.66-0.05 0.06 0 0.08 0 0.13 0.70617 0.73497 1.3579 1.5204 1.95 2.35 0.057343 0.067955 0.14111 0.10802 0.23 0.11l0.75 0.08zm0.29 1.19c-0.10973-0.010961-0.22027-0.010961-0.33 0 0.49718 0.76588 0.95445 1.5569 1.37 2.37 0.25-0.63 0.46-1.25 0.65-1.88 0-0.1 0-0.11-0.08-0.14-0.59-0.16-1.12-0.27-1.7-0.35h0.09zm17.82-6.15v19.78c-0.0055029 2.9193-2.3707 5.2845-5.29 5.29h-34.84v-30.39h34.84c2.9287 0.011026 5.2955 2.3913 5.29 5.32z" fill="#D4F4F2" fill-rule="nonzero"/>
<path d="m60.46 124.94c-0.61975 1.2895-1.3316 2.5328-2.13 3.72-0.047946 0.075034-0.13096 0.12031-0.22 0.12-0.71 0.07-1.42 0.08-2.11 0.1s-1.23 0-1.84-0.06h-0.37c-0.057675 5.16e-4 -0.11116-0.030049-0.14-0.08-0.55204-0.79998-1.0627-1.6277-1.53-2.48-0.22-0.41-0.43-0.84-0.63-1.26-0.036148-0.058175-0.036148-0.13182 0-0.19 0.61663-1.3016 1.3356-2.5522 2.15-3.74 0.037714-0.05829 0.10073-0.095358 0.17-0.1 0.57 0 1.16-0.07 1.73-0.09s1.26 0 1.9 0l0.73 0.05c0.045588-0.004878 0.08942 0.01903 0.11 0.06 0.61293 0.88326 1.1739 1.8015 1.68 2.75 0.18 0.34 0.34 0.68 0.5 1 0.043364 0.059615 0.043364 0.14038 0 0.2z" fill="#D4F4F2" fill-rule="nonzero"/>
<circle cx="94.07" cy="89.4" r="4.19" fill="#F37A6E" fill-rule="nonzero"/>
<path d="m37.78 109.68h-5.84c-2.9209 0.010997-5.2845 2.3791-5.29 5.3v19.78c0.0055029 2.9193 2.3707 5.2845 5.29 5.29h40.68c2.9193-0.005503 5.2845-2.3707 5.29-5.29v-19.76c-0.0054801-2.9209-2.3691-5.289-5.29-5.3l-34.84-0.02zm64.87 17.8v21.94h-100.74l2.858e-5 -21.94c-0.0045567-3.3451 0.53585-6.6686 1.6-9.84 1.7321 0.98069 3.6895 1.4942 5.68 1.49 4.4994 0.009486 8.5998-2.5794 10.526-6.6456s1.3317-8.879-1.5259-12.354c4.5478-2.458 9.6405-3.7337 14.81-3.71h0.59c1.7189 0.4389 3.486 0.66063 5.26 0.66h23.45c1.7806 6.244e-4 3.5543-0.22109 5.28-0.66h4c5.2164-0.0089647 10.35 1.3054 14.92 3.82-3.4525 4.3103-3.3943 10.455 0.13923 14.699s9.5662 5.4149 14.431 2.8006c1.0433 3.1415 1.5767 6.4298 1.58 9.74zm-83.52 9.21c0-1.2647-1.0253-2.29-2.29-2.29s-2.29 1.0253-2.29 2.29 1.0253 2.29 2.29 2.29c1.2625-0.005477 2.2845-1.0275 2.29-2.29zm-7.65 0c-0.011046-1.2634-1.0432-2.2791-2.3066-2.2699-1.2634 0.009187-2.2806 1.0398-2.2733 2.3032 0.0073279 1.2634 1.0365 2.2822 2.2999 2.2767 0.60909-0.002637 1.192-0.24782 1.6199-0.68132s0.66541-1.0196 0.66009-1.6287z" fill="#E6EDF2" fill-rule="nonzero"/>
<path d="m101.09 117.74c-4.8646 2.6143-10.897 1.4435-14.431-2.8006s-3.5918-10.389-0.13923-14.699c6.8963 3.7793 12.103 10.033 14.57 17.5z" fill="#C4D4DD" fill-rule="nonzero"/>
<path d="m94.65 27.05v47.14c0 4.1477-3.3623 7.51-7.51 7.51h-10.88s7.29-0.25 7.06-10.49v-0.24-34.84-0.9c-0.45632-11.265-9.726-20.159-21-20.15h-23.51c-11.606-3.27e-5 -21.022 9.3939-21.05 21v43.32h-17s7.3-0.25 7.06-10.5v-34.34s-1.58-27.81 25.2-33.84c1.6713-0.37104 3.378-0.55882 5.09-0.56h30.56c10.261-0.094437 19.582 5.9585 23.67 15.37 0.15 0.35 0.29 0.71 0.42 1.07 1.2411 3.3447 1.8809 6.8825 1.89 10.45z" fill="#7EB5BD" fill-rule="nonzero"/>
<path d="m83.35 36.13v34.87 0.24c0.23 10.24-7.06 10.49-7.06 10.49h6.32c-2.0305 7.2227-7.7404 12.826-15 14.72h-34c-9.3394-2.3882-15.867-10.81-15.85-20.45v-28.23h55.4v-5c-0.0026545-1.9856 0.78424-3.8907 2.1873-5.2956 1.4031-1.4049 3.3071-2.1944 5.2927-2.1944h2.68c0.02 0.26667 0.03 0.55 0.03 0.85zm-14.69 30c-8.3e-6 -1.8378-1.4889-3.3281-3.3267-3.33-1.8378-0.0018341-3.3296 1.4855-3.3333 3.3233-0.0036766 1.8378 1.4822 3.3311 3.32 3.3366 1.8314 0.0055738 3.3235-1.4687 3.34-3.3v-0.03zm-39.46 0.25c-6.1e-6 -1.3518-0.81486-2.5703-2.0642-3.0867s-2.6867-0.22878-3.6411 0.72852-1.2377 2.3955-0.7176 3.6433c0.52012 1.2477 1.7411 2.0589 3.0929 2.0549 1.8313 3.3e-5 3.319-1.4787 3.33-3.31v-0.03z" fill="#F9E3D4" fill-rule="nonzero"/>
<path d="m83.32 35.23h-2.68c-1.9856-1.8e-6 -3.8896 0.78944-5.2927 2.1944-1.4031 1.4049-2.19 3.3101-2.1873 5.2956v5h-55.4v-11.59c0.027568-11.606 9.4439-21 21.05-21h23.49c11.263-0.021074 20.537 8.8472 21.02 20.1z" fill="#7EB5BD" fill-rule="nonzero"/>
<path d="m65.32 62.83c1.3478-0.0040474 2.5651 0.80471 3.0836 2.0487 0.51857 1.244 0.23615 2.6779-0.71544 3.6324s-2.3847 1.2412-3.6302 0.72636c-1.2456-0.51483-2.058-1.7297-2.058-3.0775-8.3e-6 -1.8352 1.4848-3.3245 3.32-3.33z" fill="#6E7F89" fill-rule="nonzero"/>
<path d="m33.55 96.42h34c-1.7257 0.43891-3.4994 0.66062-5.28 0.66h-23.46c-1.774 6.323e-4 -3.5411-0.2211-5.26-0.66z" fill="#E6EDF2" fill-rule="nonzero"/>
<path d="m62.39 131.92c0.029762 0.61943-0.051518 1.2392-0.24 1.83-0.075591 0.25381-0.2091 0.48659-0.39 0.68-0.16532 0.1635-0.38751 0.25668-0.62 0.26-0.47937 0.010383-0.95478-0.088803-1.39-0.29-0.7189-0.31829-1.3916-0.73201-2-1.23-0.31678-0.24035-0.62054-0.49738-0.91-0.77-0.07 0 0-0.08 0-0.12 0.26-0.27 0.51-0.56 0.75-0.85 0.40417-0.45689 0.78467-0.93418 1.14-1.43 0.071255-0.10971 0.18956-0.17996 0.32-0.19 0.97357-0.10084 1.9391-0.2679 2.89-0.5 0.09 0 0.11 0 0.13 0.09 0.14457 0.63224 0.24482 1.2738 0.3 1.92 0.02 0.22 0.02 0.44 0.02 0.6z" fill="#D4F4F2" fill-rule="nonzero"/>
<path d="m62.32 116.76c0.05 0.32 0.05 0.64 0.07 0.9-0.015106 0.75932-0.098779 1.5157-0.25 2.26 0 0.12-0.05 0.26-0.07 0.39s0 0.09-0.11 0.07c-0.73-0.18-1.47-0.31-2.21-0.42l-0.75-0.09c-0.088894-0.001985-0.17266-0.042045-0.23-0.11-0.59211-0.82962-1.2438-1.615-1.95-2.35 0-0.05-0.05-0.07 0-0.13 0.67732-0.63255 1.4217-1.1892 2.22-1.66 0.4895-0.29629 1.0279-0.50286 1.59-0.61 0.23116-0.045042 0.46884-0.045042 0.7 0 0.29185 0.081689 0.5309 0.29132 0.65 0.57 0.18798 0.36788 0.30341 0.7685 0.34 1.18z" fill="#D4F4F2" fill-rule="nonzero"/>
<path d="m61.75 128.09c0 0.09 0 0.12-0.09 0.14-0.64 0.15-1.28 0.27-2 0.37 0.5-0.79 1-1.57 1.37-2.4 0.07 0.16 0.12 0.3 0.18 0.45 0.23 0.47 0.39 0.96 0.54 1.44z" fill="#D4F4F2" fill-rule="nonzero"/>
<path d="m61.65 121.46c0.08 0 0.11 0 0.08 0.14-0.19 0.63-0.4 1.25-0.65 1.88-0.41555-0.81307-0.87282-1.6041-1.37-2.37 0.10973-0.010961 0.22027-0.010961 0.33 0 0.54 0.12 1.07 0.23 1.61 0.35z" fill="#D4F4F2" fill-rule="nonzero"/>
<path d="m57.3 119.68c0.012504 0.021658 0.012504 0.048342 0 0.07-0.91568-0.060084-1.8343-0.060084-2.75 0l0.32-0.42c0.33-0.39 0.65-0.77 1-1.12 0.06-0.07 0.09-0.07 0.14 0 0.46 0.47 0.89 0.96 1.29 1.47z" fill="#D4F4F2" fill-rule="nonzero"/>
<path d="m57.35 130c-0.05688 0.096853-0.12393 0.18736-0.2 0.27-0.35 0.44-0.72 0.86-1.11 1.28 0 0 0 0.09-0.11 0-0.46-0.49-0.91-1-1.35-1.57 0.9223 0.056673 1.847 0.063349 2.77 0.02z" fill="#D4F4F2" fill-rule="nonzero"/>
<path d="m55.12 132.29v0.13c-0.78429 0.75124-1.6736 1.3845-2.64 1.88-0.38916 0.20756-0.81264 0.34307-1.25 0.4-0.19801 0.039866-0.40199 0.039866-0.6 0-0.36052-0.11336-0.64143-0.39801-0.75-0.76-0.17151-0.40969-0.26967-0.84633-0.29-1.29v-0.76c0.013104-0.69177 0.086718-1.3811 0.22-2.06 0-0.15 0.07-0.29 0.09-0.44s0-0.07 0.09-0.05c0.61 0.14 1.22 0.27 1.84 0.36l1.19 0.15c0.058086 0.007472 0.11144 0.035925 0.15 0.08 0.59815 0.82811 1.2495 1.6164 1.95 2.36z" fill="#D4F4F2" fill-rule="nonzero"/>
<path d="m55.09 117.28c0.05 0.06 0.05 0.07 0 0.13-0.72096 0.74608-1.3892 1.5413-2 2.38-0.04411 0.047756-0.10509 0.076451-0.17 0.08-0.77238 0.080106-1.5401 0.20027-2.3 0.36l-0.69 0.15c-0.07 0-0.1 0-0.11-0.06-0.12892-0.57371-0.22243-1.1548-0.28-1.74-0.018736-0.26634-0.018736-0.53366 0-0.8-0.024858-0.61594 0.056324-1.2316 0.24-1.82 0.044966-0.1476 0.10883-0.28877 0.19-0.42 0.21257-0.42842 0.69874-0.64636 1.16-0.52 0.74267 0.1089 1.4507 0.38594 2.07 0.81 0.67653 0.41945 1.3097 0.90518 1.89 1.45z" fill="#D4F4F2" fill-rule="nonzero"/>
<path d="m52.17 121.11h0.05c-0.49938 0.77141-0.95671 1.5692-1.37 2.39l-0.22-0.58c-0.16-0.44-0.31-0.89-0.45-1.34 0-0.07 0-0.09 0.06-0.1 0.63622-0.15792 1.2805-0.28144 1.93-0.37z" fill="#D4F4F2" fill-rule="nonzero"/>
<path d="m50.84 126.25l1.36 2.33c-0.1125 0.019408-0.2275 0.019408-0.34 0-0.54-0.08-1.07-0.19-1.61-0.31-0.06 0-0.08 0-0.05-0.1 0.18-0.64 0.4-1.26 0.63-1.88l0.01-0.04z" fill="#D4F4F2" fill-rule="nonzero"/>
<path d="m50.16 124.77c0.025282 0.053847 0.025282 0.11615 0 0.17-0.3601 0.80359-0.67069 1.6285-0.93 2.47-0.05 0.13-0.09 0.27-0.13 0.4s-0.05 0.09-0.12 0.07c-0.53305-0.16425-1.0543-0.36472-1.56-0.6-0.62643-0.2515-1.2153-0.58799-1.75-1-0.33827-0.24196-0.61838-0.55624-0.82-0.92-0.071169-0.12862-0.10899-0.27301-0.11-0.42 0.0078061-0.34326 0.14329-0.67128 0.38-0.92 0.33279-0.39498 0.72802-0.73278 1.17-1 0.84578-0.50979 1.7531-0.90968 2.7-1.19 0.08 0 0.09 0 0.09 0.07 0.22278 0.73945 0.48312 1.4671 0.78 2.18 0.14 0.22 0.2 0.46 0.3 0.69z" fill="#D4F4F2" fill-rule="nonzero"/>
<path d="m37.78 109.68v30.37h-5.84c-2.9193-0.005503-5.2845-2.3707-5.29-5.29v-19.76c0.0054801-2.9209 2.3691-5.289 5.29-5.3l5.84-0.02z" fill="#C4D4DD" fill-rule="nonzero"/>
<path d="m25.87 63.09c1.8391 0.0055311 3.3255 1.5009 3.32 3.34s-1.5009 3.3255-3.34 3.32c-1.8391-0.00552-3.3255-1.5009-3.32-3.34 0.0026482-0.88317 0.35603-1.7291 0.9824-2.3517 0.62637-0.62262 1.4744-0.97092 2.3576-0.96826z" fill="#6E7F89" fill-rule="nonzero"/>
<path d="m18.18 100.17c3.527 4.32 3.484 10.538-0.10237 14.808s-9.7028 5.3884-14.568 2.6616c2.4984-7.475 7.7417-13.723 14.67-17.48v0.01z" fill="#C4D4DD" fill-rule="nonzero"/>
<path d="m16.84 134.4c1.2647 0 2.29 1.0253 2.29 2.29s-1.0253 2.29-2.29 2.29-2.29-1.0253-2.29-2.29c0.0054771-1.2625 1.0275-2.2845 2.29-2.29z" fill="#7EB5BD" fill-rule="nonzero"/>
<path d="m9.2 134.4c1.2647 0 2.29 1.0253 2.29 2.29s-1.0253 2.29-2.29 2.29c-1.2647 0-2.29-1.0253-2.29-2.29 0-0.60735 0.24127-1.1898 0.67073-1.6193 0.42946-0.42946 1.0119-0.67072 1.6193-0.67072z" fill="#7EB5BD" fill-rule="nonzero"/>
<path d="m17.76 76c0.0035123 9.6002 6.4961 17.984 15.79 20.39" stroke="#6E7F89" stroke-linecap="round" stroke-linejoin="round" stroke-width="2"/>
<path d="m83.35 71v-34.87-0.9c-0.45632-11.265-9.726-20.159-21-20.15h-23.54c-11.606-3.27e-5 -21.022 9.3939-21.05 21v11.64" stroke="#6E7F89" stroke-linecap="round" stroke-linejoin="round" stroke-width="2"/>
<path d="m82.92 35.24h-2.28c-1.9856-1.8e-6 -3.8896 0.78944-5.2927 2.1944-1.4031 1.4049-2.19 3.3101-2.1873 5.2956v5h-55.4v31.68h-17s7.3-0.25 7.06-10.5v-34.35s-1.58-27.81 25.2-33.84c1.6713-0.37104 3.378-0.55882 5.09-0.56h30.56c10.261-0.094437 19.582 5.9585 23.67 15.37 0.15 0.35 0.29 0.71 0.42 1.07 1.2343 3.3459 1.8673 6.8837 1.87 10.45v47.14c0 4.1477-3.3623 7.51-7.51 7.51h-10.86s7.29-0.25 7.06-10.49" stroke="#6E7F89" stroke-linecap="round" stroke-linejoin="round" stroke-width="2"/>
<path d="m82.58 81.7c-2.0305 7.2227-7.7404 12.826-15 14.72" stroke="#6E7F89" stroke-linecap="round" stroke-linejoin="round" stroke-width="2"/>
<path d="m101.09 117.74c1.0365 3.1426 1.5632 6.4309 1.56 9.74l1.4e-5 21.94h-100.74l5.815e-5 -21.94c-0.015933-8.2321 3.2431-16.132 9.0584-21.959 5.8154-5.8266 13.709-9.1009 21.942-9.1009h38.69c13.4 0.0014329 25.288 8.5961 29.49 21.32v0z" stroke="#6E7F89" stroke-linecap="round" stroke-linejoin="round" stroke-width="2"/>
<path d="m18.18 100.17c3.527 4.32 3.484 10.538-0.10237 14.808s-9.7028 5.3884-14.568 2.6616v0" stroke="#6E7F89" stroke-linecap="round" stroke-linejoin="round" stroke-width="2"/>
<path d="m101.09 117.74c-4.8646 2.6143-10.897 1.4435-14.431-2.8006s-3.5918-10.389-0.13923-14.699" stroke="#6E7F89" stroke-linecap="round" stroke-linejoin="round" stroke-width="2"/>
<path d="m37.78 109.68h34.84c2.9209 0.010997 5.2845 2.3791 5.29 5.3v19.78c-0.0055029 2.9193-2.3707 5.2845-5.29 5.29h-40.68c-2.9193-0.005503-5.2845-2.3707-5.29-5.29v-19.76c0.0054801-2.9209 2.3691-5.289 5.29-5.3l5.84-0.02z" stroke="#6E7F89" stroke-linecap="round" stroke-linejoin="round" stroke-width="2"/>
<polyline points="37.78 109.65 37.78 109.68 37.78 140.05" stroke="#6E7F89" stroke-linecap="round" stroke-linejoin="round" stroke-width="2"/>
<path d="m11.48 136.69c-8.8e-6 0.92713-0.55904 1.7628-1.416 2.1166-0.85694 0.35386-1.8427 0.15609-2.4968-0.50092-0.65414-0.65701-0.84759-1.6436-0.48999-2.499 0.3576-0.85539 1.1957-1.4108 2.1228-1.4067 1.2608 0.005506 2.28 1.0292 2.28 2.29v0z" stroke="#6E7F89" stroke-linecap="round" stroke-linejoin="round" stroke-width="2"/>
<path d="m19.13 136.69c0 1.2647-1.0253 2.29-2.29 2.29s-2.29-1.0253-2.29-2.29 1.0253-2.29 2.29-2.29c1.2625 0.005477 2.2845 1.0275 2.29 2.29z" stroke="#6E7F89" stroke-linecap="round" stroke-linejoin="round" stroke-width="2"/>
<path d="m94.07 105.91v-12.31" stroke="#6E7F89" stroke-linecap="round" stroke-linejoin="round" stroke-width="2"/>
<circle cx="94.07" cy="89.4" r="4.19" stroke="#6E7F89" stroke-linecap="round" stroke-linejoin="round" stroke-width="2"/>
</g>
<path d="m187.81 33.62v27.9h-15.44c0.91679 0 1.66-0.74321 1.66-1.66v-3.35c-0.00546-0.91452-0.74548-1.6545-1.66-1.66h0.2c0.36773 0.0026648 0.72131-0.14155 0.98228-0.40064s0.40773-0.61162 0.40772-0.97936v-1.87c1e-5 -0.36774-0.14676-0.72027-0.40772-0.97936s-0.61455-0.4033-0.98228-0.40064c0.06-0.66 0.22-2 0.36-2.65 0.43392-1.7539 1.3082-3.3682 2.54-4.69 2.8744-2.9589 3.6369-7.3791 1.92-11.13-1.76-4.2-5.13-6.24-9.78-6.51-0.6 0.09-1.36 0.14-2.08 0.31-2.5491 0.62243-4.7847 2.1508-6.29 4.3-1.6642 2.1656-2.3459 4.9289-1.88 7.62 0.3293 2.1221 1.3155 4.0876 2.82 5.62 1.3716 1.3988 2.2494 3.207 2.5 5.15 0.08 0.66 0.08 1.32 0.11 2h0.21c-0.36773-0.0026648-0.72131 0.14155-0.98228 0.40064s-0.40773 0.61162-0.40772 0.97936v1.87c-1e-5 0.36774 0.14676 0.72027 0.40772 0.97936s0.61455 0.4033 0.98228 0.40064h0.34c-0.91452 0.00546-1.6545 0.74548-1.66 1.66v3.35c0 0.91679 0.74321 1.66 1.66 1.66h-15.71v-27.9c0-11.095 8.9946-20.09 20.09-20.09s20.09 8.9946 20.09 20.09v-0.02z" fill="#D5F4F2" fill-rule="nonzero"/>
<path d="m167.72 50.22h-5c0-0.66 0-1.32-0.11-2-0.2506-1.943-1.1284-3.7512-2.5-5.15-1.5045-1.5324-2.4907-3.4979-2.82-5.62-0.46595-2.6911 0.21581-5.4544 1.88-7.62 1.5053-2.1492 3.7409-3.6776 6.29-4.3 0.72-0.17 1.48-0.22 2.08-0.31 4.65 0.27 8 2.31 9.78 6.51 1.7169 3.7509 0.95439 8.1711-1.92 11.13-1.2318 1.3218-2.1061 2.9361-2.54 4.69-0.14 0.64-0.3 2-0.36 2.65l-4.78 0.02zm4.31-12.8c0-1.1874-0.96259-2.15-2.15-2.15s-2.15 0.96259-2.15 2.15 0.96259 2.15 2.15 2.15c1.1734-0.021722 2.1148-0.97641 2.12-2.15h0.03zm-4.48 0c0-1.1874-0.96259-2.15-2.15-2.15s-2.15 0.96259-2.15 2.15 0.96259 2.15 2.15 2.15c0.57545 5.6e-5 1.1269-0.23057 1.531-0.64029 0.40408-0.40972 0.62704-0.96431 0.61902-1.5397v0.03z" fill="#FDAE76" fill-rule="nonzero"/>
<path d="m174 56.51v3.35c0 0.91679-0.74321 1.66-1.66 1.66h-9c-0.44026 0-0.86249-0.17489-1.1738-0.4862-0.31131-0.31131-0.4862-0.73354-0.4862-1.1738v-3.35c0.00546-0.91452 0.74548-1.6545 1.66-1.66h9c0.91452 0.00546 1.6545 0.74548 1.66 1.66z" fill="#98BAC8" fill-rule="nonzero"/>
<path d="m174 51.6v1.87c1e-5 0.36774-0.14676 0.72027-0.40772 0.97936s-0.61455 0.4033-0.98228 0.40064h-9.61c-0.36773 0.0026648-0.72131-0.14155-0.98228-0.40064s-0.40773-0.61162-0.40772-0.97936v-1.87c-1e-5 -0.36774 0.14676-0.72027 0.40772-0.97936s0.61455-0.4033 0.98228-0.40064h9.53c0.38133-0.024923 0.75592 0.10939 1.0345 0.37094 0.27861 0.26155 0.43629 0.62692 0.43548 1.0091z" fill="#98BAC8" fill-rule="nonzero"/>
<path d="m169.88 35.26c0.87454-0.0040488 1.6652 0.51964 2.0027 1.3265s0.15516 1.7375-0.4618 2.3573c-0.61696 0.61983-1.5468 0.80647-2.3552 0.47274-0.80836-0.33373-1.3357-1.122-1.3357-1.9965-1.3e-5 -1.189 0.96097-2.1545 2.15-2.16z" fill="#FDAE76" fill-rule="nonzero"/>
<path d="m165.4 35.24c1.1874 0 2.15 0.96259 2.15 2.15s-0.96259 2.15-2.15 2.15-2.15-0.96259-2.15-2.15c0-0.57022 0.22652-1.1171 0.62972-1.5203 0.4032-0.4032 0.95006-0.62972 1.5203-0.62972z" fill="#FDAE76" fill-rule="nonzero"/>
<path d="m172.37 61.52h15.44v-27.9c0-11.095-8.9946-20.09-20.09-20.09s-20.09 8.9946-20.09 20.09v27.9h15.75" stroke="#6E7F89" stroke-linejoin="round" stroke-width="2"/>
<path d="m151.63 34.31h2" stroke="#6E7F89" stroke-linejoin="round" stroke-width="2"/>
<path d="m181.26 34.31h1.99" stroke="#6E7F89" stroke-linejoin="round" stroke-width="2"/>
<path d="m153.68 26.55l1.73 0.98" stroke="#6E7F89" stroke-linejoin="round" stroke-width="2"/>
<path d="m179.8 28.13l1.78-0.89" stroke="#6E7F89" stroke-linejoin="round" stroke-width="2"/>
<path d="m176.35 23.77l1.3-1.53" stroke="#6E7F89" stroke-linejoin="round" stroke-width="2"/>
<path d="m159.22 20.81l1.04 1.7" stroke="#6E7F89" stroke-linejoin="round" stroke-width="2"/>
<path d="m171.7 19.09l-0.54 1.92" stroke="#6E7F89" stroke-linejoin="round" stroke-width="2"/>
<path d="m165.66 18.61l0.23 1.98" stroke="#6E7F89" stroke-linejoin="round" stroke-width="2"/>
<path d="m163 50.22h-0.29c0-0.66 0-1.32-0.11-2-0.2506-1.943-1.1284-3.7512-2.5-5.15-1.5045-1.5324-2.4907-3.4979-2.82-5.62-0.46595-2.6911 0.21581-5.4544 1.88-7.62 1.5053-2.1492 3.7409-3.6776 6.29-4.3 0.72-0.17 1.48-0.22 2.08-0.31 4.65 0.27 8 2.31 9.78 6.51 1.7169 3.7509 0.95439 8.1711-1.92 11.13-1.2318 1.3218-2.1061 2.9361-2.54 4.69-0.14 0.64-0.3 2-0.36 2.65" stroke="#6E7F89" stroke-linejoin="round" stroke-width="2"/>
<path d="m163.38 54.85h-0.38c-0.36773 0.0026648-0.72131-0.14155-0.98228-0.40064s-0.40773-0.61162-0.40772-0.97936v-1.87c-1e-5 -0.36774 0.14676-0.72027 0.40772-0.97936s0.61455-0.4033 0.98228-0.40064h9.53c0.38133-0.024923 0.75592 0.10939 1.0345 0.37094 0.27861 0.26155 0.43629 0.62692 0.43548 1.0091v1.87c1e-5 0.36774-0.14676 0.72027-0.40772 0.97936s-0.61455 0.4033-0.98228 0.40064h-0.2" stroke="#6E7F89" stroke-linejoin="round" stroke-width="2"/>
<path d="m163.38 61.52c-0.44026 0-0.86249-0.17489-1.1738-0.4862-0.31131-0.31131-0.4862-0.73354-0.4862-1.1738v-3.35c0.00546-0.91452 0.74548-1.6545 1.66-1.66h9c0.91452 0.00546 1.6545 0.74548 1.66 1.66v3.35c0 0.91679-0.74321 1.66-1.66 1.66" stroke="#6E7F89" stroke-linejoin="round" stroke-width="2"/>
<path d="m167.72 50.22v-11.75" stroke="#6E7F89" stroke-linejoin="round" stroke-width="2"/>
<path d="m179.47 42.63l1.74 0.97" stroke="#6E7F89" stroke-linejoin="round" stroke-width="2"/>
<path d="m153.31 42.91l1.78-0.89" stroke="#6E7F89" stroke-linejoin="round" stroke-width="2"/>
<path d="m167.55 37.39c0 1.1874-0.96259 2.15-2.15 2.15s-2.15-0.96259-2.15-2.15 0.96259-2.15 2.15-2.15 2.15 0.96259 2.15 2.15z" stroke="#6E7F89" stroke-linejoin="round" stroke-width="2"/>
<path d="m172 37.42c-0.005517 1.1861-0.97053 2.1437-2.1566 2.14s-2.1452-0.9672-2.1433-2.1533c0.00183-1.1861 0.96387-2.1467 2.15-2.1467 0.57195-6.2e-6 1.1203 0.22788 1.5238 0.63325s0.62883 0.9548 0.62617 1.5267z" stroke="#6E7F89" stroke-linejoin="round" stroke-width="2"/>
<path d="m162.37 61.52h11.65" stroke="#6E7F89" stroke-linejoin="round" stroke-width="2"/>
<path d="m140.36 138.1l-0.27-4c-0.12-1.63-0.17-3.27-0.17-4.91v-32c0-11.5 8.9-20.83 19.88-20.83h-6.46c-11 0-19.88 9.33-19.88 20.83v32c0 1.64 0.06 3.28 0.17 4.91l0.28 4c0.71 10.35 8.56 18.84 18.46 19.34h1 6.46-1c-9.91-0.5-17.75-8.99-18.47-19.34z" fill="#000" fill-rule="nonzero" opacity=".07" style="mix-blend-mode:multiply"/>
<rect x=".4" y=".41" width="25.96" height="25.96" rx="2.73" fill="#3D5A97" fill-rule="nonzero"/>
<path d="m12.48 18.15h-2.7c-0.12116 0.0031168-0.23802-0.045045-0.32179-0.13263-0.083778-0.087587-0.1267-0.20646-0.11821-0.32737v-3.35c0-0.31 0.17-0.47 0.51-0.47h2.63v-2.45c-0.012093-0.83563 0.16571-1.6631 0.52-2.42 0.61315-1.345 1.8673-2.2866 3.33-2.5 0.40302-0.068442 0.81121-0.1019 1.22-0.1h2.49c0.41 0 0.55 0.14 0.55 0.54v3c0 0.35-0.15 0.51-0.5 0.51h-1.7c-0.24517 0.0057522-0.4894 0.032517-0.73 0.08-0.39265 0.0628-0.69755 0.37583-0.75 0.77-0.0049028 0.089933-0.0049028 0.18007 0 0.27v2.33h3c0.43 0 0.57 0.14 0.57 0.57v3.18c0 0.38-0.15 0.53-0.54 0.53h-3.06v8.53c0 0.39-0.14 0.53-0.52 0.53h-3.36c-0.34 0-0.49-0.15-0.49-0.5v-8.56l-0.03-0.03z" fill="#fff" fill-rule="nonzero"/>
<rect x="1.39" y="44.84" width="39.85" height="3.71" fill="#000" fill-rule="nonzero" opacity=".07" style="mix-blend-mode:multiply"/>
<rect x="46.51" y="45.06" width="39.85" height="3.71" fill="#000" fill-rule="nonzero" opacity=".07" style="mix-blend-mode:multiply"/>
<polygon points="78.21 85.15 4.37 85.15 4.37 81.44 79.47 81.44" fill="#000" fill-rule="nonzero" opacity=".07" style="mix-blend-mode:multiply"/>
<polygon points="74.37 101.49 4.37 101.49 4.37 97.79 75 97.79" fill="#000" fill-rule="nonzero" opacity=".07" style="mix-blend-mode:multiply"/>
<path d="m74.37 115c0.0031882-49.611 38.811-90.553 88.35-93.21-1.66-0.09-3.33-0.14-5-0.14-33.579-0.34756-64.757 17.367-81.648 46.391-16.891 29.024-16.891 64.883 0 93.907 16.891 29.024 48.069 46.739 81.648 46.391 1.67 0 3.34 0 5-0.13-49.539-2.6572-88.347-43.599-88.35-93.21z" fill="#000" fill-rule="nonzero" opacity=".07" style="mix-blend-mode:multiply"/>
<path d="m179.17 192.58c0.16 0.52 0.33 1 0.5 1.55 0.10137 0.17636 0.12101 0.38809 0.053815 0.58008-0.067199 0.192-0.21459 0.34526-0.40382 0.41992l-2.26 1.31c-0.305 0.20702-0.71769 0.1462-0.95-0.14-0.4-0.43-0.79-0.87-1.18-1.3-0.38151-0.39-0.92542-0.57588-1.4658-0.50094s-1.0132 0.40183-1.2742 0.88094c-0.27 0.52-0.53 1.05-0.79 1.58-0.058252 0.17642-0.18714 0.32072-0.35588 0.39846s-0.36218 0.081914-0.53412 0.011542l-2.59-0.68c-0.34578-0.079404-0.57499-0.40808-0.53-0.76 0-0.53 0.06-1.07 0.15-1.6 0.086719-0.87488-0.47828-1.682-1.33-1.9-0.27359-0.084712-0.56641-0.084712-0.84 0l-1.63 0.54c-0.40593 0.17376-0.87589-0.014218-1.05-0.42-0.41-0.73-0.82-1.46-1.22-2.19-0.13188-0.14606-0.19049-0.34399-0.1594-0.5383s0.14854-0.36408 0.3194-0.4617c0.41-0.37 0.82-0.76 1.24-1.12 0.40607-0.38258 0.60135-0.93835 0.52384-1.4908-0.077509-0.5525-0.41818-1.0331-0.91384-1.2892-0.52-0.25-1-0.52-1.55-0.78-0.36147-0.13561-0.5449-0.53827-0.41-0.9 0.22-0.85 0.45-1.69 0.67-2.54 0.071171-0.38903 0.43919-0.65063 0.83-0.59 0.52 0 1 0.08 1.56 0.15 0.58457 0.061672 1.1608-0.17597 1.5319-0.63182 0.37113-0.45584 0.48702-1.0683 0.3081-1.6282-0.22-0.52-0.37-1.08-0.54-1.62-0.1529-0.32628-0.020366-0.71506 0.3-0.88 0.79-0.46 1.57-0.92 2.37-1.37 0.29207-0.17423 0.66795-0.10589 0.88 0.16 0.39 0.43 0.79 0.85 1.16 1.29 0.47866 0.54516 1.2545 0.71892 1.92 0.43 0.43729-0.15638 0.78435-0.49614 0.95-0.93 0.2-0.48 0.42-0.95 0.64-1.42 0.12731-0.34868 0.50467-0.53736 0.86-0.43 0.89 0.22 1.77 0.46 2.64 0.7 0.36016 0.065989 0.60065 0.4089 0.54 0.77 0 0.6-0.07 1.2-0.1 1.79-0.009018 0.54606 0.24183 1.0639 0.67587 1.3954s0.99971 0.43708 1.5241 0.2846l1.76-0.59c0.27066-0.086314 0.56508 0.025647 0.71 0.27 0.49 0.8 1 1.6 1.46 2.41 0.19102 0.34087 0.09644 0.77077-0.22 1-0.41 0.38-0.82 0.78-1.26 1.13-0.40797 0.39916-0.59424 0.97302-0.49847 1.5357s0.46141 1.0426 0.97847 1.2843c0.5 0.19 1 0.44 1.47 0.67 0.17893 0.058391 0.32565 0.18833 0.40524 0.35889 0.079593 0.17056 0.084935 0.36647 0.014756 0.54111-0.23 0.87-0.46 1.73-0.68 2.59-0.051422 0.32594-0.3527 0.5519-0.68 0.51-0.59 0-1.18 0-1.77-0.09-0.47458-0.027198-0.94016 0.13764-1.2919 0.45741-0.35174 0.31976-0.56008 0.76757-0.5781 1.2426 0.009546 0.18773 0.046608 0.37304 0.11 0.55zm-2.37-5.83c0.3182-1.1978 0.14287-2.4733-0.48676-3.5408s-1.661-1.8381-2.8632-2.1392c-1.1793-0.329-2.4413-0.16997-3.5021 0.4413-1.0608 0.61127-1.8312 1.6234-2.1379 2.8087-0.34576 1.1938-0.19594 2.4766 0.41562 3.5586s1.6333 1.8719 2.8344 2.1914c2.501 0.66167 5.0665-0.8222 5.74-3.32z" fill="#F37A6E" fill-rule="nonzero"/>
<path d="m166.21 192.39c-0.27359-0.084712-0.56641-0.084712-0.84 0l-1.63 0.54c-0.40593 0.17376-0.87589-0.014218-1.05-0.42-0.41-0.73-0.82-1.46-1.22-2.19-0.13188-0.14606-0.19049-0.34399-0.1594-0.5383s0.14854-0.36408 0.3194-0.4617c0.41-0.37 0.82-0.76 1.24-1.12 0.40607-0.38258 0.60135-0.93835 0.52384-1.4908-0.077509-0.5525-0.41818-1.0331-0.91384-1.2892-0.52-0.25-1-0.52-1.55-0.78-0.36147-0.13561-0.5449-0.53827-0.41-0.9 0.22-0.85 0.45-1.69 0.67-2.54 0.071171-0.38903 0.43919-0.65063 0.83-0.59 0.52 0 1 0.08 1.56 0.15 0.58457 0.061672 1.1608-0.17597 1.5319-0.63182 0.37113-0.45584 0.48702-1.0683 0.3081-1.6282-0.22-0.52-0.37-1.08-0.54-1.62-0.1529-0.32628-0.020366-0.71506 0.3-0.88 0.79-0.46 1.57-0.92 2.37-1.37 0.29207-0.17423 0.66795-0.10589 0.88 0.16 0.39 0.43 0.79 0.85 1.16 1.29 0.47866 0.54516 1.2545 0.71892 1.92 0.43 0.43729-0.15638 0.78435-0.49614 0.95-0.93 0.2-0.48 0.42-0.95 0.64-1.42 0.12731-0.34868 0.50467-0.53736 0.86-0.43 0.89 0.22 1.77 0.46 2.64 0.7 0.36016 0.065989 0.60065 0.4089 0.54 0.77 0 0.6-0.07 1.2-0.1 1.79-0.009018 0.54606 0.24183 1.0639 0.67587 1.3954s0.99971 0.43708 1.5241 0.2846l1.76-0.59c0.27066-0.086314 0.56508 0.025647 0.71 0.27 0.49 0.8 1 1.6 1.46 2.41 0.19102 0.34087 0.09644 0.77077-0.22 1-0.41 0.38-0.82 0.78-1.26 1.13-0.40797 0.39916-0.59424 0.97302-0.49847 1.5357s0.46141 1.0426 0.97847 1.2843c0.5 0.19 1 0.44 1.47 0.67 0.17893 0.058391 0.32565 0.18833 0.40524 0.35889 0.079593 0.17056 0.084935 0.36647 0.014756 0.54111-0.23 0.87-0.46 1.73-0.68 2.59-0.051422 0.32594-0.3527 0.5519-0.68 0.51-0.59 0-1.18 0-1.77-0.09-0.47458-0.027198-0.94016 0.13764-1.2919 0.45741-0.35174 0.31976-0.56008 0.76757-0.5781 1.2426 0.007565 0.19448 0.044656 0.38667 0.11 0.57 0.16 0.52 0.33 1 0.5 1.55 0.10137 0.17636 0.12101 0.38809 0.053815 0.58008-0.067199 0.192-0.21459 0.34526-0.40382 0.41992l-2.26 1.31c-0.305 0.20702-0.71769 0.1462-0.95-0.14-0.4-0.43-0.79-0.87-1.18-1.3-0.38151-0.39-0.92542-0.57588-1.4658-0.50094s-1.0132 0.40183-1.2742 0.88094c-0.27 0.52-0.53 1.05-0.79 1.58-0.058252 0.17642-0.18714 0.32072-0.35588 0.39846s-0.36218 0.081914-0.53412 0.011542l-2.59-0.68c-0.34578-0.079404-0.57499-0.40808-0.53-0.76 0-0.53 0.06-1.07 0.15-1.6 0.097243-0.88205-0.47005-1.701-1.33-1.92z" stroke="#6E7F89" stroke-linecap="round" stroke-linejoin="round" stroke-width="2"/>
<path d="m176.8 186.75c0.3182-1.1978 0.14287-2.4733-0.48676-3.5408s-1.661-1.8381-2.8632-2.1392c-1.1793-0.329-2.4413-0.16997-3.5021 0.4413-1.0608 0.61127-1.8312 1.6234-2.1379 2.8087-0.34576 1.1938-0.19594 2.4766 0.41562 3.5586s1.6333 1.8719 2.8344 2.1914c2.501 0.66167 5.0665-0.8222 5.74-3.32z" stroke="#6E7F89" stroke-linecap="round" stroke-linejoin="round" stroke-width="2"/>
</g>
</g>
</g>
</svg>
