<svg xmlns="http://www.w3.org/2000/svg" viewBox="0 0 35 35"><g fill="none" fill-rule="evenodd" transform="translate(1 1)"><path stroke="#728088" stroke-linecap="round" stroke-linejoin="round" stroke-width="2" d="M18.75 33H1.56c-.41 0-.8-.17-1.1-.46-.3-.3-.46-.7-.46-1.12V1.58C0 1.16.17.76.46.46c.3-.3.69-.46 1.1-.46h21.87c.42 0 .82.16 1.11.46.3.3.46.7.46 1.12v7.89"/><path stroke="#728088" stroke-linecap="round" stroke-linejoin="round" stroke-width="2" d="M22 15.65a5.48 5.48 0 00-.73-.45l-1.69-.88a2.87 2.87 0 00-3.03.25l-2.64 1.95a3.88 3.88 0 00-1.51 2.59L12 22M33 31l-8-12M18.79 23.45l8.09-5.04a2.4 2.4 0 00-.1-4.12 2.31 2.31 0 00-2.35.06L9.78 23.48h0L7 28l5.23-.46h0l2.99-1.87"/><path stroke="#728088" stroke-linecap="round" stroke-linejoin="round" stroke-width="2" d="M22.88 23h-5.63C16.01 23 15 24 15 25.22h0c0 1.23 1 2.22 2.25 2.22h4.11L24 33"/><circle cx="6" cy="7" r="2" fill="#FF7C6D"/><circle cx="6" cy="15" r="2" fill="#FF7C6D"/><path fill="#728088" fill-rule="nonzero" d="M6 4.5a2.5 2.5 0 100 5 2.5 2.5 0 000-5zm0 1a1.5 1.5 0 110 3 1.5 1.5 0 010-3zM6 12.5a2.5 2.5 0 100 5 2.5 2.5 0 000-5zm0 1a1.5 1.5 0 110 3 1.5 1.5 0 010-3zM21 6v2H11V6z"/></g></svg>
