<svg xmlns="http://www.w3.org/2000/svg" viewBox="0 0 24 35"><g fill="none" fill-rule="evenodd" transform="translate(1 1)"><path stroke="#6E7F89" stroke-linecap="round" stroke-linejoin="round" stroke-width="1.5" d="M3.19 6.76v19.22M3.19 10.27s0 8.14 11.94 7.18"/><path fill="#FF7C6E" fill-rule="nonzero" d="M3.27 0a3.3 3.3 0 013.28 3.32 3.3 3.3 0 01-3.28 3.32A3.3 3.3 0 010 3.32 3.3 3.3 0 013.27 0z"/><path stroke="#6E7F89" stroke-linecap="round" stroke-linejoin="round" stroke-width="1.5" d="M6.54 3.32c0 1.82-1.47 3.3-3.27 3.3A3.29 3.29 0 010 3.3 3.24 3.24 0 015.59.98c.6.61.95 1.46.95 2.34h0z"/><ellipse cx="18.47" cy="16.65" fill="#FF7C6E" fill-rule="nonzero" rx="3.26" ry="3.31"/><ellipse cx="18.47" cy="16.65" stroke="#6E7F89" stroke-linecap="round" stroke-linejoin="round" stroke-width="1.5" rx="3.26" ry="3.31"/><ellipse cx="3.27" cy="29.34" fill="#FF7C6E" fill-rule="nonzero" rx="3.26" ry="3.31"/><ellipse cx="3.27" cy="29.34" stroke="#6E7F89" stroke-linecap="round" stroke-linejoin="round" stroke-width="1.5" rx="3.26" ry="3.31"/></g></svg>
