<svg xmlns="http://www.w3.org/2000/svg" viewBox="0 0 35 36"><g fill="none" fill-rule="evenodd" transform="translate(1 1)"><path stroke="#728088" stroke-linecap="round" stroke-linejoin="round" stroke-width="2" d="M26.35 20C31.82 4.44 22.46 0 16.5 0h0C10.54 0 1.18 4.44 6.65 20M31.72 34l1.23-8.65c.2-1.35-.2-2.7-1.05-3.73A4.47 4.47 0 0028.47 20H5.53c-1.31 0-2.56.6-3.42 1.62a4.78 4.78 0 00-1.06 3.73L2.28 34M23 27h4M23 31h4M29 13h4M5 13H0"/><path stroke="#728088" stroke-linecap="round" stroke-linejoin="round" stroke-width="2" d="M7 26h12v7H7z"/><circle cx="12" cy="12" r="2" fill="#FF7C6D"/><circle cx="21" cy="12" r="2" fill="#FF7C6D"/><path fill="#728088" fill-rule="nonzero" d="M12 9.5a2.5 2.5 0 100 5 2.5 2.5 0 000-5zm0 1a1.5 1.5 0 110 3 1.5 1.5 0 010-3zM21 9.5a2.5 2.5 0 100 5 2.5 2.5 0 000-5zm0 1a1.5 1.5 0 110 3 1.5 1.5 0 010-3z"/></g></svg>
