<svg xmlns="http://www.w3.org/2000/svg" viewBox="0 0 26 34"><g fill="none" fill-rule="evenodd" transform="translate(1 1)"><path stroke="#728088" stroke-linecap="round" stroke-linejoin="round" stroke-opacity=".96" stroke-width="2" d="M.31 20.25a11.69 11.69 0 1023.38 0 11.69 11.69 0 00-23.38 0z"/><path stroke="#728088" stroke-linecap="round" stroke-linejoin="round" stroke-opacity=".96" stroke-width="2" d="M19.44 11.23L23.69.06H.31l4.25 11.17M9.35 8.86L7.75.06M14.65 8.86l1.6-8.8"/><circle cx="12" cy="14" r="2" fill="#FF7C6D"/><path fill="#728088" fill-rule="nonzero" d="M12 11.5a2.5 2.5 0 100 5 2.5 2.5 0 000-5zm0 1a1.5 1.5 0 110 3 1.5 1.5 0 010-3z"/><circle cx="7" cy="20" r="2" fill="#FF7C6D"/><path fill="#728088" fill-rule="nonzero" d="M7 17.5a2.5 2.5 0 100 5 2.5 2.5 0 000-5zm0 1a1.5 1.5 0 110 3 1.5 1.5 0 010-3z"/><circle cx="17" cy="20" r="2" fill="#FF7C6D"/><path fill="#728088" fill-rule="nonzero" d="M17 17.5a2.5 2.5 0 100 5 2.5 2.5 0 000-5zm0 1a1.5 1.5 0 110 3 1.5 1.5 0 010-3z"/><circle cx="12" cy="26" r="2" fill="#FF7C6D"/><path fill="#728088" fill-rule="nonzero" d="M12 23.5a2.5 2.5 0 100 5 2.5 2.5 0 000-5zm0 1a1.5 1.5 0 110 3 1.5 1.5 0 010-3z"/></g></svg>
