<svg xmlns="http://www.w3.org/2000/svg" viewBox="0 0 26 39"><g fill="none" fill-rule="evenodd"><path fill="#728088" fill-rule="nonzero" d="M23 0a3 3 0 013 2.82V25a3 3 0 01-2.82 3H4a2 2 0 00-.18 4H25a1 1 0 01.12 2H4a4 4 0 01-4-3.77V3.6A3.6 3.6 0 013.39.01L3.6 0H23zm0 2H3.6A1.6 1.6 0 002 3.45v23.09l.15-.08c.5-.27 1.06-.43 1.65-.46H23a1 1 0 001-.88V3a1 1 0 00-.88-1H23z"/><path fill="#728088" fill-rule="nonzero" d="M23 26a1 1 0 011 .88V33a1 1 0 01-2 .12V27a1 1 0 011-1z"/><path fill="#FFF" d="M6 30h8v6H6z"/><path fill="#728088" fill-rule="nonzero" d="M14 29H6a1 1 0 00-1 1v7.45a1 1 0 001.46.77l3.43-1.77 3.67 1.78a1 1 0 001.44-.9V30a1 1 0 00-1-1zm-1 2v4.74l-2.68-1.3-.12-.06a1 1 0 00-.77.07L7 35.69V31h6z"/><circle cx="7" cy="7" r="2" fill="#FF7C6D"/><circle cx="7" cy="14" r="2" fill="#FF7C6D"/><circle cx="7" cy="21" r="2" fill="#FF7C6D"/><path fill="#728088" fill-rule="nonzero" d="M7 4.5a2.5 2.5 0 100 5 2.5 2.5 0 000-5zm0 1a1.5 1.5 0 110 3 1.5 1.5 0 010-3zM7 11.5a2.5 2.5 0 100 5 2.5 2.5 0 000-5zm0 1a1.5 1.5 0 110 3 1.5 1.5 0 010-3zM7 18.5a2.5 2.5 0 100 5 2.5 2.5 0 000-5zm0 1a1.5 1.5 0 110 3 1.5 1.5 0 010-3zM21 7v1h-4V7zM21 10v1h-4v-1zM21 13v1h-4v-1zM21 16v1h-4v-1zM21 19v1h-4v-1z"/></g></svg>
