<svg xmlns="http://www.w3.org/2000/svg" viewBox="0 0 31 34"><g fill="none" fill-rule="evenodd" transform="translate(1 1)"><path stroke="#728088" stroke-linecap="round" stroke-linejoin="round" stroke-width="2" d="M23.2 25h3.87A1.9 1.9 0 0029 23.15V2C29 .89 28.07 0 26.92 0H2.07C.93 0 0 .89 0 1.98V23C0 24.11.93 25 2.08 25H5.8"/><path stroke="#728088" stroke-linecap="round" stroke-linejoin="round" stroke-width="2" d="M9.5 12c-.33.73-.5 1.5-.5 2.29-.09 3.07 2.6 5.62 6 5.71 3.4-.09 6.09-2.64 6-5.71 0-.79-.17-1.57-.5-2.29h-11zM15 20v7M20 32a5.4 5.4 0 00-5-4 5.4 5.4 0 00-5 4h10z"/><path stroke="#728088" stroke-linecap="round" stroke-linejoin="round" stroke-width="2" d="M10 15H6c0 2.21.79 4.35 2.22 6M20 15h4c0 2.23-.83 4.37-2.34 6"/><circle cx="5" cy="7" r="2" fill="#FF7C6D"/><circle cx="15" cy="5" r="2" fill="#FF7C6D"/><path fill="#728088" fill-rule="nonzero" d="M5 4.5a2.5 2.5 0 100 5 2.5 2.5 0 000-5zm0 1a1.5 1.5 0 110 3 1.5 1.5 0 010-3z"/><circle cx="24" cy="7" r="2" fill="#FF7C6D"/><path fill="#728088" fill-rule="nonzero" d="M24 4.5a2.5 2.5 0 100 5 2.5 2.5 0 000-5zm0 1a1.5 1.5 0 110 3 1.5 1.5 0 010-3zM15 2.5a2.5 2.5 0 100 5 2.5 2.5 0 000-5zm0 1a1.5 1.5 0 110 3 1.5 1.5 0 010-3z"/></g></svg>
