<svg xmlns="http://www.w3.org/2000/svg" fill="none" viewBox="0 0 201 50"><path fill="#E6EDF2" d="M44.22 20.35v2.4h-2.94c-4.61 0-4.92-2.8-4.92-2.8v14.86a1.3 1.3 0 001.3 1.3h.3v.87a5.96 5.96 0 005.93 5.95H40a4.66 4.66 0 00-4.46 3.35 21.93 21.93 0 1119.94.5l-.07-.15a4.66 4.66 0 00-4.59-3.7h-3.68a5.95 5.95 0 005.93-5.95v-.88h.5a1.29 1.29 0 001.3-1.29v-7.14a4.92 4.92 0 00-4.92-4.92h-2.39v-2.4a4.36 4.36 0 10-3.34 0z"/><path fill="#7EB5BD" d="M53.07 32.29c-5 .85-10.15-.25-14.37-3.08l-.29-.1a5.96 5.96 0 015.47-3.62h3.26a5.96 5.96 0 015.93 5.92v.88z"/><path fill="#FDAE76" d="M41.55 16.33a4.36 4.36 0 116.02 4v2.4h-3.35v-2.4a4.35 4.35 0 01-2.67-4zm4.36.82a.93.93 0 10-1.85 0 .93.93 0 001.85 0 .93.93 0 10.93-.93.93.93 0 00-.95.93h.02z"/><path fill="#FDAE76" d="M46.82 16.22a.93.93 0 110 1.86.93.93 0 010-1.86z"/><path fill="#EDC19A" d="M49.8 37.92a.78.78 0 10.96-1.23.78.78 0 00-.97 1.23zm-9.06-1a.79.79 0 101.22.98.79.79 0 00-1.22-.98zm-2.79-5.51c0-.8.16-1.58.47-2.3l.28.08a19.81 19.81 0 0014.38 3.08v4.69a5.95 5.95 0 01-5.94 5.97H43.9a5.95 5.95 0 01-5.94-5.94v-5.58z"/><path fill="#6E7F89" d="M40.87 38a.78.78 0 11.98-1.22.78.78 0 01-.98 1.22z"/><path fill="#7EB5BD" d="M37.66 36.1a1.3 1.3 0 01-1.3-1.29V19.95s.31 2.8 4.92 2.8h8.7a4.92 4.92 0 014.91 4.92v7.14a1.29 1.29 0 01-1.29 1.3h-.5v-4.7a5.96 5.96 0 00-5.93-5.94H43.9a5.97 5.97 0 00-5.94 5.94v4.68l-.31.01z"/><path fill="#6E7F89" d="M50.77 36.7a.8.8 0 11-1 1.22.8.8 0 011-1.22z"/><path fill="#C4D4DD" d="M55.39 46.63l.07.15a21.97 21.97 0 01-19.94-.5A4.66 4.66 0 0140 42.93h10.82a4.66 4.66 0 014.57 3.7z"/><path fill="#FDAE76" d="M45.9 17.15a.93.93 0 11-1.86 0 .93.93 0 011.85 0z"/><path stroke="#6E7F89" stroke-linecap="round" stroke-linejoin="round" stroke-width="1.5" d="M35.54 46.28A21.97 21.97 0 1156.48 7.65a21.97 21.97 0 01-20.94 38.63zM52.07 16.22h1M38.67 16.22h1.01M45.9 9.97V8.81"/><path stroke="#6E7F89" stroke-linecap="round" stroke-linejoin="round" stroke-width="1.5" d="M47.14 42.93a5.95 5.95 0 005.93-5.95V31.4a5.96 5.96 0 00-5.93-5.94h-3.26a5.97 5.97 0 00-5.93 5.94v5.55a5.96 5.96 0 005.94 5.97M38.7 29.2a19.81 19.81 0 0014.38 3.09"/><path stroke="#6E7F89" stroke-linecap="round" stroke-linejoin="round" stroke-width="1.5" d="M55.39 46.63a4.66 4.66 0 00-4.57-3.7H40a4.66 4.66 0 00-4.46 3.35M44.22 22.75v-2.4a4.36 4.36 0 113.35 0v2.4M45.9 22.75v-5.6"/><path stroke="#6E7F89" stroke-linecap="round" stroke-linejoin="round" stroke-width="1.5" d="M45.9 17.15a.93.93 0 101.85 0 .93.93 0 00-1.86 0v0z"/><path stroke="#6E7F89" stroke-linecap="round" stroke-linejoin="round" stroke-width="1.5" d="M44.06 17.15a.93.93 0 101.85 0 .93.93 0 00-1.85 0v0zM51.1 11.03l-.85.94M41.32 12.07l-.78-.89M37.66 36.1a1.3 1.3 0 01-1.3-1.29V19.95s.31 2.8 4.92 2.8h8.7a4.92 4.92 0 014.91 4.92v7.14a1.29 1.29 0 01-1.29 1.3h-.5"/><path fill="#000" d="M31.54 27A21.94 21.94 0 0149.72 5.38a21.94 21.94 0 100 43.22 21.94 21.94 0 01-18.18-21.62z" opacity=".07"/><path fill="#6E7F89" d="M93.05 37.1a.78.78 0 111.23-.97.78.78 0 01-1.23.97z"/><path fill="#C4D4DD" d="M108.4 45.49l.06.1a21.68 21.68 0 01-20 .8l.04-.1a4.67 4.67 0 014.63-4.08h10.82a4.66 4.66 0 014.45 3.28z"/><path fill="#7EB5BD" d="M98.06 22.05s11.1-.5 10.81 13.89H106v-5.21a5.88 5.88 0 00-2.66-4.94 5.97 5.97 0 00-3.28-.99h-3.25a5.95 5.95 0 00-5.94 5.93v5.55c0 .31.02.61.07.92H88.49s-2.9-14.37 9.57-15.15z"/><path fill="#FDAE76" d="M98.06 16.45a.93.93 0 11-1.87.01.93.93 0 011.87 0z"/><path fill="#F9E3D4" d="M106 35.94v.34a5.95 5.95 0 01-5.94 5.93H96.8a5.96 5.96 0 01-5.93-5.92v-4.7c5 .86 10.16-.25 14.37-3.08l.29-.08c.3.72.47 1.5.47 2.3v5.2zm-2.92 1.38a.78.78 0 00-.4-1.39.79.79 0 00-.58.16.8.8 0 00-.1 1.12.8.8 0 001.1.11h-.02zm-8.93-.08a.79.79 0 10-1.1-.12.79.79 0 001.1.1v.02z"/><path fill="#FDAE76" d="M98.98 15.53a.93.93 0 11.01 1.86.93.93 0 010-1.86z"/><path fill="#7EB5BD" d="M105.53 28.43l-.29.08a19.81 19.81 0 01-14.37 3.08v-.86a5.95 5.95 0 015.93-5.93h3.26a5.97 5.97 0 015.47 3.63z"/><path fill="#E6EDF2" d="M108.87 35.94c.3-14.37-10.81-13.89-10.81-13.89-12.47.78-9.58 15.15-9.58 15.15h2.46a5.96 5.96 0 005.86 5.01h-3.67a4.67 4.67 0 00-4.63 4.08l-.04.1a21.68 21.68 0 1120-.8l-.07-.11a4.66 4.66 0 00-4.44-3.27h-3.9a5.96 5.96 0 005.94-5.94v-.34h2.88zm-9.14-13.89v-2.39a4.35 4.35 0 10-3.35 0v2.39h3.35z"/><path fill="#6E7F89" d="M101.98 37.18a.8.8 0 01-.17-.58.77.77 0 01.3-.52.79.79 0 011.24.4.82.82 0 01-.06.6.81.81 0 01-.47.38.8.8 0 01-.84-.25v-.03z"/><path fill="#FDAE76" d="M98.06 22.05h-1.68v-2.39a4.36 4.36 0 113.35 0v2.39h-1.67zm-.93-4.66a.93.93 0 00.93-.94.93.93 0 101.85 0 .93.93 0 00-1.85 0 .93.93 0 10-.93.94z"/><path stroke="#6E7F89" stroke-linecap="round" stroke-linejoin="round" stroke-width="1.5" d="M88.46 46.39a21.68 21.68 0 1118.46-39.24 21.68 21.68 0 01-18.46 39.24v0z"/><path stroke="#6E7F89" stroke-linecap="round" stroke-linejoin="round" stroke-width="1.5" d="M96.8 42.21a5.95 5.95 0 01-5.93-5.92v-5.56a5.95 5.95 0 015.93-5.93h3.26a5.96 5.96 0 015.94 5.93v5.55a5.95 5.95 0 01-5.94 5.94"/><path stroke="#6E7F89" stroke-linecap="round" stroke-linejoin="round" stroke-width="1.5" d="M90.87 37.2h-2.38s-2.9-14.37 9.57-15.15c0 0 11.1-.5 10.81 13.89H106M105.24 28.51a19.81 19.81 0 01-14.37 3.08M88.5 46.3a4.67 4.67 0 014.63-4.09h10.82a4.66 4.66 0 014.44 3.28"/><path stroke="#6E7F89" stroke-linecap="round" stroke-linejoin="round" stroke-width="1.5" d="M102.41 15.64a4.36 4.36 0 10-6 4v2.4h3.34v-2.38a4.35 4.35 0 002.66-4.02v0zM98.06 22.05v0-5.6"/><path stroke="#6E7F89" stroke-linecap="round" stroke-linejoin="round" stroke-width="1.5" d="M98.06 16.45a.93.93 0 11-1.87.01.93.93 0 011.87 0v0z"/><path stroke="#6E7F89" stroke-linecap="round" stroke-linejoin="round" stroke-width="1.5" d="M99.91 16.45a.93.93 0 11-1.85 0 .93.93 0 011.85 0v0zM91.88 15.53h-1.01M105.28 15.53h-1.01M98.06 9.28V8.11M92.85 10.33l.85.95M102.63 11.38l.78-.9"/><path fill="#000" d="M83.54 26.94a21.93 21.93 0 0118.17-21.6 21.94 21.94 0 100 43.2 21.93 21.93 0 01-18.17-21.6z" opacity=".07"/><path fill="#7EB5BD" d="M155 24.76a5.9 5.9 0 00-4.01-1.55h-3.26a5.94 5.94 0 00-4.57 2.17l-1.12-.73a2.62 2.62 0 01-.08-2.23 2.7 2.7 0 012.51-1.64h2.84v.25h3.35v-.25h3.1a2.7 2.7 0 012.72 2.67c0 .42-.1.83-.3 1.2l-1.19.11z"/><path fill="#FDAE76" d="M148.05 14.51a.93.93 0 01.94.9v.05a.93.93 0 11-1.78-.4.93.93 0 01.85-.57v.02z"/><path fill="#7EB5BD" d="M154.24 26.36c-.2.56-.2 1.17 0 1.73a19.9 19.9 0 01-11.5 2.07c-.1-.16-.2-.3-.34-.42a2.65 2.65 0 001.42-3.7 2.66 2.66 0 001.86-.2c.38-.19.7-.46.97-.8.44.2.92.3 1.4.3.6 0 2.91-.16 3.41-.43a2.73 2.73 0 002.92 1.13l-.14.32z"/><path fill="#FDAE76" d="M148.99 15.47a.93.93 0 100-.05 1 1 0 100 .07v-.02zm0-5.2a4.36 4.36 0 011.67 8.38v2.13h-3.35v-2.13a4.36 4.36 0 011.68-8.39z"/><path fill="#7EB5BD" d="M155 24.76a6.01 6.01 0 011.5 2.09l-.28.08c-.62.44-1.27.82-1.95 1.16a2.59 2.59 0 01.16-2.05 2.73 2.73 0 01-2.94-1.13c-.5.27-2.8.42-3.41.42-.49 0-.96-.1-1.4-.29a2.74 2.74 0 01-2.83 1l-1-.2c.1-.16.22-.31.34-.46a5.95 5.95 0 014.58-2.17h3.22a5.9 5.9 0 014 1.55z"/><path fill="#FDAE76" d="M148.98 15.44V15.44z"/><path fill="#D3B4A3" d="M156.92 29.74v4.4h-.05a2.66 2.66 0 01-1.03-4.4h1.08z"/><path fill="#6E7F89" d="M145.08 35.64a.78.78 0 01-1.26-.7.78.78 0 011.01-.65.78.78 0 01.25 1.35z"/><path fill="#D3B4A3" d="M143.03 30.73a2.65 2.65 0 01-1.23 3.2v-3.92l.93.15c.13.17.23.36.3.57z"/><path fill="#fff" d="M148.98 20.78h-1.67v.25h1.67v-.25z"/><path fill="#FDAE76" d="M149.91 14.51a.93.93 0 11-.93.96v-.05a.93.93 0 01.93-.9z"/><path fill="#C4D4DD" d="M159.53 45.86l.04.07a21.74 21.74 0 01-20.8.06l.62-.13c0-2.57 2.1-5.23 4.66-5.23h10.82c2.57 0 4.66 2.66 4.66 5.23z"/><path fill="#D3B4A3" d="M156.92 29.15v.58h-1.08a2.7 2.7 0 01-1.61-1.64 14.1 14.1 0 001.94-1.16l.28-.09c.31.73.47 1.52.47 2.3z"/><path fill="#7EB5BD" d="M142.04 24.65l1.11.73-.34.46c-.66.98-1 2.13-1 3.3v4.8l-.44.2a2.74 2.74 0 01-3.48-1.65 2.65 2.65 0 011.58-3.37 2.66 2.66 0 011.04-4.4c.49-.18 1.02-.2 1.53-.07z"/><path fill="#D3B4A3" d="M156.92 34.15v.55a5.95 5.95 0 01-5.93 5.93h-3.26a5.95 5.95 0 01-5.93-5.93v-.77a2.65 2.65 0 001.23-3.2c-.07-.2-.17-.4-.3-.57a19.9 19.9 0 0011.5-2.07 2.72 2.72 0 001.61 1.64 2.58 2.58 0 00-.78 2.05 2.67 2.67 0 001.81 2.36h.05zm-2.93 1.57a.78.78 0 10-.98-1.22.78.78 0 00.98 1.22zm-8.92-.08a.78.78 0 10-1.1-.12.77.77 0 00.53.3.78.78 0 00.58-.18h-.01z"/><path fill="#E6EDF2" d="M144.63 14.62a4.37 4.37 0 002.68 4v2.14h-2.83a2.7 2.7 0 00-2.73 2.67c0 .42.1.83.3 1.2a2.72 2.72 0 00-3.36 2.44 2.66 2.66 0 00.79 2.04 2.66 2.66 0 00-1.6 3.37 2.75 2.75 0 003.92 1.44v.77a5.95 5.95 0 005.94 5.93h-3.68c-2.57 0-4.66 2.66-4.66 5.23l-.62.13a21.67 21.67 0 1120.8-.06l-.04-.07c0-2.57-2.09-5.23-4.66-5.23h-3.9a5.95 5.95 0 005.95-5.93v-.55a2.75 2.75 0 003.43-1.66 2.65 2.65 0 00-1.6-3.37 2.6 2.6 0 00.79-2.04 2.68 2.68 0 00-3.36-2.44c.2-.37.3-.78.3-1.2a2.7 2.7 0 00-2.73-2.67h-3.1v-2.13a4.36 4.36 0 10-6-4.01h-.03z"/><path fill="#6E7F89" d="M154 35.72a.78.78 0 01-.87.07.78.78 0 01-.4-.77.79.79 0 01.86-.69.78.78 0 01.4 1.39z"/><path fill="#7EB5BD" d="M141.8 29.15c0-1.18.34-2.33 1-3.31l1 .2c.06.1.1.21.15.32a2.66 2.66 0 01-1.6 3.37c.13.13.25.27.35.43l-.94-.15.04-.86z"/><path fill="#FDAE76" d="M148.99 15.46v-.04l-.01.02v.02z"/><path fill="#fff" d="M150.66 20.78h-1.68v.25h1.68v-.25z"/><path fill="#7EB5BD" d="M158.75 29.12a2.66 2.66 0 011.6 3.37 2.76 2.76 0 01-3.43 1.66v-5.01a5.88 5.88 0 00-1.97-4.39l1.21-.1a2.74 2.74 0 013.1 1.41 2.68 2.68 0 01-.5 3.06z"/><path stroke="#6E7F89" stroke-linecap="round" stroke-linejoin="round" stroke-width="1.5" d="M138.78 46a21.73 21.73 0 1120.66-38.25A21.73 21.73 0 01138.78 46z"/><path stroke="#6E7F89" stroke-linecap="round" stroke-linejoin="round" stroke-width="1.5" d="M150.66 20.78v-2.13a4.36 4.36 0 10-3.35 0v2.13M148.98 20.78v-5.34"/><path stroke="#6E7F89" stroke-linecap="round" stroke-linejoin="round" stroke-width="1.5" d="M148.99 15.42v.05a.88.88 0 110-.07v.02z"/><path stroke="#6E7F89" stroke-linecap="round" stroke-linejoin="round" stroke-width="1.5" d="M148.99 15.42a.93.93 0 111.85.05.93.93 0 01-1.85-.05v0zM142.8 14.51h-1M156.2 14.51h-1M148.98 8.26V7.1M143.78 9.31l.85.95M153.55 10.37l.78-.9M141.8 33.93a2.75 2.75 0 01-3.92-1.44 2.65 2.65 0 011.59-3.37 2.66 2.66 0 011.04-4.4c.49-.18 1.02-.2 1.53-.08-.2-.37-.3-.78-.3-1.2a2.69 2.69 0 012.73-2.67h9.28a2.7 2.7 0 012.73 2.67c0 .42-.1.83-.3 1.2a2.74 2.74 0 013.09 1.42 2.64 2.64 0 01-.52 3.06 2.65 2.65 0 011.6 3.37 2.75 2.75 0 01-3.44 1.66M150.99 40.63h3.89c2.57 0 4.66 2.66 4.66 5.23M139.4 45.86c0-2.57 2.08-5.23 4.65-5.23h3.68"/><path stroke="#6E7F89" stroke-linecap="round" stroke-linejoin="round" stroke-width="1.5" d="M150.99 40.63h-3.26a5.95 5.95 0 01-5.93-5.93v-5.55a5.87 5.87 0 013.39-5.37c.79-.37 1.65-.57 2.53-.57h3.27a6 6 0 015.5 3.63c.32.73.47 1.52.47 2.3v5.56a5.96 5.96 0 01-5.97 5.93v0zM156.17 26.93a19.9 19.9 0 01-14.38 3.08"/><path fill="#000" d="M135.21 26.94A21.94 21.94 0 01153.4 5.33a21.94 21.94 0 100 43.22 21.94 21.94 0 01-18.18-21.61z" opacity=".07"/><path stroke="#6E7F89" stroke-linecap="round" stroke-linejoin="round" stroke-width="1.5" d="M188.81 9.8v10.8M188.81 11.76s0 4.58 6.8 4.04"/><path fill="#FF7C6E" d="M188.86 6a1.86 1.86 0 110 3.72 1.86 1.86 0 010-3.72z"/><path stroke="#6E7F89" stroke-linecap="round" stroke-linejoin="round" stroke-width="1.5" d="M190.72 7.86a1.86 1.86 0 11-3.71 0 1.86 1.86 0 013.71 0v0z"/><path fill="#FF7C6E" d="M197.51 17.21a1.86 1.86 0 100-3.72 1.86 1.86 0 000 3.72z"/><path stroke="#6E7F89" stroke-linecap="round" stroke-linejoin="round" stroke-width="1.5" d="M197.51 17.21a1.86 1.86 0 100-3.72 1.86 1.86 0 000 3.72z"/><path fill="#FF7C6E" d="M188.86 24.34a1.86 1.86 0 100-3.72 1.86 1.86 0 000 3.72z"/><path stroke="#6E7F89" stroke-linecap="round" stroke-linejoin="round" stroke-width="1.5" d="M188.86 24.34a1.86 1.86 0 100-3.72 1.86 1.86 0 000 3.72zM9.13 36.04h1.76c2.04 0 3.7 2 3.7 4.46v6.01"/><path fill="#F37A6E" d="M2.88 34.27a1.88 1.88 0 110 3.75 1.88 1.88 0 010-3.75z"/><path stroke="#6E7F89" stroke-linecap="round" stroke-linejoin="round" stroke-width="1.5" d="M4.76 36.14a1.88 1.88 0 11-3.76 0 1.88 1.88 0 013.76 0z"/><path fill="#F37A6E" d="M2.88 44.77a1.88 1.88 0 110 3.76 1.88 1.88 0 010-3.76z"/><path stroke="#6E7F89" stroke-linecap="round" stroke-linejoin="round" stroke-width="1.5" d="M4.76 46.65a1.88 1.88 0 11-3.76 0 1.88 1.88 0 013.76 0zM2.88 38.02v6.75"/><path fill="#F37A6E" d="M14.57 44.66a1.88 1.88 0 110 3.76 1.88 1.88 0 010-3.76z"/><path stroke="#6E7F89" stroke-linecap="round" stroke-linejoin="round" stroke-width="1.5" d="M16.45 46.54a1.88 1.88 0 11-3.76 0 1.88 1.88 0 013.76 0z"/><path fill="#F37A6E" d="M10.2 36.04v2.04l-1.45-1.02-1.46-1.02 1.46-1.02L10.21 34v2.04z"/><path stroke="#6E7F89" stroke-linecap="round" stroke-linejoin="round" stroke-width="1.5" d="M10.2 36.04V34l-1.45 1.02-1.46 1.02 1.46 1.02 1.46 1.02v-2.04z"/><path fill="#7EB5BD" d="M71.54 2.07a1.86 1.86 0 11-3.37 1.57 1.86 1.86 0 013.37-1.57z"/><path stroke="#6E7F89" stroke-linecap="round" stroke-linejoin="round" stroke-width="1.5" d="M69.07 1.18a1.86 1.86 0 111.58 3.36 1.86 1.86 0 01-1.58-3.36v0z"/><path fill="#7EB5BD" d="M181.54 46.07a1.85 1.85 0 01-1.24 2.6 1.86 1.86 0 111.24-2.6z"/><path stroke="#6E7F89" stroke-linecap="round" stroke-linejoin="round" stroke-width="1.5" d="M179.07 45.18a1.86 1.86 0 111.58 3.36 1.86 1.86 0 01-1.58-3.36v0z"/><path fill="#7EB5BD" d="M7.54 14.07a1.86 1.86 0 11-3.37 1.58 1.86 1.86 0 013.37-1.58z"/><path stroke="#6E7F89" stroke-linecap="round" stroke-linejoin="round" stroke-width="1.5" d="M5.07 13.18a1.86 1.86 0 111.58 3.36 1.86 1.86 0 01-1.58-3.36v0z"/></svg>
