<svg xmlns="http://www.w3.org/2000/svg" xmlns:xlink="http://www.w3.org/1999/xlink" viewBox="62.959983825683594 27.80999755859375 540.3701171875 653.9899291992188"><defs><style>.cls-1,.cls-13,.cls-14,.cls-21{fill:none;}.cls-2{isolation:isolate;}.cls-3{fill:#e6edf2;}.cls-4{opacity:0.07;mix-blend-mode:multiply;}.cls-5{fill:#d5f4f2;}.cls-6{fill:#fe7c6f;}.cls-7{fill:#c4d4dd;}.cls-8{fill:#80b5bc;}.cls-9{fill:#f8e3d5;}.cls-10{fill:#6e7f89;}.cls-11{fill:#fdae76;}.cls-12{fill:#98bac8;}.cls-13,.cls-14,.cls-21{stroke:#6e7f89;stroke-width:2px;}.cls-13,.cls-14{stroke-linejoin:round;}.cls-14{stroke-linecap:round;}.cls-15{fill:#ff7c6e;}.cls-16{clip-path:url(#clip-path);}.cls-17{fill:#97bac9;}.cls-18{fill:#d1b9aa;}.cls-19{fill:#fff;}.cls-20{fill:#e5ccb1;}.cls-21{stroke-miterlimit:10;}.cls-22{clip-path:url(#clip-path-2);}</style><clipPath id="clip-path"><circle class="cls-1" cx="423.72" cy="516.96" r="155.3"/></clipPath><clipPath id="clip-path-2"><path class="cls-1" d="M556.22,598s22.41-36,22.8-72.36H544.85l0,82.89Z"/></clipPath></defs><title>FW illustrations</title><g class="cls-2"><g id="Layer_3" data-name="Layer 3"><circle class="cls-3" cx="289.53" cy="234.79" r="206.98"/></g><g id="Layer_6" data-name="Layer 6"><path class="cls-4" d="M410.61,156.25V128a8.16,8.16,0,0,0-8.13-8.13h6.3a8.16,8.16,0,0,1,8.13,8.13v28.21a8.16,8.16,0,0,1-8.13,8.13h-6.3A8.16,8.16,0,0,0,410.61,156.25Z"/><path class="cls-5" d="M169,262.2a18.44,18.44,0,0,0,0,36.87h27a18.44,18.44,0,0,0,6.46-35.69A18.24,18.24,0,0,0,196,262.2Zm-11.58,17.88a2.34,2.34,0,1,1,2.34,2.34A2.33,2.33,0,0,1,157.43,280.08Zm10.88-9.41a2.34,2.34,0,1,1,2.33,2.33A2.33,2.33,0,0,1,168.31,270.67Zm0,18.37a2.34,2.34,0,1,1,2.33,2.33A2.33,2.33,0,0,1,168.31,289Zm8.85-4.61v-1.21a2.26,2.26,0,0,1,2.25-2.26h25.74a2.26,2.26,0,0,1,2.25,2.26v1.21a2.25,2.25,0,0,1-2.25,2.25H179.41A2.25,2.25,0,0,1,177.16,284.43Zm0-12.1a3.51,3.51,0,1,1,3.51,3.52A3.51,3.51,0,0,1,177.16,272.33Zm12.21,0a2.86,2.86,0,0,1,2.86-2.85h6.58a2.87,2.87,0,0,1,2.86,2.85,2.87,2.87,0,0,1-2.86,2.86h-6.58a2.8,2.8,0,0,1-2-.84A2.84,2.84,0,0,1,189.37,272.33Z"/><path class="cls-6" d="M159.77,277.75a2.34,2.34,0,1,0,2.33,2.33A2.33,2.33,0,0,0,159.77,277.75Z"/><path class="cls-6" d="M170.64,268.33a2.34,2.34,0,1,0,2.34,2.34A2.33,2.33,0,0,0,170.64,268.33Z"/><path class="cls-6" d="M170.64,286.7A2.34,2.34,0,1,0,173,289,2.33,2.33,0,0,0,170.64,286.7Z"/><rect class="cls-3" x="177.16" y="280.96" width="30.24" height="5.72" rx="2.25"/><path class="cls-7" d="M180.67,268.82a3.52,3.52,0,1,0,3.51,3.51A3.51,3.51,0,0,0,180.67,268.82Z"/><path class="cls-7" d="M192.23,269.48a2.85,2.85,0,0,0-2,4.87,2.8,2.8,0,0,0,2,.84h6.58a2.87,2.87,0,0,0,2.86-2.86,2.87,2.87,0,0,0-2.86-2.85Z"/><path class="cls-7" d="M191.71,308.44a27.73,27.73,0,0,0,27,34.07H357a24.73,24.73,0,0,0,24.08-30.39l-10.33-43.9c-5.36-21.08-16.39-36.59-36.6-36.59H240.94c-18.69,0-32.67,12.5-38.49,31.75a18.59,18.59,0,0,1,6.56,4.24,18.41,18.41,0,0,1-13,31.45h-2.07Zm30.1,17.77V247.14H350.88v79.07Z"/><path class="cls-3" d="M221.81,247.14v79.07H350.88V247.14Zm55,39.54a9.52,9.52,0,1,1,9.52,9.52A9.52,9.52,0,0,1,276.82,286.68Z"/><path class="cls-3" d="M234.9,213.69a3.84,3.84,0,1,0,3.84,3.84A3.83,3.83,0,0,0,234.9,213.69Z"/><path class="cls-8" d="M241.62,149.65v32.61a7.75,7.75,0,0,0,7.75,7.75h3.3V161.3a24.12,24.12,0,0,1,2.22-10.16.06.06,0,0,0,0,0l0,0a24.28,24.28,0,0,1,22-14h27c.42,0,.84,0,1.26,0a24.25,24.25,0,0,1,23.06,23.06c0,.41,0,.83,0,1.25V190h3.28a7.74,7.74,0,0,0,7.74-7.75V107.8c-3.15,16-18.64,15.24-18.64,15.24h-6.39v.06H268.9V123h-.67A26.68,26.68,0,0,0,241.62,149.65Z"/><circle class="cls-5" cx="252.67" cy="112.41" r="5.76"/><path class="cls-9" d="M252.67,190v8.58c0,1.91.06,3.82.2,5.73l.34,4.67c.87,12.07,10.45,22,22.54,22.55.4,0,.8,0,1.19,0H304a24.26,24.26,0,0,0,24.27-24.27V190Zm12.55,18.16a3.84,3.84,0,1,1,3.84,3.85A3.83,3.83,0,0,1,265.22,208.17Zm45.5-.36a3.85,3.85,0,1,1,3.84,3.85A3.83,3.83,0,0,1,310.72,207.81Z"/><path class="cls-9" d="M252.67,161.3V190H328.3V172.94H286a32.43,32.43,0,0,1-14.3-3.33,26.66,26.66,0,0,1-10.13-8.84l-6.69-9.63A24.12,24.12,0,0,0,252.67,161.3Z"/><path class="cls-9" d="M254.9,151.1a.06.06,0,0,1,0,0A.06.06,0,0,0,254.9,151.1Z"/><path class="cls-8" d="M254.89,151.14l6.69,9.63a26.66,26.66,0,0,0,10.13,8.84,32.43,32.43,0,0,0,14.3,3.33H328.3V161.37c0-.42,0-.84,0-1.25a24.34,24.34,0,0,0-23.06-23.06c-.42,0-.84,0-1.26,0h-26.2a25.09,25.09,0,0,0-18.45,7.88,28.24,28.24,0,0,0-4.38,6.16l0,0A.06.06,0,0,1,254.89,151.14Z"/><path class="cls-9" d="M254.92,151.06a28.24,28.24,0,0,1,4.38-6.16A25.09,25.09,0,0,1,277.75,137h-.81A24.28,24.28,0,0,0,254.92,151.06Z"/><path class="cls-10" d="M269.06,204.34a3.84,3.84,0,1,0,3.84,3.83A3.83,3.83,0,0,0,269.06,204.34Z"/><rect class="cls-3" x="268.9" y="123.04" width="45.39" height="0.06"/><path class="cls-5" d="M268.9,91.58V123h45.39V91.58a22.7,22.7,0,0,0-45.39,0Zm11,4.36A11,11,0,0,1,282,87.32a12.21,12.21,0,0,1,7.1-4.85c.82-.2,1.67-.25,2.35-.35,5.25.3,9.06,2.61,11.05,7.35,1.92,4.56,1.08,8.83-2.16,12.57a11.94,11.94,0,0,0-2.88,5.3c-.16.72-.34,2.25-.41,3h-.85a2.46,2.46,0,0,1,2.46,2.46v.31a2.46,2.46,0,0,1-2.46,2.46h-.07a2.62,2.62,0,0,1,0,5.23h-8.67a2.63,2.63,0,0,1-2.62-2.62,2.59,2.59,0,0,1,.78-1.84,2.56,2.56,0,0,1,1.84-.77h-.24a2.46,2.46,0,0,1-2.45-2.46v-.31a2.46,2.46,0,0,1,2.45-2.46H286a20.54,20.54,0,0,0-.13-2.23,10.21,10.21,0,0,0-2.81-5.82A11.57,11.57,0,0,1,279.86,95.94Z"/><circle class="cls-5" cx="286.34" cy="286.68" r="9.52"/><path class="cls-11" d="M291.6,110.33H297c.07-.74.25-2.27.41-3a11.94,11.94,0,0,1,2.88-5.3c3.24-3.74,4.08-8,2.16-12.57-2-4.74-5.8-7-11.05-7.35-.68.1-1.53.15-2.35.35a12.21,12.21,0,0,0-7.1,4.85,11,11,0,0,0-2.12,8.62,11.57,11.57,0,0,0,3.18,6.34,10.21,10.21,0,0,1,2.81,5.82,20.54,20.54,0,0,1,.13,2.23h5.62Zm-5.05-14.49A2.43,2.43,0,1,1,289,98.27,2.43,2.43,0,0,1,286.55,95.84Zm5.05,0A2.44,2.44,0,1,1,294,98.3,2.44,2.44,0,0,1,291.6,95.87Z"/><path class="cls-12" d="M284.75,112.79v.31a2.46,2.46,0,0,0,2.45,2.46h9a2.46,2.46,0,0,0,2.46-2.46v-.31a2.46,2.46,0,0,0-2.46-2.46h-9A2.46,2.46,0,0,0,284.75,112.79Z"/><path class="cls-12" d="M285.6,116.33a2.59,2.59,0,0,0-.78,1.84,2.63,2.63,0,0,0,2.62,2.62h8.67a2.62,2.62,0,0,0,0-5.23h-8.67A2.56,2.56,0,0,0,285.6,116.33Z"/><path class="cls-11" d="M289,93.41a2.43,2.43,0,1,0,2.43,2.43A2.43,2.43,0,0,0,289,93.41Z"/><path class="cls-11" d="M294,93.44a2.43,2.43,0,1,0,2.43,2.43A2.44,2.44,0,0,0,294,93.44Z"/><path class="cls-10" d="M314.56,204a3.84,3.84,0,1,0,3.85,3.83A3.83,3.83,0,0,0,314.56,204Z"/><path class="cls-9" d="M305.21,137.06a24.34,24.34,0,0,1,23.06,23.06A24.25,24.25,0,0,0,305.21,137.06Z"/><path class="cls-3" d="M350.52,128.05v28.2a8.15,8.15,0,0,0,8.13,8.13h50.13a8.15,8.15,0,0,0,8.13-8.13v-28.2a8.15,8.15,0,0,0-8.13-8.13H358.65A8.15,8.15,0,0,0,350.52,128.05Zm5.16,23.38a2.37,2.37,0,0,1,2.36-2.37h7.66a2.36,2.36,0,0,1,1.67.7,2.32,2.32,0,0,1,.7,1.67,2.38,2.38,0,0,1-2.37,2.37H358a2.37,2.37,0,0,1-2.36-2.37Zm.15-9.77a2.38,2.38,0,0,1,2.37-2.37h7.65a2.37,2.37,0,0,1,0,4.74H358.2a2.39,2.39,0,0,1-2.37-2.37Zm4.25-11.3a2.85,2.85,0,0,1,2.85-2.84h43.73a2.87,2.87,0,0,1,2,.83,2.85,2.85,0,0,1-2,4.87H362.93a2.8,2.8,0,0,1-2-.84A2.84,2.84,0,0,1,360.08,130.36Zm13.37,16.93A1.75,1.75,0,0,1,374,146l6.35-5.75a1.76,1.76,0,0,1,2.5.12,1.78,1.78,0,0,1-.12,2.51l-4.88,4.41,5,4.44a1.77,1.77,0,0,1,.15,2.5,1.73,1.73,0,0,1-1.33.6,1.76,1.76,0,0,1-1.17-.44l-6.51-5.75A1.8,1.8,0,0,1,373.45,147.29ZM386.27,140a2.55,2.55,0,0,1-.25-1.06,1.59,1.59,0,0,1,.93-1.51,1.7,1.7,0,0,1,2.26.82L397,154.92a1.63,1.63,0,0,1,.16.71,1.72,1.72,0,0,1-1,1.55,1.69,1.69,0,0,1-2.11-.52ZM399.9,154.2a1.77,1.77,0,0,1,.15-2.5l5-4.44-4.89-4.41a1.78,1.78,0,0,1-.12-2.51,1.76,1.76,0,0,1,2.5-.12l6.36,5.75a1.78,1.78,0,0,1,.58,1.32,1.8,1.8,0,0,1-.6,1.32l-6.51,5.75a1.73,1.73,0,0,1-1.18.44A1.75,1.75,0,0,1,399.9,154.2Z"/><path class="cls-3" d="M353.7,178.76a3.84,3.84,0,1,0,3.83,3.85A3.85,3.85,0,0,0,353.7,178.76Z"/><path class="cls-7" d="M358,149.06a2.37,2.37,0,0,0,0,4.74h7.66a2.38,2.38,0,0,0,2.37-2.37,2.32,2.32,0,0,0-.7-1.67,2.36,2.36,0,0,0-1.67-.7Z"/><path class="cls-7" d="M358.2,139.29a2.37,2.37,0,0,0,0,4.74h7.65a2.37,2.37,0,0,0,0-4.74Z"/><path class="cls-5" d="M374,188.52a23.14,23.14,0,1,0,23.13,23.14A23.13,23.13,0,0,0,374,188.52Zm-8.84,14.41a2.34,2.34,0,1,1,2.34,2.33A2.33,2.33,0,0,1,365.17,202.93Zm6.51,21.6a2.33,2.33,0,1,1,2.33,2.34A2.33,2.33,0,0,1,371.68,224.53Zm6.5-21.6a2.34,2.34,0,1,1,2.33,2.33A2.33,2.33,0,0,1,378.18,202.93Z"/><path class="cls-7" d="M362.93,127.52a2.84,2.84,0,0,0-2,4.86,2.8,2.8,0,0,0,2,.84h43.73a2.85,2.85,0,0,0,0-5.7Z"/><path class="cls-6" d="M367.51,200.59a2.34,2.34,0,1,0,2.33,2.34A2.33,2.33,0,0,0,367.51,200.59Z"/><path class="cls-6" d="M374,222.19a2.34,2.34,0,1,0,2.33,2.34A2.33,2.33,0,0,0,374,222.19Z"/><path class="cls-8" d="M374,146a1.75,1.75,0,0,0-.59,1.32,1.8,1.8,0,0,0,.6,1.32l6.51,5.75a1.76,1.76,0,0,0,1.17.44,1.73,1.73,0,0,0,1.33-.6,1.77,1.77,0,0,0-.15-2.5l-5-4.44,4.88-4.41a1.78,1.78,0,0,0,.12-2.51,1.76,1.76,0,0,0-2.5-.12Z"/><path class="cls-6" d="M380.51,200.59a2.34,2.34,0,1,0,2.34,2.34A2.33,2.33,0,0,0,380.51,200.59Z"/><path class="cls-7" d="M386,138.89a2.55,2.55,0,0,0,.25,1.06L394,156.66a1.69,1.69,0,0,0,2.11.52,1.72,1.72,0,0,0,1-1.55,1.63,1.63,0,0,0-.16-.71l-7.77-16.72a1.7,1.7,0,0,0-2.26-.82A1.59,1.59,0,0,0,386,138.89Z"/><path class="cls-8" d="M400.05,151.7a1.77,1.77,0,0,0,1.17,3.1,1.73,1.73,0,0,0,1.18-.44l6.51-5.75a1.8,1.8,0,0,0,.6-1.32,1.78,1.78,0,0,0-.58-1.32l-6.36-5.75a1.76,1.76,0,0,0-2.5.12,1.78,1.78,0,0,0,.12,2.51l4.89,4.41Z"/><path class="cls-13" d="M314.29,123h6.39s15.49.78,18.64-15.24v74.46a7.74,7.74,0,0,1-7.74,7.75H328.3"/><path class="cls-13" d="M252.67,190h-3.3a7.75,7.75,0,0,1-7.75-7.75V149.65A26.68,26.68,0,0,1,268.23,123h.67"/><path class="cls-13" d="M254.9,151.1a.06.06,0,0,1,0,0,24.12,24.12,0,0,0-2.22,10.16v37.29c0,1.91.06,3.82.2,5.73l.34,4.67c.87,12.07,10.45,22,22.54,22.55.4,0,.8,0,1.19,0h5.84"/><path class="cls-13" d="M277.75,137h-.81a24.28,24.28,0,0,0-22,14"/><path class="cls-13" d="M328.27,160.12a24.25,24.25,0,0,0-23.06-23.06"/><path class="cls-13" d="M298.19,231.56H304a24.26,24.26,0,0,0,24.27-24.27V192.81"/><line class="cls-13" x1="298.19" y1="231.56" x2="282.78" y2="231.56"/><path class="cls-13" d="M277.75,137H304c.42,0,.84,0,1.26,0a24.34,24.34,0,0,1,23.06,23.06c0,.41,0,.83,0,1.25v11.57H286a32.43,32.43,0,0,1-14.3-3.33,26.66,26.66,0,0,1-10.13-8.84l-6.69-9.63a.06.06,0,0,0,0,0l0,0a28.24,28.24,0,0,1,4.38-6.16A25.09,25.09,0,0,1,277.75,137Z"/><path class="cls-13" d="M268.9,123v.06h45.39V91.58a22.7,22.7,0,0,0-45.39,0Z"/><line class="cls-13" x1="273.43" y1="92.37" x2="275.68" y2="92.37"/><line class="cls-13" x1="306.89" y1="92.37" x2="309.14" y2="92.37"/><line class="cls-13" x1="275.74" y1="83.6" x2="277.7" y2="84.7"/><line class="cls-13" x1="305.24" y1="85.39" x2="307.25" y2="84.37"/><line class="cls-13" x1="301.35" y1="80.45" x2="302.81" y2="78.73"/><line class="cls-13" x1="282" y1="77.11" x2="283.18" y2="79.04"/><line class="cls-13" x1="296.09" y1="75.17" x2="295.49" y2="77.34"/><line class="cls-13" x1="289.28" y1="74.63" x2="289.53" y2="76.86"/><path class="cls-13" d="M287.2,110.33H286a20.54,20.54,0,0,0-.13-2.23,10.21,10.21,0,0,0-2.81-5.82,11.57,11.57,0,0,1-3.18-6.34A11,11,0,0,1,282,87.32a12.21,12.21,0,0,1,7.1-4.85c.82-.2,1.67-.25,2.35-.35,5.25.3,9.06,2.61,11.05,7.35,1.92,4.56,1.08,8.83-2.16,12.57a11.94,11.94,0,0,0-2.88,5.3c-.16.72-.34,2.25-.41,3h-.85"/><path class="cls-13" d="M287.44,115.56h-.24a2.46,2.46,0,0,1-2.45-2.46v-.31a2.46,2.46,0,0,1,2.45-2.46h9a2.46,2.46,0,0,1,2.46,2.46v.31a2.46,2.46,0,0,1-2.46,2.46h-.07"/><path class="cls-13" d="M296.11,115.56a2.62,2.62,0,0,1,0,5.23h-8.67a2.63,2.63,0,0,1-2.62-2.62,2.59,2.59,0,0,1,.78-1.84,2.56,2.56,0,0,1,1.84-.77Z"/><line class="cls-13" x1="291.6" y1="110.33" x2="291.6" y2="97.05"/><line class="cls-13" x1="304.87" y1="101.75" x2="306.84" y2="102.86"/><line class="cls-13" x1="275.32" y1="102.08" x2="277.33" y2="101.07"/><path class="cls-13" d="M291.41,95.84A2.43,2.43,0,1,1,289,93.41,2.43,2.43,0,0,1,291.41,95.84Z"/><path class="cls-13" d="M296.47,95.87A2.44,2.44,0,1,1,294,93.44,2.43,2.43,0,0,1,296.47,95.87Z"/><path class="cls-13" d="M193.92,299.07l-2.21,9.37a27.73,27.73,0,0,0,27,34.07H357a24.73,24.73,0,0,0,24.08-30.39l-10.33-43.9c-5.36-21.08-16.39-36.59-36.6-36.59H240.94c-18.69,0-32.67,12.5-38.49,31.75"/><rect class="cls-13" x="350.52" y="119.92" width="66.39" height="44.46" rx="8.13"/><path class="cls-13" d="M350.88,211.66A23.13,23.13,0,1,0,374,188.52,23.13,23.13,0,0,0,350.88,211.66Z"/><polyline class="cls-14" points="395.22 255.1 395.22 260.29 395.22 265.48"/><polyline class="cls-14" points="390.04 260.29 395.22 260.29 400.4 260.29"/><path class="cls-13" d="M202.45,263.38A18.24,18.24,0,0,0,196,262.2H169a18.44,18.44,0,0,0,0,36.87h27a18.44,18.44,0,0,0,6.46-35.69Z"/><path class="cls-13" d="M362.93,133.22h43.73a2.85,2.85,0,0,0,0-5.7H362.93a2.84,2.84,0,0,0-2,4.86A2.8,2.8,0,0,0,362.93,133.22Z"/><path class="cls-13" d="M367.57,205.41v3.06c0,2.05,1.62,3.8,3.93,4.55A3.19,3.19,0,0,1,374,215.8"/><path class="cls-13" d="M380.44,205.41v3.06c0,2.05-1.62,3.8-3.92,4.55A3.19,3.19,0,0,0,374,215.8V222"/><path class="cls-13" d="M365.17,202.93a2.34,2.34,0,1,0,2.34-2.34A2.33,2.33,0,0,0,365.17,202.93Z"/><path class="cls-13" d="M371.68,224.53a2.33,2.33,0,1,0,2.33-2.34A2.34,2.34,0,0,0,371.68,224.53Z"/><path class="cls-13" d="M378.18,202.93a2.34,2.34,0,1,0,2.33-2.34A2.33,2.33,0,0,0,378.18,202.93Z"/><path class="cls-13" d="M401.22,154.8a1.73,1.73,0,0,0,1.18-.44l6.51-5.75a1.8,1.8,0,0,0,.6-1.32,1.78,1.78,0,0,0-.58-1.32l-6.36-5.75a1.76,1.76,0,0,0-2.5.12,1.78,1.78,0,0,0,.12,2.51l4.89,4.41-5,4.44a1.77,1.77,0,0,0,1.17,3.1Z"/><path class="cls-13" d="M386.27,140,394,156.66a1.69,1.69,0,0,0,2.11.52,1.72,1.72,0,0,0,1-1.55,1.63,1.63,0,0,0-.16-.71l-7.77-16.72a1.7,1.7,0,0,0-2.26-.82,1.59,1.59,0,0,0-.93,1.51A2.55,2.55,0,0,0,386.27,140Z"/><path class="cls-13" d="M381.73,154.8a1.76,1.76,0,0,1-1.17-.44l-6.51-5.75a1.8,1.8,0,0,1-.6-1.32A1.75,1.75,0,0,1,374,146l6.35-5.75a1.76,1.76,0,0,1,2.5.12,1.78,1.78,0,0,1-.12,2.51l-4.88,4.41,5,4.44a1.77,1.77,0,0,1,.15,2.5A1.73,1.73,0,0,1,381.73,154.8Z"/><path class="cls-13" d="M358.2,144h7.65a2.37,2.37,0,0,0,0-4.74H358.2a2.37,2.37,0,0,0,0,4.74Z"/><path class="cls-13" d="M358,153.8h7.66a2.38,2.38,0,0,0,2.37-2.37,2.32,2.32,0,0,0-.7-1.67,2.36,2.36,0,0,0-1.67-.7H358a2.37,2.37,0,0,0,0,4.74Z"/><rect class="cls-13" x="221.81" y="247.14" width="129.07" height="79.07"/><circle class="cls-13" cx="286.34" cy="286.68" r="9.52"/><path class="cls-13" d="M349.85,182.61a3.84,3.84,0,1,0,3.85-3.85A3.83,3.83,0,0,0,349.85,182.61Z"/><circle class="cls-13" cx="252.67" cy="112.41" r="5.76"/><path class="cls-13" d="M231.06,217.53a3.84,3.84,0,1,0,3.84-3.84A3.83,3.83,0,0,0,231.06,217.53Z"/><path class="cls-13" d="M192.23,275.19h6.58a2.87,2.87,0,0,0,2.86-2.86,2.87,2.87,0,0,0-2.86-2.85h-6.58a2.85,2.85,0,0,0-2,4.87A2.8,2.8,0,0,0,192.23,275.19Z"/><rect class="cls-13" x="177.16" y="280.96" width="30.24" height="5.72" rx="2.25"/><path class="cls-13" d="M177.16,272.33a3.51,3.51,0,1,0,3.51-3.51A3.52,3.52,0,0,0,177.16,272.33Z"/><polyline class="cls-13" points="170.7 273.11 170.7 275.58 170.7 286.67"/><path class="cls-13" d="M170.7,275.58s0,5.74-8.54,5.07"/><path class="cls-13" d="M168.31,270.67a2.34,2.34,0,1,0,2.33-2.34A2.33,2.33,0,0,0,168.31,270.67Z"/><path class="cls-13" d="M157.43,280.08a2.34,2.34,0,1,0,2.34-2.33A2.34,2.34,0,0,0,157.43,280.08Z"/><path class="cls-13" d="M168.31,289a2.34,2.34,0,1,0,2.33-2.34A2.33,2.33,0,0,0,168.31,289Z"/><polyline class="cls-13" points="328.31 172.94 328.31 190.01 328.31 191.25 328.31 192.81"/><path class="cls-4" d="M319.82,208.93l.34-4.67c.14-1.9.21-3.8.21-5.71v-37.2a24.33,24.33,0,0,0-24.45-24.21h7.93a24.33,24.33,0,0,1,24.45,24.21v37.2c0,1.91-.07,3.81-.2,5.71l-.34,4.67a24.18,24.18,0,0,1-22.71,22.49q-.6,0-1.2,0h-7.93c.4,0,.8,0,1.19,0A24.18,24.18,0,0,0,319.82,208.93Z"/><path class="cls-4" d="M390.22,211.66a23.14,23.14,0,0,0-19.67-22.88,23.14,23.14,0,1,1,0,45.75A23.13,23.13,0,0,0,390.22,211.66Z"/><path class="cls-4" d="M287.82,69.21a22.42,22.42,0,0,1,3.78-.32h0a22.69,22.69,0,0,1,22.69,22.69v31.51h-7.55V91.58A22.69,22.69,0,0,0,287.82,69.21Z"/><path class="cls-4" d="M370.34,312.12,360,268.23c-5.36-21.08-16.39-36.6-36.6-36.6h10.7c20.21,0,31.24,15.52,36.6,36.6L381,312.12A24.72,24.72,0,0,1,357,342.51h-10.7A24.72,24.72,0,0,0,370.34,312.12Z"/><rect class="cls-3" x="214.43" y="326.21" width="145.55" height="16.29"/><rect class="cls-13" x="214.43" y="326.21" width="145.55" height="16.29"/><path class="cls-4" d="M193.92,299.07c10.14,0,20.51-8.22,20.51-18.36h0a18.26,18.26,0,0,0-1.83-8,18.4,18.4,0,0,1,6,13.61h0a18.48,18.48,0,0,1-18.43,18.43h-7.62"/><path class="cls-4" d="M404.32,156.25V128a8.16,8.16,0,0,0-8.13-8.13h12.59a8.16,8.16,0,0,1,8.13,8.13v28.21a8.16,8.16,0,0,1-8.13,8.13H396.19A8.16,8.16,0,0,0,404.32,156.25Z"/><path class="cls-4" d="M205.62,280.64h0a18.5,18.5,0,0,0-18.44-18.44H196a18.5,18.5,0,0,1,18.44,18.44h0A18.49,18.49,0,0,1,196,299.07h-8.81A18.49,18.49,0,0,0,205.62,280.64Z"/><rect class="cls-4" x="214.43" y="326.15" width="145.68" height="6.75" transform="translate(574.54 659.05) rotate(-180)"/><path class="cls-7" d="M143.33,393.23A80.36,80.36,0,1,1,63,473.59,80.35,80.35,0,0,1,143.33,393.23Zm70.35,80.36a70.35,70.35,0,1,0-70.35,70.34A70.34,70.34,0,0,0,213.68,473.59Z"/><circle class="cls-15" cx="143.33" cy="473.59" r="70.34"/><path class="cls-14" d="M223.68,473.59a80.36,80.36,0,1,1-80.35-80.36A80.36,80.36,0,0,1,223.68,473.59Z"/><circle class="cls-14" cx="143.33" cy="473.59" r="70.34"/><path class="cls-14" d="M151.13,280.2h-7A20.78,20.78,0,0,0,123.35,301v94.39"/><path class="cls-14" d="M132.75,553.94v27.89a14.09,14.09,0,0,0,14.09,14.1h30.83A14.09,14.09,0,0,1,191.76,610h0a14.1,14.1,0,0,0,14.1,14.1H316.59"/><line class="cls-14" x1="565.71" y1="617.71" x2="565.71" y2="628.08"/><line class="cls-14" x1="560.52" y1="622.89" x2="570.89" y2="622.89"/><path class="cls-5" d="M172.36,492.48a8.16,8.16,0,1,1-8.15,8.15A8.15,8.15,0,0,1,172.36,492.48Z"/><path class="cls-7" d="M175.22,465.8V492h-6V465.8c0-7.39-4.51-13.4-10.05-13.4h-7.66v-6h7.66C168,446.4,175.22,455.1,175.22,465.8Z"/><polygon class="cls-5" points="151.51 452.4 151.51 458.25 145.17 453.82 138.83 449.4 145.17 444.97 151.51 440.54 151.51 446.4 151.51 449.4 151.51 452.4"/><path class="cls-5" d="M118.48,443.48a8.15,8.15,0,1,1-8.15,8.15A8.15,8.15,0,0,1,118.48,443.48Z"/><path class="cls-5" d="M118.48,492.48a8.16,8.16,0,1,1-8.15,8.15A8.15,8.15,0,0,1,118.48,492.48Z"/><polygon class="cls-7" points="121.48 459.78 121.48 492.48 118.48 492.48 115.48 492.48 115.48 459.78 118.48 459.78 121.48 459.78"/><path class="cls-14" d="M126.64,451.63a8.16,8.16,0,1,1-8.16-8.15A8.15,8.15,0,0,1,126.64,451.63Z"/><path class="cls-14" d="M151.51,446.4h7.66c8.85,0,16.05,8.7,16.05,19.4V492h-6V465.8c0-7.39-4.51-13.4-10.05-13.4h-7.66"/><polygon class="cls-14" points="151.51 452.4 151.51 449.4 151.51 446.4 151.51 440.54 145.17 444.97 138.83 449.4 145.17 453.82 151.51 458.25 151.51 452.4"/><path class="cls-14" d="M126.64,500.63a8.16,8.16,0,1,1-8.16-8.15A8.16,8.16,0,0,1,126.64,500.63Z"/><path class="cls-14" d="M180.51,500.63a8.15,8.15,0,1,1-8.15-8.15A8.15,8.15,0,0,1,180.51,500.63Z"/><polygon class="cls-14" points="118.48 459.78 121.48 459.78 121.48 492.48 118.48 492.48 115.48 492.48 115.48 459.78 118.48 459.78"/><path class="cls-4" d="M143.33,403.24a70.36,70.36,0,0,0-9,.6,70.33,70.33,0,0,1,0,139.5,72.23,72.23,0,0,0,9,.59,70.35,70.35,0,0,0,0-140.69Z"/><g class="cls-16"><path class="cls-5" d="M423.65,361.66A155.3,155.3,0,1,1,268.42,517,155.3,155.3,0,0,1,423.65,361.66Z"/><path class="cls-14" d="M579,516.89A155.3,155.3,0,1,1,423.65,361.66,155.29,155.29,0,0,1,579,516.89Z"/><path class="cls-17" d="M603.33,637.36l0,30.17a14.11,14.11,0,0,1-14.1,14.1l-292.91.14a14.1,14.1,0,0,1-14.1-14.1l0-30.17a14.1,14.1,0,0,1,14.1-14.1l33.62,0,38.6,0h78.82l57.93,0h6.26v3.55h22.51v-3.55h2.6l52.57,0A14.11,14.11,0,0,1,603.33,637.36Z"/><path class="cls-8" d="M522,456a21.34,21.34,0,0,1,8-1.54H555a21.35,21.35,0,0,1,3.32.26c10.84,1.66,19.17,11.42,19.17,23.21,0,0,7.49,2.79,6.29,12.93,0,0,8.08,5.47,3.84,14.12,0,0,6.27,9.57-1.81,15,0,0,.6,3.84-2,5.41H570a19.21,19.21,0,0,0,.66-5v-36.5a19.26,19.26,0,0,0-19.27-19.25h-21.5a19.26,19.26,0,0,0-17.49,11.21h0a19.15,19.15,0,0,0-1.76,8.05l0,29.6c0,1.51.05,3,.16,4.54l.27,3.71a20,20,0,0,0,.61,3.65H501.22c-2.63-1.56-2-5.4-2-5.4-8.08-5.4-1.83-15-1.83-15-4.24-8.64,3.84-14.13,3.84-14.13-1.22-10.13,6.27-12.93,6.27-12.93A23.46,23.46,0,0,1,522,456Z"/><path class="cls-3" d="M474.31,608.93l0-51.85A15.59,15.59,0,0,0,458.7,541.5h-3.59v-1.07a19.23,19.23,0,0,0,12.65-15.06h43.93A19,19,0,0,0,529,539.59l.94,0h21.5A19.24,19.24,0,0,0,570,525.32h2.57a11.56,11.56,0,0,1,11.55,11.55l0,61.09a11.54,11.54,0,0,1-11.54,11.54l-38.57,0V593.7a11.26,11.26,0,1,0-22.51,0v15.82l-37.23,0Zm16-7.54a2.2,2.2,0,0,0-2.19-2.19h-8a2.2,2.2,0,0,0-2.19,2.19,2.19,2.19,0,0,0,2.19,2.19h8A2.2,2.2,0,0,0,490.33,601.39Z"/><path class="cls-18" d="M570.66,493.06v27.26a19.21,19.21,0,0,1-.66,5l-58.32,0a20,20,0,0,1-.61-3.65l-.27-3.71c-.11-1.51-.16-3-.16-4.54l0-29.6a19.15,19.15,0,0,1,1.76-8.05l5.31,7.64a21.43,21.43,0,0,0,8,7,25.73,25.73,0,0,0,11.35,2.63Zm-7.89,18.36a3,3,0,1,0-3,3.06A3,3,0,0,0,562.77,511.42Zm-34.82,0a3,3,0,1,0-3.05,3.05A3.06,3.06,0,0,0,528,511.44Z"/><path class="cls-8" d="M570.65,483.82v9.24l-33.56,0a25.73,25.73,0,0,1-11.35-2.63,21.43,21.43,0,0,1-8-7l-5.31-7.64h0a19.26,19.26,0,0,1,17.49-11.21h21.5A19.26,19.26,0,0,1,570.65,483.82Z"/><path class="cls-3" d="M511.69,525.35l58.32,0a19.24,19.24,0,0,1-18.59,14.28h-21.5l-.94,0A19,19,0,0,1,511.69,525.35Z"/><path class="cls-10" d="M559.72,508.39a3,3,0,1,1-3,3A3,3,0,0,1,559.72,508.39Z"/><path class="cls-3" d="M539.93,433.12l-6.17-6.56-.64.49a9.45,9.45,0,1,0,13,13.77l.63-.49Zm1.47-1.54a2.47,2.47,0,1,0-.67-1.68A2.42,2.42,0,0,0,541.4,431.58Zm17-2.76v25.32l-.07.53a21.35,21.35,0,0,0-3.32-.26H535.21v-9.23a2.89,2.89,0,1,0-5.78,0v9.23H530a21.34,21.34,0,0,0-8,1.54V428.83a18.24,18.24,0,0,1,36.48,0Z"/><path class="cls-17" d="M539.93,433.12l6.78,7.21-.63.49a9.45,9.45,0,1,1-13-13.77l.64-.49Z"/><path class="cls-17" d="M543.21,427.42a2.48,2.48,0,1,1-1.81,4.16,2.42,2.42,0,0,1-.67-1.68A2.48,2.48,0,0,1,543.21,427.42Z"/><path class="cls-17" d="M535.21,445.19v9.23h-5.78v-9.23a2.91,2.91,0,0,1,.84-2,2.9,2.9,0,0,1,4.94,2Z"/><rect class="cls-17" x="511.55" y="623.29" width="22.51" height="3.55"/><polygon class="cls-7" points="534.05 609.52 534.06 623.29 511.55 623.3 511.55 617.45 511.54 609.53 534.05 609.52"/><path class="cls-7" d="M534,593.7v15.82H511.54V593.71a11.26,11.26,0,0,1,22.51,0Zm-4.47.62a6.79,6.79,0,1,0-6.78,6.79A6.79,6.79,0,0,0,529.57,594.32Z"/><circle class="cls-3" cx="522.78" cy="594.32" r="6.79"/><path class="cls-10" d="M524.89,508.4a3,3,0,1,1-3,3A3.06,3.06,0,0,1,524.89,508.4Z"/><polygon class="cls-8" points="474.31 617.47 510.69 617.45 511.55 617.45 511.55 623.3 505.29 623.3 447.36 623.33 447.36 617.48 459.69 617.47 474.31 617.47"/><path class="cls-3" d="M489.68,599.84a2.19,2.19,0,0,1-1.54,3.74h-8a2.19,2.19,0,0,1-2.19-2.19,2.2,2.2,0,0,1,2.19-2.19h8A2.19,2.19,0,0,1,489.68,599.84Z"/><path class="cls-8" d="M483.55,525.36H467.76a19,19,0,0,0,.26-3.13v-36.5a19.25,19.25,0,0,0-19.26-19.25h-21.5A19.24,19.24,0,0,0,408,484.94c0,.27,0,.55,0,.83l0,31.87,0,.22c-.21,9.38,6.46,9.59,6.46,9.59h-10a6.86,6.86,0,0,1-6.87-6.86l0-43.14a27.63,27.63,0,0,1,1.71-9.57c.12-.33.24-.65.38-1a23.63,23.63,0,0,1,21.65-14.08h28a20.62,20.62,0,0,1,3.51.3,11.58,11.58,0,0,1,1.15.21c24.51,5.5,23.06,31,23.06,31l0,31.47C476.88,525.13,483.55,525.36,483.55,525.36Z"/><path class="cls-7" d="M474.31,609.55v7.92H459.69v-4.13a7.51,7.51,0,0,0-1.37-4.33l2-.08H463a11.47,11.47,0,0,0,3.72.62Z"/><path class="cls-7" d="M474.31,608.93v.62h-7.63a11.47,11.47,0,0,1-3.72-.62Z"/><path class="cls-3" d="M474.29,557.08l0,51.85H463A11.54,11.54,0,0,1,455.14,598l0-56.51h3.59A15.59,15.59,0,0,1,474.29,557.08Zm-.11,44.06a2.37,2.37,0,1,0-2.37,2.37A2.37,2.37,0,0,0,474.18,601.14Z"/><circle class="cls-3" cx="471.81" cy="601.14" r="2.37"/><path class="cls-9" d="M468,496.38v25.86a19,19,0,0,1-.26,3.13h-1.12a11.53,11.53,0,0,0-11.53,11.55v3.51a19.27,19.27,0,0,1-6.34,1.08h-21.5a19.3,19.3,0,0,1-18.57-14h5.78s-6.67-.21-6.46-9.59l0-.22,0-31.87c0-.28,0-.56,0-.83h2.44a6.86,6.86,0,0,1,6.86,6.85v4.61Zm-4.37,17.07a3,3,0,1,0-3.05,3A3,3,0,0,0,463.64,513.45Zm-36.11-.22a3,3,0,1,0-3,3A3,3,0,0,0,427.53,513.23Z"/><path class="cls-8" d="M468,485.74v10.64l-50.7,0v-4.61a6.86,6.86,0,0,0-6.86-6.85H408a19.24,19.24,0,0,1,19.23-18.44h21.5A19.25,19.25,0,0,1,468,485.74Z"/><path class="cls-3" d="M466.64,525.37h1.12a19.23,19.23,0,0,1-12.65,15.06v-3.51A11.53,11.53,0,0,1,466.64,525.37Z"/><path class="cls-10" d="M460.59,510.4a3,3,0,1,1-3,3.05A3,3,0,0,1,460.59,510.4Z"/><path class="cls-7" d="M463,608.93h-2.64l-2,.08a7.46,7.46,0,0,0-6.14-3.18H444v5h-.58l0-58.84-40.79,0a15.61,15.61,0,0,1,14.72-10.47h37.78l0,56.51A11.54,11.54,0,0,0,463,608.93Z"/><path class="cls-9" d="M459.69,613.34v4.13H447.35v-6.67H444v-1.25l14.31-.55A7.51,7.51,0,0,1,459.69,613.34Z"/><path class="cls-9" d="M458.32,609l-14.31.55v-3.73h8.17A7.46,7.46,0,0,1,458.32,609Z"/><path class="cls-3" d="M436.57,432.09l-6.17-6.55-.64.49a9.45,9.45,0,1,0,13,13.77l.63-.49Zm1.34-1.39a2.47,2.47,0,1,0,1.88-4.08,2.48,2.48,0,0,0-2.48,2.48A2.45,2.45,0,0,0,437.91,430.7Zm17.15-3.15v25.33l-2.22.25a20.62,20.62,0,0,0-3.51-.3h-28a23.31,23.31,0,0,0-2.78.16V427.57a18.24,18.24,0,0,1,36.48,0Zm-23.21,24.82v-8.2a2.89,2.89,0,1,0-5.78,0v8.2Z"/><polygon class="cls-3" points="447.36 617.48 447.36 623.33 426.19 623.34 421.02 623.34 421.01 610.82 443.43 610.81 444.01 610.81 444.01 617.48 447.36 617.48"/><rect class="cls-3" x="444.01" y="610.81" width="3.34" height="6.67"/><path class="cls-3" d="M421,605.84H401.78V587.41a7.62,7.62,0,0,0,0-6.38V557.11a15.71,15.71,0,0,1,.85-5.12l40.79,0,0,58.84H421Z"/><path class="cls-15" d="M436.57,432.09l6.78,7.22-.63.49a9.45,9.45,0,1,1-13-13.77l.64-.49Z"/><path class="cls-15" d="M437.91,430.7a2.45,2.45,0,0,1-.6-1.6,2.48,2.48,0,1,1,2.48,2.47A2.45,2.45,0,0,1,437.91,430.7Z"/><path class="cls-15" d="M431.85,444.17v8.2h-5.78v-8.2a2.89,2.89,0,0,1,5.78,0Z"/><path class="cls-10" d="M424.49,510.18a3.05,3.05,0,1,1-3.05,3.05A3,3,0,0,1,424.49,510.18Z"/><path class="cls-3" d="M421,610.82v12.52H394.15a10,10,0,0,1-10-10v-2.56Z"/><path class="cls-3" d="M421,605.84v5l-36.84,0V584.23h3a7.66,7.66,0,0,0,14.63,3.18v18.44H421Z"/><path class="cls-7" d="M403.78,541.53h13.55A15.61,15.61,0,0,0,402.61,552H386.42A19.61,19.61,0,0,1,403.78,541.53Z"/><path class="cls-3" d="M395,552h7.58a15.71,15.71,0,0,0-.85,5.12v1h-.16a.6.6,0,0,0-.21-.46l-1.34-1.25a2.2,2.2,0,0,0,.05-1.85l1.37-1.2a.63.63,0,0,0-.84-.93l-1.3,1.14a2.28,2.28,0,0,0-2.56-.11l-1.43-1.34A.64.64,0,0,0,395,552Z"/><path class="cls-19" d="M401.77,581a7.62,7.62,0,0,1,0,6.38Z"/><path class="cls-5" d="M401.77,581v6.38a7.66,7.66,0,1,1,0-6.38Z"/><path class="cls-3" d="M401.76,558.14V581a7.66,7.66,0,0,0-14.63,3.2h-3V561.18a19.56,19.56,0,0,1,2.27-9.18h8.37a.67.67,0,0,0-.34.2.62.62,0,0,0,.06.88l1.41,1.33a2.19,2.19,0,0,0-.27,1.05,2.27,2.27,0,0,0,.32,1.16l-1.33,1.21a.64.64,0,0,0,0,.89.6.6,0,0,0,.46.21.67.67,0,0,0,.42-.16l1.4-1.28a2.2,2.2,0,0,0,1.08.28,2.35,2.35,0,0,0,1.28-.38l1.31,1.23a.61.61,0,0,0,.42.16.64.64,0,0,0,.47-.21.61.61,0,0,0,.16-.42Z"/><path class="cls-3" d="M401.51,552.49a.62.62,0,0,1,0,.89l-1.37,1.2a2.2,2.2,0,0,1-.05,1.85l1.34,1.25a.6.6,0,0,1,.21.46.61.61,0,0,1-.16.42.64.64,0,0,1-.47.21.61.61,0,0,1-.42-.16l-1.31-1.23a2.35,2.35,0,0,1-1.28.38,2.2,2.2,0,0,1-1.08-.28l-1.4,1.28a.67.67,0,0,1-.42.16.6.6,0,0,1-.46-.21.64.64,0,0,1,0-.89l1.33-1.21a2.27,2.27,0,0,1-.32-1.16,2.19,2.19,0,0,1,.27-1.05l-1.41-1.33a.62.62,0,0,1-.06-.88.67.67,0,0,1,.34-.2H395a.64.64,0,0,1,.31.15l1.43,1.34a2.28,2.28,0,0,1,2.56.11l1.3-1.14A.63.63,0,0,1,401.51,552.49Z"/><path class="cls-10" d="M395,552h0Z"/><path class="cls-3" d="M394.15,623.35H368.54V610.84h15.64v2.56A10,10,0,0,0,394.15,623.35Z"/><path class="cls-3" d="M367.64,552h18.78a19.56,19.56,0,0,0-2.27,9.18v49.66H368.53V609l0-51.85A15.21,15.21,0,0,0,367.64,552Z"/><path class="cls-3" d="M368.53,610.84v12.52l-38.6,0v-8.57l15.69,1.87v-4.14a7.81,7.81,0,0,0-.19-1.69h23.1Z"/><rect class="cls-3" x="345.62" y="608.98" width="22.91" height="1.87"/><path class="cls-3" d="M368.51,557.12l0,51.85H345.62v-9.71h7a5.46,5.46,0,0,0,5.46-5.47V570.18a5.47,5.47,0,0,0-5.47-5.48h-7V552h22.05A15.21,15.21,0,0,1,368.51,557.12Z"/><path class="cls-7" d="M367.64,552H345.59V564.7l-25.07,0a5.47,5.47,0,0,0-5.47,5.48v23.62a5.49,5.49,0,0,0,5.48,5.47l25.07,0V609h-.9A7.51,7.51,0,0,0,338.1,605h-8.17l-33.93,0,0-47.9a15.58,15.58,0,0,1,15.57-15.59h1.88l39.49,0A15.58,15.58,0,0,1,367.64,552Z"/><path class="cls-8" d="M303.87,477.41a19,19,0,0,0-1.77,8v23.27h-.89a5.28,5.28,0,0,1-5.29-5.29V479.52A23.47,23.47,0,0,1,319.38,456l24.56,0a23.47,23.47,0,0,1,23.48,23.46V503.4a5.3,5.3,0,0,1-5.3,5.31V485.44a19.24,19.24,0,0,0-19.26-19.25h-21.5A19.26,19.26,0,0,0,303.87,477.41Z"/><path class="cls-20" d="M362.13,508.71v13.23a19.26,19.26,0,0,1-19.25,19.28h-21.5c-.32,0-.63,0-.94,0a19.14,19.14,0,0,1-17.9-17.89l-.27-3.71c-.11-1.51-.16-3-.16-4.55V485.46a19,19,0,0,1,1.77-8l5.3,7.63a21.36,21.36,0,0,0,8.05,7,25.73,25.73,0,0,0,11.35,2.63h33.56Zm-4.37,4.44a3,3,0,1,0-3,3.05A3,3,0,0,0,357.76,513.15Zm-36.1-.23a3.05,3.05,0,1,0-3.05,3.06A3,3,0,0,0,321.66,512.92Z"/><path class="cls-8" d="M362.12,485.44v9.24H328.57a25.73,25.73,0,0,1-11.35-2.63,21.36,21.36,0,0,1-8.05-7l-5.3-7.63a19.26,19.26,0,0,1,17.49-11.22h21.5A19.24,19.24,0,0,1,362.12,485.44Z"/><path class="cls-3" d="M358.1,570.18V593.8a5.46,5.46,0,0,1-5.46,5.47h-7l0-34.57h7A5.47,5.47,0,0,1,358.1,570.18Z"/><path class="cls-10" d="M354.72,510.1a3.05,3.05,0,1,1-3.05,3A3,3,0,0,1,354.72,510.1Z"/><path class="cls-3" d="M349.89,430.43v25.32l-36.48,0V430.45a18.24,18.24,0,0,1,36.48,0Zm-11.28,10.24a9.14,9.14,0,0,0,1.74-10.11c-1.6-3.81-4.66-5.66-8.87-5.9-.55.08-1.24.12-1.9.28a9.81,9.81,0,0,0-5.71,3.9,8.92,8.92,0,0,0-1.7,6.92,9.38,9.38,0,0,0,2.56,5.1,8.18,8.18,0,0,1,2.27,4.67c.09.6.08,1.2.11,1.8h1.1a2.1,2.1,0,0,0,0,4.2,2.14,2.14,0,0,0-1.42.62,2.08,2.08,0,0,0-.61,1.48,2.1,2.1,0,0,0,2.1,2.1h7a2.11,2.11,0,0,0,1.49-.62,2.08,2.08,0,0,0,.61-1.48,1.51,1.51,0,1,1-.68-2.72,2.09,2.09,0,0,0-1.48-3.58h.8c.06-.6.2-1.82.33-2.41A9.52,9.52,0,0,1,338.61,440.67Z"/><path class="cls-3" d="M345.62,612.54v4.14l-15.69-1.87v-3.95h15.5A7.81,7.81,0,0,1,345.62,612.54Z"/><path class="cls-8" d="M345.6,564.7l0,34.57-25.07,0a5.49,5.49,0,0,1-5.48-5.47V570.2a5.47,5.47,0,0,1,5.47-5.48Zm-4.39,17c.2,0,.26-.11.25-.32,0-.57,0-1.15,0-1.73,0-.26-.1-.33-.33-.37l-2.15-.34a.41.41,0,0,1-.26-.22c-.21-.64-.3-.93-.49-1.39a.53.53,0,0,1,.17-.67c.53-.54,1.05-1.09,1.58-1.65l-1.41-1.89c-.73.39-1.45.76-2.15,1.15a.34.34,0,0,1-.44,0c-.42-.31-.84-.62-1.28-.91a.34.34,0,0,1-.16-.4c.11-.74.2-1.47.29-2.2,0-.08-.05-.23-.11-.25l-2-.66c-.4.77-.77,1.5-1.15,2.21a.41.41,0,0,1-.31.2c-.5,0-1,0-1.5,0a.47.47,0,0,1-.51-.3c-.36-.69-.73-1.38-1.11-2.08l-2.19.73c.13.78.23,1.54.37,2.28a.51.51,0,0,1-.24.62,12.56,12.56,0,0,0-1.1.82.47.47,0,0,1-.59,0c-.61-.31-1.22-.61-1.85-.9-.09-.05-.29-.06-.34,0-.42.57-.82,1.17-1.24,1.76.57.57,1.12,1.13,1.69,1.67a.44.44,0,0,1,.12.56c-.16.45-.3.91-.43,1.37a.41.41,0,0,1-.37.34c-.7.12-1.39.26-2.09.37-.24,0-.3.14-.29.36,0,.56,0,1.13,0,1.69,0,.26.1.34.32.37.71.11,1.42.23,2.13.32a.31.31,0,0,1,.31.26c.14.45.28.9.45,1.33a.55.55,0,0,1-.15.71c-.54.53-1.05,1.09-1.59,1.66l1.41,1.87c.73-.39,1.45-.76,2.15-1.15a.35.35,0,0,1,.44,0c.42.31.84.62,1.27.91a.35.35,0,0,1,.17.41c-.11.73-.2,1.46-.29,2.2a.28.28,0,0,0,.11.24l2,.66c.4-.77.76-1.5,1.15-2.21a.44.44,0,0,1,.31-.2c.5,0,1,0,1.5,0a.48.48,0,0,1,.51.3c.35.7.73,1.38,1.11,2.09l2.19-.74c-.13-.78-.23-1.54-.38-2.28a.57.57,0,0,1,.27-.64,12.05,12.05,0,0,0,1.08-.8.47.47,0,0,1,.59,0c.61.32,1.22.61,1.84.9.1,0,.3.06.34,0,.43-.58.84-1.16,1.26-1.76-.58-.57-1.12-1.14-1.69-1.67a.47.47,0,0,1-.13-.57c.17-.45.31-.91.44-1.37a.39.39,0,0,1,.37-.33C339.8,582,340.5,581.81,341.21,581.7Z"/><path class="cls-20" d="M344.72,609a7.15,7.15,0,0,1,.71,1.87h-15.5V605h8.17A7.51,7.51,0,0,1,344.72,609Z"/><path class="cls-15" d="M341.46,581.38c0,.21,0,.28-.25.32-.71.11-1.41.25-2.12.37a.39.39,0,0,0-.37.33c-.13.46-.27.92-.44,1.37a.47.47,0,0,0,.13.57c.57.53,1.11,1.1,1.69,1.67-.42.6-.83,1.18-1.26,1.76,0,.05-.24,0-.34,0-.62-.29-1.23-.58-1.84-.9a.47.47,0,0,0-.59,0,12.05,12.05,0,0,1-1.08.8.57.57,0,0,0-.27.64c.15.74.25,1.5.38,2.28l-2.19.74c-.38-.71-.76-1.39-1.11-2.09a.48.48,0,0,0-.51-.3c-.5,0-1,0-1.5,0a.44.44,0,0,0-.31.2c-.39.71-.75,1.44-1.15,2.21l-2-.66a.28.28,0,0,1-.11-.24c.09-.74.18-1.47.29-2.2a.35.35,0,0,0-.17-.41c-.43-.29-.85-.6-1.27-.91a.35.35,0,0,0-.44,0c-.7.39-1.42.76-2.15,1.15L321,586.24c.54-.57,1.05-1.13,1.59-1.66a.55.55,0,0,0,.15-.71c-.17-.43-.31-.88-.45-1.33a.31.31,0,0,0-.31-.26c-.71-.09-1.42-.21-2.13-.32-.22,0-.33-.11-.32-.37,0-.56,0-1.13,0-1.69,0-.22,0-.32.29-.36.7-.11,1.39-.25,2.09-.37a.41.41,0,0,0,.37-.34c.13-.46.27-.92.43-1.37a.44.44,0,0,0-.12-.56c-.57-.54-1.12-1.1-1.69-1.67.42-.59.82-1.19,1.24-1.76.05-.06.25-.05.34,0,.63.29,1.24.59,1.85.9a.47.47,0,0,0,.59,0,12.56,12.56,0,0,1,1.1-.82.51.51,0,0,0,.24-.62c-.14-.74-.24-1.5-.37-2.28l2.19-.73c.38.7.75,1.39,1.11,2.08a.47.47,0,0,0,.51.3c.5,0,1,0,1.5,0a.41.41,0,0,0,.31-.2c.38-.71.75-1.44,1.15-2.21l2,.66c.06,0,.12.17.11.25-.09.73-.18,1.46-.29,2.2a.34.34,0,0,0,.16.4c.44.29.86.6,1.28.91a.34.34,0,0,0,.44,0c.7-.39,1.42-.76,2.15-1.15L340,575c-.53.56-1.05,1.11-1.58,1.65a.53.53,0,0,0-.17.67c.19.46.28.75.49,1.39a.41.41,0,0,0,.26.22l2.15.34c.23,0,.34.11.33.37C341.43,580.23,341.44,580.81,341.46,581.38Zm-7.48.35a3.65,3.65,0,1,0-4.58,2.35A3.66,3.66,0,0,0,334,581.73Z"/><path class="cls-11" d="M331.62,447.33h-4.51c0-.6,0-1.2-.11-1.8a8.18,8.18,0,0,0-2.27-4.67,9.38,9.38,0,0,1-2.56-5.1,8.92,8.92,0,0,1,1.7-6.92,9.81,9.81,0,0,1,5.71-3.9c.66-.16,1.35-.2,1.9-.28,4.21.24,7.27,2.09,8.87,5.9a9.14,9.14,0,0,1-1.74,10.11,9.52,9.52,0,0,0-2.3,4.25c-.13.59-.27,1.81-.33,2.41h-4.36Zm3.9-11.62a2,2,0,1,0-1.95,2A2,2,0,0,0,335.52,435.71Zm-4.07,0a2,2,0,1,0-1.95,2A2,2,0,0,0,331.45,435.68Z"/><path class="cls-7" d="M335.24,451.53a2.11,2.11,0,0,1,2.1,2.1,2.08,2.08,0,0,1-.61,1.48,2.11,2.11,0,0,1-1.49.62h-7a2.1,2.1,0,0,1-2.1-2.1,2.08,2.08,0,0,1,.61-1.48,2.14,2.14,0,0,1,1.42-.62h7Z"/><path class="cls-7" d="M335.18,447.33a2.1,2.1,0,0,1,.06,4.2h-7a2.1,2.1,0,0,1,0-4.2h7Z"/><path class="cls-11" d="M333.57,433.76a2,2,0,1,1-2,1.95A2,2,0,0,1,333.57,433.76Z"/><path class="cls-8" d="M331.62,577.16a3.63,3.63,0,1,1-4.57,2.3A3.66,3.66,0,0,1,331.62,577.16Z"/><path class="cls-11" d="M329.5,433.73a2,2,0,1,1-1.95,1.95A2,2,0,0,1,329.5,433.73Z"/><path class="cls-7" d="M329.93,614.81v8.57l-33.62,0h-7.95a10,10,0,0,1-10-10l0-52.22a19.26,19.26,0,0,1,.27-3.25h0l.48.09a9.13,9.13,0,0,0,10.79-14.23l-.19-.42a16.67,16.67,0,0,1,1.64-.68,19.41,19.41,0,0,1,6.63-1.15h13.55A15.58,15.58,0,0,0,296,557.16l0,47.9,33.93,0v9.77Z"/><circle class="cls-10" cx="318.61" cy="512.93" r="3.05"/><path class="cls-8" d="M302.13,541.23v.34H298a19.41,19.41,0,0,0-6.63,1.15v-7.1h10.76Z"/><path class="cls-15" d="M295.91,512.51a3.16,3.16,0,1,1-3.16,3.15A3.15,3.15,0,0,1,295.91,512.51Z"/><path class="cls-8" d="M292.11,549a9.12,9.12,0,0,1-13,9.07l-.48-.09a19.56,19.56,0,0,1,11.08-14.56l.19.42A9.1,9.1,0,0,1,292.11,549Z"/><path class="cls-21" d="M512.39,475.8a19.15,19.15,0,0,0-1.76,8.05l0,29.6c0,1.51.05,3,.16,4.54l.27,3.71a20,20,0,0,0,.61,3.65"/><path class="cls-21" d="M570,525.32a19.21,19.21,0,0,0,.66-5v-36.5a19.26,19.26,0,0,0-19.27-19.25h-21.5a19.26,19.26,0,0,0-17.49,11.21"/><path class="cls-21" d="M558.43,454.14V428.82a18.24,18.24,0,1,0-36.48,0V456"/><path class="cls-21" d="M532.71,440.41a9.45,9.45,0,0,0,13.37.41l.63-.49-6.78-7.21-6.17-6.56-.64.49A9.45,9.45,0,0,0,532.71,440.41Z"/><path class="cls-21" d="M540.73,429.9a2.42,2.42,0,0,0,.67,1.68,2.47,2.47,0,1,0-.67-1.68Z"/><polyline class="cls-21" points="541.4 431.58 539.93 433.12 539.85 433.19"/><path class="cls-21" d="M535.21,454.42v-9.23a2.89,2.89,0,1,0-5.78,0v9.23H530"/><path class="cls-21" d="M512.39,475.79h0l5.31,7.64a21.43,21.43,0,0,0,8,7,25.73,25.73,0,0,0,11.35,2.63l33.56,0"/><path class="cls-14" d="M501.22,525.35c-2.63-1.56-2-5.4-2-5.4-8.08-5.4-1.83-15-1.83-15-4.24-8.64,3.84-14.13,3.84-14.13-1.22-10.13,6.27-12.93,6.27-12.93A23.46,23.46,0,0,1,522,456a21.34,21.34,0,0,1,8-1.54H555a21.35,21.35,0,0,1,3.32.26c10.84,1.66,19.17,11.42,19.17,23.21,0,0,7.49,2.79,6.29,12.93,0,0,8.08,5.47,3.84,14.12,0,0,6.27,9.57-1.81,15,0,0,.6,3.84-2,5.41H572.58"/><path class="cls-14" d="M345.62,599.27l-25.07,0a5.49,5.49,0,0,1-5.48-5.47V570.2a5.47,5.47,0,0,1,5.47-5.48l25.07,0"/><path class="cls-14" d="M340.1,586c-.42.6-.83,1.18-1.26,1.76,0,.05-.24,0-.34,0-.62-.29-1.23-.58-1.84-.9a.47.47,0,0,0-.59,0,12.05,12.05,0,0,1-1.08.8.57.57,0,0,0-.27.64c.15.74.25,1.5.38,2.28l-2.19.74c-.38-.71-.76-1.39-1.11-2.09a.48.48,0,0,0-.51-.3c-.5,0-1,0-1.5,0a.44.44,0,0,0-.31.2c-.39.71-.75,1.44-1.15,2.21l-2-.66a.28.28,0,0,1-.11-.24c.09-.74.18-1.47.29-2.2a.35.35,0,0,0-.17-.41c-.43-.29-.85-.6-1.27-.91a.35.35,0,0,0-.44,0c-.7.39-1.42.76-2.15,1.15L321,586.24c.54-.57,1.05-1.13,1.59-1.66a.55.55,0,0,0,.15-.71c-.17-.43-.31-.88-.45-1.33a.31.31,0,0,0-.31-.26c-.71-.09-1.42-.21-2.13-.32-.22,0-.33-.11-.32-.37,0-.56,0-1.13,0-1.69,0-.22,0-.32.29-.36.7-.11,1.39-.25,2.09-.37a.41.41,0,0,0,.37-.34c.13-.46.27-.92.43-1.37a.44.44,0,0,0-.12-.56c-.57-.54-1.12-1.1-1.69-1.67.42-.59.82-1.19,1.24-1.76.05-.06.25-.05.34,0,.63.29,1.24.59,1.85.9a.47.47,0,0,0,.59,0,12.56,12.56,0,0,1,1.1-.82.51.51,0,0,0,.24-.62c-.14-.74-.24-1.5-.37-2.28l2.19-.73c.38.7.75,1.39,1.11,2.08a.47.47,0,0,0,.51.3c.5,0,1,0,1.5,0a.41.41,0,0,0,.31-.2c.38-.71.75-1.44,1.15-2.21l2,.66c.06,0,.12.17.11.25-.09.73-.18,1.46-.29,2.2a.34.34,0,0,0,.16.4c.44.29.86.6,1.28.91a.34.34,0,0,0,.44,0c.7-.39,1.42-.76,2.15-1.15L340,575c-.53.56-1.05,1.11-1.58,1.65a.53.53,0,0,0-.17.67c.19.46.28.75.49,1.39a.41.41,0,0,0,.26.22l2.15.34c.23,0,.34.11.33.37,0,.58,0,1.16,0,1.73,0,.21,0,.28-.25.32-.71.11-1.41.25-2.12.37a.39.39,0,0,0-.37.33c-.13.46-.27.92-.44,1.37a.47.47,0,0,0,.13.57C339,584.87,339.52,585.44,340.1,586Z"/><path class="cls-14" d="M334,581.73a3.65,3.65,0,1,0-4.58,2.35A3.66,3.66,0,0,0,334,581.73Z"/><path class="cls-21" d="M455.11,540.43a19.27,19.27,0,0,1-6.34,1.08"/><path class="cls-21" d="M408,517.64l0-31.87c0-.28,0-.56,0-.83a19.24,19.24,0,0,1,19.23-18.44h21.5A19.25,19.25,0,0,1,468,485.74v36.5a19,19,0,0,1-.26,3.13"/><path class="cls-21" d="M386.42,552a19.61,19.61,0,0,1,17.36-10.47h13.55"/><path class="cls-21" d="M417.33,541.52A15.61,15.61,0,0,0,402.61,552"/><line class="cls-21" x1="417.33" y1="541.52" x2="419.21" y2="541.52"/><line class="cls-21" x1="427.27" y1="541.52" x2="419.21" y2="541.52"/><polyline class="cls-21" points="455.11 541.5 448.77 541.51 444.13 541.51"/><polyline class="cls-21" points="474.31 618.21 474.31 617.47 474.31 609.54"/><polyline class="cls-21" points="462.96 608.93 460.32 608.93 458.32 609.01"/><path class="cls-14" d="M483.55,525.36s-6.67-.23-6.47-9.6l0-31.47s1.45-25.45-23.06-31a11.58,11.58,0,0,0-1.15-.21,20.62,20.62,0,0,0-3.51-.3h-28a23.63,23.63,0,0,0-21.65,14.08c-.14.32-.26.64-.38,1a27.63,27.63,0,0,0-1.71,9.57l0,43.14a6.86,6.86,0,0,0,6.87,6.86h10s-6.67-.21-6.46-9.59"/><path class="cls-21" d="M468,496.38l-50.7,0v-4.61a6.86,6.86,0,0,0-6.86-6.85h-2.07"/><path class="cls-21" d="M455.07,452.88V427.55a18.24,18.24,0,0,0-36.48,0V452.9"/><path class="cls-21" d="M429.35,439.4a9.46,9.46,0,0,0,13.37.4l.63-.49-6.78-7.22-6.17-6.55-.64.49A9.46,9.46,0,0,0,429.35,439.4Z"/><path class="cls-21" d="M437.31,429.1a2.48,2.48,0,0,0,4.95,0,2.48,2.48,0,1,0-4.95,0Z"/><polyline class="cls-21" points="438.04 430.56 437.91 430.7 436.57 432.09 436.49 432.17"/><path class="cls-21" d="M445.59,429.1a5.81,5.81,0,0,0-5.8-5.81"/><path class="cls-21" d="M449.39,429.1a9.61,9.61,0,0,0-9.61-9.61"/><path class="cls-21" d="M426.07,452.38h5.78v-8.2a2.89,2.89,0,1,0-5.78,0Z"/><path class="cls-21" d="M408.7,527.47a19.3,19.3,0,0,0,18.57,14h16.86"/><path class="cls-14" d="M511.54,609.53l-37.23,0h-7.63A11.55,11.55,0,0,1,455.14,598l0-56.51v-4.58a11.53,11.53,0,0,1,11.53-11.55h45.05l58.32,0h2.57a11.56,11.56,0,0,1,11.55,11.55l0,61.09a11.54,11.54,0,0,1-11.54,11.54l-38.57,0"/><line class="cls-14" x1="447.36" y1="623.33" x2="505.29" y2="623.3"/><path class="cls-14" d="M536.66,623.29l52.57,0a14.11,14.11,0,0,1,14.1,14.1l0,30.17a14.11,14.11,0,0,1-14.1,14.1l-292.91.14a14.1,14.1,0,0,1-14.1-14.1l0-30.17a14.1,14.1,0,0,1,14.1-14.1"/><path class="cls-14" d="M511.55,623.3V593.71a11.26,11.26,0,0,1,22.51,0v29.59"/><circle class="cls-14" cx="522.78" cy="594.32" r="6.79"/><polyline class="cls-14" points="505.29 623.3 511.55 623.3 534.06 623.29 536.66 623.29"/><polyline class="cls-21" points="459.69 617.47 474.31 617.47 510.69 617.45"/><path class="cls-21" d="M444,610.81v-5h8.17a7.5,7.5,0,0,1,7.51,7.51v4.13H447.35"/><path class="cls-21" d="M329.94,623.38l-33.62,0h-7.95a10,10,0,0,1-10-10l0-52.22a19.26,19.26,0,0,1,.27-3.25h0a19.56,19.56,0,0,1,11.08-14.56,16.67,16.67,0,0,1,1.64-.68,19.41,19.41,0,0,1,6.63-1.15h13.55"/><path class="cls-21" d="M311.55,541.57A15.58,15.58,0,0,0,296,557.16l0,47.9,33.93,0"/><line class="cls-21" x1="311.55" y1="541.57" x2="313.43" y2="541.57"/><path class="cls-21" d="M367.64,552a15.58,15.58,0,0,0-14.72-10.45l-39.49,0"/><line class="cls-21" x1="345.62" y1="608.98" x2="344.72" y2="608.98"/><path class="cls-21" d="M329.93,610.86V605h8.17a7.51,7.51,0,0,1,6.62,3.94,7.15,7.15,0,0,1,.71,1.87"/><polyline class="cls-14" points="345.62 610.85 345.62 608.98 345.62 599.27 345.6 564.7 345.6 552.01 367.64 552 386.43 552 394.8 551.99 395.04 551.99 402.62 551.99 443.4 551.97 443.43 610.81"/><polygon class="cls-14" points="447.36 623.33 426.19 623.34 421.02 623.34 394.83 623.35 394.15 623.35 368.54 623.36 329.94 623.38 329.93 614.81 329.93 610.86 345.43 610.85 345.62 610.85 368.53 610.84 384.17 610.84 421.01 610.82 443.43 610.81 444.01 610.81 447.35 610.81 447.36 617.48 447.36 623.33"/><path class="cls-14" d="M401.77,581a7.62,7.62,0,0,1,0,6.38,7.66,7.66,0,1,1,0-6.38Z"/><path class="cls-21" d="M326,541.22h16.87a19.26,19.26,0,0,0,19.25-19.28v-36.5a19.24,19.24,0,0,0-19.26-19.25h-21.5a19.26,19.26,0,0,0-17.49,11.22,19,19,0,0,0-1.77,8v29.59c0,1.52.05,3,.16,4.55l.27,3.71a19.14,19.14,0,0,0,17.9,17.89c.31,0,.62,0,.94,0H326"/><path class="cls-21" d="M313.42,455.77l36.48,0V430.43a18.24,18.24,0,1,0-36.48,0Z"/><path class="cls-21" d="M303.86,477.4h0l5.3,7.63a21.36,21.36,0,0,0,8.05,7,25.73,25.73,0,0,0,11.35,2.63h33.56"/><polyline class="cls-14" points="291.37 542.73 291.37 535.63 295.95 535.63 302.13 535.62 302.13 541.23"/><line class="cls-14" x1="295.95" y1="535.63" x2="295.94" y2="519.32"/><path class="cls-14" d="M299.06,515.66a3.16,3.16,0,1,1-3.15-3.15A3.15,3.15,0,0,1,299.06,515.66Z"/><path class="cls-14" d="M328.21,447.33h-1.1c0-.6,0-1.2-.11-1.8a8.18,8.18,0,0,0-2.27-4.67,9.38,9.38,0,0,1-2.56-5.1,8.92,8.92,0,0,1,1.7-6.92,9.81,9.81,0,0,1,5.71-3.9c.66-.16,1.35-.2,1.9-.28,4.21.24,7.27,2.09,8.87,5.9a9.14,9.14,0,0,1-1.74,10.11,9.52,9.52,0,0,0-2.3,4.25c-.13.59-.27,1.81-.33,2.41h-.8"/><path class="cls-14" d="M328.21,451.53a2.1,2.1,0,0,1,0-4.2h7a2.1,2.1,0,0,1,.06,4.2"/><path class="cls-14" d="M335.24,451.53a2.11,2.11,0,0,1,2.1,2.1,2.08,2.08,0,0,1-.61,1.48,2.11,2.11,0,0,1-1.49.62h-7a2.1,2.1,0,0,1-2.1-2.1,2.08,2.08,0,0,1,.61-1.48,2.14,2.14,0,0,1,1.42-.62h7Z"/><line class="cls-14" x1="331.62" y1="447.33" x2="331.61" y2="436.66"/><path class="cls-14" d="M331.45,435.68a1.95,1.95,0,1,1-1.95-1.95A2,2,0,0,1,331.45,435.68Z"/><path class="cls-14" d="M335.52,435.71a2,2,0,1,1-1.95-1.95A2,2,0,0,1,335.52,435.71Z"/><line class="cls-14" x1="317.01" y1="434.28" x2="318.82" y2="434.28"/><line class="cls-14" x1="343.9" y1="434.26" x2="345.71" y2="434.26"/><line class="cls-14" x1="318.86" y1="427.23" x2="320.44" y2="428.12"/><line class="cls-14" x1="342.28" y1="440.44" x2="343.85" y2="441.32"/><line class="cls-14" x1="318.53" y1="440.71" x2="320.15" y2="439.9"/><line class="cls-14" x1="342.57" y1="428.66" x2="344.19" y2="427.84"/><line class="cls-14" x1="339.45" y1="423.7" x2="340.62" y2="422.31"/><line class="cls-14" x1="323.45" y1="421.02" x2="324.39" y2="422.56"/><line class="cls-14" x1="335.21" y1="419.46" x2="334.73" y2="421.2"/><line class="cls-14" x1="329.29" y1="419.02" x2="329.49" y2="420.82"/><path class="cls-14" d="M289.92,543.83a9.12,9.12,0,0,1-10.79,14.23"/><path class="cls-14" d="M302.11,508.73h-.89a5.28,5.28,0,0,1-5.29-5.29V479.52A23.47,23.47,0,0,1,319.38,456l24.56,0a23.47,23.47,0,0,1,23.48,23.46V503.4a5.3,5.3,0,0,1-5.3,5.31"/><path class="cls-21" d="M552.39,430.38a9.61,9.61,0,0,0-9.61-9.6"/><circle class="cls-1" cx="423.72" cy="516.96" r="155.3"/><path class="cls-7" d="M466.22,548.48a2.63,2.63,0,1,1-2.63,2.63A2.64,2.64,0,0,1,466.22,548.48Z"/><circle class="cls-7" cx="465.96" cy="537.95" r="2.37"/><path class="cls-7" d="M386.28,630.91a2.62,2.62,0,0,1,0,5.23h-3.51a2.62,2.62,0,1,1,0-5.23Z"/><path class="cls-7" d="M369.48,630.91a2.62,2.62,0,0,1,0,5.23H344a2.61,2.61,0,0,1-2.62-2.61,2.63,2.63,0,0,1,2.62-2.62Z"/><circle class="cls-14" cx="465.96" cy="537.95" r="2.37"/><path class="cls-14" d="M468.86,551.11a2.61,2.61,0,0,1-2.63,2.63,2.63,2.63,0,1,1,2.63-2.63Z"/><path class="cls-14" d="M369.48,636.14H344a2.61,2.61,0,0,1-2.62-2.61,2.63,2.63,0,0,1,2.62-2.62h25.51a2.62,2.62,0,0,1,0,5.23Z"/><path class="cls-14" d="M386.28,636.14h-3.51a2.62,2.62,0,1,1,0-5.23h3.51a2.62,2.62,0,0,1,0,5.23Z"/><path class="cls-4" d="M354.87,523.77l.27-3.71c.11-1.51.16-3,.16-4.54V486a19.34,19.34,0,0,0-19.44-19.23h6.31A19.32,19.32,0,0,1,361.59,486v29.55c0,1.51-.05,3-.16,4.54l-.27,3.7a19.2,19.2,0,0,1-18,17.88l-.95,0h-6.3c.31,0,.63,0,.94,0A19.2,19.2,0,0,0,354.87,523.77Z"/><path class="cls-4" d="M461.29,518.49,461,522.2a18.35,18.35,0,0,1-.6,3.48,4.27,4.27,0,0,1,1.76-.71,4.69,4.69,0,0,1,2-.42h.16a4.72,4.72,0,0,1,1.35-.2,5,5,0,0,1,1.32.18,20.15,20.15,0,0,0,.34-2.35l.27-3.7c.1-1.51.16-3,.16-4.54l0-29.55a19.32,19.32,0,0,0-19.43-19.23H442a19.34,19.34,0,0,1,19.44,19.23V514C461.45,515.47,461.4,517,461.29,518.49Z"/><path class="cls-4" d="M551.13,465.29h-6.31a19.33,19.33,0,0,1,19.44,19.22v29.56c0,1.51,0,3-.16,4.54l-.27,3.7a16.85,16.85,0,0,1-.38,2.48,4.65,4.65,0,0,1,1.77-.34,5,5,0,0,1,1.44.23l.3,0h.16a5.24,5.24,0,0,1,1.36-.2,4.87,4.87,0,0,1,1.31.19,16.63,16.63,0,0,0,.34-2.35l.27-3.71c.11-1.51.17-3,.17-4.54l0-29.55A19.33,19.33,0,0,0,551.13,465.29Z"/><rect class="cls-4" x="433.83" y="551.97" width="9.59" height="58.17"/><g class="cls-22"><path class="cls-4" d="M572.58,525.32h-20a11.55,11.55,0,0,1,11.55,11.54l0,61.09a11.55,11.55,0,0,1-11.54,11.55h20A11.55,11.55,0,0,0,584.16,598l0-61.09A11.55,11.55,0,0,0,572.58,525.32Z"/></g><path class="cls-4" d="M331.64,412.2h0a18.08,18.08,0,0,0-4.5.59,18.23,18.23,0,0,1,13.75,17.64v25.33h9V430.43A18.25,18.25,0,0,0,331.64,412.2Z"/><path class="cls-4" d="M436.05,409.64h0a18,18,0,0,0-4.5.58,18.22,18.22,0,0,1,13.74,17.65v25.32h9V427.86A18.22,18.22,0,0,0,436.05,409.64Z"/><path class="cls-4" d="M540.71,410.61h0a18.62,18.62,0,0,0-4.5.58A18.24,18.24,0,0,1,550,428.84v25.32h9V428.84A18.23,18.23,0,0,0,540.71,410.61Z"/></g><circle class="cls-14" cx="423.72" cy="516.96" r="155.3"/><path class="cls-4" d="M423.72,361.66c-5.06,0-10.07.25-15,.72a155.3,155.3,0,0,1,0,309.15c4.93.47,9.94.72,15,.72a155.3,155.3,0,0,0,0-310.59Z"/><path class="cls-5" d="M213.43,153.8a3.17,3.17,0,0,1,0,6.33H198.68a3.16,3.16,0,0,1-2.23-5.4,3.11,3.11,0,0,1,2.23-.93Z"/><path class="cls-13" d="M213.43,160.13H198.68a3.16,3.16,0,0,1-2.23-5.4,3.11,3.11,0,0,1,2.23-.93h14.75a3.17,3.17,0,0,1,0,6.33Z"/><polygon class="cls-5" points="123.35 317.56 132.2 317.56 127.77 323.9 123.35 330.24 118.92 323.9 114.49 317.56 123.35 317.56"/><polygon class="cls-14" points="123.35 317.56 114.49 317.56 118.92 323.9 123.35 330.24 127.77 323.9 132.2 317.56 123.35 317.56"/><polygon class="cls-5" points="123.71 358.09 132.56 358.09 128.13 364.43 123.71 370.77 119.28 364.43 114.85 358.09 123.71 358.09"/><polygon class="cls-14" points="123.71 358.09 114.85 358.09 119.28 364.43 123.71 370.77 128.13 364.43 132.56 358.09 123.71 358.09"/><polygon class="cls-5" points="132.75 566.1 141.6 566.1 137.17 572.44 132.75 578.78 128.32 572.44 123.89 566.1 132.75 566.1"/><polygon class="cls-14" points="132.75 566.1 123.89 566.1 128.32 572.44 132.75 578.78 137.17 572.44 141.6 566.1 132.75 566.1"/><polygon class="cls-5" points="221.21 624.11 221.21 615.26 227.55 619.69 233.89 624.11 227.55 628.54 221.21 632.97 221.21 624.11"/><polygon class="cls-14" points="221.21 624.11 221.21 632.97 227.55 628.54 233.89 624.11 227.55 619.69 221.21 615.26 221.21 624.11"/><polygon class="cls-5" points="268.1 624.39 268.1 615.54 274.44 619.98 280.78 624.39 274.44 628.83 268.1 633.25 268.1 624.39"/><polygon class="cls-14" points="268.1 624.39 268.1 633.25 274.44 628.83 280.78 624.39 274.44 619.98 268.1 615.54 268.1 624.39"/><circle class="cls-17" cx="253.79" cy="460.45" r="11.75"/><path class="cls-5" d="M477.6,349.25a4.75,4.75,0,1,1-4.75,4.75A4.75,4.75,0,0,1,477.6,349.25Z"/><path class="cls-21" d="M472.85,354a4.75,4.75,0,1,0,4.75-4.75A4.74,4.74,0,0,0,472.85,354Z"/><circle class="cls-21" cx="253.79" cy="460.45" r="11.75"/></g></g></svg>
