<svg height="40" viewBox="0 0 40 40" width="40" xmlns="http://www.w3.org/2000/svg"><g fill="none" fill-rule="nonzero"><rect fill="#171717" height="40" rx="6" width="40"/><path d="m14 0c-7.73144531 0-14 6.42702298-14 14.3539183 0 6.342918 4.011 11.722133 9.57457813 13.6197378.69983597.131428.95533597-.3118894.95533597-.6903618 0-.3416906-.0128243-1.4735755-.0196602-2.6720716-3.8930664.8673187-4.71594921-1.6926129-4.71594921-1.6926129-.6374375-1.6575692-1.55432813-2.0991204-1.55432813-2.0991204-1.27233203-.8901112.09652344-.8725893.09652344-.8725893 1.40563281.0998607 2.14566406 1.4788461 2.14566406 1.4788461 1.24928125 2.1937385 3.27783203 1.5594467 4.07421874 1.1914874.1272578-.9251549.4895625-1.5594467.8886719-1.9168929-3.10778126-.3626888-6.3770547-1.5944905-6.3770547-7.0946204 0-1.5682216.54602734-2.8472903 1.4398125-3.85217675-.14270703-.36445496-.62464062-1.82491008.13841406-3.80048022 0 0 1.17408594-.3854812 3.85032814 1.47183732 1.1159531-.31976717 2.3131172-.47746402 3.503418-.4827346 1.1894531.00527058 2.3874375.1647056 3.5051406.48447277 2.6711562-1.85905669 3.8469375-1.47183732 3.8469375-1.47183732.765625 1.97733635.2836914 3.43602526.1401367 3.79874205.8972031 1.00488645 1.4389648 2.28398315 1.4389648 3.85217675 0 5.5141474-3.274414 6.7283992-6.3932968 7.0841072.504164.4450556.9501953 1.3176449.9501953 2.656316 0 1.9186591-.0188125 3.4658264-.0188125 3.938917 0 .3819768.254625.8287706.9638672.6885956 5.5593398-1.9011092 9.5668945-7.2803242 9.5668945-13.6197378 0-7.92689532-6.2685547-14.3539183-14-14.3539183z" fill="#fff" transform="translate(6 6)"/></g></svg>