<svg enable-background="new 0 0 140 41" viewBox="0 0 140 41" xmlns="http://www.w3.org/2000/svg"><path clip-rule="evenodd" d="m6.5.5h127c3.3 0 6 2.7 6 6v28c0 3.3-2.7 6-6 6h-127c-3.3 0-6-2.7-6-6v-28c0-3.3 2.7-6 6-6z" fill="#fff" fill-rule="evenodd" stroke="#c7cacd"/><path d="m15.1 23.4c0 1.3-1 2.3-2.3 2.3s-2.3-1-2.3-2.3 1-2.3 2.3-2.3h2.3z" fill="#e01e5a"/><path d="m16.3 23.4c0-1.3 1-2.3 2.3-2.3s2.3 1 2.3 2.3v5.8c0 1.3-1 2.3-2.3 2.3s-2.3-1-2.3-2.3z" fill="#e01e5a"/><path d="m18.6 14.2c-1.3 0-2.3-1-2.3-2.3s1-2.3 2.3-2.3 2.3 1 2.3 2.3v2.3z" fill="#36c5f0"/><path d="m18.6 15.3c1.3 0 2.3 1 2.3 2.3s-1 2.3-2.3 2.3h-5.8c-1.3 0-2.3-1-2.3-2.3s1-2.3 2.3-2.3z" fill="#36c5f0"/><path d="m27.9 17.7c0-1.3 1-2.3 2.3-2.3s2.3 1 2.3 2.3-1 2.3-2.3 2.3h-2.3z" fill="#2eb67d"/><path d="m26.7 17.7c0 1.3-1 2.3-2.3 2.3s-2.3-1-2.3-2.3v-5.8c0-1.3 1-2.3 2.3-2.3s2.3 1 2.3 2.3z" fill="#2eb67d"/><path d="m24.4 26.9c1.3 0 2.3 1 2.3 2.3s-1 2.3-2.3 2.3-2.3-1-2.3-2.3v-2.3z" fill="#ecb22e"/><path d="m24.4 25.8c-1.3 0-2.3-1-2.3-2.3s1-2.3 2.3-2.3h5.8c1.3 0 2.3 1 2.3 2.3s-1 2.3-2.3 2.3z" fill="#ecb22e"/><path d="m47.5 23h-5l-1.2 3.2h-1.7l4.5-11.3h1.8l4.5 11.3h-1.7zm-4.5-1.4h3.9l-2-5.1z"/><path d="m56.7 25c-.4.7-1.2 1.4-2.4 1.4-2.3 0-3.6-1.8-3.6-4.1 0-2.2 1.5-4 3.6-4 1.4 0 2.1.7 2.4 1.3v-5h1.5v10.2c0 .7.1 1.3.1 1.4h-1.5c0-.2-.1-.6-.1-1zm-2.3.1c1.4 0 2.2-1.2 2.2-2.8s-.8-2.7-2.2-2.7-2.3 1.1-2.3 2.7c.1 1.6.9 2.8 2.3 2.8z"/><path d="m65.5 25c-.4.7-1.2 1.4-2.4 1.4-2.3 0-3.6-1.8-3.6-4.1 0-2.2 1.5-4 3.6-4 1.4 0 2.1.7 2.4 1.3v-5h1.5v10.2c0 .7.1 1.3.1 1.4h-1.5c0-.2-.1-.6-.1-1zm-2.3.1c1.4 0 2.2-1.2 2.2-2.8s-.8-2.7-2.2-2.7-2.3 1.1-2.3 2.7c.1 1.6.9 2.8 2.3 2.8z"/><path d="m74.7 18.5h1.7v1.4h-1.7v4c0 .7.3 1.1 1.1 1.1.2 0 .5 0 .6-.1v1.3c-.1 0-.5.1-1 .1-1.3 0-2.1-.8-2.1-2.2v-4.2h-1.5v-1.4h.4c.8 0 1.2-.5 1.2-1.2v-1.2h1.4v2.4z"/><path d="m84.8 22.3c0 2.4-1.6 4.1-3.9 4.1s-3.9-1.7-3.9-4.1c0-2.3 1.6-4.1 3.9-4.1 2.3.1 3.9 1.8 3.9 4.1zm-1.5 0c0-1.8-1.1-2.7-2.4-2.7s-2.4 1-2.4 2.7c0 1.8 1.1 2.8 2.4 2.8s2.4-1 2.4-2.8z"/><path d="m95.6 18.2c-.1-.6-.6-1.6-2.1-1.6-1.1 0-1.8.7-1.8 1.4 0 .6.4 1.1 1.2 1.3l1.6.3c2.1.4 3.2 1.7 3.2 3.3 0 1.7-1.5 3.5-4.1 3.5-3 0-4.3-1.9-4.5-3.6l2-.5c.1 1.1.9 2.1 2.5 2.1 1.2 0 1.8-.6 1.8-1.4 0-.7-.5-1.2-1.4-1.3l-1.6-.3c-1.8-.4-3-1.5-3-3.2 0-2 1.8-3.6 4-3.6 2.8 0 3.8 1.7 4.1 2.9z"/><path d="m99 26.2v-11.6h2.1v11.6z"/><path d="m104.7 21.7 1.9-.3c.4-.1.6-.3.6-.6 0-.6-.4-1-1.3-1s-1.4.6-1.5 1.3l-1.9-.4c.1-1.2 1.3-2.6 3.4-2.6 2.5 0 3.4 1.4 3.4 3v3.9c0 .4 0 1 .1 1.2h-2c0-.2-.1-.6-.1-.9-.4.6-1.2 1.2-2.3 1.2-1.7 0-2.7-1.1-2.7-2.4 0-1.5 1.1-2.2 2.4-2.4zm2.5 1.3v-.4l-1.8.3c-.5.1-1 .4-1 1 0 .5.3.9 1 .9 1 0 1.8-.4 1.8-1.8z"/><path d="m112.5 22.3c0 1.4.9 2.2 2 2.2s1.6-.7 1.8-1.3l1.9.6c-.4 1.3-1.6 2.7-3.7 2.7-2.3 0-4.1-1.8-4.1-4.2s1.8-4.2 4.1-4.2c2.1 0 3.4 1.3 3.7 2.7l-1.9.6c-.2-.7-.7-1.3-1.7-1.3-1.2 0-2.1.7-2.1 2.2z"/><path d="m123.7 21.6 3.2 4.6h-2.6l-2.1-3-.9.9v2.1h-2.1v-11.6h2.1v6.6l2.7-2.9h2.8z"/></svg>