<svg viewBox="0 0 293 93" fill="none" xmlns="http://www.w3.org/2000/svg">
<path d="M58.5 84.3V62.3H65.9V91.6H0V62.3H7.3V84.3H58.5Z" fill="#BCBBBB"/>
<path d="M15.4 60.3L51.3 67.8L52.8 60.6L16.9 53.1L15.4 60.3ZM20.1 43.1L53.3 58.6L56.4 52L23.2 36.4L20.1 43.1ZM29.3 26.8L57.5 50.2L62.2 44.6L34 21.2L29.3 26.8ZM47.5 9.5L41.6 13.9L63.5 43.3L69.4 38.9L47.5 9.5ZM14.6 76.9H51.2V69.6H14.6V76.9Z" fill="#F48024"/>
<path d="M92.9 60.7C88.3 60.7 85.3 62.5 83.4 64.5C80.6 67.4 79.9 70.9 79.9 76.5C79.9 82.1 80.6 85.6 83.4 88.5C85.3 90.5 88.4 92.3 92.9 92.3C97.5 92.3 100.6 90.5 102.5 88.5C105.3 85.6 106 82.1 106 76.5C106 70.9 105.3 67.4 102.5 64.5C100.6 62.5 97.4 60.7 92.9 60.7ZM96.5 84C95.6 84.9 94.4 85.4 92.9 85.4C91.4 85.4 90.2 84.9 89.3 84C87.7 82.4 87.5 79.7 87.5 76.5C87.5 73.3 87.7 70.6 89.3 69C90.2 68.1 91.3 67.6 92.9 67.6C94.4 67.6 95.6 68.1 96.5 69C98.1 70.6 98.3 73.3 98.3 76.5C98.3 79.7 98.1 82.4 96.5 84ZM126.5 61.1L120.3 80.2L114 61.1H105.9L117.3 92H123.3L134.6 61.1H126.5ZM147.8 60.7C139.8 60.7 134.3 66.4 134.3 76.5C134.3 89 141.3 92.3 148.6 92.3C154.2 92.3 157.2 90.6 160.3 87.4L155.6 82.8C153.6 84.8 152 85.7 148.6 85.7C144.3 85.7 141.8 82.8 141.8 78.8H161.1V75.4C161.2 67 156.3 60.7 147.8 60.7ZM141.9 73.6C142 72.2 142.1 71.4 142.6 70.3C143.4 68.5 145.1 67.1 147.8 67.1C150.4 67.1 152.1 68.5 153 70.3C153.5 71.4 153.7 72.3 153.7 73.6H141.9ZM172.6 64V61H165.1V92H172.8V73.4C172.8 69.5 175.4 67.7 177.8 67.7C179.7 67.7 180.7 68.3 181.9 69.5L187.7 63.7C185.6 61.6 183.4 60.8 180.4 60.8C177 60.7 174.1 62.3 172.6 64ZM190 57.9V92H197.7V67.6H203.4V61.7H197.7V58.3C197.7 56.5 198.6 55.5 200.4 55.5H203.4V49H199C192.8 49 190 53.5 190 57.9ZM235.2 60.7C230.6 60.7 227.6 62.5 225.7 64.5C222.9 67.4 222.2 70.9 222.2 76.5C222.2 82.1 222.9 85.6 225.7 88.5C227.6 90.5 230.7 92.3 235.2 92.3C239.8 92.3 242.9 90.5 244.8 88.5C247.6 85.6 248.3 82.1 248.3 76.5C248.3 70.9 247.6 67.4 244.8 64.5C242.9 62.5 239.7 60.7 235.2 60.7ZM238.8 84C237.9 84.9 236.7 85.4 235.2 85.4C233.7 85.4 232.5 84.9 231.6 84C230 82.4 229.8 79.7 229.8 76.5C229.8 73.3 230 70.6 231.6 69C232.5 68.1 233.6 67.6 235.2 67.6C236.7 67.6 237.9 68.1 238.8 69C240.4 70.6 240.6 73.3 240.6 76.5C240.6 79.7 240.4 82.4 238.8 84ZM284.7 61.1L279.7 80.2L273.4 61.1H267.8L261.5 80.2L256.5 61.1H248.3L257.8 92H264.1L270.6 72.6L277.1 92H283.4L292.8 61.1H284.7ZM214.8 82.7V49H207.1V83.1C207.1 87.5 209.8 91.9 216.1 91.9H220.5V85.4H217.5C215.6 85.4 214.8 84.5 214.8 82.7Z" fill="black"/>
<path d="M95.5 26.2L90.7 25.8C87 25.5 85.5 24 85.5 21.5C85.5 18.5 87.8 16.6 92.1 16.6C95.2 16.6 97.9 17.3 100 19L102.8 16.2C100.1 14 96.4 13 92.1 13C85.8 13 81.2 16.3 81.2 21.7C81.2 26.6 84.3 29.2 90.1 29.7L95 30.1C98.4 30.4 99.9 31.8 99.9 34.4C99.9 37.9 96.9 39.6 92 39.6C88.3 39.6 85.1 38.6 82.8 36.2L79.9 39.1C83.2 42.2 87.1 43.4 92.1 43.4C99.3 43.4 104.2 40.1 104.2 34.4C104.3 28.6 100.7 26.7 95.5 26.2ZM132.7 12.8C127.9 12.8 124.9 13.7 122.3 17.1L125.1 19.9C126.8 17.4 128.8 16.5 132.6 16.5C138 16.5 140.2 18.7 140.2 23V25.9H131.3C124.7 25.9 121.1 29.3 121.1 34.5C121.1 36.9 121.9 39.1 123.3 40.5C125.2 42.4 127.6 43.2 131.7 43.2C135.7 43.2 137.8 42.4 140.3 40V42.9H144.6V22.7C144.5 16.3 140.6 12.8 132.7 12.8ZM140.2 32.4C140.2 34.9 139.7 36.6 138.7 37.5C136.8 39.3 134.6 39.5 132.1 39.5C127.4 39.5 125.3 37.9 125.3 34.4C125.3 31 127.5 29.2 131.9 29.2H140.2V32.4ZM161.5 16.7C164.3 16.7 166.1 17.5 168.3 20L171.2 17.2C168.2 13.9 165.6 12.9 161.5 12.9C154 12.9 148.4 18 148.4 28.1C148.4 38.2 154.1 43.3 161.5 43.3C165.6 43.3 168.2 42.2 171.3 38.9L168.3 36.1C166.1 38.6 164.3 39.5 161.5 39.5C158.6 39.5 156.2 38.4 154.6 36.1C153.2 34.2 152.7 31.9 152.7 28.1C152.7 24.4 153.2 22.1 154.6 20.1C156.2 17.8 158.6 16.7 161.5 16.7ZM198.7 13.2H193.3L179.8 26.3V0H175.5V42.9H179.8V32.1L185.1 26.8L195 42.9H200.4L188.1 23.8L198.7 13.2ZM116.3 17.9L120.3 13.9H112.1V4.1H107.8V34.9C107.8 39.3 110.3 42.9 115.4 42.9H118.5V39.2H116.2C113.4 39.2 112.2 37.6 112.2 34.9V17.9H116.3Z" fill="black"/>
</svg>
