<svg xmlns="http://www.w3.org/2000/svg" viewBox="0 0 500 500"><path fill="#c73a63" d="M238.6 222.5c-15.2 25.5-29.7 50.2-44.6 74.8-3.8 6.3-5.7 11.4-2.7 19.4 8.4 22.1-3.5 43.6-25.8 49.5-21 5.5-41.5-8.3-45.7-30.8-3.7-19.9 11.8-39.5 33.7-42.6 1.8-.3 3.7-.3 6.8-.5 10.8-18.1 21.8-36.5 33.4-56-21-20.9-33.5-45.3-30.8-75.6 2-21.4 10.4-39.9 25.8-55.1 29.5-29 74.4-33.7 109.1-11.4 33.3 21.4 48.6 63.1 35.6 98.8-9.8-2.7-19.7-5.3-30.5-8.3 4.1-19.8 1.1-37.7-12.3-52.9-8.8-10.1-20.2-15.4-33.1-17.3-25.9-3.9-51.2 12.7-58.8 38.1-8.5 28.7 4.5 52.2 39.9 69.9z"/><path fill="#4b4b4b" d="M281.9 192.3c10.7 18.9 21.6 38 32.3 57 54.4-16.8 95.4 13.3 110.1 45.5 17.8 38.9 5.6 85.1-29.3 109.1-35.8 24.7-81.1 20.5-112.9-11.2 8.1-6.8 16.2-13.6 24.9-20.8 31.4 20.3 58.8 19.4 79.1-4.7 17.4-20.5 17-51.1-.9-71.2-20.6-23.2-48.2-23.9-81.6-1.6-13.8-24.6-27.9-48.9-41.3-73.7-4.5-8.3-9.5-13.2-19.7-14.9-17-3-28-17.6-28.7-33.9-.6-16.2 8.9-30.8 23.8-36.5 14.8-5.6 32.1-1.1 42 11.5 8.1 10.3 10.7 21.8 6.4 34.5-1 3.3-2.5 6.8-4.2 10.9z"/><path fill="#4a4a4a" d="M307.5 346.6H242c-6.3 25.8-19.8 46.7-43.2 59.9-18.2 10.3-37.7 13.8-58.6 10.4-38.4-6.2-69.7-40.7-72.5-79.6-3.1-44.1 27.2-83.2 67.5-92l8.4 30.4c-37 18.9-49.8 42.7-39.5 72.5 9.1 26.2 35 40.6 63.2 35 28.7-5.7 43.2-29.5 41.5-67.9 27.2 0 54.5-.3 81.7.1 10.6.2 18.8-.9 26.9-10.3 13.2-15.4 37.5-14 51.7.5 14.5 14.9 13.8 38.9-1.5 53.1-14.8 13.8-38.3 13-52.1-1.8-2.9-2.9-5.2-6.5-8-10.3z"/></svg>
