<svg height="40" viewBox="0 0 40 40" width="40" xmlns="http://www.w3.org/2000/svg"><g fill="none" fill-rule="evenodd"><rect fill="#186e62" fill-rule="nonzero" height="40" rx="4" width="40"/><g fill="#fffffe" transform="translate(7 13)"><path d="m15.8781247 7.36651979c.8192868-1.44944327 1.2370099-2.739547 1.2214564-3.73627968-.0191894-1.22369537-.5047825-2.1351905-1.2214564-2.73914207-2.1540616-1.81448675-6.39694087-.84589663-6.34018062 2.79562967.02120935 1.37473388.68738482 3.15399181 2.41867352 5.29869814 0 0 .9649242-.86553569 1.1772197-1.64279687-4.59636839-6.26182171 5.0651959-6.60256944.257744.33953295 0 0-.5552809.90602859-1.263269 1.51321959-1.4985919 1.41684648-2.85558604 1.86429298-4.03947156 1.66931968-4.10915938-.6750166-4.76442718-6.8210286-5.06923579-10.47531016h-3.01697903c-.00121196.04029043-.00161595.08159319-.00262592.12228855v.68352012c.15795913 7.2510632 5.27728938 17.33845139 13.4590473 9.40427309.810803-.81390729 1.2715508-1.46219859 1.2715508-1.46219859.4427703-.60941811.8259525-1.20223413 1.1475266-1.77075442"/><path d="m23.1473027 4.5c-.0248357.09704848-.0435105.19960626-.0566022.30830904-.5255922 4.45660186-2.8711194 8.22221006-6.4081813 6.14880526-.0698865.1067957-.1434309.210413-.218708.3108518-.3538602.4687145-.7602796.86602-1.1324297 1.1811097-.0092412-.006145-.0200225-.0112305-.0313815-.0144089.3892847.2682606.7777994.4824877 1.1638112.6464954 4.366843 1.8583301 8.3521022-2.7357924 8.7361888-8.479664z"/></g></g></svg>