<svg height="40" viewBox="0 0 139 40" width="139" xmlns="http://www.w3.org/2000/svg"><g fill="none" fill-rule="evenodd"><rect fill="#186e62" fill-rule="nonzero" height="40" rx="4" width="139"/><g fill="#fffffe" transform="translate(12 11)"><path d="m88.9726011 12.1217519c-.3044231 1.3404054-1.1575226 2.1165838-2.4669588 2.289127-.1870623.0247632-.3833586.0372779-.5882931.0372779-.4965492 0-1.0348002-.0782835-1.4229247-.3762402-.5641656-.4324232-.6991007-1.1774479-.2377002-1.6892196.4679537-.5194937 1.3898611-.611357 2.248918-.6145522.4331029-.0013314.8504187.0199703 1.1861181.0199703h1.3386274c-.0139998.108372-.0333614.2212707-.0577867.3336368zm-.5430169-5.69099809c-.6291013-.27186212-1.2853088-.41192038-1.9239419-.42896168-2.0472601-.05485172-3.9163939 1.15161965-4.1424772 3.31852849h1.8396447c.1608498-.61961131.4762941-1.05815873.8721632-1.33907404.4149328-.29529392.9219074-.43455336 1.4306693-.43135811.5236553.00319524 1.0496936.15709956 1.4819029.44760061.6630585.44547044 1.1042038 1.21259558.9749283 2.24918642-.4554431 0-.9102905 0-1.3660315 0-.3479121 0-.7160793-.0039941-1.0907997.0010651-.7616534.0101182-1.5522002.0556505-2.2602371.2417735-1.18165.3096726-1.8593041.9263549-2.1202381 1.6388946-.6174844 1.687622 1.1024166 3.911779 3.996223 3.8710397.1295734-.0021302.2576575-.0077219.3842522-.0167751 1.889389-.1381943 3.437419-1.0943715 4.0840946-2.7740054.3205081-.8310301.4232732-1.7605802.4089755-2.6640358-.0300849-1.86682205-.9430563-3.41065806-2.5691282-4.11387829z"/><path d="m100.031269 11.4307844c-.021579.2323616-.0539463.4599352-.0965038.6804675-.041958.2202507-.1003996.4289537-.1741258.6241375-.0731269.1943388-.1615385.3751584-.2652348.5427404-.1024975.1661738-.2223776.3160119-.3581419.4478243-.1357642.1315308-.2889111.2481341-.4591408.347275-.1108891.0653429-.2322678.1199831-.3632368.1633573-.0659341.0216871-.133966.0414026-.2025974.057175-.187013.0442192-.3917083.0687228-.6128871.0743558-.02997.0011266-.0608392.0016899-.0914086.0016899v-.0005633h-.0086913c-.2625375 0-.499001-.0194339-.7075924-.058865v-.0008449c-.2073926-.0385861-.3908092-.0968878-.5484516-.17406-.2268731-.1109703-.4177822-.2577102-.5712287-.440783l-.0005994-.000845c-.0278722-.0323898-.0572428-.0709759-.086014-.1115335-.0281718-.0391495-.0551449-.0797071-.0788212-.1199832h-.0005994l-.0014985-.0033798c-.0902098-.1515279-.1663337-.3213631-.2271728-.5080974-.0611389-.1884242-.1090909-.3979721-.1414586-.6266723-.026973-.1870159-.0491508-.3881144-.0653346-.6018871v-.0005633l-.0086913-.1281509c-.0164836-.261935-.0254746-.5402056-.026074-.8314322h.0005994v-.0315449h-.0005994c0-.4196592.017083-.80861848.05005-1.16575128l.020979-.20560484v-.0005633c.0074925-.06618787.0161838-.13265738.0245754-.19715533h.0005994l.0038961-.0245036c.0323677-.22870018.0803197-.43796648.1414586-.62639064.0608391-.18673427.136963-.35685115.2271728-.50837911v-.00028165c.1264735-.21236445.2898102-.38924095.487013-.52809463.0410589-.02901.0809191-.05492184.1195804-.07745388.0398602-.02365864.0827173-.04647233.1267732-.06844107l.0002997-.00028165.0017982-.00084495.0014985-.0005633.0011988-.00028165c.1309691-.06393466.2796204-.11491339.4429571-.15293621l.103996-.02168708v-.00028165c.2073926-.03886777.4414585-.05942825.6989011-.05942825h.0107892c.0341658 0 .0674326.0005633.1000999.0011266.2220779.00450641.427972.02422194.6155844.0585833.1054945.01971553.2055944.04365582.3002997.07238417h.0002997c.0932068.0278834.1822178.0619631.2646354.09914097l.0011988.00084495.0056943.00253485.0005994.00028165c.169031.07745388.3206793.17321504.4555444.28643853.1345655.11294184.2535465.24559921.3545455.39431066v.00028165c.1474525.21602591.264036.46979299.3491508.76130123.0155845.05407689.0317683.11378679.0464536.17687649.0143856.06111816.0272727.12336291.0392607.18560767l.0020979.00957611c.0425575.22926349.0749248.47683425.0965038.74158569.021578.26559635.032367.54837345.032367.84804955 0 .2357415-.010789.4695114-.032367.7001831zm1.283616-4.09829602-.000599-.00028165c-.038062-.07041262-.079121-.14110688-.122278-.2103929-.045255-.07294747-.08991-.13969863-.133067-.19969019h-.000599l-.003597-.00478805.0003-.00028165c-.238561-.33122096-.52957-.61033658-.873027-.8353753l-.000599-.0005633c-.065035-.04252923-.134566-.08449515-.2055948-.12448951-.0701299-.03914942-.1429571-.07745388-.2184815-.11322349l-.002997-.00140825c-.2229771-.10590058-.4651349-.19039572-.7264736-.25179553-.047952-.01154767-.1006993-.02281368-.1552447-.0335164-.3188811-.06252641-.6665335-.09463456-1.0405595-.09519786v-.00028165h-.0104895c-.1096903 0-.2175824.00197155-.3221778.00619631-.2568432.01013941-.4978022.0323898-.721978.06646951-.1582418.02450359-.3068931.05492184-.4444556.08956485-.1372627.03492466-.2706293.07773553-.3968032.12646106l-.0086913.00337981h-.0002997c-.2511488.09829601-.4765234.22194057-.6755244.36924377v.00028165c-.1129871.08393184-.2184816.17603154-.3152848.27658076v-4.39938037h-1.9363636v8.7306013c0 .8353753.0542458 1.5786509.1627373 2.2289819.0548451.3289677.136963.631742.243956.9066328.1087912.2777074.2451549.5295029.4078921.7536967.3272727.4514857.7798202.7953809 1.3564436 1.0302774.2874126.1171666.617982.2050416.9899101.2630616.3698301.0574567.7831168.0864666 1.2383616.0864666v.0002817c.0341658 0 .0674326-.0005633.1000999-.000845.8607393-.0118293 1.5809191-.1740599 2.1593407-.486692v.0002817c.2991009-.1608224.5676327-.3484016.8040957-.5590762.236763-.2106746.442058-.446416.614386-.7060977.17023-.256302.316184-.5269681.436663-.811435.118981-.2822138.214586-.5785101.282318-.887199.056643-.2551754.101298-.5080975.133366-.7576398v-.000845l.017982-.1464582v-.0008449c.034466-.2996761.051249-.5996339.051849-.8964935h.000599v-.0160541c0-.7886213-.074925-1.5057034-.223876-2.14983803-.107293-.46415997-.261638-.88072102-.461239-1.24827489z"/><path d="m107.994195 9.87787696c.169276-.76044783.533263-1.45965511 1.252759-1.89792442.050871-.03062027.100864-.05964297.147057-.08360666.052332-.02769138.104372-.05378517.155243-.0774826 0 0 .001169 0 .002339-.00106506 0 0 .000292 0 .001169-.00106505.244997-.11422693.532971-.1919758.863045-.23191529.179801-.02209985.371881-.03301664.577117-.03301664.48707 0 1.015071.0782814 1.396892.37649623.552852.43187899.685291 1.17714981.233011 1.68890777-.459297.51947956-1.364149.61107416-2.20702.61400306-.425968.0013313-.835563-.0194372-1.16476-.0194372-.437077 0-.875616 0-1.314155 0 .013741-.1086354.032452-.22099852.057303-.33389414zm5.200194 2.80162184c-.339721 1.3339789-1.588973 1.8683692-2.778582 1.7501484-1.340468-.1328654-2.606091-1.0946082-2.411964-2.6767445h1.340467c.341475 0 .702832.0037277 1.071497-.001065.74727-.010118 1.522899-.055649 2.218129-.2415008 1.15979-.3099304 1.824907-.9265961 2.080429-1.63911652.606061-1.68704393-1.081729-3.91140709-3.921707-3.87066881-.128931.00213011-.254061.00745537-.376851.01597579-3.104564.21407565-4.513735 2.5015432-4.410532 5.43842684.088584 2.5273707 1.781345 4.3896158 4.410532 4.5355281.193249.0106505.392346.0127806.59612.0042602 2.022834-.0825416 3.778744-1.2719395 3.988073-3.3152437-.657516 0-1.148387 0-1.805611 0z"/><path d="m104.873011 15.6047147c-.019815-.087969-.034049-.1796752-.04298-.2733937-.017862-.1934742-.026793-.3993101-.026793-.6172201v-12.7141009h-1.803238v12.7141009c0 .0986057.001675.2023861.005024.3096162.00307.1060802.008093.2084232.013955.3055915.008651.1374156.023164.2725313.044097.4033348v.0008624l.012559.0767572.000558.0025874.014234.0756073.000837.0014374.005303.0244358.016746.0856691h1.886687l-.054703-.1463274c-.028188-.0764698-.052749-.1601265-.072286-.2489579"/><path d="m63.9942437 11.8064516c-.0168603.2517572-.0426105.487479-.0760244.7058289-.0475153.3065452-.1256855.5778122-.232978.8119304h-.0003065c-.0217651.0467702-.0441432.0919368-.0668279.1333619-.0242175.0446321-.0478218.0860571-.0714262.123206h-.0003065l-.0055179.0077505-.0006131.0005345c-.0904322.1411123-.1989509.2656546-.3240233.3720234-.1247658.105567-.2688443.1964348-.4313158.2696635-.134882.0612022-.2863176.1098431-.4530808.1451212l-.1054532.0200444c-.2127457.0374161-.4518546.0566587-.715181.0571932v-.0005345h-.0110358c-.2685378 0-.5104057-.0184408-.7237645-.0558569v-.0008018c-.2121325-.0363471-.399128-.0914023-.5606798-.1651656h-.0006131c-.1615518-.0726942-.3053238-.1632947-.4307027-.2696635-.1250724-.1063688-.2335911-.2309111-.3240233-.3720234-.0931912-.1437849-.1707483-.3052089-.2326714-.4824011-.0628427-.1787957-.1115842-.377903-.1453047-.5943822-.0337205-.2183499-.0594707-.4540717-.0763309-.7058289-.0168603-.2512227-.0251371-.5200844-.0251371-.8065852 0-.2859663.0082768-.5550953.0251371-.8057835v-.0005345c.0168602-.25175724.0426104-.48694445.0763309-.70582891.0337205-.2167464.082462-.4155865.1453047-.59438224.0619231-.17719218.1394802-.33861613.2326714-.48240104.0901257-.14084507.1986444-.26565465.3240233-.37202342.1253789-.10636876.2691509-.19696929.4307027-.26966352h.0006131c.1072925-.04864099.2262338-.08979875.3543717-.12240425v.00026726c.0665214-.01657001.1339624-.03126921.2017099-.04302857h.0006131c.2127457-.03741615.4521612-.05719326.7164072-.05719326h.0113424c.3804285 0 .7087435.03848518.9834122.11438651l.0006131.00026726c.0511939.01363017.1033073.03073469.153275.04837373.0502742.01763904.0974829.03661437.1413195.05639148v-.00026726l.006131.00293984v.00026726c.1621649.07296149.3059369.16356202.4313158.26966352.1253789.10636877.2335911.23117835.3240233.37202342.1315099.20445252.232978.4449849.3053237.72079536.0134882.0555897.027283.11198118.0386253.1681054.0113424.05478793.0220716.11465377.0318812.17639041l.0021459.01149211c.0334139.21888446.0591641.45407167.0760244.70636341.0171668.2506882.0254436.5198172.0254436.8057835 0 .2865008-.0082768.5553625-.0254436.8065852zm1.8785381-2.3687094c-.0131817-.0799102-.0291223-.16409653-.045676-.24908464l-.003372-.0179063c-.0852209-.4270786-.2228618-.82181896-.4123097-1.18208301-.0377056-.07109068-.076944-.14084507-.1174086-.20739236-.0407712-.06788358-.0839947-.13469813-.1290576-.19964187l-.0039851-.0064142-.0006131-.00106903c-.3258626-.4693054-.7829286-.84961381-1.3696652-1.13878719-.2952076-.14565571-.6351715-.25549883-1.0180524-.32765855-.3795088-.07135794-.8046936-.10743779-1.2724888-.10743779v-.00026726c-.6606152 0-1.2378487.07429778-1.7301679.2218243-.0953371.02859663-.1894479.06120213-.2807998.09621296-.091965.03581259-.1796383.07376326-.2614871.11331747l-.0015328.00053452-.006131.00347435c-.2955141.14405217-.5591471.31135581-.788753.50057461l-.0003065.00053452c-.2308321.19028783-.4282503.40355988-.5907218.63767806l.0003066.00053451c-.2308321.33300372-.410777.70101826-.5370755 1.10137104h-.0006131c-.0226847.07296149-.045676.15260443-.0677476.23866157-.0208454.08204827-.0398515.16463105-.0564052.24641206l-.0015327.00962129c-.0487415.24320496-.0876733.49122057-.1158759.74377957v.00080177l-.0153275.1467248-.0009197.0008017c-.0288157.2982602-.0441432.6050726-.0447563.9177647h-.0003065v.0192426c0 .4369671.0300419.8699254.089206 1.2988748.012262.0863244.0251371.1710453.0386253.2520245v.0002673c.0131817.0793756.0288157.1638292.045676.2506881v.0002673l.0036786.0184408c.058551.3006655.144385.5855627.2550495.8536227.1106646.2688617.2470793.5198172.408018.7517973.2338976.3370126.5386083.6291258.9110665.8736671.0695868.0459684.1456112.0919368.2256207.1373707.0800096.0454339.1609388.0879279.2406417.1269476h.0009197l.0024524.0010691v.0002672c.2476924.1213352.5266528.2172809.8328962.2881043.0594707.013363.1204741.0264586.1830103.038218.3758303.0716252.7939644.107705 1.2528697.1082395v.0002673h.0104227v-.0002673c.4677952 0 .89298-.0358126 1.2724888-.107705.3825744-.0718925.7225383-.1817356 1.0180524-.3273913.4208931-.2076596.7755714-.4623567 1.0621956-.7627549.0560986-.0593313.110358-.1199989.1603256-.1817356.0493546-.0595986.0977894-.124275.1446916-.1916241l.0006131-.0005345.0018393-.0021381c.230219-.3322019.4101638-.7015528.5364624-1.1064489.0251371-.0801775.0484349-.1611567.0683606-.2407997.021152-.0831173.0404646-.1665018.0564052-.2488173l.0021459-.0093541c.0478218-.245343.0867536-.4946949.1155693-.7461849v-.001069l.0153275-.1464575.0003066-.0008018c.0291222-.2966566.0441432-.5997274.0447563-.9070743h.0003065v-.0189753c0-.4449849-.0300419-.8824866-.0888995-1.31063423-.0119554-.0863244-.0248305-.17077799-.0383187-.25148997z"/><path d="m55.1254367 6h-.0791552l-.0231811.07612633-2.3342286 7.75328277-1.8259394-7.74705682-.0192234-.08235228h-1.706076l-.0195061.08235228-1.8265048 7.74705682-2.3339459-7.75328277-.0226157-.07612633h-1.9350605l3.2920057 9.9267036.0245947.0732964h1.8276356l.021485-.0783903 1.8335723-6.64025358 1.8372473 6.71864388h1.8276356l.0240293-.0727304 3.2651495-9.78690284.046645-.14036676z"/><path d="m71.4934965 6.00958557h-.0008267l-.15625-.00563857h-.0013779l-.0815697-.0019735h-.0011023l-.1267636-.00140964h-.0013779l-.0788139-.00028193v-.00028193c-.5902778 0-1.1058753.05779532-1.5462412.17310403v-.00028193c-.08653.02255427-.171131.04792783-.2507716.07471103-.0165344.00563856-.0330688.01127713-.0501543.01719763-.0606261.02170848-.1223545.0456724-.1832562.07132788l-.0077161.00366507h-.0005511c-.3830468.16295461-.7046407.36227798-.9634039.59599662v.00028193c-.0507055.04595432-.0994819.09360022-.1452271.14180998-.0457451.04820975-.090388.09923879-.1319995.15111361l-.0008267.00112772-.0013779.00140964c-.1463294.18297152-.2703373.37750211-.3709215.58330984-.1011354.20580772-.178847.42373837-.2328594.65210036-.0443673.18720046-.0799162.37355512-.1052689.55821822v.00084578l-.0140543.10741472v.00084578c-.026455.22187765-.0402337.444883-.0405092.66873415h-.0002756v6.19706794h1.7802028v-6.18325345c0-.10374965.0071649-.21285594.0220459-.32731886.0146054-.11361715.0374779-.23710178.067791-.36763463.0410604-.17846067.1094025-.34987313.203373-.51198195.0201168-.03326755.0402337-.06681703.0597994-.09641951.020668-.03129405.0427138-.06315196.0650353-.09416408v-.00028193l.0041336-.00479278.0011022-.00084579c.1160164-.15759797.2670305-.29771638.4494599-.41866366.0358245-.02368198.0733025-.04708204.1118827-.06991824.0405093-.02311813.0812941-.0456724.1204255-.06568932l.0027558-.00197349.0002755.00056385c.2937611-.14970397.6798391-.22526078 1.1571319-.22526078v-.00028193l.0744047.00084579.0779872.00225542.0661376.00310122.0529101.00310121c.100033.00620242.1937279.00902171.2799823.00902171l.0008267.00028192.0024802.00028193v-.00028193c.0479497.00563857.0956239.01127714.141369.01409642v.00028193h.0008268c.0512566.00338314.1033399.00479279.1537698.00479279h.1038911v-1.62277982l-.0945216-.00845785c-.1399912-.01268678-.2777778-.0228362-.4119819-.02903862"/><path d="m78.4328988 10.6416559 3.1460889-4.65056779.1135928-.1687509h-2.2502876l-.031921.04915912-4.5523389 6.91849937v-10.7899957h-1.858033v14h1.8068443l.0324962-.0482967 2.4590682-3.6501365 2.4400882 3.6501365.0322086.0482967h2.2292945l-.1118673-.1678885z"/><path d="m22.2850873 10.3676945c1.1498762-2.03995718 1.7361542-3.85565872 1.7143247-5.25846767-.0269325-1.72223793-.7084666-3.00508293-1.7143247-3.85508884-3.0232444-2.55372209-8.9781626-1.19052119-8.8984991 3.93458989.0297675 1.93481065.9647506 4.43895144 3.3946294 7.45742702 0 0 1.3542797-1.2181613 1.6522382-2.3120845-6.4510433-8.81293424 7.1090469-9.29250513.3617461.4778612 0 0-.7793416 1.2751514-1.7730093 2.1297165-2.1032867 1.9940802-4.00784 2.6238198-5.6694337 2.3494129-5.7672412-.9500234-6.68691531-9.59996623-7.11471687-14.74302917h-4.23435653c-.001701.05670506-.002268.11483486-.0036855.17210982v.96199127c.22169703 10.20520008 7.40672193 24.40226498 18.8898909 13.23564358 1.1379691-1.1454991 1.7846327-2.0579091 1.7846327-2.0579091.6214321-.8576996 1.1592317-1.6920332 1.6105637-2.4921729"/><path d="m32.0971958 6c-.0351212.12939797-.0615301.26614169-.0800436.41107872-.7432616 5.94213578-4.0601688 10.96294678-9.0620746 8.19840708-.0988293.1423942-.2028315.2805506-.309284.414469-.5004084.6249527-1.0751429 1.1546933-1.6014157 1.5748129-.0130683-.0081933-.0283147-.014974-.0443779-.0192119.5505037.3576809 1.0999183.643317 1.6457936.8619939 6.1753335 2.4777735 11.8110537-3.6477232 12.3542064-11.30621863z"/></g></g></svg>