<svg viewBox="0 0 136 70" version="1.1" xmlns="http://www.w3.org/2000/svg" xmlns:xlink="http://www.w3.org/1999/xlink"><g id="Page-1" stroke="none" stroke-width="1" fill="none" fill-rule="evenodd"><g id="FW_Illustrations-02" transform="translate(-200.000000, 0.000000)" fill="#F4F5F8"><path d="M332.77,63 C332.94,62.73 333.11,62.47 333.27,62.19 L333.36,62.02 C333.52,61.74 333.68,61.45 333.82,61.15 C333.96,60.86 334.09,60.56 334.21,60.26 L334.28,60.07 C334.4,59.7566667 334.51,59.4466667 334.61,59.14 C334.71,58.83 334.79,58.52 334.86,58.2 L334.92,57.98 C334.99,57.66 335.05,57.33 335.1,56.98 C335.1,56.66 335.19,56.33 335.21,55.98 C335.214941,55.8967399 335.214941,55.8132601 335.21,55.73 C335.21,55.4 335.21,55.06 335.21,54.73 C335.199092,46.5470662 328.582851,39.9084877 320.4,39.87 C319.794835,39.8744472 319.190456,39.9145165 318.59,39.99 C315.127558,33.0059218 308.005245,28.5883828 300.21,28.59 L298.98,28.59 L298.42,28.64 L297.79,28.7 L297.08,28.81 L296.61,28.88 C296.36,28.88 296.12,28.98 295.87,29.03 L295.51,29.1 L295.33,29.1 C295.094779,20.71541 291.266451,12.8365581 284.82,7.47 L284.77,7.47 C284.46,7.21 284.14,6.95 283.77,6.7 L283.68,6.63 C283.36,6.4 283.04,6.16 282.68,5.94 L282.54,5.84 L281.59,5.22 L281.4,5.1 L280.47,4.54 L280.22,4.4 L279.31,3.91 L279,3.76 L278.11,3.33 L277.75,3.17 L276.88,2.8 L276.46,2.64 L275.61,2.33 L275.14,2.17 L274.32,1.91 L273.78,1.76 L272.99,1.55 L272.39,1.42 L271.64,1.25 L270.96,1.13 L270.26,1.02 L269.49,0.92 L268.86,0.84 L267.94,0.78 L267.43,0.78 C266.95,0.78 266.43,0.78 265.98,0.78 C249.970084,0.783819964 236.929572,13.6417298 236.7,29.65 C234.636492,28.9799799 232.479547,28.64243 230.31,28.65 C229.9,28.65 229.5,28.65 229.09,28.65 L228.72,28.65 L227.88,28.73 L227.48,28.78 L226.63,28.92 L226.3,28.98 C225.91,29.06 225.53,29.14 225.15,29.24 L225.06,29.24 L224.06,29.55 L223.75,29.66 L223,30 L222.69,30.12 L221.81,30.5 L221.62,30.59 C221.26,30.76 220.91,30.94 220.56,31.13 C220.23,31.31 219.91,31.5 219.56,31.69 L219.35,31.83 C219.08,32 218.82,32.18 218.56,32.36 C218.492643,32.4009441 218.42906,32.4477952 218.37,32.5 C218.06,32.72 217.76,32.95 217.46,33.19 C216.841696,33.701772 216.250872,34.2458641 215.69,34.82 L215.57,34.95 C215.33,35.2 215.1,35.46 214.87,35.73 L214.77,35.84 C214.246961,36.4584749 213.759507,37.1061867 213.31,37.78 C211.083625,41.1353102 209.897377,45.0732338 209.9,49.1 C209.9,49.48 209.9,49.85 209.9,50.22 C204.66131,50.3881825 200.501569,54.6836106 200.501569,59.925 C200.501569,65.1663894 204.66131,69.4618175 209.9,69.63 L320.4,69.63 C325.369413,69.6257112 330.007762,67.1376646 332.76,63 L332.77,63 Z" id="Path"></path></g></g></svg>
