<svg height="529.35901" viewBox="15443.004 -20533.559 692.60357 529.35901" width="692.60358" xmlns="http://www.w3.org/2000/svg" xmlns:xlink="http://www.w3.org/1999/xlink"><clipPath id="a"><path d="m200.047 532.084h-3.568a147.41 147.41 0 0 1 -147.379-147.378v-10.506h298.325v10.506a147.283 147.283 0 0 1 -147.378 147.378z" transform="translate(-49.1 -374.2)"/></clipPath><g transform="translate(15443.004 -20533.559)"><circle cx="94.155998" cy="94.155998" fill="#fff" r="94.155998"/><path d="m609.646 506.2v17.047a8.84 8.84 0 0 1 -8.821 8.821h-55.3a8.841 8.841 0 0 1 -8.821-8.821v-17.047" fill="#c4d4dd" stroke="#6e7f89" stroke-linejoin="round" stroke-miterlimit="10" stroke-width="1.2" transform="translate(-4.769 -4.498)"/><circle cx="579.604" cy="513.001" r="3.568" style="fill:#98bac8;stroke:#6e7f89;stroke-width:1.2;stroke-linecap:round;stroke-linejoin:round;stroke-miterlimit:10"/><circle cx="592.587" cy="513.001" r="3.568" style="fill:#98bac8;stroke:#6e7f89;stroke-width:1.2;stroke-linecap:round;stroke-linejoin:round;stroke-miterlimit:10"/><path d="m531.931 509.135h28.445v7.83h-28.445z" style="fill:#98bac8;stroke:#6e7f89;stroke-width:1.2;stroke-linecap:round;stroke-linejoin:round;stroke-miterlimit:10"/><path d="m554.446 531.375c-4.856 0-8.523-3.37-8.523-8.226v-16.849h-8.623v16.948c0 4.857 3.667 8.226 8.523 8.226" opacity=".08" transform="translate(-4.774 -4.499)"/><path d="m348.528 374.047h-300.704a8.417 8.417 0 0 1 -8.424-8.424v-.2a8.417 8.417 0 0 1 8.424-8.423h300.7a8.417 8.417 0 0 1 8.424 8.424v.2a8.417 8.417 0 0 1 -8.42 8.423z" style="fill:#91cace;stroke:#6e7f89;stroke-width:1.2;stroke-linecap:round;stroke-linejoin:round;stroke-miterlimit:10" transform="translate(-.35 -3.172)"/><path d="m200.047 532.084h-3.568a147.41 147.41 0 0 1 -147.379-147.378v-10.506h298.325v10.506a147.283 147.283 0 0 1 -147.378 147.378z" style="fill:#c4d4dd;stroke:#6e7f89;stroke-width:1.2;stroke-linecap:round;stroke-linejoin:round;stroke-miterlimit:10" transform="translate(-.436 -3.325)"/><path d="m112.363 355.278h-48.763v-189.3a2.77 2.77 0 0 1 2.775-2.775h58.872a2.77 2.77 0 0 1 2.775 2.775v122.003" style="fill:#c4d4dd;stroke:#6e7f89;stroke-width:1.2;stroke-linecap:round;stroke-linejoin:round;stroke-miterlimit:10" transform="translate(-.565 -1.45)"/><path d="m211.164 191.732h-3.37a.677.677 0 0 1 -.694-.694v-6.244a.677.677 0 0 1  .694-.694h3.37a.677.677 0 0 1  .694.694v6.244a.835.835 0 0 1 -.694.694z" style="fill:none;stroke:#6e7f89;stroke-width:1.2;stroke-linecap:round;stroke-linejoin:round;stroke-miterlimit:10" transform="translate(-1.84 -1.636)"/><path d="m197.1 237.074v-56.1a3.308 3.308 0 0 1 1.784-2.874l64.816-33.1a1.018 1.018 0 0 1 1.487.892v209.223h-67.987v-118.041z" style="fill:#c4d4dd;stroke:#6e7f89;stroke-width:1.2;stroke-linecap:round;stroke-linejoin:round;stroke-miterlimit:10" transform="translate(-1.751 -1.288)"/><path d="m214.1 262.6h9.118a.1.1 0 0 0  .1-.1v-66.8a.1.1 0 0 0 -.1-.1h-4.559a4.653 4.653 0 0 0 -4.659 4.658l.1 62.341c-.1-.099-.1.001 0 .001z" opacity=".08" transform="translate(-1.902 -1.738)"/><path d="m237.5 158.577v14.173a2.412 2.412 0 0 0 2.379 2.379h15.56a2.412 2.412 0 0 1 2.379 2.379v177.607h7.532v-209.224a.986.986 0 0 0 -1.487-.892z" style="fill:#91cace;stroke:#6e7f89;stroke-width:1.2;stroke-linecap:round;stroke-linejoin:round;stroke-miterlimit:10" transform="translate(-2.11 -1.287)"/><path d="m211.164 209.632h-3.37a.677.677 0 0 1 -.694-.694v-6.244a.677.677 0 0 1  .694-.694h3.37a.677.677 0 0 1  .694.694v6.244a.835.835 0 0 1 -.694.694z" style="fill:#d5f4f2;stroke:#6e7f89;stroke-width:1.2;stroke-linecap:round;stroke-linejoin:round;stroke-miterlimit:10" transform="translate(-1.84 -1.795)"/><path d="m211.164 195.032h-3.37a.677.677 0 0 1 -.694-.694v-6.244a.677.677 0 0 1  .694-.694h3.37a.677.677 0 0 1  .694.694v6.244a.835.835 0 0 1 -.694.694z" style="fill:#d5f4f2;stroke:#6e7f89;stroke-width:1.2;stroke-linecap:round;stroke-linejoin:round;stroke-miterlimit:10" transform="translate(-1.84 -1.665)"/><path d="m211.164 224.432h-3.37a.677.677 0 0 1 -.694-.694v-6.244a.677.677 0 0 1  .694-.694h3.37a.677.677 0 0 1  .694.694v6.244a.835.835 0 0 1 -.694.694z" style="fill:#d5f4f2;stroke:#6e7f89;stroke-width:1.2;stroke-linecap:round;stroke-linejoin:round;stroke-miterlimit:10" transform="translate(-1.84 -1.927)"/><path d="m304.767 194.358001v-23.589001" style="fill:none;stroke:#6e7f89;stroke-width:1.2;stroke-linecap:round;stroke-linejoin:round;stroke-miterlimit:10"/><circle cx="304.768" cy="167.3" r="3.469" style="fill:#ff7c6e;stroke:#6e7f89;stroke-width:1.2;stroke-linecap:round;stroke-linejoin:round;stroke-miterlimit:10"/><path d="m159.867 212.098v-22.597" style="fill:none;stroke:#6e7f89;stroke-width:1.2;stroke-linecap:round;stroke-linejoin:round;stroke-miterlimit:10"/><circle cx="159.768" cy="186.032" r="3.469" style="fill:#ff7c6e;stroke:#6e7f89;stroke-width:1.2;stroke-linecap:round;stroke-linejoin:round;stroke-miterlimit:10"/><path d="m339.971 101a13.934 13.934 0 0 1 8.821 2.775l5.848 4.163 45.1 32.409 10.8 7.731 23.589 16.452 3.172 2.28 2.577 1.784 3.469 2.478 4.262 3.072 13.776 9.812a14.529 14.529 0 0 1 -8.226 26.364 13.934 13.934 0 0 1 -8.821-2.775l-13.876-9.911-6.343-4.856-92.471-65.513a14.579 14.579 0 0 1 -3.37-20.318 15.288 15.288 0 0 1 11.693-5.947z" style="fill:#e6edf2;stroke:#6e7f89;stroke-width:1.2;stroke-linecap:round;stroke-linejoin:round;stroke-miterlimit:10" transform="translate(-2.893 -.897)"/><path d="m457.022 203.521a13.934 13.934 0 0 1 -8.821-2.775l-13.876-9.911-6.343-4.856-92.471-65.513a14.671 14.671 0 0 1 -5.748-14.966 11.411 11.411 0 0 0 -1.388 1.685 14.579 14.579 0 0 0 3.37 20.318l92.471 65.513 6.343 4.856 13.876 9.911a15.238 15.238 0 0 0 8.821 2.775 14.611 14.611 0 0 0 11.6-6.046 14.348 14.348 0 0 0 2.379-5.352 15.33 15.33 0 0 1 -10.213 4.361z" opacity=".08" transform="translate(-2.894 -.938)"/><g stroke="#6e7f89" stroke-linejoin="round" stroke-miterlimit="10" stroke-width="1.2"><path d="m63.035 186.726h36.473v167.10201h-36.473z" fill="#e6edf2" stroke-linecap="round"/><path d="m106.39 201.558h-11.6a.677.677 0 0 1 -.694-.694v-3.271a.677.677 0 0 1  .694-.694h11.7a.677.677 0 0 1  .694.694v3.271a.851.851 0 0 1 -.794.694z" fill="#e6edf2" stroke-linecap="round" transform="translate(-.836 -1.75)"/><path d="m106.39 217.758h-11.6a.677.677 0 0 1 -.694-.694v-3.271a.677.677 0 0 1  .694-.694h11.7a.677.677 0 0 1  .694.694v3.271a.851.851 0 0 1 -.794.694z" fill="#e6edf2" stroke-linecap="round" transform="translate(-.836 -1.894)"/><path d="m106.39 233.958h-11.6a.677.677 0 0 1 -.694-.694v-3.271a.677.677 0 0 1  .694-.694h11.7a.677.677 0 0 1  .694.694v3.271a.851.851 0 0 1 -.794.694z" fill="#e6edf2" stroke-linecap="round" transform="translate(-.836 -2.038)"/><path d="m106.39 250.158h-11.6a.677.677 0 0 1 -.694-.694v-3.271a.677.677 0 0 1  .694-.694h11.7a.677.677 0 0 1  .694.694v3.271a.851.851 0 0 1 -.794.694z" fill="#e6edf2" stroke-linecap="round" transform="translate(-.836 -2.182)"/><path d="m106.39 266.358h-11.6a.677.677 0 0 1 -.694-.694v-3.271a.677.677 0 0 1  .694-.694h11.7a.677.677 0 0 1  .694.694v3.271a.851.851 0 0 1 -.794.694z" fill="#e6edf2" stroke-linecap="round" transform="translate(-.836 -2.326)"/><path d="m106.39 282.558h-11.6a.677.677 0 0 1 -.694-.694v-3.271a.677.677 0 0 1  .694-.694h11.7a.677.677 0 0 1  .694.694v3.271a.766.766 0 0 1 -.794.694z" fill="#e6edf2" stroke-linecap="round" transform="translate(-.836 -2.469)"/><path d="m106.39 298.758h-11.6a.677.677 0 0 1 -.694-.694v-3.271a.677.677 0 0 1  .694-.694h11.7a.677.677 0 0 1  .694.694v3.271a.766.766 0 0 1 -.794.694z" fill="#e6edf2" stroke-linecap="round" transform="translate(-.836 -2.613)"/><path d="m106.39 314.958h-11.6a.677.677 0 0 1 -.694-.694v-3.271a.677.677 0 0 1  .694-.694h11.7a.677.677 0 0 1  .694.694v3.271a.766.766 0 0 1 -.794.694z" fill="#e6edf2" stroke-linecap="round" transform="translate(-.836 -2.757)"/><path d="m106.39 331.158h-11.6a.677.677 0 0 1 -.694-.694v-3.271a.677.677 0 0 1  .694-.694h11.7a.677.677 0 0 1  .694.694v3.271a.766.766 0 0 1 -.794.694z" fill="#e6edf2" stroke-linecap="round" transform="translate(-.836 -2.901)"/><path d="m106.39 347.358h-11.6a.677.677 0 0 1 -.694-.694v-3.271a.677.677 0 0 1  .694-.694h11.7a.677.677 0 0 1  .694.694v3.271a.766.766 0 0 1 -.794.694z" fill="#e6edf2" stroke-linecap="round" transform="translate(-.836 -3.045)"/><path d="m116.027 163.007h-41.627v-19.426a2.032 2.032 0 0 1 2.081-2.081h37.365a2.032 2.032 0 0 1 2.081 2.081v19.426z" fill="#98bac8" stroke-linecap="round" transform="translate(-.661 -1.257)"/><path d="m121.117 163.156h-51.438a2.412 2.412 0 0 1 -2.379-2.379v-.1a2.412 2.412 0 0 1 2.379-2.379h51.439a2.412 2.412 0 0 1 2.379 2.379v.1a2.412 2.412 0 0 1 -2.38 2.379z" fill="#e6edf2" stroke-linecap="round" transform="translate(-.598 -1.407)"/><path d="m121.117 158.256h-51.438a2.412 2.412 0 0 1 -2.379-2.379v-.1a2.412 2.412 0 0 1 2.379-2.379h51.439a2.412 2.412 0 0 1 2.379 2.379v.1a2.412 2.412 0 0 1 -2.38 2.379z" fill="#e6edf2" stroke-linecap="round" transform="translate(-.598 -1.363)"/><circle cx="78.397" cy="144.405" fill="#fff" r="1.685" stroke-linecap="round"/><circle cx="110.509" cy="144.405" fill="#fff" r="1.685" stroke-linecap="round"/><path d="m129.774 91.785a34.934 34.934 0 1 0 -47.374 32.905 2.812 2.812 0 0 1 1.784 2.676v9.416h21.21v-9.416a2.812 2.812 0 0 1 1.784-2.676 35.219 35.219 0 0 0 22.596-32.905z" fill="#fcbf65" stroke-linecap="round" transform="translate(-.533 -.503)"/><path d="m109.543 141.447h-28.643v-3.469a2.454 2.454 0 0 1 2.478-2.478h23.787a2.454 2.454 0 0 1 2.478 2.478v3.469z" fill="#c4d4dd" stroke-linecap="round" transform="translate(-.719 -1.204)"/><circle cx="89.696" cy="104.761" fill="#ffd9a6" r="5.154" stroke-linecap="round"/><circle cx="100.301" cy="104.761" fill="#ffd9a6" r="5.154" stroke-linecap="round"/><path d="m95.4 107.781.595-2.081v29.634" fill="#fff" stroke-linecap="round" transform="translate(-.848 -.939)"/><path d="m94.552 48.069v-6.64" fill="#fff" stroke-linecap="round"/><path d="m106.148 49.556 1.784-6.343" fill="#fff" stroke-linecap="round"/><path d="m117.15 54.214 3.37-5.649" fill="#fff" stroke-linecap="round"/><path d="m82.957 49.556-1.685-6.442" fill="#fff" stroke-linecap="round"/><path d="m72.054 54.115-3.37-5.649" fill="#fff" stroke-linecap="round"/><path d="m126.169 61.251 4.757-4.559" fill="#fff" stroke-linecap="round"/><path d="m58.179 128.052 4.757-4.658" fill="#fff" stroke-linecap="round"/><path d="m62.638 61.548-4.757-4.559" fill="#fff" stroke-linecap="round"/><path d="m131.223 127.754-4.856-4.658" fill="#fff" stroke-linecap="round"/><path d="m55.503 71.361-5.848-3.172" fill="#fff" stroke-linecap="round"/><path d="m139.351 116.556-5.848-3.172" fill="#fff" stroke-linecap="round"/><path d="m133.602 71.46 5.848-3.172" fill="#fff" stroke-linecap="round"/><path d="m49.655 116.357 5.848-3.072" fill="#fff" stroke-linecap="round"/><path d="m138.261 99.707 6.541 1.09" fill="#fff" stroke-linecap="round"/><path d="m44.303 83.948 6.541 1.09" fill="#fff" stroke-linecap="round"/><path d="m138.161 84.542 6.541-1.189" fill="#fff" stroke-linecap="round"/><path d="m44.402 101.391 6.541-1.189" fill="#fff" stroke-linecap="round"/><path d="m323.977 355.57v-155.9a3.553 3.553 0 0 0 -3.568-3.568h-95.841a3.553 3.553 0 0 0 -3.568 3.566v155.9z" fill="#e6edf2" stroke-linecap="round" transform="translate(-1.964 -1.743)"/><path d="m220.9 226.1h72.252a2.093 2.093 0 0 1 2.081 2.081v21.606a2.093 2.093 0 0 0 2.081 2.081h10.308a2.093 2.093 0 0 1 2.081 2.081v101.888h-88.603v-129.737z" fill="#ccdbe2" stroke-linecap="round" transform="translate(-1.963 -2.01)"/><circle cx="315.768" cy="200.105" fill="#98bac8" r="2.18" stroke-linecap="round"/><circle cx="225.28" cy="199.808" fill="#98bac8" r="2.18" stroke-linecap="round"/><path d="m234.757 356.155h-4.163a.64.64 0 0 1 -.595-.595v-93.065a.64.64 0 0 1  .595-.595h4.163a.64.64 0 0 1  .595.595v93.065a.526.526 0 0 1 -.595.595z" fill="#d5f4f2" stroke-linecap="round" transform="translate(-2.044 -2.328)"/><path d="m248.457 356.155h-4.163a.639.639 0 0 1 -.595-.595v-93.065a.64.64 0 0 1  .595-.595h4.163a.64.64 0 0 1  .595.595v93.065a.571.571 0 0 1 -.595.595z" fill="#d5f4f2" stroke-linecap="round" transform="translate(-2.166 -2.328)"/><path d="m262.057 356.155h-4.163a.639.639 0 0 1 -.595-.595v-93.065a.639.639 0 0 1  .595-.595h4.163a.639.639 0 0 1  .595.595v93.065a.526.526 0 0 1 -.595.595z" fill="#d5f4f2" stroke-linecap="round" transform="translate(-2.286 -2.328)"/><path d="m275.757 356.155h-4.163a.639.639 0 0 1 -.595-.595v-93.065a.639.639 0 0 1  .595-.595h4.163a.64.64 0 0 1  .595.595v93.065a.571.571 0 0 1 -.595.595z" fill="#d5f4f2" stroke-linecap="round" transform="translate(-2.408 -2.328)"/><path d="m289.357 356.155h-4.163a.64.64 0 0 1 -.595-.595v-93.065a.64.64 0 0 1  .595-.595h4.163a.64.64 0 0 1  .595.595v93.065a.571.571 0 0 1 -.595.595z" fill="#d5f4f2" stroke-linecap="round" transform="translate(-2.529 -2.328)"/><path d="m234.757 240.623h-4.064a.677.677 0 0 1 -.694-.694v-7.235a.677.677 0 0 1  .694-.694h4.064a.677.677 0 0 1  .694.694v7.235c-.099.396-.297.694-.694.694z" fill="#c4d4dd" stroke-linecap="round" transform="translate(-2.044 -2.062)"/><path d="m247.957 240.623h-4.064a.677.677 0 0 1 -.694-.694v-7.235a.677.677 0 0 1  .694-.694h4.064a.677.677 0 0 1  .694.694v7.235a.835.835 0 0 1 -.694.694z" fill="#91cace" stroke-linecap="round" transform="translate(-2.161 -2.062)"/><path d="m261.057 240.623h-4.064a.677.677 0 0 1 -.694-.694v-7.235a.677.677 0 0 1  .694-.694h4.064a.677.677 0 0 1  .694.694v7.235a.677.677 0 0 1 -.694.694z" fill="#d5f4f2" stroke-linecap="round" transform="translate(-2.278 -2.062)"/><path d="m274.257 240.623h-4.064a.677.677 0 0 1 -.694-.694v-7.235a.677.677 0 0 1  .694-.694h4.064a.677.677 0 0 1  .694.694v7.235a.677.677 0 0 1 -.694.694z" fill="#d5f4f2" stroke-linecap="round" transform="translate(-2.395 -2.062)"/><path d="m287.457 240.623h-4.064a.677.677 0 0 1 -.694-.694v-7.235a.677.677 0 0 1  .694-.694h4.064a.677.677 0 0 1  .694.694v7.235a.835.835 0 0 1 -.694.694z" fill="#91cace" stroke-linecap="round" transform="translate(-2.512 -2.062)"/><path d="m234.757 255.823h-4.064a.677.677 0 0 1 -.694-.694v-7.235a.677.677 0 0 1  .694-.694h4.064a.677.677 0 0 1  .694.694v7.235c-.099.396-.297.694-.694.694z" fill="#d5f4f2" stroke-linecap="round" transform="translate(-2.044 -2.197)"/><path d="m247.957 255.823h-4.064a.677.677 0 0 1 -.694-.694v-7.235a.677.677 0 0 1  .694-.694h4.064a.677.677 0 0 1  .694.694v7.235a.835.835 0 0 1 -.694.694z" fill="#c4d4dd" stroke-linecap="round" transform="translate(-2.161 -2.197)"/><path d="m261.057 255.823h-4.064a.677.677 0 0 1 -.694-.694v-7.235a.677.677 0 0 1  .694-.694h4.064a.677.677 0 0 1  .694.694v7.235a.678.678 0 0 1 -.694.694z" fill="#91cace" stroke-linecap="round" transform="translate(-2.278 -2.197)"/><path d="m274.257 255.823h-4.064a.678.678 0 0 1 -.694-.694v-7.235a.677.677 0 0 1  .694-.694h4.064a.677.677 0 0 1  .694.694v7.235a.677.677 0 0 1 -.694.694z" fill="#d5f4f2" stroke-linecap="round" transform="translate(-2.395 -2.197)"/><path d="m287.457 255.823h-4.064a.677.677 0 0 1 -.694-.694v-7.235a.677.677 0 0 1  .694-.694h4.064a.677.677 0 0 1  .694.694v7.235a.835.835 0 0 1 -.694.694z" fill="#d5f4f2" stroke-linecap="round" transform="translate(-2.512 -2.197)"/><circle cx="269.483" cy="135.782" fill="none" r="2.18" stroke-linecap="round"/><circle cx="122.006" cy="167.102" fill="#e6edf2" r="1.784" stroke-linecap="round"/><path d="m49.7 392h96.237a2.948 2.948 0 0 1 2.775 2.973v70.865a2.82 2.82 0 0 1 -2.775 2.973h-69.878a148.679 148.679 0 0 1 -26.859-76.811" fill="#98bac8" stroke-linecap="round" transform="translate(-.437 -3.483)"/><path d="m165.2 528.662v-83.65l18.732-20.912" fill="none" stroke-linecap="round" transform="translate(-1.468 -3.769)"/><path d="m163.93 471.77 18.336-19.327" fill="none" stroke-linecap="round"/><path d="m163.731999 501.702-18.434999-19.327" fill="none" stroke-linecap="round"/><circle cx="182.761" cy="419.935" fill="#e6edf2" r="2.676" stroke-linecap="round"/><circle cx="203.674" cy="415.772" fill="#e6edf2" r="2.676" stroke-linecap="round"/><circle cx="217.649" cy="426.972" fill="#e6edf2" r="2.676" stroke-linecap="round"/><circle cx="236.182" cy="390.301" fill="#d5f4f2" r="2.676" stroke-linecap="round"/><circle cx="223.893" cy="398.824" fill="#e6edf2" r="2.676" stroke-linecap="round"/><circle cx="183.455" cy="451.651" fill="#e6edf2" r="2.676" stroke-linecap="round"/><circle cx="188.411" cy="471.572" fill="#e6edf2" r="2.676" stroke-linecap="round"/><circle cx="145.297" cy="482.375" fill="#d5f4f2" r="2.676" stroke-linecap="round"/><path d="m174.6 530.825v-39.348l13.38-13.677" fill="none" stroke-linecap="round" transform="translate(-1.552 -4.246)"/><circle cx="145.099" cy="499.819" fill="#d5f4f2" r="2.676" stroke-linecap="round"/><path d="m154.515 509.334-7.235-7.632" fill="none" stroke-linecap="round"/><path d="m275.034 437.576-11.992-11.893" fill="none" stroke-linecap="round"/><path d="m154.515 522.416v-13.083" fill="none" stroke-linecap="round"/><circle cx="190.195" cy="492.484" fill="#e6edf2" r="2.676" stroke-linecap="round"/><path d="m180.878 501.999 7.136-7.632" fill="#e6edf2" stroke-linecap="round"/><path d="m180.779 527.867v-25.868" fill="#e6edf2" stroke-linecap="round"/><path d="m217.649 474.248v-44.402" fill="#fff" stroke-linecap="round"/><path d="m236.083 474.247998v-81.072998" fill="#fff" stroke-linecap="round"/><path d="m303.576 468.939h-34.788a1.355 1.355 0 0 1 -1.388-1.388v-15.163a1.355 1.355 0 0 1 1.388-1.388h34.788a1.355 1.355 0 0 1 1.388 1.388v15.164a1.417 1.417 0 0 1 -1.388 1.387z" fill="#e6edf2" stroke-linecap="round" transform="translate(-2.376 -4.008)"/><path d="m219.476 456.791-13.876-14.57v-19.921" fill="none" stroke-linecap="round" transform="translate(-1.827 -3.753)"/><circle cx="264.528" cy="394.562" fill="#e6edf2" r="2.676" stroke-linecap="round"/><circle cx="275.232" cy="402.392" fill="#d5f4f2" r="2.676" stroke-linecap="round"/><path d="m275.232 446.893v-41.23" fill="#fff" stroke-linecap="round"/><path d="m277.6 427.859-10.7-11.3v-15.559" fill="none" stroke-linecap="round" transform="translate(-2.372 -3.563)"/><circle cx="250.058" cy="407.348" fill="#d5f4f2" r="2.676" stroke-linecap="round"/><path d="m238.2 448.192 13.876-14.569v-19.823" fill="none" stroke-linecap="round" transform="translate(-2.117 -3.677)"/><path d="m238.09 431.564-12.29-12.984v-13.38" fill="none" stroke-linecap="round" transform="translate(-2.007 -3.601)"/><path d="m155.089 433.569h-11.7a.677.677 0 0 1 -.694-.694v-2.081a.678.678 0 0 1  .694-.694h11.7a.677.677 0 0 1  .694.694v2.081a.677.677 0 0 1 -.694.694z" fill="#f0f9ff" stroke-linecap="round" transform="translate(-1.268 -3.822)"/><path d="m155.089 446.569h-11.7a.677.677 0 0 1 -.694-.694v-2.081a.677.677 0 0 1  .694-.694h11.7a.677.677 0 0 1  .694.694v2.081a.745.745 0 0 1 -.694.694z" fill="#f0f9ff" stroke-linecap="round" transform="translate(-1.268 -3.937)"/><path d="m155.089 459.469h-11.7a.677.677 0 0 1 -.694-.694v-2.081a.677.677 0 0 1  .694-.694h11.7a.677.677 0 0 1  .694.694v2.081a.745.745 0 0 1 -.694.694z" fill="#f0f9ff" stroke-linecap="round" transform="translate(-1.268 -4.052)"/><path d="m51.7 411h81.965v58.079" fill="none" stroke-linecap="round" transform="translate(-.459 -3.652)"/><circle cx="141.63" cy="395.95" fill="#d5f4f2" r="2.676" stroke-linecap="round"/><path d="m139.945 397.932 3.667-3.766" fill="#d5f4f2" stroke-linecap="round"/><circle cx="57.385" cy="395.95" fill="#d5f4f2" r="2.676" stroke-linecap="round"/><path d="m55.601 397.932 3.766-3.766" fill="#d5f4f2" stroke-linecap="round"/></g><path d="m208.9 405.819h-39.94a4.441 4.441 0 0 1 -4.46-4.46v-.1a4.441 4.441 0 0 1 4.46-4.46h39.94a4.441 4.441 0 0 1 4.46 4.46v.1a4.441 4.441 0 0 1 -4.46 4.46z" opacity=".08" transform="translate(-1.462 -3.526)"/><path d="m209.1 401.219h-39.94a4.441 4.441 0 0 1 -4.46-4.46v-.1a4.441 4.441 0 0 1 4.46-4.46h39.94a4.441 4.441 0 0 1 4.46 4.46v.1a4.441 4.441 0 0 1 -4.46 4.46z" style="fill:#d5f4f2;stroke:#6e7f89;stroke-width:1.2;stroke-linecap:round;stroke-linejoin:round;stroke-miterlimit:10" transform="translate(-1.464 -3.485)"/><path d="m170.386 398.273a1.547 1.547 0 0 1 -1.586-1.487 1.524 1.524 0 0 1 1.487-1.487 1.524 1.524 0 0 1 1.487 1.487 1.379 1.379 0 0 1 -1.388 1.487z" style="fill:#fff;stroke:#6e7f89;stroke-width:1.2;stroke-linecap:round;stroke-linejoin:round;stroke-miterlimit:10" transform="translate(-1.5 -3.513)"/><path d="m207.786 398.273a1.547 1.547 0 0 1 -1.586-1.487 1.524 1.524 0 0 1 1.487-1.487 1.524 1.524 0 0 1 1.487 1.487 1.279 1.279 0 0 1 -1.388 1.487z" style="fill:#fff;stroke:#6e7f89;stroke-width:1.2;stroke-linecap:round;stroke-linejoin:round;stroke-miterlimit:10" transform="translate(-1.832 -3.513)"/><path d="m137.832 520.152v-38.852h-52.232" style="fill:none;stroke:#6e7f89;stroke-width:1.2;stroke-linecap:round;stroke-linejoin:round;stroke-miterlimit:10" transform="translate(-.761 -4.277)"/><path d="m315.372 471.572v-83.848" style="fill:none;stroke:#6e7f89;stroke-width:1.2;stroke-linecap:round;stroke-linejoin:round;stroke-miterlimit:10"/><circle cx="122.006" cy="280.485" r="1.784" style="fill:#e6edf2;stroke:#6e7f89;stroke-width:1.2;stroke-linecap:round;stroke-linejoin:round;stroke-miterlimit:10"/><circle cx="261.158" cy="423.602" r="2.676" style="fill:#e6edf2;stroke:#6e7f89;stroke-width:1.2;stroke-linecap:round;stroke-linejoin:round;stroke-miterlimit:10"/><path d="m399.221 421.62h101.391v52.528999h-101.391z" style="fill:#e6edf2;stroke:#6e7f89;stroke-width:1.2;stroke-linecap:round;stroke-linejoin:round;stroke-miterlimit:10"/><path d="m415.97 409.132h64.819v12.488h-64.819z" style="fill:#e6edf2;stroke:#6e7f89;stroke-width:1.2;stroke-linecap:round;stroke-linejoin:round;stroke-miterlimit:10"/><path d="m474.892 391.6v20.81h-45.492v-20.81a22.749 22.749 0 0 1 21.606-22.7h1.09a22.784 22.784 0 0 1 16.056 6.64 21.945 21.945 0 0 1 6.046 11 16.845 16.845 0 0 1  .694 5.06z" style="fill:#98bac8;stroke:#6e7f89;stroke-width:1.2;stroke-linecap:round;stroke-linejoin:round;stroke-miterlimit:10" transform="translate(-3.816 -3.278)"/><path d="m466.056 187.849a14.907 14.907 0 0 1 2.874 8.821v7.235l-.5 120.916-.1 13.38-.1 17.245v16.654l-.1 16.948a14.6685 14.6685 0 1 1 -29.337 0l .1-17.146.5-88.506.3-86.623a14.636 14.636 0 0 1 14.767-14.573 13.587 13.587 0 0 1 11.596 5.649z" style="fill:#e6edf2;stroke:#6e7f89;stroke-width:1.2;stroke-linecap:round;stroke-linejoin:round;stroke-miterlimit:10" transform="translate(-3.899 -1.619)"/><path d="m451.983 397.765a14.832 14.832 0 0 1 -2.874-8.722l.1-17.146.5-88.506.3-86.623a14.669 14.669 0 0 1 9.812-13.776 15 15 0 0 0 -5.261-.992 14.764 14.764 0 0 0 -14.768 14.569l-.3 86.623-.492 88.508-.1 17.146a14.52 14.52 0 0 0 14.569 14.569 13.736 13.736 0 0 0 4.956-.892 13.009 13.009 0 0 1 -6.442-4.758z" opacity=".08" transform="translate(-3.9 -1.617)"/><path d="m462.737 392.1a9.175 9.175 0 1 1 -7.037-10.9 9.167 9.167 0 0 1 7.037 10.9z" style="fill:#c4d4dd;stroke:#6e7f89;stroke-width:1.2;stroke-linecap:round;stroke-linejoin:round;stroke-miterlimit:10" transform="translate(-3.951 -3.385)"/><path d="m459.5 391.436a5.891 5.891 0 1 1 -4.46-7.037 5.978 5.978 0 0 1 4.46 7.037z" style="fill:#e6edf2;stroke:#6e7f89;stroke-width:1.2;stroke-linecap:round;stroke-linejoin:round;stroke-miterlimit:10" transform="translate(-3.98 -3.415)"/><path d="m487.09 334.481h-8.92a3.427 3.427 0 0 1 -3.37-3.469l.595-117.943a3.427 3.427 0 0 1 3.469-3.37h8.92a3.427 3.427 0 0 1 3.37 3.469l-.595 117.943a3.427 3.427 0 0 1 -3.469 3.37z" style="fill:#98bac8;stroke:#6e7f89;stroke-width:1.2;stroke-linecap:round;stroke-linejoin:round;stroke-miterlimit:10" transform="translate(-4.219 -1.863)"/><path d="m480.845 209.7h-2.081a3.427 3.427 0 0 0 -3.469 3.37l-.595 117.942a3.427 3.427 0 0 0 3.37 3.469h2.676v-124.781z" opacity=".08" transform="translate(-4.218 -1.863)"/><path d="m464.309 348.471a5.986 5.986 0 0 1 -8.524-.4 5.986 5.986 0 0 1  .4-8.524l16.552-15.065a5.986 5.986 0 0 1 8.524.4 5.986 5.986 0 0 1 -.4 8.524z" style="fill:#c4d4dd;stroke:#6e7f89;stroke-width:1.2;stroke-linecap:round;stroke-linejoin:round;stroke-miterlimit:10" transform="translate(-4.036 -2.869)"/><path d="m276.158 138.913.2-76.613a38.307 38.307 0 0 0 -.2 76.613z" style="fill:#e6edf2;stroke:#6e7f89;stroke-width:1.2;stroke-linecap:round;stroke-linejoin:round;stroke-miterlimit:10" transform="translate(-2.115 -.553)"/><path d="m218.193 62.066a6.49 6.49 0 0 1 -3.172 8.623l-44.104 20.611a6.49 6.49 0 0 1 -8.623-3.172 6.49 6.49 0 0 1 3.172-8.623l44.1-20.615a6.49 6.49 0 0 1 8.623 3.172z" style="fill:#98bac8;stroke:#6e7f89;stroke-width:1.2;stroke-linecap:round;stroke-linejoin:round;stroke-miterlimit:10" transform="translate(-1.437 -.518)"/><path d="m265.171 82.087a6.554 6.554 0 0 1 -8.226 4.163l-46.285-15.264a6.554 6.554 0 0 1 -4.16-8.226 6.554 6.554 0 0 1 8.226-4.163l46.382 15.263a6.422 6.422 0 0 1 4.064 8.226z" style="fill:#98bac8;stroke:#6e7f89;stroke-width:1.2;stroke-linecap:round;stroke-linejoin:round;stroke-miterlimit:10" transform="translate(-1.832 -.518)"/><path d="m216.24 64.87a3.456 3.456 0 0 0 -3.271-3.37 3.321 3.321 0 0 0 -.1 6.64 3.258 3.258 0 0 0 3.371-3.27z" style="fill:#fff;stroke:#6e7f89;stroke-width:1.2;stroke-linecap:round;stroke-linejoin:round;stroke-miterlimit:10" transform="translate(-1.862 -.546)"/><path d="m0 0h76.612999v29.535h-76.612999z" style="fill:#c4d4dd;stroke:#6e7f89;stroke-width:1.2;stroke-linecap:round;stroke-linejoin:round;stroke-miterlimit:10" transform="matrix(.00218166 -.99999762 .99999762 .00218166 274.048 138.326)"/><path d="m276.455 126.308a38.14 38.14 0 0 1 -37.761-32.608 42.467 42.467 0 0 0 -.694 7.136 38.28 38.28 0 0 0 38.158 38.356l29.535.1v-12.885z" opacity=".08" transform="translate(-2.115 -.832)"/><path d="m218.094 139.331a6.535 6.535 0 0 0 -3.072-8.623l-44.1-20.813a6.535 6.535 0 0 0 -8.623 3.072 6.535 6.535 0 0 0 3.072 8.623l44.1 20.813a6.6 6.6 0 0 0 8.623-3.072z" style="fill:#98bac8;stroke:#6e7f89;stroke-width:1.2;stroke-linecap:round;stroke-linejoin:round;stroke-miterlimit:10" transform="translate(-1.437 -.971)"/><path d="m265.171 119.56a6.488 6.488 0 0 0 -8.127-4.163l-46.384 15.065a6.488 6.488 0 0 0 -4.163 8.127 6.488 6.488 0 0 0 8.127 4.163l46.384-15.065a6.488 6.488 0 0 0 4.163-8.127z" style="fill:#98bac8;stroke:#6e7f89;stroke-width:1.2;stroke-linecap:round;stroke-linejoin:round;stroke-miterlimit:10" transform="translate(-1.832 -1.022)"/><path d="m215.741 136.871a3.271 3.271 0 1 0 -3.271 3.271 3.236 3.236 0 0 0 3.271-3.271z" style="fill:#fff;stroke:#6e7f89;stroke-width:1.2;stroke-linecap:round;stroke-linejoin:round;stroke-miterlimit:10" transform="translate(-1.859 -1.187)"/><path d="m340.637 105.689-17.937-10.308a7.535 7.535 0 0 0 -3.271-1.09c-.2 0-.5-.1-.694-.1l-20.815-.891a8.551 8.551 0 0 0 -8.92 8.226 8.451 8.451 0 0 0 2.28 6.145 8.645 8.645 0 0 0 5.947 2.775l18.831.892 16.155 9.217a8.544 8.544 0 1 0 8.424-14.867z" style="fill:#98bac8;stroke:#6e7f89;stroke-width:1.2;stroke-linecap:round;stroke-linejoin:round;stroke-miterlimit:10" transform="translate(-2.568 -.829)"/><path d="m301.632 102.164a3.771 3.771 0 1 0 -3.964 3.568 3.656 3.656 0 0 0 3.964-3.568z" style="fill:#e6edf2;stroke:#6e7f89;stroke-width:1.2;stroke-linecap:round;stroke-linejoin:round;stroke-miterlimit:10" transform="translate(-2.614 -.873)"/><path d="m340.632 113.664a3.771 3.771 0 1 0 -3.964 3.568 3.77 3.77 0 0 0 3.964-3.568z" style="fill:#e6edf2;stroke:#6e7f89;stroke-width:1.2;stroke-linecap:round;stroke-linejoin:round;stroke-miterlimit:10" transform="translate(-2.96 -.975)"/><circle cx="304.569" cy="397.139" r="2.676" style="fill:#fff;stroke:#6e7f89;stroke-width:1.2;stroke-linecap:round;stroke-linejoin:round;stroke-miterlimit:10"/><path d="m318.1 430.459-10.8-11.3v-15.559" style="fill:none;stroke:#6e7f89;stroke-width:1.2;stroke-linecap:round;stroke-linejoin:round;stroke-miterlimit:10" transform="translate(-2.731 -3.587)"/><circle cx="304.569" cy="397.139" r="2.676" style="fill:#e6edf2;stroke:#6e7f89;stroke-width:1.2;stroke-linecap:round;stroke-linejoin:round;stroke-miterlimit:10"/><circle cx="315.174" cy="384.849" r="2.676" style="fill:#e6edf2;stroke:#6e7f89;stroke-width:1.2;stroke-linecap:round;stroke-linejoin:round;stroke-miterlimit:10"/><path d="m318.1 430.459-10.8-11.3v-15.559" style="fill:none;stroke:#6e7f89;stroke-width:1.2;stroke-linecap:round;stroke-linejoin:round;stroke-miterlimit:10" transform="translate(-2.731 -3.587)"/><circle cx="292.874" cy="403.78" r="2.676" style="fill:#d5f4f2;stroke:#6e7f89;stroke-width:1.2;stroke-linecap:round;stroke-linejoin:round;stroke-miterlimit:10"/><path d="m317.6 449.252-22.1-23.292v-15.56" style="fill:none;stroke:#6e7f89;stroke-width:1.2;stroke-linecap:round;stroke-linejoin:round;stroke-miterlimit:10" transform="translate(-2.626 -3.647)"/><path d="m315.372 410.023 11.893-11.893" style="fill:none;stroke:#6e7f89;stroke-width:1.2;stroke-linecap:round;stroke-linejoin:round;stroke-miterlimit:10"/><circle cx="329.248" cy="396.049" r="2.676" style="fill:#e6edf2;stroke:#6e7f89;stroke-width:1.2;stroke-linecap:round;stroke-linejoin:round;stroke-miterlimit:10"/><path d="m315.273 436.387 11.992-11.893" style="fill:none;stroke:#6e7f89;stroke-width:1.2;stroke-linecap:round;stroke-linejoin:round;stroke-miterlimit:10"/><circle cx="329.248" cy="422.512" r="2.676" style="fill:#e6edf2;stroke:#6e7f89;stroke-width:1.2;stroke-linecap:round;stroke-linejoin:round;stroke-miterlimit:10"/><path d="m506.286 434.221h-108.725a4.4 4.4 0 0 1 -4.361-4.361v-.1a4.4 4.4 0 0 1 4.361-4.361h108.725a4.4 4.4 0 0 1 4.361 4.361v.1a4.466 4.466 0 0 1 -4.361 4.361z" style="fill:#98bac8;stroke:#6e7f89;stroke-width:1.2;stroke-linecap:round;stroke-linejoin:round;stroke-miterlimit:10" transform="translate(-3.494 -3.78)"/><path d="m441.324 451.9h-29.436a1.355 1.355 0 0 1 -1.388-1.388v-8.524a1.355 1.355 0 0 1 1.388-1.388h29.436a1.355 1.355 0 0 1 1.388 1.388v8.524a1.417 1.417 0 0 1 -1.388 1.388z" style="fill:#d5f4f2;stroke:#6e7f89;stroke-width:1.2;stroke-linecap:round;stroke-linejoin:round;stroke-miterlimit:10" transform="translate(-3.648 -3.915)"/><circle cx="458.985" cy="441.839" r="3.37" style="fill:#c4d4dd;stroke:#6e7f89;stroke-width:1.2;stroke-linecap:round;stroke-linejoin:round;stroke-miterlimit:10"/><circle cx="468.995" cy="441.839" r="3.37" style="fill:#c4d4dd;stroke:#6e7f89;stroke-width:1.2;stroke-linecap:round;stroke-linejoin:round;stroke-miterlimit:10"/><circle cx="479.005" cy="441.839" r="3.37" style="fill:#c4d4dd;stroke:#6e7f89;stroke-width:1.2;stroke-linecap:round;stroke-linejoin:round;stroke-miterlimit:10"/><path d="m406.951 442.334h26.858999" style="fill:#fff;stroke:#6e7f89;stroke-width:1.2;stroke-linecap:round;stroke-linejoin:round;stroke-miterlimit:10"/><path d="m465.031 214.378h6.145v10.109h-6.145z" style="fill:#c4d4dd;stroke:#6e7f89;stroke-width:1.2;stroke-linecap:round;stroke-linejoin:round;stroke-miterlimit:10"/><path d="m696.484 331.864h-182.365a9.052 9.052 0 0 1 -9.019-9.019v-97.526a9.052 9.052 0 0 1 9.019-9.019h182.365z" style="fill:#e6edf2;stroke:#6e7f89;stroke-width:1.2;stroke-linecap:round;stroke-linejoin:round;stroke-miterlimit:10" transform="translate(-4.488 -1.922)"/><path d="m658.1 323.909h-140.936a4.042 4.042 0 0 1 -3.964-3.964v-91.48a4.042 4.042 0 0 1 3.964-3.964h140.936z" style="fill:#c4d4dd;stroke:#6e7f89;stroke-width:1.2;stroke-linecap:round;stroke-linejoin:round;stroke-miterlimit:10" transform="translate(-4.56 -1.995)"/><path d="m634.483 240.416 3.37-4.559a29.813 29.813 0 0 0 -4.853-2.874l-2.28 5.253a17.877 17.877 0 0 0 -2.081-.793 17.6 17.6 0 0 0 -6.343-.694l-.296-5.649a21.064 21.064 0 0 0 -5.55.991l1.586 5.451a18.032 18.032 0 0 0 -7.436 4.258l-3.865-4.163a25.907 25.907 0 0 0 -3.67 4.363l4.757 3.172a17.371 17.371 0 0 0 -2.28 4.956 16.323 16.323 0 0 0 -.595 3.172l-5.649-.694a26.906 26.906 0 0 0 0 5.649l5.649-.694a18.8 18.8 0 0 0 2.973 8.127l-4.757 3.072a25.364 25.364 0 0 0 3.568 4.361l3.865-4.163a18.7 18.7 0 0 0 7.433 4.361l-1.586 5.451a26.064 26.064 0 0 0 5.55.991l.3-5.649a18.482 18.482 0 0 0 8.424-1.487l2.28 5.154a29.319 29.319 0 0 0 4.857-2.775l-3.37-4.559a19.745 19.745 0 0 0 5.55-6.541l5.055 2.577a27.548 27.548 0 0 0 1.586-3.964c.1-.4.3-.892.4-1.288l-5.55-1.288a18.12 18.12 0 0 0 0-8.623l5.55-1.288a25.6 25.6 0 0 0 -1.883-5.253l-5.055 2.577a18.58 18.58 0 0 0 -5.654-6.938z" style="fill:#91cace;stroke:#6e7f89;stroke-width:1.2;stroke-linecap:round;stroke-linejoin:round;stroke-miterlimit:10" transform="translate(-5.324 -2.054)"/><path d="m620.431 265.712a10.694 10.694 0 1 0 -7.235-13.281 10.63 10.63 0 0 0 7.235 13.281z" style="fill:#98bac8;stroke:#6e7f89;stroke-width:1.2;stroke-linecap:round;stroke-linejoin:round;stroke-miterlimit:10" transform="translate(-5.445 -2.175)"/><path d="m625.037 250.4a5.352 5.352 0 0 1 3.568 6.74 5.489 5.489 0 0 1 -6.74 3.667 5.352 5.352 0 0 1 -3.568-6.74 5.451 5.451 0 0 1 6.74-3.667z" style="fill:#e6edf2;stroke:#6e7f89;stroke-width:1.2;stroke-linecap:round;stroke-linejoin:round;stroke-miterlimit:10" transform="translate(-5.492 -2.223)"/><circle cx="664.542" cy="232.317" r="3.37" style="fill:#98bac8;stroke:#6e7f89;stroke-width:1.2;stroke-linecap:round;stroke-linejoin:round;stroke-miterlimit:10"/><path d="m670.475 316.969a2.688 2.688 0 0 1 -2.775-2.676v-31.517a2.665 2.665 0 0 1 2.676-2.676h.1a2.665 2.665 0 0 1 2.676 2.676v31.517a2.6 2.6 0 0 1 -2.677 2.676z" style="fill:#c4d4dd;stroke:#6e7f89;stroke-width:1.2;stroke-linecap:round;stroke-linejoin:round;stroke-miterlimit:10" transform="translate(-5.933 -2.489)"/><circle cx="664.542" cy="245.301" r="3.37" style="fill:#98bac8;stroke:#6e7f89;stroke-width:1.2;stroke-linecap:round;stroke-linejoin:round;stroke-miterlimit:10"/><path d="m653.54 321.914h38.455002" style="fill:#fff;stroke:#6e7f89;stroke-width:1.2;stroke-linecap:round;stroke-linejoin:round;stroke-miterlimit:10"/><path d="m653.54 222.406h38.455002" style="fill:#fff;stroke:#6e7f89;stroke-width:1.2;stroke-linecap:round;stroke-linejoin:round;stroke-miterlimit:10"/><path d="m486.934 259.87h13.677v24.679001h-13.677z" style="fill:#c4d4dd;stroke:#6e7f89;stroke-width:1.2;stroke-linecap:round;stroke-linejoin:round;stroke-miterlimit:10"/><path d="m161.8 289.279v-78.4a1.918 1.918 0 0 1 2.973-1.685l74.433 49.853a5.106 5.106 0 0 1 2.28 4.361v93.264h-79.786z" opacity=".08" transform="translate(-1.437 -1.856)"/><path d="m149.8 288.379v-78.4a1.918 1.918 0 0 1 2.973-1.685l74.433 49.853a5.106 5.106 0 0 1 2.28 4.361v93.165h-79.786z" style="fill:#e6edf2;stroke:#6e7f89;stroke-width:1.2;stroke-linecap:round;stroke-linejoin:round;stroke-miterlimit:10" transform="translate(-1.33 -1.848)"/><path d="m161.2 355.871v-124.682a1.145 1.145 0 0 1 1.189-1.189h3.172a1.145 1.145 0 0 1 1.189 1.189v124.682z" style="fill:#91cace;stroke:#6e7f89;stroke-width:1.2;stroke-linecap:round;stroke-linejoin:round;stroke-miterlimit:10" transform="translate(-1.432 -2.044)"/><path d="m183.349 355.969v-113.581a1.417 1.417 0 0 0 -1.387-1.388h-2.874a1.417 1.417 0 0 0 -1.388 1.388v113.581z" style="fill:#91cace;stroke:#6e7f89;stroke-width:1.2;stroke-linecap:round;stroke-linejoin:round;stroke-miterlimit:10" transform="translate(-1.579 -2.142)"/><path d="m199.85 356.068v-102.878a1.1 1.1 0 0 0 -1.09-1.09h-3.37a1.1 1.1 0 0 0 -1.09 1.09v102.878z" style="fill:#91cace;stroke:#6e7f89;stroke-width:1.2;stroke-linecap:round;stroke-linejoin:round;stroke-miterlimit:10" transform="translate(-1.727 -2.24)"/><path d="m211.2 356.166v-91.876a1.1 1.1 0 0 1 1.09-1.09h3.271a1.1 1.1 0 0 1 1.09 1.09v91.876" style="fill:#91cace;stroke:#6e7f89;stroke-width:1.2;stroke-linecap:round;stroke-linejoin:round;stroke-miterlimit:10" transform="translate(-1.877 -2.339)"/><path d="m51.7 411h81.866v58.079h-57.385a148.572 148.572 0 0 1 -24.481-58.079z" style="fill:#e6edf2;stroke:#6e7f89;stroke-width:1.2;stroke-linecap:round;stroke-linejoin:round;stroke-miterlimit:10" transform="translate(-.459 -3.652)"/><path d="m53.223 416.169h65.710999" style="fill:#fff;stroke:#6e7f89;stroke-width:1.2;stroke-linecap:round;stroke-linejoin:round;stroke-miterlimit:10"/><path d="m55.503 424.296h63.431" style="fill:#fff;stroke:#6e7f89;stroke-width:1.2;stroke-linecap:round;stroke-linejoin:round;stroke-miterlimit:10"/><path d="m58.278 432.522h60.655998" style="fill:#fff;stroke:#6e7f89;stroke-width:1.2;stroke-linecap:round;stroke-linejoin:round;stroke-miterlimit:10"/><path d="m61.747 440.65h57.187" style="fill:#fff;stroke:#6e7f89;stroke-width:1.2;stroke-linecap:round;stroke-linejoin:round;stroke-miterlimit:10"/><path d="m65.81 449.074 53.124001-.297" style="fill:#fff;stroke:#6e7f89;stroke-width:1.2;stroke-linecap:round;stroke-linejoin:round;stroke-miterlimit:10"/><path d="m70.27 457.003h48.664001" style="fill:#fff;stroke:#6e7f89;stroke-width:1.2;stroke-linecap:round;stroke-linejoin:round;stroke-miterlimit:10"/><circle cx="119.231" cy="416.169" r="1.883" style="fill:#80b5bc;stroke:#6e7f89;stroke-width:1.2;stroke-linecap:round;stroke-linejoin:round;stroke-miterlimit:10"/><circle cx="119.231" cy="424.296" r="1.883" style="fill:#80b5bc;stroke:#6e7f89;stroke-width:1.2;stroke-linecap:round;stroke-linejoin:round;stroke-miterlimit:10"/><circle cx="118.636" cy="432.721" r="1.883" style="fill:#80b5bc;stroke:#6e7f89;stroke-width:1.2;stroke-linecap:round;stroke-linejoin:round;stroke-miterlimit:10"/><circle cx="118.636" cy="440.352" r="1.883" style="fill:#80b5bc;stroke:#6e7f89;stroke-width:1.2;stroke-linecap:round;stroke-linejoin:round;stroke-miterlimit:10"/><circle cx="118.636" cy="448.777" r="1.883" style="fill:#80b5bc;stroke:#6e7f89;stroke-width:1.2;stroke-linecap:round;stroke-linejoin:round;stroke-miterlimit:10"/><circle cx="118.438" cy="457.201" r="1.883" style="fill:#80b5bc;stroke:#6e7f89;stroke-width:1.2;stroke-linecap:round;stroke-linejoin:round;stroke-miterlimit:10"/><path d="m269.087 451.452h8.028v8.92h-8.028z" style="fill:#d5f4f2;stroke:#6e7f89;stroke-width:1.2;stroke-linecap:round;stroke-linejoin:round;stroke-miterlimit:10"/><g stroke="#6e7f89" stroke-linecap="round" stroke-linejoin="round" stroke-miterlimit="10" stroke-width="1.2" transform="translate(111.798 286.531)"><path d="m0 0h73.242996v67.296997h-73.242996z" fill="#e6edf2"/><path d="m126.156 310.485h-4.163a.677.677 0 0 1 -.694-.694v-11.4a.677.677 0 0 1  .694-.694h4.163a.677.677 0 0 1  .694.694v11.5a.85.85 0 0 1 -.694.594z" fill="#c1d6db" transform="translate(-112.876 -289.176)"/><path d="m139.156 310.485h-4.163a.677.677 0 0 1 -.694-.694v-11.4a.677.677 0 0 1  .694-.694h4.163a.677.677 0 0 1  .694.694v11.5a.663.663 0 0 1 -.694.594z" fill="#c1d6db" transform="translate(-112.991 -289.176)"/><path d="m164.456 310.485h-4.163a.677.677 0 0 1 -.694-.694v-11.4a.677.677 0 0 1  .694-.694h4.163a.677.677 0 0 1  .694.694v11.5a.663.663 0 0 1 -.694.594z" fill="#c1d6db" transform="translate(-113.216 -289.176)"/><path d="m177.056 310.485h-4.163a.677.677 0 0 1 -.694-.694v-11.4a.677.677 0 0 1  .694-.694h4.163a.677.677 0 0 1  .694.694v11.5a.85.85 0 0 1 -.694.594z" fill="#c1d6db" transform="translate(-113.328 -289.176)"/><path d="m151.756 310.485h-4.163a.677.677 0 0 1 -.694-.694v-11.4a.677.677 0 0 1  .694-.694h4.163a.677.677 0 0 1  .694.694v11.5a.663.663 0 0 1 -.694.594z" fill="#c1d6db" transform="translate(-113.103 -289.176)"/><circle cx="10.505" cy="30.922" fill="#80b5bc" r="2.081"/><circle cx="10.505" cy="40.437" fill="#80b5bc" r="2.081"/><circle cx="10.605" cy="49.952" fill="#80b5bc" r="2.081"/><g fill="#c1d6db"><path d="m139.156 330.785h-4.163a.677.677 0 0 1 -.694-.694v-11.4a.677.677 0 0 1  .694-.694h4.163a.677.677 0 0 1  .694.694v11.4a.677.677 0 0 1 -.694.694z" transform="translate(-112.991 -289.357)"/><path d="m164.456 330.785h-4.163a.677.677 0 0 1 -.694-.694v-11.4a.677.677 0 0 1  .694-.694h4.163a.677.677 0 0 1  .694.694v11.4a.677.677 0 0 1 -.694.694z" transform="translate(-113.216 -289.357)"/><path d="m177.056 330.785h-4.163a.677.677 0 0 1 -.694-.694v-11.4a.677.677 0 0 1  .694-.694h4.163a.677.677 0 0 1  .694.694v11.4a.835.835 0 0 1 -.694.694z" transform="translate(-113.328 -289.357)"/><path d="m151.756 330.785h-4.163a.677.677 0 0 1 -.694-.694v-11.4a.677.677 0 0 1  .694-.694h4.163a.677.677 0 0 1  .694.694v11.4a.677.677 0 0 1 -.694.694z" transform="translate(-113.103 -289.357)"/><path d="m139.156 350.986h-4.163a.677.677 0 0 1 -.694-.694v-11.3a.677.677 0 0 1  .694-.694h4.163a.677.677 0 0 1  .694.694v11.4a.663.663 0 0 1 -.694.594z" transform="translate(-112.991 -289.537)"/><path d="m164.456 350.986h-4.163a.677.677 0 0 1 -.694-.694v-11.3a.677.677 0 0 1  .694-.694h4.163a.677.677 0 0 1  .694.694v11.4a.663.663 0 0 1 -.694.594z" transform="translate(-113.216 -289.537)"/><path d="m177.056 350.986h-4.163a.677.677 0 0 1 -.694-.694v-11.3a.677.677 0 0 1  .694-.694h4.163a.677.677 0 0 1  .694.694v11.4a.85.85 0 0 1 -.694.594z" transform="translate(-113.328 -289.537)"/><path d="m151.756 350.986h-4.163a.677.677 0 0 1 -.694-.694v-11.3a.677.677 0 0 1  .694-.694h4.163a.677.677 0 0 1  .694.694v11.4a.663.663 0 0 1 -.694.594z" transform="translate(-113.103 -289.537)"/></g><circle cx="10.605" cy="58.971" fill="#80b5bc" r="2.081"/></g><path d="m92.9 127.563a2.911 2.911 0 0 0 -1.784-2.676 35.229 35.229 0 0 1 9.222-67.887 42.117 42.117 0 0 0 -7.929-.4 35.309 35.309 0 0 0 -10.01 68.09 2.812 2.812 0 0 1 1.784 2.676v6.934h8.717z" opacity=".08" transform="translate(-.533 -.503)"/><path d="m63.035 186.726h8.325v166.90401h-8.325z" opacity=".08"/><path d="m462.937 193.85a9.515 9.515 0 1 1 -12.587-4.757 9.629 9.629 0 0 1 12.587 4.757z" style="fill:#c4d4dd;stroke:#6e7f89;stroke-width:1.2;stroke-linecap:round;stroke-linejoin:round;stroke-miterlimit:10" transform="translate(-3.952 -1.673)"/><path d="m459.111 195.672a5.233 5.233 0 1 1 -6.938-2.577 5.106 5.106 0 0 1 6.938 2.577z" style="fill:#e6edf2;stroke:#6e7f89;stroke-width:1.2;stroke-linecap:round;stroke-linejoin:round;stroke-miterlimit:10" transform="translate(-3.991 -1.711)"/><path d="m399.815 431.035h100.202v10.308h-100.202z" opacity=".08"/><path d="m416.664 409.726h63.529999v4.757h-63.529999z" opacity=".08"/><path d="m653.54 222.406h10.902v99.508003h-10.902z" opacity=".08"/><path d="m597.6 286.158a35.541 35.541 0 0 0 1.189-10.208l-6.74.1a34.56 34.56 0 0 0 -1.189-8.424l6.442-1.784a36.739 36.739 0 0 0 -4.064-9.515l-5.748 3.469a33.471 33.471 0 0 0 -5.253-6.74l4.663-4.856-.1-.1a41.389 41.389 0 0 0 -8.226-6.145l-3.274 5.845a34 34 0 0 0 -7.929-3.172l1.586-6.541a44.215 44.215 0 0 0 -10.208-1.189l.1 6.74a30.46 30.46 0 0 0 -8.424 1.288l-1.883-6.442a39.774 39.774 0 0 0 -9.416 4.064l3.474 5.752a34.028 34.028 0 0 0 -6.74 5.352l-4.86-4.66a41.392 41.392 0 0 0 -6.145 8.226l5.848 3.271a32.357 32.357 0 0 0 -3.172 7.929l-6.541-1.685a44.213 44.213 0 0 0 -1.189 10.208l6.74-.1a30.462 30.462 0 0 0 1.288 8.424l-6.442 1.883a36.743 36.743 0 0 0 4.064 9.515l5.749-3.463a34.028 34.028 0 0 0 5.352 6.74l-4.658 4.856a41.391 41.391 0 0 0 8.226 6.145l3.271-5.848a32.357 32.357 0 0 0 7.929 3.172l-1.685 6.541a39.4 39.4 0 0 0 10.208 1.189l-.1-6.74a34.559 34.559 0 0 0 8.424-1.189l1.784 6.442a36.739 36.739 0 0 0 9.515-4.064l-3.466-5.752a33.466 33.466 0 0 0 6.74-5.253l4.857 4.658.1-.1a36.869 36.869 0 0 0 6.046-8.127l-5.848-3.271a32.356 32.356 0 0 0 3.172-7.929z" opacity=".08" transform="translate(-4.619 -2.105)"/><path d="m598.9 283.958a35.541 35.541 0 0 0 1.189-10.208l-6.74.1a34.563 34.563 0 0 0 -1.189-8.424l6.442-1.784a36.741 36.741 0 0 0 -4.064-9.515l-5.748 3.469a33.468 33.468 0 0 0 -5.253-6.74l4.663-4.856-.1-.1a41.389 41.389 0 0 0 -8.226-6.145l-3.274 5.845a34 34 0 0 0 -7.929-3.172l1.586-6.541a44.213 44.213 0 0 0 -10.208-1.189l.1 6.74a30.459 30.459 0 0 0 -8.424 1.288l-1.883-6.442a38.094 38.094 0 0 0 -9.416 4.064l3.474 5.752a34.026 34.026 0 0 0 -6.74 5.352l-4.857-4.658a41.386 41.386 0 0 0 -6.145 8.226l5.842 3.269a32.359 32.359 0 0 0 -3.172 7.929l-6.541-1.685a44.217 44.217 0 0 0 -1.189 10.208l6.74-.1a30.459 30.459 0 0 0 1.288 8.424l-6.442 1.883a36.741 36.741 0 0 0 4.064 9.515l5.752-3.463a34.033 34.033 0 0 0 5.352 6.74l-4.658 4.856a41.391 41.391 0 0 0 8.226 6.145l3.271-5.848a32.358 32.358 0 0 0 7.929 3.172l-1.685 6.541a39.4 39.4 0 0 0 10.208 1.189l-.1-6.74a34.56 34.56 0 0 0 8.424-1.189l1.784 6.442a36.739 36.739 0 0 0 9.515-4.064l-3.469-5.748a33.468 33.468 0 0 0 6.74-5.253l4.857 4.658.1-.1a36.87 36.87 0 0 0 6.046-8.127l-5.848-3.271a32.354 32.354 0 0 0 3.172-7.929zm-54.115 6.74a22.85 22.85 0 1 1 32.31-.5 22.853 22.853 0 0 1 -32.307.502zm4.559-4.757a16.262 16.262 0 1 1 22.994-.4 16.273 16.273 0 0 1 -22.991.4z" style="fill:#98bac8;stroke:#6e7f89;stroke-width:1.2;stroke-linecap:round;stroke-linejoin:round;stroke-miterlimit:10" transform="translate(-4.631 -2.086)"/><path d="m553.069 282.626a11.285 11.285 0 1 1 15.957-.3 11.19 11.19 0 0 1 -15.957.3z" style="fill:#e6edf2;stroke:#6e7f89;stroke-width:1.2;stroke-linecap:round;stroke-linejoin:round;stroke-miterlimit:10" transform="translate(-4.885 -2.34)"/><g clip-path="url(#a)" transform="translate(48.664 370.875)"><path d="m692.731 488.3h-473.455a13.811 13.811 0 0 0 -13.776 13.776 13.81 13.81 0 0 0 13.776 13.776h473.455z" opacity=".08" transform="translate(-50.49 -375.214)"/></g><path d="m692.731 478.5h-473.455a13.81 13.81 0 0 0 -13.776 13.776 13.81 13.81 0 0 0 13.776 13.776h473.455z" style="fill:#98bac8;stroke:#6e7f89;stroke-width:1.2;stroke-linecap:round;stroke-linejoin:round;stroke-miterlimit:10" transform="translate(-1.826 -4.252)"/><path d="m336.285 169.084v11.299" style="fill:none;stroke:#6e7f89;stroke-width:1.2;stroke-linecap:round;stroke-linejoin:round;stroke-miterlimit:10"/><path d="m330.636 174.733h11.398" style="fill:none;stroke:#6e7f89;stroke-width:1.2;stroke-linecap:round;stroke-linejoin:round;stroke-miterlimit:10"/><path d="m33.4 132.809v21.705" style="fill:none;stroke:#6e7f89;stroke-width:1.2;stroke-linecap:round;stroke-linejoin:round;stroke-miterlimit:10"/><path d="m22.597 143.612h21.705" style="fill:none;stroke:#6e7f89;stroke-width:1.2;stroke-linecap:round;stroke-linejoin:round;stroke-miterlimit:10"/><path d="m366.91 373.353v11.299" style="fill:none;stroke:#6e7f89;stroke-width:1.2;stroke-linecap:round;stroke-linejoin:round;stroke-miterlimit:10"/><path d="m361.261 379.002h11.299" style="fill:none;stroke:#6e7f89;stroke-width:1.2;stroke-linecap:round;stroke-linejoin:round;stroke-miterlimit:10"/><circle cx="312.597" cy="41.924" r="4.46" style="fill:#fff;stroke:#6e7f89;stroke-width:1.2;stroke-linecap:round;stroke-linejoin:round;stroke-miterlimit:10"/><circle cx="21.904" cy="339.952" r="4.46" style="fill:#ff7c6e;stroke:#6e7f89;stroke-width:1.2;stroke-linecap:round;stroke-linejoin:round;stroke-miterlimit:10"/><circle cx="63.827" cy="266.312" r="8.226" style="fill:#fff;stroke:#6e7f89;stroke-width:1.2;stroke-linecap:round;stroke-linejoin:round;stroke-miterlimit:10"/><circle cx="345.403" cy="258.185" r="2.775" style="fill:#fff;stroke:#6e7f89;stroke-width:1.2;stroke-linecap:round;stroke-linejoin:round;stroke-miterlimit:10"/><circle cx="29.04" cy="201.89" r="2.775" style="fill:#fff;stroke:#6e7f89;stroke-width:1.2;stroke-linecap:round;stroke-linejoin:round;stroke-miterlimit:10"/><circle cx="22.102" cy="58.773" r="2.775" style="fill:#fff;stroke:#6e7f89;stroke-width:1.2;stroke-linecap:round;stroke-linejoin:round;stroke-miterlimit:10"/><circle cx="167.3" cy="154.118" r="5.154" style="fill:#f1f2f2;stroke:#6e7f89;stroke-width:1.2;stroke-linecap:round;stroke-linejoin:round;stroke-miterlimit:10"/><circle cx="307.245" cy="335.096" r="5.154" style="fill:#f1f2f2;stroke:#6e7f89;stroke-width:1.2;stroke-linecap:round;stroke-linejoin:round;stroke-miterlimit:10"/><path d="m95.246 20.912v-9.316" style="fill:none;stroke:#6e7f89;stroke-width:1.2;stroke-linecap:round;stroke-linejoin:round;stroke-miterlimit:10"/><path d="m356.603 306.75h15.957" style="fill:none;stroke:#6e7f89;stroke-width:1.2;stroke-linecap:round;stroke-linejoin:round;stroke-miterlimit:10"/><path d="m48.664 370.875h298.32501v11.299h-298.32501z" opacity=".08"/><path d="m204.2 356.429h9.217v-41.329h-3.865a5.33 5.33 0 0 0 -5.352 5.352z" opacity=".08" transform="translate(-1.815 -2.8)"/><path d="m103.5 356.194h9.217v-67.594h-5.352a3.808 3.808 0 0 0 -3.865 3.865z" opacity=".08" transform="translate(-.92 -2.565)"/><path d="m209.323 312.399h67.989998v41.528h-67.989998z" style="fill:#e6edf2;stroke:#6e7f89;stroke-width:1.2;stroke-linecap:round;stroke-linejoin:round;stroke-miterlimit:10"/><path d="m245.38 325.057h-1.586a.677.677 0 0 1 -.694-.694v-3.37a.677.677 0 0 1  .694-.694h1.586a.677.677 0 0 1  .694.694v3.37c-.1.397-.298.694-.694.694z" style="fill:#d5f4f2;stroke:#6e7f89;stroke-width:1.2;stroke-linecap:round;stroke-linejoin:round;stroke-miterlimit:10" transform="translate(-2.16 -2.846)"/><path d="m252.58 325.057h-1.586a.677.677 0 0 1 -.694-.694v-3.37a.677.677 0 0 1  .694-.694h1.586a.677.677 0 0 1  .694.694v3.37a.835.835 0 0 1 -.694.694z" style="fill:#d5f4f2;stroke:#6e7f89;stroke-width:1.2;stroke-linecap:round;stroke-linejoin:round;stroke-miterlimit:10" transform="translate(-2.224 -2.846)"/><path d="m259.78 325.057h-1.586a.677.677 0 0 1 -.694-.694v-3.37a.677.677 0 0 1  .694-.694h1.586a.677.677 0 0 1  .694.694v3.37a.835.835 0 0 1 -.694.694z" style="fill:#d5f4f2;stroke:#6e7f89;stroke-width:1.2;stroke-linecap:round;stroke-linejoin:round;stroke-miterlimit:10" transform="translate(-2.288 -2.846)"/><path d="m266.98 325.057h-1.586a.677.677 0 0 1 -.694-.694v-3.37a.677.677 0 0 1  .694-.694h1.586a.677.677 0 0 1  .694.694v3.37a.835.835 0 0 1 -.694.694z" style="fill:#d5f4f2;stroke:#6e7f89;stroke-width:1.2;stroke-linecap:round;stroke-linejoin:round;stroke-miterlimit:10" transform="translate(-2.352 -2.846)"/><path d="m274.18 325.057h-1.586a.677.677 0 0 1 -.694-.694v-3.37a.677.677 0 0 1  .694-.694h1.586a.677.677 0 0 1  .694.694v3.37a.835.835 0 0 1 -.694.694z" style="fill:#d5f4f2;stroke:#6e7f89;stroke-width:1.2;stroke-linecap:round;stroke-linejoin:round;stroke-miterlimit:10" transform="translate(-2.416 -2.846)"/><path d="m245.38 335.157h-1.586a.677.677 0 0 1 -.694-.694v-3.37a.677.677 0 0 1  .694-.694h1.586a.677.677 0 0 1  .694.694v3.37c-.1.496-.298.694-.694.694z" style="fill:#d5f4f2;stroke:#6e7f89;stroke-width:1.2;stroke-linecap:round;stroke-linejoin:round;stroke-miterlimit:10" transform="translate(-2.16 -2.936)"/><path d="m252.58 335.157h-1.586a.677.677 0 0 1 -.694-.694v-3.37a.677.677 0 0 1  .694-.694h1.586a.677.677 0 0 1  .694.694v3.37c-.1.496-.397.694-.694.694z" style="fill:#d5f4f2;stroke:#6e7f89;stroke-width:1.2;stroke-linecap:round;stroke-linejoin:round;stroke-miterlimit:10" transform="translate(-2.224 -2.936)"/><path d="m259.78 335.157h-1.586a.677.677 0 0 1 -.694-.694v-3.37a.677.677 0 0 1  .694-.694h1.586a.678.678 0 0 1  .694.694v3.37c-.1.496-.397.694-.694.694z" style="fill:#d5f4f2;stroke:#6e7f89;stroke-width:1.2;stroke-linecap:round;stroke-linejoin:round;stroke-miterlimit:10" transform="translate(-2.288 -2.936)"/><path d="m266.98 335.157h-1.586a.677.677 0 0 1 -.694-.694v-3.37a.677.677 0 0 1  .694-.694h1.586a.677.677 0 0 1  .694.694v3.37c-.1.496-.397.694-.694.694z" style="fill:#d5f4f2;stroke:#6e7f89;stroke-width:1.2;stroke-linecap:round;stroke-linejoin:round;stroke-miterlimit:10" transform="translate(-2.352 -2.936)"/><path d="m274.18 335.157h-1.586a.677.677 0 0 1 -.694-.694v-3.37a.677.677 0 0 1  .694-.694h1.586a.677.677 0 0 1  .694.694v3.37c-.1.496-.397.694-.694.694z" style="fill:#d5f4f2;stroke:#6e7f89;stroke-width:1.2;stroke-linecap:round;stroke-linejoin:round;stroke-miterlimit:10" transform="translate(-2.416 -2.936)"/><path d="m245.38 345.357h-1.586a.677.677 0 0 1 -.694-.694v-3.37a.677.677 0 0 1  .694-.694h1.586a.677.677 0 0 1  .694.694v3.37c-.1.397-.298.694-.694.694z" style="fill:#d5f4f2;stroke:#6e7f89;stroke-width:1.2;stroke-linecap:round;stroke-linejoin:round;stroke-miterlimit:10" transform="translate(-2.16 -3.027)"/><path d="m252.58 345.357h-1.586a.677.677 0 0 1 -.694-.694v-3.37a.677.677 0 0 1  .694-.694h1.586a.677.677 0 0 1  .694.694v3.37a.835.835 0 0 1 -.694.694z" style="fill:#d5f4f2;stroke:#6e7f89;stroke-width:1.2;stroke-linecap:round;stroke-linejoin:round;stroke-miterlimit:10" transform="translate(-2.224 -3.027)"/><path d="m259.78 345.357h-1.586a.677.677 0 0 1 -.694-.694v-3.37a.677.677 0 0 1  .694-.694h1.586a.677.677 0 0 1  .694.694v3.37a.835.835 0 0 1 -.694.694z" style="fill:#d5f4f2;stroke:#6e7f89;stroke-width:1.2;stroke-linecap:round;stroke-linejoin:round;stroke-miterlimit:10" transform="translate(-2.288 -3.027)"/><path d="m266.98 345.357h-1.586a.677.677 0 0 1 -.694-.694v-3.37a.677.677 0 0 1  .694-.694h1.586a.677.677 0 0 1  .694.694v3.37a.835.835 0 0 1 -.694.694z" style="fill:#d5f4f2;stroke:#6e7f89;stroke-width:1.2;stroke-linecap:round;stroke-linejoin:round;stroke-miterlimit:10" transform="translate(-2.352 -3.027)"/><path d="m274.18 345.357h-1.586a.677.677 0 0 1 -.694-.694v-3.37a.677.677 0 0 1  .694-.694h1.586a.677.677 0 0 1  .694.694v3.37a.835.835 0 0 1 -.694.694z" style="fill:#d5f4f2;stroke:#6e7f89;stroke-width:1.2;stroke-linecap:round;stroke-linejoin:round;stroke-miterlimit:10" transform="translate(-2.416 -3.027)"/><path d="m236.374 338.887h-25.174v-23.787h28.445v20.516a3.3 3.3 0 0 1 -3.271 3.271z" style="fill:#c4d4dd;stroke:#6e7f89;stroke-width:1.2;stroke-linecap:round;stroke-linejoin:round;stroke-miterlimit:10" transform="translate(-1.877 -2.8)"/></g></svg>