<svg height="263.30002" viewBox="0 0 269.30002 263.30002" width="269.30002" xmlns="http://www.w3.org/2000/svg" xmlns:xlink="http://www.w3.org/1999/xlink"><clipPath id="a"><path d="m196.6 113.2h30.6v-23.5c0-8.4-6.8-15.3-15.3-15.3-8.4 0-15.3 6.8-15.3 15.3z" height="100%" transform="" width="100%"/></clipPath><g transform="translate(-57 -60)"><g stroke="#6f8089" stroke-linejoin="round" stroke-miterlimit="10" stroke-width="1.2"><circle cx="208.8" cy="205.8" fill="#99bbc8" r="104.9" stroke-linecap="round"/><circle cx="208.8" cy="205.8" fill="#d6eeee" r="95.699997" stroke-linecap="round"/><path d="m227.3 195.6h13.5c9.5 0 17.2 8.1 17.2 18.1v56.8c0 4.1-3.2 7.5-7.1 7.5h-8.3z" fill="#c5d5dd"/><path d="m202.9 195.6h-16.7c-9.4 0-17 8-17 17.9v11.3c0 4.1-3.4 7.4-7.3 7-3.5-.3-6-3.5-6-7.2v-21.2c0-3-2.3-5.5-5.2-5.5h-6.5c-2.9 0-5.2 2.5-5.2 5.5v20.9c0 13.8 10.5 25.3 23.6 25.3 4.2 0 8.2-1.2 11.7-3.2 3-1.8 5.3-4.4 6.7-7.6l.1-.2" fill="#c5d5dd"/><path d="m205.2 195.6h14.9c4.3 0 8.2-1.7 11.2-4.4 3.3-3 5.1-7.2 5.4-11.6l.3-5.1c0-.6.1-1.3.1-1.9v-28.4c0-9.8-7.6-17.8-17-17.8h-19c-9.4 0-17 8-17 17.8v33.7c0 9.8 7.6 17.8 17 17.8h14.9" fill="#f7e2d5"/><path d="m244.5 259.4h-63.5v-47.3c0-8.8 7.1-15.9 15.9-15.9h31.8c8.8 0 15.9 7.1 15.9 15.9v47.3z" fill="#c5d5dd"/><path d="m180.6 257.8h32.4 31.5" fill="#d6eeee"/><path d="m258 265.70001h-13.5" fill="#d6eeee"/><path d="m210 196.2v61.59999" fill="#d6eeee"/><path d="m184.6 180.8h-13.6s5.8-.2 5.7-8.9v-29s-1.3-23.7 20.5-28.6c1.2-.3 2.5-.4 3.8-.4h24.5c8.2 0 15.8 5 19 13 .1.3.2.6.3.9 1 2.8 1.5 5.8 1.5 8.8v39.8c0 3.5-2.7 6.3-6 6.3h-8.7s5.8-.2 5.7-8.9v-29.6c0-9.8-8-17.8-17.8-17.8h-17.5c-9.9 0-17.9 8.1-17.8 17.9z" fill="#80b5bc"/><path d="m236.8 143.5h-1.8c-3.3 0-6 2.8-6 6.3v4.3h-44.4v-10.4c0-9.5 7.7-17.2 17.2-17.2h19.2c9.2 0 16.5 7.8 15.8 17z" fill="#80b5bc"/><path d="m257.7 241.8c-3.6 0-6.5-3-6.5-6.8s2.9-6.8 6.5-6.8" fill="#80b5bc"/><path d="m170 248.3c0-3.8-3-6.8-6.5-6.7-3.6 0-6.4 3.1-6.4 6.9 0 0 2.2 1.6 7 1.1-.1.1 4.3-.7 5.9-1.3" fill="#80b5bc"/></g><ellipse cx="191.10001" cy="169.8" fill="#6f8089" rx="2.7" ry="2.8"/><ellipse cx="222.7" cy="169.60001" fill="#6f8089" rx="2.7" ry="2.8"/><path d="m227.8 113.9h-31.9v-24.2c0-8.8 7.2-16 16-16 8.8 0 16 7.2 16 16v24.2z" fill="#e7edf1" stroke="#6f8089" stroke-linejoin="round" stroke-miterlimit="10" stroke-width="1.2"/><ellipse cx="201.39999" cy="250.60001" fill="#e7edf1" rx="2.1" ry="2.2" stroke="#6f8089" stroke-linejoin="round" stroke-miterlimit="10" stroke-width="1.2"/><path d="m218.4 101.5c-3.1 3.5-8.4 3.7-11.7.4l-.6-.5 11.3-12.7.6.5c3.4 3.2 3.5 8.8.4 12.3z" fill="#faad76" stroke="#6f8089" stroke-linejoin="round" stroke-miterlimit="10" stroke-width="1.2"/><ellipse cx="208.89999" cy="92" fill="#99bbc8" rx="2.2" ry="2.3" stroke="#6f8089" stroke-linejoin="round" stroke-miterlimit="10" stroke-width="1.2"/><path d="m210.5 93.5 1.3 1.5" fill="none" stroke="#6f8089" stroke-linejoin="round" stroke-miterlimit="10" stroke-width="1.2"/><path d="m203.8 92c0-3 2.3-5.4 5.1-5.4" fill="none" stroke="#6f8089" stroke-linejoin="round" stroke-miterlimit="10" stroke-width="1.2"/><path d="m200.5 92c0-4.9 3.8-8.9 8.4-8.9" fill="none" stroke="#6f8089" stroke-linejoin="round" stroke-miterlimit="10" stroke-width="1.2"/><path d="m221.3 113.4h-5.1v-7.7c0-1.4 1.1-2.5 2.5-2.5 1.4 0 2.5 1.1 2.5 2.5v7.7z" fill="#faad76" stroke="#6f8089" stroke-linejoin="round" stroke-miterlimit="10" stroke-width="1.2"/><path d="m249.7 278h-5v-12.3h13.3v4c0 4.6-3.7 8.3-8.3 8.3z" fill="#f7e2d5" stroke="#6f8089" stroke-linejoin="round" stroke-miterlimit="10" stroke-width="1.2"/><path d="m155.9 210.7h-17v-6.8c0-3.6 2.9-6.5 6.5-6.5h4.1c3.6 0 6.5 2.9 6.5 6.5v6.8z" fill="#f7e2d5" stroke="#6f8089" stroke-linejoin="round" stroke-miterlimit="10" stroke-width="1.2"/><path d="m128.5 257.9h161.1s-27.8 44.8-80.8 43.6c0 0-48.9 1.8-80.3-43.6z" fill="#80b5bc" stroke="#6f8089" stroke-linejoin="round" stroke-miterlimit="10" stroke-width="1.2"/><path d="m190.6 178.8-.2-3.4c-.1-1.4-.1-2.7-.1-4.1v-26.8c0-9.6 7.9-17.5 17.6-17.5h-5.7c-9.7 0-17.6 7.8-17.6 17.5v26.8c0 1.4.1 2.8.1 4.1l.2 3.4c.6 8.7 7.6 15.8 16.4 16.2h.9 4.2 1.5c-.3 0-.6 0-.9 0-8.8-.4-15.8-7.5-16.4-16.2z" fill="#010101" opacity=".07"/><path d="m188 257.1c-2.3-.2-3.7 0-6.3 0l-.1-46.5s-.4-11.3 11.9-13.5c0 0-6.3 3.3-6.3 14.9 0 6.4.8 45.1.8 45.1z" fill="#010101" opacity=".07"/><path d="m194 252.9h-6.8c-1.1 0-2-.9-2-2 0-1.1.9-2 2-2h6.8c1.1 0 2 .9 2 2 0 1.1-.9 2-2 2z" fill="#e7edf1" stroke="#6f8089" stroke-linejoin="round" stroke-miterlimit="10" stroke-width="1.2"/><ellipse cx="210.5" cy="230.60001" fill="#010101" opacity=".07" rx="14.3" ry="15.1"/><ellipse cx="210.5" cy="226.7" fill="#f37a6f" rx="14.3" ry="15.1" stroke="#6f8089" stroke-linejoin="round" stroke-miterlimit="10" stroke-width="1.2"/><ellipse cx="210.5" cy="226.7" fill="#d6eeee" rx="10.8" ry="11.4" stroke="#6f8089" stroke-linejoin="round" stroke-miterlimit="10" stroke-width="1.2"/><path d="m202.3 226.7c0-4.8 3.7-8.6 8.2-8.6" fill="none" stroke="#6f8089" stroke-linejoin="round" stroke-miterlimit="10" stroke-width="1.2"/><path d="m204.8 226.7c0-3.3 2.6-6 5.7-6" fill="none" stroke="#6f8089" stroke-linejoin="round" stroke-miterlimit="10" stroke-width="1.2"/><path d="m207 226.7c0-2 1.6-3.7 3.5-3.7" fill="none" stroke="#6f8089" stroke-linejoin="round" stroke-miterlimit="10" stroke-width="1.2"/><path d="m210.5 228.7h-8.60001" fill="none" stroke="#6f8089" stroke-linejoin="round" stroke-miterlimit="10" stroke-width="1.2"/><path clip-path="url(#a)" d="m200.9 113.9v-19.6s-.1-19.3 11-19.8l-4-2.5-16.9 8.9.5 33z" fill="#010101" opacity=".07"/><path d="m142.8 113.4h-65c-4.5 0-8.2 3.7-8.2 8.2v39.4c0 4.5 3.7 8.2 8.2 8.2h47.4l12.4 13.1v-13.1h5.3c4.5 0 8.2-3.7 8.2-8.2v-39.3c-.1-4.6-3.8-8.3-8.3-8.3z" fill="#f37a6f" stroke="#6f8089" stroke-linejoin="round" stroke-miterlimit="10" stroke-width="1.2"/><path d="m139.1 131.5h-56.7c-2.2 0-4-1.8-4-4 0-2.2 1.8-4 4-4h56.7c2.2 0 4 1.8 4 4 0 2.2-1.8 4-4 4z" style="fill:#e7edf1;stroke:#6f8089;stroke-width:1.2;stroke-linecap:round;stroke-linejoin:round;stroke-miterlimit:10"/><path d="m138.9 144.5h-56.7c-2.2 0-4-1.8-4-4 0-2.2 1.8-4 4-4h56.7c2.2 0 4 1.8 4 4 0 2.2-1.8 4-4 4z" style="fill:#e7edf1;stroke:#6f8089;stroke-width:1.2;stroke-linecap:round;stroke-linejoin:round;stroke-miterlimit:10"/><circle cx="94.800003" cy="153.8" r="3.3" style="fill:#e7edf1;stroke:#6f8089;stroke-width:1.2;stroke-linecap:round;stroke-linejoin:round;stroke-miterlimit:10"/><circle cx="106.4" cy="153.8" r="3.3" style="fill:#e7edf1;stroke:#6f8089;stroke-width:1.2;stroke-linecap:round;stroke-linejoin:round;stroke-miterlimit:10"/></g></svg>