<svg xmlns="http://www.w3.org/2000/svg" viewBox="0 0 307 217"><defs><style>.cls-2{fill:#c4d4dd}.cls-3{fill:#e6edf2}.cls-4{fill:#9bb4bf}.cls-5{fill:#7eb5bd}.cls-6{fill:#6e7f89}.cls-8{fill:#fdae76}.cls-10,.cls-11{fill:none;stroke:#6e7f89;stroke-width:1.5px}.cls-10{stroke-linecap:round;stroke-linejoin:round}.cls-11{stroke-miterlimit:10}.cls-12{opacity:.07;mix-blend-mode:multiply}</style></defs><g style="isolation:isolate"><g id="Layer_1" data-name="Layer 1"><path class="cls-2" d="M283 144a3 3 0 0 1 2 5l-4 12a3 3 0 0 1-3 2h-8c-6 0-9 4-9 8a9 9 0 0 0 0 3l3 7c0 2 0 4-2 5l-11 6a3 3 0 0 1-4 0l-6-7a8 8 0 0 0-13 2l-4 8c-1 2-2 2-4 2l-13-4a3 3 0 0 1-2-3v-8c1-4-3-8-6-9a7 7 0 0 0-4 0l-8 3a4 4 0 0 1-5-2l-6-11c-1-2-1-3 1-4l6-6c5-3 3-11-2-13l-7-4a3 3 0 0 1-2-4l3-12a3 3 0 0 1 4-3l8 1c5 0 11-6 8-11l-2-8a3 3 0 0 1 1-4l12-7a3 3 0 0 1 4 1l5 6c3 3 7 3 10 2a8 8 0 0 0 4-4l3-7a3 3 0 0 1 4-2l13 3a3 3 0 0 1 2 4v8a8 8 0 0 0 11 8l8-2a3 3 0 0 1 3 1l7 11c1 2 1 4-1 5l-6 6c-4 3-2 11 3 13l7 3zm-28 3a28 28 0 0 0-20-33 27 27 0 0 0-33 19c-4 15 4 30 19 34a28 28 0 0 0 34-20z"/><path class="cls-3" d="M235 114a28 28 0 0 1 20 33 28 28 0 0 1-34 20c-15-4-23-19-19-34a27 27 0 0 1 33-19z"/><path class="cls-4" d="M188 89v18c0 2-1 4-4 4l-11 3c-7 1-11 8-9 14a13 13 0 0 0 1 3l6 9c2 3 2 5 0 7l-13 13a5 5 0 0 1-6 0l-10-6c-6-4-15 0-17 7l-2 12c-1 3-2 4-5 4h-18a5 5 0 0 1-5-4l-2-11c0-6-7-10-12-10a9 9 0 0 0-5 2l-9 6c-3 2-6 2-8-1l-12-12c-2-2-2-4 0-6l6-10c4-6 0-16-7-17l-12-2c-3-1-4-3-4-5V89a5 5 0 0 1 4-5l11-2c8-1 13-11 8-18l-6-9c-2-2-2-4 0-6l13-13a5 5 0 0 1 6-1l10 7c4 3 9 2 13-1a11 11 0 0 0 4-7l2-11a5 5 0 0 1 5-4h18c3 0 4 2 5 4l2 12c2 7 11 11 17 7l10-7a4 4 0 0 1 5 1l14 13c2 1 2 4 0 6l-6 10c-4 6 0 16 8 17l11 2c3 0 4 2 4 5zm-37 9a42 42 0 0 0-31-41 10 10 0 0 0 0-3 10 10 0 0 0-20 0 9 9 0 0 0 0 2 41 41 0 0 0-33 41 42 42 0 0 0 42 43 42 42 0 0 0 23-6 43 43 0 0 0 19-36z"/><path class="cls-3" d="M120 57a42 42 0 0 1 31 41 43 43 0 0 1-19 36v-9a11 11 0 0 0 0-1 11 11 0 0 0-8-9 11 11 0 0 0-3 0h-8a13 13 0 0 0 13-14v-2h2a3 3 0 0 0 2-3V80a11 11 0 0 0-11-11h-5v-5a10 10 0 0 0 6-7z"/><path class="cls-2" d="M104 134h14a2 2 0 0 0 2-2v-6a2 2 0 0 0-2-2h-17a2 2 0 0 0-3 2v6a2 2 0 0 0 2 2zm-18-9a11 11 0 0 1 0-1 6 6 0 0 0 3 0 6 6 0 0 0 5-9 10 10 0 0 1 3 0h24a11 11 0 0 1 3 0 6 6 0 0 0 5 10 6 6 0 0 0 2-1h1a11 11 0 0 1 0 1v9a42 42 0 0 1-23 6 42 42 0 0 1-23-6v-9z"/><path class="cls-5" d="M129 125a6 6 0 0 1-5-10 11 11 0 0 1 8 9h-1a6 6 0 0 1-2 1zM126 89v2a45 45 0 0 1-32-7l-1-1a13 13 0 0 1 13-8h7a13 13 0 0 1 13 14z"/><path class="cls-6" d="M119 103a2 2 0 1 1 2 0 2 2 0 0 1-2 0z"/><path class="cls-4" d="M104 134v-10h14a2 2 0 0 1 2 2v6a2 2 0 0 1-2 2zm3-5a1 1 0 1 0 2-1 1 1 0 0 0-2 1zm10 0a1 1 0 1 0-1 2 1 1 0 0 0 1-2z"/><path d="M119 103a2 2 0 1 0 0-2 2 2 0 0 0 0 2zM94 84a45 45 0 0 0 32 7v10a13 13 0 0 1-13 14h-7a13 13 0 0 1-14-14V89a13 13 0 0 1 1-6zm5 19a2 2 0 1 0-1-2 2 2 0 0 0 1 2z" fill="#f9e3d4"/><path class="cls-3" d="M116 128a1 1 0 1 1-2 1 1 1 0 0 1 2-1z"/><path class="cls-8" d="M114 56h-4a2 2 0 0 1 2-2 2 2 0 0 1 2 2z"/><path class="cls-8" d="M110 56a2 2 0 0 0-4 0 43 43 0 0 0-6 0 9 9 0 0 1 0-2 10 10 0 0 1 20 0 10 10 0 0 1 0 3 41 41 0 0 0-6-1 2 2 0 0 0-2-2 2 2 0 0 0-2 2z"/><path class="cls-8" d="M114 56a2 2 0 0 1-4 0h4z"/><path d="M110 56z" fill="#fff"/><path class="cls-8" d="M110 56a2 2 0 0 0 4 0 41 41 0 0 1 6 1 10 10 0 0 1-6 6v6h-4zM108 58a2 2 0 0 0 2-2v13h-4v-5a10 10 0 0 1-6-8 43 43 0 0 1 6 0 2 2 0 0 0 2 2z"/><path class="cls-3" d="M109 128a1 1 0 1 1-2 1 1 1 0 0 1 2-1z"/><path class="cls-8" d="M108 54a2 2 0 0 1 2 2h-4a2 2 0 0 1 2-2zM110 56a2 2 0 1 1-4 0h4z"/><path class="cls-3" d="M104 125v9h-4a2 2 0 0 1-2-2v-6a2 2 0 0 1 2-2h4z"/><path class="cls-6" d="M101 103a2 2 0 1 1 0-2 2 2 0 0 1 0 2z"/><path class="cls-3" d="M91 99h1v2a13 13 0 0 0 14 14h-9a10 10 0 0 0-3 0 11 11 0 0 0-8 9 11 11 0 0 0 0 1v9a43 43 0 0 1-19-37 41 41 0 0 1 33-41 10 10 0 0 0 6 8v5h-6a11 11 0 0 0-12 11v16a3 3 0 0 0 3 3z"/><path class="cls-5" d="M91 99a3 3 0 0 1-3-3V80a11 11 0 0 1 12-11h19a11 11 0 0 1 11 11v16a3 3 0 0 1-2 3h-2V89a13 13 0 0 0-13-14h-7a13 13 0 0 0-14 14v10zM89 125a6 6 0 0 1-3-1 11 11 0 0 1 8-9 6 6 0 0 1-5 10z"/><path class="cls-10" d="M81 152a9 9 0 0 0-5 2l-9 6c-3 2-6 2-8-1l-12-12c-2-2-2-4 0-6l6-10c4-6 0-16-7-17l-12-2c-3-1-4-3-4-5V89a5 5 0 0 1 4-5l11-2c8-1 13-11 8-18l-6-9c-2-2-2-4 0-6l13-13a5 5 0 0 1 6-1l10 7c4 3 9 2 13-1a11 11 0 0 0 4-7l2-11a5 5 0 0 1 5-4h18c3 0 4 2 5 4l2 12c2 7 11 11 17 7l10-7a4 4 0 0 1 5 1l14 13c2 1 2 4 0 6l-6 10c-4 6 0 16 8 17l11 2c3 0 4 2 4 5v18c0 2-1 4-4 4l-11 3c-7 1-11 8-9 14a13 13 0 0 0 1 3l6 9c2 3 2 5-1 7l-12 13a5 5 0 0 1-6 0l-10-6c-6-4-15 0-17 7l-2 12c-1 3-2 4-5 4h-18a5 5 0 0 1-5-4l-2-11c0-6-7-10-12-10z"/><path class="cls-10" d="M100 56a41 41 0 0 0-33 41 42 42 0 0 0 42 43 42 42 0 0 0 23-6 43 43 0 0 0 19-36 42 42 0 0 0-31-41M199 173a7 7 0 0 0-4 0l-8 3a4 4 0 0 1-5-2l-6-11c-1-2-1-3 1-4l6-6c5-3 3-11-2-13l-7-4a3 3 0 0 1-2-4l3-12a3 3 0 0 1 4-3l8 1c5 0 11-6 8-11l-2-8a3 3 0 0 1 1-4l12-7a3 3 0 0 1 4 1l5 6c3 3 7 3 10 2a8 8 0 0 0 4-4l3-7a3 3 0 0 1 4-2l13 3a3 3 0 0 1 2 4v8a8 8 0 0 0 11 8l8-2a3 3 0 0 1 3 1l7 11c1 2 1 4-1 5l-6 6c-4 3-2 11 3 13l7 3a3 3 0 0 1 2 5l-4 12a3 3 0 0 1-3 2h-8c-6 0-9 4-9 8a9 9 0 0 0 0 3l3 7c0 2 0 4-2 5l-11 6a3 3 0 0 1-4 0l-6-7a8 8 0 0 0-13 2l-4 8c-1 2-2 2-4 2l-13-4a3 3 0 0 1-2-3v-8c1-4-3-8-6-9z"/><path class="cls-10" d="M255 147a28 28 0 0 0-20-33 27 27 0 0 0-33 19c-4 15 4 30 19 34a28 28 0 0 0 34-20zM113 115a13 13 0 0 0 13-14V89a13 13 0 0 0-13-14h-7a13 13 0 0 0-14 14v12a13 13 0 0 0 14 14"/><path class="cls-10" d="M132 134v-9a11 11 0 0 0 0-1 11 11 0 0 0-8-9 11 11 0 0 0-3 0H97a10 10 0 0 0-3 0 11 11 0 0 0-8 9 11 11 0 0 0 0 1v9M100 56a9 9 0 0 1 0-2 10 10 0 0 1 20 0 10 10 0 0 1-6 10v5h-8v-5a10 10 0 0 1-6-8zM110 69V56"/><path class="cls-10" d="M114 56a2 2 0 0 0-2-2 2 2 0 0 0-2 2 2 2 0 0 0 4 0M106 56a2 2 0 1 0 4 0 2 2 0 0 0-4 0zM124 54h2M94 54h2M94 84a45 45 0 0 0 32 7M110 40v-3M122 42l-2 3M100 45l-2-2"/><path class="cls-10" d="M91 99a3 3 0 0 1-3-3V80a11 11 0 0 1 12-11h19a11 11 0 0 1 11 11v16a3 3 0 0 1-2 3h-2M104 124h14a2 2 0 0 1 2 2v6a2 2 0 0 1-2 2h-17a2 2 0 0 1-3-2v-6a2 2 0 0 1 2-2zM94 115a6 6 0 0 1-5 10 6 6 0 0 1-3-1M124 115a6 6 0 0 0 5 10 6 6 0 0 0 2-1"/><path class="cls-11" d="M104 134v-9M110 129a1 1 0 1 1-1-1 1 1 0 0 1 1 1zM117 129a1 1 0 1 1-1-1 1 1 0 0 1 1 1z"/><path class="cls-6" d="M226 147l-1-1a19 19 0 0 1-5-1 11 11 0 0 1-3-1 8 8 0 0 1-2-4 11 11 0 0 1-1-2 15 15 0 0 1 0-3 9 9 0 0 1 2-6 10 10 0 0 1 1-6h1a11 11 0 0 1 5 2 22 22 0 0 1 3 0 24 24 0 0 1 4-1 26 26 0 0 1 4 1h1a19 19 0 0 1 3-2 9 9 0 0 1 2 0h1a5 5 0 0 1 0 1 12 12 0 0 1 1 3 12 12 0 0 1-1 2 10 10 0 0 1 3 5 14 14 0 0 1-1 6 8 8 0 0 1-3 4 11 11 0 0 1-4 2 22 22 0 0 1-3 1h2a4 4 0 0 1 1 3 6 6 0 0 1 0 1v7a4 4 0 0 0 2 1v1a4 4 0 0 1-3-1 2 2 0 0 1-1-1 5 5 0 0 1 0-1v-5a1 1 0 0 0-1-1 2 2 0 0 0 0-1v7a7 7 0 0 0 0 2 2 2 0 0 0 0 1 2 2 0 0 1 1 1h-1a5 5 0 0 1-2-1 2 2 0 0 1 0-1 6 6 0 0 1-1-2v-7h-1v7a6 6 0 0 1-1 2 3 3 0 0 1-2 2 7 7 0 0 1-1 0v-1a4 4 0 0 0 1-2 9 9 0 0 0 0-1v-7a2 2 0 0 0-1 1 2 2 0 0 0 0 1v5a3 3 0 0 1 0 1 2 2 0 0 1-1 1 3 3 0 0 1-2 1 5 5 0 0 1-1 0v-1a5 5 0 0 0 1-1 2 2 0 0 0 0-1v-2a12 12 0 0 1 0-2 6 6 0 0 1-5-1 4 4 0 0 1-1-1 15 15 0 0 1-1-1 9 9 0 0 0-2-3h-1v-1a1 1 0 0 1 1 0 2 2 0 0 1 1 0 5 5 0 0 1 2 1l1 1a6 6 0 0 0 1 2 4 4 0 0 0 4 0 1 1 0 0 0 1-1 3 3 0 0 1 1-2h2z"/><path class="cls-12" d="M109 130a42 42 0 0 1-42-37 43 43 0 0 0 0 4c0 24 18 43 42 43 23 1 42-19 42-42a45 45 0 0 0 0-5c-2 21-21 38-42 37zM255 138a28 28 0 0 1-34 20 27 27 0 0 1-20-22 27 27 0 0 0 20 31 28 28 0 0 0 34-20 28 28 0 0 0 1-11l-1 2zM53 64c3 4 2 10-1 13h3c8-1 13-11 8-18l-6-9c-2-2-2-4 0-6l8-9a5 5 0 0 0-5 1L47 49c-2 2-2 4 0 6l6 9zM99 36a11 11 0 0 0 4-7l2-10h-5a5 5 0 0 0-5 4l-2 11a11 11 0 0 1-2 5 12 12 0 0 0 8-3zM152 37l4-2a4 4 0 0 0-4 0l-5 4a11 11 0 0 0 5-2zM110 172a5 5 0 0 1-5-4l-2-11c0-6-7-10-12-10a9 9 0 0 0-5 2l-5 3c5 0 12 4 12 10l2 11a5 5 0 0 0 5 4h18c3 0 4-1 5-4v-1zM183 109a11 11 0 0 0-7 4l8-2a4 4 0 0 0 4-3l-5 1zM69 154l-12-12c-2-2-2-4 0-6l6-10c4-6 0-16-7-17l-12-2c-3-1-4-3-4-5V84a7 7 0 0 1 0-1l-6 1a5 5 0 0 0-4 5v18c0 2 1 4 4 5l12 2c7 1 11 11 7 17l-6 10c-2 2-2 4 0 6l12 12c2 3 5 3 8 1l6-4a6 6 0 0 1-4-2zM162 155l-10-6c-5-3-12-1-15 3a11 11 0 0 1 5 2l10 6a5 5 0 0 0 6 0l4-4v-1zM195 107c2 4-1 8-4 10l6 1c5 0 11-6 8-11l-2-8a3 3 0 0 1 1-4l7-4-1-2a3 3 0 0 0-4-1l-12 7a3 3 0 0 0-1 4l2 8zM192 174l-6-11c-1-2-1-3 1-4l6-6c5-3 3-11-2-13l-7-4a3 3 0 0 1-2-4l3-12a4 4 0 0 1 1-2l-7-1a3 3 0 0 0-4 3l-3 12a3 3 0 0 0 2 4l7 4c5 2 7 10 2 13l-6 6c-2 1-2 2-1 4l6 11a4 4 0 0 0 5 2l5-2zM235 97a8 8 0 0 0 4-4l3-7a3 3 0 0 1 0-1l-6-1a3 3 0 0 0-4 2l-3 7a8 8 0 0 1-3 3 8 8 0 0 0 9 1zM272 108l2-1-1-1a3 3 0 0 0-3-1l-5 1a8 8 0 0 0 7 2zM280 163a8 8 0 0 0-4 0l2 1a3 3 0 0 0 2-1zM217 193a3 3 0 0 1-2-3v-8c1-4-3-8-6-9a7 7 0 0 0-4 0l-3 1a8 8 0 0 1 3 8v8a3 3 0 0 0 2 3l13 4c2 0 3 0 4-2zM251 185a8 8 0 0 0-11 0 6 6 0 0 1 1 0l6 7a3 3 0 0 0 4 0l4-2z"/></g></g></svg>