<svg xmlns="http://www.w3.org/2000/svg" viewBox="0 0 425 207"><defs><style>.cls-2{fill:#9bb4bf}.cls-3{fill:#7eb5bd}.cls-4{fill:#6e7f89}.cls-5{fill:#f9e3d4}.cls-6{fill:#fdae76}.cls-7{fill:#e6edf2}.cls-8{fill:#c4d4dd}.cls-9{fill:#fff}.cls-10{fill:none;stroke:#6e7f89;stroke-linecap:round;stroke-linejoin:round;stroke-width:1.5px}.cls-11{opacity:.07;mix-blend-mode:multiply}</style></defs><g style="isolation:isolate"><g id="Layer_1" data-name="Layer 1"><path class="cls-2" d="M397 129v6h-35v-6a8 8 0 0 1 8-8h19a8 8 0 0 1 8 8z"/><path class="cls-3" d="M396 106a2 2 0 0 1-2 3h-1v-9a11 11 0 0 0-10-10h-6a10 10 0 0 0-10 10h-3v-6a9 9 0 0 1 8-9h16a9 9 0 0 1 8 9z"/><path class="cls-3" d="M393 100v2a35 35 0 0 1-25-5l-1-1a11 11 0 0 1 10-6h6a11 11 0 0 1 10 10z"/><path class="cls-4" d="M389 110a1 1 0 1 1-2 0 1 1 0 0 1 2 0z"/><path class="cls-5" d="M368 97a35 35 0 0 0 25 5v8a11 11 0 0 1-10 11h-6a11 11 0 0 1-10-11v-10a10 10 0 0 1 0-4zm19 15a1 1 0 1 0 2-2 1 1 0 0 0-2 2zm-15 0a1 1 0 1 0-1-2 1 1 0 0 0 1 2z"/><path class="cls-6" d="M382 74a2 2 0 1 1-1 1 2 2 0 0 1 1-1z"/><path class="cls-6" d="M381 85h-3v-4a8 8 0 1 1 5 0v4zm0-10a2 2 0 1 0-2 2 2 2 0 0 0 2-2zM381 75zM381 75z"/><path class="cls-7" d="M367 110a11 11 0 0 0 10 11h-7a8 8 0 0 0-8 8v6h35v-6a8 8 0 0 0-8-8h-6a11 11 0 0 0 10-11v-1h1a2 2 0 0 0 2-3V94a9 9 0 0 0-8-9h-5v-4a8 8 0 1 0-5 0v4h-6a9 9 0 0 0-8 9v12a2 2 0 0 0 2 3h1zm46-60v102h-77v-45h16v-7h-16v-9h16v-7h-16v-9h16v-7h-16V50zm-63 76l3-3-5-1-1-3-2 3-4 1 3 3-1 4 4-2 3 2z"/><path class="cls-4" d="M371 110a1 1 0 1 1 1 2 1 1 0 0 1-1-2z"/><path class="cls-3" d="M367 100v9h-1a2 2 0 0 1-2-3v-6z"/><path class="cls-2" d="M354 168v3a22 22 0 0 1-23 23H109a22 22 0 0 1-23-23v-3h268z"/><path class="cls-6" d="M353 123l-3 3v4l-3-2-4 2 1-4-3-3 4-1 2-3 1 3 5 1z"/><path class="cls-8" d="M336 100h16v7h-16zM336 84h16v7h-16zM336 68h16v7h-16zM336 152v16H104v-16h33v1h166v-1h33zM335 123l-4-1-2-3-2 3-4 1 3 3-1 4 4-2 4 2-1-4zm1-16v45h-33v-45zM303 100h33v7h-33zM303 91h33v9h-33zM303 84h33v7h-33zM336 75v9h-33v-8a14 14 0 0 0 2-1zM336 68v7h-31a18 18 0 0 0 4-7zM336 50v18h-27a18 18 0 0 0-1-14l3-4z"/><path class="cls-8" d="M336 36v14h-25l2-2a3 3 0 0 0-5-4l-4 5a18 18 0 0 0-25 1h-33v1h-54v-1h-3l3-3a3 3 0 1 0-5-4l-6 7h-77V36z"/><path class="cls-2" d="M336 36H104a10 10 0 0 1 10-10h212a10 10 0 0 1 10 10z"/><path class="cls-8" d="M335 123l-3 3 1 4-4-2-4 2 1-4-3-3 4-1 2-3 2 3 4 1z"/><path class="cls-7" d="M312 44a3 3 0 0 1 1 4l-2 2h-5a18 18 0 0 0-2-1l4-5a3 3 0 0 1 4 0zM311 50l-3 4a18 18 0 0 0-2-4z"/><path class="cls-3" d="M310 62a18 18 0 0 1-1 6h-6v-8l5-6a18 18 0 0 1 2 8zM303 68h6a18 18 0 0 1-4 7h-2z"/><path class="cls-7" d="M304 49a18 18 0 0 1 2 1h-3z"/><path class="cls-9" d="M303 75h2a14 14 0 0 1-2 1z"/><path class="cls-3" d="M304 49l-1 1h-24a18 18 0 0 1 25-1z"/><path class="cls-7" d="M303 107v45h-57v-45h2v-7h-2v-8h22v-7h-22v-9h22v-7h-22V51h32a18 18 0 0 0 25 25v8h-21v7h21v9h-2v7z"/><path class="cls-7" d="M301 100h2v7h-2zM282 84h21v7h-21z"/><path class="cls-3" d="M303 68v7h-21v-7h11a3 3 0 0 0 1 1h1a3 3 0 0 0 1-1z"/><path class="cls-3" d="M303 60v8h-7a4 4 0 0 0 1 0z"/><path class="cls-7" d="M303 51v9l-6 8a4 4 0 0 1-1 0h-4l-5-5a3 3 0 0 1 4-5l3 3 8-10z"/><path class="cls-7" d="M303 50h3a18 18 0 0 1 2 4l-5 6v-9h-1z"/><path class="cls-3" d="M303 50l-1 1h-24l1-1z"/><path class="cls-9" d="M293 68h3a3 3 0 0 1-1 1h-1a3 3 0 0 1-1-1z"/><path class="cls-3" d="M282 75h21v1a18 18 0 0 1-23 0z"/><path class="cls-3" d="M282 68v7l-2 1a18 18 0 0 1-2-25h24l-8 10-3-3a3 3 0 0 0-4 5l5 5h1z"/><path class="cls-9" d="M246 50h33l-1 1h-32z"/><path class="cls-8" d="M246 85h21v7h-21zM246 69h21v7h-21zM246 100h2v7h-2z"/><path class="cls-7" d="M244 124l-4-1-2-4-2 4-4 1 3 3v4l3-2 4 2-1-4zm59 29H137v-1h55V51h54v18h-48v7h48v9h-48v7h48v8h-48v7h48v45h57zm-79-26l3-3-4-1-2-4-2 4-4 1 3 3-1 4 4-2 4 2zm-18 0l3-3-4-1-2-4-1 4-5 1 3 3v4l3-2 4 2z"/><path class="cls-8" d="M198 100h49v7h-49zM198 85h49v7h-49zM198 69h49v7h-49z"/><path class="cls-6" d="M244 124l-3 3 1 4-4-2-3 2v-4l-3-3 4-1 2-4 2 4 4 1zM227 124l-3 3 1 4-4-2-4 2 1-4-3-3 4-1 2-4 2 4 4 1zM209 124l-3 3 1 4-4-2-3 2v-4l-3-3 5-1 1-4 2 4 4 1z"/><path class="cls-9" d="M192 50v1h-3v-1h3z"/><path class="cls-8" d="M191 43a3 3 0 0 1 1 4l-3 3h-8l6-7a3 3 0 0 1 4 0z"/><path class="cls-9" d="M189 50v1h-8v-1h8z"/><path class="cls-7" d="M171 67l-6-5a3 3 0 1 1 5-5l3 3 8-9h8l-13 16a3 3 0 0 1-2 1 8 8 0 0 0-3-1z"/><path class="cls-2" d="M188 130v6h-36v-6a8 8 0 0 1 9-9h19a8 8 0 0 1 8 9z"/><path class="cls-5" d="M183 110v1a11 11 0 0 1-10 10h-6a10 10 0 0 1-10-10v-8a35 35 0 0 0 25-6h1a10 10 0 0 1 0 4zm-5 3a1 1 0 1 0-2 0 1 1 0 0 0 2 0zm-16 0a1 1 0 0 0-1-3 1 1 0 1 0 1 3z"/><path class="cls-3" d="M183 97h-1a35 35 0 0 1-25 6v-2a11 11 0 0 1 10-10h6a10 10 0 0 1 10 6z"/><path class="cls-4" d="M178 111a1 1 0 1 1-2 0 1 1 0 0 1 2 0z"/><path class="cls-9" d="M174 68h-1a3 3 0 0 1-2-1 8 8 0 0 1 3 1z"/><circle class="cls-6" cx="171" cy="76" r="2"/><path class="cls-7" d="M188 130a8 8 0 0 0-8-9h-7a11 11 0 0 0 10-10v-1h5c1-25-19-24-19-24h3v-4a8 8 0 0 0 2-14 3 3 0 0 0 2-1l13-16h3v101h-55V91h20c-7 8-5 22-5 22h5a11 11 0 0 0 10 8h-6a8 8 0 0 0-9 9v6h36z"/><path class="cls-3" d="M157 111a11 11 0 0 0 0 2h-5s-2-14 5-22c2-3 6-5 12-5 0 0 20-1 19 24h-5v-9a10 10 0 0 0 0-4 10 10 0 0 0-10-6h-6a11 11 0 0 0-10 10v10z"/><path class="cls-6" d="M169 76a2 2 0 1 0 2-2 2 2 0 0 0-2 2 2 2 0 1 0-1 2 2 2 0 0 0 1-2zm-3 6a8 8 0 0 1 3-15 7 7 0 0 1 2 0 3 3 0 0 0 2 1h1a8 8 0 0 1-2 14v4h-6z"/><path class="cls-6" d="M168 78a2 2 0 1 1 1-2 2 2 0 0 1-1 2z"/><path class="cls-4" d="M163 111a1 1 0 0 1-2 1 1 1 0 1 1 2-1z"/><path class="cls-7" d="M169 86c-6 0-10 2-12 5v-7h-20v-9h20v-7h-20V51h44l-8 9-3-3a3 3 0 1 0-5 5l6 5a7 7 0 0 0-2 0 8 8 0 0 0-3 15v4h3z"/><path class="cls-7" d="M137 84h20v7h-20zM137 68h20v7h-20z"/><path class="cls-9" d="M137 100h1v7h-1z"/><path class="cls-8" d="M137 107v45h-33v-29l3 3-1 4 4-2 3 2 4-2 4 2-1-4 3-3-4-1-2-3-2 3-2 1-1-1-2-3-2 3-4 1v-16h33zM104 100h33v7h-33zM104 91h33v9h-33zM104 84h33v7h-33zM104 75h33v9h-33zM104 68h33v7h-33zM137 51v17h-33V50h77v1h-44z"/><path class="cls-8" d="M123 123l-3 3 1 4-4-2-4 2 1-4-1-1 3-2h-3l2-1 2-3 2 3 4 1z"/><path class="cls-8" d="M116 123l-3 2-2-2h5zM114 126l-1 4v-5l1 1z"/><path class="cls-8" d="M111 123l2 2v5l-3-2-4 2 1-4-3-3 4-1 2-3 2 3 1 1h-2zM86 100h17v7H86zM86 84h17v7H86zM86 68h17v7H86z"/><path class="cls-6" d="M98 123l-3 3 1 4-4-2-3 2v-4l-3-3 4-1 2-3 2 3 4 1z"/><path class="cls-3" d="M76 100a5 5 0 0 1 2 6 5 5 0 0 1-6 3v-8a11 11 0 0 0-3-8h2a5 5 0 0 1 3 0 5 5 0 0 1 3 6 5 5 0 0 1-1 1z"/><path class="cls-2" d="M69 121a8 8 0 0 1 8 8v6H41v-6a8 8 0 0 1 9-8h19z"/><path class="cls-5" d="M72 109v1a11 11 0 0 1-10 11h-6a11 11 0 0 1-10-11v-1a5 5 0 0 0 2-6 4 4 0 0 0-1-1 35 35 0 0 0 21-3 5 5 0 0 0 2 3 5 5 0 0 0 2 7zm-5 3a1 1 0 1 0-2-2 1 1 0 0 0 2 2zm-16 0a1 1 0 1 0-2 0 1 1 0 0 0 2 0z"/><path class="cls-5" d="M72 102v7a5 5 0 0 1-2-7zM72 100v1h-2a5 5 0 0 1-2-2 25 25 0 0 0 3-2v-1a10 10 0 0 1 1 4z"/><path class="cls-7" d="M39 106a5 5 0 0 0 6 3 4 4 0 0 0 1 0v1a11 11 0 0 0 10 11h-6a8 8 0 0 0-9 8v6h36v-6a8 8 0 0 0-8-8h-7a11 11 0 0 0 10-11v-1a5 5 0 0 0 6-3 5 5 0 0 0-2-6 5 5 0 0 0 1-1 5 5 0 0 0-3-6 5 5 0 0 0-3 0 5 5 0 0 0 1-3 5 5 0 0 0-5-4h-6v-4a8 8 0 1 0-6 0v4h-5a5 5 0 0 0-5 4 5 5 0 0 0 1 3 5 5 0 0 0-3 0 5 5 0 0 0-3 6 5 5 0 0 0 1 1 5 5 0 0 0-2 6zm65 17v29H25V50h79v18H86v7h18v9H86v7h18v9H86v7h18v16zm-9 3l3-3-4-1-2-3-2 3-4 1 3 3v4l3-2 4 2z"/><path class="cls-4" d="M65 112a1 1 0 0 1 2-2 1 1 0 1 1-2 2z"/><path class="cls-3" d="M68 96a5 5 0 0 0 0 3 35 35 0 0 1-21 3 4 4 0 0 0 0-1 5 5 0 0 0 2-6 5 5 0 0 0 1 0 5 5 0 0 0 4-2 6 6 0 0 0 3 1l6-1a5 5 0 0 0 4 2 5 5 0 0 0 1 0 6 6 0 0 0 0 1z"/><path class="cls-3" d="M63 93l-6 1a6 6 0 0 1-3-1 5 5 0 0 1-4 2 5 5 0 0 1-1 0h-2l1-1a11 11 0 0 1 8-4h6a10 10 0 0 1 9 6v1a25 25 0 0 1-3 2 5 5 0 0 1 0-3 6 6 0 0 1 0-1 5 5 0 0 1-1 0 5 5 0 0 1-4-2z"/><path class="cls-3" d="M46 93a5 5 0 0 1-1-3 5 5 0 0 1 5-4h17a5 5 0 0 1 4 4 5 5 0 0 1 0 3h-2a10 10 0 0 0-7-3h-6a11 11 0 0 0-8 4z"/><circle class="cls-6" cx="60" cy="76" r="2"/><path class="cls-6" d="M58 86h-3v-4a8 8 0 1 1 6 0v4zm0-10a2 2 0 1 0-1 2 2 2 0 0 0 1-2 2 2 0 1 0 2-1 2 2 0 0 0-2 1z"/><path class="cls-6" d="M58 76a2 2 0 1 1-1-1 2 2 0 0 1 1 1z"/><path class="cls-4" d="M50 110a1 1 0 1 1-1 2 1 1 0 0 1 1-2z"/><path class="cls-3" d="M49 96a5 5 0 0 1-2 6h-1v-1a10 10 0 0 1 1-6h2a4 4 0 0 1 0 1z"/><path class="cls-5" d="M48 103a5 5 0 0 1-2 6v-7h1a4 4 0 0 1 1 1z"/><path class="cls-3" d="M46 93l2 1-1 1a10 10 0 0 0-1 5v9a4 4 0 0 1-1 0 5 5 0 0 1-6-3 5 5 0 0 1 2-6 5 5 0 0 1-1-1 5 5 0 0 1 3-6 5 5 0 0 1 3 0z"/><path class="cls-10" d="M61 86v-4a8 8 0 1 0-6 0v4M58 86V76"/><path class="cls-10" d="M58 76a2 2 0 1 1-1-1 2 2 0 0 1 1 1z"/><circle class="cls-10" cx="60" cy="76" r="2"/><path class="cls-10" d="M47 75h-1M71 75h-2M58 64v-2M49 65l2 2M66 67l2-1M46 109a4 4 0 0 1-1 0 5 5 0 0 1-6-3 5 5 0 0 1 2-6 5 5 0 0 1-1-1 5 5 0 0 1 3-6 5 5 0 0 1 3 0 5 5 0 0 1-1-3 5 5 0 0 1 5-4h17a5 5 0 0 1 4 4 5 5 0 0 1 0 3 5 5 0 0 1 3 0 5 5 0 0 1 3 6 5 5 0 0 1-1 1 5 5 0 0 1 2 6 5 5 0 0 1-6 3M336 152h77V50h-77"/><path class="cls-10" d="M383 121a11 11 0 0 0 10-11v-10a11 11 0 0 0-10-10h-6a10 10 0 0 0-10 10v10a11 11 0 0 0 10 11M377 121h-7a8 8 0 0 0-8 8v6h35v-6a8 8 0 0 0-8-8h-12zM378 85v-4a8 8 0 1 1 5 0v4M381 85V75M381 75zM381 75zM391 74h2M368 74h2M336 75h16v-7h-16M336 91h16v-7h-16M336 107h16v-7h-16M347 119l-2 3-4 1 3 3-1 4 4-2 3 2v-4l3-3-5-1-1-3zM368 97a35 35 0 0 0 25 5M381 63v-2M390 64l-2 2M372 66l-1-1M104 152H25V50h79"/><path class="cls-10" d="M104 75H86v-7h18M104 91H86v-7h18M104 107H86v-7h18M62 121h7a8 8 0 0 1 8 8v6H41v-6a8 8 0 0 1 9-8h6M92 119l2 3 4 1-3 3 1 4-4-2-3 2v-4l-3-3 4-1 2-3zM104 168V36a10 10 0 0 1 10-10h212a10 10 0 0 1 10 10v132M336 168h18v3a22 22 0 0 1-23 23H109a22 22 0 0 1-23-23v-3h250zM104 36h232"/><path class="cls-10" d="M303 76v77H137V51h141"/><path class="cls-10" d="M167 121a10 10 0 0 1-10-10v-10a11 11 0 0 1 10-10h6a10 10 0 0 1 10 6 10 10 0 0 1 0 4v10a11 11 0 0 1-10 10"/><path class="cls-10" d="M157 113h-5s-2-14 5-22c2-3 6-5 12-5 0 0 20-1 19 24h-5M182 97a35 35 0 0 1-25 6M173 121h7a8 8 0 0 1 8 9v6h-36v-6a8 8 0 0 1 9-9h12z"/><path class="cls-10" d="M169 86h3v-4a8 8 0 0 0 2-14 8 8 0 0 0-3-1 7 7 0 0 0-2 0 8 8 0 0 0-3 15v4zM169 86V76"/><path class="cls-10" d="M169 76a2 2 0 1 1-1-2 2 2 0 0 1 1 2z"/><circle class="cls-10" cx="171" cy="76" r="2"/><path class="cls-10" d="M158 74h-1M182 74h-2M169 63v-2M160 65l2 2M177 67l2-2M246 69h22v7h-70v-7h48zM246 85h22v7h-70v-7h48zM246 100h2v7h-50v-7h48zM308 54a18 18 0 0 1-3 21 14 14 0 0 1-2 1 18 18 0 0 1-25-25l1-1a18 18 0 0 1 25-1M203 119l2 4 4 1-3 3 1 4-4-2-3 2v-4l-3-3 5-1 1-4zM221 119l2 4 4 1-3 3 1 4-4-2-4 2 1-4-3-3 4-1 2-4zM238 119l2 4 4 1-3 3 1 4-4-2-3 2v-4l-3-3 4-1 2-4z"/><path class="cls-10" d="M296 68a3 3 0 0 1-1 1h-1a3 3 0 0 1-1-1h-1l-5-5a3 3 0 0 1 4-5l3 3 8-10 1-1 1-1 4-5a3 3 0 0 1 5 4l-2 2-3 4-5 6-6 8a4 4 0 0 1-1 0zM366 109a2 2 0 0 1-2-3V94a9 9 0 0 1 8-9h16a9 9 0 0 1 8 9v12a2 2 0 0 1-2 3h-1M62 121h-6a11 11 0 0 1-10-11v-10a10 10 0 0 1 1-5l1-1a11 11 0 0 1 8-4h6a10 10 0 0 1 10 10v10a11 11 0 0 1-10 11z"/><path class="cls-10" d="M71 97a25 25 0 0 1-3 2 35 35 0 0 1-21 3h-1"/><path class="cls-11" d="M134 26h-20a10 10 0 0 0-10 10v132h20V36a10 10 0 0 1 10-10zM106 171v-3H86v3a22 22 0 0 0 23 23h20a22 22 0 0 1-23-23zM89 50h15v102H89zM336 50h15v102h-15z"/></g></g></svg>