<svg xmlns="http://www.w3.org/2000/svg" viewBox="0 0 323 198"><defs><style>.cls-2{fill:#9bb4bf}.cls-3{fill:#c4d4dd}.cls-5{fill:#fe7c6f}.cls-6{fill:#7eb5bd}.cls-7{fill:none;stroke:#6e7f89;stroke-linecap:round;stroke-linejoin:round;stroke-width:1.5px}.cls-8{opacity:.07;mix-blend-mode:multiply}</style></defs><g style="isolation:isolate"><g id="Layer_1" data-name="Layer 1"><path class="cls-2" d="M298 37v133a16 16 0 0 1-16 16H78a16 16 0 0 1-16-16V37a16 16 0 0 1 16-16h204a16 16 0 0 1 16 16zm-14 132V36a3 3 0 0 0-2-3H78a3 3 0 0 0-3 3v133a3 3 0 0 0 3 3h204a3 3 0 0 0 2-3z"/><path class="cls-3" d="M259 149a4 4 0 1 1-4 4 4 4 0 0 1 4-4z"/><path d="M231 86a6 6 0 1 0 4-3 6 6 0 0 0-4 3zm-23-6a6 6 0 0 0 9-3 5 5 0 0 0 0-2 6 6 0 1 0-9 5zm-27 46a5 5 0 0 0-1 3 6 6 0 1 0 8-5 5 5 0 0 0-2-1 6 6 0 0 0-5 3zm-62 1a6 6 0 1 0 4-2 6 6 0 0 0-4 2zm29-22a6 6 0 0 0 10-1 5 5 0 0 0 1-3 6 6 0 1 0-12 0 6 6 0 0 0 1 4zm136-69v133a3 3 0 0 1-2 3H78a3 3 0 0 1-3-3V36a3 3 0 0 1 3-3h204a3 3 0 0 1 2 3zm-21 117a4 4 0 1 0-4 5 4 4 0 0 0 4-5zm-14 1a4 4 0 1 0-4 4 4 4 0 0 0 4-4zm-110-1a4 4 0 0 0-4-5H93a4 4 0 1 0 0 9h42a4 4 0 0 0 4-4zm-4-67V55h-7v31zm-12 0V62h-7v24zm-12 0V69h-7v17zm-12 0V73h-7v13z" fill="#e6edf2"/><path class="cls-3" d="M245 149a4 4 0 1 1-5 5 4 4 0 0 1 5-5z"/><path class="cls-5" d="M239 84a6 6 0 1 1-8 2l5 3z"/><path class="cls-5" d="M239 84l-3 5-5-3a6 6 0 0 1 8-2zM217 77l-6-3-3 6a6 6 0 1 1 9-5 5 5 0 0 1 0 2z"/><path class="cls-5" d="M211 74l6 3a6 6 0 0 1-9 3zM188 124a6 6 0 1 1-8 5 5 5 0 0 1 1-3l4 4z"/><path class="cls-5" d="M188 124l-3 6-4-4a6 6 0 0 1 5-3 5 5 0 0 1 2 1zM158 104l-5-4-5 5a6 6 0 0 1-1-4 6 6 0 1 1 12 0 5 5 0 0 1-1 3z"/><path class="cls-5" d="M153 100l5 4a6 6 0 0 1-10 1z"/><path class="cls-2" d="M135 148a4 4 0 0 1 3 8 4 4 0 0 1-3 1h-13v-9z"/><path class="cls-6" d="M128 55h8v31h-8z"/><path class="cls-5" d="M127 127a6 6 0 1 1-8 0l4 4z"/><path class="cls-5" d="M127 127l-4 4-4-4a6 6 0 0 1 8 0z"/><path class="cls-6" d="M116 62h8v23h-8z"/><path class="cls-3" d="M122 156v1h-17v-9h17v8z"/><path class="cls-6" d="M104 69h8v17h-8z"/><path class="cls-2" d="M105 156v1H93a4 4 0 0 1-4-4 4 4 0 0 1 4-5h12z"/><path class="cls-6" d="M92 73h8v12h-8zM41 55a11 11 0 0 1 11 11h-3a8 8 0 1 0-16 0h-3a11 11 0 0 1 11-11zM41 105a11 11 0 0 1 11 11h-3a8 8 0 0 0-16 0h-3a11 11 0 0 1 11-11zM52 116a11 11 0 0 1-22 0h3a8 8 0 0 0 16 0zM52 66a11 11 0 0 1-22 0h3a8 8 0 0 0 16 0zM48 160a3 3 0 0 1 2 5 3 3 0 0 1-2 0H34a3 3 0 0 1-2-4 3 3 0 0 1 2-1zM48 148a3 3 0 0 1 0 6H33a3 3 0 1 1 0-6z"/><path class="cls-3" d="M33 66h16a8 8 0 0 1-16 0zM49 66H33a8 8 0 1 1 16 0zM49 116h-8v-8a8 8 0 0 1 8 8zM41 116h8a8 8 0 0 1-8 8zM41 116v8a8 8 0 0 1-8-8zM41 108v8h-8a8 8 0 0 1 8-8z"/><path class="cls-2" d="M52 72a11 11 0 0 1-22 0v-6a11 11 0 0 0 22 0zM52 122a11 11 0 0 1-22 0v-6a11 11 0 0 0 22 0z"/><rect class="cls-7" x="62" y="21" width="235" height="165" rx="16"/><rect class="cls-7" x="75" y="33" width="209" height="139" rx="3"/><path class="cls-7" d="M92 73h8v12h-8zM104 69h8v17h-8zM116 62h8v23h-8zM128 55h8v31h-8zM122 148h13a4 4 0 0 1 3 8 4 4 0 0 1-3 1H93a4 4 0 0 1-4-4 4 4 0 0 1 4-5h29zM249 154a4 4 0 1 1-4-5 4 4 0 0 1 4 5zM263 153a4 4 0 1 1-4-4 4 4 0 0 1 4 4zM239 84l16-28M217 77l14 9M188 124l20-44M158 104l23 22M127 127l21-22M92 136l17-17 10 8M148 105a6 6 0 0 1-1-4 6 6 0 1 1 12 0 5 5 0 0 1-1 3 6 6 0 0 1-10 1zM188 124a6 6 0 1 1-8 5 5 5 0 0 1 1-3 6 6 0 0 1 5-3 5 5 0 0 1 2 1zM239 84a6 6 0 1 1-4-1 6 6 0 0 1 4 1zM208 80a6 6 0 1 1 9-5 5 5 0 0 1 0 2 6 6 0 0 1-9 3z"/><path class="cls-7" d="M127 127a6 6 0 1 1-4-2 6 6 0 0 1 4 2zM146 53h21M146 59h13M146 66h21M146 71h13M105 148v8M122 148v8M244 60l12-4v11M30 66v6a11 11 0 0 0 22 0v-6"/><path class="cls-7" d="M52 66a11 11 0 1 1-11-11 11 11 0 0 1 11 11z"/><path class="cls-7" d="M49 66a8 8 0 1 1-8-8 8 8 0 0 1 8 8zM30 116v6a11 11 0 0 0 22 0v-6"/><path class="cls-7" d="M52 116a11 11 0 1 1-11-11 11 11 0 0 1 11 11z"/><path class="cls-7" d="M49 116a8 8 0 1 1-8-8 8 8 0 0 1 8 8zM41 124v-16M33 66h16M48 154H33a3 3 0 1 1 0-6h15a3 3 0 0 1 0 6zM48 165H34a3 3 0 0 1-2-4 3 3 0 0 1 2-1h14a3 3 0 0 1 2 5 3 3 0 0 1-2 0z"/><path class="cls-8" d="M82 170V37a16 16 0 0 1 16-16H78a16 16 0 0 0-16 16v133a16 16 0 0 0 16 16h20a16 16 0 0 1-16-16zM123 137a6 6 0 0 1-6-4 5 5 0 0 0 0 1c0 3 3 6 6 6s7-3 7-6a5 5 0 0 0 0-1 6 6 0 0 1-7 4z"/></g></g></svg>