<svg xmlns="http://www.w3.org/2000/svg" viewBox="0 0 341 229"><defs><style>.cls-2{fill:#7eb5bd}.cls-3{fill:#c4d4dd}.cls-4{fill:#f9e3d4}.cls-5{fill:#6e7f89}.cls-6{fill:#fdae76}.cls-7{fill:#fff}.cls-8{fill:#e6edf2}.cls-10,.cls-11,.cls-9{fill:none}.cls-9{stroke:#6e7f89;stroke-linejoin:round;stroke-width:1.5px}.cls-11,.cls-9{stroke-linecap:round}.cls-10,.cls-11{stroke:#fe7c6f;stroke-miterlimit:10;stroke-width:2px}.cls-12{opacity:.07;mix-blend-mode:multiply}</style></defs><g style="isolation:isolate"><g id="Layer_1" data-name="Layer 1"><path class="cls-2" d="M300 132a5 5 0 0 1 3 7 6 6 0 0 1-7 3v-10a12 12 0 0 0-1-4 12 12 0 0 0-3-5h3a5 5 0 0 1 3 0 5 5 0 0 1 3 7 5 5 0 0 1-1 2z"/><path class="cls-3" d="M301 166a43 43 0 0 1-41 0l1-1c0-5 4-10 9-10h22c5 0 9 5 9 11z"/><path class="cls-4" d="M296 142v1a12 12 0 0 1-12 12h-6a12 12 0 0 1-12-12v-1a5 5 0 0 0 2-7 5 5 0 0 0 0-1 40 40 0 0 0 23-4 5 5 0 0 0 3 3 5 5 0 0 0-1 2 5 5 0 0 0 3 7zm-6 3a2 2 0 1 0-2 0 2 2 0 0 0 2 0zm-18 0a2 2 0 1 0-2 0 2 2 0 0 0 2 0z"/><path class="cls-4" d="M296 133v9a5 5 0 0 1-3-7 5 5 0 0 1 1-2zM296 132v1h-2a5 5 0 0 1-3-3 28 28 0 0 0 4-2 12 12 0 0 1 1 4z"/><path class="cls-2" d="M280 116h4v-1h6a5 5 0 0 1 5 6 5 5 0 0 1 0 2h-3a12 12 0 0 0-8-3h-6a12 12 0 0 0-9 5l-3-2a5 5 0 0 1 0-2 5 5 0 0 1 5-6h6v1z"/><path class="cls-2" d="M291 126a5 5 0 0 1-1 0 5 5 0 0 1-5-2l-7 1a7 7 0 0 1-2-1 5 5 0 0 1-5 2 5 5 0 0 1-1 0h-2l1-1a12 12 0 0 1 9-5h6a12 12 0 0 1 8 3 12 12 0 0 1 3 5 28 28 0 0 1-4 2 5 5 0 0 1 0-3 5 5 0 0 1 0-1z"/><path class="cls-2" d="M290 126a5 5 0 0 0 1 0 5 5 0 0 0 0 1 5 5 0 0 0 0 3 40 40 0 0 1-23 4 5 5 0 0 0-1-1 5 5 0 0 0 3-6 6 6 0 0 0 0-1 5 5 0 0 0 1 0 5 5 0 0 0 5-2 7 7 0 0 0 2 1l7-1a5 5 0 0 0 5 2z"/><path class="cls-5" d="M290 145a2 2 0 1 1-2-2 2 2 0 0 1 2 2z"/><path class="cls-6" d="M284 105a2 2 0 0 1-4 0 2 2 0 0 1 4 0z"/><path class="cls-7" d="M280 115h3v1h-3z"/><path class="cls-6" d="M280 105zm-8-2a9 9 0 1 1 12 8v4h-7v-4a9 9 0 0 1-5-8zM280 105zM280 105z"/><path class="cls-7" d="M277 115h3v1h-3z"/><path class="cls-6" d="M280 105z"/><path class="cls-5" d="M270 145a2 2 0 1 1 2 0 2 2 0 0 1-2 0z"/><path class="cls-2" d="M270 127a5 5 0 0 1-3 6 5 5 0 0 1 1 1h-2v-2a12 12 0 0 1 2-6h2a6 6 0 0 1 0 1z"/><path class="cls-2" d="M266 123l3 2-1 1a12 12 0 0 0-2 6v10a5 5 0 0 1-1 0 5 5 0 0 1-7-3 5 5 0 0 1 3-7 5 5 0 0 1-1-2 5 5 0 0 1 3-7 5 5 0 0 1 3 0z"/><path class="cls-4" d="M268 135a5 5 0 0 1-2 7v-8h2a5 5 0 0 1 0 1z"/><path class="cls-8" d="M258 139a5 5 0 0 0 7 3 5 5 0 0 0 1 0v1a12 12 0 0 0 12 12h-8c-5 0-9 5-9 11h-1a43 43 0 1 1 41 0v-1c0-5-4-10-9-10h-8a12 12 0 0 0 12-12v-1a6 6 0 0 0 7-3 5 5 0 0 0-3-7 5 5 0 0 0 1-2 5 5 0 0 0-3-7 5 5 0 0 0-3 0 5 5 0 0 0 0-2 5 5 0 0 0-5-6h-6v-4a9 9 0 1 0-7 0v4h-6a5 5 0 0 0-5 6 5 5 0 0 0 0 2 5 5 0 0 0-3 0 5 5 0 0 0-3 7 5 5 0 0 0 1 2 5 5 0 0 0-3 7z"/><path class="cls-3" d="M231 99a43 43 0 0 1-40 1 9 9 0 0 1 9-8h22a9 9 0 0 1 9 7z"/><path class="cls-4" d="M226 80a12 12 0 0 1-12 12h-6a12 12 0 0 1-12-10 12 12 0 0 1 0-2v-9a40 40 0 0 0 29-6 12 12 0 0 1 1 4zm-6 2a2 2 0 0 0-2-2 2 2 0 1 0 2 2zm-18 0a2 2 0 0 0-2-2 2 2 0 1 0 2 2z"/><path class="cls-2" d="M225 65a40 40 0 0 1-29 6v-2a12 12 0 0 1 12-12h6a12 12 0 0 1 11 8z"/><path class="cls-5" d="M220 82a2 2 0 1 1 0-2 2 2 0 0 1 0 2z"/><path class="cls-6" d="M212 39a2 2 0 1 1-2 2 2 2 0 0 1 2-2z"/><path class="cls-2" d="M196 82h-5s-6-29 19-30c3 0 22 1 22 28h-6V69a12 12 0 0 0-1-4 12 12 0 0 0-11-8h-6a12 12 0 0 0-12 12v11a12 12 0 0 0 0 2z"/><path class="cls-6" d="M208 39a2 2 0 1 1-2 2 2 2 0 0 1 2-2z"/><path class="cls-6" d="M210 52h-3v-5a9 9 0 1 1 6 0v5h-3zm0-11a2 2 0 1 0 2-2 2 2 0 0 0-2 2 2 2 0 1 0-2 2 2 2 0 0 0 2-2z"/><path class="cls-8" d="M200 92a9 9 0 0 0-9 8 43 43 0 1 1 40-1 9 9 0 0 0-9-7h-8a12 12 0 0 0 12-12h6c0-27-19-28-22-28h4v-5a9 9 0 1 0-7 0v5h3c-25 1-19 30-19 30h5a12 12 0 0 0 12 10z"/><path class="cls-3" d="M203 199a44 44 0 0 1-40-1 9 9 0 0 1 9-7h22a9 9 0 0 1 9 8z"/><path class="cls-5" d="M202 82a2 2 0 1 1 1-2 2 2 0 0 1-1 2z"/><path class="cls-2" d="M198 170a40 40 0 0 1-28-6h-1a12 12 0 0 1 11-7h6a12 12 0 0 1 12 11z"/><path class="cls-5" d="M191 179a2 2 0 1 1 1 2 2 2 0 0 1-1-2z"/><path class="cls-4" d="M191 179a2 2 0 1 0 3 0 2 2 0 0 0-3 0zm-17 3a2 2 0 1 0 0-3 2 2 0 0 0 0 3zm-4-18a40 40 0 0 0 28 6v10a12 12 0 0 1-12 11h-6a12 12 0 0 1-12-11v-12a12 12 0 0 1 1-4z"/><circle class="cls-6" cx="186" cy="140" r="2"/><path class="cls-6" d="M175 138a9 9 0 1 1 12 8v5h-6v-5a9 9 0 0 1-6-8zm9 2a2 2 0 1 0-2 2 2 2 0 0 0 2-2 2 2 0 1 0 2-2 2 2 0 0 0-2 2z"/><circle class="cls-6" cx="182" cy="140" r="2"/><path class="cls-8" d="M175 138a9 9 0 0 0 6 8v5h6v-5a9 9 0 1 0-12-8zm-7 41a12 12 0 0 0 12 12h-8a9 9 0 0 0-9 7 44 44 0 1 1 40 1 9 9 0 0 0-9-8h-8a12 12 0 0 0 12-12v-1h1a3 3 0 0 0 3-3v-14a10 10 0 0 0-10-10h-17c-9 0-10-5-10-5v29a3 3 0 0 0 2 3h1z"/><path class="cls-5" d="M174 179a2 2 0 1 1 0 3 2 2 0 0 1 0-3z"/><path class="cls-2" d="M168 168v10h-1a3 3 0 0 1-2-3v-29s1 5 10 5h17a10 10 0 0 1 10 10v14a3 3 0 0 1-3 3h-1v-10a12 12 0 0 0-12-11h-6a12 12 0 0 0-11 7 12 12 0 0 0-1 4z"/><path class="cls-3" d="M109 142v1a60 60 0 0 1-54-1 13 13 0 0 1 12-10h30a13 13 0 0 1 12 10z"/><path class="cls-2" d="M108 91v19a4 4 0 0 1-4 4h-1v-13a16 16 0 0 0-16-16h-9a16 16 0 0 0-15 10 16 16 0 0 0-1 6v13h-1a4 4 0 0 1-4-4V91a13 13 0 0 1 14-13h23a13 13 0 0 1 14 13z"/><path class="cls-2" d="M103 101v3a54 54 0 0 1-39-9h-1a16 16 0 0 1 15-10h9a16 16 0 0 1 16 16z"/><path class="cls-5" d="M96 115a2 2 0 0 1-2 4 2 2 0 0 1 2-4z"/><path class="cls-4" d="M97 118a2 2 0 0 0-4-2 2 2 0 1 0 4 2zM64 95a54 54 0 0 0 39 9v12a16 16 0 0 1-16 16h-9a16 16 0 0 1-16-16v-15a16 16 0 0 1 1-6zm5 21a2 2 0 1 0 3 0 2 2 0 0 0-3 0z"/><path class="cls-6" d="M86 65a3 3 0 1 1 2-3 3 3 0 0 1-2 3z"/><path class="cls-6" d="M71 60a12 12 0 1 1 17 11v7h-9v-7a12 12 0 0 1-8-11zm7 2a3 3 0 1 0 5 0 3 3 0 1 0 3-2 3 3 0 0 0-3 2 3 3 0 0 0-5 0z"/><path class="cls-6" d="M81 60a3 3 0 1 1-3 2 3 3 0 0 1 3-2z"/><path class="cls-8" d="M71 60a12 12 0 0 0 8 11v7h9v-7a12 12 0 1 0-17-11zm12 18H71a13 13 0 0 0-14 13v19a4 4 0 0 0 4 4h1v2a16 16 0 0 0 16 16H67a13 13 0 0 0-12 10 60 60 0 1 1 54 1v-1a13 13 0 0 0-12-10H87a16 16 0 0 0 16-16v-2h1a4 4 0 0 0 4-4V91a13 13 0 0 0-14-13z"/><path class="cls-5" d="M69 119a2 2 0 1 1 3 0 2 2 0 0 1-3 0z"/><path class="cls-9" d="M260 166a43 43 0 1 1 21 5 43 43 0 0 1-21-5z"/><path class="cls-9" d="M284 115v-4a9 9 0 1 0-7 0v4M280 115v-10M280 105zM280 105zM268 103h-2M295 103h-2M280 90v-2M270 93l2 1M289 95l2-2"/><path class="cls-9" d="M266 142a5 5 0 0 1-1 0 5 5 0 0 1-7-3 5 5 0 0 1 3-7 5 5 0 0 1-1-2 5 5 0 0 1 3-7 5 5 0 0 1 3 0 5 5 0 0 1 0-2 5 5 0 0 1 5-6h19a5 5 0 0 1 5 6 5 5 0 0 1 0 2 5 5 0 0 1 3 0 5 5 0 0 1 3 7 5 5 0 0 1-1 2 5 5 0 0 1 3 7 6 6 0 0 1-7 3M284 155h8c5 0 9 5 9 11M261 166c0-6 4-11 9-11h8"/><path class="cls-9" d="M284 155h-6a12 12 0 0 1-12-12v-11a12 12 0 0 1 2-6l1-1a12 12 0 0 1 9-5h6a12 12 0 0 1 8 3 12 12 0 0 1 3 5 12 12 0 0 1 1 4v11a12 12 0 0 1-12 12z"/><path class="cls-9" d="M295 128a28 28 0 0 1-4 2 40 40 0 0 1-23 4h-2M191 100a43 43 0 1 1 18 5 43 43 0 0 1-18-5z"/><path class="cls-9" d="M208 92a12 12 0 0 1-12-10 12 12 0 0 1 0-2V69a12 12 0 0 1 12-12h6a12 12 0 0 1 11 8 12 12 0 0 1 1 4v11a12 12 0 0 1-12 12"/><path class="cls-9" d="M210 52c3 0 22 1 22 28h-6M196 82h-5s-6-29 19-30M225 65a40 40 0 0 1-29 6M191 100a9 9 0 0 1 9-8h22a9 9 0 0 1 9 7M210 52h3v-5a9 9 0 1 0-6 0v5h3zM210 52V41"/><path class="cls-9" d="M210 41a2 2 0 1 1-2-2 2 2 0 0 1 2 2z"/><path class="cls-9" d="M214 41a2 2 0 1 1-2-2 2 2 0 0 1 2 2zM198 39h-2M225 39h-2M210 26v-2M200 28l1 2M219 31l2-2M55 142a60 60 0 1 1 28 7 60 60 0 0 1-28-7zM100 60h3M64 60h2M83 43v-3"/><path class="cls-9" d="M87 132a16 16 0 0 0 16-16v-15a16 16 0 0 0-16-16h-9a16 16 0 0 0-15 10 16 16 0 0 0-1 6v15a16 16 0 0 0 16 16M64 95a54 54 0 0 0 39 9M109 142a13 13 0 0 0-12-10H67a13 13 0 0 0-12 10M71 60a12 12 0 1 1 17 11v7h-9v-7a12 12 0 0 1-8-11zM83 78V62"/><path class="cls-9" d="M83 62a3 3 0 1 0 3-2 3 3 0 0 0-3 2z"/><path class="cls-9" d="M78 62a3 3 0 1 0 3-2 3 3 0 0 0-3 2zM97 46l-2 2M71 49l-2-3M61 114a4 4 0 0 1-4-4V91a13 13 0 0 1 14-13h23a13 13 0 0 1 14 13v19a4 4 0 0 1-4 4h-1M163 198a44 44 0 1 1 21 5 44 44 0 0 1-21-5zM196 138h2M170 138h2M184 126v-3"/><path class="cls-9" d="M186 191a12 12 0 0 0 12-12v-11a12 12 0 0 0-12-11h-6a12 12 0 0 0-11 7 12 12 0 0 0-1 4v11a12 12 0 0 0 12 12M170 164a40 40 0 0 0 28 6"/><path class="cls-9" d="M203 199a9 9 0 0 0-9-8h-22a9 9 0 0 0-9 7M175 138a9 9 0 1 1 12 8v5h-6v-5a9 9 0 0 1-6-8zM184 151v-11"/><circle class="cls-9" cx="186" cy="140" r="2"/><circle class="cls-9" cx="182" cy="140" r="2"/><path class="cls-9" d="M194 128l-1 2M175 130l-2-2M167 178a3 3 0 0 1-2-3v-29s1 5 10 5h17a10 10 0 0 1 10 10v14a3 3 0 0 1-3 3h-1"/><circle class="cls-10" cx="83" cy="89" r="60"/><circle class="cls-10" cx="83" cy="89" r="68"/><path class="cls-11" d="M84 157v12M84 9v12M152 89h11M24 89h-9"/><path class="cls-12" d="M155 160a44 44 0 0 1 37-44 44 44 0 1 0 0 87 44 44 0 0 1-37-43zM181 62a44 44 0 0 1 36-43 44 44 0 1 0 0 86 44 44 0 0 1-36-43zM253 128a44 44 0 0 1 36-43 44 44 0 1 0 0 86 44 44 0 0 1-36-43zM37 89a60 60 0 0 1 53-59 58 58 0 0 0-7 0 60 60 0 0 0 0 119 58 58 0 0 0 7-1 60 60 0 0 1-53-59z"/></g></g></svg>