<svg xmlns="http://www.w3.org/2000/svg" viewBox="0 0 707 306"><defs><style>.cls-2{fill:#d5f4f2}.cls-3{fill:#f4f5f8}.cls-4{fill:#c4d4dd}.cls-5{fill:#fff}.cls-6{fill:#98bac8}.cls-8{fill:#80b5bc}.cls-9{fill:#e6edf2}.cls-10,.cls-11{fill:none;stroke:#6e7f89;stroke-linejoin:round;stroke-width:1.5px}.cls-10{stroke-linecap:round}</style></defs><g style="isolation:isolate"><g id="Layer_1" data-name="Layer 1"><circle class="cls-2" cx="30" cy="147" r="17"/><circle class="cls-2" cx="225" cy="160" r="8"/><circle class="cls-2" cx="165" cy="265" r="8"/><circle class="cls-2" cx="33" cy="184" r="6"/><path class="cls-3" d="M346 81v-1l1-1v-1l1-1v-1-1-1-1a15 15 0 0 0-15-15 15 15 0 0 0-1 0 21 21 0 0 0-19-11h-5a29 29 0 0 0-10-22h-1l-1-1-1-1h-2v-1h-1l-1-1h-2v-1h-3l-1-1h-5-1a29 29 0 0 0-29 29 20 20 0 0 0-7-1h-4-1l-1 1h-2v1h-1l-1 1h-1a1 1 0 0 0-1 1h-1a23 23 0 0 0-1 2l-1 1a21 21 0 0 0-2 2 20 20 0 0 0-3 11v1a10 10 0 0 0 0 20h110a15 15 0 0 0 13-7zM686 186l1-2 1-2v-2h1v-2l1-2v-2-3-2a30 30 0 0 0-29-29 31 31 0 0 0-4 0 41 41 0 0 0-37-23h-4-2l-1 1h-2a58 58 0 0 0-21-43l-2-2h-1l-1-1h-1l-2-2-2-1-2-1-1-1h-2v-1l-2-1h-3l-1-1h-1l-1-1h-3l-2-1h-1-1-3l-2-1h-4a59 59 0 0 0-58 58 41 41 0 0 0-13-2h-6l-2 1h-3l-2 1-2 1h-1l-1 1h-1l-2 1-2 1-2 1v1l-2 1a42 42 0 0 0-4 3v1l-1 1h-1a39 39 0 0 0-2 4 41 41 0 0 0-7 23v2a19 19 0 1 0 0 39h221a30 30 0 0 0 24-13z"/><circle class="cls-2" cx="88" cy="161" r="19"/><circle class="cls-2" cx="85" cy="240" r="14"/><circle class="cls-2" cx="76" cy="200" r="29"/><path class="cls-2" d="M93 251a29 29 0 1 0 58 0v-1a25 25 0 0 0 31-24v-2a18 18 0 0 0 27-10 9 9 0 0 0 4 1 9 9 0 0 0 8-9h27v-24h-27a9 9 0 0 0-12-8 18 18 0 0 0-27-11v-1a25 25 0 0 0-31-24v-1a29 29 0 0 0-58 0"/><path class="cls-4" d="M518 193h1a116 116 0 0 1-10 9l-2 1-2 2-2 1-2 1-2 2-2 1-1 1-1 1a228 228 0 0 1 0-38l1 1 1 1 2 1 6 4 1 1 1 1 2 1 1 2h1l6 5v1l1 1z"/><path class="cls-5" d="M498 256a4 4 0 1 1-4 4 4 4 0 0 1 4-4z"/><path class="cls-6" d="M497 210l2-1-2 1zM496 211l-1 1 1-1zM439 156c22 0 41 9 55 18a227 227 0 0 0 0 38c-14 9-33 18-55 18z"/><path d="M439 156v74h-98v-74h98zm-21 37a20 20 0 1 0-20 20 20 20 0 0 0 20-20z" fill="#ff7c6e"/><path class="cls-8" d="M398 173a20 20 0 1 1-20 20 20 20 0 0 1 20-20zm13 20a13 13 0 1 0-13 13 13 13 0 0 0 13-13z"/><circle class="cls-2" cx="398" cy="193" r="13"/><path class="cls-6" d="M349 156h-89v-40s59 0 89 40zM341 230h8c-30 39-87 39-89 39v-39h81zM341 156v74h-31v-74h31z"/><path class="cls-4" d="M310 195v35h-50v-35h50zM310 156v39h-50v-39h50z"/><path class="cls-5" d="M267 56a4 4 0 1 1-4 4 4 4 0 0 1 4-4z"/><path class="cls-8" d="M260 195v29l-3-2a3 3 0 0 1-2-2v-54a3 3 0 0 1 2-2l3-2z"/><path class="cls-9" d="M203 186a5 5 0 0 1 0 9h-22a5 5 0 0 1 0-9z"/><path class="cls-5" d="M161 226a4 4 0 1 1-4 4 4 4 0 0 1 4-4z"/><path class="cls-9" d="M157 119a5 5 0 1 1 0 9h-7a28 28 0 0 0-5-9z"/><path class="cls-6" d="M155 162a4 4 0 1 1-4 4 4 4 0 0 1 4-4z"/><path class="cls-9" d="M150 128h-18a5 5 0 0 1-4-5 5 5 0 0 1 4-4h13a28 28 0 0 1 5 9z"/><path class="cls-6" d="M122 234l8 12h-16l8-12z"/><path class="cls-4" d="M128 178a2 2 0 0 1 1 2 2 2 0 0 1-1 2l-9 8a2 2 0 0 1-1 0 2 2 0 0 1-2-1 2 2 0 0 1 0-3l7-6-7-6a2 2 0 1 1 3-4z"/><path class="cls-6" d="M112 168a3 3 0 0 1-1 2l-10 23a2 2 0 0 1-3 0 2 2 0 0 1-1-2 2 2 0 0 1 0-1l10-23a2 2 0 0 1 3-1 2 2 0 0 1 2 2z"/><path class="cls-9" d="M93 211l6 10-6 10H82l-6-10 6-10h11z"/><path class="cls-5" d="M93 137a6 6 0 1 1-6 7 6 6 0 0 1 6-7z"/><path class="cls-4" d="M93 186a2 2 0 0 1-2 4 2 2 0 0 1-2 0l-9-8a2 2 0 0 1 0-4l9-8a2 2 0 0 1 3 4l-6 6z"/><path class="cls-10" d="M349 156h90M439 230h-90M517 191v1M510 186h1M507 183l2 1M505 181l1 1M497 176l2 1M496 211l-1 1c-15 9-34 18-56 18v-74a107 107 0 0 1 57 19M499 209l-2 1M503 206l-2 1M509 202l-2 1-2 2M398 173a20 20 0 1 0 20 20 20 20 0 0 0-20-20z"/><circle class="cls-10" cx="398" cy="193" r="13"/><path class="cls-10" d="M495 212a228 228 0 0 1 0-38l1 1 1 1 2 1 6 4 1 1 1 1 2 1 1 2h1l6 5v1l1 1h1a116 116 0 0 1-10 9l-2 1-2 2-2 1-2 1-2 2-2 1-1 1-1 1zM310 230v-74M260 224l-3-2a3 3 0 0 1-2-2v-54a3 3 0 0 1 2-2l3-2v62zM349 230h-89v40c2-1 59-1 89-40zM341 156h8c-30-40-89-40-89-40v40M248 182h-27M145 119a29 29 0 0 0-52 18M221 182a9 9 0 0 0-8-9 9 9 0 0 0-4 1 18 18 0 0 0-27-11v-1a25 25 0 0 0-31-24v-1a29 29 0 0 0-1-9M248 206h-27M221 206a9 9 0 0 1-12 8 18 18 0 0 1-27 10v2a25 25 0 0 1-31 24v1a29 29 0 1 1-58 0"/><path class="cls-11" d="M165 230a4 4 0 1 1-4-4 4 4 0 0 1 4 4zM271 60a4 4 0 1 1-4-4 4 4 0 0 1 4 4zM502 260a4 4 0 1 1-4-4 4 4 0 0 1 4 4zM159 166a4 4 0 1 1-4-4 4 4 0 0 1 4 4zM100 144a6 6 0 1 1-7-7 6 6 0 0 1 7 7zM203 195h-22a5 5 0 0 1 0-9h22a5 5 0 0 1 0 9z"/><path class="cls-10" d="M111 170l-10 23a2 2 0 0 1-3 0 2 2 0 0 1-1-2 2 2 0 0 1 0-1l10-23a2 2 0 0 1 3-1 2 2 0 0 1 2 2 3 3 0 0 1-1 2zM91 190a2 2 0 0 1-2 0l-9-8a2 2 0 0 1 0-4l9-8a2 2 0 0 1 3 4l-6 6 7 6a2 2 0 0 1-2 4zM118 190a2 2 0 0 0 1 0l9-8a2 2 0 0 0 1-2 2 2 0 0 0-1-2l-9-8a2 2 0 1 0-3 4l7 6-7 6a2 2 0 0 0 0 3 2 2 0 0 0 2 1z"/><path class="cls-11" d="M122 234l-8 12h16l-8-12z"/><path class="cls-10" d="M154 190v9M149 195h9M72 250v9M67 255h9M192 140v9M187 144h9"/><path class="cls-11" d="M145 119h12a5 5 0 1 1 0 9h-25a5 5 0 0 1-4-5 5 5 0 0 1 4-4zM93 211H82l-6 10 6 10h11l6-10-6-10z"/><path class="cls-10" d="M310 195h-50"/><path class="cls-5" d="M126 206h8v8h-8z"/><path class="cls-10" d="M126 206h8v8h-8z"/><path class="cls-9" d="M38 154h14v14H38z"/><path class="cls-10" d="M38 154h14v14H38z"/><path class="cls-6" d="M37 208a5 5 0 1 1-4 5 5 5 0 0 1 4-5z"/><path class="cls-10" d="M42 213a5 5 0 1 1-5-5 5 5 0 0 1 5 5z"/><path class="cls-4" d="M60 208a3 3 0 0 1 0 1l-11 23a2 2 0 0 1-3 1 2 2 0 0 1-1-2 2 2 0 0 1 0-1l11-23a2 2 0 0 1 3-1 2 2 0 0 1 1 2z"/><path class="cls-10" d="M60 209l-11 23a2 2 0 0 1-3 1 2 2 0 0 1-1-2 2 2 0 0 1 0-1l11-23a2 2 0 0 1 3-1 2 2 0 0 1 1 2 3 3 0 0 1 0 1z"/><path stroke="#6e7f89" stroke-linejoin="round" stroke-width="2" fill="#e6edf2" d="M260 150v85"/><path d="M250 171h5v43h-5a4 4 0 0 1-4-4v-35a4 4 0 0 1 4-4z" stroke="#6e7f89" stroke-linejoin="round" stroke-width="2" fill="#c4d4dd"/><path class="cls-10" d="M260 156h95M341 230v-74"/><path class="cls-11" d="M393 133v9M388 137h9M269 156v74M279 156v74M289 156v74M299 156v74"/></g></g></svg>