<svg viewBox="0 0 156 152" version="1" xmlns="http://www.w3.org/2000/svg"><g fill="none" fill-rule="evenodd"><path d="M124 21c-1 3 3 6 2 8-1 4-9 1-11 5l-1 4c0 3-4 5-7 6l-10 3c-3 2-6 5-6 9 0 3 2 7 6 8 3 1 7-1 8-4 1-2 1-5 3-5l3 1c5 3 12-1 18-1h5l4-2c4-2 9-2 13-1-4-13-12-25-24-34l-1 1-2 2zM133 70h-12c-3 0-8 2-9 6v5c0 7 2 14 7 17l8 4c3 3 2 8 3 12s4 7 8 10a74 74 0 0 0 17-56l-8-1c-5 0-9 2-14 3zM10 51l-2 4c-3 5 0 11 1 17 2 6 3 12 10 12-4-4-7-10-4-15 3 5 8 8 14 9l7 2c9 3 11 15 17 22l5 7 5 10 6 5c5 6 0 16 6 21h5v-3c0-4 1-9 4-13l3-5c1-6-3-12-1-17l7-6c2-2 4-6 2-8-2-3-7-2-11-4l-2-2c-5-3-12-2-18-1s-13 0-15-6l-2-4-7-6c-3-3-2-7 0-11l9-8c3-3 6-7 5-11 0-3-2-5-3-8-1-4 1-8 4-10 2-3 6-5 9-7 2-1 3-1 3-3l-1-2-4-8C37 7 16 24 7 47c1 1 3 2 3 4zM83 22h3l1-1 4-6 1-2 8-4 5-4c-9-3-18-5-27-5h-1l5 11c0 3-1 8 1 11zM104 37h1l1-1-1-4c-1-1-3-2-4-1v1c-1 2 0 5 3 5z" fill="#BCE8E6"/><path d="M104 37h1l1-1-1-4c-1-1-3-2-4-1v1c-1 2 0 5 3 5z"/><path d="M121 70h12c4-1 9-3 14-3l8 1a74 74 0 0 0-4-16c-4-1-9-1-13 1l-4 2h-5c-6 0-13 4-19 1l-2-2c-2 0-2 3-3 5-1 4-5 6-8 5-4-1-6-5-6-8 0-4 2-7 6-9 3-2 6-2 10-3 3-1 6-3 7-7l1-3c2-4 10-1 11-5 1-3-3-5-2-8l2-3h1c-6-6-14-10-22-13l-5 4-8 4-1 2-4 6-1 1h-3c-2-3-1-8-2-11 0-4-2-8-4-11L62 2l4 7 1 3-3 3-10 6c-2 3-4 7-3 11 1 3 3 5 3 8 1 4-2 8-5 11l-9 8c-2 3-3 8 0 11l7 5 1 5c3 6 10 7 16 6s13-2 18 1l2 2c4 2 9 0 11 4 2 2 0 6-2 8-3 2-6 3-7 6-2 5 2 11 1 16l-3 6c-3 4-4 9-4 13l-1 2c-1 2-3 1-4 0-6-4-2-14-6-20l-6-5c-3-3-3-7-5-10l-5-7c-7-7-8-19-17-23l-7-1c-6-1-11-4-14-9-3 5 0 10 4 15-7-1-8-6-10-12-1-6-4-12-1-17l2-4-4-4c-4 9-6 19-6 29 0 41 35 75 78 75 22 0 43-9 58-25l1-2c-3-3-6-6-7-10s0-9-3-12l-8-4c-6-3-7-10-7-17v-5c1-4 5-6 9-6zm-20-38c1-2 3-1 4 0l1 5-1 1h-1c-3-1-4-4-3-6zM91 144l-4-2v-1l3-1 3 1-2 3z" fill="#D5F4F2" fill-rule="nonzero"/><path d="M90 139l-3 1v2l4 1c1 0 3-1 2-2l-3-2z" fill="#BCE8E6"/><path d="M134 104h-1 1zM139 105v-1 1zM139 105v0z" fill="#D5DEE2"/></g></svg>