<svg xmlns="http://www.w3.org/2000/svg" viewBox="0 0 960 712"><defs><style>.cls-1,.cls-25,.cls-26,.cls-39,.cls-8{fill:none}.cls-3{fill:#bce8e6}.cls-35,.cls-4{fill:#d5f4f2}.cls-5{fill:#d5dee2;fill-rule:evenodd}.cls-17,.cls-34,.cls-7{fill:#e6edf2}.cls-10,.cls-11,.cls-12,.cls-17,.cls-21,.cls-25,.cls-26,.cls-29,.cls-34,.cls-35,.cls-39,.cls-42,.cls-7,.cls-8,.cls-9{stroke:#6e7f89;stroke-linejoin:round}.cls-21,.cls-25,.cls-29,.cls-34,.cls-35,.cls-39,.cls-42,.cls-7{stroke-width:1.5px}.cls-10,.cls-11,.cls-12,.cls-17,.cls-8,.cls-9{stroke-width:1.2px}.cls-24,.cls-9{fill:#98bac8}.cls-10,.cls-21,.cls-36{fill:#c4d4dd}.cls-11{fill:#80b5bc}.cls-12,.cls-38,.cls-42{fill:#ff7c6e}.cls-15{fill:#6e7f89}.cls-29{fill:#fdae76}.cls-17,.cls-26,.cls-34,.cls-39{stroke-linecap:round}.cls-18{opacity:.07;mix-blend-mode:multiply}.cls-22{opacity:.08}.cls-26{stroke-width:2px}.cls-37{fill:#ebf0f2}.cls-43{fill:#f4f5f8}</style><clipPath id="clip-path"><path class="cls-1" d="M312 176h41v29a20 20 0 0 1-21 20 20 20 0 0 1-20-20v-29z" transform="rotate(-180 332 201)"/></clipPath><clipPath id="clip-path-2"><path class="cls-1" d="M545 299h38v31a17 17 0 0 1-17 17h-3a17 17 0 0 1-18-17v-31z" transform="rotate(-179 564 323)"/></clipPath></defs><g style="isolation:isolate"><g id="Layer_1" data-name="Layer 1"><path class="cls-3" d="M636 111c-3 11 11 22 7 34-5 16-36 4-45 19-2 5-2 11-3 16-2 14-16 23-30 27s-28 6-41 13-22 20-22 35 9 29 22 33 31-4 35-17c2-9 3-21 12-21 3 0 6 3 9 5 21 15 50-3 75-3 7 0 15 1 21-1 6-1 10-4 15-6a72 72 0 0 1 55-4 314 314 0 0 0-97-144l-4 3c-4 3-8 6-9 11zM670 314c-15 2-31-1-47 1s-32 10-37 25c-2 6-1 14-1 21 2 26 7 57 30 70 11 6 24 8 33 17 11 12 7 31 11 47 3 18 15 32 30 43a312 312 0 0 0 72-191v-9a316 316 0 0 0-1-32c-11-1-22-4-33-3-19 0-37 9-57 11zM172 234c0 6-3 12-6 17-12 22-2 46 4 70s13 49 38 51c-14-18-28-42-16-61a91 91 0 0 0 57 37c10 2 20 2 29 6 37 13 43 63 68 93 7 9 17 17 22 27 8 14 9 32 20 44 7 8 17 13 23 21 19 23 3 65 26 84 5 4 14 5 17 0 2-2 2-6 2-9a109 109 0 0 1 16-55c5-8 10-15 13-23 6-22-13-47-3-68 5-11 17-18 27-26s17-23 10-34c-9-13-31-7-45-14l-10-9c-20-14-47-8-71-5s-55 0-64-23c-3-6-3-14-7-20-6-10-20-12-28-21-11-12-8-33 2-47s24-23 36-34 23-28 20-44c-2-12-10-22-13-33-4-16 4-33 15-45s25-19 39-28c5-2 9-5 10-10 1-4-1-8-2-12l-17-32a314 314 0 0 0-225 187c6 4 12 9 13 16zM470 114c3 3 8 5 12 3a13 13 0 0 0 4-4 145 145 0 0 0 16-26l5-10c7-9 19-9 29-13a43 43 0 0 0 21-20 312 312 0 0 0-109-19h-2c9 13 16 28 17 44 1 15-3 33 7 45zM552 182c3 0 5 1 7-1l2-4c1-6 2-13-2-19s-12-7-16-2l-2 2c-3 9 2 20 11 24z"/><path class="cls-1" d="M552 182c3 0 5 1 7-1l2-4c1-6 2-13-2-19s-12-7-16-2l-2 2c-3 9 2 20 11 24z"/><path class="cls-4" d="M623 315c16-2 32 1 47-1 20-2 38-11 58-11 10-1 21 2 32 3a315 315 0 0 0-6-36l-8-29a72 72 0 0 0-55 4l-15 7h-21c-25 1-54 18-75 3-3-2-5-5-9-5-9 0-10 12-12 21-4 13-21 21-35 17s-23-19-22-33 10-28 22-35 27-8 41-13 28-13 31-27c1-5 0-11 3-16 8-15 39-3 45-19 3-12-11-23-8-34 1-5 5-8 9-11l4-3a312 312 0 0 0-91-53 43 43 0 0 1-22 20c-10 4-22 5-29 13l-5 10a145 145 0 0 1-16 26 13 13 0 0 1-4 4c-4 2-9 0-12-3-10-12-6-30-7-45-1-16-8-31-17-44a314 314 0 0 0-62 6l17 32c1 4 3 8 2 12-1 5-5 8-10 10-14 8-28 16-39 28s-19 29-15 45c3 11 11 21 13 33 3 16-7 32-20 44s-26 21-36 34-13 34-2 47c8 9 22 11 28 21 4 6 4 14 7 20 9 23 40 26 64 23s51-9 71 5l10 9c14 7 36 1 45 14 7 11-1 25-10 34s-22 15-27 26c-10 21 9 46 3 68-3 8-8 15-13 23a109 109 0 0 0-16 55c0 3 0 7-2 9-3 5-12 4-17 0-23-19-7-61-25-84-7-8-17-13-24-21-11-12-12-30-19-44-6-10-16-18-23-27-25-30-31-80-68-93-9-4-19-4-28-6a91 91 0 0 1-58-37c-12 19 2 43 16 61-25-2-31-26-38-51s-16-48-4-70c3-6 6-11 6-17-1-7-7-12-13-16a312 312 0 0 0-24 120c0 173 140 313 313 313a312 312 0 0 0 235-106l6-7a74 74 0 0 1-30-43c-4-16 0-35-11-47-8-9-22-11-33-17-23-13-28-44-30-70 0-7-1-15 1-21 5-15 22-23 37-25zm-82-157l2-2c4-5 13-3 16 2s3 13 2 19l-2 4c-2 2-4 1-7 1-9-4-14-15-11-24zm-40 462c-5 0-10-3-14-6-2-1-3-4-2-7 2-3 7-3 11-3 6-1 13 0 14 6 2 5-4 10-9 10z"/><path class="cls-3" d="M496 604c-4 0-9 0-11 3-1 3 0 6 2 7 4 3 9 6 14 6s11-5 9-10c-1-6-9-7-14-6z"/><path class="cls-5" d="M675 458v-1a2 2 0 0 0 0-1l-1-1a1 1 0 0 0-1 1 4 4 0 0 0 0 2h1a1 1 0 0 0 1 0zM694 459l-1 1a4 4 0 0 0 1 1 1 1 0 0 0 1 0 2 2 0 0 0 0-1 1 1 0 0 0-1-1zM694 463a1 1 0 0 0 1 1v-1a1 1 0 0 0-1 0z"/><path d="M645 422a2 2 0 0 0 0 1v1h4l1-1v-1a4 4 0 0 0-5 0z" fill="#828282" fill-rule="evenodd"/><path class="cls-7" d="M327 93h41v29a20 20 0 0 1-21 20 20 20 0 0 1-20-20V93z" transform="rotate(-180 347 118)"/><path class="cls-8" d="M331 114h2M361 114h2M333 106l2 1M360 108l1-1M356 104l1-2M339 101l1 1M351 99v2M345 98l1 2"/><path class="cls-9" d="M299 234h13v7h-13z"/><path class="cls-10" d="M322 239h47a17 17 0 0 1 17 17v74h-89a11 11 0 0 1-12-11v-58a22 22 0 0 1 22-22z"/><path class="cls-11" d="M312 202h-3a7 7 0 0 1-7-7v-29a24 24 0 0 1 24-24h46s14 1 17-13v66a7 7 0 0 1-7 7h-70z"/><rect class="cls-12" x="326" y="265" width="48" height="39" rx="6"/><path class="cls-11" d="M326 295h49v3a6 6 0 0 1-6 5h-37a6 6 0 0 1-6-5v-3z"/><path class="cls-10" d="M354 286l-1 2-2-1a1 1 0 0 0-1 0l-1 1a1 1 0 0 0-1 1l1 2-3 1-1-2h-2l-2 2a101 101 0 0 1-2-1v-2-1l-1-1h-1l-2 2-2-3 2-1a1 1 0 0 0 0-1l-1-2h-2l-1-1v-2h3v-1l1-1a1 1 0 0 0 0-1l-2-2 1-2h1l2 1a13 13 0 0 1 2-1v-3l2-1 1 3a1 1 0 0 0 1 0h2l1-3 2 1s1 0 0 0v3l2 1 3-1 1 2-2 2 1 2 3 1v2l-3 1-1 2 2 2z"/><path class="cls-12" d="M348 281a4 4 0 1 0-6 3 4 4 0 0 0 6-3z"/><circle cx="333" cy="299" r="2" stroke-linejoin="round" stroke="#6e7f89" fill="#e6edf2"/><path class="cls-10" d="M338 297h8v3h-8z"/><path class="cls-8" d="M305 271v39h38v20h-46a11 11 0 0 1-12-11v-58a22 22 0 0 1 22-22h18"/><path d="M379 176v41a22 22 0 0 1-21 22h-26c-10-1-19-10-20-20v-5-38a22 22 0 0 1 22-21h24a22 22 0 0 1 21 21z" fill="#edc19a"/><path class="cls-8" d="M352 238h6a22 22 0 0 0 21-21v-41a22 22 0 0 0-21-21h-24a22 22 0 0 0-22 21v42c1 11 10 20 20 20h7M352 238h-13"/><circle class="cls-15" cx="371" cy="207" r="3"/><circle class="cls-15" cx="330" cy="207" r="3"/><path class="cls-11" d="M334 155h23a22 22 0 0 1 22 21v10h-37a29 29 0 0 1-13-2 24 24 0 0 1-9-8l-6-9a24 24 0 0 1 4-5 22 22 0 0 1 16-7z"/><path class="cls-8" d="M305 234v-20"/><circle class="cls-12" cx="305" cy="210" r="4"/><path d="M342 131v-2a9 9 0 0 0-2-6 10 10 0 0 1-3-5 10 10 0 0 1 2-8 11 11 0 0 1 6-5h2c5 0 8 3 10 7a10 10 0 0 1-2 11 11 11 0 0 0-2 5l-1 3z" fill="#fdae76" stroke-linejoin="round" stroke="#6e7f89"/><rect class="cls-9" x="341" y="131" width="12" height="5" rx="2"/><rect class="cls-9" x="341" y="135" width="12" height="5" rx="2"/><path class="cls-8" d="M347 131v-12M359 123l2 1M333 123l2-1"/><path class="cls-11" d="M286 257c-1 2 3 2 5 1 6 0 10-6 9-11a10 10 0 0 0-2-6s-10 3-12 16z"/><path class="cls-17" d="M319 321h4v9h-4zM329 321h4v9h-4z"/><circle class="cls-11" cx="313" cy="325" r="2"/><path class="cls-18" d="M320 219l-1-5v-38a22 22 0 0 1 22-21h-7a22 22 0 0 0-22 21v38l1 5a21 21 0 0 0 20 20h8-1a21 21 0 0 1-20-20zM305 271a5 5 0 0 1 5 5v33h-5v-38z"/><circle class="cls-8" cx="345" cy="118" r="2"/><circle class="cls-8" cx="350" cy="118" r="2"/><rect class="cls-21" x="250" y="219" width="395" height="253" rx="12"/><path class="cls-22" d="M633 473H262a12 12 0 0 1-12-12v10a12 12 0 0 0 12 12h371a12 12 0 0 0 12-12v-10a12 12 0 0 1-12 12z"/><path fill="#fff" d="M633 231v230H384l128-230h121z"/><path class="cls-24" d="M512 231L384 461H262V231h250z"/><path class="cls-25" d="M384 461H262V231h371v230H384z"/><path class="cls-26" d="M633 13L512 231M512 231L384 461M384 461L263 679"/><path d="M574 364c12 0 21 10 21 22l-1 35v9a21 21 0 0 1-7 14 20 20 0 0 1-14 5h-23c-12 0-21-10-21-22v-42c0-12 10-22 22-22z" fill="#efd4b4"/><path class="cls-25" d="M568 449h5a20 20 0 0 0 14-5 21 21 0 0 0 7-14v-7-2l1-35c0-12-9-22-21-22l-23-1c-12 0-22 10-22 22v42c0 12 9 22 20 22h5M568 449h-13"/><path d="M529 430h-17s8 0 8-11v-36s-1-29 26-35a21 21 0 0 1 4 0h31a25 25 0 0 1 23 17v1a33 33 0 0 1 2 11v49a8 8 0 0 1-8 7h-11z" fill="#80b5bc" stroke-width="2" stroke-linejoin="round" stroke="#6e7f89"/><path class="cls-7" d="M563 298h3a18 18 0 0 1 18 19v31h-39v-31a18 18 0 0 1 18-19z" transform="translate(4 -7)"/><path class="cls-29" d="M572 333a10 10 0 0 1-14 0l-1-1 14-15 1 1a11 11 0 0 1 0 15z"/><ellipse cx="561" cy="321" rx="3" ry="3" transform="rotate(-89 561 321)" fill="#98bac8" stroke-width="2" stroke-linejoin="round" stroke="#6e7f89"/><path class="cls-25" d="M563 323l1 2M554 321a6 6 0 0 1 7-7M550 321a11 11 0 0 1 11-11"/><path class="cls-29" d="M572 335h1a3 3 0 0 1 3 3v10h-7v-10a3 3 0 0 1 3-3z" transform="rotate(1 575 343)"/><g clip-path="url(#clip-path-2)"><path class="cls-18" d="M550 348l1-24s0-24 14-25l-5-3-21 11v41z"/></g><path class="cls-21" d="M539 454h46a20 20 0 0 1 19 19v65h-85v-65a20 20 0 0 1 20-19z" transform="rotate(1 564 497)"/><path class="cls-18" d="M528 537h-8l1-65s-1-15 16-18c0 0-9 5-9 20v63z"/><path d="M582 448a3 3 0 0 1 0 6h-40a3 3 0 0 1-3-3 3 3 0 0 1 1-2 3 3 0 0 1 2-1z" fill="#e6edf2"/><path class="cls-25" d="M582 454h-40a3 3 0 0 1-3-3 3 3 0 0 1 1-2 3 3 0 0 1 2-1h40a3 3 0 0 1 0 6z"/><path d="M513 482h97a26 26 0 0 1 26 26v71H487v-71a26 26 0 0 1 26-26z" stroke-miterlimit="10" stroke-linecap="round" fill="#98bac8" stroke-width="2" stroke="#6e7f89"/><path class="cls-34" d="M487 556h39v11h-39z"/><circle class="cls-34" cx="542" cy="561" r="6"/><circle class="cls-34" cx="561" cy="560" r="6"/><path class="cls-35" d="M629 526h8v7h-8a4 4 0 0 1-4-3 4 4 0 0 1 4-4zM629 537h8v7h-8a4 4 0 0 1-4-4 4 4 0 0 1 4-3zM629 548h8v7h-8a4 4 0 0 1-4-4 4 4 0 0 1 4-3z"/><path class="cls-24" d="M758 295v7h-6v-7h6z"/><path class="cls-36" d="M752 302h-7v-7h7v7z"/><path class="cls-24" d="M745 302h-7v-7h7v7z"/><path class="cls-36" d="M738 302h-7v-7h7v7z"/><path class="cls-24" d="M731 302h-8v-7h8v7z"/><path class="cls-36" d="M723 302h-4a17 17 0 0 0-3 1l-1-7a24 24 0 0 1 4-1h4v7z"/><path class="cls-24" d="M716 303a18 18 0 0 0-6 2v-1l-3-5a24 24 0 0 1 8-3z"/><path class="cls-36" d="M710 304v1a18 18 0 0 0-5 4l-5-5a25 25 0 0 1 7-5z"/><path class="cls-24" d="M700 304l5 5a18 18 0 0 0-3 5l-7-2a25 25 0 0 1 5-8z"/><path class="cls-36" d="M695 312l7 2a18 18 0 0 0-1 6h-7a25 25 0 0 1 1-8z"/><path class="cls-24" d="M701 320v7h-7v-7h7z"/><path class="cls-36" d="M701 327v6a24 24 0 0 1 0 2l-7-1v-7z"/><path class="cls-24" d="M694 334l7 1a24 24 0 0 1-3 10l-6-3a18 18 0 0 0 2-8z"/><path class="cls-36" d="M692 342l6 2a25 25 0 0 1-6 8l-5-5a18 18 0 0 0 5-5z"/><path class="cls-24" d="M687 347l5 5a25 25 0 0 1-9 5l-1-7a18 18 0 0 0 5-3z"/><path class="cls-36" d="M683 357a24 24 0 0 1-7 1h-1v-7h1a18 18 0 0 0 6-1z"/><path class="cls-24" d="M668 351h7v7h-7z"/><path class="cls-36" d="M668 358v9h-7v-25h7v16z"/><path class="cls-24" d="M661 367v4a7 7 0 0 1-7 7h-8v-48h8a7 7 0 0 1 7 7v30zm-6-17v-11a2 2 0 1 0-5 0v11a2 2 0 1 0 5 0zm0 20a3 3 0 1 0-2 2 3 3 0 0 0 2-2z"/><path class="cls-4" d="M655 339v11a2 2 0 1 1-5 0v-11a2 2 0 1 1 5 0z"/><path class="cls-37" d="M653 367a3 3 0 1 1-3 3 3 3 0 0 1 3-3z"/><path class="cls-38" d="M617 279a3 3 0 0 1 0 4l-11 10a3 3 0 1 1-4-4l9-8-9-7a3 3 0 1 1 4-5z"/><path class="cls-36" d="M614 305a5 5 0 0 1 0 10h-19a5 5 0 0 1 0-10zM617 256v8H493l5-8h119zM592 335h24v5h-24zM592 326h24v5h-24z"/><path class="cls-37" d="M587 276l7 10h-14l7-10zM569 276a5 5 0 1 1-6 5 5 5 0 0 1 6-5zM552 276a5 5 0 0 1 0 10h-29a5 5 0 0 1 0-10z"/><path class="cls-36" d="M534 305v9h-68l5-9h63z"/><path class="cls-38" d="M519 344a3 3 0 0 1 0 5l-11 9a3 3 0 1 1-4-4l8-8-8-7a3 3 0 0 1 4-5zM514 289a3 3 0 0 1-2 5 3 3 0 0 1-2-1l-11-10a3 3 0 0 1 0-4l11-10a3 3 0 1 1 4 5l-8 7z"/><path class="cls-37" d="M439 382h68v10h-68z"/><path class="cls-36" d="M499 406a4 4 0 0 1 4 5 4 4 0 0 1-4 4h-21a4 4 0 0 1-5-4 4 4 0 0 1 5-5zM499 422a4 4 0 0 1 4 4 4 4 0 0 1-4 5h-21a4 4 0 0 1 0-9zM499 437a4 4 0 0 1 4 5 4 4 0 0 1-4 4h-21a4 4 0 0 1-5-4 4 4 0 0 1 5-5zM498 332a4 4 0 0 1 0 2l-13 28a3 3 0 0 1-4 1 3 3 0 0 1-1-4l13-28a3 3 0 0 1 4-1 3 3 0 0 1 1 2z"/><path class="cls-38" d="M475 354a3 3 0 0 1-4 4l-11-9a3 3 0 0 1 0-5l10-10a3 3 0 0 1 4 5l-8 7z"/><circle class="cls-37" cx="444" cy="424" r="22"/><path class="cls-39" d="M493 264h124v-8H498l-5 8zM552 286h-29a5 5 0 0 1 0-10h29a5 5 0 0 1 0 10z"/><path class="cls-25" d="M614 315h-19a5 5 0 0 1 0-10h19a5 5 0 0 1 0 10z"/><path class="cls-39" d="M574 281a5 5 0 1 1-5-5 5 5 0 0 1 5 5zM587 276l-7 10h14l-7-10zM439 382h68v10h-68zM466 314h68v-9h-63l-5 9z"/><circle class="cls-25" cx="444" cy="424" r="22"/><path class="cls-25" d="M499 415h-21a4 4 0 0 1-5-4 4 4 0 0 1 5-5h21a4 4 0 0 1 4 5 4 4 0 0 1-4 4zM499 431h-21a4 4 0 0 1 0-9h21a4 4 0 0 1 4 4 4 4 0 0 1-4 5zM499 446h-21a4 4 0 0 1-5-4 4 4 0 0 1 5-5h21a4 4 0 0 1 4 5 4 4 0 0 1-4 4z"/><path class="cls-39" d="M604 294a3 3 0 0 1-2-5l9-8-9-7a3 3 0 1 1 4-5l11 10a3 3 0 0 1 0 4l-11 10a3 3 0 0 1-2 1z"/><path class="cls-25" d="M592 326h24v5h-24zM592 335h24v5h-24z"/><path class="cls-39" d="M512 294a3 3 0 0 1-2-1l-11-10a3 3 0 0 1 0-4l11-10a3 3 0 1 1 4 5l-8 7 8 8a3 3 0 0 1-2 5zM473 359a3 3 0 0 1-2-1l-11-9a3 3 0 0 1 0-5l10-10a3 3 0 0 1 4 5l-8 7 9 8a3 3 0 0 1-2 5zM498 334l-13 28a3 3 0 0 1-4 1 3 3 0 0 1-1-4l13-28a3 3 0 0 1 4-1 3 3 0 0 1 1 2 4 4 0 0 1 0 2zM506 359a3 3 0 0 0 2-1l11-9a3 3 0 0 0 0-5l-11-10a3 3 0 0 0-4 5l8 7-8 8a3 3 0 0 0 2 5zM661 342v-5a7 7 0 0 0-7-7h-8v48h8a7 7 0 0 0 7-7v-29zM668 358v9h-7M661 342h7v9M700 304a25 25 0 0 1 7-5 24 24 0 0 1 8-3 24 24 0 0 1 4-1h39v7h-39a18 18 0 0 0-9 3 18 18 0 0 0-5 4 18 18 0 0 0-3 5 18 18 0 0 0-1 6v13a24 24 0 0 1 0 2 24 24 0 0 1-3 10 25 25 0 0 1-15 12 24 24 0 0 1-7 1h-8v-7h8a18 18 0 0 0 11-4 18 18 0 0 0 5-5 18 18 0 0 0 2-8v-14a25 25 0 0 1 6-16"/><path class="cls-39" d="M653 352a2 2 0 0 1-3-2v-11a2 2 0 1 1 5 0v11a2 2 0 0 1-2 2zM655 370a3 3 0 1 1-2-3 3 3 0 0 1 2 3zM675 351v7M682 350l1 7M687 347l5 5M692 342l6 3M694 334l7 1M694 327h7M694 320h7M695 312l7 2M700 304l5 5M707 299l3 5M715 296l1 7M723 296v6M731 296v6M738 295v7M745 296v6M752 296v6"/><path class="cls-24" d="M250 280v48h-8a7 7 0 0 1-7-6v-35a7 7 0 0 1 7-7zm-5 40v-11a2 2 0 0 0-4 0v11a2 2 0 0 0 1 1 2 2 0 0 0 1 1 2 2 0 0 0 2-2zm1-31a3 3 0 1 0-3 3 3 3 0 0 0 3-3z"/><path class="cls-37" d="M245 309v11a2 2 0 0 1-2 2 2 2 0 0 1-1-1 2 2 0 0 1-1-1v-11a2 2 0 0 1 4 0z"/><path class="cls-4" d="M243 286a3 3 0 1 1-3 3 3 3 0 0 1 3-3z"/><path class="cls-36" d="M235 292v25h-7v-25h7zM221 301h7v7h-7z"/><path class="cls-24" d="M221 301v7h-1a18 18 0 0 0-6 1l-1-7a24 24 0 0 1 7-1z"/><path class="cls-36" d="M213 302l1 7a18 18 0 0 0-5 3l-5-6a25 25 0 0 1 9-4z"/><path class="cls-24" d="M204 306l5 6a18 18 0 0 0-5 5l-6-3a25 25 0 0 1 6-8z"/><path class="cls-36" d="M204 317a18 18 0 0 0-2 7l-7-1a24 24 0 0 1 3-9z"/><path class="cls-24" d="M195 323l7 1v7h-7v-5a24 24 0 0 1 0-3z"/><path class="cls-36" d="M202 331v7h-7v-7h7z"/><path class="cls-24" d="M195 338h7a25 25 0 0 1-1 9l-7-2a18 18 0 0 0 1-7z"/><path class="cls-36" d="M194 345l7 2a25 25 0 0 1-5 7l-5-4a18 18 0 0 0 3-5z"/><path class="cls-24" d="M191 350l5 4a25 25 0 0 1-7 6l-3-6a18 18 0 0 0 5-4z"/><path class="cls-36" d="M186 354l3 6a24 24 0 0 1-8 3l-1-7a17 17 0 0 0 6-2z"/><path class="cls-24" d="M180 356l1 7a24 24 0 0 1-4 0h-5v-7h5a17 17 0 0 0 3 0z"/><path class="cls-36" d="M172 363h-7v-7h7v7z"/><path class="cls-24" d="M165 363h-7v-7h7v7z"/><path class="cls-36" d="M158 356v7h-7v-7h7z"/><path class="cls-24" d="M151 363h-7v-7h7v7z"/><path class="cls-36" d="M144 363h-9v-7h9v7z"/><path class="cls-39" d="M235 292v-5a7 7 0 0 1 7-7h8v48h-8a7 7 0 0 1-7-6v-30zM228 301v-9h7M235 317h-7v-9M213 302a24 24 0 0 1 7-1h8v7h-8a18 18 0 0 0-18 16v14a25 25 0 0 1-6 16 25 25 0 0 1-7 6 24 24 0 0 1-8 3 24 24 0 0 1-4 0h-42v-7h42a18 18 0 0 0 9-2 18 18 0 0 0 9-16v-12a24 24 0 0 1 0-3 24 24 0 0 1 3-9 25 25 0 0 1 6-8 25 25 0 0 1 9-4z"/><path class="cls-39" d="M243 306a2 2 0 0 1 2 3v11a2 2 0 0 1-2 2 2 2 0 0 1-1-1 2 2 0 0 1-1-1v-11a2 2 0 0 1 2-3zM240 289a3 3 0 1 1 3 3 3 3 0 0 1-3-3zM221 308v-7M214 309l-1-7M209 312l-5-6M204 317l-6-3M202 324l-7-1M202 331h-7M202 338h-7M201 347l-7-2M196 354l-5-4M189 360l-3-6M181 363l-1-7M172 363v-7M165 363v-7M158 363v-7M151 363v-7M144 363v-7"/><path d="M457 424a13 13 0 1 1-13-13 13 13 0 0 1 13 13z" stroke-dasharray="2.05 4.11" stroke-linecap="round" stroke-width="2" stroke-linejoin="round" stroke="#6e7f89" fill="none"/><path class="cls-4" d="M595 148a3 3 0 1 1-3 3 3 3 0 0 1 3-3z"/><path class="cls-25" d="M598 151a3 3 0 1 1-3-3 3 3 0 0 1 3 3z"/><path class="cls-4" d="M715 457a5 5 0 1 1-7 0 5 5 0 0 1 7 0z"/><path class="cls-25" d="M715 464a5 5 0 1 1 0-7 5 5 0 0 1 0 7z"/><circle class="cls-7" cx="284" cy="56" r="6"/><path class="cls-4" d="M739 207a6 6 0 0 1 0 11h-18a6 6 0 0 1 0-11z"/><path class="cls-25" d="M739 218h-18a6 6 0 0 1 0-11h18a6 6 0 0 1 0 11z"/><path class="cls-4" d="M315 526a4 4 0 0 1 0 7h-18a4 4 0 0 1 0-7z"/><path class="cls-25" d="M315 533h-18a4 4 0 0 1 0-7h18a4 4 0 0 1 0 7z"/><path class="cls-22" d="M333 117a20 20 0 0 1 20-21 20 20 0 0 1 6 1 20 20 0 0 0-32 17v28h6z"/><path class="cls-18" d="M597 433l-58-3h-17s8 0 8-11v-36s-1-29 26-35a20 20 0 0 1 2 0h-8a21 21 0 0 0-4 0c-27 6-26 35-26 35v36c0 11-8 11-8 11h17l58 3h11a7 7 0 0 0 1 0z"/><ellipse class="cls-22" cx="225" cy="237" rx="12" ry="5"/><path class="cls-42" d="M243 185a20 20 0 0 0-35 21l16 28a1 1 0 0 0 1 0 1 1 0 0 0 1 0l17-28a20 20 0 0 0 0-21zm-18 20a10 10 0 1 1 10-10 10 10 0 0 1-10 10z"/><path class="cls-39" d="M633 198v10M628 203h10M114 383v10M109 388h11M453 97v10M448 102h11"/><path class="cls-18" d="M525 482h-12a26 26 0 0 0-26 26v71h12v-71a26 26 0 0 1 26-26z"/><path class="cls-43" d="M266 148l1-1v-1l1-1v-1-1-1l1-1v-1-1a15 15 0 0 0-15-15 14 14 0 0 0-2 1 21 21 0 0 0-19-12h-3l-1 1a29 29 0 0 0-11-22l-1-1h-1v-1h-1l-1-1-1-1h-2l-1-1h-1l-1-1h-1-3l-1-1h-4a29 29 0 0 0-29 29 20 20 0 0 0-6-1h-4l-1 1h-1-1-1v1h-1l-1 1h-1l-1 1-1 1a21 21 0 0 0-2 1l-1 1a21 21 0 0 0-1 2 20 20 0 0 0-4 12v1a10 10 0 0 0 0 19h111a15 15 0 0 0 12-7zM912 589l1-1 1-2 1-1v-1l1-1v-2-2l1-2v-2a26 26 0 0 0-26-25 25 25 0 0 0-3 0 35 35 0 0 0-32-20h-4-1l-1 1h-2a50 50 0 0 0-18-37l-2-2-2-1-2-1-2-1v-1h-2v-1h-2v-1h-2v-1h-3l-1-1h-1l-1-1h-5l-1-1h-6a50 50 0 0 0-51 50 35 35 0 0 0-11-2h-3-2-1l-1 1h-2l-2 1h-2l-2 1-2 1-2 1-1 1-1 1-1 1a35 35 0 0 0-3 3l-2 1a36 36 0 0 0-2 4 35 35 0 0 0-6 19v2a17 17 0 1 0 0 33h190a26 26 0 0 0 21-11zM212 515v-2a24 24 0 0 0-15-22 24 24 0 0 0-37-15 42 42 0 0 0-14-15 43 43 0 0 0-7-4h-1l-1-1h-2l-1-1h-4v-1h-4-3a42 42 0 0 0-42 36 25 25 0 0 0-5-1h-5l-1 1h-2-1v1h-2l-1 1c-1 0 0 0 0 0h-1a25 25 0 0 0-9 11 18 18 0 1 0-8 35h141a24 24 0 0 0 24-23z"/><ellipse class="cls-22" cx="717" cy="426" rx="12" ry="5"/><path class="cls-42" d="M735 375a20 20 0 0 0-35 20l16 29a1 1 0 0 0 1 0 1 1 0 0 0 1 0l17-29a20 20 0 0 0 0-20zm-18 20a10 10 0 1 1 10-10 10 10 0 0 1-10 10z"/></g></g></svg>