<svg height="304.72202" viewBox="17030 -20561.289 302.5131 304.72202" width="302.51309" xmlns="http://www.w3.org/2000/svg" xmlns:xlink="http://www.w3.org/1999/xlink"><clipPath id="a"><path d="m135.919 465.009h-2.052a84.785 84.785 0 0 1 -84.767-84.766v-6.043h171.585v6.043a84.712 84.712 0 0 1 -84.766 84.766z" transform="translate(-49.1 -374.2)"/></clipPath><g transform="translate(17030 -20561.289)"><circle cx="54.154999" cy="54.154999" fill="#fff" r="54.154999"/><path d="m217.2 366.8h-172.955a4.841 4.841 0 0 1 -4.845-4.845v-.114a4.841 4.841 0 0 1 4.845-4.841h172.955a4.841 4.841 0 0 1 4.845 4.846v.114a4.841 4.841 0 0 1 -4.845 4.84z" style="fill:#91cace;stroke:#6e7f89;stroke-width:1.2;stroke-linecap:round;stroke-linejoin:round;stroke-miterlimit:10" transform="translate(-16.94 -153.492)"/><path d="m135.919 465.009h-2.052a84.785 84.785 0 0 1 -84.767-84.766v-6.043h171.585v6.043a84.712 84.712 0 0 1 -84.766 84.766z" style="fill:#c4d4dd;stroke:#6e7f89;stroke-width:1.2;stroke-linecap:round;stroke-linejoin:round;stroke-miterlimit:10" transform="translate(-21.11 -160.887)"/><path d="m91.647 273.676h-28.047v-108.876a1.593 1.593 0 0 1 1.6-1.6h33.857a1.593 1.593 0 0 1 1.6 1.6v70.173" style="fill:#c4d4dd;stroke:#6e7f89;stroke-width:1.2;stroke-linecap:round;stroke-linejoin:round;stroke-miterlimit:10" transform="translate(-27.345 -70.168)"/><path d="m209.437 188.489h-1.937a.39.39 0 0 1 -.4-.4v-3.589a.39.39 0 0 1  .4-.4h1.938a.39.39 0 0 1  .4.4v3.591a.48.48 0 0 1 -.401.398z" style="fill:none;stroke:#6e7f89;stroke-width:1.2;stroke-linecap:round;stroke-linejoin:round;stroke-miterlimit:10" transform="translate(-89.042 -79.154)"/><path d="m197.1 197.915v-32.265a1.9 1.9 0 0 1 1.026-1.65l37.281-19.04a.585.585 0 0 1  .855.513v120.335h-39.105v-67.893z" style="fill:#c4d4dd;stroke:#6e7f89;stroke-width:1.2;stroke-linecap:round;stroke-linejoin:round;stroke-miterlimit:10" transform="translate(-84.743 -62.3)"/><path d="m214.057 234.135h5.243a.056.056 0 0 0  .057-.057v-38.421a.056.056 0 0 0 -.057-.057h-2.622a2.676 2.676 0 0 0 -2.678 2.679l.057 35.856c-.057-.057-.057 0 0 0z" opacity=".08" transform="translate(-92.009 -84.098)"/><path d="m237.5 152.749v8.151a1.387 1.387 0 0 0 1.368 1.368h8.95a1.387 1.387 0 0 1 1.368 1.368v102.154h4.332v-120.337a.567.567 0 0 0 -.855-.513z" style="fill:#91cace;stroke:#6e7f89;stroke-width:1.2;stroke-linecap:round;stroke-linejoin:round;stroke-miterlimit:10" transform="translate(-102.113 -62.282)"/><path d="m209.437 206.389h-1.937a.39.39 0 0 1 -.4-.4v-3.589a.39.39 0 0 1  .4-.4h1.938a.39.39 0 0 1  .4.4v3.591a.48.48 0 0 1 -.401.398z" style="fill:#d5f4f2;stroke:#6e7f89;stroke-width:1.2;stroke-linecap:round;stroke-linejoin:round;stroke-miterlimit:10" transform="translate(-89.042 -86.85)"/><path d="m209.437 191.789h-1.937a.39.39 0 0 1 -.4-.4v-3.589a.39.39 0 0 1  .4-.4h1.938a.39.39 0 0 1  .4.4v3.591a.48.48 0 0 1 -.401.398z" style="fill:#d5f4f2;stroke:#6e7f89;stroke-width:1.2;stroke-linecap:round;stroke-linejoin:round;stroke-miterlimit:10" transform="translate(-89.042 -80.572)"/><path d="m209.437 221.189h-1.937a.39.39 0 0 1 -.4-.4v-3.589a.39.39 0 0 1  .4-.4h1.938a.39.39 0 0 1  .4.4v3.591a.48.48 0 0 1 -.401.398z" style="fill:#d5f4f2;stroke:#6e7f89;stroke-width:1.2;stroke-linecap:round;stroke-linejoin:round;stroke-miterlimit:10" transform="translate(-89.042 -93.213)"/><path d="m175.291 111.787v-13.567" style="fill:none;stroke:#6e7f89;stroke-width:1.2;stroke-linecap:round;stroke-linejoin:round;stroke-miterlimit:10"/><circle cx="175.291" cy="96.223999" r="1.995" style="fill:#ff7c6e;stroke:#6e7f89;stroke-width:1.2;stroke-linecap:round;stroke-linejoin:round;stroke-miterlimit:10"/><path d="m91.949 121.991v-12.997" style="fill:none;stroke:#6e7f89;stroke-width:1.2;stroke-linecap:round;stroke-linejoin:round;stroke-miterlimit:10"/><circle cx="91.891998" cy="106.998" r="1.995" style="fill:#ff7c6e;stroke:#6e7f89;stroke-width:1.2;stroke-linecap:round;stroke-linejoin:round;stroke-miterlimit:10"/><path d="m333.851 101a8.014 8.014 0 0 1 5.073 1.6l3.363 2.394 25.937 18.641 6.214 4.446 13.567 9.463 1.824 1.311 1.482 1.026 2 1.425 2.451 1.767 7.924 5.643a8.357 8.357 0 0 1 -4.731 15.163 8.014 8.014 0 0 1 -5.073-1.6l-7.981-5.7-3.648-2.793-53.191-37.686a8.385 8.385 0 0 1 -1.938-11.686 8.793 8.793 0 0 1 6.727-3.414z" style="fill:#e6edf2;stroke:#6e7f89;stroke-width:1.2;stroke-linecap:round;stroke-linejoin:round;stroke-miterlimit:10" transform="translate(-139.976 -43.422)"/><path d="m401.217 161.878a8.015 8.015 0 0 1 -5.074-1.6l-7.981-5.7-3.648-2.793-53.186-37.68a8.438 8.438 0 0 1 -3.306-8.608 6.558 6.558 0 0 0 -.8.969 8.385 8.385 0 0 0 1.938 11.686l53.186 37.68 3.654 2.797 7.981 5.7a8.765 8.765 0 0 0 5.074 1.6 8.4 8.4 0 0 0 6.67-3.477 8.253 8.253 0 0 0 1.368-3.078 8.817 8.817 0 0 1 -5.876 2.504z" opacity=".08" transform="translate(-140.019 -45.36)"/><g stroke="#6e7f89" stroke-linecap="round" stroke-linejoin="round" stroke-miterlimit="10" stroke-width="1.2"><path d="m36.255 107.398h20.978v96.111h-20.978z" fill="#e6edf2"/><path d="m101.169 199.579h-6.669a.39.39 0 0 1 -.4-.4v-1.879a.39.39 0 0 1  .4-.4h6.727a.39.39 0 0 1  .4.4v1.881a.489.489 0 0 1 -.458.398z" fill="#e6edf2" transform="translate(-40.458 -84.657)"/><path d="m101.169 215.779h-6.669a.39.39 0 0 1 -.4-.4v-1.879a.39.39 0 0 1  .4-.4h6.727a.39.39 0 0 1  .4.4v1.881a.489.489 0 0 1 -.458.398z" fill="#e6edf2" transform="translate(-40.458 -91.622)"/><path d="m101.169 231.979h-6.669a.39.39 0 0 1 -.4-.4v-1.879a.39.39 0 0 1  .4-.4h6.727a.39.39 0 0 1  .4.4v1.881a.489.489 0 0 1 -.458.398z" fill="#e6edf2" transform="translate(-40.458 -98.587)"/><path d="m101.169 248.179h-6.669a.39.39 0 0 1 -.4-.4v-1.879a.39.39 0 0 1  .4-.4h6.727a.39.39 0 0 1  .4.4v1.881a.489.489 0 0 1 -.458.398z" fill="#e6edf2" transform="translate(-40.458 -105.552)"/><path d="m101.169 264.379h-6.669a.39.39 0 0 1 -.4-.4v-1.879a.39.39 0 0 1  .4-.4h6.727a.39.39 0 0 1  .4.4v1.881a.489.489 0 0 1 -.458.398z" fill="#e6edf2" transform="translate(-40.458 -112.518)"/><path d="m101.169 280.579h-6.669a.39.39 0 0 1 -.4-.4v-1.879a.39.39 0 0 1  .4-.4h6.727a.39.39 0 0 1  .4.4v1.881a.441.441 0 0 1 -.458.398z" fill="#e6edf2" transform="translate(-40.458 -119.483)"/><path d="m101.169 296.779h-6.669a.39.39 0 0 1 -.4-.4v-1.879a.39.39 0 0 1  .4-.4h6.727a.39.39 0 0 1  .4.4v1.881a.44.44 0 0 1 -.458.398z" fill="#e6edf2" transform="translate(-40.458 -126.448)"/><path d="m101.169 312.979h-6.669a.39.39 0 0 1 -.4-.4v-1.879a.39.39 0 0 1  .4-.4h6.727a.39.39 0 0 1  .4.4v1.881a.441.441 0 0 1 -.458.398z" fill="#e6edf2" transform="translate(-40.458 -133.413)"/><path d="m101.169 329.179h-6.669a.39.39 0 0 1 -.4-.4v-1.879a.39.39 0 0 1  .4-.4h6.727a.39.39 0 0 1  .4.4v1.881a.441.441 0 0 1 -.458.398z" fill="#e6edf2" transform="translate(-40.458 -140.378)"/><path d="m101.169 345.379h-6.669a.39.39 0 0 1 -.4-.4v-1.879a.39.39 0 0 1  .4-.4h6.727a.39.39 0 0 1  .4.4v1.881a.441.441 0 0 1 -.458.398z" fill="#e6edf2" transform="translate(-40.458 -147.343)"/><path d="m98.342 153.87h-23.942v-11.17a1.169 1.169 0 0 1 1.2-1.2h21.488a1.169 1.169 0 0 1 1.2 1.2v11.17z" fill="#98bac8" transform="translate(-31.988 -60.838)"/><path d="m98.254 161.093h-29.586a1.387 1.387 0 0 1 -1.368-1.368v-.057a1.387 1.387 0 0 1 1.368-1.368h29.586a1.387 1.387 0 0 1 1.368 1.368v.057a1.387 1.387 0 0 1 -1.368 1.368z" fill="#e6edf2" transform="translate(-28.936 -68.061)"/><path d="m98.254 156.193h-29.586a1.387 1.387 0 0 1 -1.368-1.368v-.057a1.387 1.387 0 0 1 1.368-1.368h29.586a1.387 1.387 0 0 1 1.368 1.368v.057a1.387 1.387 0 0 1 -1.368 1.368z" fill="#e6edf2" transform="translate(-28.936 -65.954)"/><circle cx="45.091" cy="83.056" fill="#fff" r=".969"/><circle cx="63.561001" cy="83.056" fill="#fff" r=".969"/><path d="m100.1 76.844a20.093 20.093 0 1 0 -27.247 18.926 1.617 1.617 0 0 1 1.026 1.539v5.415h12.2v-5.415a1.617 1.617 0 0 1 1.021-1.539 20.257 20.257 0 0 0 13-18.926z" fill="#fcbf65" transform="translate(-25.766 -24.342)"/><path d="m97.374 138.92h-16.474v-2a1.411 1.411 0 0 1 1.425-1.425h13.681a1.411 1.411 0 0 1 1.425 1.425v2z" fill="#c4d4dd" transform="translate(-34.783 -58.258)"/><circle cx="51.589001" cy="60.254002" fill="#ffd9a6" r="2.964"/><circle cx="57.688999" cy="60.254002" fill="#ffd9a6" r="2.964"/><g fill="#fff"><path d="m95.4 106.9.342-1.2v17.045" transform="translate(-41.017 -45.446)"/><path d="m54.383 27.647v-3.819"/><path d="m61.052 28.502 1.026-3.648"/><path d="m67.38 31.181 1.938-3.249"/><path d="m47.713 28.502-.969-3.705"/><path d="m41.442 31.124-1.938-3.249"/><path d="m72.568 35.229 2.736-2.622"/><path d="m33.462 73.65 2.736-2.679"/><path d="m36.027 35.4-2.736-2.622"/><path d="m75.475 73.479-2.793-2.679"/><path d="m31.922 41.043-3.363-1.824"/><path d="m80.148 67.037-3.363-1.824"/><path d="m76.842 41.1 3.363-1.824"/><path d="m28.559 66.923 3.363-1.767"/><path d="m79.522 57.347 3.762.627"/><path d="m25.481 48.283 3.762.627"/><path d="m79.465 48.625 3.762-.684"/><path d="m25.538 58.316 3.762-.684"/></g><path d="m280.228 287.821v-89.669a2.044 2.044 0 0 0 -2.052-2.052h-55.124a2.044 2.044 0 0 0 -2.052 2.052v89.669z" fill="#e6edf2" transform="translate(-95.019 -84.313)"/><path d="m220.9 226.1h41.557a1.2 1.2 0 0 1 1.2 1.2v12.427a1.2 1.2 0 0 0 1.2 1.2h5.929a1.2 1.2 0 0 1 1.2 1.2v58.6h-50.972v-74.627z" fill="#ccdbe2" transform="translate(-94.976 -97.211)"/><circle cx="181.618" cy="115.093" fill="#98bac8" r="1.254"/><circle cx="129.57201" cy="114.922" fill="#98bac8" r="1.254"/><path d="m246.436 316.112h-2.394a.368.368 0 0 1 -.342-.342v-53.528a.368.368 0 0 1  .342-.342h2.394a.368.368 0 0 1  .342.342v53.528a.329.329 0 0 1 -.342.342z" fill="#d5f4f2" transform="translate(-104.779 -112.604)"/><path d="m267.536 316.112h-2.394a.368.368 0 0 1 -.342-.342v-53.528a.368.368 0 0 1  .342-.342h2.394a.368.368 0 0 1  .342.342v53.528a.329.329 0 0 1 -.342.342z" fill="#d5f4f2" transform="translate(-113.851 -112.604)"/><path d="m287.336 316.112h-2.394a.368.368 0 0 1 -.342-.342v-53.528a.368.368 0 0 1  .342-.342h2.394a.368.368 0 0 1  .342.342v53.528a.329.329 0 0 1 -.342.342z" fill="#d5f4f2" transform="translate(-122.364 -112.604)"/><path d="m232.736 236.959h-2.336a.39.39 0 0 1 -.4-.4v-4.159a.39.39 0 0 1  .4-.4h2.337a.39.39 0 0 1  .4.4v4.161c-.059.227-.173.398-.401.398z" fill="#c4d4dd" transform="translate(-98.888 -99.748)"/><path d="m245.936 236.959h-2.336a.39.39 0 0 1 -.4-.4v-4.159a.39.39 0 0 1  .4-.4h2.337a.39.39 0 0 1  .4.4v4.161a.48.48 0 0 1 -.401.398z" fill="#91cace" transform="translate(-104.564 -99.748)"/><path d="m259.036 236.959h-2.336a.39.39 0 0 1 -.4-.4v-4.159a.39.39 0 0 1  .4-.4h2.337a.39.39 0 0 1  .4.4v4.161a.39.39 0 0 1 -.401.398z" fill="#d5f4f2" transform="translate(-110.196 -99.748)"/><path d="m272.236 236.959h-2.336a.39.39 0 0 1 -.4-.4v-4.159a.39.39 0 0 1  .4-.4h2.337a.39.39 0 0 1  .4.4v4.161a.39.39 0 0 1 -.401.398z" fill="#d5f4f2" transform="translate(-115.871 -99.748)"/><path d="m285.436 236.959h-2.336a.39.39 0 0 1 -.4-.4v-4.159a.39.39 0 0 1  .4-.4h2.337a.39.39 0 0 1  .4.4v4.161a.48.48 0 0 1 -.401.398z" fill="#91cace" transform="translate(-121.547 -99.748)"/><path d="m232.736 252.159h-2.336a.39.39 0 0 1 -.4-.4v-4.159a.39.39 0 0 1  .4-.4h2.337a.39.39 0 0 1  .4.4v4.161c-.059.227-.173.398-.401.398z" fill="#d5f4f2" transform="translate(-98.888 -106.283)"/><path d="m245.936 252.159h-2.336a.39.39 0 0 1 -.4-.4v-4.159a.39.39 0 0 1  .4-.4h2.337a.39.39 0 0 1  .4.4v4.161a.48.48 0 0 1 -.401.398z" fill="#c4d4dd" transform="translate(-104.564 -106.283)"/><path d="m259.036 252.159h-2.336a.39.39 0 0 1 -.4-.4v-4.159a.39.39 0 0 1  .4-.4h2.337a.39.39 0 0 1  .4.4v4.161a.39.39 0 0 1 -.401.398z" fill="#91cace" transform="translate(-110.196 -106.283)"/><path d="m272.236 252.159h-2.336a.39.39 0 0 1 -.4-.4v-4.159a.39.39 0 0 1  .4-.4h2.337a.39.39 0 0 1  .4.4v4.161a.39.39 0 0 1 -.401.398z" fill="#d5f4f2" transform="translate(-115.871 -106.283)"/><path d="m285.436 252.159h-2.336a.39.39 0 0 1 -.4-.4v-4.159a.39.39 0 0 1  .4-.4h2.337a.39.39 0 0 1  .4.4v4.161a.48.48 0 0 1 -.401.398z" fill="#d5f4f2" transform="translate(-121.547 -106.283)"/><circle cx="154.99699" cy="78.097" fill="none" r="1.254"/><circle cx="70.172997" cy="96.111" fill="#e6edf2" r="1.026"/><path d="m49.485 392h55.352a1.7 1.7 0 0 1 1.6 1.71v40.759a1.622 1.622 0 0 1 -1.6 1.71h-40.189a85.515 85.515 0 0 1 -15.448-44.179" fill="#98bac8" transform="translate(-21.153 -168.54)"/><path d="m165.2 484.24v-48.112l10.774-12.028" fill="none" transform="translate(-71.028 -182.341)"/><path d="m94.287 271.344 10.546-11.116" fill="none"/><path d="m94.173 288.56-10.603-11.116" fill="none"/><circle cx="105.117" cy="241.53101" fill="#e6edf2" r="1.539"/><circle cx="117.145" cy="239.136" fill="#e6edf2" r="1.539"/><circle cx="125.183" cy="245.578" fill="#e6edf2" r="1.539"/><circle cx="135.843" cy="224.48599" fill="#d5f4f2" r="1.539"/><circle cx="128.774" cy="229.38901" fill="#e6edf2" r="1.539"/><circle cx="105.516" cy="259.772" fill="#e6edf2" r="1.539"/><circle cx="108.367" cy="271.23001" fill="#e6edf2" r="1.539"/><circle cx="83.569" cy="277.444" fill="#d5f4f2" r="1.539"/><path d="m174.6 508.3v-22.633l7.7-7.867" fill="none" transform="translate(-75.069 -205.429)"/><path d="m158.19 251.678-6.898-6.841" fill="none"/><circle cx="109.392" cy="283.258" fill="#e6edf2" r="1.539"/><path d="m104.034 288.73 4.104-4.389" fill="#e6edf2"/><path d="m103.977 303.609v-14.878" fill="#e6edf2"/><path d="m125.183 272.769v-25.538" fill="#fff"/><path d="m135.786 272.769v-46.63" fill="#fff"/><path d="m288.207 461.318h-20.007a.779.779 0 0 1 -.8-.8v-8.718a.779.779 0 0 1  .8-.8h20.009a.779.779 0 0 1  .8.8v8.722a.815.815 0 0 1 -.802.796z" fill="#e6edf2" transform="translate(-114.968 -193.907)"/><path d="m213.581 442.138-7.981-8.38v-11.458" fill="none" transform="translate(-88.397 -181.567)"/><circle cx="152.147" cy="226.937" fill="#e6edf2" r="1.539"/><circle cx="158.30299" cy="231.44099" fill="#d5f4f2" r="1.539"/><path d="m158.303 257.036v-23.714" fill="#fff"/><path d="m273.057 416.448-6.157-6.5v-8.948" fill="none" transform="translate(-114.753 -172.409)"/><circle cx="143.82401" cy="234.291" fill="#d5f4f2" r="1.539"/><path d="m238.2 433.581 7.981-8.38v-11.401" fill="none" transform="translate(-102.414 -177.913)"/><path d="m232.869 420.363-7.069-7.463v-7.7" fill="none" transform="translate(-97.082 -174.215)"/><path d="m149.826 432.1h-6.726a.39.39 0 0 1 -.4-.4v-1.2a.39.39 0 0 1  .4-.4h6.727a.39.39 0 0 1  .4.4v1.2a.39.39 0 0 1 -.401.4z" fill="#f0f9ff" transform="translate(-61.354 -184.921)"/><path d="m149.826 445.1h-6.726a.39.39 0 0 1 -.4-.4v-1.2a.39.39 0 0 1  .4-.4h6.727a.39.39 0 0 1  .4.4v1.2a.428.428 0 0 1 -.401.4z" fill="#f0f9ff" transform="translate(-61.354 -190.51)"/><path d="m149.826 458h-6.726a.39.39 0 0 1 -.4-.4v-1.2a.39.39 0 0 1  .4-.4h6.727a.39.39 0 0 1  .4.4v1.2a.428.428 0 0 1 -.401.4z" fill="#f0f9ff" transform="translate(-61.354 -196.057)"/><path d="m51.7 411h47.143v33.4" fill="none" transform="translate(-22.228 -176.709)"/><circle cx="81.459999" cy="227.735" fill="#d5f4f2" r="1.539"/><path d="m80.491 228.875 2.109-2.166" fill="#d5f4f2"/><circle cx="33.006001" cy="227.735" fill="#d5f4f2" r="1.539"/><path d="m31.98 228.875 2.166-2.166" fill="#d5f4f2"/></g><path d="m190.038 401.987h-22.973a2.555 2.555 0 0 1 -2.565-2.565v-.057a2.555 2.555 0 0 1 2.565-2.565h22.973a2.555 2.555 0 0 1 2.565 2.565v.057a2.555 2.555 0 0 1 -2.565 2.565z" opacity=".08" transform="translate(-70.727 -170.604)"/><path d="m190.238 397.387h-22.973a2.555 2.555 0 0 1 -2.565-2.565v-.057a2.555 2.555 0 0 1 2.565-2.565h22.973a2.555 2.555 0 0 1 2.565 2.565v.057a2.555 2.555 0 0 1 -2.565 2.565z" style="fill:#d5f4f2;stroke:#6e7f89;stroke-width:1.2;stroke-linecap:round;stroke-linejoin:round;stroke-miterlimit:10" transform="translate(-70.813 -168.626)"/><path d="m169.712 397.01a.89.89 0 0 1 -.912-.855.877.877 0 0 1  .855-.855.877.877 0 0 1  .855.855.793.793 0 0 1 -.798.855z" style="fill:#fff;stroke:#6e7f89;stroke-width:1.2;stroke-linecap:round;stroke-linejoin:round;stroke-miterlimit:10" transform="translate(-72.575 -169.959)"/><path d="m207.112 397.01a.89.89 0 0 1 -.912-.855.877.877 0 0 1  .855-.855.877.877 0 0 1  .855.855.736.736 0 0 1 -.798.855z" style="fill:#fff;stroke:#6e7f89;stroke-width:1.2;stroke-linecap:round;stroke-linejoin:round;stroke-miterlimit:10" transform="translate(-88.655 -169.959)"/><path d="m115.642 503.646v-22.346h-30.042" style="fill:none;stroke:#6e7f89;stroke-width:1.2;stroke-linecap:round;stroke-linejoin:round;stroke-miterlimit:10" transform="translate(-36.804 -206.934)"/><path d="m181.39 271.23v-48.226" style="fill:none;stroke:#6e7f89;stroke-width:1.2;stroke-linecap:round;stroke-linejoin:round;stroke-miterlimit:10"/><circle cx="70.172997" cy="161.32401" r="1.026" style="fill:#e6edf2;stroke:#6e7f89;stroke-width:1.2;stroke-linecap:round;stroke-linejoin:round;stroke-miterlimit:10"/><circle cx="150.20799" cy="243.64" r="1.539" style="fill:#e6edf2;stroke:#6e7f89;stroke-width:1.2;stroke-linecap:round;stroke-linejoin:round;stroke-miterlimit:10"/><path d="m229.617 242.5h58.316v30.213h-58.316z" style="fill:#e6edf2;stroke:#6e7f89;stroke-width:1.2;stroke-linecap:round;stroke-linejoin:round;stroke-miterlimit:10"/><path d="m239.251 235.317h37.281v7.183h-37.281z" style="fill:#e6edf2;stroke:#6e7f89;stroke-width:1.2;stroke-linecap:round;stroke-linejoin:round;stroke-miterlimit:10"/><path d="m455.565 381.954v11.971h-26.165v-11.971a13.085 13.085 0 0 1 12.427-13.054h.627a13.1 13.1 0 0 1 9.235 3.819 12.621 12.621 0 0 1 3.477 6.328 9.69 9.69 0 0 1  .399 2.907z" style="fill:#98bac8;stroke:#6e7f89;stroke-width:1.2;stroke-linecap:round;stroke-linejoin:round;stroke-miterlimit:10" transform="translate(-184.62 -158.608)"/><path d="m454.476 185.444a8.574 8.574 0 0 1 1.653 5.073v4.161l-.285 69.546-.057 7.7-.057 9.919v9.577l-.057 9.748a8.437 8.437 0 1 1 -16.873 0l .057-9.862.285-50.906.171-49.823a8.418 8.418 0 0 1 8.494-8.38 7.815 7.815 0 0 1 6.669 3.247z" style="fill:#e6edf2;stroke:#6e7f89;stroke-width:1.2;stroke-linecap:round;stroke-linejoin:round;stroke-miterlimit:10" transform="translate(-188.661 -78.331)"/><path d="m446.425 306.1a8.531 8.531 0 0 1 -1.653-5.016l.057-9.862.285-50.906.171-49.822a8.437 8.437 0 0 1 5.643-7.924 8.63 8.63 0 0 0 -3.021-.57 8.492 8.492 0 0 0 -8.494 8.38l-.171 49.823-.285 50.906-.057 9.862a8.351 8.351 0 0 0 8.38 8.38 7.9 7.9 0 0 0 2.85-.513 7.483 7.483 0 0 1 -3.705-2.738z" opacity=".08" transform="translate(-188.704 -78.251)"/><path d="m455.025 387.377a5.277 5.277 0 1 1 -4.047-6.271 5.272 5.272 0 0 1 4.047 6.271z" style="fill:#c4d4dd;stroke:#6e7f89;stroke-width:1.2;stroke-linecap:round;stroke-linejoin:round;stroke-miterlimit:10" transform="translate(-191.148 -163.803)"/><path d="m454.553 388.387a3.388 3.388 0 1 1 -2.565-4.047 3.438 3.438 0 0 1 2.565 4.047z" style="fill:#e6edf2;stroke:#6e7f89;stroke-width:1.2;stroke-linecap:round;stroke-linejoin:round;stroke-miterlimit:10" transform="translate(-192.557 -165.212)"/><path d="m259.947 106.365.114-44.065a22.033 22.033 0 0 0 -.114 44.065z" style="fill:#e6edf2;stroke:#6e7f89;stroke-width:1.2;stroke-linecap:round;stroke-linejoin:round;stroke-miterlimit:10" transform="translate(-102.327 -26.786)"/><path d="m194.193 60.466a3.733 3.733 0 0 1 -1.824 4.959l-25.369 11.858a3.733 3.733 0 0 1 -4.959-1.824 3.733 3.733 0 0 1 1.824-4.959l25.367-11.857a3.733 3.733 0 0 1 4.959 1.824z" style="fill:#98bac8;stroke:#6e7f89;stroke-width:1.2;stroke-linecap:round;stroke-linejoin:round;stroke-miterlimit:10" transform="translate(-69.522 -25.066)"/><path d="m240.113 71.976a3.769 3.769 0 0 1 -4.731 2.394l-26.622-8.779a3.77 3.77 0 0 1 -2.394-4.731 3.769 3.769 0 0 1 4.731-2.394l26.678 8.779a3.694 3.694 0 0 1 2.337 4.731z" style="fill:#98bac8;stroke:#6e7f89;stroke-width:1.2;stroke-linecap:round;stroke-linejoin:round;stroke-miterlimit:10" transform="translate(-88.65 -25.061)"/><path d="m213.419 63.438a1.988 1.988 0 0 0 -1.881-1.938 1.91 1.91 0 0 0 -.057 3.819 1.874 1.874 0 0 0 1.938-1.881z" style="fill:#fff;stroke:#6e7f89;stroke-width:1.2;stroke-linecap:round;stroke-linejoin:round;stroke-miterlimit:10" transform="translate(-90.117 -26.442)"/><path d="m0 0h44.065v16.988h-44.065z" style="fill:#c4d4dd;stroke:#6e7f89;stroke-width:1.2;stroke-linecap:round;stroke-linejoin:round;stroke-miterlimit:10" transform="matrix(.00218166 -.99999762 .99999762 .00218166 157.621999 79.559998)"/><path d="m260.118 112.455a21.937 21.937 0 0 1 -21.718-18.755 24.429 24.429 0 0 0 -.4 4.1 22.017 22.017 0 0 0 21.947 22.061l16.988.057v-7.411z" opacity=".08" transform="translate(-102.328 -40.286)"/><g stroke="#6e7f89"><path d="m194.135 126.572a3.759 3.759 0 0 0 -1.767-4.959l-25.368-11.972a3.759 3.759 0 0 0 -4.959 1.767 3.759 3.759 0 0 0 1.767 4.959l25.367 11.971a3.8 3.8 0 0 0 4.959-1.767z" fill="#98bac8" stroke-linecap="round" stroke-linejoin="round" stroke-miterlimit="10" stroke-width="1.2" transform="translate(-69.521 -46.992)"/><path d="m240.113 117.66a3.732 3.732 0 0 0 -4.674-2.394l-26.679 8.664a3.732 3.732 0 0 0 -2.394 4.674 3.732 3.732 0 0 0 4.674 2.396l26.678-8.665a3.732 3.732 0 0 0 2.394-4.674z" fill="#98bac8" stroke-linecap="round" stroke-linejoin="round" stroke-miterlimit="10" stroke-width="1.2" transform="translate(-88.65 -49.482)"/><path d="m212.962 135.481a1.881 1.881 0 1 0 -1.881 1.881 1.861 1.861 0 0 0 1.881-1.881z" fill="#fff" stroke-linecap="round" stroke-linejoin="round" stroke-miterlimit="10" stroke-width="1.2" transform="translate(-89.945 -57.441)"/><path d="m318.7 100.422-10.318-5.929a4.334 4.334 0 0 0 -1.881-.627c-.114 0-.285-.057-.4-.057l-11.974-.509a4.918 4.918 0 0 0 -5.127 4.728 4.861 4.861 0 0 0 1.311 3.534 4.972 4.972 0 0 0 3.42 1.6l10.831.513 9.292 5.3a4.9141028 4.9141028 0 1 0 4.845-8.551z" fill="#98bac8" stroke-linecap="round" stroke-linejoin="round" stroke-miterlimit="10" stroke-width="1.2" transform="translate(-124.251 -40.111)"/><path d="m298.43 100.478a2.169 2.169 0 1 0 -2.28 2.052 2.1 2.1 0 0 0 2.28-2.052z" fill="#e6edf2" stroke-linecap="round" stroke-linejoin="round" stroke-miterlimit="10" stroke-width="1.2" transform="translate(-126.445 -42.219)"/><path d="m337.43 111.978a2.169 2.169 0 1 0 -2.28 2.052 2.169 2.169 0 0 0 2.28-2.052z" fill="#e6edf2" stroke-linecap="round" stroke-linejoin="round" stroke-miterlimit="10" stroke-width="1.2" transform="translate(-143.213 -47.164)"/><circle cx="175.177" cy="228.41901" fill="#fff" r="1.539" stroke-linecap="round" stroke-linejoin="round" stroke-miterlimit="10" stroke-width="1.2"/><path d="m313.514 419.048-6.214-6.5v-8.948" fill="none" stroke-linecap="round" stroke-linejoin="round" stroke-miterlimit="10" stroke-width="1.2" transform="translate(-132.123 -173.527)"/><circle cx="175.177" cy="228.41901" fill="#e6edf2" r="1.539" stroke-linecap="round" stroke-linejoin="round" stroke-miterlimit="10" stroke-width="1.2"/><circle cx="181.276" cy="221.351" fill="#e6edf2" r="1.539" stroke-linecap="round" stroke-linejoin="round" stroke-miterlimit="10" stroke-width="1.2"/><path d="m313.514 419.048-6.214-6.5v-8.948" fill="none" stroke-linecap="round" stroke-linejoin="round" stroke-miterlimit="10" stroke-width="1.2" transform="translate(-132.123 -173.527)"/><circle cx="168.45" cy="232.239" fill="#d5f4f2" r="1.539" stroke-linecap="round" stroke-linejoin="round" stroke-miterlimit="10" stroke-width="1.2"/><path d="m308.212 432.746-12.712-13.396v-8.95" fill="none" stroke-linecap="round" stroke-linejoin="round" stroke-miterlimit="10" stroke-width="1.2" transform="translate(-127.05 -176.451)"/><path d="m181.39 235.831 6.841-6.841" fill="none" stroke-linecap="round" stroke-linejoin="round" stroke-miterlimit="10" stroke-width="1.2"/><circle cx="189.371" cy="227.79201" fill="#e6edf2" r="1.539" stroke-linecap="round" stroke-linejoin="round" stroke-miterlimit="10" stroke-width="1.2"/><path d="m181.333 250.994 6.898-6.841" fill="none" stroke-linecap="round" stroke-linejoin="round" stroke-miterlimit="10" stroke-width="1.2"/><circle cx="189.371" cy="243.013" fill="#e6edf2" r="1.539" stroke-linecap="round" stroke-linejoin="round" stroke-miterlimit="10" stroke-width="1.2"/><path d="m458.243 430.473h-62.535a2.53 2.53 0 0 1 -2.508-2.508v-.057a2.53 2.53 0 0 1 2.508-2.508h62.535a2.531 2.531 0 0 1 2.508 2.508v.057a2.569 2.569 0 0 1 -2.508 2.508z" fill="#98bac8" stroke-linecap="round" stroke-linejoin="round" stroke-miterlimit="10" stroke-width="1.2" transform="translate(-169.056 -182.9)"/><path d="m428.229 447.1h-16.929a.779.779 0 0 1 -.8-.8v-4.9a.779.779 0 0 1  .8-.8h16.931a.779.779 0 0 1  .8.8v4.9a.815.815 0 0 1 -.802.8z" fill="#d5f4f2" stroke-linecap="round" stroke-linejoin="round" stroke-miterlimit="10" stroke-width="1.2" transform="translate(-176.494 -189.435)"/><circle cx="263.991" cy="254.129" fill="#c4d4dd" r="1.938" stroke-linecap="round" stroke-linejoin="round" stroke-miterlimit="10" stroke-width="1.2"/><circle cx="269.74799" cy="254.129" fill="#c4d4dd" r="1.938" stroke-linecap="round" stroke-linejoin="round" stroke-miterlimit="10" stroke-width="1.2"/><circle cx="275.50601" cy="254.129" fill="#c4d4dd" r="1.938" stroke-linecap="round" stroke-linejoin="round" stroke-miterlimit="10" stroke-width="1.2"/><path d="m234.063 254.414h15.448" fill="#fff" stroke-linecap="round" stroke-linejoin="round" stroke-miterlimit="10" stroke-width="1.2"/></g><path d="m161.757 255.114v-45.091a1.1 1.1 0 0 1 1.71-.969l42.811 28.674a2.937 2.937 0 0 1 1.311 2.508v53.642h-45.889z" opacity=".08" transform="translate(-69.523 -89.799)"/><path d="m149.757 254.214v-45.091a1.1 1.1 0 0 1 1.71-.969l42.811 28.674a2.937 2.937 0 0 1 1.311 2.508v53.585h-45.889z" style="fill:#e6edf2;stroke:#6e7f89;stroke-width:1.2;stroke-linecap:round;stroke-linejoin:round;stroke-miterlimit:10" transform="translate(-64.363 -89.412)"/><path d="m161.2 302.4v-71.716a.659.659 0 0 1  .684-.684h1.824a.659.659 0 0 1  .684.684v71.716z" style="fill:#91cace;stroke:#6e7f89;stroke-width:1.2;stroke-linecap:round;stroke-linejoin:round;stroke-miterlimit:10" transform="translate(-69.308 -98.888)"/><path d="m180.949 307.126v-65.326a.815.815 0 0 0 -.8-.8h-1.649a.815.815 0 0 0 -.8.8v65.328z" style="fill:#91cace;stroke:#6e7f89;stroke-width:1.2;stroke-linecap:round;stroke-linejoin:round;stroke-miterlimit:10" transform="translate(-76.402 -103.618)"/><path d="m197.492 311.9v-59.173a.633.633 0 0 0 -.627-.627h-1.938a.633.633 0 0 0 -.627.627v59.173z" style="fill:#91cace;stroke:#6e7f89;stroke-width:1.2;stroke-linecap:round;stroke-linejoin:round;stroke-miterlimit:10" transform="translate(-83.539 -108.39)"/><path d="m211.2 316.671v-52.844a.633.633 0 0 1  .627-.627h1.881a.633.633 0 0 1  .627.627v52.844" style="fill:#91cace;stroke:#6e7f89;stroke-width:1.2;stroke-linecap:round;stroke-linejoin:round;stroke-miterlimit:10" transform="translate(-90.805 -113.162)"/><path d="m51.7 411h47.086v33.4h-33.006a85.453 85.453 0 0 1 -14.08-33.4z" style="fill:#e6edf2;stroke:#6e7f89;stroke-width:1.2;stroke-linecap:round;stroke-linejoin:round;stroke-miterlimit:10" transform="translate(-22.228 -176.709)"/><path d="m30.612 239.365h37.794" style="fill:#fff;stroke:#6e7f89;stroke-width:1.2;stroke-linecap:round;stroke-linejoin:round;stroke-miterlimit:10"/><path d="m31.923 244.04h36.483" style="fill:#fff;stroke:#6e7f89;stroke-width:1.2;stroke-linecap:round;stroke-linejoin:round;stroke-miterlimit:10"/><path d="m33.519 248.771h34.887" style="fill:#fff;stroke:#6e7f89;stroke-width:1.2;stroke-linecap:round;stroke-linejoin:round;stroke-miterlimit:10"/><path d="m35.514 253.445h32.892" style="fill:#fff;stroke:#6e7f89;stroke-width:1.2;stroke-linecap:round;stroke-linejoin:round;stroke-miterlimit:10"/><path d="m37.852 258.291 30.555-.171" style="fill:#fff;stroke:#6e7f89;stroke-width:1.2;stroke-linecap:round;stroke-linejoin:round;stroke-miterlimit:10"/><path d="m40.417 262.851h27.99" style="fill:#fff;stroke:#6e7f89;stroke-width:1.2;stroke-linecap:round;stroke-linejoin:round;stroke-miterlimit:10"/><circle cx="68.577003" cy="239.36501" r="1.083" style="fill:#80b5bc;stroke:#6e7f89;stroke-width:1.2;stroke-linecap:round;stroke-linejoin:round;stroke-miterlimit:10"/><circle cx="68.577003" cy="244.039" r="1.083" style="fill:#80b5bc;stroke:#6e7f89;stroke-width:1.2;stroke-linecap:round;stroke-linejoin:round;stroke-miterlimit:10"/><circle cx="68.235001" cy="248.88499" r="1.083" style="fill:#80b5bc;stroke:#6e7f89;stroke-width:1.2;stroke-linecap:round;stroke-linejoin:round;stroke-miterlimit:10"/><circle cx="68.235001" cy="253.274" r="1.083" style="fill:#80b5bc;stroke:#6e7f89;stroke-width:1.2;stroke-linecap:round;stroke-linejoin:round;stroke-miterlimit:10"/><circle cx="68.235001" cy="258.12" r="1.083" style="fill:#80b5bc;stroke:#6e7f89;stroke-width:1.2;stroke-linecap:round;stroke-linejoin:round;stroke-miterlimit:10"/><circle cx="68.121002" cy="262.965" r="1.083" style="fill:#80b5bc;stroke:#6e7f89;stroke-width:1.2;stroke-linecap:round;stroke-linejoin:round;stroke-miterlimit:10"/><path d="m154.769 259.658h4.617v5.13h-4.617z" style="fill:#d5f4f2;stroke:#6e7f89;stroke-width:1.2;stroke-linecap:round;stroke-linejoin:round;stroke-miterlimit:10"/><g stroke="#6e7f89" stroke-linecap="round" stroke-linejoin="round" stroke-miterlimit="10" stroke-width="1.2" transform="translate(64.302 164.802)"><path d="m0 0h42.127v38.706h-42.127z" fill="#e6edf2"/><g fill="#c1d6db"><path d="m124.093 305.054h-2.393a.39.39 0 0 1 -.4-.4v-6.554a.39.39 0 0 1  .4-.4h2.394a.39.39 0 0 1  .4.4v6.613a.489.489 0 0 1 -.401.341z" transform="translate(-116.455 -292.798)"/><path d="m137.093 305.054h-2.393a.39.39 0 0 1 -.4-.4v-6.554a.39.39 0 0 1  .4-.4h2.394a.39.39 0 0 1  .4.4v6.613a.381.381 0 0 1 -.401.341z" transform="translate(-122.044 -292.798)"/><path d="m162.393 305.054h-2.393a.39.39 0 0 1 -.4-.4v-6.554a.39.39 0 0 1  .4-.4h2.394a.39.39 0 0 1  .4.4v6.613a.381.381 0 0 1 -.401.341z" transform="translate(-132.922 -292.798)"/><path d="m174.993 305.054h-2.393a.39.39 0 0 1 -.4-.4v-6.554a.39.39 0 0 1  .4-.4h2.394a.39.39 0 0 1  .4.4v6.613a.489.489 0 0 1 -.401.341z" transform="translate(-138.339 -292.798)"/><path d="m149.693 305.054h-2.393a.39.39 0 0 1 -.4-.4v-6.554a.39.39 0 0 1  .4-.4h2.394a.39.39 0 0 1  .4.4v6.613a.381.381 0 0 1 -.401.341z" transform="translate(-127.461 -292.798)"/></g><circle cx="6.042" cy="17.785999" fill="#80b5bc" r="1.197"/><circle cx="6.042" cy="23.257999" fill="#80b5bc" r="1.197"/><circle cx="6.099" cy="28.73" fill="#80b5bc" r="1.197"/><g fill="#c1d6db"><path d="m137.093 325.354h-2.393a.39.39 0 0 1 -.4-.4v-6.554a.39.39 0 0 1  .4-.4h2.394a.39.39 0 0 1  .4.4v6.556a.39.39 0 0 1 -.401.398z" transform="translate(-122.044 -301.525)"/><path d="m162.393 325.354h-2.393a.39.39 0 0 1 -.4-.4v-6.554a.39.39 0 0 1  .4-.4h2.394a.39.39 0 0 1  .4.4v6.556a.39.39 0 0 1 -.401.398z" transform="translate(-132.922 -301.525)"/><path d="m174.993 325.354h-2.393a.39.39 0 0 1 -.4-.4v-6.554a.39.39 0 0 1  .4-.4h2.394a.39.39 0 0 1  .4.4v6.556a.48.48 0 0 1 -.401.398z" transform="translate(-138.339 -301.525)"/><path d="m149.693 325.354h-2.393a.39.39 0 0 1 -.4-.4v-6.554a.39.39 0 0 1  .4-.4h2.394a.39.39 0 0 1  .4.4v6.556a.39.39 0 0 1 -.401.398z" transform="translate(-127.461 -301.525)"/><path d="m137.093 345.6h-2.393a.39.39 0 0 1 -.4-.4v-6.5a.39.39 0 0 1  .4-.4h2.394a.39.39 0 0 1  .4.4v6.556a.381.381 0 0 1 -.401.344z" transform="translate(-122.044 -310.253)"/><path d="m162.393 345.6h-2.393a.39.39 0 0 1 -.4-.4v-6.5a.39.39 0 0 1  .4-.4h2.394a.39.39 0 0 1  .4.4v6.556a.381.381 0 0 1 -.401.344z" transform="translate(-132.922 -310.253)"/><path d="m174.993 345.6h-2.393a.39.39 0 0 1 -.4-.4v-6.5a.39.39 0 0 1  .4-.4h2.394a.39.39 0 0 1  .4.4v6.556a.489.489 0 0 1 -.401.344z" transform="translate(-138.339 -310.253)"/><path d="m149.693 345.6h-2.393a.39.39 0 0 1 -.4-.4v-6.5a.39.39 0 0 1  .4-.4h2.394a.39.39 0 0 1  .4.4v6.556a.381.381 0 0 1 -.401.344z" transform="translate(-127.461 -310.253)"/></g><circle cx="6.099" cy="33.917999" fill="#80b5bc" r="1.197"/></g><path d="m78.9 97.4a1.674 1.674 0 0 0 -1.026-1.539 20.262 20.262 0 0 1 5.3-39.049 24.224 24.224 0 0 0 -4.56-.228 20.309 20.309 0 0 0 -5.758 39.163 1.617 1.617 0 0 1 1.026 1.539v3.99h5.018z" opacity=".08" transform="translate(-25.766 -24.32)"/><path d="m36.255 107.398h4.788v95.997h-4.788z" opacity=".08"/><path d="m455.2 191.487a5.473 5.473 0 1 1 -7.24-2.736 5.538 5.538 0 0 1 7.24 2.736z" style="fill:#c4d4dd;stroke:#6e7f89;stroke-width:1.2;stroke-linecap:round;stroke-linejoin:round;stroke-miterlimit:10" transform="translate(-191.211 -80.954)"/><path d="m454.872 194.356a3.01 3.01 0 1 1 -3.99-1.482 2.937 2.937 0 0 1 3.99 1.482z" style="fill:#e6edf2;stroke:#6e7f89;stroke-width:1.2;stroke-linecap:round;stroke-linejoin:round;stroke-miterlimit:10" transform="translate(-193.104 -82.797)"/><path d="m229.959 247.915h57.632v5.929h-57.632z" opacity=".08"/><path d="m239.65 235.659h36.54v2.736h-36.54z" opacity=".08"/><g clip-path="url(#a)" transform="translate(27.99 213.313)"><path d="m485.737 488.3h-272.313a7.943 7.943 0 0 0 -7.924 7.924 7.943 7.943 0 0 0 7.924 7.924h272.313z" opacity=".08" transform="translate(-116.344 -423.257)"/></g><path d="m301.96951 272.77h-179.59846c-2.89199 0-5.22505 3.534-5.22505 7.924 0 4.332 2.33225 7.924 5.22505 7.924h179.59927z" style="fill:#98bac8;stroke:#6e7f89;stroke-width:1.08554;stroke-linecap:round;stroke-linejoin:round;stroke-miterlimit:10"/><path d="m193.418 97.251v6.499" style="fill:none;stroke:#6e7f89;stroke-width:1.2;stroke-linecap:round;stroke-linejoin:round;stroke-miterlimit:10"/><path d="m190.169 100.5h6.556" style="fill:none;stroke:#6e7f89;stroke-width:1.2;stroke-linecap:round;stroke-linejoin:round;stroke-miterlimit:10"/><path d="m19.211 76.387v12.484" style="fill:none;stroke:#6e7f89;stroke-width:1.2;stroke-linecap:round;stroke-linejoin:round;stroke-miterlimit:10"/><path d="m12.997 82.601h12.484" style="fill:none;stroke:#6e7f89;stroke-width:1.2;stroke-linecap:round;stroke-linejoin:round;stroke-miterlimit:10"/><path d="m211.033 214.738v6.499" style="fill:none;stroke:#6e7f89;stroke-width:1.2;stroke-linecap:round;stroke-linejoin:round;stroke-miterlimit:10"/><path d="m207.784 217.987h6.499" style="fill:none;stroke:#6e7f89;stroke-width:1.2;stroke-linecap:round;stroke-linejoin:round;stroke-miterlimit:10"/><circle cx="179.79401" cy="24.113001" r="2.565" style="fill:#fff;stroke:#6e7f89;stroke-width:1.2;stroke-linecap:round;stroke-linejoin:round;stroke-miterlimit:10"/><circle cx="12.598" cy="195.52699" r="2.565" style="fill:#ff7c6e;stroke:#6e7f89;stroke-width:1.2;stroke-linecap:round;stroke-linejoin:round;stroke-miterlimit:10"/><circle cx="36.710999" cy="153.172" r="4.731" style="fill:#fff;stroke:#6e7f89;stroke-width:1.2;stroke-linecap:round;stroke-linejoin:round;stroke-miterlimit:10"/><circle cx="198.66299" cy="148.498" r="1.596" style="fill:#fff;stroke:#6e7f89;stroke-width:1.2;stroke-linecap:round;stroke-linejoin:round;stroke-miterlimit:10"/><circle cx="16.702" cy="116.119" r="1.596" style="fill:#fff;stroke:#6e7f89;stroke-width:1.2;stroke-linecap:round;stroke-linejoin:round;stroke-miterlimit:10"/><circle cx="12.712" cy="33.804001" r="1.596" style="fill:#fff;stroke:#6e7f89;stroke-width:1.2;stroke-linecap:round;stroke-linejoin:round;stroke-miterlimit:10"/><circle cx="96.223999" cy="88.642998" r="2.964" style="fill:#f1f2f2;stroke:#6e7f89;stroke-width:1.2;stroke-linecap:round;stroke-linejoin:round;stroke-miterlimit:10"/><circle cx="176.716" cy="192.73399" r="2.964" style="fill:#f1f2f2;stroke:#6e7f89;stroke-width:1.2;stroke-linecap:round;stroke-linejoin:round;stroke-miterlimit:10"/><path d="m54.782 12.028v-5.358" style="fill:none;stroke:#6e7f89;stroke-width:1.2;stroke-linecap:round;stroke-linejoin:round;stroke-miterlimit:10"/><path d="m205.105 176.431h9.178" style="fill:none;stroke:#6e7f89;stroke-width:1.2;stroke-linecap:round;stroke-linejoin:round;stroke-miterlimit:10"/><path d="m27.99 213.313h171.585v6.499h-171.585z" opacity=".08"/><path d="m103.5 327.477h5.3v-38.877h-3.078a2.19 2.19 0 0 0 -2.223 2.223z" opacity=".08" transform="translate(-44.5 -124.083)"/></g></svg>