<svg viewBox="0 0 507 175" version="1" xmlns="http://www.w3.org/2000/svg"><g transform="translate(0 1)" fill="none" fill-rule="evenodd"><circle fill="#D5F4F2" cx="17" cy="40" r="17"/><circle fill="#D5F4F2" cx="212" cy="53" r="8"/><circle fill="#D5F4F2" cx="152" cy="158" r="8"/><circle fill="#D5F4F2" cx="20" cy="77" r="6"/><circle fill="#D5F4F2" cx="75" cy="54" r="19"/><circle fill="#D5F4F2" cx="72" cy="133" r="14"/><circle fill="#D5F4F2" cx="63" cy="93" r="29"/><path d="M80 144a29 29 0 1 0 58 0v-1a25 25 0 0 0 31-24v-2a18 18 0 0 0 27-10l4 1c4 0 8-4 8-9h27V75h-27a9 9 0 0 0-12-8 18 18 0 0 0-27-11v-1a25 25 0 0 0-31-24v-1a29 29 0 0 0-58 0" fill="#D5F4F2"/><path d="M505 86h1l-10 9-2 1-2 2-2 1-2 1-2 2-2 1-1 1-1 1a228 228 0 0 1 0-38l1 1 1 1 2 1 6 4 1 1 1 1 2 1 1 2h1l6 5v1l1 1z" fill="#C4D4DD"/><path d="M484 103l2-1-2 1zM483 104l-1 1 1-1zM426 49c22 0 41 9 55 18a227 227 0 0 0 0 38c-14 9-33 18-55 18V49z" fill="#98BAC8"/><path d="M426 49v74h-98V49h98zm-21 37a20 20 0 1 0-40 0 20 20 0 0 0 40 0z" fill="#FF7C6E" fill-rule="nonzero"/><path d="M385 66a20 20 0 1 1 0 40 20 20 0 0 1 0-40zm13 20a13 13 0 1 0-25 0 13 13 0 0 0 25 0z" fill="#80B5BC" fill-rule="nonzero"/><circle fill="#D5F4F2" cx="385" cy="86" r="13"/><path d="M336 49h-89V9s59 0 89 40zM328 123h8c-30 39-87 39-89 40v-40h81zM328 49v74h-31V49z" fill="#98BAC8"/><path fill="#C4D4DD" d="M297 88v35h-50V88zM297 49v39h-50V49z"/><path d="M247 88v29l-3-2c-2 0-2-1-2-2V59c0-1 0-2 2-2l3-2v33z" fill="#80B5BC"/><path d="M190 79a5 5 0 0 1 0 9h-22a5 5 0 0 1 0-9h22z" fill="#E6EDF2"/><path d="M148 119a4 4 0 1 1 0 8 4 4 0 0 1 0-8z" fill="#FFF"/><path d="M144 12a5 5 0 1 1 0 9h-7l-5-9h12z" fill="#E6EDF2"/><path d="M142 55a4 4 0 1 1 0 8 4 4 0 0 1 0-8z" fill="#98BAC8"/><path d="M137 21h-18c-2 0-4-2-4-5 0-2 2-4 4-4h13l5 9z" fill="#E6EDF2"/><path fill="#98BAC8" d="M109 127l8 12h-16z"/><path d="M115 71a2 2 0 0 1 0 4l-9 8a2 2 0 0 1-3-1 2 2 0 0 1 0-3l7-6-7-6a2 2 0 1 1 3-4l9 8z" fill="#C4D4DD"/><path d="M99 61l-1 2-10 23h-3l-1-2v-1l10-23 3-1 2 2z" fill="#98BAC8"/><path fill="#E6EDF2" d="M80 104l6 10-6 10H69l-6-10 6-10z"/><path d="M80 30a6 6 0 1 1 0 13 6 6 0 0 1 0-13z" fill="#FFF"/><path d="M80 79a2 2 0 0 1-2 4h-2l-9-8a2 2 0 0 1 0-4l9-8a2 2 0 0 1 3 4l-6 6 7 6z" fill="#C4D4DD"/><path d="M336 49h90M426 123h-90M504 84v1M497 79h1M494 76l2 1M492 74l1 1M484 69l2 1M483 104l-1 1c-15 9-34 18-56 18V49a107 107 0 0 1 57 19M486 102l-2 1M490 99l-2 1M496 95l-2 1-2 2M385 66a20 20 0 1 0 0 40 20 20 0 0 0 0-40z" stroke="#6E7F89" stroke-width="2" stroke-linecap="round" stroke-linejoin="round"/><circle stroke="#6E7F89" stroke-width="2" stroke-linecap="round" stroke-linejoin="round" cx="385" cy="86" r="13"/><path d="M482 105a228 228 0 0 1 0-38l1 1 1 1 2 1 6 4 1 1 1 1 2 1 1 2h1l6 5v1l1 1h1l-10 9-2 1-2 2-2 1-2 1-2 2-2 1-1 1-1 1zM297 123V49M247 117l-3-2c-2 0-2-1-2-2V59c0-1 0-2 2-2l3-2v62zM336 123h-89v40c2-1 59-1 89-40zM328 49h8C306 9 247 9 247 9v40M235 75h-27M132 12a29 29 0 0 0-52 18M208 75a9 9 0 0 0-12-8 18 18 0 0 0-27-11v-1a25 25 0 0 0-31-24v-1l-1-9M235 99h-27M208 99a9 9 0 0 1-12 8 18 18 0 0 1-27 10v2a25 25 0 0 1-31 24v1a29 29 0 0 1-58 0" stroke="#6E7F89" stroke-width="2" stroke-linecap="round" stroke-linejoin="round"/><path d="M152 123a4 4 0 1 1-8 0 4 4 0 0 1 8 0zM146 59a4 4 0 1 1-8 0 4 4 0 0 1 8 0zM87 37a6 6 0 1 1-13 0 6 6 0 0 1 13 0zM190 88h-22a5 5 0 0 1 0-9h22a5 5 0 0 1 0 9z" stroke="#6E7F89" stroke-width="2" stroke-linejoin="round"/><path d="M98 63L88 86h-3l-1-2v-1l10-23 3-1 2 2-1 2zM78 83h-2l-9-8a2 2 0 0 1 0-4l9-8a2 2 0 0 1 3 4l-6 6 7 6a2 2 0 0 1-2 4zM105 83h1l9-8 1-2-1-2-9-8a2 2 0 0 0-3 4l7 6-7 6a2 2 0 0 0 2 4z" stroke="#6E7F89" stroke-width="2" stroke-linecap="round" stroke-linejoin="round"/><path stroke="#6E7F89" stroke-width="2" stroke-linejoin="round" d="M109 127l-8 12h16z"/><path stroke="#6E7F89" stroke-width="2" stroke-linecap="round" stroke-linejoin="round" d="M141 83v9M136 88h9M59 143v9M54 148h9M179 33v9M174 37h9"/><path d="M132 12h12a5 5 0 1 1 0 9h-25c-2 0-4-2-4-5 0-2 2-4 4-4h13zM80 104H69l-6 10 6 10h11l6-10z" stroke="#6E7F89" stroke-width="2" stroke-linejoin="round"/><path d="M297 88h-50" stroke="#6E7F89" stroke-width="2" stroke-linecap="round" stroke-linejoin="round"/><path fill="#FFF" d="M113 99h8v8h-8z"/><path stroke="#6E7F89" stroke-width="2" stroke-linecap="round" stroke-linejoin="round" d="M113 99h8v8h-8z"/><path fill="#E6EDF2" d="M25 47h14v14H25z"/><path stroke="#6E7F89" stroke-width="2" stroke-linecap="round" stroke-linejoin="round" d="M25 47h14v14H25z"/><path d="M24 101a5 5 0 1 1 0 9 5 5 0 0 1 0-9z" fill="#98BAC8"/><path d="M29 106a5 5 0 1 1-9 0 5 5 0 0 1 9 0z" stroke="#6E7F89" stroke-width="2" stroke-linecap="round" stroke-linejoin="round"/><path d="M47 101v1l-11 23-3 1a2 2 0 0 1-1-3l11-23c0-1 2-2 3-1l1 2z" fill="#C4D4DD"/><path d="M47 102l-11 23-3 1a2 2 0 0 1-1-3l11-23c0-1 2-2 3-1l1 2v1z" stroke="#6E7F89" stroke-width="2" stroke-linecap="round" stroke-linejoin="round"/><path d="M247 43v85" stroke="#6E7F89" stroke-width="2" fill="#E6EDF2" stroke-linejoin="round"/><path d="M237 64h5v43h-5c-3 0-4-2-4-4V68c0-2 1-4 4-4z" stroke="#6E7F89" stroke-width="2" fill="#C4D4DD" stroke-linejoin="round"/><path d="M247 49h95M328 123V49" stroke="#6E7F89" stroke-width="2" stroke-linecap="round" stroke-linejoin="round"/><path d="M256 49v74M266 49v74M276 49v74M286 50v74" stroke="#6E7F89" stroke-width="2" stroke-linejoin="round"/></g></svg>