<svg xmlns="http://www.w3.org/2000/svg" viewBox="0 0 834 556"><defs><style>.cls-1,.cls-8{fill:none}.cls-3{fill:#f4f5f8}.cls-3,.cls-4,.cls-5,.cls-6,.cls-8{stroke:#6e7f89;stroke-linecap:round;stroke-linejoin:round;stroke-width:1.5px}.cls-17,.cls-4{fill:#fff}.cls-22,.cls-5{fill:#c4d4dd}.cls-6{fill:#f4d4d0}.cls-7{fill:#6e7f89}.cls-9{font-size:7px;font-family:Montserrat-Medium,Montserrat;font-weight:500;fill:#ff7c6e;letter-spacing:.04em}.cls-10{letter-spacing:.01em}.cls-13{letter-spacing:.03em}.cls-15{fill:#3d5a97}.cls-20{opacity:.07;mix-blend-mode:multiply}.cls-21{fill:#80b5bc}.cls-23{fill:#e6edf2}.cls-24{fill:#d4f4f2}.cls-25{fill:#fdae76}.cls-27{opacity:.08}</style><clipPath id="clip-path"><rect class="cls-1" x="117" y="103" width="21" height="21" rx="2"/></clipPath><clipPath id="clip-path-2"><rect class="cls-1" x="117" y="191" width="21" height="21" rx="2"/></clipPath><clipPath id="clip-path-3"><rect class="cls-1" x="117" y="279" width="21" height="21" rx="2"/></clipPath><clipPath id="clip-path-4"><rect class="cls-1" x="119" y="415" width="21" height="21" rx="2" transform="translate(-19 6)"/></clipPath></defs><g style="isolation:isolate"><g id="Layer_1" data-name="Layer 1"><rect class="cls-3" x="86" y="55" width="503" height="399" rx="11"/><path class="cls-4" d="M103 91h469v82H103z"/><path class="cls-5" d="M151 108h404v14H151z"/><rect class="cls-6" x="465" y="136" width="88" height="22" rx="4"/><path class="cls-7" d="M232 155a1 1 0 0 0 1-1 9 9 0 0 0 0-2 5 5 0 0 0-4-4 7 7 0 0 0-2 0 5 5 0 0 0-2 1 5 5 0 0 0-3 4v1a1 1 0 0 0 1 1zM234 153a7 7 0 0 0 0-2 6 6 0 0 0-1-2 4 4 0 0 1 3-1 5 5 0 0 1 2 0 4 4 0 0 1 3 4 6 6 0 0 1 0 1 1 1 0 0 1-1 0zM230 144a3 3 0 1 1-3-4 3 3 0 0 1 3 4zM236 142a2 2 0 1 1-2 2 2 2 0 0 1 2-2z"/><rect class="cls-7" x="317" y="141" width="4" height="15" rx="1" transform="rotate(-180 319 148)"/><rect class="cls-7" x="312" y="143" width="4" height="12" rx="1" transform="rotate(-180 314 149)"/><rect class="cls-7" x="307" y="147" width="4" height="8" rx="1" transform="rotate(-180 309 151)"/><path class="cls-7" d="M399 148a8 8 0 1 1-8-8 8 8 0 0 1 8 8zm-1 0a7 7 0 1 0-7 7 7 7 0 0 0 7-7z"/><path class="cls-7" d="M390 149l4-4a1 1 0 0 1 1 0 1 1 0 0 1 0 1l-4 4a1 1 0 0 1-1 0l-3-2a1 1 0 0 1 0-1 1 1 0 0 1 1 0l2 2z"/><path class="cls-3" d="M248 145h43v8h-43zM172 145h43v8h-43zM329 146h43v8h-43zM406 145h43v8h-43z"/><circle class="cls-3" cx="154" cy="144" r="2"/><circle class="cls-3" cx="154" cy="152" r="2"/><path class="cls-3" d="M154 146v4"/><circle class="cls-3" cx="163" cy="152" r="2"/><path class="cls-8" d="M163 150v-4a3 3 0 0 0-2-3h-2"/><path class="cls-8" d="M161 141l-3 2 3 2"/><text class="cls-9" transform="translate(478 148)">CL<tspan class="cls-10" x="9" y="0">O</tspan><tspan x="15" y="0">JURE SCRIPT</tspan></text><path class="cls-4" d="M103 179h469v82H103z"/><path class="cls-5" d="M151 196h404v14H151z"/><rect class="cls-6" x="498" y="224" width="56" height="22" rx="3"/><path class="cls-7" d="M232 243a1 1 0 0 0 1-1 9 9 0 0 0 0-2 5 5 0 0 0-4-4 7 7 0 0 0-2 0 5 5 0 0 0-2 1 5 5 0 0 0-3 4v1a1 1 0 0 0 1 1zM234 241a7 7 0 0 0 0-2 6 6 0 0 0-1-2 4 4 0 0 1 3-1 5 5 0 0 1 2 0 4 4 0 0 1 3 4 5 5 0 0 1 0 1 1 1 0 0 1-1 0zM230 232a3 3 0 1 1-3-4 3 3 0 0 1 3 4zM236 230a2 2 0 1 1-2 2 2 2 0 0 1 2-2z"/><rect class="cls-7" x="317" y="229" width="4" height="15" rx="1" transform="rotate(-180 319 236)"/><rect class="cls-7" x="312" y="231" width="4" height="12" rx="1" transform="rotate(-180 314 237)"/><rect class="cls-7" x="307" y="235" width="4" height="8" rx="1" transform="rotate(-180 309 239)"/><path class="cls-7" d="M399 236a8 8 0 1 1-8-8 8 8 0 0 1 8 8zm-1 0a7 7 0 1 0-7 7 7 7 0 0 0 7-7z"/><path class="cls-7" d="M390 237l4-4a1 1 0 0 1 1 0 1 1 0 0 1 0 1l-4 4a1 1 0 0 1-1 0l-3-2a1 1 0 0 1 0-1 1 1 0 0 1 1 0l2 2z"/><path class="cls-3" d="M248 233h43v8h-43zM172 233h43v8h-43zM329 234h43v8h-43zM406 233h43v8h-43z"/><circle class="cls-3" cx="154" cy="232" r="2"/><circle class="cls-3" cx="154" cy="241" r="2"/><path class="cls-3" d="M154 234v4"/><circle class="cls-3" cx="163" cy="241" r="2"/><path class="cls-8" d="M163 238v-4a3 3 0 0 0-2-3h-2"/><path class="cls-8" d="M161 229l-3 2 3 2"/><text class="cls-9" transform="translate(508 236)">H<tspan x="6" y="0" letter-spacing="0em">A</tspan><tspan x="11" y="0">SKELL</tspan></text><path class="cls-4" d="M103 267h469v82H103z"/><path class="cls-5" d="M151 284h404v14H151z"/><rect class="cls-6" x="501" y="312" width="52" height="22" rx="3"/><path class="cls-7" d="M232 331a1 1 0 0 0 1-1 9 9 0 0 0 0-2 5 5 0 0 0-4-4 7 7 0 0 0-2 0 5 5 0 0 0-2 1 5 5 0 0 0-3 4v1a1 1 0 0 0 1 1zM234 329a7 7 0 0 0 0-2 6 6 0 0 0-1-2 4 4 0 0 1 3-1 5 5 0 0 1 2 0 4 4 0 0 1 3 4 5 5 0 0 1 0 1 1 1 0 0 1-1 0zM230 320a3 3 0 1 1-3-4 3 3 0 0 1 3 4zM236 318a2 2 0 1 1-2 2 2 2 0 0 1 2-2z"/><rect class="cls-7" x="317" y="317" width="4" height="15" rx="1" transform="rotate(-180 319 324)"/><rect class="cls-7" x="312" y="319" width="4" height="12" rx="1" transform="rotate(-180 314 325)"/><rect class="cls-7" x="307" y="323" width="4" height="8" rx="1" transform="rotate(-180 309 327)"/><path class="cls-7" d="M399 324a8 8 0 1 1-8-8 8 8 0 0 1 8 8zm-1 0a7 7 0 1 0-7 7 7 7 0 0 0 7-7z"/><path class="cls-7" d="M390 325l4-4a1 1 0 0 1 1 0 1 1 0 0 1 0 1l-4 4a1 1 0 0 1-1 0l-3-2a1 1 0 0 1 0-1 1 1 0 0 1 1 0l2 2z"/><path class="cls-3" d="M248 321h43v8h-43zM172 321h43v8h-43zM329 322h43v8h-43zM406 321h43v8h-43z"/><circle class="cls-3" cx="154" cy="320" r="2"/><circle class="cls-3" cx="154" cy="329" r="2"/><path class="cls-3" d="M154 322v4"/><circle class="cls-3" cx="163" cy="329" r="2"/><path class="cls-8" d="M163 326v-4a3 3 0 0 0-2-3h-2"/><path class="cls-8" d="M161 317l-3 2 3 2"/><text class="cls-9" transform="translate(509 324)">CL<tspan class="cls-10" x="9" y="0">O</tspan><tspan x="15" y="0">JURE</tspan></text><text transform="translate(104 78)" font-size="9" fill="#fe7c6f" font-family="Montserrat-Bold,Montserrat" font-weight="700" letter-spacing="0em">Facebook Open source issues</text><rect class="cls-15" x="117" y="103" width="21" height="21" rx="2"/><g clip-path="url(#clip-path)"><path class="cls-17" d="M127 118h-2v-3-1h2v-2a4 4 0 0 1 1-2 4 4 0 0 1 2-2 7 7 0 0 1 1 0h2l1 1v2h-1-1a3 3 0 0 0-1 0 1 1 0 0 0 0 1v2h2l1 1v2l-1 1h-2v7h-4v-7z"/></g><rect class="cls-15" x="117" y="191" width="21" height="21" rx="2"/><g clip-path="url(#clip-path-2)"><path class="cls-17" d="M127 206h-2v-3-1h2v-2a4 4 0 0 1 1-2 4 4 0 0 1 2-2 7 7 0 0 1 1 0h2l1 1v2h-2a3 3 0 0 0-1 1v2h2l1 1v2l-1 1h-2v7h-4v-7z"/></g><rect class="cls-15" x="117" y="279" width="21" height="21" rx="2"/><g clip-path="url(#clip-path-3)"><path class="cls-17" d="M127 294h-2v-3-1h2v-2a4 4 0 0 1 1-2 4 4 0 0 1 2-2 7 7 0 0 1 1 0h2l1 1v2h-2a4 4 0 0 0-1 1v2h2l1 1v2l-1 1h-2v7h-4v-7z"/></g><path class="cls-20" d="M151 122h404v8H151zM151 210h404v8H151zM150 298h404v8H150z"/><path class="cls-21" d="M747 489a15 15 0 0 1-5 11 4 4 0 0 1-5-6 7 7 0 0 0-4-12 7 7 0 0 0-4 12 4 4 0 0 1-2 8 4 4 0 0 1-2-1 15 15 0 0 1 4-26 15 15 0 0 1 8 0 15 15 0 0 1 10 14z"/><path class="cls-22" d="M737 475a15 15 0 0 0-8 0 27 27 0 0 0-23-25v-8a35 35 0 0 1 31 33zM709 390v7a14 14 0 0 1-14 14h-69a14 14 0 0 1-14-14v-7h2a11 11 0 0 0 12-11v-10a11 11 0 0 0-12-12h-2v-10a14 14 0 0 1 14-14h69a14 14 0 0 1 14 14v10h-3a11 11 0 0 0-11 12v10a11 11 0 0 0 11 11zm-19-13a3 3 0 1 0-4 4 3 3 0 0 0 4-4zm-18 4h-22a11 11 0 0 0 11 11 11 11 0 0 0 3 0 11 11 0 0 0 8-11zm-34-4a3 3 0 1 0-4 4 3 3 0 0 0 4-4z"/><path class="cls-21" d="M709 357v33h-3a11 11 0 0 1-11-11v-10a11 11 0 0 1 11-12z"/><path class="cls-23" d="M706 463v4a5 5 0 0 1-4 5h-83a5 5 0 0 1-5-5v-29a5 5 0 0 1 5-5h83a5 5 0 0 1 4 5v4h-47a5 5 0 0 0-5 4v13a5 5 0 0 0 5 4zm-61 0v-12h-23v12h23zm0-19a3 3 0 1 0-2 2 3 3 0 0 0 2-2zm-9 0a3 3 0 1 0-2 2 3 3 0 0 0 2-2zm-9 0a3 3 0 1 0-2 2 3 3 0 0 0 2-2z"/><path class="cls-24" d="M706 450v13h-47a5 5 0 0 1-5-4v-13a5 5 0 0 1 5-4h47v8z"/><circle class="cls-7" cx="686" cy="377" r="3"/><path class="cls-24" d="M689 307v26h-21v-9a12 12 0 0 0 1-1 15 15 0 1 0-17 1 15 15 0 0 0 3 1v8h-23v-26c0-14 12-26 28-26a30 30 0 0 1 20 8 25 25 0 0 1 9 18z"/><path class="cls-21" d="M681 411a4 4 0 0 1 4 4 4 4 0 0 1-4 4h-42a4 4 0 1 1 0-8zM681 419a4 4 0 0 1 0 7h-42a4 4 0 0 1 0-7zM681 426a4 4 0 0 1 0 7h-42a4 4 0 0 1 0-7z"/><path class="cls-25" d="M682 472v7a10 10 0 0 1-10 10h-23a10 10 0 0 1-11-10v-7z"/><path class="cls-21" d="M655 328h13v5h-13z"/><path class="cls-25" d="M665 308a4 4 0 1 1-4 3 4 4 0 0 1 4-3z"/><path class="cls-7" d="M672 381a11 11 0 0 1-8 11 6 6 0 0 0-11-5h-1a11 11 0 0 1-2-6z"/><path d="M664 390a6 6 0 0 1 0 2 11 11 0 0 1-3 0 11 11 0 0 1-9-5h1a6 6 0 0 1 4-2 6 6 0 0 1 7 5z" fill="#ff7c6e"/><path class="cls-25" d="M668 328h-13v-3a15 15 0 0 1-3-1 15 15 0 1 1 17-1 12 12 0 0 1-1 1zm-7-17a4 4 0 1 0 4-3 4 4 0 0 0-4 3 4 4 0 1 0-3 4 4 4 0 0 0 3-4z"/><circle class="cls-25" cx="658" cy="311" r="4"/><path class="cls-23" d="M639 451h6v12h-6z"/><circle class="cls-24" cx="643" cy="444" r="3"/><path class="cls-22" d="M633 451h6v12h-6z"/><circle class="cls-7" cx="634" cy="377" r="3"/><circle class="cls-24" cx="634" cy="444" r="3"/><path class="cls-23" d="M627 451h6v12h-6z"/><path class="cls-22" d="M622 451h5v12h-5z"/><circle class="cls-24" cx="625" cy="444" r="3"/><path class="cls-21" d="M626 369v10a11 11 0 0 1-12 11h-2v-33h2a11 11 0 0 1 12 12z"/><path class="cls-22" d="M614 443v8a35 35 0 0 1-39-18 15 15 0 0 0 4-1 14 14 0 0 0 3-2 27 27 0 0 0 31 13z"/><path class="cls-21" d="M586 413a15 15 0 0 1-4 17 14 14 0 0 1-3 2 15 15 0 0 1-19-19 4 4 0 0 1 7 3 7 7 0 1 0 7-4 4 4 0 0 1-1-7 4 4 0 0 1 2-1 15 15 0 0 1 11 9z"/><path class="cls-8" d="M612 357v-10a14 14 0 0 1 14-14h69a14 14 0 0 1 14 14v50a14 14 0 0 1-14 14h-14M639 411h-13a14 14 0 0 1-14-14v-7M681 411a4 4 0 0 1 4 4 4 4 0 0 1-4 4h-42a4 4 0 1 1 0-8zM681 426h-42a4 4 0 0 1 0-7h42a4 4 0 0 1 0 7zM639 433a4 4 0 0 1 0-7h42a4 4 0 0 1 0 7M655 333h-23v-26c0-14 12-26 28-26a30 30 0 0 1 20 8 25 25 0 0 1 9 18v26h-21M638 472h-19a5 5 0 0 1-5-5v-29a5 5 0 0 1 5-5h83a5 5 0 0 1 4 5v4M706 463v4a5 5 0 0 1-4 5h-20"/><path class="cls-8" d="M612 357h2a11 11 0 0 1 12 12v10a11 11 0 0 1-12 11h-2M709 357h-3a11 11 0 0 0-11 12v10a11 11 0 0 0 11 11h3"/><circle class="cls-8" cx="625" cy="444" r="3"/><circle class="cls-8" cx="634" cy="444" r="3"/><circle class="cls-8" cx="643" cy="444" r="3"/><path class="cls-8" d="M639 451h6v12h-23v-12h17zM627 451v12M633 451v12M639 451v12M706 463h-47a5 5 0 0 1-5-4v-13a5 5 0 0 1 5-4h47M682 472v7a10 10 0 0 1-10 10h-23a10 10 0 0 1-11-10v-7zM706 450a27 27 0 0 1 23 25M737 475a35 35 0 0 0-31-33M729 475a15 15 0 0 0-4 26 4 4 0 0 0 2 1 4 4 0 0 0 2-8 7 7 0 1 1 11-5 7 7 0 0 1-3 5 4 4 0 0 0 5 6 15 15 0 0 0-5-25 15 15 0 0 0-8 0zM652 387a11 11 0 0 1-2-6h22a11 11 0 0 1-8 11 11 11 0 0 1-3 0 11 11 0 0 1-9-5z"/><path class="cls-8" d="M653 387a6 6 0 0 1 4-2 6 6 0 0 1 7 7M655 333v-8a15 15 0 0 1-3-1 15 15 0 1 1 17-1 12 12 0 0 1-1 1v9zM661 327v-15"/><circle class="cls-8" cx="658" cy="311" r="4"/><path class="cls-8" d="M668 311a4 4 0 1 1-3-3 4 4 0 0 1 3 3zM655 328h13M660 288v3M650 290l1 4M671 290l-2 3M642 296l3 3M678 295l-3 3M614 443a27 27 0 0 1-31-13M575 433a35 35 0 0 0 39 18M582 430a15 15 0 0 0-7-26 4 4 0 0 0-2 1 4 4 0 0 0 1 7 7 7 0 1 1-7 4 4 4 0 0 0-7-3 15 15 0 0 0 19 19 14 14 0 0 0 3-2z"/><path class="cls-27" d="M667 282a31 31 0 0 0-6-1c-16 0-29 12-29 26v26h13v-26c0-12 10-22 22-25z"/><path class="cls-27" d="M628 397v-50a14 14 0 0 1 15-14h-17a14 14 0 0 0-14 14v50a14 14 0 0 0 14 14h17a14 14 0 0 1-15-14zM629 467v-29a5 5 0 0 1 4-5h-14a5 5 0 0 0-5 5v29a5 5 0 0 0 5 5h14a5 5 0 0 1-4-5zM651 479v-7h-13v7a10 10 0 0 0 11 10h13a10 10 0 0 1-11-10z"/><path class="cls-27" d="M647 415a4 4 0 0 1 4-4h-12a4 4 0 0 0 0 8h12a4 4 0 0 1-4-4z"/><path class="cls-27" d="M647 422a4 4 0 0 1 4-3h-12a4 4 0 0 0 0 7h12a4 4 0 0 1-4-4zM648 430a4 4 0 0 1 3-4h-11a4 4 0 0 0 0 7h11a4 4 0 0 1-3-3z"/><path class="cls-4" transform="rotate(-3 340 433)" d="M106 393h469v82H106z"/><path class="cls-5" transform="rotate(-3 355 416)" d="M153 410h404v14H153z"/><rect class="cls-6" x="468" y="430" width="88" height="22" rx="4" transform="rotate(-3 512 441)"/><path class="cls-7" d="M236 462a1 1 0 0 0 0-1v-1a10 10 0 0 0 0-1 5 5 0 0 0-3-4 7 7 0 0 0-3 0 5 5 0 0 0-5 5 11 11 0 0 0 0 1 1 1 0 0 0 1 1zM238 460a7 7 0 0 0-1-2 6 6 0 0 0-1-2 4 4 0 0 1 3-1 5 5 0 0 1 3 0 4 4 0 0 1 2 3 5 5 0 0 1 0 1 1 1 0 0 1-1 1zM234 451a3 3 0 1 1-4-3 3 3 0 0 1 4 3zM239 449a2 2 0 1 1-2 2 2 2 0 0 1 2-2z"/><rect class="cls-7" x="320" y="444" width="4" height="15" rx="1" transform="rotate(177 322 451)"/><rect class="cls-7" x="315" y="447" width="4" height="12" rx="1" transform="rotate(177 317 453)"/><rect class="cls-7" x="310" y="451" width="4" height="8" rx="1" transform="rotate(177 312 455)"/><path class="cls-7" d="M402 447a8 8 0 1 1-8-7 8 8 0 0 1 8 7zm-1 1a7 7 0 1 0-6 6 7 7 0 0 0 6-6z"/><path class="cls-7" d="M393 449l4-4a1 1 0 0 1 1 0 1 1 0 0 1 0 1l-4 4a1 1 0 0 1-1 0l-3-2a1 1 0 0 1 0-1 1 1 0 0 1 1 0l2 2z"/><path class="cls-3" transform="rotate(-3 272 454)" d="M251 451h43v8h-43z"/><path class="cls-3" transform="rotate(-3 197 457)" d="M176 453h43v8h-43z"/><path class="cls-3" transform="rotate(-3 353 451)" d="M332 447h43v8h-43z"/><path class="cls-3" transform="rotate(-3 431 446)" d="M410 443h43v8h-43z"/><circle class="cls-3" cx="157" cy="454" r="2"/><circle class="cls-3" cx="157" cy="463" r="2"/><path class="cls-3" d="M157 456v4"/><circle class="cls-3" cx="167" cy="462" r="2"/><path class="cls-8" d="M167 460v-4a3 3 0 0 0-3-3h-1"/><path class="cls-8" d="M164 451l-2 2 2 2"/><text class="cls-9" transform="rotate(-3 10266 -10628),translate(-80 -82)">JAVA SCRIPT</text><rect class="cls-15" x="119" y="415" width="21" height="21" rx="2" transform="translate(0 6),rotate(-3 10266 -10628"/><g clip-path="url(#clip-path-4)"><path class="cls-17" d="M129 429h-2a124 124 0 0 1 0-3h2v-2a5 5 0 0 1 1-2 4 4 0 0 1 2-2 6 6 0 0 1 1 0h3v2l-1 1h-1a3 3 0 0 0-1 0 1 1 0 0 0 0 1v2h3v3h-3v7l-3 1v-1l-1-7z"/></g><path class="cls-20" transform="rotate(-3 355 427)" d="M153 423h404v8H153z"/><path class="cls-3" d="M612 357v37"/><path d="M575 404a15 15 0 1 1-15 9 4 4 0 1 1 7 3 7 7 0 1 0 7-4v-8z" fill="#80b5bc" stroke="#6e7f89" stroke-linecap="round" stroke-linejoin="round" stroke-width="2"/><path class="cls-8" d="M706 465v-23"/></g></g></svg>
