<svg xmlns="http://www.w3.org/2000/svg" viewBox="0 0 613 556"><defs><style>.cls-6{fill:none}.cls-3{fill:#c4d4dd}.cls-4{fill:#ff7c6e}.cls-5{fill:#d4f4f2}.cls-14,.cls-6{stroke:#6e7f89;stroke-linecap:round;stroke-linejoin:round;stroke-width:1.5px}.cls-7{opacity:.08}.cls-8{fill:#7eb5bd}.cls-9{fill:#fff}.cls-10{fill:#e6edf2}.cls-11{fill:#f4d4d0}.cls-18{fill:#fe7c6f}.cls-14{fill:#f4f5f8}.cls-18{font-size:9.87px;font-family:Montserrat-Medium,Montserrat;font-weight:500;letter-spacing:.04em}.cls-16{letter-spacing:.03em}.cls-19{fill:#6e7f89}.cls-28{fill:#d5f4f2}.cls-24{opacity:.07;mix-blend-mode:multiply}.cls-25{fill:#97bac9}.cls-26{fill:#f9e3d4}.cls-27{fill:#ffae71}</style><clipPath id="clip-path"><path d="M526 487v32a10 10 0 0 1-10 9h-14a10 10 0 0 1-10-9v-32" fill="none"/></clipPath></defs><g style="isolation:isolate"><g id="Layer_1" data-name="Layer 1"><path class="cls-3" d="M149 178l14 17a28 28 0 0 1-5 39l-23 19a28 28 0 0 1-39-5l-14-18zm-34 52a3 3 0 0 0-4 0l-9 7a3 3 0 1 0 3 5l9-8a3 3 0 0 0 1-4zm-7-7a3 3 0 0 0-3-1l-10 8a3 3 0 0 0-1 2 3 3 0 0 0 1 2 3 3 0 0 0 4 0l9-7a3 3 0 0 0 1-2 3 3 0 0 0-1-2z"/><path class="cls-4" transform="rotate(-38 112 198)" d="M86 193h52v12H86z"/><path class="cls-4" d="M157 235l7 8a8 8 0 0 1-2 12l-8 6a8 8 0 0 1-12-1l-6-8z"/><path class="cls-5" d="M111 230a3 3 0 0 1 4 0 3 3 0 0 1-1 4l-9 8a3 3 0 1 1-3-5zM105 222a3 3 0 0 1 3 1 3 3 0 0 1 1 2 3 3 0 0 1-1 2l-9 7a3 3 0 0 1-4 0 3 3 0 0 1-1-2 3 3 0 0 1 1-2z"/><path class="cls-6" transform="rotate(-38 112 199)" d="M86 193h52v12H86z"/><path class="cls-6" d="M158 234l-23 19a28 28 0 0 1-39-5l-14-18 67-52 14 17a28 28 0 0 1-5 39z"/><path class="cls-6" d="M108 227l-9 7a3 3 0 0 1-4 0 3 3 0 0 1-1-2 3 3 0 0 1 1-2l10-8a3 3 0 0 1 3 1 3 3 0 0 1 1 2 3 3 0 0 1-1 2zM114 234l-9 8a3 3 0 1 1-3-5l9-7a3 3 0 0 1 4 0 3 3 0 0 1-1 4zM162 255l-8 6a8 8 0 0 1-12-1l-6-8 21-17 7 8a8 8 0 0 1-2 12z"/><path class="cls-7" d="M57 198l-4-6a55 55 0 0 1-9-51l-11 9a55 55 0 0 0 9 51l4 6c10 13 27 13 40 3l12-8c-13 10-30 9-41-4z"/><path class="cls-7" transform="rotate(-38 98 210)" d="M90 205h16v11H90z"/><path class="cls-7" d="M30 84a33 33 0 0 0-6 4c-14 10-17 29-7 41l17 22 11-9-17-22c-8-10-7-25 2-36zM150 286l-7-10-7 6 7 9a7 7 0 0 0 10 1l7-5a7 7 0 0 1-10-1zM106 238l-12-16-12 9 13 16a30 30 0 0 0 42 5l11-9a30 30 0 0 1-42-5z"/><path class="cls-7" d="M30 84a33 33 0 0 0-6 4c-14 10-17 29-7 41l17 22 11-9-17-22c-8-10-7-25 2-36z"/><path class="cls-4" d="M200 221a14 14 0 0 1 3 11 4 4 0 0 1-7-1 6 6 0 1 0-6 5 4 4 0 0 1 2 6 4 4 0 0 1-2 1 14 14 0 0 1-12-22 14 14 0 0 1 3-3 14 14 0 0 1 19 3z"/><path class="cls-8" d="M142 210a33 33 0 0 1 42 7 14 14 0 0 0-3 2 14 14 0 0 0-3 2 26 26 0 0 0-31-5z"/><path class="cls-6" d="M184 217a33 33 0 0 0-42-7l5 6a26 26 0 0 1 31 5"/><path class="cls-6" d="M178 221a14 14 0 0 0 12 22 4 4 0 0 0 2 0 4 4 0 0 0-2-7 6 6 0 1 1 6-5 4 4 0 0 0 7 1 14 14 0 0 0-19-15 14 14 0 0 0-3 2 14 14 0 0 0-3 2z"/><path class="cls-9" d="M497 32v438a9 9 0 0 1-8 9H129a9 9 0 0 1-9-9V32a9 9 0 0 1 9-8h360a9 9 0 0 1 8 8zm-95 125v-23H157v23zm-8 143v-24a5 5 0 0 0-5-5h-44a5 5 0 0 0-5 5v24a5 5 0 0 0 5 5h44a5 5 0 0 0 5-5zm-57-103v-22H157v22zm-11 103v-24a5 5 0 0 0-5-5h-44a5 5 0 0 0-5 5v24a5 5 0 0 0 5 5h44a5 5 0 0 0 5-5zm-50-62v-22H156v22zm-18 62v-24a5 5 0 0 0-6-5h-44a5 5 0 0 0-5 5v24a5 5 0 0 0 5 5h44a5 5 0 0 0 6-5z"/><path class="cls-10" d="M157 134h245v22H157z"/><path class="cls-11" d="M394 276v24a5 5 0 0 1-5 5h-44a5 5 0 0 1-5-5v-24a5 5 0 0 1 5-5h44a5 5 0 0 1 5 5z"/><path class="cls-10" d="M157 175h180v22H157z"/><path class="cls-11" d="M326 276v24a5 5 0 0 1-5 5h-44a5 5 0 0 1-5-5v-24a5 5 0 0 1 5-5h44a5 5 0 0 1 5 5z"/><path class="cls-10" d="M156 216h120v22H156z"/><path class="cls-11" d="M258 276v24a5 5 0 0 1-6 5h-44a5 5 0 0 1-5-5v-24a5 5 0 0 1 5-5h44a5 5 0 0 1 6 5z"/><path class="cls-6" d="M489 479H129a9 9 0 0 1-9-9V32a9 9 0 0 1 9-8h360a9 9 0 0 1 8 8v438a9 9 0 0 1-8 9z"/><path class="cls-6" d="M157 134h245v22H157zM157 175h180v22H157zM156 216h120v22H156zM252 305h-44a5 5 0 0 1-5-5v-24a5 5 0 0 1 5-5h44a5 5 0 0 1 6 5v24a5 5 0 0 1-6 5zM321 305h-44a5 5 0 0 1-5-5v-24a5 5 0 0 1 5-5h44a5 5 0 0 1 5 5v24a5 5 0 0 1-5 5zM389 305h-44a5 5 0 0 1-5-5v-24a5 5 0 0 1 5-5h44a5 5 0 0 1 5 5v24a5 5 0 0 1-5 5z"/><path fill="#fe7c6f" d="M154 396h144v34H154z"/><path class="cls-9" d="M313 396h63v34h-63z"/><path stroke="#fe7c6f" stroke-linejoin="round" stroke-width="2" stroke-linecap="round" fill="none" d="M313 396h63v34h-63z"/><path class="cls-14" d="M156 47h53v53h-53z"/><text transform="translate(171 416)" letter-spacing="0em" font-size="10" font-family="Montserrat-Medium,Montserrat" font-weight="500" fill="#f4f5f8">VIEW APPLICATIONS</text><text class="cls-18" transform="translate(332 416)">EDIT</text><path class="cls-19" d="M427 69l-10-9a5 5 0 0 1 0-6 5 5 0 0 1 6-3 5 5 0 0 1 2 1l2 2 1-2a5 5 0 0 1 8 8l-9 9zM469 51h-13a2 2 0 0 0-2 2v15a2 2 0 0 0 2 1h13a2 2 0 0 0 2-1V53a2 2 0 0 0-2-2zm-2 14h-10a1 1 0 0 1 0-1h10a1 1 0 0 1 1 1 1 1 0 0 1-1 0zm0-4h-10a1 1 0 0 1 0-1h10a1 1 0 0 1 1 0 1 1 0 0 1-1 1zm0-5h-10a1 1 0 1 1 0-1h10a1 1 0 0 1 0 1zM388 53a2 2 0 0 1 2 0 2 2 0 0 1 4-1l1 1a6 6 0 0 1 3 2l3 2a6 6 0 0 1-3 11 6 6 0 0 1-8-6 3 3 0 0 1-3 0v1a6 6 0 0 1-12 0 6 6 0 0 1 2-6l2-2a6 6 0 0 1 3-2 1 1 0 0 0 1 0l1-1a2 2 0 0 1 4 1zm9 13a4 4 0 1 0-5-5 4 4 0 0 0 5 5zm-20-5a4 4 0 1 0 4-4 4 4 0 0 0-4 4zm12 0a1 1 0 1 0-2-2 1 1 0 0 0 2 2z"/><path class="cls-3" d="M135 142a30 30 0 0 1-8 37l-40 32a30 30 0 0 1-37-1l7-6a9 9 0 0 0-11-14l-7 6a55 55 0 0 1 85-68l-7 6a9 9 0 1 0 11 14l7-6z"/><path class="cls-8" d="M135 142l-7 6a9 9 0 0 1-11-14l7-6a54 54 0 0 1 5 6l3 4a30 30 0 0 1 3 4zM58 192a9 9 0 0 1-1 12l-7 6a30 30 0 0 1-4-4l-3-4a53 53 0 0 1-4-6l7-6a9 9 0 0 1 12 2z"/><path class="cls-6" d="M135 142a30 30 0 0 1-8 37l-40 32a30 30 0 0 1-37-1 30 30 0 0 1-4-4l-3-4a53 53 0 0 1-4-6 55 55 0 0 1 85-68 54 54 0 0 1 5 6l3 4a30 30 0 0 1 3 4z"/><path class="cls-6" d="M39 196l7-6a9 9 0 0 1 11 14l-7 6M135 142l-7 6a9 9 0 0 1-11-14l7-6"/><circle class="cls-19" cx="65" cy="187" r="4"/><path d="M82 113l-22 17-27 21-17-22c-9-12-6-30 7-41 14-11 33-9 42 3z" fill="#d5f4f2" stroke-linejoin="round" stroke-width="2" stroke="#6e7f89"/><circle class="cls-19" cx="104" cy="151" r="4"/><path class="cls-5" d="M50 95l-20-2a14 14 0 0 1 20 2zM45 99l-11-2a8 8 0 0 1 11 2z"/><path class="cls-8" d="M38 110l13 2v1a13 13 0 0 1-26-4v-1z"/><path class="cls-4" d="M37 101a4 4 0 1 1 1 6 3 3 0 0 1-2-1 4 4 0 0 1 1-5z"/><path class="cls-8" d="M43 129l8 9-9 6-7-9a5 5 0 0 1 1-7 5 5 0 0 1 7 1z"/><path class="cls-6" d="M36 125a13 13 0 0 0 15-12v-1l-13-2-13-2v2a13 13 0 0 0 11 15zM36 106a3 3 0 0 0 2 1 4 4 0 1 0-2-1zM38 107v3M45 99a8 8 0 0 0-11-2M50 95a14 14 0 0 0-20-2M42 144l8-6-7-9a5 5 0 0 0-7-1 5 5 0 0 0-1 7z"/><path class="cls-19" d="M97 180a7 7 0 0 0-11 4l-1 1a12 12 0 0 1-5-4l19-15a12 12 0 0 1 0 15 8 8 0 0 0-2-1z"/><path class="cls-4" d="M97 180a8 8 0 0 1 1 1 12 12 0 0 1-1 2 12 12 0 0 1-12 2l1-1a7 7 0 0 1 11-4z"/><path class="cls-6" d="M85 185a12 12 0 0 1-5-4l19-15a12 12 0 0 1 0 15 12 12 0 0 1-2 2 12 12 0 0 1-12 2z"/><path class="cls-6" d="M86 184a7 7 0 0 1 11-4 8 8 0 0 1 1 1"/><path class="cls-7" d="M61 200l-5-6a53 53 0 0 1-14-49l-10 8c-4 18 0 37 13 51l5 6c12 12 29 10 41-1l10-10c-12 12-29 13-40 1z"/><path d="M88 238l-6 5a24 24 0 0 0-5 28 24 24 0 0 0 20 14l14 1a5 5 0 0 1-1 10l-14-1a34 34 0 0 1-28-20 34 34 0 0 1 8-39l6-5" fill="#80b5bc" stroke-linejoin="round" stroke-width="2" stroke-linecap="round" stroke="#6e7f89"/><path d="M141 288a4 4 0 0 1-8 1 7 7 0 1 0-2 9 4 4 0 1 1 5 6 16 16 0 1 1 5-18 4 4 0 0 1 0 2z" stroke-linejoin="round" stroke-width="2" stroke-linecap="round" stroke="#6e7f89" fill="#c4d4dd"/><rect x="129" y="261" width="54" height="34" rx="5" fill="#f4d4d0" stroke-linejoin="round" stroke-width="2" stroke-linecap="round" stroke="#6e7f89"/><path class="cls-7" d="M65 126l-26 21-17-22c-9-11-7-28 4-39l-3 2c-13 11-16 29-7 41l17 22 27-21 22-17z"/><ellipse class="cls-24" cx="530" cy="527" rx="47" ry="6"/><path class="cls-3" d="M587 379a55 55 0 0 1-4 25 47 47 0 0 1-8 13v-45a13 13 0 0 0-8-12 13 13 0 0 1 14 2c2 2 5 6 6 17z"/><path class="cls-8" d="M580 281v52a8 8 0 0 1-8 9h-13s9-1 8-12v-39-1a23 23 0 0 0-23-23h-26a23 23 0 0 0-24 24v44a23 23 0 0 0 0 4h-19s8 0 8-12v-38s-2-31 28-38a24 24 0 0 1 4 0h38a28 28 0 0 1 24 17l1 1a34 34 0 0 1 2 12z"/><path class="cls-25" d="M575 441v46h-88v-46h88z"/><path class="cls-3" d="M575 417v24h-45v-4c12-2 22-4 30-8a50 50 0 0 0 15-12z"/><path class="cls-3" d="M573 415a10 10 0 0 0-13 3 9 9 0 0 0-1 10l1 1c-8 4-18 6-30 8v-17a20 20 0 0 0 19-14 24 24 0 0 0 7-6c8-9 5-22 4-24a13 13 0 0 1 7-16 13 13 0 0 1 8 12v44h-1a10 10 0 0 0-1-1z"/><path class="cls-25" d="M574 416h1v1a50 50 0 0 1-15 12l-1-1a9 9 0 0 1 1-10 10 10 0 0 1 14-2z"/><path class="cls-8" d="M570 508v11a10 10 0 0 1-10 10h-14a10 10 0 0 1-10-10v-11z"/><path class="cls-26" d="M570 488v20h-34v-21h34v1zM567 290v40c1 11-8 12-8 12h7a24 24 0 0 1-22 17h-26a24 24 0 0 1-24-20 23 23 0 0 1 0-4v-31h62v-6a8 8 0 0 1 8-8zm-16 34a4 4 0 1 0-4 4 4 4 0 0 0 4-4zm-44 1a4 4 0 1 0-4 3 4 4 0 0 0 4-3z"/><path class="cls-8" d="M567 290h-3a8 8 0 0 0-8 8v6h-62v-13a23 23 0 0 1 24-24h26a23 23 0 0 1 23 23z"/><path class="cls-3" d="M567 360a13 13 0 0 0-7 16c1 2 4 15-4 24a24 24 0 0 1-7 6 20 20 0 0 0-19-26v-21h32a13 13 0 0 1 5 1z"/><path class="cls-19" d="M547 321a4 4 0 1 1-3 3 4 4 0 0 1 3-3z"/><path class="cls-4" d="M550 400a20 20 0 0 1-1 6 37 37 0 0 1-7 3 15 15 0 0 0 3-9 15 15 0 0 0-15-15v-5a20 20 0 0 1 20 20z"/><path class="cls-27" d="M545 239v11h-7v-11a2 2 0 0 1 3-2h2a2 2 0 0 1 2 2z"/><path class="cls-3" d="M549 406a20 20 0 0 1-19 14v-5a15 15 0 0 0 12-6 37 37 0 0 0 7-3z"/><path class="cls-28" d="M530 392v-7a15 15 0 0 1 15 15 15 15 0 0 1-3 9 61 61 0 0 1-12 2v-19z"/><path class="cls-27" d="M541 218a12 12 0 1 1-16 17l-1-1 8-8 8-9z"/><path class="cls-3" d="M542 409a15 15 0 0 1-12 6v-4a61 61 0 0 0 12-2z"/><path class="cls-28" d="M528 225a3 3 0 0 0 2-1 3 3 0 1 0-2 1zm15 11h-2a2 2 0 0 0-3 3v11h7v-11a2 2 0 0 0-2-2zm8 15h-41v-31a22 22 0 0 1 44 0v31h-3zm-19-25l-8 8 1 1a12 12 0 1 0 16-17l-1-1z"/><path class="cls-27" d="M528 219a3 3 0 0 1 2 5 3 3 0 0 1-2 1 3 3 0 0 1 0-6z"/><path class="cls-3" d="M520 437a102 102 0 0 0 10 0v4h-43v-50l4-29a13 13 0 0 1 9-3h30v21a20 20 0 0 0-16 32h-1a9 9 0 0 0-9 8l-1 8a8 8 0 0 0 0 1h-6a2 2 0 0 0-2 2v2a2 2 0 0 0 2 1h9a9 9 0 0 0 5 3h9z"/><path class="cls-3" d="M530 420v17a93 93 0 0 1-10 0v-20a20 20 0 0 0 10 3z"/><path class="cls-3" d="M530 415v5a20 20 0 0 1-10-3v-5h1a15 15 0 0 0 9 3z"/><path class="cls-3" d="M530 411v4a15 15 0 0 1-9-3l9-1z"/><path class="cls-28" d="M530 402v9l-9 1a15 15 0 0 1-5-9l2-1h12zM530 395v7h-5v-2a5 5 0 0 1 5-5z"/><path class="cls-28" d="M525 402h-6v-2a11 11 0 0 1 11-12v7a5 5 0 0 0-5 5z"/><path class="cls-28" d="M530 385v3a11 11 0 0 0-11 12v2h-1l-2 1a15 15 0 0 1-1-3 15 15 0 0 1 15-15z"/><path class="cls-8" d="M526 508v11a10 10 0 0 1-10 9h-14a10 10 0 0 1-10-9v-11z"/><path class="cls-26" d="M492 487h34v21h-34z"/><path class="cls-4" d="M516 403a15 15 0 0 0 5 9h-7a20 20 0 0 1 16-32v5a15 15 0 0 0-15 15 15 15 0 0 0 1 3z"/><path class="cls-26" d="M520 412v5a20 20 0 0 1-6-5h6zM506 434a8 8 0 0 1-3-5h5a2 2 0 0 1 2 2v2a2 2 0 0 1-2 1z"/><path class="cls-19" d="M503 321a4 4 0 1 1-3 4 4 4 0 0 1 3-4z"/><path class="cls-10" d="M506 434h-9a2 2 0 0 1-2-1v-2a2 2 0 0 1 2-2h6a8 8 0 0 0 3 5z"/><path class="cls-26" d="M503 428l1-8a9 9 0 0 1 9-8h1a20 20 0 0 0 6 5v20h-9a9 9 0 0 1-5-3h2a2 2 0 0 0 2-1v-2a2 2 0 0 0-2-2h-5a8 8 0 0 1 0-1z"/><path class="cls-3" d="M491 362l-4 29v-19a13 13 0 0 1 3-8 10 10 0 0 0 1-2z"/><path class="cls-25" d="M450 387a9 9 0 0 1 10 9 9 9 0 0 1-1 2v1a54 54 0 0 1-18-7 10 10 0 0 1 9-5z"/><path class="cls-3" d="M450 387a10 10 0 0 0-9 5c-8-4-17-12-27-23l21-15c11 13 22 20 32 20s19-7 23-10a13 13 0 0 0-3 8v19l-1 4a50 50 0 0 1-5 2 48 48 0 0 1-15 2 46 46 0 0 1-7 0v-1a9 9 0 0 0 1-2 9 9 0 0 0-10-9z"/><path class="cls-26" d="M435 354l-21 15-5-7a7 7 0 0 1 2-11l8-6a7 7 0 0 1 10 2l6 7z"/><path class="cls-6" d="M490 364a10 10 0 0 0 1-2M486 395a50 50 0 0 1-5 2 48 48 0 0 1-15 2 46 46 0 0 1-7 0 54 54 0 0 1-18-7c-8-4-17-12-27-23l-5-7a7 7 0 0 1 1-11l9-6a7 7 0 0 1 10 2l6 7c11 13 22 20 32 20s19-7 23-10M567 330v-39-1a23 23 0 0 0-23-23h-26a23 23 0 0 0-24 24v44a23 23 0 0 0 0 4 24 24 0 0 0 24 20"/><path class="cls-6" d="M575 417v70h-88V372a13 13 0 0 1 3-8 13 13 0 0 1 1-2 13 13 0 0 1 9-3h23M544 359h18a13 13 0 0 1 5 1M487 441h88M530 437v4M530 359v21"/><path class="cls-6" d="M506 434h-9a2 2 0 0 1-2-1v-2a2 2 0 0 1 2-2h6M494 339h-19s8 0 8-12v-38s-2-31 28-38a24 24 0 0 1 4 0h38a28 28 0 0 1 24 17l1 1a34 34 0 0 1 2 12v52a8 8 0 0 1-8 9h-13s9-1 8-12"/><path class="cls-6" d="M494 304h62v-6a8 8 0 0 1 8-8h3M492 487v32a10 10 0 0 0 10 9h14a10 10 0 0 0 10-9v-32M492 508h34M536 488v31a10 10 0 0 0 10 10h14a10 10 0 0 0 10-10v-31M536 508h34M515 251h-5v-31a22 22 0 0 1 44 0v31h-39z"/><path class="cls-6" d="M541 234a12 12 0 0 1-16 1l-1-1 8-8 8-9 1 1a12 12 0 0 1 0 16zM531 222a3 3 0 0 1-1 2 3 3 0 0 1-2 1 3 3 0 1 1 3-3zM530 224l2 2M521 222a7 7 0 0 1 7-7M516 222a12 12 0 0 1 12-12M545 250h-7v-11a2 2 0 0 1 3-2h2a2 2 0 0 1 2 2zM567 342a24 24 0 0 1-23 17h-21M514 412a20 20 0 0 1 16-32 20 20 0 0 1 19 26"/><path class="cls-6" d="M521 412a15 15 0 0 1-5-9 15 15 0 0 1-1-3 15 15 0 0 1 15-15 15 15 0 0 1 15 15 15 15 0 0 1-3 9M519 400a11 11 0 0 1 11-12M522 400a8 8 0 0 1 8-8M525 400a5 5 0 0 1 5-5M530 402h-12"/><path class="cls-6" d="M503 429a8 8 0 0 1 0-1l1-8a9 9 0 0 1 9-8h8l9-1a61 61 0 0 0 12-2 37 37 0 0 0 7-3 24 24 0 0 0 7-6c8-9 5-22 4-24a13 13 0 0 1 7-16 13 13 0 0 1 14 2c2 2 5 6 6 17a55 55 0 0 1-4 25 47 47 0 0 1-8 13 50 50 0 0 1-15 12 81 81 0 0 1-34 8h-15a9 9 0 0 1-5-3 8 8 0 0 1-3-5zM441 392a10 10 0 0 1 19 4 9 9 0 0 1-1 2"/><path class="cls-6" d="M559 428a9 9 0 0 1 1-10 10 10 0 0 1 14-2M414 369l21-15M520 412v25"/><path class="cls-24" d="M503 337v-5l-1-5v-36a23 23 0 0 1 24-24h-8a23 23 0 0 0-23 24v46c1 12 10 21 22 22h9-1c-12-1-21-10-22-22zM494 360v127h-7l1-118a10 10 0 0 1 6-9z"/><g clip-path="url(#clip-path)"><path class="cls-24" transform="rotate(-180 494 508)" d="M490 488h8v40h-8z"/></g><path class="cls-24" d="M561 530h2v-42h8v32a10 10 0 0 1-10 10zM537 198a22 22 0 0 0-5 0 22 22 0 0 0-22 22v31h9v-31a22 22 0 0 1 18-22z"/><path class="cls-14" transform="rotate(3 294 342)" d="M140 331h307v22H140z"/><path class="cls-14" d="M448 416h59v19h-59z"/><path d="M510 412a9 9 0 0 0-6 8l-1 8a9 9 0 0 0 7 9" fill="#f9e3d4" stroke-linejoin="round" stroke-width="2" stroke-linecap="round" stroke="#6e7f89"/><path class="cls-24" d="M252 306h-44a5 5 0 0 1-5-5v6a5 5 0 0 0 5 5h44a5 5 0 0 0 6-5v-6a5 5 0 0 1-6 5zM178 296h-44a5 5 0 0 1-6-6v6a5 5 0 0 0 6 6h44a5 5 0 0 0 5-6v-6a5 5 0 0 1-5 6zM321 306h-44a5 5 0 0 1-5-5v6a5 5 0 0 0 5 5h44a5 5 0 0 0 5-5v-6a5 5 0 0 1-5 5zM389 306h-44a5 5 0 0 1-5-5v6a5 5 0 0 0 5 5h44a5 5 0 0 0 5-5v-6a5 5 0 0 1-5 5z"/><path class="cls-14" transform="rotate(3 294 342)" d="M140 331h307v22H140z"/><path class="cls-24" d="M446 361l-306-15v9l306 15 1-23-1 14zM156 238h120v8H156zM156 197h180v8H156zM156 156h245v8H156z"/><text class="cls-18" transform="translate(137 282)">S<tspan class="cls-16" x="7" y="0">C</tspan><tspan x="14" y="0">A</tspan><tspan x="22" y="0" letter-spacing="0em">L</tspan><tspan x="27" y="0" letter-spacing="0em">A</tspan></text><text transform="translate(217 292)" letter-spacing="0em" font-size="10" font-family="Montserrat-Medium,Montserrat" font-weight="500" fill="#fe7c6f">J<tspan x="5" y="0">AV</tspan><tspan x="19" y="0">A</tspan></text><text class="cls-18" transform="translate(284 292)">AKKA</text><text class="cls-18" transform="translate(351 292)">S<tspan x="7" y="0" letter-spacing="0em">P</tspan><tspan x="13" y="0">ARK</tspan></text><path class="cls-19" d="M165 57h10v10h-10zM177 57h10v10h-10zM190 57h10v10h-10zM165 69h10v10h-10zM177 69h10v10h-10zM190 69h10v10h-10zM165 81h10v10h-10zM177 81h10v10h-10zM190 81h10v10h-10z"/><path class="cls-24" d="M154 430h144v7H154zM313 430h63v7h-63z"/></g></g></svg>
