<svg xmlns="http://www.w3.org/2000/svg" viewBox="0 0 834 556"><defs><style>.cls-26,.cls-6{fill:none}.cls-5{fill:#fff}.cls-26,.cls-6{stroke:#6e7f89;stroke-linejoin:round}.cls-6{stroke-linecap:round}.cls-26,.cls-6{stroke-width:1.5px}.cls-10{fill:#ff7c6e}.cls-11{fill:#d4f4f2}.cls-12{fill:#7eb5bd}.cls-13{fill:#6e7f89}.cls-16{opacity:.07;mix-blend-mode:multiply}.cls-17{fill:#707f88}.cls-18{fill:#80b5bc}.cls-19{fill:#c4d4dd}.cls-20{fill:#e6edf2}.cls-21{fill:#fdae76}.cls-22{opacity:.08}.cls-23{fill:#f8e3d5}.cls-24{fill:#d5f4f2}</style><clipPath id="clip-path"><rect x="147" y="17" width="510" height="457" rx="11" fill="none"/></clipPath></defs><g style="isolation:isolate"><g id="Layer_1" data-name="Layer 1"><rect x="147" y="17" width="510" height="457" rx="21" stroke-width="2" stroke-linecap="round" stroke="#6e7f89" stroke-linejoin="round" fill="#fff"/><path d="M658 28v435a11 11 0 0 1-11 11H159a11 11 0 0 1-12-11V28a11 11 0 0 1 12-11h488a11 11 0 0 1 11 11zm-62 50V68a11 11 0 0 0-11-12H227a11 11 0 0 0-11 12v21h369a11 11 0 0 0 11-11zm-3 335v-28a12 12 0 0 0-12-12H259a12 12 0 0 0-13 12v15a12 12 0 0 0 13 13zM424 282v-10a11 11 0 0 0-12-11H229a11 11 0 0 0-11 11v21h194a11 11 0 0 0 12-11z" fill="#f4f5f8"/><path class="cls-5" d="M596 68v10a11 11 0 0 1-11 11H216V68a11 11 0 0 1 11-12h358a11 11 0 0 1 11 12zM593 385v27H259a12 12 0 0 1-13-12v-15a12 12 0 0 1 13-12h322a12 12 0 0 1 12 12zM424 272v10a11 11 0 0 1-12 11H218v-21a11 11 0 0 1 11-11h183a11 11 0 0 1 12 11z"/><path class="cls-6" d="M585 89H216V68a11 11 0 0 1 11-12h358a11 11 0 0 1 11 12v10a11 11 0 0 1-11 11zM412 293H218v-21a11 11 0 0 1 11-11h183a11 11 0 0 1 12 11v10a11 11 0 0 1-12 11zM593 413H259a12 12 0 0 1-13-13v-15a12 12 0 0 1 13-12h322a12 12 0 0 1 12 12z"/><path class="cls-6" d="M647 474H159a11 11 0 0 1-12-11V28a11 11 0 0 1 12-11h488a11 11 0 0 1 11 11v435a11 11 0 0 1-11 11z"/><g clip-path="url(#clip-path)"><path fill="#fc7d72" d="M134 8h530v17H134z"/><path fill="#fededc" d="M483 8h182v17H483z"/></g><path class="cls-6" d="M262 381v22"/><path class="cls-10" d="M228 318a4 4 0 1 1-5 3 4 4 0 0 1 5-3zM185 350a21 21 0 0 1 6-29h22a21 21 0 1 1-28 29zm28-23a1 1 0 1 0-1 1 1 1 0 0 0 1-1zm2 15c0-5-6-9-13-9s-13 4-13 9 6 10 13 10 13-4 13-10zm-17-15a1 1 0 0 0-1-1h-5a1 1 0 0 0-1 1 1 1 0 0 0 1 1h5a1 1 0 0 0 1 0 1 1 0 0 0 0-1z"/><path class="cls-11" d="M213 312v9h-13v-6a1 1 0 0 0-1-1h-2a1 1 0 0 0-1 1v6h-5v-9a11 11 0 0 1 22 0zm-7 2l-6-7-1 1a4 4 0 0 0 6 6zm-1-5a1 1 0 1 0-1 1 1 1 0 0 0 1-1z"/><path class="cls-12" d="M211 326a1 1 0 1 1-1 1 1 1 0 0 1 1-1z"/><path class="cls-13" d="M211 342a1 1 0 1 1-1 1 1 1 0 0 1 1-1z"/><path class="cls-11" d="M202 333c7 0 13 4 13 9s-6 10-13 10-13-4-13-10 6-9 13-9zm11 10a1 1 0 1 0-2 1 1 1 0 0 0 2-1zm-19 0a1 1 0 1 0-2 1 1 1 0 0 0 2-1z"/><path class="cls-12" d="M200 307l6 7h-1a4 4 0 0 1-6-6z"/><path class="cls-10" d="M204 308a1 1 0 1 1-1 1 1 1 0 0 1 1-1z"/><path class="cls-12" d="M200 315v6h-4v-6a1 1 0 0 1 1-1h2a1 1 0 0 1 1 1zM197 326a1 1 0 0 1 0 2h-5a1 1 0 0 1-1-1 1 1 0 0 1 1-1z"/><path class="cls-13" d="M192 342a1 1 0 1 1-1 1 1 1 0 0 1 1-1z"/><path class="cls-10" d="M181 321a4 4 0 1 1-5-3 4 4 0 0 1 5 3zM181 353a4 4 0 1 1-5-3 4 4 0 0 1 5 3z"/><path class="cls-6" d="M213 321a21 21 0 1 1-22 0"/><ellipse class="cls-6" cx="202" cy="342" rx="13" ry="10"/><path class="cls-6" d="M200 321h13v-9a11 11 0 0 0-22 0v9h5"/><path class="cls-6" d="M199 314a4 4 0 0 0 6 0h1l-6-7-1 1a4 4 0 0 0 0 6zM203 309a1 1 0 1 0 1-1 1 1 0 0 0-1 1zM203 310v1M209 309a5 5 0 0 0-5-5"/><path class="cls-6" d="M196 321h4v-6a1 1 0 0 0-1-1h-2a1 1 0 0 0-1 1zM181 353a4 4 0 1 1-5-3 4 4 0 0 1 5 3zM197 328h-5a1 1 0 0 1-1-1 1 1 0 0 1 1-1h5a1 1 0 0 1 0 2zM213 327a1 1 0 1 1-2-1 1 1 0 0 1 2 1zM181 321a4 4 0 1 1-5-3 4 4 0 0 1 5 3zM180 352l5-2M223 321a4 4 0 1 0 5-3 4 4 0 0 0-5 3zM180 324l4 3M224 324l-4 4"/><path d="M197 343h10a5 5 0 0 1-5 5 3 3 0 0 0-4-2 5 5 0 0 1-1-3z" fill="#6e7f89" stroke-linecap="round" stroke="#6e7f89" stroke-linejoin="round"/><path d="M201 345a3 3 0 0 1 1 3 5 5 0 0 1-4-2 3 3 0 0 1 3-1z" fill="#ff7c6e" stroke-linecap="round" stroke="#6e7f89" stroke-linejoin="round"/><path class="cls-16" d="M585 88H216v10h369a11 11 0 0 0 11-11V77a11 11 0 0 1-11 11zM413 294H218v10h195a11 11 0 0 0 11-12v-10a11 11 0 0 1-11 12zM258 411h335v10H258a11 11 0 0 1-12-11v-10a11 11 0 0 0 12 11z"/><rect class="cls-16" x="454" y="126" width="144" height="32" rx="3"/><rect class="cls-16" x="455" y="225" width="144" height="32" rx="3"/><rect class="cls-16" x="474" y="305" width="119" height="32" rx="3"/><rect class="cls-17" x="454" y="117" width="144" height="32" rx="3"/><rect class="cls-16" x="416" y="178" width="219" height="32" rx="4" transform="rotate(6 526 194)"/><rect class="cls-17" x="454" y="218" width="144" height="32" rx="3"/><rect class="cls-17" x="474" y="298" width="119" height="32" rx="3"/><path class="cls-6" d="M227 56h358a11 11 0 0 1 11 12v10a11 11 0 0 1-11 11H216V68a11 11 0 0 1 11-12zM259 373h322a12 12 0 0 1 12 12v27H259a12 12 0 0 1-13-12v-15a12 12 0 0 1 13-12z"/><rect class="cls-6" x="147" y="17" width="510" height="457" rx="12"/><path class="cls-18" d="M804 286a15 15 0 0 1-5 12 4 4 0 1 1-5-7 7 7 0 1 0-8 1 4 4 0 0 1-3 7 4 4 0 0 1-2-1 15 15 0 0 1 4-26 15 15 0 0 1 8 0 15 15 0 0 1 11 14z"/><path class="cls-19" d="M793 272a15 15 0 0 0-8 0 27 27 0 0 0-22-25v-8a35 35 0 0 1 30 33zM765 188v7a14 14 0 0 1-14 14h-69a14 14 0 0 1-14-14v-7h3a11 11 0 0 0 11-12v-10a11 11 0 0 0-11-11h-3v-11a14 14 0 0 1 14-14h69a14 14 0 0 1 14 14v11h-3a11 11 0 0 0-11 11v10a11 11 0 0 0 11 12zm-19-13a3 3 0 1 0-3 3 3 3 0 0 0 3-3zm-17 4h-22a11 11 0 0 0 11 11 11 11 0 0 0 2-1 11 11 0 0 0 9-10zm-35-4a3 3 0 1 0-3 3 3 3 0 0 0 3-3z"/><path class="cls-18" d="M765 155v33h-3a11 11 0 0 1-11-12v-10a11 11 0 0 1 11-11z"/><path class="cls-20" d="M763 261v4a5 5 0 0 1-5 4h-83a5 5 0 0 1-4-4v-30a5 5 0 0 1 4-4h83a5 5 0 0 1 5 4v4h-47a5 5 0 0 0-5 5v12a5 5 0 0 0 5 5zm-61 0v-13h-24v13h24zm0-20a3 3 0 1 0-3 3 3 3 0 0 0 3-3zm-9 0a3 3 0 1 0-3 3 3 3 0 0 0 3-3zm-9 0a3 3 0 1 0-3 3 3 3 0 0 0 3-3z"/><path class="cls-11" d="M763 248v13h-47a5 5 0 0 1-5-5v-12a5 5 0 0 1 5-5h47v8z"/><circle class="cls-13" cx="743" cy="175" r="3"/><path class="cls-11" d="M745 105v25h-21v-8l1-1a15 15 0 1 0-16 0 15 15 0 0 0 2 2v7h-23v-25c0-15 13-26 29-26a30 30 0 0 1 20 7 25 25 0 0 1 8 19z"/><path class="cls-18" d="M738 209a4 4 0 1 1 0 7h-42a4 4 0 0 1 0-7z"/><path class="cls-18" d="M738 216a4 4 0 0 1 0 7h-42a4 4 0 0 1 0-7zM738 223a4 4 0 0 1 0 8h-42a4 4 0 0 1 0-8z"/><path class="cls-21" d="M738 269v7a10 10 0 0 1-10 11h-23a10 10 0 0 1-10-11v-7z"/><path class="cls-18" d="M711 125h13v5h-13z"/><circle class="cls-21" cx="721" cy="109" r="4"/><path class="cls-13" d="M729 179a11 11 0 0 1-9 10 6 6 0 0 0 0-1 6 6 0 0 0-11-3 11 11 0 0 1-2-6z"/><path class="cls-10" d="M720 188a6 6 0 0 1 0 1 11 11 0 0 1-2 1 11 11 0 0 1-9-5 6 6 0 0 1 11 3z"/><path class="cls-21" d="M724 125h-13v-2a15 15 0 0 1-2-2 15 15 0 1 1 16 0l-1 1zm-10-13a4 4 0 0 1 7 0 4 4 0 1 0-4-3 4 4 0 1 0-3 3z"/><circle class="cls-21" cx="714" cy="109" r="4"/><path class="cls-20" d="M696 248h6v12h-6z"/><path class="cls-11" d="M699 238a3 3 0 1 1-3 3 3 3 0 0 1 3-3z"/><path class="cls-19" d="M690 248h6v12h-6z"/><circle class="cls-13" cx="691" cy="175" r="3"/><path class="cls-11" d="M690 238a3 3 0 1 1-3 3 3 3 0 0 1 3-3z"/><path class="cls-20" d="M684 248h6v12h-6z"/><path class="cls-19" d="M678 248h5v12h-5z"/><path class="cls-11" d="M681 238a3 3 0 1 1-3 3 3 3 0 0 1 3-3z"/><path class="cls-18" d="M682 166v10a11 11 0 0 1-11 12h-3v-33h3a11 11 0 0 1 11 11z"/><path class="cls-19" d="M671 240v8a35 35 0 0 1-39-17 15 15 0 0 0 7-4v1a27 27 0 0 0 31 12z"/><path class="cls-18" d="M643 210a15 15 0 1 1-27 0 4 4 0 1 1 7 4 7 7 0 1 0 7-4 4 4 0 0 1-1-8 4 4 0 0 1 3 0 15 15 0 0 1 11 8z"/><path class="cls-6" d="M668 155v-11a14 14 0 0 1 14-14h69a14 14 0 0 1 14 14v51a14 14 0 0 1-14 14h-13M696 209h-14a14 14 0 0 1-14-14v-7"/><path class="cls-6" d="M738 209a4 4 0 1 1 0 7h-42a4 4 0 0 1 0-7z"/><path class="cls-6" d="M738 223h-42a4 4 0 0 1 0-7h42a4 4 0 0 1 0 7zM696 231a4 4 0 0 1 0-8h42a4 4 0 0 1 0 8M711 130h-23v-25c0-15 13-26 29-26a30 30 0 0 1 20 7 25 25 0 0 1 8 19v25h-21"/><path class="cls-6" d="M695 269h-20a5 5 0 0 1-4-4v-30a5 5 0 0 1 4-4h83a5 5 0 0 1 5 4v4M763 261v4a5 5 0 0 1-5 4h-20M668 155h3a11 11 0 0 1 11 11v10a11 11 0 0 1-11 12h-3M765 155h-3a11 11 0 0 0-11 11v10a11 11 0 0 0 11 12h3"/><path class="cls-6" d="M684 241a3 3 0 1 1-3-3 3 3 0 0 1 3 3zM693 241a3 3 0 1 1-3-3 3 3 0 0 1 3 3zM702 241a3 3 0 1 1-3-3 3 3 0 0 1 3 3zM696 248h6v13h-24v-13h18zM684 248v13M690 248v13M696 248v13M763 261h-47a5 5 0 0 1-5-5v-12a5 5 0 0 1 5-5h47M738 269v7a10 10 0 0 1-10 11h-23a10 10 0 0 1-10-11v-7zM763 248a27 27 0 0 1 22 24M793 272a35 35 0 0 0-30-33"/><path class="cls-6" d="M785 272a15 15 0 0 0-4 26 4 4 0 0 0 6-1 4 4 0 0 0-1-5 7 7 0 1 1 8-1 4 4 0 1 0 5 7 15 15 0 0 0-6-26 15 15 0 0 0-8 0zM709 185a11 11 0 0 1-2-6h22a11 11 0 0 1-9 10 11 11 0 0 1-2 1 11 11 0 0 1-9-5z"/><path class="cls-6" d="M709 185a6 6 0 0 1 11 3 6 6 0 0 1 0 1M711 130v-7a15 15 0 0 1-2-2 15 15 0 1 1 16 0l-1 1v8zM717 125v-15"/><circle class="cls-6" cx="714" cy="109" r="4"/><circle class="cls-6" cx="721" cy="109" r="4"/><path class="cls-6" d="M711 125h13M717 86v3M706 88l2 3M727 88l-2 3M699 94l2 2M734 93l-3 2M670 240a27 27 0 0 1-31-12M632 231a35 35 0 0 0 39 17M639 227a15 15 0 0 0-7-25 4 4 0 0 0-3 0 4 4 0 0 0 1 8 7 7 0 1 1-7 4 4 4 0 1 0-7-4 15 15 0 0 0 23 17z"/><path class="cls-22" d="M724 80a32 32 0 0 0-7-1c-16 0-28 11-28 26v25h13v-25c0-12 9-23 22-25zM685 195v-51a14 14 0 0 1 14-14h-17a14 14 0 0 0-14 14v51a14 14 0 0 0 14 14h17a14 14 0 0 1-14-14zM685 265v-30a5 5 0 0 1 5-4h-15a5 5 0 0 0-4 4v30a5 5 0 0 0 4 4h15a5 5 0 0 1-5-4zM708 276v-7h-13v7a10 10 0 0 0 10 11h13a10 10 0 0 1-10-11zM704 212a4 4 0 0 1 3-3h-11a4 4 0 0 0 0 7h11a4 4 0 0 1-3-4z"/><path class="cls-22" d="M704 220a4 4 0 0 1 3-4h-11a4 4 0 1 0 0 7h11a4 4 0 0 1-3-3zM704 227a4 4 0 0 1 4-3h-12a4 4 0 0 0 0 7h12a4 4 0 0 1-4-4z"/><path class="cls-6" d="M668 155v37M763 261v-24"/><rect class="cls-17" x="417" y="169" width="220" height="32" rx="3" transform="rotate(6 527 185)"/><path class="cls-23" d="M228 368v12a8 8 0 0 1-8 9h-11v-29h11a8 8 0 0 1 8 8z"/><path class="cls-18" d="M152 238v73a8 8 0 0 1-8 8h-3v-28-3a24 24 0 0 0-22-21H88s-8 0-15 7a24 24 0 0 0-4 7 24 24 0 0 0-2 10v28h-4a8 8 0 0 1-7-8v-32a26 26 0 0 1 26-26h51s16 1 19-15zM149 510v11a11 11 0 0 1-7 10h-21a11 11 0 0 1-7-10v-11z"/><path class="cls-18" d="M149 526a5 5 0 0 1-6 5h-1a11 11 0 0 0 7-10z"/><path class="cls-19" d="M121 531h21a11 11 0 0 1-4 1h-13a11 11 0 0 1-4-1z"/><path class="cls-23" d="M87 321a4 4 0 1 0 4 4 4 4 0 0 0-4-4zm45 0a4 4 0 1 0 3 4 4 4 0 0 0-3-4zm-65-2h74v17a24 24 0 0 1-24 24H89c-12-1-21-11-22-23v-4-6zM141 302v17H67v-28a24 24 0 0 1 2-10l6 9a27 27 0 0 0 11 9 32 32 0 0 0 13 3z"/><path class="cls-18" d="M141 291v11H99a32 32 0 0 1-13-3 27 27 0 0 1-11-9l-6-9a31 31 0 0 1 4-7 24 24 0 0 1 17-7h29a24 24 0 0 1 22 21v3z"/><path class="cls-13" d="M132 321a4 4 0 1 1-4 4 4 4 0 0 1 4-4z"/><path class="cls-23" d="M141 288a24 24 0 0 0-22-21 24 24 0 0 1 22 21z"/><path class="cls-20" d="M132 433v2a5 5 0 0 1-5 5H83a5 5 0 0 1-5-5v-2z"/><path class="cls-18" d="M114 521a11 11 0 0 0 7 10h-2a5 5 0 0 1-5-5z"/><path class="cls-19" d="M110 245a3 3 0 1 1 0 6h-8a3 3 0 0 1 0-6h8z"/><path class="cls-19" d="M110 240a3 3 0 0 1 0 5h-8a3 3 0 1 1 0-5h8zM111 413v3h-3v1l-1 1a1 1 0 0 0 0 1l2 2-1 2h-1l-2-1a1 1 0 0 0-1 0l-1 1a1 1 0 0 0 0 1v3l-2 1-2-3h-2a1 1 0 0 0-1 0l-1 3-3-1v-1l1-2-1-1-1-1h-1l-2 2-2-3 2-2a1 1 0 0 0 0-1l-1-1v-1h-3v-3h3a1 1 0 0 0 0-1l1-2-2-2 1-3h1l2 2a1 1 0 0 0 1 0 13 13 0 0 1 1-1 1 1 0 0 0 0-1v-3l3-1 1 3a1 1 0 0 0 1 0h1a1 1 0 0 0 1 0l1-3 3 1v3l1 2h1l3-2 1 2-2 2a1 1 0 0 0 0 1l1 2zm-9 3a5 5 0 1 0-6 3 5 5 0 0 0 6-3z"/><path class="cls-21" d="M108 223a2 2 0 1 1-2 3 2 2 0 0 1 2-3z"/><path class="cls-21" d="M108 223a2 2 0 1 0 3 3 2 2 0 0 0-3-3zm-2 17h-6v-2a10 10 0 0 0-3-6 12 12 0 0 1-3-6 11 11 0 0 1 2-9 12 12 0 0 1 7-5 24 24 0 0 1 3 0c5 0 9 3 11 7 2 5 1 9-2 13a12 12 0 0 0-3 5l-1 3h-5zm-3-12a2 2 0 1 0-2-2 2 2 0 0 0 2 2z"/><path class="cls-21" d="M106 226a2 2 0 1 1-3-3 2 2 0 0 1 3 3z"/><path class="cls-10" d="M99 410a5 5 0 1 1-6 3 5 5 0 0 1 6-3z"/><path class="cls-24" d="M128 253H83v-31a23 23 0 1 1 45 0zm-26-2h8a3 3 0 0 0 0-6 3 3 0 0 0 0-5h1l1-3a12 12 0 0 1 2-5c4-4 5-8 3-13-2-4-6-7-11-7a24 24 0 0 0-3 0 12 12 0 0 0-7 5 11 11 0 0 0-2 9 12 12 0 0 0 3 6 10 10 0 0 1 3 6v2h2a3 3 0 0 0 0 5 3 3 0 0 0 0 6z"/><path class="cls-10" d="M99 425l2 3 2-1v-3a1 1 0 0 1 0-1l1-1a1 1 0 0 1 1 0l2 1h1l1-2-2-2a1 1 0 0 1 0-1l1-1v-1h3v-1-2l-3-1-1-2a1 1 0 0 1 0-1l2-2-1-2-3 1h-1l-1-1a81 81 0 0 0 0-3l-3-1-1 3a1 1 0 0 1-1 0h-1a1 1 0 0 1-1 0l-1-3-3 1v3a13 13 0 0 0-1 1 1 1 0 0 1-1 0 69 69 0 0 0-3-1l-1 3 2 2-1 2-3 1v3h3v1l1 1a1 1 0 0 1 0 1l-2 2 2 2 2-1h1l1 1 1 1a61 61 0 0 0-1 3h3l1-2a1 1 0 0 1 1 0h1a1 1 0 0 1 1 0zm33-23v31H78v-31a5 5 0 0 1 5-5h44a5 5 0 0 1 5 5z"/><path class="cls-18" d="M94 511v12a9 9 0 0 1-9 9H69a9 9 0 0 1-9-9v-12z"/><circle class="cls-13" cx="87" cy="325" r="4"/><path class="cls-18" d="M85 532a9 9 0 0 0 9-9v4a5 5 0 0 1-5 5z"/><path class="cls-20" d="M73 481a3 3 0 0 1 2 3 3 3 0 0 1 0 2 3 3 0 0 1-2 1H60v-6zM73 493a3 3 0 0 1 2 3 3 3 0 0 1-2 3H60v-6z"/><path class="cls-18" d="M73 274c7-7 15-7 15-7h2a24 24 0 0 0-17 7z"/><path class="cls-23" d="M73 274a31 31 0 0 0-4 7 24 24 0 0 1 4-7z"/><path class="cls-18" d="M69 532h-4a5 5 0 0 1-5-5v-4a9 9 0 0 0 9 9z"/><path fill="#98bac8" d="M67 353v7H53v-7h14z"/><path class="cls-10" d="M59 324a4 4 0 1 1-4 4 4 4 0 0 1 4-4z"/><path class="cls-23" d="M60 454v16H47a10 10 0 0 1-10-10v-6z"/><path class="cls-18" d="M56 360a14 14 0 0 1-12 22c-2 0-7 1-7-2a24 24 0 0 1 7-13l1-1a24 24 0 0 1 10-6z"/><path class="cls-18" d="M45 366c4-4 9-5 10-6a24 24 0 0 0-10 6z"/><path class="cls-20" d="M37 443h11v5H37zM37 432h11v5H37z"/><path class="cls-24" d="M43 420a3 3 0 1 1-2 2 3 3 0 0 1 2-2z"/><path class="cls-23" d="M44 367z"/><path class="cls-18" d="M38 380c0-7 5-12 6-13a24 24 0 0 0-6 13z"/><path class="cls-23" d="M37 460a10 10 0 0 0 10 10h13v3H45a8 8 0 0 1-8-7z"/><path class="cls-19" d="M78 433v2a5 5 0 0 0 5 5h44a5 5 0 0 0 5-5v-33a5 5 0 0 0-5-5H83a5 5 0 0 0-5 5zm-41-53c0 3 5 2 7 2a14 14 0 0 0 12-22h-1a25 25 0 0 1 6 0h148v29h-60v121h-35v-25a10 10 0 0 0-20 0v26H60v-12h13a3 3 0 0 0 2-3 3 3 0 0 0-2-3H60v-6h13a3 3 0 0 0 2-1 3 3 0 0 0 0-2 3 3 0 0 0-2-3H60v-27H37v-6h11v-5H37v-6h11v-5H37v-48a24 24 0 0 1 1-4h-1zm9 42a3 3 0 1 0-3 3 3 3 0 0 0 3-3z"/><path class="cls-26" d="M60 481v-8M60 493v-6M60 511v-12M114 510v-25a10 10 0 0 0-20 0v26M142 531a11 11 0 0 1-4 1h-13a11 11 0 0 1-4-1M117 360h103a8 8 0 0 1 8 8v12a8 8 0 0 1-8 9h-71v121M67 360h23M55 360a25 25 0 0 1 6 0M37 432v-48a24 24 0 0 1 1-4M37 443v-6M37 454v-6M60 396v58M67 319h-4a8 8 0 0 1-7-8v-32a26 26 0 0 1 26-26h51s16 1 19-15v73a8 8 0 0 1-8 8h-3"/><path class="cls-26" d="M132 433v2a5 5 0 0 1-5 5H83a5 5 0 0 1-5-5v-33a5 5 0 0 1 5-5h44a5 5 0 0 1 5 5zM69 281a24 24 0 0 0-2 10v46c1 12 10 22 22 23h7M73 274a24 24 0 0 0-4 7M141 288a24 24 0 0 0-22-21M111 360h6a24 24 0 0 0 24-24v-34M111 360H96M83 253h45v-31a23 23 0 0 0-45 0zM44 367c-1 1-6 6-6 12v1c-1 3 4 2 7 2a14 14 0 0 0 11-22h-1c-1 1-6 2-10 6M44 367"/><path class="cls-6" d="M67 360H53v-7h14v7zM59 353v-21"/><path class="cls-26" d="M63 328a4 4 0 1 1-4-4 4 4 0 0 1 4 4zM37 443h11v5H37zM37 432h11v5H37zM46 422a3 3 0 1 1-3-2 3 3 0 0 1 3 2zM60 493h13a3 3 0 0 1 2 3 3 3 0 0 1-2 3H60zM60 481h13a3 3 0 0 1 2 3 3 3 0 0 1 0 2 3 3 0 0 1-2 1H60zM132 433H78M109 421l-1 2h-1l-2-1a1 1 0 0 0-1 0l-1 1a1 1 0 0 0 0 1v3l-2 1-2-3h-2a1 1 0 0 0-1 0l-1 3-3-1v-1l1-2-1-1-1-1h-1l-2 2-2-3 2-2a1 1 0 0 0 0-1l-1-1v-1h-3v-3h3a1 1 0 0 0 0-1l1-2-2-2 1-3h1l2 2a1 1 0 0 0 1 0 13 13 0 0 1 1-1 1 1 0 0 0 0-1v-3l3-1 1 3a1 1 0 0 0 1 0h1a1 1 0 0 0 1 0l1-3 3 1v3l1 2h1l3-2 1 2-2 2a1 1 0 0 0 0 1l1 2 3 1v3h-3v1l-1 1a1 1 0 0 0 0 1l2 2z"/><path class="cls-26" d="M102 416a5 5 0 1 0-6 3 5 5 0 0 0 6-3z"/><path class="cls-6" d="M115 406h7M115 411h7M114 416h8M114 421h7"/><path class="cls-26" d="M102 240h-2v-2a10 10 0 0 0-3-6 12 12 0 0 1-3-6 11 11 0 0 1 2-9 12 12 0 0 1 7-5 24 24 0 0 1 3 0c5 0 9 3 11 7 2 5 1 9-2 13a12 12 0 0 0-3 5l-1 3h-1"/><path class="cls-26" d="M102 245a3 3 0 1 1 0-5h8a3 3 0 0 1 0 5"/><path class="cls-26" d="M110 245a3 3 0 1 1 0 6h-8a3 3 0 0 1 0-6h8z"/><path class="cls-6" d="M106 240v-13M106 226a2 2 0 1 1-3-3 2 2 0 0 1 3 3zM111 226a2 2 0 1 1-3-3 2 2 0 0 1 3 3zM88 224h2M121 224h2M90 215l2 1M119 232l2 1M90 232l2-1M119 217l2-1M116 212l1-2M96 209l1 2M110 207v2M104 206v3"/><path class="cls-26" d="M69 281l6 9a27 27 0 0 0 11 9 32 32 0 0 0 13 3h42v-11-3a24 24 0 0 0-22-21H88s-8 0-15 7a31 31 0 0 0-4 7zM94 523v4a5 5 0 0 1-5 5H65a5 5 0 0 1-5-5v-16h34zM149 521v5a5 5 0 0 1-6 5h-24a5 5 0 0 1-5-5v-16h35zM60 473H45a8 8 0 0 1-8-7v-12h23v19zM209 360v29"/><path class="cls-20" d="M192 360h6v10h-6zM179 360h6v10h-6z"/><path class="cls-26" d="M179 360h6v10h-6zM192 360h6v10h-6z"/><path d="M165 360c0 6-5 10-12 10s-13-4-13-10z" fill="#80b5bc" stroke-width="2" stroke="#6e7f89" stroke-linejoin="round"/><path class="cls-16" d="M75 337l-1-4v-41a23 23 0 0 1 24-23h-8a23 23 0 0 0-23 23v45a23 23 0 0 0 22 22h9-2a23 23 0 0 1-21-22zM60 395a8 8 0 0 1 8 8v128h-4a4 4 0 0 1-4-4V395z"/></g></g></svg>