<svg version="1" id="Layer_1" xmlns="http://www.w3.org/2000/svg" xmlns:xlink="http://www.w3.org/1999/xlink" viewBox="0 0 891 636"><style>.st1,.st2,.st3{fill:none;stroke:#6e7f89;stroke-width:1.5;stroke-linecap:round;stroke-linejoin:round}.st2,.st3{fill:#fff}.st3{fill:#f4f5f8}.st4{fill:#6e7f89}.st5{fill:#c4d4dd;stroke:#6e7f89;stroke-width:1.5;stroke-linecap:round;stroke-linejoin:round}.st6{fill:#fe7c6f}.st7{font-family:&apos;Montserrat-Medium&apos;}.st8{font-size:9px}.st9{fill:#d4f4f2}.st10{fill:#fff}.st11,.st15{fill:none;stroke:#fe7c6f;stroke-width:1.5;stroke-linecap:round;stroke-linejoin:round}.st15{stroke:#6e7f89;stroke-dasharray:2,4}.st16{opacity:7.000000e-02;enable-background:new}.st17{font-size:6.16px}.st18{opacity:7.000000e-02}.st19{fill:#f4d4d0;stroke:#6e7f89;stroke-width:1.5;stroke-linecap:round;stroke-linejoin:round}.st20{fill:#7eb5bd}.st22{fill:#c4d4dd}.st23{fill:#f9e3d4}.st24{fill:#ffae71}.st25{fill:#d5f4f2}.st26{fill:#ff7c6e}.st28{font-size:6.1907px}.st29{fill:#80b5bc}.st30{fill:#e6edf2}.st31{fill:#fdae76}.st32{fill:#98bac8}.st33,.st34,.st35{fill:none;stroke:#6e7f89}.st33{stroke-width:1.2;stroke-linejoin:round}.st34,.st35{stroke-linecap:round}.st34{stroke-linejoin:round;stroke-width:1.2}.st35{stroke-width:1.4;stroke-miterlimit:10}.st36,.st37{fill:#80b5bc;stroke:#6e7f89;stroke-width:1.2;stroke-linejoin:round}.st37{fill:#c4d4dd}</style><path d="M181 53h603c5 0 9 4 9 10v441c0 5-4 9-9 9H181c-5 0-9-4-9-9V63c0-5 4-10 9-10z" fill="#f4f5f8"/><path class="st1" d="M181 53h603c5 0 9 4 9 10v441c0 5-4 9-9 9H181c-5 0-9-4-9-9V63c0-5 4-10 9-10z"/><path class="st2" d="M199 112h329v143H199zM557 112h206v143H557z"/><path class="st1" d="M557 147h206M557 183h206M557 220h206M581 112v143"/><path class="st2" d="M556 279h206v235H556z"/><path class="st3" d="M213 127h33v33h-33z"/><path class="st4" d="M219 133h7v7h-7zM227 133h7v7h-7zM235 133h7v7h-7zM219 140h7v7h-7zM227 140h7v7h-7zM235 140h7v7h-7zM219 148h7v7h-7zM227 148h7v7h-7zM235 148h7v7h-7z"/><path class="st3" d="M213 172h291v11H213zM213 191h256v11H213z"/><circle class="st5" cx="225" cy="225" r="11"/><path class="st1" d="M246 221h177M246 230h134"/><text transform="translate(199 87)" class="st6 st7 st8">D</text><text transform="translate(206 87)" class="st6 st7 st8">A</text><text transform="translate(213 87)" class="st6 st7 st8">SHB</text><text transform="translate(234 87)" class="st6 st7 st8">O</text><text transform="translate(241 87)" class="st6 st7 st8">ARD</text><path class="st5" d="M590 126h56v8h-56zM590 162h40v8h-40zM590 198h56v8h-56zM590 234h26v8h-26z"/><path class="st9" d="M683 172l25 1 19-6 22-13v22h-66zM749 191v21h-66v-3h22l22-18zM683 242v2h65v-18l-24 16z"/><path class="st1" d="M683 172h24l20-5 21-13M683 209h22l22-18h22M748 226l-25 16h-40M660 130h83"/><path class="st4" d="M572 234h-7l-1 1v7l1 1h7l1-1v-7l-1-1zm-1 7h-5v-1h5v1zm0-2h-5v-1h5v1zm0-3h-5 5zM569 207l-5-5v-3l3-1 1 1h1c1-1 3-2 4 0v3l-4 5c-2 2 0 0 0 0zM569 164h1l1-1h1v1l2 1 1 1c1 1 2 3 0 4l-1 1-4-2v-1h-1l-1 1-3 2-3-2c0-2 1-3 2-3l1-1 1-1 1-1h2v1zm4 6l2-2-2-2-2 2 2 2zm-10-2l2 2c2 0 2-1 2-2 1-1 0-2-2-2l-2 2zm6 0l1-1-1-1v2z"/><path class="st10" d="M486 122h33v16h-33z"/><path class="st11" d="M486 122h33v16h-33z"/><text transform="translate(495 132)" class="st6 st7" font-size="6">EDIT</text><circle class="st6" cx="569" cy="130" r="6"/><path class="st3" d="M593 301h109v10H593zM593 319h76v10h-76zM593 401h109v10H593zM593 419h76v10h-76zM593 451h109v10H593zM593 469h76v10h-76z"/><circle class="st3" cx="573" cy="355" r="6"/><path d="M573 355h6c0 3-3 6-6 6s-5-3-5-6 2-5 5-5v5z" fill="#6e8089"/><path class="st4" d="M577 301h-7l-1 1v7l1 1h7l1-1v-7l-1-1zm-1 7h-5v-1h5v1zm0-2h-5v-1h5v1zm0-2h-5v-1h5v1zM575 412l-5-5v-3l3-1 1 1h1c1-1 3-2 4 0v3l-4 5zM574 453h1l2-1 1 1 1 1 2 1v4l-2 1-4-2v-1h-1v1l-4 2-2-2 1-3 1-1 2-1v-1h2v1zm4 6c2 0 2-1 2-2l-2-2-2 2 2 2zm-9-2l2 2 2-2-2-2-2 2zm6 0v-1-1l-1 1 1 1z"/><path class="st1" d="M573 314v1"/><path fill="none" stroke="#6e7f89" stroke-width="2" stroke-linecap="round" stroke-linejoin="round" stroke-dasharray="2.02,4.03" d="M573 319v22"/><path class="st1" d="M573 343v1"/><path class="st15" d="M574 365v31M575 415v33M575 464v48"/><path class="st1" d="M593 496h104"/><path class="st16" d="M213 183h291v5H213zM213 202h256v5H213zM225 237c-6 0-11-4-11-9v1c0 6 5 11 11 11s11-5 11-11v-1c-1 5-6 9-11 9z"/><path class="st2" d="M372 279h157v189H372z"/><path class="st3" d="M379 287h28v28h-28z"/><path class="st4" d="M384 292h6v6h-6zM390 292h6v6h-6zM397 292h6v6h-6zM384 298h6v6h-6zM390 298h6v6h-6zM397 298h6v6h-6zM384 305h6v6h-6zM390 305h6v6h-6zM397 305h6v6h-6zM493 299l-4-4-1-4 3-1 1 1 1 1v-1h5v3l-5 5zM515 290h-7l-1 1v7l1 1h7l1-1v-7l-1-1zm-1 7h-5-1 6zm0-2h-5-1l1-1h5v1zm0-2h-5l-1-1h6v1zM474 291h1l1-1h1v1l2 1 1 1c1 1 2 3 0 4l-1 1c-2 1-4-1-4-2v-1h-2v1c0 2-2 3-4 2l-2-2 1-3 1-1 2-1 1-1h1l1 1zm4 6l2-2-2-2-2 2 2 2zm-10-2l2 2 2-2-2-2-2 2zm6 0l1-1-1-1-1 1 1 1z"/><path class="st5" d="M379 326h109v8H379zM379 339h109v8H379zM379 353h70v8h-70z"/><path class="st3" d="M379 413h70v8h-70z"/><path class="st6" d="M380 435h80v16h-80z"/><text transform="translate(386 446)" class="st10 st7 st17">VIEW APPLI</text><text transform="translate(425 446)" class="st10 st7 st17">C</text><text transform="translate(430 446)" class="st10 st7 st17">A</text><text transform="translate(434 446)" class="st10 st7 st17">TIONS</text><g class="st18"><path d="M381 380h23l1 2v10l-1 2h-23l-2-2v-10l2-2zM412 380h23l2 2v10l-1 2h-24l-1-2v-10l1-2zM444 380h23l2 2v10l-2 2h-23l-1-2v-10l1-2zM476 380h23l2 2v10l-2 2h-23l-1-2v-10l1-2z"/></g><path class="st19" d="M381 376h23l1 2v10l-1 2h-23l-2-2v-10l2-2zM412 376h23l2 2v10l-1 2h-24l-1-2v-10l1-2zM444 376h23l2 2v10l-2 2h-23l-1-2v-10l1-2zM476 376h23l2 2v10l-2 2h-23l-1-2v-10l1-2z"/><path class="st16" d="M379 421h70v5h-70zM380 451h80v4h-80zM464 451h36v4h-36z"/><path class="st10" d="M465 435h34v16h-34z"/><path class="st11" d="M465 435h34v16h-34z"/><text transform="translate(474 445)" class="st6 st7 st17">EDIT</text><path class="st16" d="M593 311h109v4H593zM593 329h77v4h-77zM593 378h77v4h-77zM593 412h109v4H593zM593 430h77v4h-77zM593 461h109v4H593zM593 479h77v4h-77zM199 256h330v7H199zM372 467h157v7H372zM556 256h208v7H556z"/><ellipse class="st16" cx="115" cy="555" rx="47" ry="6"/><path class="st20" d="M65 308v53c0 5 4 8 8 8h13s-9 0-8-11v-40c0-13 11-23 23-23h26c13 0 24 11 24 24v48h19s-8 0-8-12v-38s2-31-28-38l-4-1H92c-11 1-20 8-24 17l-1 2-2 11z"/><path fill="#97bac9" d="M70 469v46h89v-46h-46z"/><path class="st22" d="M70 400v69h45v-21a20 20 0 0 1 0-40h1v-21H83c-7 0-13 6-13 13z"/><path class="st20" d="M75 536v11c0 6 4 10 10 10h14c6 0 10-4 10-10v-11H75z"/><path class="st23" d="M75 516v20h34v-21H75zM78 319v39c0 11 8 11 8 11h-7c2 10 12 17 22 17h26c13 1 24-10 24-23v-31H89v-6c0-5-4-9-8-9v1h-3v1zm16 33a4 4 0 1 1 4 4c-2 0-4-2-4-4zm44 0a4 4 0 1 1 4 4c-2 0-4-2-4-4z"/><path class="st20" d="M78 318h3c4 0 8 3 8 8v5h62v-13c0-13-11-23-24-23h-26c-12 0-23 10-23 23z"/><path class="st4" d="M98 348a4 4 0 1 0 4 4c0-2-2-4-4-4z"/><path class="st24" d="M100 267v11h7v-11c0-2-1-3-3-3h-2c-1 0-2 1-2 3zM104 246a12 12 0 0 0 16 17l1-1-8-9-8-8-1 1z"/><path class="st25" d="M116 413h-1a15 15 0 1 0 0 30h1v-30zM117 252c-2 0-3-1-3-3s1-3 3-3 3 2 3 3c0 2-1 3-3 3zm-13 12c2 0 3 1 3 3v11h-7v-11c0-2 1-3 2-3h2zm9-11l8 9h-1a12 12 0 0 1-16-16l1-1 8 8zm-19 25h41v-30a22 22 0 0 0-44 0v30h3z"/><path class="st24" d="M117 246c-2 0-3 2-3 3s1 3 3 3 3-1 3-3c0-1-1-3-3-3z"/><path class="st26" d="M115 443a15 15 0 1 1 0-30v-5a20 20 0 0 0 0 40v-5z"/><path class="st25" d="M116 430v13c6-1 12-6 14-12l-3-1h-11zM116 423v7h4v-2c0-3-2-5-4-5z"/><path class="st25" d="M120 430h6v-2c0-6-4-11-11-12v7c3 0 5 2 5 5v2z"/><path class="st25" d="M130 428c0-8-6-15-14-15v3c6 1 10 6 10 12v2h1l3 1v-3z"/><path class="st26" d="M130 431c-2 6-8 11-15 12v5a20 20 0 0 0 0-40v5a15 15 0 0 1 15 18z"/><path class="st20" d="M119 536v11c0 5 5 9 10 9h15c5 0 9-4 9-9v-11h-34z"/><path class="st23" d="M119 515h34v21h-34z"/><path class="st4" d="M142 349a4 4 0 1 0 4 3c0-2-2-3-4-3z"/><path class="st22" d="M156 391c-3-3-7-5-11-5h-30v22a20 20 0 0 1 0 40v21h44v-50l-5-29 2 1z"/><path class="st22" d="M159 400l-3-9-2-1 5 29v-19z"/><path class="st20" d="M195 415a9 9 0 0 0-9 11l18-6c-2-3-5-6-9-5z"/><path class="st22" d="M195 415c4-1 7 2 9 5 8-4 17-12 27-23l-21-15c-11 13-22 20-31 20h-1c-10 0-19-7-22-11l3 9v23l6 2a48 48 0 0 0 21 2v-1-2c-1-5 4-9 9-9z"/><path class="st1" d="M154 390l2 1c3 3 12 10 22 10h1c9 1 20-6 31-19l6-7c2-3 6-4 10-2l9 6c3 2 4 7 1 10v1l-5 7c-10 11-19 19-27 23a54 54 0 0 1-25 7l-15-2-5-2M78 357v-39c0-13 11-23 23-23h26c13 0 24 11 24 24v44c0 13-11 24-23 24h-1"/><path class="st1" d="M101 387H83c-7 0-13 5-13 13v115h89V400c0-7-6-13-14-13h-23M159 469H70M116 448v21M116 387v21M151 367h19s-8 0-8-12v-38s2-31-28-38l-4-1H92c-11 1-20 8-24 17l-1 2-2 11v53c0 5 4 8 8 8h13s-9 0-8-11"/><path class="st1" d="M151 332H89v-6c0-5-4-9-8-9v1h-3M153 515v32c0 5-4 9-10 9h-14c-5 0-10-4-10-9v-32M153 536h-34M109 516v31c0 6-4 10-10 10H85c-6 0-10-5-10-10v-31M109 536H75M130 279h5v-31a22 22 0 0 0-44 0v30h39z"/><path class="st1" d="M104 262c4 5 11 5 16 1l1-1-8-9-8-8-1 1c-4 4-5 11 0 16zM114 249c0 2 1 3 3 3s3-1 3-3-1-3-3-3-3 2-3 3zM115 252l-2 1M124 249c0-3-3-7-7-7M129 249c0-6-6-11-12-11"/><path class="st1" d="M100 278h7v-11c0-2-1-3-3-3h-2c-1 0-2 1-2 3v11zM79 369c2 10 12 17 22 17h21M126 428c0-6-4-11-11-12M123 428c0-4-3-8-8-8M120 428c0-3-2-5-5-5M115 430h12M204 420c-2-5-8-7-13-5a10 10 0 0 0-5 11M231 397l-21-15"/><path class="st1" d="M116 413h-1a15 15 0 1 0 0 30h1a15 15 0 0 0 0-30z"/><path class="st16" d="M142 365v-5l1-5v-36c0-13-11-24-24-24h8c13 0 23 11 23 24v46c-1 11-10 21-22 21h-9 1c12 0 21-10 22-21zM151 387v128h7V397c0-5-3-8-7-10z"/><defs><path id="SVGID_1_" d="M119 515v32c0 5 5 9 10 9h15c5 0 9-4 9-9v-32"/></defs><clipPath id="SVGID_2_"><use xlink:href="#SVGID_1_" overflow="visible"/></clipPath><g clip-path="url(#SVGID_2_)"><path class="st16" d="M147 516h8v40h-8z"/></g><path class="st16" d="M84 558h-2v-42h-8v32c0 5 5 10 10 10zM108 226l5-1c12 0 22 10 22 23v30h-9v-31c0-10-7-19-18-21z"/><path transform="rotate(-6 271 372) scale(.99999)" class="st2" d="M192 278h157v189H192z"/><path transform="rotate(-6 206 306) scale(.99999)" class="st3" d="M192 292h28v28h-28z"/><path transform="rotate(-6 199 301) scale(.99999)" class="st4" d="M196 298h6v6h-6z"/><path transform="rotate(-6 206 300) scale(.99999)" class="st4" d="M203 297h6v6h-6z"/><path transform="matrix(.995 -.0995 .0995 .995 -29 23)" class="st4" d="M212 297h6v6h-6z"/><path transform="rotate(-6 200 307) scale(.99999)" class="st4" d="M197 304h6v6h-6z"/><path transform="rotate(-6 206 306) scale(.99999)" class="st4" d="M204 304h6v6h-6z"/><path transform="rotate(-6 213 306) scale(.99999)" class="st4" d="M210 303h6v6h-6z"/><path transform="rotate(-6 200 313) scale(.99999)" class="st4" d="M198 311h6v6h-6z"/><path transform="rotate(-6 207 313) scale(.99999)" class="st4" d="M204 310h6v6h-6z"/><path transform="rotate(-6 214 312) scale(.99999)" class="st4" d="M211 309h6v6h-6z"/><path class="st4" d="M306 295l-5-4-1-4 3-1h1l1 1 1-1 3-1 2 3-1 2-4 5zM326 284h-6l-1 1 1 8h7l1-1-1-8h-1zm0 7h-5l5-1v1c1 0 0 0 0 0zm0-2h-5l5-1v1zm0-3l-5 1h-1l1-1h5zM286 289l1-1h2l2 1 1 1a3 3 0 0 1-1 5c-1 1-3 0-4-2h-1c0 2-2 3-4 3l-2-2v-3l1-1 2-1 1-1h1l1 1zm5 6l2-3-3-2c-1 0-2 1-2 3 0 1 1 2 3 2zm-11-2c0 2 2 2 3 2l2-2c0-1-1-2-3-2l-2 2zm7 0v-1l-1-1c1 0 0 0 0 0v1l1 1z"/><path transform="rotate(-6 249 331) scale(.99999)" class="st5" d="M195 327h109v8H195z"/><path transform="rotate(-6 251 344) scale(.99999)" class="st5" d="M196 341h109v8H196z"/><path transform="rotate(-6 232 360) scale(.99999)" class="st5" d="M198 356h70v8h-70z"/><path transform="rotate(-6 238 420) scale(.99999)" class="st3" d="M203 416h70v8h-70z"/><path transform="rotate(-6 247 445) scale(.99999)" class="st6" d="M207 437h80v16h-80z"/><text transform="matrix(.995 -.0995 .0995 .995 214 451)" class="st10 st7 st28">VIEW APPLI</text><text transform="matrix(.995 -.0995 .0995 .995 253 447)" class="st10 st7 st28">C</text><text transform="matrix(.995 -.0995 .0995 .995 257 447)" class="st10 st7 st28">A</text><text transform="matrix(.995 -.0995 .0995 .995 261 446)" class="st10 st7 st28">TIONS</text><g class="st18"><path d="M202 387l23-3 1 2 1 10c1 1 0 2-1 2l-23 2-2-1-1-11 2-1zM233 383l23-2 2 2 1 10-1 2-23 2-2-2-1-10 1-2zM265 380l23-2 2 2 1 10-2 2-23 2-1-2-1-10 1-2zM297 377l23-2 1 2 2 10-2 1-23 3-2-2-1-10 2-2z"/></g><path class="st19" d="M201 383l23-3 2 2 1 10-1 2-23 2-2-1-1-11 1-1zM233 379l23-2 2 2 1 10-2 2-23 2-2-2-1-10 2-2zM265 376l23-2 1 2 1 10c1 1 0 2-1 2l-23 2-2-2-1-10 2-2zM296 373l23-2 2 2 1 10-1 2-23 2-2-2-1-10 1-2z"/><path transform="rotate(-6 239 426) scale(.99999)" class="st16" d="M204 424h70v5h-70z"/><path transform="rotate(-6 248 455) scale(.99999)" class="st16" d="M208 453h81v4h-81z"/><path transform="rotate(-6 309 449) scale(.99999)" class="st16" d="M292 447h36v4h-36z"/><path transform="rotate(-6 309 439) scale(.99999)" class="st10" d="M292 431h34v16h-34z"/><path transform="rotate(-6 309 439) scale(.99999)" class="st11" d="M292 431h34v16h-34z"/><text transform="matrix(.995 -.0995 .0995 .995 301 442)" class="st6 st7 st28">EDIT</text><path transform="rotate(-6 281 471) scale(.99999)" class="st16" d="M203 467h157v7H203z"/><path class="st29" d="M837 335v11h-6a6 6 0 1 1 0-11h6zM837 335z"/><path class="st22" d="M823 341c0-1-1-2-3-2s-2 1-2 2c0 2 1 3 2 3 2 0 3-1 3-3zm-56 8v-10-4 11h6a6 6 0 1 0 0-11h-5c1-10 6-19 14-25h40c8 6 13 15 15 25h-6a6 6 0 1 0 0 11h6v-11 14c0 7-6 13-13 13h-44c-7 0-13-6-13-13zm44-5h-17c0 4 4 8 9 8 4-1 7-4 8-8zm-24-3c0-1-1-2-3-2s-2 1-2 2c0 2 1 3 2 3 2 0 3-1 3-3z"/><path class="st4" d="M820 339c2 0 3 1 3 2 0 2-1 3-3 3-1 0-2-1-2-3l2-2z"/><path class="st30" d="M822 311h-7v-4l7 4z"/><path class="st26" d="M785 362h33v8h-33z"/><path class="st31" d="M815 307v4h-7v-6l7 2z"/><path class="st31" d="M815 303v4l-7-2v-2l3-3h1l3 3zM810 286c3 4 3 9 0 12-3 4-8 4-12 1v-1l5-6 6-6h1z"/><path class="st32" d="M810 401v4c0 4-4 8-8 8h-1c-5 0-8-4-8-8v-4h17z"/><path class="st26" d="M806 346c1 0 3 1 2 2-3 5-7 3-7 3-1-3 1-5 4-5h1z"/><path class="st30" d="M808 305v5h-26c8-5 17-7 26-5z"/><path class="st30" d="M811 300c-2 0-3 2-3 3v2c-9-2-18 0-26 6v-18c0-5 2-9 6-13 4-3 9-5 14-5 11 0 20 8 20 18v18l-7-4v-4c0-2-2-3-3-3h-1zm-10-9h1l1-2-2-2c-2 0-3 1-3 2l3 2zm3 1l-6 6v1a9 9 0 1 0 12-13h-1l-5 6z"/><path class="st31" d="M801 287l2 2-1 2h-2l-2-2c0-1 1-2 3-2z"/><path class="st4" d="M802 352c-4 0-8-4-8-8h17c0 4-4 8-9 8zm-1-1s4 2 7-3c1-1-1-2-2-2-3 0-5 2-5 4v1z"/><path class="st32" d="M790 376v1l-1 1h-8l-2-1v-1l2-1h8l1 1zM790 383l-1 1h-8l-2-1v-1l2-1h8l1 2z"/><path class="st22" d="M781 378h8v3h-8z"/><path class="st4" d="M784 339c2 0 3 1 3 2 0 2-1 3-3 3-1 0-2-1-2-3l2-2z"/><path class="st22" d="M779 377l2 1v3l-2 1v1l2 1h8l1-1v-1l-1-1v-3l1-1v-1l-1-1h-8l-2 1v1zm49-8v18c0 8-6 14-14 14h-25c-8 0-15-6-15-14v-18h54z"/><path class="st29" d="M777 337c2 2 2 5 0 8l-4 1h-6v-11h6l4 2zM767 335z"/><path class="st33" d="M782 311c-8 5-13 14-15 24M837 335c-2-10-7-19-15-24M818 362h6c7 0 13-6 13-13v-10-4M767 335v14c0 7 6 13 13 13h5"/><path class="st33" d="M837 335v11h-6a6 6 0 1 1 0-11h6M767 335v11h6a6 6 0 1 0 0-11h-6zM785 362h33v8h-33z"/><path class="st34" d="M815 311h7v-18c0-10-9-18-20-18-5 0-10 2-14 5-3 4-6 8-6 13v18h26"/><path class="st33" d="M789 401h25c8 0 14-6 14-14v-18h-54v18c0 8 7 14 15 14z"/><path class="st35" d="M781 378h8l1-1v-1l-1-1h-8l-2 1v1l2 1zM781 381l-2 1v1l2 1h7l2-1v-1l-2-1h-7z"/><path class="st33" d="M801 413h1c4 0 8-4 8-8v-4h-17v4c0 4 3 8 8 8zM808 348c1-1-1-2-2-2-3 0-5 2-5 4v1s4 2 7-3z"/><path class="st35" d="M810 298c-3 4-8 4-12 1v-1l5-6 6-6h1c3 4 4 9 0 12z"/><path class="st33" d="M803 289l-1 2h-2l-2-2 2-2c2 0 3 1 3 2zM795 289c0-3 3-5 5-5M792 289c0-5 4-9 8-9h1"/><path class="st35" d="M815 311h-7v-8l3-3h1l3 3v8z"/><path class="st36" d="M757 352c0 9 8 17 17 17v6c-12-1-22-11-23-23h6z"/><path class="st37" d="M758 333c-2 0-3 2-3 3l1 2c2 2 3 5 1 7-1 2-4 2-6 1s-3-4-1-6v-1c2-1 2-3 1-4s-3-2-4-1v1c-5 3-5 10-1 14 3 4 10 5 14 1a10 10 0 0 0-1-16l-1-1z"/><path class="st36" d="M846 392c0-9-8-17-18-17v-6c13 1 23 10 24 23h-6z"/><path class="st37" d="M845 411l3-3-2-2c-2-2-2-5-1-7 2-2 4-2 7-1s2 4 1 6l-1 1v4h4v1c4-4 4-10 1-15-4-4-10-4-14-1a10 10 0 0 0 1 16l1 1z"/><circle cx="769" cy="299" r="3" fill="#98bac8" stroke="#6e7f89" stroke-linecap="round" stroke-linejoin="round"/><path class="st34" d="M833 294v11M827 299h12M764 385h-10"/><path class="st3" d="M644 334h109v10H644zM593 368h76v10h-76z"/><path class="st16" d="M644 344h109v4H644z"/><path class="st23" d="M149 455c0 5-3 9-8 9h-10v-25h8c5 0 8 3 9 8l1 8z"/><path class="st22" d="M131 439v25h-5c-14-1-25-4-34-8v-1c3-3 2-7 0-10-3-4-9-5-13-3l-1 2h-1a49 49 0 0 1-12-37c1-12 4-16 6-17 4-5 12-5 17-1 4 3 5 9 4 14-1 2-4 15 4 25 6 7 18 11 35 11z"/><path class="st20" d="M91 456c-5-3-10-7-14-12h1l1-2c4-2 10-1 13 3 2 3 2 7 0 10v1h-1z"/><path class="st1" d="M77 444a49 49 0 0 1-12-37c1-12 4-16 6-17 4-5 12-5 17-1 4 3 5 9 4 14-1 2-4 15 4 25 6 7 18 11 35 11h8c5 0 8 3 9 8l1 8c0 5-3 9-8 9h-15c-14-1-25-4-34-8l-1-1c-10-5-14-11-14-11z"/><path class="st1" d="M92 455c2-3 2-7 0-10-3-4-9-5-13-3l-1 2M131 439v26"/><path class="st16" d="M590 134h56v5h-56zM590 170h42v5h-42zM590 206h57v5h-57zM590 243h27v5h-27z"/></svg>