<?xml version="1.0" encoding="UTF-8"?>
<svg version="1.1" viewBox="0 0 609 315" xmlns="http://www.w3.org/2000/svg">
<g fill="none" fill-rule="evenodd">
<g transform="translate(1)">
<g transform="translate(497 7)">
<path d="m63.9 31.71v44h-63.3v-44c0-17.48 14.17-31.65 31.65-31.65s31.65 14.17 31.65 31.65z" fill="#D5F4F2" fill-rule="nonzero"/>
<path d="m0.6 75.66v-43.95c0-17.48 14.17-31.65 31.65-31.65s31.65 14.17 31.65 31.65v44l-63.3-0.05z" stroke="#6E7F89" stroke-linejoin="round" stroke-width="2"/>
</g>
<g transform="translate(509 27)">
<path d="m37.31 32.56c2.4722 3.3e-6 4.7007 1.4897 5.6459 3.7741 0.94512 2.2844 0.42054 4.9132-1.329 6.6598-1.7495 1.7467-4.3792 2.2669-6.662 1.3181s-3.7689-3.1799-3.7649-5.652c-2.2e-6 -1.6196 0.64405-3.1726 1.7902-4.3169 1.1461-1.1443 2.7003-1.7858 4.3198-1.7831z" fill="#FE7C6F" fill-rule="nonzero"/>
<path d="m6.3 1.19c2.4731-0.0040443 4.7047 1.4831 5.653 3.7672 0.94828 2.2841 0.42617 4.9145-1.3226 6.6632-1.7487 1.7487-4.3792 2.2708-6.6632 1.3226-2.2841-0.94828-3.7712-3.1799-3.7672-5.653 0-1.6178 0.64268-3.1694 1.7866-4.3134 1.144-1.144 2.6955-1.7866 4.3134-1.7866z" fill="#FE7C6F" fill-rule="nonzero"/>
<path d="m6.3 32.56c2.4731-0.0040443 4.7047 1.4831 5.653 3.7672 0.94828 2.2841 0.42617 4.9145-1.3226 6.6632-1.7487 1.7487-4.3792 2.2708-6.6632 1.3226-2.2841-0.94828-3.7712-3.1799-3.7672-5.653 0-1.6178 0.64268-3.1694 1.7866-4.3134 1.144-1.144 2.6955-1.7866 4.3134-1.7866z" fill="#FE7C6F" fill-rule="nonzero"/>
<path d="m12.41 7.29c0.0040461 2.4722-1.482 4.7032-3.7649 5.652-2.2828 0.94886-4.9125 0.42859-6.662-1.3181-1.7495-1.7467-2.2741-4.3755-1.329-6.6598 0.94512-2.2844 3.1737-3.7741 5.6459-3.7741 1.6196-0.002655 3.1737 0.63885 4.3198 1.7831 1.1461 1.1443 1.7902 2.6973 1.7902 4.3169z" stroke="#6E7F89" stroke-linejoin="round" stroke-width="2"/>
<polyline points="6.3 13.4 6.3 32.56 6.3 33.29" stroke="#6E7F89" stroke-linejoin="round" stroke-width="2"/>
<path d="m12.41 38.66c0.0040461 2.4722-1.482 4.7032-3.7649 5.652-2.2828 0.94886-4.9125 0.42859-6.662-1.3181-1.7495-1.7467-2.2741-4.3755-1.329-6.6598 0.94512-2.2844 3.1737-3.7741 5.6459-3.7741 3.3706-4.5e-6 6.1045 2.7294 6.11 6.1z" stroke="#6E7F89" stroke-linejoin="round" stroke-width="2"/>
<path d="m43.41 38.66c0.0040443 2.4731-1.4831 4.7047-3.7672 5.653-2.2841 0.94828-4.9145 0.42617-6.6632-1.3226-1.7487-1.7487-2.2708-4.3792-1.3226-6.6632 0.94828-2.2841 3.1799-3.7712 5.653-3.7672 3.3667 0.0055056 6.0945 2.7333 6.1 6.1z" stroke="#6E7F89" stroke-linejoin="round" stroke-width="2"/>
<path d="m37.31 32.56v-18.28c0-3.866-3.134-7-7-7h-12.26" stroke="#6E7F89" stroke-linejoin="round" stroke-width="2"/>
<polyline points="24.73 0.12 18.05 7.29 25.53 13.95" stroke="#6E7F89" stroke-linejoin="round" stroke-width="2"/>
</g>
<path d="m468.59 278.14h-31.87c-17.673 0-32-14.327-32-32v-59.45h40.15v35.65c-0.015949 3.08 1.1937 6.0398 3.3622 8.2271 2.1685 2.1873 5.1178 3.4223 8.1978 3.4329h102.16c26.648 0 48.25 21.602 48.25 48.25v31.62h-138.25v-35.73z" fill="#C4D4DD" fill-rule="nonzero"/>
<path d="m444.84 169.09v17.6h-40.15l5e-6 -17.6c-0.002654-2.7759 1.0982-5.439 3.0601-7.4028 1.9619-1.9638 4.624-3.0672 7.3999-3.0672h19.22c5.7824 0 10.47 4.6876 10.47 10.47z" fill="#F8E3D5" fill-rule="nonzero"/>
<path d="m468.59 282.2v31.62h138.25v-31.62c-0.027594-26.628-21.622-48.2-48.25-48.2h-58.83" stroke="#6E7F89" stroke-linejoin="round" stroke-width="2"/>
<path d="m499.76 234h-43.33c-3.0765-0.002651-6.026-1.2273-8.1995-3.4046-2.1735-2.1773-3.3931-5.1289-3.3905-8.2054v-53.3c0-5.7824-4.6876-10.47-10.47-10.47h-19.22c-2.7759-1e-6 -5.438 1.1034-7.3999 3.0672-1.9619 1.9638-3.0628 4.6269-3.0601 7.4028v77c0 17.673 14.327 32 32 32h31.87" stroke="#6E7F89" stroke-linejoin="round" stroke-width="2"/>
<polyline points="468.59 264.08 468.59 278.14 468.59 282.2" stroke="#6E7F89" stroke-linejoin="round" stroke-width="2"/>
<path d="m404.69 186.69h40.15" stroke="#6E7F89" stroke-linejoin="round" stroke-width="2"/>
<path d="m316.08 40.53v43.95h-24.33c1.4431 1.05e-5 2.6145-1.1669 2.62-2.61v-5.28c-0.005508-1.4431-1.1769-2.61-2.62-2.61h0.33c1.2056-0.0055051 2.18-0.98439 2.18-2.19v-2.94c-0.010927-1.1978-0.98216-2.1646-2.18-2.17h-0.08c0.1-1 0.36-3.16 0.57-4.17 0.68374-2.7632 2.0604-5.3066 4-7.39 4.53-5.22 5.69-11.17 3-17.54-2.78-6.6-8.08-9.82-15.4-10.25-1 0.14-2.15 0.22-3.3 0.5-4.0091 0.98153-7.5264 3.3833-9.9 6.76-2.6109 3.4149-3.68 7.7637-2.95 12 0.51864 3.3395 2.0674 6.4335 4.43 8.85 2.1528 2.207 3.5318 5.0527 3.93 8.11 0.11535 1.0327 0.17544 2.0709 0.18 3.11h0.45c-1.1985 0-2.17 0.97154-2.17 2.17v2.94c-0.002658 0.57817 0.22447 1.1337 0.63143 1.5444 0.40696 0.41071 0.9604 0.64293 1.5386 0.64557h0.55c-1.4415 0-2.61 1.1685-2.61 2.61v5.28c0 1.4415 1.1685 2.61 2.61 2.61h-24.78v-43.93c0-17.48 14.17-31.65 31.65-31.65s31.65 14.17 31.65 31.65z" fill="#D5F4F2" fill-rule="nonzero"/>
<path d="m284.44 66.68h-7.84c-0.004562-1.0391-0.064648-2.0773-0.18-3.11-0.39817-3.0573-1.7772-5.903-3.93-8.11-2.3626-2.4165-3.9114-5.5105-4.43-8.85-0.73002-4.2363 0.33906-8.5851 2.95-12 2.3736-3.3767 5.8909-5.7785 9.9-6.76 1.15-0.28 2.34-0.36 3.3-0.5 7.32 0.43 12.62 3.65 15.4 10.25 2.67 6.37 1.51 12.32-3 17.54-1.9396 2.0834-3.3163 4.6268-4 7.39-0.21 1-0.47 3.14-0.57 4.17l-7.6-0.02zm6.78-20.17c-0.005519-1.8709-1.5257-3.3837-3.3966-3.38-1.8709 0.0036767-3.3852 1.5224-3.3833 3.3933 0.001835 1.8709 1.519 3.3867 3.39 3.3867 0.90164 0.0026834 1.767-0.35499 2.4036-0.99349 0.63662-0.6385 0.99174-1.5049 0.9864-2.4065zm-7.05 0c-8e-6 -1.8709-1.5157-3.3881-3.3867-3.39-1.8709-0.0018343-3.3896 1.5124-3.3933 3.3833-0.003677 1.8709 1.5091 3.3911 3.38 3.3966 0.90696 3.53e-5 1.7763-0.36229 2.4148-1.0064 0.63849-0.64413 0.99317-1.5167 0.98517-2.4236v0.04z" fill="#FDAE76" fill-rule="nonzero"/>
<path d="m294.37 76.59v5.28c-0.005508 1.4431-1.1769 2.61-2.62 2.61h-14.15c-0.69222 0-1.3561-0.27498-1.8455-0.76445s-0.76445-1.1533-0.76445-1.8455v-5.28c0.010986-1.4336 1.1763-2.59 2.61-2.59h14.15c1.4354-9.41e-5 2.6036 1.1547 2.62 2.59z" fill="#98BAC8" fill-rule="nonzero"/>
<path d="m294.26 68.85v2.94c1.3e-5 1.2056-0.9744 2.1845-2.18 2.19h-15c-0.57817-0.0026461-1.1316-0.23487-1.5386-0.64557-0.40696-0.41071-0.63409-0.96625-0.63143-1.5444v-2.94c0-1.1985 0.97154-2.17 2.17-2.17h15c1.1978 0.0054198 2.1691 0.9722 2.18 2.17z" fill="#98BAC8" fill-rule="nonzero"/>
<path d="m287.83 43.13c1.372 6e-6 2.6088 0.82704 3.1329 2.095 0.52412 1.268 0.23224 2.7269-0.73936 3.6956-0.97161 0.96874-2.4313 1.2563-3.6978 0.72844-1.2664-0.52786-2.0898-1.767-2.0858-3.1391-4e-6 -0.89817 0.35748-1.7594 0.99351-2.3936s1.4983-0.98909 2.3965-0.98644z" fill="#FDAE76" fill-rule="nonzero"/>
<path d="m280.77 43.08c1.372-0.0040473 2.6112 0.81933 3.1391 2.0858 0.52786 1.2664 0.2403 2.7262-0.72844 3.6978-0.96874 0.97161-2.4276 1.2635-3.6956 0.73936-1.268-0.52412-2.095-1.7609-2.095-3.1329 0.005456-1.8661 1.5139-3.379 3.38-3.39z" fill="#FDAE76" fill-rule="nonzero"/>
<path d="m291.75 84.48h24.33v-43.95c0-17.48-14.17-31.65-31.65-31.65s-31.65 14.17-31.65 31.65v43.95h24.82" stroke="#6E7F89" stroke-linejoin="round" stroke-width="2"/>
<path d="m259.09 41.63h3.14" stroke="#6E7F89" stroke-linejoin="round" stroke-width="2"/>
<path d="m305.76 41.63h3.14" stroke="#6E7F89" stroke-linejoin="round" stroke-width="2"/>
<path d="m262.3 29.39l2.74 1.55" stroke="#6E7F89" stroke-linejoin="round" stroke-width="2"/>
<path d="m303.45 31.89l2.81-1.41" stroke="#6E7F89" stroke-linejoin="round" stroke-width="2"/>
<path d="m298.04 25l2.03-2.4" stroke="#6E7F89" stroke-linejoin="round" stroke-width="2"/>
<path d="m271.05 20.36l1.64 2.68" stroke="#6E7F89" stroke-linejoin="round" stroke-width="2"/>
<path d="m290.71 17.65l-0.85 3.03" stroke="#6E7F89" stroke-linejoin="round" stroke-width="2"/>
<path d="m281.19 16.89l0.36 3.12" stroke="#6E7F89" stroke-linejoin="round" stroke-width="2"/>
<path d="m277.05 66.68h-0.45c-0.004562-1.0391-0.064648-2.0773-0.18-3.11-0.39817-3.0573-1.7772-5.903-3.93-8.11-2.3626-2.4165-3.9114-5.5105-4.43-8.85-0.73002-4.2363 0.33906-8.5851 2.95-12 2.3736-3.3767 5.8909-5.7785 9.9-6.76 1.15-0.28 2.34-0.36 3.3-0.5 7.32 0.43 12.62 3.65 15.4 10.25 2.67 6.37 1.51 12.32-3 17.54-1.9396 2.0834-3.3163 4.6268-4 7.39-0.21 1-0.47 3.14-0.57 4.17" stroke="#6E7F89" stroke-linejoin="round" stroke-width="2"/>
<path d="m277.6 74h-0.55c-0.57817-0.0026461-1.1316-0.23487-1.5386-0.64557-0.40696-0.41071-0.63409-0.96625-0.63143-1.5444v-2.94c0-1.1985 0.97154-2.17 2.17-2.17h15c1.1978 0.0054198 2.1691 0.9722 2.18 2.17v2.94c1.3e-5 1.2056-0.9744 2.1845-2.18 2.19h-0.33" stroke="#6E7F89" stroke-linejoin="round" stroke-width="2"/>
<path d="m277.6 84.48c-0.69222 0-1.3561-0.27498-1.8455-0.76445s-0.76445-1.1533-0.76445-1.8455v-5.28c0.010986-1.4336 1.1763-2.59 2.61-2.59h14.15c1.4431-1.05e-5 2.6145 1.1669 2.62 2.61v5.28c-0.005508 1.4431-1.1769 2.61-2.62 2.61" stroke="#6E7F89" stroke-linejoin="round" stroke-width="2"/>
<path d="m284.44 66.68v-18.51" stroke="#6E7F89" stroke-linejoin="round" stroke-width="2"/>
<path d="m302.95 54.72l2.74 1.54" stroke="#6E7F89" stroke-linejoin="round" stroke-width="2"/>
<path d="m261.73 55.18l2.81-1.42" stroke="#6E7F89" stroke-linejoin="round" stroke-width="2"/>
<path d="m284.17 46.47c-8e-6 1.8709-1.5157 3.3881-3.3867 3.39-1.8709 0.0018343-3.3896-1.5124-3.3933-3.3833-0.003677-1.8709 1.5091-3.3911 3.38-3.3966 1.8739-8.1e-6 3.3945 1.5161 3.4 3.39z" stroke="#6E7F89" stroke-linejoin="round" stroke-width="2"/>
<path d="m291.22 46.51c0.004047 1.372-0.81933 2.6112-2.0858 3.1391-1.2664 0.52786-2.7262 0.2403-3.6978-0.72844-0.97161-0.96874-1.2635-2.4276-0.73936-3.6956 0.52412-1.268 1.7609-2.095 3.1329-2.095 1.8661 0.0054563 3.379 1.5139 3.39 3.38z" stroke="#6E7F89" stroke-linejoin="round" stroke-width="2"/>
<path d="m367.05 171.82c9.4931 4.0988 15.4 13.706 14.773 24.028-0.62702 10.321-7.6538 19.143-17.573 22.062 0.35728 1.6934 0.53825 3.4193 0.54 5.15 1e-6 13.56-10.99 24.554-24.55 24.56h-111c-7.4112-0.015387-14.42-3.3726-19.077-9.1378-4.6572-5.7652-6.4657-13.323-4.9226-20.572-9.9116-2.9265-16.931-11.745-17.56-22.06-0.62891-10.315 5.267-19.921 14.75-24.03-6.3783-6.3648-8.7591-15.711-6.203-24.352 2.5561-8.6406 9.6385-15.188 18.453-17.058-4.2837-8.7473-2.9936-19.199 3.2884-26.643 6.2821-7.4432 16.369-10.471 25.712-7.7174 1.5029-8.9441 7.8126-16.332 16.411-19.216 8.5988-2.8837 18.087-0.79384 24.679 5.4357 6.5872-6.2325 16.075-8.3242 24.672-5.4396 8.5973 2.8846 14.903 10.275 16.398 19.22 9.3426-2.7534 19.429 0.27423 25.712 7.7174 6.2821 7.4432 7.5722 17.895 3.2884 26.643 8.8171 1.8672 15.902 8.4155 18.457 17.058 2.5547 8.643 0.16821 17.991-6.2169 24.352h-0.03z" fill="#80B5BC" fill-rule="nonzero"/>
<path d="m229.23 247.62c-7.4112-0.015387-14.42-3.3726-19.077-9.1378-4.6572-5.7652-6.4657-13.323-4.9226-20.572-9.9116-2.9265-16.931-11.745-17.56-22.06-0.62891-10.315 5.267-19.921 14.75-24.03-6.3783-6.3648-8.7591-15.711-6.203-24.352 2.5561-8.6406 9.6385-15.188 18.453-17.058-4.2837-8.7473-2.9936-19.199 3.2884-26.643 6.2821-7.4432 16.369-10.471 25.712-7.7174 1.5029-8.9441 7.8126-16.332 16.411-19.216 8.5988-2.8837 18.087-0.79384 24.679 5.4357 6.5872-6.2325 16.075-8.3242 24.672-5.4396 8.5973 2.8846 14.903 10.275 16.398 19.22 9.3426-2.7534 19.429 0.27423 25.712 7.7174 6.2821 7.4432 7.5722 17.895 3.2884 26.643 8.8171 1.8672 15.902 8.4155 18.457 17.058 2.5547 8.643 0.16821 17.991-6.2169 24.352 9.4931 4.0988 15.4 13.706 14.773 24.028-0.62702 10.321-7.6538 19.143-17.573 22.062 0.35728 1.6934 0.53825 3.4193 0.54 5.15 1e-6 13.56-10.99 24.554-24.55 24.56h-111.03z" stroke="#6E7F89" stroke-linejoin="round" stroke-width="2"/>
<path d="m276.7 234h29.63c8.9802 0 17.593-3.5674 23.943-9.9174 6.35-6.35 9.9174-14.962 9.9174-23.943v-64.2c0-18.7-15.16-33.86-33.86-33.86h-37.78c-18.696 0.005522-33.85 15.164-33.85 33.86v52c0 2.66 0.09 5.33 0.29 8l0.47 6.52c1.21 16.84 14.58 30.63 31.44 31.45h1.65 29.64" fill="#F8E3D5" fill-rule="nonzero" stroke="#6E7F89" stroke-linejoin="round" stroke-width="2"/>
<circle cx="327.14" cy="183.72" r="5.36" fill="#6E7F89" fill-rule="nonzero"/>
<circle cx="263.68" cy="184.22" r="5.36" fill="#6E7F89" fill-rule="nonzero"/>
<path d="m269.67 102.08h36.56c18.778 0 34 15.222 34 34v16.13h-59c-6.9161-0.00121-13.74-1.585-19.95-4.63-5.6822-2.8411-10.546-7.0849-14.13-12.33l-9.33-13.44c1.6299-3.1753 3.7004-6.1042 6.15-8.7 6.6617-7.0883 15.973-11.084 25.7-11.03z" fill="#80B5BC" fill-rule="nonzero" stroke="#6E7F89" stroke-linejoin="round" stroke-width="2"/>
<path d="m246.84 202.54l-0.48-6.5c-0.19-2.66-0.28-5.31-0.28-8v-51.85c0.04233-9.0006 3.6591-17.616 10.054-23.949 6.3953-6.3334 15.045-9.8663 24.046-9.8215l-11.07 4.8e-4c-9.0023-0.047858-17.655 3.4838-24.052 9.8175-6.3975 6.3337-10.016 14.95-10.058 23.952v51.88c0 2.66 0.09 5.31 0.29 8l0.47 6.5c1.22 16.8 14.69 30.56 31.67 31.37h1.67 11.07-1.67c-16.98-0.84-30.44-14.6-31.66-31.4z" fill="#000" fill-rule="nonzero" opacity=".07" style="mix-blend-mode:multiply"/>
<path d="m154.69 165.18c0 5.9647-4.8353 10.8-10.8 10.8h-114.66c-5.9624-0.005513-10.794-4.8376-10.8-10.8v-45.49c0.060409-20.47 16.64-37.05 37.11-37.11h59.54c10.506-0.0026534 20.583 4.1697 28.011 11.599 7.4289 7.4289 11.601 17.505 11.599 28.011v42.99z" fill="#80B5BC" fill-rule="nonzero" stroke="#6E7F89" stroke-linejoin="round" stroke-width="2"/>
<path d="m75.83 234h29.64c18.7 0 33.86-15.16 33.86-33.86v-64.2c0-18.7-15.16-33.86-33.86-33.86h-37.78c-18.7 0-33.86 15.16-33.86 33.86v52c0 2.66 0.1 5.33 0.29 8l0.47 6.52c1.22 16.84 14.58 30.63 31.45 31.45h1.65 29.64" fill="#F8E3D5" fill-rule="nonzero" stroke="#6E7F89" stroke-linejoin="round" stroke-width="2"/>
<circle cx="126.28" cy="183.72" r="5.36" fill="#6E7F89" fill-rule="nonzero"/>
<circle cx="62.82" cy="184.22" r="5.36" fill="#6E7F89" fill-rule="nonzero"/>
<path d="m68.81 102.08h36.55c18.778 0 34 15.222 34 34v16.13h-59c-6.9131 9.8e-5 -13.734-1.5838-19.94-4.63-5.6834-2.8434-10.549-7.0866-14.14-12.33l-9.32-13.44c1.6282-3.1738 3.6951-6.1026 6.14-8.7 6.6641-7.0908 15.979-11.087 25.71-11.03z" fill="#80B5BC" fill-rule="nonzero" stroke="#6E7F89" stroke-linejoin="round" stroke-width="2"/>
<path d="m46 202.54l-0.5-6.54c-0.19-2.66-0.29-5.31-0.29-8v-51.81c0.093661-18.741 15.359-33.859 34.1-33.77l-11.07 3.87e-4c-18.741-0.088583-34.006 15.029-34.1 33.77v51.88c0 2.66 0.1 5.31 0.29 8l0.48 6.5c1.22 16.8 14.68 30.56 31.67 31.37h1.66 11.07-1.67c-16.98-0.84-30.44-14.6-31.64-31.4z" fill="#000" fill-rule="nonzero" opacity=".07" style="mix-blend-mode:multiply"/>
<path d="m66.52 81.83v-36.18s-0.15-38.84 22.77-39.95l-8.28-5-35.18 17.88 1.09 63.25h19.6z" fill="#000" fill-rule="nonzero" opacity=".1" style="mix-blend-mode:multiply"/>
<path d="m119.78 38.71v44h-63.3v-44c0-17.48 14.17-31.65 31.65-31.65 17.48 0 31.65 14.17 31.65 31.65zm-19.49 14.59c4.53-5.22 5.69-11.17 3-17.54-2.78-6.61-8.09-9.82-15.41-10.25-1 0.14-2.15 0.22-3.29 0.49-4.0129 0.979-7.5321 3.3855-9.9 6.77-2.6132 3.4139-3.6825 7.7637-2.95 12 0.51476 3.3407 2.0641 6.4359 4.43 8.85 2.1511 2.2083 3.5297 5.0533 3.93 8.11 0.14 1 0.13 2.08 0.18 3.12h0.45c-1.2017 0.0054748-2.1745 0.97829-2.18 2.18v2.97c0.0054748 1.2017 0.97829 2.1745 2.18 2.18-1.1585 0.063572-2.0664 1.0197-2.07 2.18v2.94c0.0054748 1.2017 0.97829 2.1745 2.18 2.18h15c1.2001-0.005505 2.17-0.97991 2.17-2.18v-2.94c1.26e-5 -1.2001-0.96993-2.1745-2.17-2.18 1.1939-0.016344 2.1547-0.98601 2.16-2.18v-3c1.26e-5 -1.2001-0.96993-2.1745-2.17-2.18h-0.08c0.1-1 0.35-3.16 0.57-4.17 0.67516-2.7484 2.0418-5.2785 3.97-7.35z" fill="#D5F4F2" fill-rule="nonzero"/>
<path d="m88.13 64.86h-7.83c0-1 0-2.09-0.18-3.12-0.40027-3.0567-1.7789-5.9017-3.93-8.11-2.3659-2.4141-3.9152-5.5093-4.43-8.85-0.7325-4.2363 0.33682-8.5861 2.95-12 2.3679-3.3845 5.8871-5.791 9.9-6.77 1.14-0.27 2.34-0.35 3.29-0.49 7.32 0.43 12.63 3.64 15.41 10.25 2.67 6.37 1.51 12.32-3 17.54-1.9451 2.0795-3.3225 4.6244-4 7.39-0.22 1-0.47 3.13-0.57 4.17l-7.61-0.01zm6.79-20.17c0-1.3711-0.82595-2.6072-2.0927-3.132-1.2668-0.52471-2.7249-0.23467-3.6944 0.73486s-1.2596 2.4276-0.73486 3.6944c0.52471 1.2668 1.7608 2.0927 3.132 2.0927 1.8722 0 3.39-1.5178 3.39-3.39zm-7.06 0c0-1.8722-1.5178-3.39-3.39-3.39s-3.39 1.5178-3.39 3.39 1.5178 3.39 3.39 3.39c0.90606 6.31e-5 1.7744-0.36258 2.4113-1.007 0.63691-0.64443 0.98935-1.517 0.97865-2.423v0.04z" fill="#FDAE76" fill-rule="nonzero"/>
<path d="m98.06 74.33v2.94c1.26e-5 1.2001-0.96993 2.1745-2.17 2.18h-15c-1.2017-0.0054748-2.1745-0.97829-2.18-2.18v-2.94c0.0035553-1.1603 0.91145-2.1164 2.07-2.18h15.14c1.1883 0.021808 2.1402 0.99147 2.14 2.18z" fill="#98BAC8" fill-rule="nonzero"/>
<path d="m98 67v3c-0.0032421 1.1566-0.90539 2.1113-2.06 2.18h-15.19c-1.2017-0.0054748-2.1745-0.97829-2.18-2.18v-3c0.0054748-1.2017 0.97829-2.1745 2.18-2.18h15c0.5902-0.018961 1.1628 0.20232 1.5869 0.61322 0.4241 0.4109 0.66336 0.97627 0.66305 1.5668z" fill="#98BAC8" fill-rule="nonzero"/>
<circle cx="91.53" cy="44.69" r="3.39" fill="#FDAE76" fill-rule="nonzero"/>
<circle cx="84.47" cy="44.65" r="3.39" fill="#FDAE76" fill-rule="nonzero"/>
<path d="m119.78 82.66v-43.95c0-17.48-14.17-31.65-31.65-31.65-17.48 0-31.65 14.17-31.65 31.65v44l63.3-0.05z" stroke="#6E7F89" stroke-linejoin="round" stroke-width="2"/>
<path d="m62.79 39.81h3.14" stroke="#6E7F89" stroke-linejoin="round" stroke-width="2"/>
<path d="m109.46 39.81h3.14" stroke="#6E7F89" stroke-linejoin="round" stroke-width="2"/>
<path d="m66.01 27.57l2.73 1.54" stroke="#6E7F89" stroke-linejoin="round" stroke-width="2"/>
<path d="m107.15 30.07l2.81-1.41" stroke="#6E7F89" stroke-linejoin="round" stroke-width="2"/>
<path d="m101.74 23.18l2.03-2.4" stroke="#6E7F89" stroke-linejoin="round" stroke-width="2"/>
<path d="m74.75 18.53l1.63 2.69" stroke="#6E7F89" stroke-linejoin="round" stroke-width="2"/>
<path d="m94.4 15.82l-0.85 3.03" stroke="#6E7F89" stroke-linejoin="round" stroke-width="2"/>
<path d="m84.89 15.06l0.36 3.12" stroke="#6E7F89" stroke-linejoin="round" stroke-width="2"/>
<path d="m80.75 64.86h-0.45c0-1 0-2.09-0.18-3.12-0.40027-3.0567-1.7789-5.9017-3.93-8.11-2.3659-2.4141-3.9152-5.5093-4.43-8.85-0.7325-4.2363 0.33682-8.5861 2.95-12 2.3679-3.3845 5.8871-5.791 9.9-6.77 1.14-0.27 2.34-0.35 3.29-0.49 7.32 0.43 12.63 3.64 15.41 10.25 2.67 6.37 1.51 12.32-3 17.54-1.9451 2.0795-3.3225 4.6244-4 7.39-0.22 1-0.47 3.13-0.57 4.17" stroke="#6E7F89" stroke-linejoin="round" stroke-width="2"/>
<path d="m80.75 72.15c-1.2017-0.0054748-2.1745-0.97829-2.18-2.18v-2.97c0.0054748-1.2017 0.97829-2.1745 2.18-2.18h15c0.5902-0.018961 1.1628 0.20232 1.5869 0.61322 0.4241 0.4109 0.66336 0.97627 0.66305 1.5668v3c-0.0032421 1.1566-0.90539 2.1113-2.06 2.18" stroke="#6E7F89" stroke-linejoin="round" stroke-width="2"/>
<path d="m95.89 72.15c1.2001 0.005505 2.17 0.97991 2.17 2.18v2.94c1.26e-5 1.2001-0.96993 2.1745-2.17 2.18h-15c-1.2017-0.0054748-2.1745-0.97829-2.18-2.18v-2.94c0.0035553-1.1603 0.91145-2.1164 2.07-2.18h15.14-0.03z" stroke="#6E7F89" stroke-linejoin="round" stroke-width="2"/>
<path d="m88.13 64.86v-18.51" stroke="#6E7F89" stroke-linejoin="round" stroke-width="2"/>
<path d="m106.65 52.9l2.73 1.54" stroke="#6E7F89" stroke-linejoin="round" stroke-width="2"/>
<path d="m65.43 53.35l2.81-1.41" stroke="#6E7F89" stroke-linejoin="round" stroke-width="2"/>
<circle cx="84.47" cy="44.65" r="3.39" stroke="#6E7F89" stroke-linejoin="round" stroke-width="2"/>
<circle cx="91.53" cy="44.69" r="3.39" stroke="#6E7F89" stroke-linejoin="round" stroke-width="2"/>
<path d="m268 254.55h-9c-4.5313 0.016484-8.199 3.6887-8.21 8.22v30.74c0.010994 4.5297 3.6803 8.199 8.21 8.21h63.21c4.5297-0.010994 8.199-3.6803 8.21-8.21v-30.74c-0.010968-4.5313-3.6787-8.2035-8.21-8.22h-54.21zm100.79 44.1v15.18h-156.47l2.4e-5 -20.67h17.2c3.0376 0 5.5-2.4624 5.5-5.5s-2.4624-5.5-5.5-5.5h-17.2c-0.005214-5.1964 0.82886-10.36 2.47-15.29 7.5634 4.3717 17.174 2.6815 22.792-4.0084 5.618-6.6899 5.6214-16.448 0.008135-23.142 7.0598-3.8305 14.968-5.8282 23-5.81h60c8.1067-0.013334 16.085 2.0268 23.19 5.93-5.4863 6.6738-5.4572 16.304 0.069253 22.945 5.5265 6.6406 14.992 8.4182 22.551 4.2351 1.6161 4.8838 2.4365 9.9957 2.43 15.14v5.48h-17.2c-2.2178-4.7e-5 -4.2169 1.3366-5.0643 3.3861-0.84739 2.0495-0.37593 4.4077 1.1943 5.9739 1.02 1.0368 2.4156 1.6174 3.87 1.61l17.16 0.04z" fill="#C4D4DD" fill-rule="nonzero"/>
<path d="m368.83 287.68v11l-17.2-7.1e-5c-1.4544 0.007441-2.85-0.57318-3.87-1.61-1.5702-1.5662-2.0417-3.9244-1.1943-5.9739 0.84739-2.0495 2.8465-3.3862 5.0643-3.3861l17.2-0.03z" fill="#E6EDF2" fill-rule="nonzero"/>
<path d="m366.4 267.06c-7.5592 4.183-17.024 2.4055-22.551-4.2351-5.5265-6.6406-5.5556-16.271-0.069253-22.945 10.704 5.8757 18.786 15.587 22.62 27.18z" fill="#7EB5BD" fill-rule="nonzero"/>
<path d="m330.39 262.77v30.74c-0.010994 4.5297-3.6803 8.199-8.21 8.21h-54.18v-47.17l54.14 6e-6c4.5469-0.005532 8.239 3.6731 8.25 8.22z" fill="#E6EDF2" fill-rule="nonzero"/>
<path d="m268 278.11v23.61h-9c-4.5297-0.010994-8.199-3.6803-8.21-8.21v-15.4h17.21zm-4.89 15.05c0-2.1484-1.7416-3.89-3.89-3.89s-3.89 1.7416-3.89 3.89 1.7416 3.89 3.89 3.89c1.0394 0.013399 2.0407-0.39084 2.7795-1.1221 0.73879-0.73127 1.1532-1.7284 1.1505-2.7679h-0.04z" fill="#9BB4BF" fill-rule="nonzero"/>
<path d="m268 254.55v23.56h-17.24v-15.34c0.010968-4.5313 3.6787-8.2035 8.21-8.22h9.03zm-5.32 10.05c0.004047-1.5743-0.94115-2.9958-2.3944-3.601-1.4533-0.60525-3.1281-0.27491-4.2427 0.83683-1.1146 1.1117-1.4493 2.7857-0.84775 4.2405 0.60151 1.4548 2.0206 2.4037 3.5948 2.4037 1.0361 0.007984 2.0327-0.39664 2.7701-1.1246 0.73731-0.72793 1.1547-1.7193 1.1599-2.7554h-0.04z" fill="#9BB4BF" fill-rule="nonzero"/>
<path d="m259.26 289.28c1.5752-0.004044 2.9973 0.94224 3.602 2.3967 0.60466 1.4545 0.27248 3.1301-0.84133 4.2439-1.1138 1.1138-2.7894 1.446-4.2439 0.84133-1.4545-0.60466-2.4008-2.0268-2.3967-3.602 0-2.1429 1.7371-3.88 3.88-3.88z" fill="#E6EDF2" fill-rule="nonzero"/>
<path d="m258.83 260.71c1.5786-0.024351 3.0153 0.90782 3.6364 2.3593 0.62105 1.4515 0.30321 3.1344-0.80444 4.2594-1.1077 1.125-2.7854 1.469-4.2464 0.87055s-2.4154-2.0205-2.4156-3.5993c0.005102-2.123 1.7074-3.8519 3.83-3.89z" fill="#E6EDF2" fill-rule="nonzero"/>
<path d="m237.59 239.76c5.6133 6.6938 5.6099 16.452-0.008135 23.142-5.618 6.6899-15.228 8.38-22.792 4.0084 3.8934-11.608 12.04-21.309 22.8-27.15z" fill="#7EB5BD" fill-rule="nonzero"/>
<path d="m229.52 282.2c1.4551-0.002655 2.8515 0.57353 3.8814 1.6015s1.6086 2.4234 1.6086 3.8785c-0.010998 3.0259-2.4641 5.4745-5.49 5.48h-17.2v-11l17.2 0.04z" fill="#E6EDF2" fill-rule="nonzero"/>
<path d="m66.26 254.55h-9.06c-4.5251 0.027396-8.1836 3.6948-8.2 8.22v30.74c0.016484 4.5313 3.6887 8.199 8.22 8.21h63.2c4.5313-0.010968 8.2035-3.6787 8.22-8.21v-30.74c-0.016454-4.5329-3.6871-8.2035-8.22-8.22h-54.16zm100.8 27.65l8.6e-5 31.63h-156.51l2.441e-4 -15.52h23.59v-5.95h-23.59v-4.21h23.59v-5.95h-23.59c-0.016573-5.1924 0.81088-10.353 2.45-15.28 7.5654 4.3708 17.177 2.6775 22.793-4.0156s5.6148-16.453-0.0033404-23.144c7.0598-3.8305 14.968-5.8282 23-5.81h60c8.1135-0.016715 16.099 2.0235 23.21 5.93-5.5043 6.6757-5.4802 16.323 0.057436 22.971 5.5376 6.6481 15.022 8.4157 22.583 4.2087 1.6127 4.8844 2.4298 9.9963 2.42 15.14zm-7 5.95c8e-6 -1.8186-1.4714-3.2945-3.29-3.3h-19.17c-0.87884 0.009756-1.7175 0.36969-2.33 1-0.63408 0.60991-0.99473 1.4502-1 2.33 0.010919 1.818 1.482 3.2891 3.3 3.3h19.16c0.8743 4e-6 1.7126-0.34799 2.3299-0.96715 0.61728-0.61916 0.96273-1.4586 0.96008-2.3328l0.04-0.03z" fill="#C4D4DD" fill-rule="nonzero"/>
<path d="m164.63 267.06c-7.56 4.195-17.035 2.4224-22.567-4.2219-5.5321-6.6443-5.5587-16.283-0.063378-22.958 10.706 5.8761 18.791 15.587 22.63 27.18z" fill="#7EB5BD" fill-rule="nonzero"/>
<path d="m156.76 284.85c1.8225 0 3.3 1.4775 3.3 3.3s-1.4775 3.3-3.3 3.3h-19.16c-1.818-0.010919-3.2891-1.482-3.3-3.3 0.005269-0.87979 0.36592-1.7201 1-2.33 0.61251-0.63031 1.4512-0.99024 2.33-1l19.13 0.03z" fill="#E6EDF2" fill-rule="nonzero"/>
<path d="m128.62 262.77v30.74c-0.016484 4.5313-3.6887 8.199-8.22 8.21h-54.14v-47.17h54.14c4.5329 0.016454 8.2035 3.6871 8.22 8.22z" fill="#E6EDF2" fill-rule="nonzero"/>
<path d="m66.26 254.55v47.17h-9.06c-4.5235-0.021929-8.1836-3.6865-8.2-8.21v-30.74c0.016454-4.5329 3.6871-8.2035 8.22-8.22h9.04zm-3.13 8.14c-0.0054651-0.99736-0.81264-1.8045-1.81-1.81h-6.93c-0.99964 0-1.81 0.81036-1.81 1.81s0.81036 1.81 1.81 1.81h6.93c0.99512-0.010817 1.7992-0.81488 1.81-1.81zm-1.32 17.68v-11.15h-8.64v11.15h8.64zm-0.44 12.79c-0.0055195-2.1416-1.7451-3.8737-3.8866-3.87-2.1416 0.003677-3.8752 1.7418-3.8733 3.8833 0.0018351 2.1416 1.7384 3.8767 3.88 3.8767 1.0316 0.002679 2.0216-0.40662 2.7501-1.137s1.1353-1.7214 1.1299-2.753z" fill="#9BB4BF" fill-rule="nonzero"/>
<path d="m61.32 260.88c0.99736 0.005465 1.8045 0.81264 1.81 1.81-0.010818 0.99512-0.81488 1.7992-1.81 1.81h-6.93c-0.99964 0-1.81-0.81036-1.81-1.81s0.81036-1.81 1.81-1.81h6.93z" fill="#E6EDF2" fill-rule="nonzero"/>
<rect x="53.17" y="269.22" width="8.64" height="11.15" fill="#7EB5BD" fill-rule="nonzero"/>
<path d="m61.37 293.16h-7.76c0-2.1429 1.7371-3.88 3.88-3.88s3.88 1.7371 3.88 3.88z" fill="#E6EDF2" fill-rule="nonzero"/>
<path d="m53.61 293.16h7.76c0 2.1429-1.7371 3.88-3.88 3.88s-3.88-1.7371-3.88-3.88z" fill="#E6EDF2" fill-rule="nonzero"/>
<path d="m35.81 239.76c5.6382 6.6931 5.6455 16.471 0.017349 23.173-5.6282 6.7015-15.261 8.3839-22.827 3.9871 3.8883-11.616 12.041-21.323 22.81-27.16z" fill="#7EB5BD" fill-rule="nonzero"/>
<rect x="10.55" y="292.36" width="23.59" height="5.95" fill="#E6EDF2" fill-rule="nonzero"/>
<rect x="10.55" y="282.2" width="23.59" height="5.95" fill="#E6EDF2" fill-rule="nonzero"/>
<path d="m212.32 282.2c0.005303-12.79 5.0921-25.055 14.141-34.094 9.0489-9.0395 21.319-14.114 34.109-14.106h60c12.797-0.002654 25.07 5.0803 34.117 14.13 9.0476 9.0495 14.128 21.324 14.123 34.12l4e-6 5.48" stroke="#6E7F89" stroke-linejoin="round" stroke-width="2"/>
<polyline points="368.83 298.65 368.83 313.83 212.32 313.83 212.32 293.16" stroke="#6E7F89" stroke-linejoin="round" stroke-width="2"/>
<path d="m237.59 239.76c5.6133 6.6938 5.6099 16.452-0.008135 23.142-5.618 6.6899-15.228 8.38-22.792 4.0084" stroke="#6E7F89" stroke-linejoin="round" stroke-width="2"/>
<path d="m366.41 267.06c-7.5592 4.183-17.024 2.4055-22.551-4.2351-5.5265-6.6406-5.5556-16.271-0.069253-22.945" stroke="#6E7F89" stroke-linejoin="round" stroke-width="2"/>
<path d="m268 254.55h54.14c4.5313 0.016484 8.199 3.6887 8.21 8.22v30.74c-0.010994 4.5297-3.6803 8.199-8.21 8.21h-63.14c-4.5297-0.010994-8.199-3.6803-8.21-8.21v-30.74c0.010968-4.5313 3.6787-8.2035 8.21-8.22h9z" stroke="#6E7F89" stroke-linejoin="round" stroke-width="2"/>
<polyline points="268.04 254.5 268.04 254.55 268.04 278.11 268.04 301.72" stroke="#6E7F89" stroke-linejoin="round" stroke-width="2"/>
<path d="m263.15 293.16c0.004047 1.5743-0.94115 2.9958-2.3944 3.601-1.4533 0.60525-3.1281 0.27491-4.2427-0.83683-1.1146-1.1117-1.4493-2.7857-0.84775-4.2405 0.60151-1.4548 2.0206-2.4037 3.5948-2.4037 2.1445-7e-6 3.8845 1.7355 3.89 3.88z" stroke="#6E7F89" stroke-linejoin="round" stroke-width="2"/>
<path d="m262.72 264.6c0 2.1484-1.7416 3.89-3.89 3.89s-3.89-1.7416-3.89-3.89 1.7416-3.89 3.89-3.89 3.89 1.7416 3.89 3.89z" stroke="#6E7F89" stroke-linejoin="round" stroke-width="2"/>
<path d="m10.55 282.2c-4.4e-6 -12.79 5.0837-25.056 14.132-34.097 9.0479-9.0404 21.318-14.114 34.108-14.103h60c12.798-0.005308 25.074 5.0765 34.124 14.126s14.132 21.325 14.126 34.124l4e-6 31.63h-156.49v-15.57" stroke="#6E7F89" stroke-linejoin="round" stroke-width="2"/>
<path d="m10.55 292.36v-4.21" stroke="#6E7F89" stroke-linejoin="round" stroke-width="2"/>
<path d="m35.81 239.76c5.6382 6.6931 5.6455 16.471 0.017349 23.173-5.6282 6.7015-15.261 8.3839-22.827 3.9871" stroke="#6E7F89" stroke-linejoin="round" stroke-width="2"/>
<path d="m164.64 267.06c-7.5607 4.207-17.045 2.4394-22.583-4.2087-5.5376-6.6481-5.5618-16.296-0.057436-22.971" stroke="#6E7F89" stroke-linejoin="round" stroke-width="2"/>
<path d="m66.26 254.55h54.14c4.5329 0.016454 8.2035 3.6871 8.22 8.22v30.74c-0.016484 4.5313-3.6887 8.199-8.22 8.21h-63.2c-4.5235-0.021929-8.1836-3.6865-8.2-8.21v-30.74c0.016454-4.5329 3.6871-8.2035 8.22-8.22h9.04z" stroke="#6E7F89" stroke-linejoin="round" stroke-width="2"/>
<polyline points="66.27 254.5 66.27 254.55 66.27 301.72" stroke="#6E7F89" stroke-linejoin="round" stroke-width="2"/>
<path d="m61.32 264.5h-6.93c-0.99964 0-1.81-0.81036-1.81-1.81s0.81036-1.81 1.81-1.81h6.93c0.99736 0.005465 1.8045 0.81264 1.81 1.81-0.010818 0.99512-0.81488 1.7992-1.81 1.81z" stroke="#6E7F89" stroke-linejoin="round" stroke-width="2"/>
<path d="m61.37 293.16c0 1.5693-0.94533 2.9841-2.3952 3.5847-1.4499 0.60055-3.1187 0.26859-4.2284-0.84108-1.1097-1.1097-1.4416-2.7785-0.84108-4.2284 0.60055-1.4499 2.0153-2.3952 3.5847-2.3952 2.1429 0 3.88 1.7371 3.88 3.88z" stroke="#6E7F89" stroke-linejoin="round" stroke-width="2"/>
<path d="m156.76 291.45h-19.16c-1.818-0.010919-3.2891-1.482-3.3-3.3 0.005269-0.87979 0.36592-1.7201 1-2.33 0.61251-0.63031 1.4512-0.99024 2.33-1h19.16c1.8225 0 3.3 1.4775 3.3 3.3s-1.4775 3.3-3.3 3.3l-0.03 0.03z" stroke="#6E7F89" stroke-linejoin="round" stroke-width="2"/>
<rect x="53.17" y="269.22" width="8.64" height="11.15" stroke="#6E7F89" stroke-linejoin="round" stroke-width="2"/>
<polyline points="10.55 282.19 34.14 282.19 34.14 288.15 10.55 288.15" stroke="#6E7F89" stroke-linejoin="round" stroke-width="2"/>
<polyline points="10.55 292.36 34.14 292.36 34.14 298.31 10.55 298.31" stroke="#6E7F89" stroke-linejoin="round" stroke-width="2"/>
<path d="m212.32 282.2l17.2 9e-6c1.4551-0.002655 2.8515 0.57353 3.8814 1.6015s1.6086 2.4234 1.6086 3.8785c-0.010998 3.0259-2.4641 5.4745-5.49 5.48h-17.2" stroke="#6E7F89" stroke-linejoin="round" stroke-width="2"/>
<path d="m368.83 287.68h-17.2c-2.2178-4.7e-5 -4.2169 1.3366-5.0643 3.3861-0.84739 2.0495-0.37593 4.4077 1.1943 5.9739 1.02 1.0368 2.4156 1.6174 3.87 1.61l17.2 7.1e-5" stroke="#6E7F89" stroke-linejoin="round" stroke-width="2"/>
<path d="m250.76 278.11h17.28" stroke="#6E7F89" stroke-linejoin="round" stroke-width="2"/>
<path d="m57.49 271.93v5.11" stroke="#6E7F89" stroke-linecap="round" stroke-linejoin="round" stroke-width="2"/>
<path d="m53.61 293.16h7.76" stroke="#6E7F89" stroke-linecap="round" stroke-linejoin="round" stroke-width="2"/>
<path d="m150.48 245.81v-24.73" fill="#E6EDF2" fill-rule="nonzero" stroke="#6E7F89" stroke-linecap="round" stroke-linejoin="round" stroke-width="2"/>
<circle cx="150.48" cy="220.17" r="6.52" fill="#E6EDF2" fill-rule="nonzero" stroke="#6E7F89" stroke-linecap="round" stroke-linejoin="round" stroke-width="2"/>
<path d="m278.83 234l-18.26 1e-6c-12.796-0.002653-25.068 5.0786-34.117 14.126-9.0489 9.047-14.133 21.319-14.133 34.114v31.64h18.26v-31.69c0.027597-26.627 21.623-48.196 48.25-48.19z" fill="#000" fill-rule="nonzero" opacity=".07" style="mix-blend-mode:multiply"/>
<path d="m77.05 234h-18.26c-26.648 0-48.25 21.602-48.25 48.25v31.65h18.26v-31.63c-0.0026524-12.799 5.0793-25.076 14.128-34.128 9.0486-9.0524 21.323-14.139 34.122-14.142z" fill="#000" fill-rule="nonzero" opacity=".07" style="mix-blend-mode:multiply"/>
<path d="m322.64 301.5h-64.13c-4.5992-0.016455-8.3235-3.7408-8.34-8.34v6.39c0.016455 4.5992 3.7408 8.3235 8.34 8.34h64.13c4.6015-0.010995 8.329-3.7385 8.34-8.34v-6.39c-0.010995 4.6015-3.7385 8.329-8.34 8.34z" fill="#000" fill-rule="nonzero" opacity=".07" style="mix-blend-mode:multiply"/>
<path d="m120.86 302h-64.13c-4.5953-0.021932-8.3136-3.7447-8.33-8.34v6.39c0.016418 4.5953 3.7347 8.3181 8.33 8.34h64.13c4.5992-0.016455 8.3235-3.7408 8.34-8.34v-6.35c-0.038306 4.5836-3.7563 8.2837-8.34 8.3z" fill="#000" fill-rule="nonzero" opacity=".07" style="mix-blend-mode:multiply"/>
<path d="m32.25 55.47c1.9019 4.3e-6 3.6163 1.1462 4.3432 2.9037s0.32293 3.7798-1.0233 5.1232c-1.3463 1.3434-3.3695 1.743-5.1254 1.0124-1.7559-0.73062-2.8985-2.4475-2.8944-4.3494-2.8e-6 -1.2456 0.49549-2.44 1.3772-3.3199 0.88171-0.87983 2.0772-1.3728 3.3228-1.3701z" fill="#D5F4F2" fill-rule="nonzero"/>
<path d="m36.94 60.16c0.0040442 1.9028-1.1396 3.6203-2.8968 4.3503-1.7572 0.73003-3.7812 0.32856-5.1266-1.0169-1.3455-1.3455-1.747-3.3695-1.0169-5.1266 0.73003-1.7572 2.4475-2.9008 4.3503-2.8968 2.5902 0 4.69 2.0998 4.69 4.69z" stroke="#6E7F89" stroke-linejoin="round" stroke-width="2"/>
<path d="m5.78 200.96v10.18" stroke="#6E7F89" stroke-linecap="round" stroke-linejoin="round" stroke-width="2"/>
<path d="m0.69 206.05h10.19" stroke="#6E7F89" stroke-linecap="round" stroke-linejoin="round" stroke-width="2"/>
<path d="m368.83 298.65v-12.66" stroke="#6E7F89" stroke-linejoin="round" stroke-width="2"/>
<path d="m583.55 176h4.6c5.9624-0.005513 10.794-4.8376 10.8-10.8v-45.51c-0.060409-20.47-16.64-37.05-37.11-37.11h-73.15s-21.61 1.09-26-21.25v103.85c0 5.9647 4.8353 10.8 10.8 10.8h110.06v0.02z" fill="#80B5BC" fill-rule="nonzero" stroke="#6E7F89" stroke-linejoin="round" stroke-width="2"/>
<path d="m541.55 234h-29.64c-8.9793 0-17.591-3.5677-23.939-9.918-6.3484-6.3503-9.9136-14.963-9.9109-23.942v-64.2c-0.002653-8.9793 3.5625-17.592 9.9109-23.942 6.3484-6.3503 14.96-9.918 23.939-9.918h37.78c18.7 0 33.86 15.16 33.86 33.86v52c0 2.66-0.1 5.33-0.29 8l-0.47 6.52c-1.21 16.84-14.58 30.63-31.44 31.45h-1.66-29.64" fill="#F8E3D5" fill-rule="nonzero" stroke="#6E7F89" stroke-linejoin="round" stroke-width="2"/>
<circle cx="491.11" cy="183.72" r="5.36" fill="#6E7F89" fill-rule="nonzero"/>
<circle cx="554.56" cy="184.22" r="5.36" fill="#6E7F89" fill-rule="nonzero"/>
<path d="m548.57 102.08h-36.57c-18.778 0-34 15.222-34 34v16.13l59-1.9e-5c6.933 0.006429 13.775-1.5775 20-4.63 5.6822-2.8411 10.546-7.0849 14.13-12.33l9.32-13.44c-1.6282-3.1738-3.6951-6.1026-6.14-8.7-6.6712-7.0985-15.999-11.096-25.74-11.03z" fill="#80B5BC" fill-rule="nonzero" stroke="#6E7F89" stroke-linejoin="round" stroke-width="2"/>
<path d="m592.37 278.94c0.80754 0.80504 1.0485 2.0183 0.60996 3.0708-0.43856 1.0526-1.4697 1.7357-2.61 1.7292h-7.13c-0.75056 5.12e-4 -1.4704-0.2982-2-0.83-0.53561-0.52709-0.83501-1.2486-0.83-2 0.005443-1.5513 1.2587-2.809 2.81-2.82h7.13c0.75994 0.001662 1.4875 0.30782 2.02 0.85z" fill="#9BB4BF" fill-rule="nonzero"/>
<path d="m592.37 290.06c0.53561 0.52709 0.83501 1.2486 0.83 2-0.005486 1.5552-1.2648 2.8145-2.82 2.82h-7.13c-1.4896-0.088823-2.6521-1.3228-2.6521-2.815s1.1625-2.7262 2.6521-2.815h7.13c0.74381-0.001014 1.4583 0.28982 1.99 0.81z" fill="#9BB4BF" fill-rule="nonzero"/>
<path d="m583.25 283.74h7.13c1.4896-0.088823 2.6521-1.3228 2.6521-2.815s-1.1625-2.7262-2.6521-2.815h-7.13c-1.5513 0.010954-2.8046 1.2687-2.81 2.82-0.005014 0.75144 0.29439 1.4729 0.83 2 0.528 0.51958 1.2392 0.81054 1.98 0.81z" stroke="#6E7F89" stroke-linejoin="round" stroke-width="2"/>
<path d="m583.25 294.86h7.13c0.75406-0.002622 1.4759-0.30607 2.0053-0.84301 0.52943-0.53694 0.82268-1.263 0.81469-2.017 0.005014-0.75144-0.29439-1.4729-0.83-2-0.53089-0.52994-1.2499-0.82832-2-0.83h-7.13c-1.4896 0.088823-2.6521 1.3228-2.6521 2.815s1.1625 2.7262 2.6521 2.815l0.01 0.06z" stroke="#6E7F89" stroke-linejoin="round" stroke-width="2"/>
<path d="m597.92 218.63v10.19" stroke="#6E7F89" stroke-linecap="round" stroke-linejoin="round" stroke-width="2"/>
<path d="m603.01 223.73h-10.19" stroke="#6E7F89" stroke-linecap="round" stroke-linejoin="round" stroke-width="2"/>
<path d="m212.32 282.19v14.86" stroke="#6E7F89" stroke-linejoin="round" stroke-width="2"/>
<path d="m10.54 282.27v20.97" stroke="#6E7F89" stroke-linejoin="round" stroke-width="2"/>
<path d="m571.65 202.54l0.48-6.5c0.19-2.66 0.29-5.31 0.29-8v-51.85c-0.093661-18.741-15.359-33.859-34.1-33.77l11.06 4.28e-4c9.0006-0.045196 17.65 3.4877 24.046 9.8211 6.3953 6.3334 10.012 14.948 10.054 23.949v51.88c0 2.66-0.09 5.31-0.28 8l-0.48 6.5c-1.22 16.8-14.69 30.56-31.67 31.37h-1.67-11.06 1.66c17.02-0.84 30.45-14.6 31.67-31.4z" fill="#000" fill-rule="nonzero" opacity=".07" style="mix-blend-mode:multiply"/>
<path d="m496.52 301.5h64.13c4.5992-0.016455 8.3235-3.7408 8.34-8.34v6.39c-0.016455 4.5992-3.7408 8.3235-8.34 8.34h-64.13c-4.6015-0.010995-8.329-3.7385-8.34-8.34v-6.39c0.010995 4.6015 3.7385 8.329 8.34 8.34z" fill="#000" fill-rule="nonzero" opacity=".07" style="mix-blend-mode:multiply"/>
<path d="m568.4 262.77v30.73c-0.016454 4.5329-3.6871 8.2035-8.22 8.22h-9.06v-47.17h9.06c4.5329 0.016454 8.2035 3.6871 8.22 8.22zm-3.59-0.08c-0.010704-0.99681-0.81326-1.8038-1.81-1.82h-6.93c-0.73658-0.004226-1.4023 0.43834-1.6834 1.1192-0.28112 0.68084-0.12161 1.4641 0.40338 1.9808 0.33785 0.34309 0.79849 0.53743 1.28 0.54h6.93c0.99898-0.010904 1.8046-0.82098 1.81-1.82zm0 7.72c-0.010817-0.99512-0.81488-1.7992-1.81-1.81h-6.93c-0.73658-0.004226-1.4023 0.43834-1.6834 1.1192-0.28112 0.68084-0.12161 1.4641 0.40338 1.9808 0.33887 0.34036 0.79971 0.53118 1.28 0.53h6.93c1.0013-0.005501 1.81-0.81873 1.81-1.82zm0 7.73c-0.010817-0.99512-0.81488-1.7992-1.81-1.81h-6.93c-0.737-0.010166-1.4057 0.43001-1.6878 1.111-0.28208 0.68095-0.1205 1.4651 0.4078 1.979 0.33887 0.34036 0.79971 0.53118 1.28 0.53h6.93c0.99736-0.005465 1.8045-0.81264 1.81-1.81zm-1 15c0-2.1429-1.7371-3.88-3.88-3.88s-3.88 1.7371-3.88 3.88 1.7371 3.88 3.88 3.88c2.1195-0.021824 3.8292-1.7405 3.84-3.86l0.04-0.02z" fill="#7EB5BD" fill-rule="nonzero"/>
<path d="m551.12 254.55v47.17h-54.12c-4.5329-0.016454-8.2035-3.6871-8.22-8.22v-30.73c0.016454-4.5329 3.6871-8.2035 8.22-8.22h54.12z" fill="#E6EDF2" fill-rule="nonzero"/>
<path d="m551.12 254.55h-54.12c-4.5329 0.016454-8.2035 3.6871-8.22 8.22v30.73c0.016454 4.5329 3.6871 8.2035 8.22 8.22h63.2c4.5329-0.016454 8.2035-3.6871 8.22-8.22v-30.73c-0.016454-4.5329-3.6871-8.2035-8.22-8.22h-9.08z" stroke="#6E7F89" stroke-linejoin="round" stroke-width="2"/>
<polyline points="551.12 254.49 551.12 254.55 551.12 301.72" stroke="#6E7F89" stroke-linejoin="round" stroke-width="2"/>
<path d="m556.07 264.51h6.93c0.99898-0.010904 1.8046-0.82098 1.81-1.82-0.010704-0.99681-0.81326-1.8038-1.81-1.82h-6.93c-0.73658-0.004226-1.4023 0.43834-1.6834 1.1192-0.28112 0.68084-0.12161 1.4641 0.40338 1.9808 0.33785 0.34309 0.79849 0.53743 1.28 0.54z" stroke="#6E7F89" stroke-linejoin="round" stroke-width="2"/>
<path d="m556.07 272.23h6.93c1.0013-0.005501 1.81-0.81873 1.81-1.82-0.010817-0.99512-0.81488-1.7992-1.81-1.81h-6.93c-0.73658-0.004226-1.4023 0.43834-1.6834 1.1192-0.28112 0.68084-0.12161 1.4641 0.40338 1.9808 0.33887 0.34036 0.79971 0.53118 1.28 0.53z" stroke="#6E7F89" stroke-linejoin="round" stroke-width="2"/>
<path d="m556.07 280h6.93c0.99736-0.005465 1.8045-0.81264 1.81-1.81-0.010817-0.99512-0.81488-1.7992-1.81-1.81h-6.93c-0.737-0.010166-1.4057 0.43001-1.6878 1.111-0.28208 0.68095-0.1205 1.4651 0.4078 1.979 0.33887 0.34036 0.79971 0.53118 1.28 0.53z" stroke="#6E7F89" stroke-linejoin="round" stroke-width="2"/>
<circle cx="559.89" cy="293.16" r="3.88" stroke="#6E7F89" stroke-linejoin="round" stroke-width="2"/>
<path d="m603.32 264.08c0.28025 0.96453 0.6141 1.9127 1 2.84-7.566 4.3838-17.188 2.6959-22.81-4.0014s-5.6178-16.466 0.010302-23.159c0 0 11.44 6.71 15.75 13.66 0.05 0 5.26 8.31 6.05 10.66z" fill="#7EB5BD" fill-rule="nonzero"/>
<path d="m604.37 266.92c-7.566 4.3838-17.188 2.6959-22.81-4.0014s-5.6178-16.466 0.010302-23.159c0 0 11.44 6.71 15.75 13.66 0 0 5.21 8.31 6 10.66 0.2966 0.96556 0.64715 1.9137 1.05 2.84z" stroke="#6E7F89" stroke-linejoin="round" stroke-width="2"/>
<path d="m393.8 136.38c1.9019 4e-6 3.6163 1.1462 4.3432 2.9037 0.72688 1.7575 0.32293 3.7798-1.0233 5.1232-1.3463 1.3434-3.3695 1.743-5.1254 1.0124-1.7559-0.73062-2.8985-2.4475-2.8944-4.3494 0.005515-2.5918 2.1082-4.69 4.7-4.69z" fill="#D5F4F2" fill-rule="nonzero"/>
<path d="m398.49 141.07c0.004044 1.9028-1.1396 3.6203-2.8968 4.3503-1.7572 0.73004-3.7812 0.32856-5.1266-1.0169-1.3455-1.3455-1.747-3.3695-1.0169-5.1266 0.73003-1.7572 2.4475-2.9008 4.3503-2.8968 2.5879 0.0055 4.6845 2.1021 4.69 4.69z" stroke="#6E7F89" stroke-linejoin="round" stroke-width="2"/>
<g transform="translate(84 260)" fill-rule="nonzero">
<path d="m21.44 21.16v7.67c-0.037075 0.32613-0.21174 0.62087-0.48 0.81-0.45103 0.38859-0.97438 0.68425-1.54 0.87-2.6209 0.89523-5.3241 1.5283-8.07 1.89-3.17 0.52-6.37 0.88-9.55 1.34-0.52388 0.068148-1.042 0.17511-1.55 0.32v-0.32-7.26c-0.017133-0.10565 0.011082-0.21363 0.077711-0.29739 0.066629-0.083762 0.16549-0.13554 0.27229-0.14261 1.18-0.24 2.38-0.39 3.57-0.55l4.07-0.55c0.07 0 0.14 0 0.19-0.07 0.20973 0.014951 0.42027 0.014951 0.63 0 1.38-0.22 2.76-0.44 4.14-0.68 2.0388-0.30568 4.0466-0.7909 6-1.45 0.65582-0.22109 1.2658-0.55997 1.8-1 0.14-0.16 0.19-0.45 0.44-0.58z" fill="#FE7C6F"/>
<path d="m0.24 12.93v-7.7c0-0.29 0.2-0.29 0.36-0.32 0.88-0.15 1.77-0.3 2.66-0.42 4.38-0.61 8.77-1.1 13.09-2.1 1.1468-0.22266 2.2688-0.55761 3.35-1 0.70784-0.21532 1.308-0.69046 1.68-1.33 0.13 0.15 0.08 0.29 0.08 0.42v6.87c0.01758 0.54904-0.25127 1.0678-0.71 1.37-0.18 0.15-0.37 0.27-0.56 0.4-0.42 0.17-0.83 0.35-1.26 0.49-2.6096 0.81914-5.2868 1.4048-8 1.75-1.33 0.22-2.67 0.41-4 0.58s-2.69 0.35-4 0.55c-0.90731 0.07186-1.8071 0.21903-2.69 0.44z" fill="#FE7C6F"/>
<path d="m21.44 10.62v7.67c-0.048865 0.33483-0.23797 0.63303-0.52 0.82-0.23 0.19-0.49 0.35-0.73 0.52h-0.07c-1.7509 0.74564-3.5835 1.2827-5.46 1.6-1.81 0.38-3.64 0.66-5.47 0.91l-4.87 0.68c-1.367 0.14592-2.7255 0.36288-4.07 0.65v-7.15c0-0.81 0-0.83 0.82-0.95 1.86-0.27 3.73-0.51 5.59-0.78 0.57582-0.053474 1.1472-0.14703 1.71-0.28 0.14983 0.0099963 0.30017 0.0099963 0.45 0 1.55-0.25 3.11-0.48 4.65-0.76 1.9006-0.29309 3.7713-0.75491 5.59-1.38 0.73706-0.21585 1.4191-0.58758 2-1.09 0.13-0.14 0.16-0.38 0.38-0.46z" fill="#FE7C6F"/>
<path d="m21.44 10.62c-0.22 0.08-0.25 0.32-0.4 0.46-0.58088 0.50242-1.2629 0.87415-2 1.09-1.8187 0.62509-3.6894 1.0869-5.59 1.38-1.54 0.28-3.1 0.51-4.65 0.76-0.14983 0.0099963-0.30017 0.0099963-0.45 0l-4-0.55c-1.23-0.17-2.47-0.3-3.68-0.57-0.14 0-0.41 0-0.4-0.27 0.88504-0.23501 1.7882-0.39557 2.7-0.48 1.33-0.2 2.67-0.38 4-0.55s2.68-0.36 4-0.58c2.7132-0.34522 5.3904-0.93086 8-1.75 0.43-0.14 0.84-0.32 1.26-0.49 0.48937 0.22033 0.89821 0.58723 1.17 1.05 0.053143 0.16107 0.06686 0.33253 0.04 0.5z" fill="#C13D36"/>
<path d="m0.25 23.48c1.3445-0.28712 2.703-0.50408 4.07-0.65l4.87-0.68c1.83-0.25 3.66-0.53 5.47-0.91 1.8765-0.31733 3.7091-0.85436 5.46-1.6h0.07c0.48284 0.22631 0.88686 0.59202 1.16 1.05 0.069208 0.1501 0.10013 0.31502 0.09 0.48-0.25 0.13-0.3 0.42-0.51 0.59-0.53419 0.44003-1.1442 0.77891-1.8 1-1.9534 0.6591-3.9612 1.1443-6 1.45-1.38 0.24-2.76 0.46-4.14 0.68-0.20973 0.014951-0.42027 0.014951-0.63 0-2.54-0.35-5.09-0.62-7.61-1.07-0.15-0.06-0.48 0.03-0.5-0.34z" fill="#C13D36"/>
<path d="m224 27.25c-2.4916 3.5385-6.5523 5.6398-10.88 5.63-6.523 0.01345-12.087-4.7193-13.12-11.16-0.24305-1.1283-0.26681-2.2928-0.07-3.43 0.56541-3.124 3.3702-5.3369 6.54-5.16 0.35959 0.01434 0.71584 0.074835 1.06 0.18-0.38708 0.37072-0.75109 0.76479-1.09 1.18-2.3572 3.0594-2.3276 7.3312 0.071774 10.358s6.5518 4.0296 10.068 2.4324c0.14652-0.064618 0.31348-0.064618 0.46 0 2.0854 0.60414 4.2935 0.64554 6.4 0.12l0.56-0.15z" fill="#80B5BC"/>
<path d="m202.49 11.82c0.22482-0.44246 0.53001-0.83921 0.9-1.17 2.7604-3.0528 6.8035-4.6181 10.9-4.22 5.9251 0.51066 10.777 4.9205 11.85 10.77 0.29832 1.313 0.33907 2.6715 0.12 4-0.40266 2.4754-2.4939 4.324-5 4.42-0.72754 0.084783-1.4625 0.084783-2.19 0 0.24-0.27 0.45-0.5 0.64-0.74 1.8613-2.3552 2.3296-5.5226 1.2297-8.3157-1.1-2.7931-3.6023-4.7906-6.5697-5.2443-1.4553-0.23355-2.9468-0.060521-4.31 0.5-0.16282 0.085355-0.35718 0.085355-0.52 0-2.1026-1.2446-4.7089-1.2751-6.84-0.08l-0.2 0.08h-0.01z" fill="#6E7F89"/>
<path d="m220.13 19.58c-0.001242 2.1191-0.95158 4.1261-2.59 5.47-0.17962 0.18155-0.45933 0.21857-0.68 0.09-0.54366-0.30134-0.98566-0.75725-1.27-1.31-0.77719-1.3198-1.3885-2.7304-1.82-4.2-0.37-1.19-0.64-2.41-1.09-3.57-0.35588-1.0127-0.87249-1.9615-1.53-2.81-0.2-0.24-0.12-0.3 0.13-0.36 2.1704-0.61604 4.505-0.12219 6.24 1.32 1.4529 1.1367 2.372 2.8229 2.54 4.66 0.03 0.25 0.05 0.5 0.07 0.71z" fill="#6E7F89"/>
<path d="m206.13 19.56c0.013937-2.1528 1.0261-4.1772 2.74-5.48 0.1361-0.1334 0.3539-0.1334 0.49 0 0.6692 0.451 1.2101 1.0677 1.57 1.79 0.42464 0.79423 0.79548 1.6161 1.11 2.46 0.079013 0.16433 0.079013 0.35567 0 0.52-0.76 1.54-1.6 3-2.32 4.58-0.24401 0.51233-0.44471 1.0442-0.6 1.59 0 0.21-0.11 0.27-0.31 0.1-1.4181-1.1069-2.3446-2.7265-2.58-4.51-0.053651-0.34777-0.08704-0.69836-0.1-1.05z" fill="#80B5BC"/>
<path d="m212.57 19.94c0.74 2.2 1.06 4.53 2.7 6.32-0.25585 0.1217-0.52915 0.20267-0.81 0.24-1.1446 0.22424-2.3271 0.15893-3.44-0.19-0.20665-0.040193-0.34928-0.23036-0.33-0.44-0.006924-0.92458 0.1663-1.8417 0.51-2.7 0.38-1 0.8-2 1.26-3l0.11-0.23z" fill="#80B5BC"/>
<path d="m448.29 7.91c-0.015877 1.3467-0.17681 2.6878-0.48 4 0 0.27-0.06 0.26 0.21 0.34 1.6298 0.48435 3.1797 1.2054 4.6 2.14 0.73907 0.4693 1.3836 1.0731 1.9 1.78 0.42263 0.55967 0.65718 1.2388 0.67 1.94-2.6e-4 0.54923-0.14882 1.0882-0.43 1.56-0.48407 0.79731-1.1358 1.4798-1.91 2-1.2305 0.85508-2.5776 1.5286-4 2-0.32 0.12-0.63 0.23-0.95 0.32-0.12 0-0.15 0.09-0.12 0.19 0.11 0.49 0.2 1 0.28 1.46s0.16 1.22 0.2 1.84c0.035075 0.47602 0.035075 0.95398 0 1.43-0.007785 1.0931-0.25348 2.1714-0.72 3.16-0.38062 0.80031-1.0875 1.3979-1.94 1.64-0.65708 0.15987-1.3429 0.15987-2 0-1.0647-0.25555-2.0788-0.68825-3-1.28-1.0709-0.67706-2.0754-1.4538-3-2.32-0.11-0.1-0.17-0.1-0.27 0-1.1728 1.1188-2.4914 2.0742-3.92 2.84-0.70906 0.3905-1.4751 0.66721-2.27 0.82-0.75143 0.17333-1.5383 0.10689-2.25-0.19-0.59037-0.2774-1.0797-0.73177-1.4-1.3-0.37808-0.67355-0.62256-1.4138-0.72-2.18-0.12162-0.78376-0.1585-1.5783-0.11-2.37 0.048229-1.0458 0.18201-2.086 0.4-3.11l0.09-0.44c0-0.1 0-0.15-0.1-0.18-1.2256-0.36359-2.4115-0.84936-3.54-1.45-0.99711-0.50549-1.8975-1.1825-2.66-2-0.50204-0.52516-0.84825-1.1795-1-1.89-0.15085-0.7377-0.018777-1.5052 0.37-2.15 0.54268-0.88922 1.2858-1.6392 2.17-2.19 1.243-0.81331 2.588-1.4589 4-1.92l0.7-0.22c0.034776-0.0065988 0.064864-0.028214 0.082218-0.059065 0.017353-0.030851 0.020201-0.067789 0.007782-0.10094-0.21133-0.86799-0.3584-1.7504-0.44-2.64-0.17394-1.3612-0.10623-2.7424 0.2-4.08 0.17689-0.79122 0.5638-1.5201 1.12-2.11 0.49788-0.47515 1.144-0.76467 1.83-0.82 0.99294-0.059233 1.9845 0.13701 2.88 0.57 1.2804 0.57051 2.4725 1.3215 3.54 2.23 0.36 0.29 0.71 0.61 1.06 0.92 0.1 0.09 0.14 0.06 0.22 0 0.6497-0.61003 1.3378-1.1779 2.06-1.7 0.96359-0.7165 2.0242-1.2923 3.15-1.71 0.61953-0.23538 1.2773-0.35405 1.94-0.35 1.293-4.5277e-4 2.4532 0.7942 2.92 2 0.34153 0.80635 0.54114 1.6657 0.59 2.54 0.03 0.4 0.03 0.73 0.04 1.04zm-10.75 16c1 0 2 0 3-0.14 0.12327 8.653e-4 0.23607-0.069151 0.29-0.18 1.1583-1.6971 2.1815-3.4826 3.06-5.34 0.039267-0.078708 0.039267-0.17129 0-0.25-0.24-0.49-0.48-1-0.73-1.46-0.71904-1.3557-1.5171-2.6679-2.39-3.93-0.036577-0.054682-0.094819-0.091083-0.16-0.1-0.36 0-0.71-0.06-1.06-0.07-0.91 0-1.81-0.08-2.72 0s-1.65 0.06-2.48 0.12c-0.098604 0.0028112-0.18902 0.055552-0.24 0.14-1.1686 1.7047-2.1986 3.5005-3.08 5.37-0.050017 0.086632-0.050017 0.19337 0 0.28 0.3 0.6 0.6 1.21 0.92 1.8 0.66334 1.2211 1.391 2.4061 2.18 3.55 0.043254 0.074927 0.12349 0.12077 0.21 0.12h0.53c0.9 0.07 1.77 0.1 2.67 0.11v-0.02zm16.05-5.76c-0.019317-0.39901-0.16658-0.7812-0.42-1.09-0.4698-0.5909-1.0423-1.0923-1.69-1.48-1.2495-0.76865-2.5943-1.3704-4-1.79-0.14-0.05-0.15 0-0.18 0.12-0.3614 1.2626-0.80912 2.4988-1.34 3.7-0.20497 0.30182-0.20497 0.69818 0 1 0.52726 1.2253 0.98139 2.4809 1.36 3.76 0 0.1 0.06 0.15 0.18 0.11 1.3486-0.41009 2.6416-0.9844 3.85-1.71 0.66069-0.38562 1.2494-0.883 1.74-1.47 0.286-0.31169 0.46168-0.70872 0.5-1.13v-0.02zm-6.9-10.33c-0.004188-0.42777-0.030892-0.85503-0.08-1.28-0.060334-0.58504-0.22636-1.1543-0.49-1.68-0.1773-0.39634-0.52181-0.69321-0.94-0.81-0.32979-0.068751-0.67021-0.068751-1 0-0.79908 0.15327-1.5644 0.44789-2.26 0.87-1.1537 0.66827-2.2245 1.4705-3.19 2.39-0.08 0.07-0.07 0.11 0 0.17 1.0062 1.0607 1.9415 2.1865 2.8 3.37 0.073412 0.1045 0.19231 0.16767 0.32 0.17l1.08 0.13c1.07 0.16 2.12 0.34 3.17 0.6 0.12 0 0.14 0 0.15-0.11s0.08-0.37 0.11-0.56c0.21436-1.0668 0.32487-2.1519 0.33-3.24v-0.02zm-18.38 20.38v1.1c0.041137 0.63078 0.17943 1.2514 0.41 1.84 0.16016 0.5159 0.5641 0.91984 1.08 1.08 0.28452 0.049677 0.57548 0.049677 0.86 0 0.62824-0.091204 1.2367-0.28726 1.8-0.58 1.3822-0.71114 2.6552-1.617 3.78-2.69 0.07-0.07 0.08-0.11 0-0.18-1.0196-1.0774-1.9682-2.2198-2.84-3.42-0.047128-0.064429-0.12035-0.1047-0.2-0.11-0.57-0.07-1.15-0.14-1.71-0.23-0.88503-0.12799-1.7629-0.30155-2.63-0.52-0.09 0-0.12 0-0.14 0.09s-0.08 0.41-0.12 0.62c-0.19289 0.9951-0.29 2.0064-0.29 3.02v-0.02zm-6.9-10c0.008973 0.21818 0.070739 0.43093 0.18 0.62 0.28646 0.51885 0.68226 0.96924 1.16 1.32 0.76705 0.59757 1.6072 1.0949 2.5 1.48 0.72919 0.3274 1.4772 0.61124 2.24 0.85 0.1 0 0.16 0 0.18-0.09l0.18-0.58c0.37782-1.2003 0.82184-2.3788 1.33-3.53 0.040911-0.07477 0.040911-0.16523 0-0.24-0.15-0.34-0.29-0.68-0.43-1-0.4216-1.0198-0.78878-2.0613-1.1-3.12 0-0.07 0-0.14-0.15-0.1-1.3518 0.40999-2.6481 0.98428-3.86 1.71-0.61873 0.36683-1.1728 0.83307-1.64 1.38-0.35439 0.35103-0.56482 0.82182-0.59 1.32v-0.02zm6.87-10.2c0 0.31 0 0.73 0.06 1.14 0.088581 0.83988 0.22211 1.6744 0.4 2.5 0 0.1 0.06 0.11 0.16 0.09l1-0.23c1.0865-0.22997 2.1848-0.40022 3.29-0.51 0.09793 0.0032263 0.19126-0.041574 0.25-0.12 0.85942-1.201 1.8017-2.3404 2.82-3.41 0.07-0.07 0.07-0.11 0-0.18-0.83403-0.78219-1.7416-1.4821-2.71-2.09-0.8972-0.61461-1.9236-1.0149-3-1.17-0.65844-0.14596-1.3343 0.15941-1.66 0.75-0.11013 0.19032-0.20059 0.39136-0.27 0.6-0.25886 0.85165-0.37377 1.7405-0.34 2.63zm18.43 20.26v-0.86c-0.07972-0.92817-0.22002-1.8501-0.42-2.76 0-0.12-0.06-0.15-0.19-0.12-1.3617 0.3353-2.745 0.57587-4.14 0.72-0.19071 0.010073-0.36523 0.11033-0.47 0.27-0.5 0.71-1.05 1.39-1.62 2.06-0.35 0.41-0.71 0.81-1.09 1.2 0 0.06-0.1 0.1 0 0.18 0.43 0.38 0.86 0.76 1.31 1.11 0.87321 0.70518 1.8346 1.2935 2.86 1.75 0.62529 0.29256 1.3098 0.43632 2 0.42 0.33322-0.013264 0.64996-0.1485 0.89-0.38 0.26501-0.28298 0.4572-0.62618 0.56-1 0.24879-0.82936 0.35364-1.6952 0.31-2.56v-0.03zm-11.2-2.81c0.60719 0.77996 1.2547 1.5277 1.94 2.24 0.09 0.08 0.12 0 0.16 0 0.54667-0.58667 1.0767-1.1967 1.59-1.83 0.10344-0.11656 0.19397-0.24396 0.27-0.38-1.32 0.06-2.62 0.05-3.96 0v-0.03zm3.93-14.64c0.020222-0.030266 0.020222-0.069734 0-0.1-0.58-0.73-1.19-1.43-1.83-2.11-0.08-0.09-0.12-0.09-0.21 0-0.48 0.52-1 1.06-1.41 1.61-0.15 0.18-0.29 0.38-0.47 0.6 1.3061-0.068812 2.6151-0.058794 3.92 0.03v-0.03zm3.41 12.69c1-0.14 1.89-0.32 2.8-0.53 0.14 0 0.17-0.07 0.13-0.21-0.22-0.69-0.45-1.38-0.7-2.06l-0.25-0.64c-0.59842 1.1907-1.2593 2.349-1.98 3.47v-0.03zm-10.72-10.7h-0.07c-0.93 0.14-1.85 0.31-2.77 0.52-0.1 0-0.12 0.06-0.09 0.16 0.2 0.64 0.41 1.28 0.64 1.91l0.32 0.84c0.59668-1.1768 1.2542-2.3216 1.97-3.43zm12.7 3.39c0.35-0.9 0.66-1.79 0.93-2.69 0-0.14 0-0.17-0.12-0.2-0.76-0.17-1.53-0.33-2.3-0.45-0.15748-0.0366-0.31835-0.056708-0.48-0.06 0.71 1.11 1.36 2.21 1.97 3.4zm-14.68 4c-0.34 0.88-0.65 1.77-0.92 2.68 0 0.1 0 0.12 0.09 0.14 0.76 0.18 1.52 0.34 2.3 0.46 0.15698 0.039347 0.31816 0.059494 0.48 0.06l-1.95-3.34z" fill="#7EB5BD"/>
<path d="m440.78 18.15c0.004028 1.3374-0.7996 2.5451-2.0349 3.0578-1.2353 0.51274-2.6578 0.22919-3.6021-0.71796-0.94428-0.94716-1.2235-2.3706-0.707-3.6043 0.5165-1.2337 1.7266-2.0336 3.064-2.0255 1.8131 0.005511 3.28 1.4769 3.28 3.29z" fill="#6E7F89"/>
</g>
</g>
</g>
</svg>
