<?xml version="1.0" encoding="UTF-8"?>
<svg version="1.1" viewBox="0 0 426 439" xmlns="http://www.w3.org/2000/svg">
<g fill="none" fill-rule="evenodd">
<g transform="translate(1 1)">
<path d="m10.24 140.28v-44.82c0.043666-7.1174 5.8026-12.876 12.92-12.92h-10c-7.1174 0.043666-12.876 5.8026-12.92 12.92v44.82c0.043666 7.1174 5.8026 12.876 12.92 12.92h10c-7.1174-0.043666-12.876-5.8026-12.92-12.92z" fill="#000" fill-rule="nonzero" opacity=".07" style="mix-blend-mode:multiply"/>
<path d="m369.53 212.61c-3.1774 0.042615-6.0806 1.8083-7.58 4.61-1.37 2.73-2.72 5.46-4.08 8.18-1.06 2.11-2.35 2.72-4.6 2.12l-13.34-3.52c-1.7864-0.39304-2.9867-2.0726-2.78-3.89 0.23-2.76 0.32-5.56 0.79-8.28 0.85-4.82-3.2-8.87-6.85-9.77-1.4241-0.41081-2.9407-0.36888-4.34 0.12-2.7933 0.94-5.5967 1.8633-8.41 2.77-2.0908 0.89112-4.5101-0.056157-5.44-2.13-2.1-3.7667-4.1967-7.5433-6.29-11.33-1.25-2.25-1.05-3.32 0.83-5 2.15-1.93 4.22-3.92 6.42-5.79 4.68-4 3.21-11.92-2-14.39-2.7-1.27-5.34-2.66-8-4-0.90036-0.32595-1.632-0.99993-2.0307-1.8705-0.39864-0.87062-0.43083-1.8649-0.08933-2.7595 1.15-4.38 2.32-8.76 3.48-13.13 0.37999-1.9798 2.2573-3.3049 4.25-3 2.69 0.23 5.4 0.39 8.08 0.79 6.12 0.91 11.86-6 9.48-11.66-1.14-2.71-1.89-5.59-2.8-8.39-0.77243-1.6862-0.069112-3.6811 1.59-4.51 4-2.42 8.1-4.77 12.18-7.09 1.519-0.89524 3.4656-0.53238 4.56 0.85 2 2.21 4.1 4.34 6 6.66 2.45 3 6.71 3.49 9.94 2.22 2.2438-0.84862 4.0238-2.6069 4.9-4.84 1-2.47 2.17-4.89 3.29-7.32 0.65894-1.7852 2.576-2.7677 4.41-2.26 4.5467 1.16 9.09 2.3633 13.63 3.61 1.8591 0.35411 3.0888 2.1362 2.76 4-0.17 3.08-0.36 6.15-0.49 9.23-0.0424 2.8173 1.2547 5.4875 3.4955 7.1956s5.1592 2.2516 7.8645 1.4644c3-1 6.05-2 9.06-3 1.4004-0.45859 2.9308 0.1252 3.67 1.4 2.54 4.1067 5.05 8.24 7.53 12.4 0.94 1.59 0.46 3.55-1.11 5-2.16 2-4.24 4-6.51 5.84-4.61 3.7-3.07 12.59 2.45 14.59 2.59 1 5.08 2.23 7.59 3.41 0.92424 0.31472 1.6793 0.99424 2.0893 1.8803 0.40999 0.88611 0.43917 1.9015 0.080749 2.8097l-3.53 13.34c-0.24801 1.6841-1.7891 2.8665-3.48 2.67-3.05-0.1-6.1-0.19-9.13-0.49-5.6-0.53-9.68 4.46-9.64 8.78 0.048252 0.97944 0.24031 1.9465 0.57 2.87 0.82 2.69 1.74 5.35 2.62 8 0.76 2.3 0.22 3.74-1.84 4.94-3.88 2.26-7.7667 4.52-11.66 6.78-1.5714 1.0822-3.7123 0.76328-4.9-0.73-2-2.2333-4.0233-4.4733-6.07-6.72-1.705-1.8216-4.1286-2.7954-6.62-2.66zm21.84-38.24c2.0281-7.6695 0.90134-15.832-3.1287-22.665-4.0301-6.8333-10.628-11.769-18.321-13.705-7.5649-2.1024-15.657-1.0785-22.46 2.8419s-11.746 10.409-13.72 18.008c-4.36 16.31 4.74 32.39 20.84 36.82 16.037 4.2478 32.489-5.2771 36.79-21.3z" fill="#C4D4DD" fill-rule="nonzero"/>
<path d="m394.12 308.62c16.176 0 29.29 13.114 29.29 29.29s-13.114 29.29-29.29 29.29h-42.88c-14.131-0.054162-26.21-10.187-28.721-24.093-2.5111-13.906 5.2615-27.624 18.481-32.617 3.2784-1.2399 6.7549-1.8736 10.26-1.87h42.86zm18.39 28.38c0.004047-1.5015-0.8973-2.8573-2.2833-3.4347-1.386-0.57739-2.9834-0.26245-4.0465 0.79781-1.0631 1.0603-1.3824 2.6568-0.80873 4.0443 0.57365 1.3876 1.9271 2.2926 3.4285 2.2926 2.0451 7e-6 3.7045-1.6549 3.71-3.7zm-17.28-15c0-2.049-1.661-3.71-3.71-3.71s-3.71 1.661-3.71 3.71 1.661 3.71 3.71 3.71c2.0181 4.69e-4 3.6665-1.6123 3.71-3.63v-0.08zm0 29.18c-0.005519-2.0477-1.669-3.7037-3.7166-3.7-2.0477 0.003677-3.7052 1.6656-3.7033 3.7133 0.001835 2.0477 1.6623 3.7067 3.71 3.7067 2.0219 3.6e-4 3.6718-1.6184 3.71-3.64v-0.08zm-14.07-7.32v-1.86c-0.010929-1.9671-1.6029-3.5591-3.57-3.57h-40.9c-1.971 0.00546-3.569 1.599-3.58 3.57v1.94c0.010973 1.971 1.609 3.5645 3.58 3.57h40.9c1.9671-0.010929 3.5591-1.6029 3.57-3.57v-0.08zm0-19.23c-4e-6 -2.2578-1.3606-4.2931-3.4469-5.1562-2.0863-0.86309-4.4872-0.38385-6.0822 1.2141s-2.07 3.9996-1.2032 6.0844c0.86683 2.0848 2.9046 3.4417 5.1624 3.4377 3.0491 2.41e-4 5.5317-2.4511 5.57-5.5v-0.08zm-19.39 0c-0.016417-2.4989-2.0411-4.5191-4.54-4.53h-10.47c-2.4989 0.010906-4.5236 2.0311-4.54 4.53 0.005473 2.5067 2.0333 4.539 4.54 4.55h10.47c2.5022-0.021801 4.5237-2.0478 4.54-4.55z" fill="#D5F4F2" fill-rule="nonzero"/>
<path d="m408.8 333.32c2.0477 7e-6 3.7082 1.659 3.71 3.7067 0.001835 2.0477-1.6557 3.7096-3.7033 3.7133-2.0477 0.003677-3.7111-1.6523-3.7166-3.7-0.002657-0.98568 0.38704-1.9319 1.0831-2.6298s1.6412-1.0902 2.6269-1.0902z" fill="#FE7C6F" fill-rule="nonzero"/>
<path d="m391.52 318.37c2.049 0 3.71 1.661 3.71 3.71s-1.661 3.71-3.71 3.71-3.71-1.661-3.71-3.71 1.661-3.71 3.71-3.71z" fill="#FE7C6F" fill-rule="nonzero"/>
<path d="m391.52 347.55c1.5064-0.004044 2.8666 0.90082 3.4449 2.2918 0.57835 1.391 0.26072 2.9934-0.80448 4.0586s-2.6677 1.3828-4.0586 0.80448c-1.391-0.57835-2.2958-1.9385-2.2918-3.4449 0-2.049 1.661-3.71 3.71-3.71z" fill="#FE7C6F" fill-rule="nonzero"/>
<path d="m369.92 138c7.6977 1.9359 14.299 6.8744 18.33 13.712 4.0306 6.8379 5.1543 15.005 3.1201 22.678-4.31 16.015-20.759 25.529-36.79 21.28-16.1-4.43-25.2-20.51-20.84-36.82 1.9738-7.5995 6.9171-14.088 13.72-18.008s14.895-4.9443 22.46-2.8419zm9.08 28.26c0.57951-2.0233 0.72939-4.1454 0.44-6.23-0.25155-2.1255-1.1565-4.1206-2.59-5.71-0.077316-0.066518-0.1086-0.1721-0.08-0.27 0.07-0.42 0.14-0.85 0.18-1.27 0.072486-1.3145-0.05223-2.6324-0.37-3.91-0.079256-0.36543-0.18966-0.72341-0.33-1.07l-1.11 0.1c-0.89358 0.089582-1.7694 0.30854-2.6 0.65-1.0457 0.45865-2.0494 1.0074-3 1.64-0.10154 0.071731-0.22868 0.09716-0.35 0.07-1.5134-0.33266-3.0522-0.53672-4.6-0.61-1.4048-0.073445-2.8132-0.026608-4.21 0.14-1.0653 0.12609-2.121 0.3232-3.16 0.59-0.1133 0.032378-0.23527 0.001886-0.32-0.08-1.6482-1.2514-3.5839-2.0697-5.63-2.38-0.36 0-0.71-0.07-1.09-0.12-0.84882 2.1511-0.97862 4.5191-0.37 6.75v0.06c-0.024567 0.037849-0.054939 0.071595-0.09 0.1-1.5184 1.6998-2.4018 3.8728-2.5 6.15-0.060009 0.96667-0.039941 1.9366 0.06 2.9 0.092135 1.0248 0.31736 2.0333 0.67 3 0.46675 1.3642 1.2841 2.5815 2.37 3.53 0.95855 0.79478 2.0391 1.4296 3.2 1.88 1.7381 0.66256 3.558 1.0864 5.41 1.26 0.25 0 0.5 0.06 0.75 0.09l-0.24 0.12c-0.35 0.15-0.72 0.29-1.07 0.45-0.8536 0.37506-1.5204 1.0779-1.85 1.95-0.11021 0.3247-0.35406 0.58675-0.67 0.72-0.13806 0.083204-0.28174 0.15671-0.43 0.22-1.1799 0.57404-2.5662 0.53293-3.71-0.11-0.71252-0.36899-1.3501-0.8675-1.88-1.47-0.38-0.42-0.72-0.85-1.09-1.28-0.43796-0.55346-0.98624-1.0098-1.61-1.34-0.40662-0.19795-0.85962-0.28094-1.31-0.24-0.27416 0.024221-0.52844 0.15315-0.71 0.36-0.17 0.17-0.16 0.32 0 0.49l0.11 0.1c0.34 0.29 0.67 0.58 1 0.88 0.80748 0.70633 1.4845 1.5492 2 2.49 0.25 0.49 0.59 0.93 0.88 1.39 0.44322 0.65605 1.0545 1.181 1.77 1.52 1.5711 0.86454 3.4255 1.0557 5.14 0.53h0.12v0.06c-0.039841 0.72375-0.019773 1.4496 0.06 2.17 0 0.65 0.07 1.31 0.06 2-0.01298 0.682-0.32801 1.3231-0.86 1.75-0.18078 0.15517-0.37116 0.29878-0.57 0.43-0.14 0.11-0.3 0.22-0.43 0.34-0.12035 0.085584-0.18376 0.23052-0.16492 0.37699s0.11684 0.27065 0.25492 0.32301c0.12849 0.062238 0.26761 0.099563 0.41 0.11 0.26979 0.014991 0.54021 0.014991 0.81 0 0.74472-0.045652 1.4602-0.30616 2.06-0.75 0.40113-0.27396 0.70283-0.67038 0.86-1.13 0.097535-0.32421 0.14475-0.66147 0.14-1v-3.8-2c0.005755-0.23466 0.046193-0.46718 0.12-0.69 0.20399-0.5039 0.64048-0.87696 1.17-1v7.32c0 0.41 0 0.82-0.07 1.23-0.064449 0.67436-0.27609 1.3264-0.62 1.91l-0.48 0.83c0.10197 0.14975 0.28094 0.22756 0.46 0.2 0.27556-0.027891 0.54933-0.071293 0.82-0.13 1.0513-0.20594 1.9192-0.94498 2.29-1.95 0.30001-0.79577 0.4525-1.6396 0.45-2.49v-7.25h1.54v7.34c-0.006057 0.91977 0.19562 1.829 0.59 2.66 0.20674 0.42868 0.52008 0.79711 0.91 1.07 0.60665 0.38023 1.2894 0.6226 2 0.71 0.14337 0.034328 0.29434-0.007187 0.4-0.11-0.08447-0.42132-0.26975-0.81591-0.54-1.15-0.1823-0.24394-0.31172-0.52322-0.38-0.82-0.12623-0.5677-0.18331-1.1486-0.17-1.73v-7.4c-0.004459-0.069929-0.004459-0.14007 0-0.21 0.2783 0.06895 0.53786 0.19873 0.76 0.38 0.35482 0.25048 0.57868 0.64681 0.61 1.08v0.6 5.29c-0.015021 0.19972-0.015021 0.40028 0 0.6 0.029658 0.53472 0.26638 1.0369 0.66 1.4 0.89191 0.78732 2.08 1.1518 3.26 1 0.13898-0.023523 0.27375-0.067323 0.4-0.13 0.10887-0.07682 0.17362-0.20176 0.17362-0.335s-0.06475-0.25818-0.17362-0.335l-0.2-0.11c-0.58768-0.3484-1.0873-0.82745-1.46-1.4-0.061281-0.092135-0.09589-0.19942-0.1-0.31 0-1-0.09-2-0.1-3v-3.61c0.033922-0.54794 0.007092-1.098-0.08-1.64-0.21493-1.0009-0.80546-1.8814-1.65-2.46-0.42-0.29-0.85-0.54-1.28-0.81-0.090302-0.043417-0.17721-0.093558-0.26-0.15h0.29c0.83-0.07 1.65-0.17 2.46-0.31 1.7997-0.31616 3.5071-1.0265 5-2.08 1.6948-1.1836 2.9139-2.9309 3.44-4.93z" fill="#D5F4F2" fill-rule="nonzero"/>
<path d="m381.16 342v1.94c-0.010929 1.9671-1.6029 3.5591-3.57 3.57h-40.9c-1.971-0.00546-3.569-1.599-3.58-3.57v-1.94c0.010973-1.971 1.609-3.5645 3.58-3.57h40.9c1.9671 0.010929 3.5591 1.6029 3.57 3.57z" fill="#E6EDF2" fill-rule="nonzero"/>
<path d="m375.59 319.15c3.0762 0.005528 5.5655 2.5038 5.56 5.58-0.005524 3.0762-2.5038 5.5655-5.58 5.56s-5.5655-2.5038-5.56-5.58c0.00265-1.4773 0.59203-2.893 1.6385-3.9357 1.0465-1.0427 2.4643-1.627 3.9415-1.6243z" fill="#C4D4DD" fill-rule="nonzero"/>
<path d="m379.43 160c0.28939 2.0846 0.13951 4.2067-0.44 6.23-0.54817 1.9727-1.773 3.6897-3.46 4.85-1.4929 1.0535-3.2003 1.7638-5 2.08-0.81 0.14-1.63 0.24-2.46 0.31h-0.29c0.082787 0.056442 0.1697 0.10658 0.26 0.15 0.43 0.27 0.86 0.52 1.28 0.81 0.87958 0.59907 1.4842 1.524 1.68 2.57 0.12734 0.53755 0.19443 1.0876 0.2 1.64v3.61c0 1 0.06 2 0.1 3 0.00411 0.11058 0.038719 0.21786 0.1 0.31 0.37274 0.57255 0.87232 1.0516 1.46 1.4l0.2 0.11c0.10887 0.07682 0.17362 0.20176 0.17362 0.335s-0.06475 0.25818-0.17362 0.335c-0.12625 0.062677-0.26102 0.10648-0.4 0.13-1.18 0.15177-2.3681-0.21268-3.26-1-0.39362-0.36314-0.63034-0.86528-0.66-1.4-0.015021-0.19972-0.015021-0.40028 0-0.6v-5.29-0.6c-0.031325-0.43319-0.25518-0.82952-0.61-1.08-0.22214-0.18127-0.4817-0.31105-0.76-0.38-0.004459 0.069929-0.004459 0.14007 0 0.21v7.4c-0.013312 0.58141 0.043769 1.1623 0.17 1.73 0.068276 0.29678 0.1977 0.57606 0.38 0.82 0.27025 0.33409 0.45553 0.72868 0.54 1.15-0.10566 0.10281-0.25663 0.14433-0.4 0.11-0.7106-0.0874-1.3933-0.32977-2-0.71-0.38992-0.27289-0.70326-0.64132-0.91-1.07-0.39438-0.83096-0.59606-1.7402-0.59-2.66v-7.34h-1.54v7.25c0.002504 0.85044-0.14999 1.6942-0.45 2.49-0.37083 1.005-1.2387 1.7441-2.29 1.95-0.27067 0.058707-0.54444 0.10211-0.82 0.13-0.17906 0.027565-0.35803-0.050246-0.46-0.2l0.48-0.83c0.31461-0.60386 0.49216-1.2697 0.52-1.95 0.05-0.41 0.06-0.82 0.07-1.23v-7.32c-0.52952 0.12304-0.96601 0.4961-1.17 1-0.073807 0.22282-0.11424 0.45534-0.12 0.69v2 3.8c0.004751 0.33853-0.042465 0.67579-0.14 1-0.15717 0.45962-0.45887 0.85604-0.86 1.13-0.59975 0.44384-1.3153 0.70435-2.06 0.75-0.26979 0.014991-0.54021 0.014991-0.81 0-0.14239-0.010437-0.28151-0.047762-0.41-0.11-0.13809-0.052356-0.23609-0.17654-0.25492-0.32301s0.044573-0.29141 0.16492-0.37699c0.13-0.12 0.29-0.23 0.43-0.34 0.19884-0.13122 0.38922-0.27483 0.57-0.43 0.53199-0.42694 0.84702-1.068 0.86-1.75 0-0.66 0-1.32-0.06-2-0.079773-0.72044-0.099841-1.4462-0.06-2.17v-0.06h-0.12c-1.7145 0.52574-3.5689 0.33454-5.14-0.53-0.71549-0.339-1.3268-0.86395-1.77-1.52-0.29-0.46-0.63-0.9-0.88-1.39-0.51554-0.94083-1.1925-1.7837-2-2.49-0.31-0.3-0.64-0.59-1-0.88l-0.11-0.1c-0.18-0.17-0.19-0.32 0-0.49 0.18156-0.20685 0.43584-0.33578 0.71-0.36 0.45038-0.040938 0.90338 0.042054 1.31 0.24 0.62376 0.33022 1.172 0.78654 1.61 1.34 0.37 0.43 0.71 0.86 1.09 1.28 0.52993 0.6025 1.1675 1.101 1.88 1.47 1.1438 0.64293 2.5301 0.68404 3.71 0.11 0.14826-0.063286 0.29194-0.1368 0.43-0.22 0.31594-0.13325 0.55979-0.3953 0.67-0.72 0.32965-0.87214 0.9964-1.5749 1.85-1.95 0.35-0.16 0.72-0.3 1.07-0.45l0.24-0.12c-0.25 0-0.5-0.07-0.75-0.09-1.852-0.17358-3.6719-0.59744-5.41-1.26-1.1609-0.45039-2.2414-1.0852-3.2-1.88-1.0859-0.94845-1.9033-2.1658-2.37-3.53-0.35264-0.96667-0.57786-1.9752-0.67-3-0.099941-0.96336-0.12001-1.9333-0.06-2.9 0.098224-2.2772 0.98155-4.4502 2.5-6.15 0.035061-0.028405 0.065433-0.062151 0.09-0.1v-0.06c-0.60862-2.2309-0.47882-4.5989 0.37-6.75 0.38 0 0.73 0.07 1.09 0.12 2.0461 0.3103 3.9818 1.1286 5.63 2.38 0.084733 0.081886 0.2067 0.11238 0.32 0.08 1.039-0.2668 2.0947-0.46391 3.16-0.59 1.3968-0.16661 2.8052-0.21344 4.21-0.14 1.5478 0.073279 3.0866 0.27734 4.6 0.61 0.12132 0.02716 0.24846 0.001731 0.35-0.07 0.95056-0.63262 1.9543-1.1814 3-1.64 0.83061-0.34146 1.7064-0.56042 2.6-0.65l1.11-0.1c0.14034 0.34659 0.25074 0.70457 0.33 1.07 0.31777 1.2776 0.44249 2.5955 0.37 3.91 0 0.42-0.11 0.85-0.18 1.27-0.028599 0.097901 0.002684 0.20348 0.08 0.27 1.4245 1.5959 2.3189 3.5944 2.56 5.72z" fill="#6E7F89" fill-rule="nonzero"/>
<path d="m357.23 320.18c2.4989 0.010906 4.5236 2.0311 4.54 4.53-0.016295 2.5022-2.0378 4.5282-4.54 4.55h-10.47c-2.5067-0.010988-4.5345-2.0433-4.54-4.55 0.016417-2.4989 2.0411-4.5191 4.54-4.53h10.47z" fill="#C4D4DD" fill-rule="nonzero"/>
<path d="m358 382.09c3.0986 13.097 0.03251 26.892-8.3222 37.444s-21.079 16.699-34.538 16.686h-219.67c-12.003-0.003224-23.347-5.4902-30.801-14.898-7.454-9.408-10.201-21.706-7.4592-33.392l16.41-69.73c8.51-33.51 26-58.15 58.15-58.15h148.06c20.94 0 38.17 9.89 49.75 26.44 5.041 7.3493 8.8884 15.449 11.4 24-13.272 4.9558-21.092 18.702-18.57 32.643 2.5221 13.94 14.663 24.076 28.83 24.067h3.29l3.47 14.89zm-47.82 28.24v-125.64h-205.03v125.64h205.03z" fill="#C4D4DD" fill-rule="nonzero"/>
<path d="m310.22 284.69v125.64h-205.07v-125.64h205.07zm-87.4 62.82c-0.005522-8.3548-6.7819-15.124-15.137-15.12-8.3548 0.003681-15.125 6.7786-15.123 15.133 0.001839 8.3548 6.7752 15.127 15.13 15.127 4.0145 1e-6 7.8644-1.5954 10.702-4.435 2.8377-2.8396 4.4306-6.6905 4.4279-10.705z" fill="#E6EDF2" fill-rule="nonzero"/>
<path d="m289.43 231.54c3.3745 0 6.11 2.7355 6.11 6.11s-2.7355 6.11-6.11 6.11-6.11-2.7355-6.11-6.11 2.7355-6.11 6.11-6.11z" fill="#E6EDF2" fill-rule="nonzero"/>
<path d="m278.74 129.78v51.83c0 6.7931-5.5069 12.3-12.3 12.3h-5.25v-45.62c0.01059-5.5726-1.1941-11.081-3.53-16.14v-0.05-0.07c-6.3317-13.613-19.986-22.317-35-22.31h-42.95c-0.67 0-1.34 0-2 0.06-19.823 0.94972-35.684 16.798-36.65 36.62 0 0.67-0.06 1.34-0.06 2v45.49h-5.2c-3.263 0.002656-6.3931-1.2924-8.7003-3.5997-2.3073-2.3073-3.6023-5.4374-3.5997-8.7003l-4e-6 -118.29c5 25.46 29.62 24.2 29.62 24.2h10.15v0.1h72.11v-0.1h1.07c23.327 0.060426 42.224 18.953 42.29 42.28z" fill="#80B5BC" fill-rule="nonzero"/>
<path d="m261.19 193.91v13.64c0 3-0.1 6.07-0.32 9.09l-0.54 7.44c-1.38 19.18-16.61 34.9-35.82 35.83h-1.88-43c-10.234 0.013269-20.054-4.04-27.298-11.268s-11.321-17.038-11.332-27.272v-27.46h120.19zm-19.95 28.86c-0.005527-3.3689-2.7411-6.0955-6.11-6.09-3.3689 0.005525-6.0955 2.7411-6.09 6.11 0.005522 3.3689 2.7411 6.0955 6.11 6.09 1.6178-0.00265 3.1683-0.64787 4.3104-1.7937 1.1421-1.1458 1.7822-2.6985 1.7796-4.3163zm-72.24-0.56c0.004044-2.4731-1.4831-4.7047-3.7672-5.653s-4.9145-0.42617-6.6632 1.3226c-1.7487 1.7487-2.2708 4.3792-1.3226 6.6632s3.1799 3.7712 5.653 3.7672c3.3667-0.005506 6.0945-2.7333 6.1-6.1z" fill="#F8E3D5" fill-rule="nonzero"/>
<path d="m261.19 148.29v45.62h-120.19v-27.12h67.2c7.8758-0.003879 15.647-1.8064 22.72-5.27 6.4656-3.2472 11.999-8.0856 16.08-14.06l10.62-15.31c2.3497 5.0563 3.5681 10.564 3.57 16.14z" fill="#F8E3D5" fill-rule="nonzero"/>
<path d="m257.64 132.1v0.05-0.05z" fill="#F8E3D5" fill-rule="nonzero"/>
<path d="m257.66 132.15l-10.66 15.31c-4.0893 5.9783-9.6335 10.817-16.11 14.06-7.0733 3.4636-14.844 5.2661-22.72 5.27h-67.17v-18.37c0-0.68 0-1.35 0.06-2 1.0297-19.794 16.855-35.607 36.65-36.62 0.65 0 1.32-0.06 2-0.06h41.64c11.086-0.083055 21.706 4.4533 29.31 12.52 2.7455 2.9366 5.0832 6.2296 6.95 9.79v0.07l0.05 0.03z" fill="#80B5BC" fill-rule="nonzero"/>
<path d="m257.61 132c-1.8668-3.5604-4.2045-6.8534-6.95-9.79-7.6045-8.0667-18.224-12.603-29.31-12.52h1.28c15.007 5.73e-4 28.651 8.7031 34.98 22.31z" fill="#F8E3D5" fill-rule="nonzero"/>
<path d="m235.15 216.67c2.4722 3e-6 4.7007 1.4897 5.6459 3.7741 0.94512 2.2844 0.42054 4.9132-1.329 6.6598-1.7495 1.7467-4.3792 2.2669-6.662 1.3181-2.2828-0.94886-3.7689-3.1799-3.7649-5.652-2e-6 -1.6196 0.64405-3.1726 1.7902-4.3169 1.1461-1.1443 2.7003-1.7858 4.3198-1.7831z" fill="#6E7F89" fill-rule="nonzero"/>
<rect x="163.28" y="87.5" width="72.11" height="1" fill="#E6EDF2" fill-rule="nonzero"/>
<path d="m235.39 37.52v50h-72.11v-50c-0.21691-13.024 6.6073-25.153 17.852-31.729 11.245-6.5756 25.162-6.5756 36.406 0 11.245 6.5756 18.069 18.704 17.852 31.729zm-17.39 6.92c0.82887-4.8318-0.39624-9.7902-3.38-13.68-2.6952-3.8564-6.7068-6.5948-11.28-7.7-1.2348-0.25859-2.4836-0.44557-3.74-0.56-8.34 0.48-14.4 4.13-17.55 11.66-3.05 7.26-1.73 14 3.43 20 2.2219 2.3647 3.7989 5.2606 4.58 8.41 0.25 1.15 0.54 3.58 0.65 4.75h1.35c-2.1611-7e-6 -3.9145 1.749-3.92 3.91v0.5c0.005513 2.161 1.7589 3.91 3.92 3.91h0.11c-2.292 0-4.15 1.858-4.15 4.15s1.858 4.15 4.15 4.15h13.77c2.292 0 4.15-1.858 4.15-4.15s-1.858-4.15-4.15-4.15h0.38c2.1549-0.010939 3.8991-1.7551 3.91-3.91v-0.5c-0.010939-2.1549-1.7551-3.8991-3.91-3.91h1.94c0.05-1.17 0-2.37 0.2-3.54 0.44766-3.4835 2.0166-6.7268 4.47-9.24 2.7016-2.7558 4.4742-6.2871 5.07-10.1z" fill="#E6EDF2" fill-rule="nonzero"/>
<path d="m207.69 332.38c6.1254-0.004044 11.65 3.6832 13.996 9.3416s1.0513 12.173-3.28 16.504c-4.3313 4.3313-10.846 5.626-16.504 3.28s-9.3456-7.8702-9.3416-13.996c0-8.3561 6.7739-15.13 15.13-15.13z" fill="#D5F4F2" fill-rule="nonzero"/>
<path d="m199.34 67.31h-8.63c-0.11-1.17-0.4-3.6-0.65-4.75-0.78107-3.1494-2.3581-6.0453-4.58-8.41-5.16-6-6.48-12.73-3.43-20 3.15-7.52 9.21-11.15 17.55-11.65 1.2564 0.11443 2.5052 0.30141 3.74 0.56 4.5732 1.1052 8.5848 3.8436 11.28 7.7 2.9838 3.8898 4.2089 8.8482 3.38 13.68-0.59779 3.8093-2.3703 7.3368-5.07 10.09-2.4534 2.5132-4.0223 5.7565-4.47 9.24-0.16 1.17-0.15 2.37-0.2 3.54h-8.92zm8-23c-0.005519-2.1305-1.7361-3.8537-3.8666-3.85-2.1305 0.0036773-3.8552 1.7328-3.8533 3.8633s1.7295 3.8567 3.86 3.8567c1.0324 0.0053807 2.024-0.40305 2.7531-1.134 0.7291-0.73098 1.135-1.7236 1.1269-2.756l-0.02 0.02zm-8 0c-5e-6 -1.5662-0.94399-2.9779-2.3913-3.5764s-3.1127-0.26547-4.2187 0.84341c-1.106 1.1089-1.4346 2.7751-0.8325 4.2209 0.60216 1.4458 2.0164 2.3861 3.5825 2.3821 2.1201-0.0054642 3.839-1.7199 3.85-3.84l0.01-0.03z" fill="#FDAE76" fill-rule="nonzero"/>
<path d="m210.23 71.22v0.5c-0.010939 2.1549-1.7551 3.8991-3.91 3.91h-14.26c-2.1611 7e-6 -3.9145-1.749-3.92-3.91v-0.5c0.005513-2.161 1.7589-3.91 3.92-3.91h14.26c2.1549 0.010939 3.8991 1.7551 3.91 3.91z" fill="#98BAC8" fill-rule="nonzero"/>
<path d="m208.87 76.84c1.2007 1.1822 1.5651 2.974 0.92156 4.5313s-2.1666 2.5691-3.8516 2.5587h-13.77c-2.292 0-4.15-1.858-4.15-4.15s1.858-4.15 4.15-4.15h13.77c1.0987-0.0024709 2.1532 0.43298 2.93 1.21z" fill="#98BAC8" fill-rule="nonzero"/>
<path d="m203.5 40.43c1.5671-0.0040441 2.9819 0.93737 3.5835 2.3844s0.2711 3.114-0.837 4.2221c-1.1081 1.1081-2.7751 1.4386-4.2221 0.837-1.447-0.60157-2.3884-2.0164-2.3844-3.5835 0-2.1318 1.7282-3.86 3.86-3.86z" fill="#FDAE76" fill-rule="nonzero"/>
<path d="m195.47 40.49c2.1318 0.00553 3.8555 1.7382 3.85 3.87s-1.7382 3.8555-3.87 3.85c-2.1318-0.0055205-3.8555-1.7382-3.85-3.87 0.002649-1.0237 0.41187-2.0045 1.1376-2.7265 0.72577-0.72202 1.7086-1.1261 2.7324-1.1235z" fill="#FDAE76" fill-rule="nonzero"/>
<path d="m162.85 216.1c3.3745 0 6.11 2.7355 6.11 6.11s-2.7355 6.11-6.11 6.11-6.11-2.7355-6.11-6.11 2.7355-6.11 6.11-6.11z" fill="#6E7F89" fill-rule="nonzero"/>
<path d="m177.72 109.78c-19.795 1.0135-35.62 16.826-36.65 36.62 0.96595-19.822 16.827-35.67 36.65-36.62z" fill="#F8E3D5" fill-rule="nonzero"/>
<path d="m105.72 95.46v44.83c-0.049052 7.1096-5.8004 12.861-12.91 12.91h-79.66c-7.1096-0.049052-12.861-5.8004-12.91-12.91v-44.83c0.043607-7.1135 5.7966-12.871 12.91-12.92h79.66c7.1134 0.049114 12.866 5.8065 12.91 12.92zm-8.2 37.16c-0.0054949-2.0743-1.6857-3.7545-3.76-3.76h-12.16c-2.0698 0.01632-3.7437 1.6902-3.76 3.76 0.010976 2.0704 1.6896 3.7445 3.76 3.75h12.16c0.99711 0.005336 1.9551-0.38772 2.6611-1.0918 0.70601-0.70413 1.1016-1.661 1.0989-2.6582zm-0.24-15.53c-0.0054949-2.0743-1.6857-3.7545-3.76-3.76h-12.17c-0.99704 0.001507-1.9531 0.39687-2.66 1.1-0.69858 0.70991-1.0931 1.664-1.1 2.66 0.0054949 2.0743 1.6857 3.7545 3.76 3.76h12.17c2.0743-0.005495 3.7545-1.6857 3.76-3.76zm-6.75-18c-0.010988-2.4957-2.0343-4.5145-4.53-4.52h-69.48c-2.5018 0-4.53 2.0282-4.53 4.53 0 2.5018 2.0282 4.53 4.53 4.53h69.48c2.5035-0.005514 4.53-2.0365 4.53-4.54zm-21.25 26.91c0.0035827-0.80346-0.33453-1.5706-0.93-2.11l-10.09-9.13c-1.1622-0.97102-2.8839-0.85066-3.8997 0.27263-1.0158 1.1233-0.96296 2.8484 0.11968 3.9074l7.75 7-8 7.05c-0.56932 0.49374-0.91646 1.1955-0.96347 1.9476-0.047008 0.75213 0.21006 1.4916 0.71347 2.0524 0.53022 0.61045 1.3015 0.9577 2.11 0.95 0.68735-2e-4 1.3515-0.2488 1.87-0.7l10.34-9.14c0.61354-0.52644 0.97063-1.2916 0.98-2.1zm-20.36-11.66c0.25407-0.52419 0.39059-1.0976 0.4-1.68 0.034178-1.0298-0.54768-1.9812-1.48-2.42-1.3591-0.61858-2.9629-0.030489-3.6 1.32l-12.34 26.6c-0.16918 0.35241-0.25473 0.73911-0.25 1.13-0.0023721 1.0535 0.60604 2.0129 1.56 2.46 1.1696 0.58703 2.5923 0.23982 3.36-0.82l12.35-26.59zm-21.66 22.66c0.50462-0.5595 0.76341-1.2982 0.71829-2.0503-0.045126-0.75209-0.39039-1.4546-0.95829-1.9497l-8.02-7 7.76-7c0.78791-0.66157 1.153-1.6997 0.95264-2.7089-0.20037-1.0091-0.9344-1.8291-1.9153-2.1394-0.9809-0.31037-2.053-0.061916-2.7974 0.64828l-10.09 9.13c-0.57779 0.53358-0.90748 1.2835-0.91 2.07 0.014633 0.80868 0.37948 1.5712 1 2.09l10.34 9.14c0.56197 0.50083 1.3008 0.7562 2.0521 0.70924 0.75129-0.046955 1.4526-0.39233 1.9479-0.95924l-0.08 0.02z" fill="#E6EDF2" fill-rule="nonzero"/>
<path d="m100.67 176.05c2.4731-0.004044 4.7047 1.4831 5.653 3.7672s0.42617 4.9145-1.3226 6.6632c-1.7487 1.7487-4.3792 2.2708-6.6632 1.3226-2.2841-0.94828-3.7712-3.1799-3.7672-5.653 0.0055056-3.3667 2.7333-6.0945 6.1-6.1z" fill="#E6EDF2" fill-rule="nonzero"/>
<path d="m93.76 128.86c1.3878-0.07164 2.7019 0.62798 3.4173 1.8193 0.71539 1.1913 0.71539 2.6801 0 3.8714-0.71539 1.1913-2.0295 1.8909-3.4173 1.8193h-12.16c-2.0704-0.005463-3.749-1.6796-3.76-3.75 0.01632-2.0698 1.6902-3.7437 3.76-3.76h12.16z" fill="#C4D4DD" fill-rule="nonzero"/>
<path d="m93.52 113.33c2.0766 0 3.76 1.6834 3.76 3.76s-1.6834 3.76-3.76 3.76h-12.17c-2.0743-0.005495-3.7545-1.6857-3.76-3.76 0.0068532-0.99597 0.40142-1.9501 1.1-2.66 0.7069-0.70313 1.663-1.0985 2.66-1.1h12.17z" fill="#C4D4DD" fill-rule="nonzero"/>
<path d="m68.4 191.55c20.302 0 36.76 16.458 36.76 36.76s-16.458 36.76-36.76 36.76-36.76-16.458-36.76-36.76c-0.0026535-9.7502 3.8694-19.102 10.764-25.996 6.8944-6.8944 16.246-10.766 25.996-10.764zm14 22.88c-0.0055193-2.0477-1.669-3.7037-3.7166-3.7s-3.7052 1.6656-3.7033 3.7133c0.0018348 2.0477 1.6623 3.7067 3.71 3.7067 0.9926 0.010706 1.9481-0.37681 2.6528-1.0759 0.70473-0.69909 1.0999-1.6514 1.0972-2.6441h-0.04zm-10.33 34.33c0-2.049-1.661-3.71-3.71-3.71s-3.71 1.661-3.71 3.71 1.661 3.71 3.71 3.71c0.99006 0.007988 1.9425-0.37904 2.6463-1.0754 0.70385-0.69634 1.1011-1.6445 1.1037-2.6346h-0.04zm-10.34-34.33c-0.0055193-2.0477-1.669-3.7037-3.7166-3.7s-3.7052 1.6656-3.7033 3.7133c0.0018348 2.0477 1.6623 3.7067 3.71 3.7067 0.9926 0.010706 1.9481-0.37681 2.6528-1.0759 0.70473-0.69909 1.0999-1.6514 1.0972-2.6441h-0.04z" fill="#D5F4F2" fill-rule="nonzero"/>
<path d="m86 94.62c2.4957 0.0054729 4.519 2.0243 4.53 4.52 6.1e-6 2.5035-2.0265 4.5345-4.53 4.54h-69.48c-2.5018 0-4.53-2.0282-4.53-4.53 0-2.5018 2.0282-4.53 4.53-4.53h69.48z" fill="#C4D4DD" fill-rule="nonzero"/>
<path d="m78.73 210.73c1.5015 5e-6 2.8549 0.905 3.4285 2.2926 0.57365 1.3876 0.2544 2.9841-0.80873 4.0443-1.0631 1.0603-2.6605 1.3752-4.0465 0.79781-1.386-0.57739-2.2873-1.9333-2.2833-3.4347 0.0055123-2.0451 1.6649-3.7 3.71-3.7z" fill="#FE7C6F" fill-rule="nonzero"/>
<path d="m68.4 245.05c2.049 0 3.71 1.661 3.71 3.71s-1.661 3.71-3.71 3.71-3.71-1.661-3.71-3.71c0.0054945-2.0467 1.6633-3.7045 3.71-3.71z" fill="#FE7C6F" fill-rule="nonzero"/>
<path d="m68.35 123.93c0.59684 0.53492 0.93787 1.2985 0.93787 2.1s-0.34103 1.5651-0.93787 2.1l-10.35 9.14c-0.51853 0.4512-1.1826 0.6998-1.87 0.7-0.81873 0.008614-1.599-0.34673-2.13-0.97-0.50341-0.56079-0.76048-1.3003-0.71347-2.0524 0.047008-0.75213 0.39415-1.4539 0.96347-1.9476l8-7.05-7.75-7c-1.0826-1.059-1.1355-2.7841-0.11968-3.9074 1.0158-1.1233 2.7375-1.2437 3.8997-0.27263l10.07 9.16z" fill="#80B5BC" fill-rule="nonzero"/>
<path d="m58.06 210.73c1.5015 5e-6 2.8549 0.905 3.4285 2.2926 0.57365 1.3876 0.2544 2.9841-0.80873 4.0443-1.0631 1.0603-2.6605 1.3752-4.0465 0.79781-1.386-0.57739-2.2873-1.9333-2.2833-3.4347 0.0055123-2.0451 1.6649-3.7 3.71-3.7z" fill="#FE7C6F" fill-rule="nonzero"/>
<path d="m49.32 112.7c-0.0094132 0.58244-0.14593 1.1558-0.4 1.68l-12.35 26.55c-0.7677 1.0598-2.1904 1.407-3.36 0.82-0.95396-0.44706-1.5624-1.4065-1.56-2.46-0.0047324-0.39089 0.080822-0.77759 0.25-1.13l12.34-26.56c0.63707-1.3505 2.2409-1.9386 3.6-1.32 0.93232 0.43875 1.5142 1.3902 1.48 2.42z" fill="#C4D4DD" fill-rule="nonzero"/>
<path d="m27 133.05c0.5679 0.49515 0.91316 1.1976 0.95829 1.9497 0.045126 0.75209-0.21367 1.4908-0.71829 2.0503-0.49524 0.56691-1.1966 0.91229-1.9479 0.95924-0.75129 0.046956-1.4902-0.20841-2.0521-0.70924l-10.24-9.17c-0.62052-0.51878-0.98537-1.2813-1-2.09-0.0035827-0.80346 0.33453-1.5706 0.93-2.11l10.07-9.13c0.73906-0.72293 1.8145-0.98349 2.8025-0.67901 0.98799 0.30448 1.7302 1.1252 1.9341 2.1387s-0.16315 2.0574-0.95653 2.7203l-7.78 7.02 8 7.05z" fill="#80B5BC" fill-rule="nonzero"/>
<path d="m163.28 87.5h-10.15s-24.61 1.26-29.62-24.2l4e-6 118.31c-0.002656 3.263 1.2924 6.3931 3.5997 8.7003 2.3073 2.3073 5.4374 3.6023 8.7003 3.5997h5.19" stroke="#6E7F89" stroke-linejoin="round" stroke-width="2"/>
<path d="m261.19 193.91h5.25c6.7931 0 12.3-5.5069 12.3-12.3v-51.83c-0.065916-23.323-18.957-42.214-42.28-42.28h-1.07" stroke="#6E7F89" stroke-linejoin="round" stroke-width="2"/>
<path d="m257.64 132.1v0.05c2.3359 5.0594 3.5406 10.567 3.53 16.14v59.26c0 3-0.1 6.07-0.32 9.09l-0.54 7.44c-1.38 19.18-16.61 34.9-35.82 35.83h-1.88-9.28" stroke="#6E7F89" stroke-linejoin="round" stroke-width="2"/>
<path d="m221.35 109.72l1.28 4e-6c15.014-0.007209 28.668 8.6965 35 22.31" stroke="#6E7F89" stroke-linejoin="round" stroke-width="2"/>
<path d="m141.07 146.4c0.96595-19.822 16.827-35.67 36.65-36.62" stroke="#6E7F89" stroke-linejoin="round" stroke-width="2"/>
<path d="m188.87 260l-9.28-1e-6c-10.242 0.002663-20.066-4.0677-27.304-11.314-7.2388-7.2463-11.299-17.074-11.286-27.316l-3.2e-5 -23" stroke="#6E7F89" stroke-linejoin="round" stroke-width="2"/>
<path d="m188.87 259.95h24.48" stroke="#6E7F89" stroke-linejoin="round" stroke-width="2"/>
<path d="m221.35 109.72h-41.64c-0.67 0-1.34 0-2 0.06-19.795 1.0135-35.62 16.826-36.65 36.62 0 0.67-0.06 1.34-0.06 2v18.37h67.2c7.8758-0.003879 15.647-1.8064 22.72-5.27 6.4632-3.2416 11.996-8.0729 16.08-14.04l10.62-15.31v-0.05-0.07c-1.8668-3.5604-4.2045-6.8534-6.95-9.79-7.6069-8.0693-18.231-12.606-29.32-12.52z" stroke="#6E7F89" stroke-linejoin="round" stroke-width="2"/>
<path d="m235.39 87.5v0.1h-72.11v-50.08c-0.21691-13.024 6.6073-25.153 17.852-31.729 11.245-6.5756 25.162-6.5756 36.406 0 11.245 6.5756 18.069 18.704 17.852 31.729v49.98z" stroke="#6E7F89" stroke-linejoin="round" stroke-width="2"/>
<path d="m228.21 38.77h-3.59" stroke="#6E7F89" stroke-linejoin="round" stroke-width="2"/>
<path d="m175.05 38.77h-3.59" stroke="#6E7F89" stroke-linejoin="round" stroke-width="2"/>
<path d="m224.55 24.83l-3.13 1.76" stroke="#6E7F89" stroke-linejoin="round" stroke-width="2"/>
<path d="m177.66 27.68l-3.2-1.61" stroke="#6E7F89" stroke-linejoin="round" stroke-width="2"/>
<path d="m183.84 19.84l-2.32-2.74" stroke="#6E7F89" stroke-linejoin="round" stroke-width="2"/>
<path d="m214.58 14.55l-1.86 3.06" stroke="#6E7F89" stroke-linejoin="round" stroke-width="2"/>
<path d="m192.2 11.45l0.95 3.45" stroke="#6E7F89" stroke-linejoin="round" stroke-width="2"/>
<path d="m203.02 10.58l-0.4 3.57" stroke="#6E7F89" stroke-linejoin="round" stroke-width="2"/>
<path d="m206.32 67.31h1.94c0.05-1.17 0-2.37 0.2-3.54 0.44766-3.4835 2.0166-6.7268 4.47-9.24 2.6997-2.7532 4.4722-6.2807 5.07-10.09 0.82887-4.8318-0.39624-9.7902-3.38-13.68-2.6952-3.8564-6.7068-6.5948-11.28-7.7-1.2348-0.25859-2.4836-0.44557-3.74-0.56-8.34 0.48-14.4 4.13-17.55 11.66-3.05 7.26-1.73 14 3.43 20 2.2219 2.3647 3.7989 5.2606 4.58 8.41 0.25 1.15 0.54 3.58 0.65 4.75h1.35" stroke="#6E7F89" stroke-linejoin="round" stroke-width="2"/>
<path d="m205.94 75.63h0.38c2.1549-0.010939 3.8991-1.7551 3.91-3.91v-0.5c-0.010939-2.1549-1.7551-3.8991-3.91-3.91h-14.26c-2.1611-7e-6 -3.9145 1.749-3.92 3.91v0.5c0.005513 2.161 1.7589 3.91 3.92 3.91h0.11" stroke="#6E7F89" stroke-linejoin="round" stroke-width="2"/>
<path d="m192.17 75.63c-2.292 0-4.15 1.858-4.15 4.15s1.858 4.15 4.15 4.15h13.77c2.292 0 4.15-1.858 4.15-4.15s-1.858-4.15-4.15-4.15h-13.77z" stroke="#6E7F89" stroke-linejoin="round" stroke-width="2"/>
<path d="m199.34 67.31v-21.08" stroke="#6E7F89" stroke-linejoin="round" stroke-width="2"/>
<path d="m178.24 53.69l-3.12 1.76" stroke="#6E7F89" stroke-linejoin="round" stroke-width="2"/>
<path d="m225.2 54.21l-3.2-1.6" stroke="#6E7F89" stroke-linejoin="round" stroke-width="2"/>
<path d="m199.64 44.29c0 2.1318 1.7282 3.86 3.86 3.86s3.86-1.7282 3.86-3.86-1.7282-3.86-3.86-3.86c-2.1295 0.0054956-3.8545 1.7305-3.86 3.86z" stroke="#6E7F89" stroke-linejoin="round" stroke-width="2"/>
<path d="m191.6 44.34c-0.008099 1.5671 0.92964 2.9843 2.3751 3.5896 1.4455 0.60531 3.1133 0.27916 4.2242-0.82606s1.4457-2.7713 0.84793-4.2199c-0.59781-1.4486-2.0102-2.3937-3.5773-2.3937-2.1296-2.84e-5 -3.859 1.7205-3.87 3.85z" stroke="#6E7F89" stroke-linejoin="round" stroke-width="2"/>
<path d="m354.53 367.2l3.47 14.89c3.0986 13.097 0.03251 26.892-8.3222 37.444s-21.079 16.699-34.538 16.686h-219.67c-12.003-0.003224-23.347-5.4902-30.801-14.898-7.454-9.408-10.201-21.706-7.4592-33.392l16.41-69.73c8.51-33.51 26-58.15 58.15-58.15h148.06c20.94 0 38.17 9.89 49.75 26.44 5.041 7.3493 8.8884 15.449 11.4 24" stroke="#6E7F89" stroke-linejoin="round" stroke-width="2"/>
<path d="m369.53 212.61v23.48c0 5.683-4.607 10.29-10.29 10.29-5.6596 0.027498-10.235 4.6204-10.24 10.28v16.34c0 7.4614-6.0486 13.51-13.51 13.51h-5.86" stroke="#6E7F89" stroke-linejoin="round" stroke-width="2"/>
<rect x=".24" y="82.54" width="105.49" height="70.66" rx="12.92" stroke="#6E7F89" stroke-linejoin="round" stroke-width="2"/>
<circle cx="68.4" cy="228.31" r="36.76" stroke="#6E7F89" stroke-linejoin="round" stroke-width="2"/>
<polyline points="34.7 297.34 34.7 305.58 34.7 313.82" stroke="#6E7F89" stroke-linecap="round" stroke-linejoin="round" stroke-width="2"/>
<polyline points="42.94 305.58 34.7 305.58 26.46 305.58" stroke="#6E7F89" stroke-linecap="round" stroke-linejoin="round" stroke-width="2"/>
<path d="m341 310.49c3.2784-1.2399 6.7549-1.8736 10.26-1.87h42.88c16.176 0 29.29 13.114 29.29 29.29s-13.114 29.29-29.29 29.29h-42.9c-14.131-0.054162-26.21-10.187-28.721-24.093-2.5111-13.906 5.2615-27.624 18.481-32.617z" stroke="#6E7F89" stroke-linejoin="round" stroke-width="2"/>
<path d="m86 103.68h-69.48c-2.5018 0-4.53-2.0282-4.53-4.53 0-2.5018 2.0282-4.53 4.53-4.53h69.48c2.4957 0.0054729 4.519 2.0243 4.53 4.52 6.1e-6 2.5035-2.0265 4.5345-4.53 4.54z" stroke="#6E7F89" stroke-linejoin="round" stroke-width="2"/>
<path d="m78.64 218.38v4.87c0 3.25-2.59 6-6.26 7.24-2.36 0.76-4 2.44-4 4.4" stroke="#6E7F89" stroke-linejoin="round" stroke-width="2"/>
<path d="m58.17 218.38v4.88c0 3.24 2.58 6 6.25 7.23 2.35 0.76 4 2.44 4 4.4v9.88" stroke="#6E7F89" stroke-linejoin="round" stroke-width="2"/>
<path d="m82.44 214.43c0.0040471 1.5015-0.8973 2.8573-2.2833 3.4347-1.386 0.57739-2.9834 0.26245-4.0465-0.79781-1.0631-1.0603-1.3824-2.6568-0.80873-4.0443 0.57365-1.3876 1.9271-2.2926 3.4285-2.2926 2.0428 0.005462 3.699 1.6572 3.71 3.7z" stroke="#6E7F89" stroke-linejoin="round" stroke-width="2"/>
<path d="m72.11 248.76c0 2.049-1.661 3.71-3.71 3.71s-3.71-1.661-3.71-3.71 1.661-3.71 3.71-3.71c2.0467 0.005495 3.7045 1.6633 3.71 3.71z" stroke="#6E7F89" stroke-linejoin="round" stroke-width="2"/>
<path d="m61.77 214.43c0.0040471 1.5015-0.8973 2.8573-2.2833 3.4347-1.386 0.57739-2.9834 0.26245-4.0465-0.79781-1.0631-1.0603-1.3824-2.6568-0.80873-4.0443 0.57365-1.3876 1.9271-2.2926 3.4285-2.2926 2.0428 0.005462 3.699 1.6572 3.71 3.7z" stroke="#6E7F89" stroke-linejoin="round" stroke-width="2"/>
<path d="m25.15 138c-0.68474 0.001947-1.3464-0.24708-1.86-0.7l-10.29-9.17c-0.62052-0.51878-0.98537-1.2813-1-2.09-0.0035827-0.80346 0.33453-1.5706 0.93-2.11l10.07-9.13c0.73906-0.72293 1.8145-0.98349 2.8025-0.67901 0.98799 0.30448 1.7302 1.1252 1.9341 2.1387s-0.16315 2.0574-0.95653 2.7203l-7.78 7.02 8 7.05c0.5679 0.49515 0.91316 1.1976 0.95829 1.9497 0.045126 0.75209-0.21367 1.4908-0.71829 2.0503-0.52647 0.60405-1.2887 0.95053-2.09 0.95z" stroke="#6E7F89" stroke-linejoin="round" stroke-width="2"/>
<path d="m48.92 114.38l-12.35 26.55c-0.7677 1.0598-2.1904 1.407-3.36 0.82-0.95396-0.44706-1.5624-1.4065-1.56-2.46-0.0047324-0.39089 0.080822-0.77759 0.25-1.13l12.34-26.56c0.63707-1.3505 2.2409-1.9386 3.6-1.32 0.93232 0.43875 1.5142 1.3902 1.48 2.42-0.0094132 0.58244-0.14593 1.1558-0.4 1.68z" stroke="#6E7F89" stroke-linejoin="round" stroke-width="2"/>
<path d="m56.12 138c0.68735-2e-4 1.3515-0.2488 1.87-0.7l10.34-9.14c0.59684-0.53492 0.93787-1.2985 0.93787-2.1s-0.34103-1.5651-0.93787-2.1l-10.09-9.13c-1.1622-0.97102-2.8839-0.85066-3.8997 0.27263-1.0158 1.1233-0.96296 2.8484 0.11968 3.9074l7.75 7-8 7.05c-0.56932 0.49374-0.91646 1.1955-0.96347 1.9476-0.047008 0.75213 0.21006 1.4916 0.71347 2.0524 0.54341 0.62029 1.3357 0.96509 2.16 0.94z" stroke="#6E7F89" stroke-linejoin="round" stroke-width="2"/>
<path d="m93.52 120.85h-12.17c-2.0743-0.005495-3.7545-1.6857-3.76-3.76 0.0068532-0.99597 0.40142-1.9501 1.1-2.66 0.7069-0.70313 1.663-1.0985 2.66-1.1h12.17c2.0766 0 3.76 1.6834 3.76 3.76s-1.6834 3.76-3.76 3.76z" stroke="#6E7F89" stroke-linejoin="round" stroke-width="2"/>
<path d="m93.76 136.37h-12.16c-2.0704-0.005463-3.749-1.6796-3.76-3.75 0.01632-2.0698 1.6902-3.7437 3.76-3.76h12.16c1.3878-0.07164 2.7019 0.62798 3.4173 1.8193 0.71539 1.1913 0.71539 2.6801 0 3.8714-0.71539 1.1913-2.0295 1.8909-3.4173 1.8193z" stroke="#6E7F89" stroke-linejoin="round" stroke-width="2"/>
<rect x="105.15" y="284.69" width="205.07" height="125.63" stroke="#6E7F89" stroke-linejoin="round" stroke-width="2"/>
<path d="m222.82 347.51c0 8.3561-6.7739 15.13-15.13 15.13s-15.13-6.7739-15.13-15.13 6.7739-15.13 15.13-15.13c4.0127 0 7.8611 1.594 10.699 4.4315 2.8374 2.8374 4.4315 6.6858 4.4315 10.699z" stroke="#6E7F89" stroke-linejoin="round" stroke-width="2"/>
<path d="m106.78 182.15c0.004046 2.4722-1.482 4.7032-3.7649 5.652-2.2828 0.94886-4.9125 0.42859-6.662-1.3181-1.7495-1.7467-2.2741-4.3755-1.329-6.6598 0.94512-2.2844 3.1737-3.7741 5.6459-3.7741 3.3683 0.005486 6.099 2.7317 6.11 6.1z" stroke="#6E7F89" stroke-linejoin="round" stroke-width="2"/>
<path d="m295.53 237.65c-3e-6 2.4722-1.4897 4.7007-3.7741 5.6459-2.2844 0.94512-4.9132 0.42054-6.6598-1.329-1.7467-1.7495-2.2669-4.3792-1.3181-6.662 0.94886-2.2828 3.1799-3.7689 5.652-3.7649 1.6196-2e-6 3.1726 0.64405 4.3169 1.7902 1.1443 1.1461 1.7858 2.7003 1.7831 4.3198z" stroke="#6E7F89" stroke-linejoin="round" stroke-width="2"/>
<path d="m331.09 202.05c-1.4241-0.41081-2.9407-0.36888-4.34 0.12-2.7933 0.94-5.5967 1.8633-8.41 2.77-2.0908 0.89112-4.5101-0.056157-5.44-2.13-2.1-3.7667-4.1967-7.5433-6.29-11.33-1.25-2.25-1.05-3.32 0.83-5 2.15-1.93 4.22-3.92 6.42-5.79 4.68-4 3.21-11.92-2-14.39-2.7-1.27-5.34-2.66-8-4-0.90036-0.32595-1.632-0.99993-2.0307-1.8705-0.39864-0.87062-0.43083-1.8649-0.08933-2.7595 1.15-4.38 2.32-8.76 3.48-13.13 0.37999-1.9798 2.2573-3.3049 4.25-3 2.69 0.23 5.4 0.39 8.08 0.79 6.12 0.91 11.86-6 9.48-11.66-1.14-2.71-1.89-5.59-2.8-8.39-0.77243-1.6862-0.069112-3.6811 1.59-4.51 4-2.42 8.1-4.77 12.18-7.09 1.519-0.89524 3.4656-0.53238 4.56 0.85 2 2.21 4.1 4.34 6 6.66 2.45 3 6.71 3.49 9.94 2.22 2.2438-0.84862 4.0238-2.6069 4.9-4.84 1-2.47 2.17-4.89 3.29-7.32 0.66283-1.7813 2.5788-2.7588 4.41-2.25 4.5467 1.16 9.09 2.3633 13.63 3.61 1.8591 0.35411 3.0888 2.1362 2.76 4-0.17 3.08-0.36 6.15-0.49 9.23-0.0424 2.8173 1.2547 5.4875 3.4955 7.1956s5.1592 2.2516 7.8645 1.4644c3-1 6.05-2 9.06-3 1.4004-0.45859 2.9308 0.1252 3.67 1.4 2.54 4.1067 5.05 8.24 7.53 12.4 0.94 1.59 0.46 3.55-1.11 5-2.16 2-4.24 4-6.51 5.84-4.61 3.7-3.07 12.59 2.45 14.59 2.59 1 5.08 2.23 7.59 3.41 0.92424 0.31472 1.6793 0.99424 2.0893 1.8803 0.40999 0.88611 0.43917 1.9015 0.080749 2.8097l-3.53 13.34c-0.24801 1.6841-1.7891 2.8665-3.48 2.67-3.05-0.1-6.1-0.19-9.13-0.49-5.6-0.53-9.68 4.46-9.64 8.78 0.048252 0.97944 0.24031 1.9465 0.57 2.87 0.82 2.69 1.74 5.35 2.62 8 0.76 2.3 0.22 3.74-1.84 4.94-3.88 2.26-7.7667 4.52-11.66 6.78-1.5714 1.0822-3.7123 0.76328-4.9-0.73-2-2.2333-4.0233-4.4733-6.07-6.72-1.6935-1.8079-4.0958-2.7805-6.57-2.66-3.1774 0.042615-6.0806 1.8083-7.58 4.61-1.37 2.73-2.72 5.46-4.08 8.18-1.06 2.11-2.35 2.72-4.6 2.12l-13.39-3.52c-1.7864-0.39304-2.9867-2.0726-2.78-3.89 0.23-2.76 0.32-5.56 0.79-8.28 0.85-4.83-3.2-8.83-6.85-9.78z" stroke="#6E7F89" stroke-linejoin="round" stroke-width="2"/>
<path d="m391.37 174.37c2.0281-7.6695 0.90134-15.832-3.1287-22.665-4.0301-6.8333-10.628-11.769-18.321-13.705-7.5649-2.1024-15.657-1.0785-22.46 2.8419s-11.746 10.409-13.72 18.008c-4.36 16.31 4.74 32.39 20.84 36.82 16.037 4.2478 32.489-5.2771 36.79-21.3v0z" stroke="#6E7F89" stroke-linecap="round" stroke-linejoin="round" stroke-width="2"/>
<path d="m357.23 329.26h-10.47c-2.5067-0.010988-4.5345-2.0433-4.54-4.55 0.016417-2.4989 2.0411-4.5191 4.54-4.53h10.47c2.4989 0.010906 4.5236 2.0311 4.54 4.53-0.016295 2.5022-2.0378 4.5282-4.54 4.55z" stroke="#6E7F89" stroke-linejoin="round" stroke-width="2"/>
<path d="m377.59 347.51h-40.9c-1.971-0.00546-3.569-1.599-3.58-3.57v-1.94c0.010973-1.971 1.609-3.5645 3.58-3.57h40.9c1.9671 0.010929 3.5591 1.6029 3.57 3.57v1.94c-0.010929 1.9671-1.6029 3.5591-3.57 3.57z" stroke="#6E7F89" stroke-linejoin="round" stroke-width="2"/>
<path d="m381.16 324.71c0.008095 2.2596-1.3474 4.301-3.433 5.1704-2.0857 0.8694-4.4898 0.39511-6.089-1.2013-1.5992-1.5964-2.0778-3.9996-1.2122-6.0869s2.9046-3.4464 5.1643-3.4423c3.0723-5e-6 5.5645 2.4877 5.57 5.56z" stroke="#6E7F89" stroke-linejoin="round" stroke-width="2"/>
<polyline points="391.43 325.94 391.43 329.88 391.43 347.49" stroke="#6E7F89" stroke-linejoin="round" stroke-width="2"/>
<path d="m391.43 329.87s0 9.14 13.57 8.07" stroke="#6E7F89" stroke-linejoin="round" stroke-width="2"/>
<path d="m395.23 322.08c0 2.049-1.661 3.71-3.71 3.71s-3.71-1.661-3.71-3.71 1.661-3.71 3.71-3.71c2.0467 0.005495 3.7045 1.6633 3.71 3.71z" stroke="#6E7F89" stroke-linejoin="round" stroke-width="2"/>
<path d="m412.51 337c-0.005519 2.0477-1.669 3.7037-3.7166 3.7-2.0477-0.003677-3.7052-1.6656-3.7033-3.7133 0.001835-2.0477 1.6623-3.7067 3.71-3.7067 0.98651-0.002681 1.9332 0.38871 2.6299 1.0872 0.69663 0.69851 1.0855 1.6463 1.0801 2.6328z" stroke="#6E7F89" stroke-linejoin="round" stroke-width="2"/>
<path d="m395.23 351.26c0 2.049-1.661 3.71-3.71 3.71s-3.71-1.661-3.71-3.71 1.661-3.71 3.71-3.71c2.0467 0.005495 3.7045 1.6633 3.71 3.71z" stroke="#6E7F89" stroke-linejoin="round" stroke-width="2"/>
<polyline points="141.01 166.79 141.01 193.91 141.01 195.89 141.01 198.37" stroke="#6E7F89" stroke-linejoin="round" stroke-width="2"/>
<path d="m154.5 224l-0.54-7.42c-0.22-3.02-0.33-6.0433-0.33-9.07v-59.1c0.050267-10.253 4.1717-20.067 11.457-27.281s17.139-11.239 27.393-11.189l-12.61 5.74e-4c-10.253-0.055847-20.109 3.9638-27.398 11.175-7.2896 7.2108-11.416 17.022-11.472 27.275v59.1c0 3.0267 0.11 6.05 0.33 9.07l0.54 7.42c1.39 19.13 16.73 34.81 36.08 35.73h1.9 12.61-1.9c-19.33-0.92-34.67-16.6-36.06-35.71z" fill="#000" fill-rule="nonzero" opacity=".07" style="mix-blend-mode:multiply"/>
<path d="m391.37 164.67c-4.2926 16.031-20.745 25.57-36.79 21.33-11.289-2.976-19.754-12.339-21.58-23.87-2.5554 15.06 6.78 29.587 21.54 33.52 16.03 4.2433 32.475-5.2688 36.79-21.28 1.0962-4.0785 1.3008-8.3453 0.6-12.51-0.13784 0.94574-0.32475 1.8837-0.56 2.81z" fill="#000" fill-rule="nonzero" opacity=".07" style="mix-blend-mode:multiply"/>
<path d="m327 130.61c1.78 4.26-1 9.19-5.06 11 2.12 0.17 4.25 0.34 6.35 0.65 6.13 0.91 11.86-6 9.48-11.66-1.13-2.71-1.88-5.59-2.8-8.39-0.77243-1.6862-0.069112-3.6811 1.59-4.51 2.52-1.51 5.06-3 7.61-4.47l-1.64-1.77c-1.0964-1.3779-3.0371-1.7439-4.56-0.86-4.08 2.3267-8.14 4.6933-12.18 7.1-1.6633 0.82517-2.3681 2.8241-1.59 4.51 0.92 2.79 1.68 5.69 2.8 8.4z" fill="#000" fill-rule="nonzero" opacity=".07" style="mix-blend-mode:multiply"/>
<path d="m323.68 202.81l-6.3-11.33c-1.25-2.25-1.05-3.32 0.84-5 2.14-1.93 4.22-3.93 6.41-5.79 4.68-4 3.21-11.92-2-14.39-2.7-1.27-5.34-2.66-8-4-0.90383-0.32134-1.6391-0.99478-2.0385-1.867s-0.42875-1.8688-0.081496-2.763c1.1467-4.38 2.3033-8.76 3.47-13.14 0.20763-0.88346 0.69519-1.6762 1.39-2.26-2.62-0.38-5.27-0.54-7.92-0.77-1.9892-0.29905-3.86 1.0247-4.24 3l-3.48 13.14c-0.3415 0.89458-0.30931 1.8888 0.08933 2.7595 0.39864 0.87062 1.1303 1.5446 2.0307 1.8705 2.67 1.34 5.31 2.73 8 4 5.23 2.47 6.7 10.43 2 14.39-2.2 1.86-4.28 3.86-6.42 5.79-1.89 1.7-2.08 2.77-0.83 5 2.0867 3.78 4.1833 7.5567 6.29 11.33 0.93399 2.0752 3.3564 3.0219 5.45 2.13l5.53-1.82c-0.069951-0.088667-0.13345-0.18224-0.19-0.28z" fill="#000" fill-rule="nonzero" opacity=".07" style="mix-blend-mode:multiply"/>
<path d="m369.23 120.34c2.2455-0.84401 4.0292-2.5986 4.91-4.83 1-2.47 2.16-4.89 3.28-7.32 0.083455-0.17524 0.17694-0.34552 0.28-0.51-2.2-0.58-4.4-1.1467-6.6-1.7-1.8337-0.54763-3.7782 0.4181-4.45 2.21-1.12 2.43-2.26 4.85-3.29 7.32-0.5973 1.4965-1.6062 2.7932-2.91 3.74 2.5337 1.8761 5.8644 2.2896 8.78 1.09z" fill="#000" fill-rule="nonzero" opacity=".07" style="mix-blend-mode:multiply"/>
<path d="m409.13 131.47l2.45-0.82c-0.16-0.27-0.33-0.54-0.5-0.81-0.73465-1.2686-2.2554-1.8519-3.65-1.4l-5.68 1.9c2.1523 1.499 4.8777 1.9163 7.38 1.13z" fill="#000" fill-rule="nonzero" opacity=".07" style="mix-blend-mode:multiply"/>
<path d="m350.71 224c-1.7876-0.3844-2.9908-2.0637-2.78-3.88 0.23-2.77 0.31-5.56 0.79-8.29 0.84-4.82-3.21-8.87-6.85-9.77-1.4275-0.41095-2.9473-0.36902-4.35 0.12-1.19 0.41-2.39 0.79-3.59 1.19 2.58 1.76 4.64 4.9 4 8.46-0.47 2.73-0.56 5.52-0.79 8.29-0.206 1.815 0.99514 3.4914 2.78 3.88l13.34 3.53c2.08 0.55 3.35 0.06 4.36-1.7l-6.91-1.83z" fill="#000" fill-rule="nonzero" opacity=".07" style="mix-blend-mode:multiply"/>
<path d="m386.87 215.28c-3.1326-3.2094-8.1639-3.5865-11.74-0.88 0.36199 0.25907 0.69701 0.55389 1 0.88 2 2.23 4.05 4.48 6.08 6.7 1.1909 1.4934 3.3318 1.8161 4.91 0.74l4.28-2.49-4.53-4.95z" fill="#000" fill-rule="nonzero" opacity=".07" style="mix-blend-mode:multiply"/>
<path d="m42.64 228.31c0.02214-18.163 13.302-33.588 31.26-36.31-14.29-2.1523-28.515 4.2676-36.355 16.407-7.8399 12.14-7.8399 27.746 0 39.886 7.8399 12.14 22.065 18.559 36.355 16.407-17.988-2.7262-31.277-18.197-31.26-36.39z" fill="#000" fill-rule="nonzero" opacity=".07" style="mix-blend-mode:multiply"/>
<path d="m205.34 2c-1.9822-0.33726-3.9893-0.50786-6-0.51-19.915 0-36.06 16.145-36.06 36.06v50.05h12v-50.07c0.013331-17.59 12.715-32.603 30.06-35.53z" fill="#000" fill-rule="nonzero" opacity=".07" style="mix-blend-mode:multiply"/>
<path d="m74.22 387.93l16.4-69.74c8.51-33.49 26-58.15 58.15-58.15h-17c-32.11 0-49.64 24.66-58.15 58.15l-16.4 69.74c-2.7497 11.685-0.0068914 23.986 7.4465 33.395 7.4534 9.4098 18.799 14.896 30.804 14.895h17c-12.004 0.001431-23.35-5.4848-30.804-14.895-7.4534-9.4098-10.196-21.711-7.4465-33.395z" fill="#000" fill-rule="nonzero" opacity=".07" style="mix-blend-mode:multiply"/>
<rect x="90.7" y="410.33" width="231.26" height="25.89" fill="#E6EDF2" fill-rule="nonzero"/>
<rect x="90.7" y="410.33" width="231.26" height="25.89" stroke="#6E7F89" stroke-linejoin="round" stroke-width="2"/>
<path d="m354.53 367.21c-16.11 0-32.53-13.07-32.53-29.21-0.00281-4.3925 0.99222-8.7283 2.91-12.68-6.1379 5.5359-9.6411 13.414-9.64 21.68 0.049415 16.156 13.134 29.241 29.29 29.29h12.11" fill="#000" fill-rule="nonzero" opacity=".07" style="mix-blend-mode:multiply"/>
<path d="m20.24 140.28v-44.82c0.043666-7.1174 5.8026-12.876 12.92-12.92h-20c-7.1174 0.043666-12.876 5.8026-12.92 12.92v44.82c0.043666 7.1174 5.8026 12.876 12.92 12.92h20c-7.1174-0.043666-12.876-5.8026-12.92-12.92z" fill="#000" fill-rule="nonzero" opacity=".07" style="mix-blend-mode:multiply"/>
<path d="m336 337.92c0.049415-16.156 13.134-29.241 29.29-29.29h-14c-16.156 0.049415-29.241 13.134-29.29 29.29 0.049415 16.156 13.134 29.241 29.29 29.29h14c-16.156-0.049415-29.241-13.134-29.29-29.29z" fill="#000" fill-rule="nonzero" opacity=".07" style="mix-blend-mode:multiply"/>
<rect x="90.48" y="410.23" width="231.47" height="10.73" fill="#000" fill-rule="nonzero" opacity=".07" style="mix-blend-mode:multiply"/>
</g>
</g>
</svg>
