<?xml version="1.0" encoding="UTF-8"?>
<svg version="1.1" viewBox="0 0 421 425" xmlns="http://www.w3.org/2000/svg">
<g fill="none" fill-rule="evenodd">
<path d="m275.14 322.19l1e-6 101.64h-207.51l7e-7 -101.64c-0.0026524-19.53 7.7536-38.26 21.562-52.071 13.809-13.81 32.538-21.569 52.068-21.569h60.25c19.53 0 38.259 7.7588 52.068 21.569 13.809 13.81 21.565 32.541 21.562 52.071z" fill="#C4D4DD" fill-rule="nonzero"/>
<path d="m275.14 423.83h-207.51l7e-7 -101.64c-0.0026524-19.53 7.7536-38.26 21.562-52.071 13.809-13.81 32.538-21.569 52.068-21.569h60.25c19.53 0 38.259 7.7588 52.068 21.569 13.809 13.81 21.565 32.541 21.562 52.071l1e-6 101.64z" stroke="#6E7F89" stroke-linejoin="round" stroke-width="2"/>
<path d="m319.31 303.66c-12.348 6.6855-27.697 3.734-36.685-7.054-8.988-10.788-9.1197-26.418-0.31468-37.356" fill="#E6EDF2" fill-rule="nonzero" stroke="#6E7F89" stroke-linejoin="round" stroke-width="2"/>
<rect x="269.75" y="332.72" width="42.08" height="10.79" rx="5.395" fill="#E6EDF2" fill-rule="nonzero" stroke="#6E7F89" stroke-linejoin="round" stroke-width="2"/>
<path d="m243.71 314.76v50.24c-0.016498 7.4103-6.0197 13.414-13.43 13.43h-70.52v-77.09h70.52c7.4064 0.016475 13.408 6.0136 13.43 13.42zm-14.57 30.7c0.17588-0.43936 0.16296-0.93178-0.035718-1.3613-0.19868-0.42954-0.56557-0.75823-1.0143-0.90868-1.22-0.58-2.42-1.2-3.68-1.66-2.66-1-3.41-5.27-1.18-7.06 1.1-0.88 2.11-1.88 3.15-2.83 0.75182-0.5678 0.98058-1.5972 0.54-2.43-1.2-2-2.4167-4-3.65-6-0.3564-0.61502-1.0935-0.8982-1.77-0.68-1.46 0.49-2.92 1-4.4 1.47-1.3076 0.38012-2.718 0.11839-3.8022-0.70558-1.0842-0.82397-1.714-2.1128-1.6978-3.4744 0.07-1.5 0.16-3 0.25-4.49 0.1572-0.90294-0.44712-1.7624-1.35-1.92-2.19-0.62-4.39-1.19-6.6-1.75-0.88738-0.27434-1.8338 0.19666-2.15 1.07-0.54 1.17-1.1 2.35-1.59 3.54-0.42118 1.0816-1.2831 1.9326-2.37 2.34-1.6712 0.71939-3.6155 0.28374-4.82-1.08-0.9-1.12-1.92-2.15-2.89-3.22-0.53772-0.65797-1.472-0.83131-2.21-0.41-2 1.1267-3.97 2.27-5.91 3.43-0.79706 0.4103-1.1316 1.3742-0.76 2.19 0.44 1.37 0.8 2.75 1.35 4.06 1.15 2.76-1.62 6.1-4.59 5.65-1.3-0.19-2.61-0.27-3.91-0.38-0.97204-0.15122-1.8869 0.50161-2.06 1.47l-1.68 6.36c-0.16853 0.42936-0.15755 0.90842 0.030482 1.3296 0.18803 0.42119 0.53735 0.7492 0.96952 0.91039 1.29 0.65 2.56 1.32 3.87 1.94 1.2547 0.63776 2.1201 1.8468 2.3191 3.2401 0.19905 1.3933-0.29316 2.7963-1.3191 3.7599-1.06 0.9-2.07 1.87-3.1 2.8-0.41379 0.23792-0.6988 0.64916-0.77632 1.1201-0.077527 0.47098 0.060632 0.95186 0.37632 1.3099 1 1.84 2 3.66 3 5.49 0.45434 0.9979 1.6274 1.4439 2.63 1l4.07-1.33c0.67339-0.25298 1.4113-0.27757 2.1-0.07 2.1284 0.53899 3.5408 2.5556 3.32 4.74-0.24 1.31-0.28 2.66-0.39 4-0.09166 0.88159 0.49401 1.6912 1.36 1.88l6.45 1.71c0.42561 0.17997 0.90697 0.1744 1.3283-0.01539 0.42132-0.18979 0.74447-0.5466 0.89171-0.98461 0.66-1.32 1.33-2.63 2-4 0.65773-1.1946 1.8409-2.0085 3.1917-2.1956 1.3508-0.18707 2.7107 0.27467 3.6683 1.2456 0.97333 1.0933 1.9533 2.1767 2.94 3.25 0.57063 0.72593 1.6053 0.88746 2.37 0.37l5.65-3.29c0.44343-0.18909 0.78922-0.55272 0.95578-1.0051 0.16656-0.45237 0.13915-0.95342-0.075783-1.3849-0.42-1.3-0.86-2.59-1.26-3.89-0.15153-0.45188-0.23576-0.9236-0.25-1.4 0.03004-1.1901 0.54428-2.3164 1.4239-3.1186s2.0483-1.2108 3.2361-1.1314c1.48 0.14 2.95 0.18 4.42 0.23 0.81959 0.090648 1.5667-0.47626 1.7-1.29 0.58-2.1467 1.1567-4.2933 1.73-6.44z" fill="#D5F4F2" fill-rule="nonzero"/>
<path d="m228.09 343.19c0.44871 0.15045 0.8156 0.47914 1.0143 0.90868 0.19868 0.42954 0.2116 0.92196 0.035718 1.3613-0.57333 2.1533-1.14 4.3067-1.7 6.46-0.13332 0.81374-0.88041 1.3806-1.7 1.29-1.47 0-2.94-0.09-4.42-0.23-1.1878-0.079379-2.3566 0.32926-3.2361 1.1314s-1.3938 1.9285-1.4239 3.1186c0.014235 0.4764 0.098469 0.94812 0.25 1.4 0.4 1.3 0.84 2.59 1.26 3.89 0.21493 0.4315 0.24235 0.93254 0.075783 1.3849-0.16656 0.45237-0.51235 0.816-0.95578 1.0051l-5.65 3.29c-0.76475 0.51746-1.7994 0.35593-2.37-0.37-0.99333-1.08-1.9733-2.1633-2.94-3.25-0.95762-0.97091-2.3175-1.4326-3.6683-1.2456-1.3508 0.18707-2.534 1.001-3.1917 2.1956-0.65 1.33-1.32 2.64-2 4-0.14724 0.43801-0.47038 0.79482-0.89171 0.98461-0.42132 0.18978-0.90269 0.19536-1.3283 0.01539l-6.45-1.71c-0.86599-0.18882-1.4517-0.99841-1.36-1.88 0.11-1.35 0.15-2.7 0.39-4 0.22083-2.1844-1.1916-4.201-3.32-4.74-0.68874-0.20757-1.4266-0.18298-2.1 0.07l-4.07 1.33c-1.0026 0.44395-2.1757-0.002096-2.63-1-1-1.83-2-3.65-3-5.49-0.31569-0.358-0.45385-0.83889-0.37632-1.3099 0.077527-0.47098 0.36254-0.88221 0.77632-1.1201 1-0.93 2-1.9 3.1-2.8 1.0259-0.96357 1.5182-2.3665 1.3191-3.7599-0.19905-1.3933-1.0644-2.6024-2.3191-3.2401-1.31-0.62-2.58-1.29-3.87-1.94-0.43217-0.16119-0.78149-0.48921-0.96952-0.91039-0.18803-0.42119-0.19901-0.90024-0.030482-1.3296l1.68-6.36c0.1731-0.96839 1.088-1.6212 2.06-1.47 1.3 0.11 2.61 0.19 3.91 0.38 3 0.45 5.74-2.89 4.59-5.65-0.55-1.31-0.91-2.69-1.35-4.06-0.37155-0.81585-0.037065-1.7797 0.76-2.19 1.96-1.16 3.93-2.3033 5.91-3.43 0.73795-0.42131 1.6723-0.24797 2.21 0.41 1 1.07 2 2.1 2.89 3.22 1.2045 1.3637 3.1488 1.7994 4.82 1.08 1.0869-0.40737 1.9488-1.2584 2.37-2.34 0.49-1.19 1-2.37 1.59-3.54 0.31621-0.87334 1.2626-1.3443 2.15-1.07 2.21 0.56 4.41 1.13 6.6 1.75 0.90288 0.15758 1.5072 1.0171 1.35 1.92-0.09 1.5-0.18 3-0.25 4.49-0.016127 1.3616 0.61367 2.6505 1.6978 3.4744 1.0842 0.82397 2.4945 1.0857 3.8022 0.70558 1.48-0.48 2.94-1 4.4-1.47 0.67651-0.2182 1.4136 0.064977 1.77 0.68 1.2333 2 2.45 4 3.65 6 0.44058 0.83278 0.21182 1.8622-0.54 2.43-1 0.95-2.05 1.95-3.15 2.83-2.23 1.79-1.48 6.09 1.18 7.06 1.23 0.45 2.43 1.06 3.65 1.64zm-16.46 1c0.83971-3.1624 0.37725-6.5293-1.284-9.3482-1.6612-2.8188-4.3827-4.8545-7.556-5.6518-3.1159-0.86527-6.4487-0.44293-9.2503 1.1722s-4.8371 4.2877-5.6497 7.4178c-0.91531 3.1582-0.52032 6.552 1.0959 9.4156s4.3174 4.9557 7.4941 5.8044c6.6028 1.743 13.373-2.1762 15.15-8.77v-0.04z" fill="#7EB5BD" fill-rule="nonzero"/>
<path d="m202.79 329.24c3.1733 0.79735 5.8948 2.833 7.556 5.6518 1.6612 2.8188 2.1237 6.1858 1.284 9.3482-1.7813 6.5897-8.5502 10.504-15.15 8.76-3.1654-0.84949-5.8574-2.9339-7.4723-5.7859-1.6149-2.8519-2.0176-6.2327-1.1177-9.3841 0.81254-3.1301 2.8481-5.8027 5.6497-7.4178s6.1344-2.0375 9.2503-1.1722z" fill="#C4D4DD" fill-rule="nonzero"/>
<path d="m159.76 301.34v77.06h-14.82c-7.3948-0.021902-13.387-6.0053-13.42-13.4v-50.24c0.016498-7.4048 6.0152-13.404 13.42-13.42h14.82zm-5.13 13.29c0-1.6569-1.3431-3-3-3h-11.28c-1.4632 0.22548-2.5431 1.4846-2.5431 2.965s1.0799 2.7395 2.5431 2.965h11.32c0.8006 0.016512 1.5733-0.29425 2.1395-0.86048s0.87699-1.3389 0.86048-2.1395l-0.04 0.07zm-2.16 28.88v-18.2h-14.1v18.2h14.1zm-0.7 20.9c0-3.507-2.843-6.35-6.35-6.35s-6.35 2.843-6.35 6.35 2.843 6.35 6.35 6.35 6.35-2.843 6.35-6.35z" fill="#E6EDF2" fill-rule="nonzero"/>
<path d="m151.67 311.66c1.6569 0 3 1.3431 3 3 0.016512 0.8006-0.29425 1.5733-0.86048 2.1395s-1.3389 0.87699-2.1395 0.86048h-11.32c-1.4632-0.22548-2.5431-1.4846-2.5431-2.965s1.0799-2.7395 2.5431-2.965l11.32-0.07z" fill="#C4D4DD" fill-rule="nonzero"/>
<rect x="138.37" y="325.31" width="14.1" height="18.21" fill="#7EB5BD" fill-rule="nonzero"/>
<path d="m145.42 358.07c2.5702-0.004044 4.8893 1.5416 5.8747 3.9153 0.98542 2.3737 0.44278 5.1074-1.3746 6.9248s-4.551 2.36-6.9248 1.3746c-2.3737-0.98542-3.9194-3.3046-3.9153-5.8747 0.005506-3.4992 2.8408-6.3345 6.34-6.34z" fill="#C4D4DD" fill-rule="nonzero"/>
<path d="m159.76 301.34h70.52c7.4064 0.016475 13.408 6.0136 13.43 13.42v50.24c-0.016498 7.4103-6.0197 13.414-13.43 13.43h-85.34c-7.4064-0.021992-13.404-6.0236-13.42-13.43v-50.24c0.016498-7.4048 6.0152-13.404 13.42-13.42h14.82z" stroke="#6E7F89" stroke-linejoin="round" stroke-width="2"/>
<path d="m184.53 358.18c-0.68874-0.20757-1.4266-0.18298-2.1 0.07l-4.07 1.33c-1.0026 0.44395-2.1757-0.002096-2.63-1-1-1.83-2-3.65-3-5.49-0.31569-0.358-0.45385-0.83889-0.37632-1.3099 0.077527-0.47098 0.36254-0.88221 0.77632-1.1201 1-0.93 2-1.9 3.1-2.8 1.0259-0.96357 1.5182-2.3665 1.3191-3.7599-0.19905-1.3933-1.0644-2.6024-2.3191-3.2401-1.31-0.62-2.58-1.29-3.87-1.94-0.43217-0.16119-0.78149-0.48921-0.96952-0.91039-0.18803-0.42119-0.19901-0.90024-0.030482-1.3296l1.68-6.36c0.1731-0.96839 1.088-1.6212 2.06-1.47 1.3 0.11 2.61 0.19 3.91 0.38 3 0.45 5.74-2.89 4.59-5.65-0.55-1.31-0.91-2.69-1.35-4.06-0.37155-0.81585-0.037065-1.7797 0.76-2.19 1.96-1.16 3.93-2.3033 5.91-3.43 0.73795-0.42131 1.6723-0.24797 2.21 0.41 1 1.07 2 2.1 2.89 3.22 1.2045 1.3637 3.1488 1.7994 4.82 1.08 1.0869-0.40737 1.9488-1.2584 2.37-2.34 0.49-1.19 1-2.37 1.59-3.54 0.31621-0.87334 1.2626-1.3443 2.15-1.07 2.21 0.56 4.41 1.13 6.6 1.75 0.90288 0.15758 1.5072 1.0171 1.35 1.92-0.09 1.5-0.18 3-0.25 4.49-0.016127 1.3616 0.61367 2.6505 1.6978 3.4744 1.0842 0.82397 2.4945 1.0857 3.8022 0.70558 1.48-0.48 2.94-1 4.4-1.47 0.67651-0.2182 1.4136 0.064977 1.77 0.68 1.2333 2 2.45 4 3.65 6 0.44058 0.83278 0.21182 1.8622-0.54 2.43-1 0.95-2.05 1.95-3.15 2.83-2.23 1.79-1.48 6.09 1.18 7.06 1.26 0.46 2.46 1.08 3.68 1.66 0.44871 0.15045 0.8156 0.47914 1.0143 0.90868 0.19868 0.42954 0.2116 0.92196 0.035718 1.3613-0.57333 2.1533-1.14 4.3067-1.7 6.46-0.13332 0.81374-0.88041 1.3806-1.7 1.29-1.47 0-2.94-0.09-4.42-0.23-1.1878-0.079379-2.3566 0.32926-3.2361 1.1314s-1.3938 1.9285-1.4239 3.1186c0.014235 0.4764 0.098469 0.94812 0.25 1.4 0.4 1.3 0.84 2.59 1.26 3.89 0.21493 0.4315 0.24235 0.93254 0.075783 1.3849-0.16656 0.45237-0.51235 0.816-0.95578 1.0051l-5.65 3.29c-0.76475 0.51746-1.7994 0.35593-2.37-0.37-0.99333-1.08-1.9733-2.1633-2.94-3.25-0.95762-0.97091-2.3175-1.4326-3.6683-1.2456-1.3508 0.18707-2.534 1.001-3.1917 2.1956-0.65 1.33-1.32 2.64-2 4-0.14724 0.43801-0.47038 0.79482-0.89171 0.98461-0.42132 0.18978-0.90269 0.19536-1.3283 0.01539l-6.45-1.71c-0.86599-0.18882-1.4517-0.99841-1.36-1.88 0.11-1.35 0.15-2.7 0.39-4 0.22862-2.2006-1.2014-4.2325-3.35-4.76z" stroke="#6E7F89" stroke-linejoin="round" stroke-width="2"/>
<path d="m211.63 344.23c0.83971-3.1624 0.37725-6.5293-1.284-9.3482-1.6612-2.8188-4.3827-4.8545-7.556-5.6518-3.1159-0.86527-6.4487-0.44293-9.2503 1.1722s-4.8371 4.2877-5.6497 7.4178c-0.90295 3.1528-0.50182 6.5362 1.1133 9.3904 1.6152 2.8543 4.309 4.9402 7.4767 5.7896 6.6028 1.743 13.373-2.1762 15.15-8.77z" stroke="#6E7F89" stroke-linejoin="round" stroke-width="2"/>
<polyline points="159.76 301.24 159.76 301.34 159.76 378.4" stroke="#6E7F89" stroke-linejoin="round" stroke-width="2"/>
<path d="m151.67 317.59h-11.32c-1.4632-0.22548-2.5431-1.4846-2.5431-2.965s1.0799-2.7395 2.5431-2.965h11.32c1.6569 0 3 1.3431 3 3 0.016512 0.8006-0.29425 1.5733-0.86048 2.1395s-1.3389 0.87699-2.1395 0.86048v-0.07z" stroke="#6E7F89" stroke-linejoin="round" stroke-width="2"/>
<path d="m151.77 364.41c0.004046 2.5692-1.5405 4.8877-3.913 5.8738s-5.1054 0.4452-6.9236-1.3701c-1.8182-1.8153-2.3633-4.5473-1.381-6.9214 0.98227-2.3741 3.2983-3.9223 5.8676-3.9223 3.5008 0.005487 6.339 2.8392 6.35 6.34z" stroke="#6E7F89" stroke-linejoin="round" stroke-width="2"/>
<rect x="138.37" y="325.31" width="14.1" height="18.21" stroke="#6E7F89" stroke-linejoin="round" stroke-width="2"/>
<path d="m145.42 329.73v8.34" fill="#E6EDF2" fill-rule="nonzero" stroke="#6E7F89" stroke-linejoin="round" stroke-width="2"/>
<path d="m139.08 364.42h12.69" fill="#E6EDF2" fill-rule="nonzero" stroke="#6E7F89" stroke-linejoin="round" stroke-width="2"/>
<path d="m218.32 182.14l5-0.88c6.4719-1.1776 10.789-7.346 9.68-13.83l-8.73-49.53c-3.9911-22.275-25.223-37.144-47.52-33.28l-79.63 14s-23.31 5.34-32.39-18.14l19.93 113.06c0.54866 3.1185 2.3145 5.8909 4.9086 7.7066 2.5941 1.8157 5.8035 2.5256 8.9214 1.9734l5-0.87 114.83-20.21z" fill="#80B5BC" fill-rule="nonzero" stroke="#6E7F89" stroke-linejoin="round" stroke-width="2"/>
<path d="m183.72 253.3l-32.26 5.7c-20.357 3.5891-39.77-10.003-43.36-30.36l-12.3-69.85c-1.7234-9.7747 0.50718-19.834 6.2009-27.963 5.6937-8.1299 14.384-13.665 24.159-15.387l41.13-7.25c9.7761-1.7232 19.836 0.50874 27.966 6.2045 8.1302 5.6958 13.664 14.389 15.384 24.165l10 56.62c0.50667 2.9 0.91333 5.8167 1.22 8.75l0.74 7.19c1.91 18.57-10 36.15-28.2 40.27-0.59 0.13-1.19 0.25-1.79 0.36l-32.27 5.69" fill="#F8E3D5" fill-rule="nonzero" stroke="#6E7F89" stroke-linejoin="round" stroke-width="2"/>
<circle cx="119.17" cy="208.3" r="5.92" fill="#6E7F89" fill-rule="nonzero"/>
<circle cx="188.35" cy="196.67" r="5.92" fill="#6E7F89" fill-rule="nonzero"/>
<path d="m166.07 108.4l-39.79 7c-20.419 3.6009-34.055 23.07-30.46 43.49l3.09 17.56 64.21-11.32c7.5466-1.3098 14.691-4.3378 20.88-8.85 5.6338-4.1886 10.108-9.7432 13-16.14l7.58-16.42c-2.3815-3.144-5.1961-5.935-8.36-8.29-8.6336-6.4373-19.56-8.9849-30.15-7.03z" fill="#80B5BC" fill-rule="nonzero" stroke="#6E7F89" stroke-linejoin="round" stroke-width="2"/>
<path d="m164.68 85.91l-7-39.39s-7.28-42.3-32.44-39.12l8.05-7 41.73 12.7 10.98 69.05-21.32 3.76z" fill="#000" fill-rule="nonzero" opacity=".1" style="mix-blend-mode:multiply"/>
<path d="m106.85 97l-8.43-47.84c-3.3468-19.031 9.3613-37.173 28.39-40.53 19.02-3.3415 37.153 9.3541 40.52 28.37l8.44 47.85-68.92 12.15z" fill="#E6EDF2" fill-rule="nonzero" stroke="#6E7F89" stroke-linejoin="round" stroke-width="2"/>
<path d="m160.67 39.45l-3.42 0.6" stroke="#6E7F89" stroke-linejoin="round" stroke-width="2"/>
<path d="m109.87 48.4l-3.42 0.6" stroke="#6E7F89" stroke-linejoin="round" stroke-width="2"/>
<path d="m154.82 26.74l-2.68 2.2" stroke="#6E7F89" stroke-linejoin="round" stroke-width="2"/>
<path d="m110.51 37.35l-3.33-0.99" stroke="#6E7F89" stroke-linejoin="round" stroke-width="2"/>
<path d="m115.08 28.82l-2.67-2.22" stroke="#6E7F89" stroke-linejoin="round" stroke-width="2"/>
<path d="m143.57 18.58l-1.26 3.24" stroke="#6E7F89" stroke-linejoin="round" stroke-width="2"/>
<path d="m121.66 19.4l1.5 3.13" stroke="#6E7F89" stroke-linejoin="round" stroke-width="2"/>
<path d="m131.86 16.75l0.22 3.46" stroke="#6E7F89" stroke-linejoin="round" stroke-width="2"/>
<path d="m146.42 70.08c-0.15-1.14-0.37-2.28-0.41-3.43-0.15479-3.4036 0.79974-6.7655 2.72-9.58 2.1155-3.0834 3.2134-6.7514 3.14-10.49-0.016497-4.757-2.0173-9.2913-5.52-12.51-3.2291-3.2279-7.5235-5.169-12.08-5.46-1.2274-0.032933-2.4557-0.0028938-3.68 0.09-7.89 1.87-13.05 6.38-14.8 14.11-1.69 7.45 0.72 13.7 6.65 18.52 2.52 1.8883 4.5135 4.3914 5.79 7.27 0.43 1.06 1.11 3.33 1.42 4.43l16.77-2.95z" fill="#FDAE76" fill-rule="nonzero" stroke="#6E7F89" stroke-linejoin="round" stroke-width="2"/>
<rect transform="translate(138.46 75.559) rotate(170.01) translate(-138.46 -75.559)" x="127.75" y="71.529" width="21.42" height="8.06" rx="3.79" fill="#98BAC8" fill-rule="nonzero" stroke="#6E7F89" stroke-linejoin="round" stroke-width="2"/>
<rect transform="translate(139.74 83.522) rotate(170.01) translate(-139.74 -83.522)" x="129.03" y="79.492" width="21.42" height="8.06" rx="4.03" fill="#98BAC8" fill-rule="nonzero" stroke="#6E7F89" stroke-linejoin="round" stroke-width="2"/>
<path d="m137.89 71.58l-3.55-20.15" stroke="#6E7F89" stroke-linejoin="round" stroke-width="2"/>
<path d="m115.44 62.11l-2.68 2.21" stroke="#6E7F89" stroke-linejoin="round" stroke-width="2"/>
<path d="m160.4 54.7l-3.33-1" stroke="#6E7F89" stroke-linejoin="round" stroke-width="2"/>
<circle cx="137.99" cy="48.88" r="3.75" stroke="#6E7F89" stroke-linejoin="round" stroke-width="2"/>
<circle cx="130.32" cy="50.28" r="3.75" stroke="#6E7F89" stroke-linejoin="round" stroke-width="2"/>
<path d="m387.4 140.13v215.75c0 1.9827-1.6073 3.59-3.59 3.59h-176.55c-1.9843 8e-6 -3.5945-1.6057-3.6-3.59v-215.75h183.74zm-16 125.27c6e-6 -2.7189-2.2011-4.9245-4.92-4.93h-51.24c-1.3075 0-2.5615 0.51941-3.486 1.444-0.92456 0.92455-1.444 2.1785-1.444 3.486s0.51941 2.5615 1.444 3.486c0.92455 0.92456 2.1785 1.444 3.486 1.444h51.22c2.7189-0.005515 4.92-2.2111 4.92-4.93h0.02zm0-69.21c0.002656-1.3119-0.51664-2.571-1.4434-3.4996-0.92672-0.92859-2.1847-1.4504-3.4966-1.4504h-61.11c-1.313-0.001006-2.5724 0.52074-3.5 1.45-0.93958 0.92148-1.4662 2.184-1.46 3.5 0.02742 2.7419 2.258 4.9501 5 4.95h61.09c2.7186-0.032492 4.913-2.2313 4.94-4.95h-0.02zm-1.83 90.33c1.37e-4 -2.742-2.2081-4.9726-4.95-5h-74c-1.9297-0.26066-3.8352 0.62268-4.8832 2.2638-1.0481 1.6411-1.0481 3.7414 0 5.3825 1.0481 1.6411 2.9536 2.5244 4.8832 2.2638h74c2.7419-0.02742 4.9501-2.258 4.95-5v0.09zm-2.81-67.52c-0.005521-4.0469-3.2897-7.3237-7.3367-7.32s-7.3252 3.2864-7.3233 7.3333c0.001837 4.0469 3.283 7.3267 7.33 7.3267 1.9474 0.005345 3.8164-0.76658 5.1925-2.1445 1.3761-1.378 2.1455-3.2481 2.1375-5.1955zm-5.15 99.79c0.008094-2.9715-1.7762-5.6547-4.5195-6.7965-2.7433-1.1418-5.9045-0.51694-8.0071 1.5828-2.1026 2.0997-2.7318 5.26-1.5937 8.0049 1.1381 2.7449 3.8188 4.5328 6.7903 4.5288 1.9484-0.002647 3.8158-0.77988 5.1908-2.1604 1.3749-1.3806 2.1445-3.2511 2.1392-5.1996v0.04zm-14.77-74.79v-0.87c0-2.4963-2.0237-4.52-4.52-4.52h-113.4c-2.4963 0-4.52 2.0237-4.52 4.52v0.87c0 2.4963 2.0237 4.52 4.52 4.52h113.4c2.4963 0 4.52-2.0237 4.52-4.52zm-8-24.7c-0.026994-2.7187-2.2214-4.9175-4.94-4.95h-28.55c-1.9297-0.26066-3.8352 0.62268-4.8832 2.2638-1.0481 1.6411-1.0481 3.7414 0 5.3825 1.0481 1.6411 2.9536 2.5244 4.8832 2.2638h28.53c1.3134 0.003224 2.5736-0.51886 3.5-1.45 0.91282-0.9255 1.4293-2.1701 1.44-3.47l0.02-0.04zm-1.54-44.41l-10.21-14.67-10.21 14.67h20.42zm-1.17 143.82c0-3.3137-2.6863-6-6-6h-13.74c-3.3137 0-6 2.6863-6 6s2.6863 6 6 6h13.76c3.3137 0 6-2.6863 6-6h-0.02zm-27.75-151.11c0-4.0482-3.2818-7.33-7.33-7.33s-7.33 3.2818-7.33 7.33 3.2818 7.33 7.33 7.33 7.33-3.2818 7.33-7.33zm-8 97.77c-0.027092-2.7225-2.2275-4.9229-4.95-4.95h-66.08c-2.4802 0.33502-4.3307 2.4522-4.3307 4.955s1.8505 4.62 4.3307 4.955h66.09c2.7419-0.02742 4.9501-2.258 4.95-5l-0.01 0.04zm-6.94-57.76c0.01155-1.0167-0.41465-1.9893-1.17-2.67l-12.77-11.57c-0.93724-0.90445-2.2927-1.2267-3.5367-0.84082-1.244 0.38587-2.1791 1.4186-2.44 2.6947s0.19393 2.593 1.1867 3.4361l9.82 8.88-10.11 8.94c-1.3771 1.3278-1.4628 3.5051-0.19442 4.9371 1.2684 1.432 3.4401 1.6097 4.9244 0.40295l13.1-11.57c0.76182-0.6659 1.1992-1.6282 1.2-2.64h-0.01zm-10.55-40c0-3.3137-2.6863-6-6-6h-13.72c-3.0662 0.30778-5.4008 2.8883-5.4008 5.97s2.3345 5.6622 5.4008 5.97h13.76c3.3137 0 6-2.6863 6-6l-0.04 0.06zm-6.47 118c-0.027092-2.7225-2.2275-4.9229-4.95-4.95h-42.12c-2.4802 0.33502-4.3307 2.4522-4.3307 4.955s1.8505 4.62 4.3307 4.955h42.13c2.7419-0.02742 4.9501-2.258 4.95-5l-0.01 0.04zm-8.75-92.78c0.32533-0.66358 0.4995-1.391 0.51-2.13 0.026002-1.285-0.71229-2.4631-1.88-3-1.7152-0.78903-3.7458-0.048183-4.55 1.66l-15.61 33.64c-0.21806 0.44828-0.32768 0.94155-0.32 1.44-6.34e-4 1.3366 0.78194 2.5496 2 3.1 1.71 0.8 3.76 0.06 4.26-1l15.59-33.71zm-17.53-25.23c0-3.3137-2.6863-6-6-6h-13.72c-3.3137 0-6 2.6863-6 6s2.6863 6 6 6h13.76c3.3137 0 6-2.6863 6-6h-0.04zm-9.88 53.91c1.2827-1.4724 1.1399-3.7032-0.32-5l-10.1-8.94 9.83-8.88c0.99276-0.84314 1.4476-2.16 1.1867-3.4361s-1.196-2.3088-2.44-2.6947c-1.244-0.38588-2.5994-0.063632-3.5367 0.84082l-12.78 11.54c-0.7511 0.68373-1.1764 1.6543-1.17 2.67 0.00199 1.0137 0.44339 1.9767 1.21 2.64l13.09 11.57c0.64715 0.57569 1.4838 0.89257 2.35 0.89 1.0238 0.001623 1.9994-0.43518 2.68-1.2z" fill="#E6EDF2" fill-rule="nonzero"/>
<path d="m387.4 125.76v14.37h-183.74v-14.37c0.002648-0.95213 0.38342-1.8642 1.0586-2.5356 0.67513-0.67138 1.5893-1.0471 2.5414-1.0444h176.55c0.95121-0.002657 1.8644 0.37335 2.5379 1.045 0.67354 0.67167 1.0521 1.5838 1.0521 2.535zm-142.34 5.24c0-1.3469-0.81133-2.5611-2.0557-3.0765s-2.6766-0.23052-3.629 0.72185c-0.95237 0.95237-1.2373 2.3847-0.72185 3.629s1.7297 2.0557 3.0765 2.0557c0.88399 0.002667 1.7325-0.34732 2.3576-0.97239 0.62508-0.62508 0.97506-1.4736 0.97239-2.3576zm-13.65 0c0-1.8391-1.4909-3.33-3.33-3.33s-3.33 1.4909-3.33 3.33 1.4909 3.33 3.33 3.33c0.88399 0.002667 1.7325-0.34732 2.3576-0.97239 0.62508-0.62508 0.97506-1.4736 0.97239-2.3576zm-13.65 0c0-1.3469-0.81133-2.5611-2.0557-3.0765s-2.6766-0.23052-3.629 0.72185c-0.95237 0.95237-1.2373 2.3847-0.72185 3.629s1.7297 2.0557 3.0765 2.0557c0.88399 0.002667 1.7325-0.34732 2.3576-0.97239 0.62508-0.62508 0.97506-1.4736 0.97239-2.3576z" fill="#C4D4DD" fill-rule="nonzero"/>
<path d="m371.38 265.35c6e-6 2.7189-2.2011 4.9245-4.92 4.93h-51.22c-2.7228 0-4.93-2.2072-4.93-4.93s2.2072-4.93 4.93-4.93h51.22c2.7189 0.005515 4.92 2.2111 4.92 4.93z" fill="#7EB5BD" fill-rule="nonzero"/>
<path d="m366.44 191.24c1.3119-3e-6 2.5699 0.52183 3.4966 1.4504 0.92672 0.92859 1.446 2.1877 1.4434 3.4996-0.026994 2.7187-2.2214 4.9175-4.94 4.95h-61.09c-2.742 1.37e-4 -4.9726-2.2081-5-4.95-0.006229-1.316 0.52042-2.5785 1.46-3.5 0.92761-0.92926 2.187-1.451 3.5-1.45h61.13z" fill="#C4D4DD" fill-rule="nonzero"/>
<path d="m364.6 281.56c2.7419 0.02742 4.9501 2.258 4.95 5 1.37e-4 2.742-2.2081 4.9726-4.95 5h-74c-2.4802-0.33502-4.3307-2.4522-4.3307-4.955s1.8505-4.62 4.3307-4.955l74-0.09z" fill="#7EB5BD" fill-rule="nonzero"/>
<path d="m359.43 211.64c2.9665-0.004044 5.643 1.7804 6.7801 4.5203 1.1371 2.7399 0.51062 5.8951-1.587 7.9928-2.0977 2.0977-5.2528 2.7241-7.9928 1.587-2.7399-1.1371-4.5244-3.8136-4.5203-6.7801-0.002659-1.9422 0.7677-3.8056 2.141-5.179s3.2368-2.1437 5.179-2.141z" fill="#7EB5BD" fill-rule="nonzero"/>
<path d="m354.28 311.41c4.0456 0.005523 7.3218 3.2877 7.32 7.3333s-3.281 7.3248-7.3267 7.3267-7.3278-3.2744-7.3333-7.32c0-4.0538 3.2862-7.34 7.34-7.34z" fill="#7EB5BD" fill-rule="nonzero"/>
<rect x="224.4" y="238.65" width="122.44" height="9.91" rx="4.52" fill="#C4D4DD" fill-rule="nonzero"/>
<path d="m333.88 214.39c2.4802 0.33502 4.3307 2.4522 4.3307 4.955s-1.8505 4.62-4.3307 4.955h-28.53c-1.9297 0.26066-3.8352-0.62268-4.8832-2.2638-1.0481-1.6411-1.0481-3.7414 0-5.3825 1.0481-1.6411 2.9536-2.5244 4.8832-2.2638h28.53z" fill="#C4D4DD" fill-rule="nonzero"/>
<polygon points="327.07 160.26 337.28 174.93 316.86 174.93" fill="#7EB5BD" fill-rule="nonzero"/>
<path d="m330.15 312.77c3.0662 0.30778 5.4008 2.8883 5.4008 5.97s-2.3345 5.6622-5.4008 5.97h-13.76c-3.3137 0-6-2.6863-6-6s2.6863-6 6-6l13.76 0.06z" fill="#7EB5BD" fill-rule="nonzero"/>
<path d="m301.05 160.26c2.9706-0.008094 5.6531 1.7751 6.7955 4.5172 1.1424 2.7421 0.51936 5.9025-1.5783 8.0058s-5.2563 2.735-8.0015 1.6001c-2.7452-1.1349-4.5357-3.8126-4.5357-6.7832-0.002654-1.944 0.76707-3.8095 2.1398-5.186 1.3728-1.3765 3.2361-2.1513 5.1802-2.154z" fill="#7EB5BD" fill-rule="nonzero"/>
<path d="m295.44 260.42c2.0046 1.33e-4 3.8111 1.2092 4.5756 3.0623 0.76445 1.8531 0.33582 3.9843-1.0856 5.3977-0.92264 0.93056-2.1796 1.4528-3.49 1.45h-66.09c-2.4802-0.33502-4.3307-2.4522-4.3307-4.955s1.8505-4.62 4.3307-4.955h66.09z" fill="#C4D4DD" fill-rule="nonzero"/>
<path d="m292.28 204.94c0.75034 0.67871 1.1785 1.6432 1.1785 2.655s-0.42812 1.9763-1.1785 2.655l-13.1 11.57c-1.4843 1.2067-3.656 1.029-4.9244-0.40295-1.2684-1.432-1.1827-3.6092 0.19442-4.9371l10.11-8.94-9.82-8.88c-0.99276-0.84314-1.4476-2.16-1.1867-3.4361s1.196-2.3088 2.44-2.6947c1.244-0.38588 2.5994-0.063632 3.5367 0.84082l12.75 11.57z" fill="#D4F4F2" fill-rule="nonzero"/>
<path d="m276.93 161.63c3.0662 0.30778 5.4008 2.8883 5.4008 5.97s-2.3345 5.6622-5.4008 5.97h-13.76c-3.0662-0.30778-5.4008-2.8883-5.4008-5.97s2.3345-5.6622 5.4008-5.97h13.76z" fill="#C4D4DD" fill-rule="nonzero"/>
<path d="m271.48 280.66c2.4802 0.33502 4.3307 2.4522 4.3307 4.955s-1.8505 4.62-4.3307 4.955h-42.13c-2.4802-0.33502-4.3307-2.4522-4.3307-4.955s1.8505-4.62 4.3307-4.955h42.13z" fill="#C4D4DD" fill-rule="nonzero"/>
<path d="m268.19 190.7c-0.010495 0.73897-0.18467 1.4664-0.51 2.13l-15.63 33.62c-0.5 1.1-2.55 1.84-4.26 1-1.2181-0.55038-2.0006-1.7634-2-3.1-0.007677-0.49845 0.10194-0.99172 0.32-1.44l15.62-33.63c0.80415-1.7082 2.8348-2.449 4.55-1.66 1.2069 0.53912 1.9635 1.7592 1.91 3.08z" fill="#FDAE76" fill-rule="nonzero"/>
<path d="m244.18 161.63c3.0662 0.30778 5.4008 2.8883 5.4008 5.97s-2.3345 5.6622-5.4008 5.97h-13.76c-2.398-0.033599-4.5456-1.4919-5.4613-3.7083-0.91573-2.2165-0.42367-4.7653 1.2513-6.4817 1.1134-1.122 2.6293-1.7521 4.21-1.75h13.76z" fill="#C4D4DD" fill-rule="nonzero"/>
<circle cx="241.73" cy="131.02" r="3.33" fill="#D4F4F2" fill-rule="nonzero"/>
<path d="m239.94 216.48c1.1112 0.97995 1.4993 2.5456 0.97443 3.9311-0.52484 1.3855-1.8529 2.3011-3.3344 2.2989-0.86615 0.002567-1.7028-0.31431-2.35-0.89l-13.09-11.57c-0.76661-0.66325-1.208-1.6263-1.21-2.64-0.006416-1.0157 0.4189-1.9863 1.17-2.67l12.78-11.57c0.93724-0.90445 2.2927-1.2267 3.5367-0.84082 1.244 0.38587 2.1791 1.4186 2.44 2.6947s-0.19393 2.593-1.1867 3.4361l-9.83 8.88 10.1 8.94z" fill="#D4F4F2" fill-rule="nonzero"/>
<path d="m228.08 127.7c1.3478 6e-6 2.5626 0.81242 3.0775 2.058 0.51483 1.2456 0.22809 2.6786-0.72636 3.6302-0.95445 0.95158-2.3884 1.234-3.6324 0.71544s-2.0528-1.7359-2.0487-3.0836c-4e-6 -0.88225 0.35115-1.7282 0.97594-2.3511 0.62479-0.62291 1.4718-0.97152 2.3541-0.96886z" fill="#D4F4F2" fill-rule="nonzero"/>
<circle cx="214.43" cy="131.02" r="3.33" fill="#D4F4F2" fill-rule="nonzero"/>
<path d="m387.4 140.13v215.75c0 1.9827-1.6073 3.59-3.59 3.59h-176.55c-1.9843 8e-6 -3.5945-1.6057-3.6-3.59v-230.12c0.002648-0.95213 0.38342-1.8642 1.0586-2.5356 0.67513-0.67138 1.5893-1.0471 2.5414-1.0444h176.55c0.95121-0.002657 1.8644 0.37335 2.5379 1.045 0.67354 0.67167 1.0521 1.5838 1.0521 2.535v14.37z" stroke="#6E7F89" stroke-linecap="round" stroke-linejoin="round" stroke-width="2"/>
<path d="m203.66 140.13h183.74" stroke="#6E7F89" stroke-linecap="round" stroke-linejoin="round" stroke-width="2"/>
<circle cx="214.43" cy="131.02" r="3.33" stroke="#6E7F89" stroke-linecap="round" stroke-linejoin="round" stroke-width="2"/>
<path d="m231.41 131c0.004047 1.3478-0.80471 2.5651-2.0487 3.0836s-2.6779 0.23615-3.6324-0.71544c-0.95445-0.95158-1.2412-2.3847-0.72636-3.6302 0.51483-1.2456 1.7297-2.058 3.0775-2.058 1.8352-8e-6 3.3245 1.4848 3.33 3.32z" stroke="#6E7F89" stroke-linecap="round" stroke-linejoin="round" stroke-width="2"/>
<circle cx="241.73" cy="131.02" r="3.33" stroke="#6E7F89" stroke-linecap="round" stroke-linejoin="round" stroke-width="2"/>
<path d="m366.44 201.14h-61.09c-2.742 1.37e-4 -4.9726-2.2081-5-4.95-0.006229-1.316 0.52042-2.5785 1.46-3.5 0.92761-0.92926 2.187-1.451 3.5-1.45h61.09c1.3119-3e-6 2.5699 0.52183 3.4966 1.4504 0.92672 0.92859 1.446 2.1877 1.4434 3.4996-0.026994 2.7187-2.2214 4.9175-4.94 4.95h0.04z" stroke="#6E7F89" stroke-linecap="round" stroke-linejoin="round" stroke-width="2"/>
<rect x="224.4" y="238.65" width="122.44" height="9.91" rx="4.52" stroke="#6E7F89" stroke-linecap="round" stroke-linejoin="round" stroke-width="2"/>
<path d="m295.44 270.33h-66.09c-2.4802-0.33502-4.3307-2.4522-4.3307-4.955s1.8505-4.62 4.3307-4.955h66.09c2.0046 1.33e-4 3.8111 1.2092 4.5756 3.0623 0.76445 1.8531 0.33582 3.9843-1.0856 5.3977-0.92264 0.93056-2.1796 1.4528-3.49 1.45z" stroke="#6E7F89" stroke-linecap="round" stroke-linejoin="round" stroke-width="2"/>
<path d="m271.48 290.57h-42.13c-2.4802-0.33502-4.3307-2.4522-4.3307-4.955s1.8505-4.62 4.3307-4.955h42.13c2.4802 0.33502 4.3307 2.4522 4.3307 4.955s-1.8505 4.62-4.3307 4.955v0z" stroke="#6E7F89" stroke-linecap="round" stroke-linejoin="round" stroke-width="2"/>
<path d="m333.88 224.3h-28.53c-1.9297 0.26066-3.8352-0.62268-4.8832-2.2638-1.0481-1.6411-1.0481-3.7414 0-5.3825 1.0481-1.6411 2.9536-2.5244 4.8832-2.2638h28.53c2.4802 0.33502 4.3307 2.4522 4.3307 4.955s-1.8505 4.62-4.3307 4.955v0z" stroke="#6E7F89" stroke-linecap="round" stroke-linejoin="round" stroke-width="2"/>
<path d="m228.09 326.07h34.29" stroke="#6E7F89" stroke-linecap="round" stroke-linejoin="round" stroke-width="2"/>
<path d="m226.67 315.99h51.6" stroke="#6E7F89" stroke-linecap="round" stroke-linejoin="round" stroke-width="2"/>
<path d="m237.58 222.71c-0.86615 0.002567-1.7028-0.31431-2.35-0.89l-13.09-11.57c-0.76661-0.66325-1.208-1.6263-1.21-2.64-0.006416-1.0157 0.4189-1.9863 1.17-2.67l12.78-11.57c0.93724-0.90445 2.2927-1.2267 3.5367-0.84082 1.244 0.38587 2.1791 1.4186 2.44 2.6947s-0.19393 2.593-1.1867 3.4361l-9.83 8.88 10.1 8.94c1.1112 0.97995 1.4993 2.5456 0.97443 3.9311-0.52484 1.3855-1.8529 2.3011-3.3344 2.2989v0z" stroke="#6E7F89" stroke-linecap="round" stroke-linejoin="round" stroke-width="2"/>
<path d="m267.68 192.83l-15.63 33.62c-0.5 1.1-2.55 1.84-4.26 1-1.2181-0.55038-2.0006-1.7634-2-3.1-0.007677-0.49845 0.10194-0.99172 0.32-1.44l15.62-33.63c0.80415-1.7082 2.8348-2.449 4.55-1.66 1.1677 0.53691 1.906 1.715 1.88 3 0.010885 0.76366-0.15331 1.5197-0.48 2.21v0z" stroke="#6E7F89" stroke-linecap="round" stroke-linejoin="round" stroke-width="2"/>
<path d="m276.8 222.71c0.86909 0.002216 1.7088-0.31445 2.36-0.89l13.1-11.57c0.75034-0.67871 1.1785-1.6432 1.1785-2.655s-0.42812-1.9763-1.1785-2.655l-12.77-11.57c-0.93724-0.90445-2.2927-1.2267-3.5367-0.84082-1.244 0.38587-2.1791 1.4186-2.44 2.6947s0.19393 2.593 1.1867 3.4361l9.82 8.88-10.11 8.94c-1.1126 0.98116-1.5001 2.5494-0.97269 3.9358 0.52743 1.3865 1.8593 2.3006 3.3427 2.2942h0.02z" stroke="#6E7F89" stroke-linecap="round" stroke-linejoin="round" stroke-width="2"/>
<path d="m244.18 173.57h-13.76c-2.398-0.033599-4.5456-1.4919-5.4613-3.7083-0.91573-2.2165-0.42367-4.7653 1.2513-6.4817 1.1134-1.122 2.6293-1.7521 4.21-1.75h13.76c3.0662 0.30778 5.4008 2.8883 5.4008 5.97s-2.3345 5.6622-5.4008 5.97v0z" stroke="#6E7F89" stroke-linecap="round" stroke-linejoin="round" stroke-width="2"/>
<path d="m276.93 173.57h-13.76c-3.0662-0.30778-5.4008-2.8883-5.4008-5.97s2.3345-5.6622 5.4008-5.97h13.76c3.0662 0.30778 5.4008 2.8883 5.4008 5.97s-2.3345 5.6622-5.4008 5.97v0z" stroke="#6E7F89" stroke-linecap="round" stroke-linejoin="round" stroke-width="2"/>
<path d="m308.38 167.6c-0.005521 4.0469-3.2897 7.3237-7.3367 7.32s-7.3252-3.2864-7.3233-7.3333c0.001837-4.0469 3.283-7.3267 7.33-7.3267 1.9466-0.002667 3.8141 0.77012 5.1896 2.1475s2.1457 3.2459 2.1404 5.1925v0z" stroke="#6E7F89" stroke-linecap="round" stroke-linejoin="round" stroke-width="2"/>
<polygon points="327.07 160.26 316.86 174.93 337.28 174.93" stroke="#6E7F89" stroke-linecap="round" stroke-linejoin="round" stroke-width="2"/>
<path d="m330.15 324.71h-13.76c-3.3137 0-6-2.6863-6-6s2.6863-6 6-6h13.76c3.0662 0.30778 5.4008 2.8883 5.4008 5.97s-2.3345 5.6622-5.4008 5.97v0.06z" stroke="#6E7F89" stroke-linecap="round" stroke-linejoin="round" stroke-width="2"/>
<path d="m361.61 318.75c-3e-6 2.9697-1.7894 5.6467-4.5334 6.7822s-5.9018 0.50569-8.0003-1.5956c-2.0984-2.1013-2.7239-5.26-1.5847-8.0024 1.1392-2.7424 3.8187-4.5282 6.7884-4.5242 1.9466-0.002667 3.8141 0.77012 5.1896 2.1475s2.1457 3.2459 2.1404 5.1925z" stroke="#6E7F89" stroke-linecap="round" stroke-linejoin="round" stroke-width="2"/>
<path d="m366.46 270.33h-51.22c-2.7228 0-4.93-2.2072-4.93-4.93v0c0-2.7228 2.2072-4.93 4.93-4.93h51.22c2.7189 0.005515 4.92 2.2111 4.92 4.93v0c6e-6 2.7189-2.2011 4.9245-4.92 4.93v0z" stroke="#6E7F89" stroke-linecap="round" stroke-linejoin="round" stroke-width="2"/>
<path d="m364.6 291.47h-74c-2.4802-0.33502-4.3307-2.4522-4.3307-4.955s1.8505-4.62 4.3307-4.955h74c2.7419 0.02742 4.9501 2.258 4.95 5 1.37e-4 2.742-2.2081 4.9726-4.95 5v-0.09z" stroke="#6E7F89" stroke-linecap="round" stroke-linejoin="round" stroke-width="2"/>
<path d="m366.76 219c0.004046 2.9656-1.7793 5.6415-4.518 6.7792-2.7387 1.1377-5.8931 0.51304-7.9916-1.5825-2.0984-2.0956-2.7274-5.2491-1.5934-7.9894 1.134-2.7403 3.8074-4.5272 6.773-4.5272 1.9431-0.002655 3.8076 0.76739 5.1825 2.1404s2.1475 3.2364 2.1475 5.1796z" stroke="#6E7F89" stroke-linecap="round" stroke-linejoin="round" stroke-width="2"/>
<path d="m113.82 329.72v94.12" fill="#E6EDF2" fill-rule="nonzero" stroke="#6E7F89" stroke-linejoin="round" stroke-width="2"/>
<path d="m99.59 261.47c11.52 46.29-31.22 50.19-31.22 50.19s3.22-15.66 10.08-27.92 21.14-22.27 21.14-22.27z" fill="#80B5BC" fill-rule="nonzero"/>
<path d="m68.37 311.66s42.74-3.9 31.22-50.19c0 0-14.29 10-21.14 22.27s-10.08 27.92-10.08 27.92z" stroke="#6E7F89" stroke-linejoin="round" stroke-width="2"/>
<rect x="362.2" y="240.82" width="41.08" height="50.65" rx="12.11" fill="#F8E3D5" fill-rule="nonzero"/>
<rect x="362.2" y="240.82" width="41.08" height="50.65" rx="12.11" stroke="#6E7F89" stroke-linejoin="round" stroke-width="2"/>
<circle cx="380.21" cy="136.4" r="39.36" fill="#D4F4F2" fill-rule="nonzero" stroke="#6E7F89" stroke-linecap="round" stroke-linejoin="round" stroke-width="2"/>
<path d="m404.39 127.67c0.86423 0.12823 1.5812 0.73505 1.8505 1.5662 0.26928 0.83116 0.044381 1.7431-0.58046 2.3538l-10.2 9.93c-0.53103 0.52005-0.77383 1.2671-0.65 2l2.4 14c0.15213 0.86221-0.20066 1.7357-0.90891 2.2504s-1.648 0.58054-2.4211 0.1696l-12.6-6.62c-0.6668-0.35029-1.4632-0.35029-2.13 0l-12.6 6.68c-0.77309 0.41094-1.7128 0.34511-2.4211-0.1696s-1.061-1.3882-0.90891-2.2504l2.4-14c0.12383-0.73288-0.11897-1.48-0.65-2l-10.2-9.93c-0.62484-0.61066-0.84974-1.5226-0.58046-2.3538 0.26928-0.83116 0.98623-1.438 1.8505-1.5662l14.09-2c0.74813-0.10436 1.396-0.57248 1.73-1.25l6.3-12.77c0.38516-0.7833 1.1821-1.2795 2.055-1.2795s1.6698 0.49622 2.055 1.2795l6.3 12.77c0.334 0.67752 0.98187 1.1456 1.73 1.25l14.09 1.94z" fill="#FDAE76" fill-rule="nonzero"/>
<path d="m382.27 111.6l6.3 12.77c0.334 0.67752 0.98187 1.1456 1.73 1.25l14.09 2c0.86423 0.12823 1.5812 0.73505 1.8505 1.5662 0.26928 0.83116 0.044381 1.7431-0.58046 2.3538l-10.2 9.93c-0.53103 0.52005-0.77383 1.2671-0.65 2l2.4 14c0.15213 0.86221-0.20066 1.7357-0.90891 2.2504s-1.648 0.58054-2.4211 0.1696l-12.6-6.62c-0.6668-0.35029-1.4632-0.35029-2.13 0l-12.6 6.73c-0.77309 0.41094-1.7128 0.34511-2.4211-0.1696s-1.061-1.3882-0.90891-2.2504l2.4-14c0.12383-0.73288-0.11897-1.48-0.65-2l-10.2-9.93c-0.62484-0.61066-0.84974-1.5226-0.58046-2.3538 0.26928-0.83116 0.98623-1.438 1.8505-1.5662l14.09-2c0.74813-0.10436 1.396-0.57248 1.73-1.25l6.3-12.77c0.36374-0.79414 1.1476-1.3122 2.0207-1.3356 0.87316-0.023369 1.6836 0.45201 2.0893 1.2256v0z" stroke="#6E7F89" stroke-linecap="round" stroke-linejoin="round" stroke-width="2"/>
<path d="m63.4 207c11.027 1e-6 20.967 6.6428 25.186 16.83 4.2187 10.188 1.8847 21.913-5.9137 29.709-7.7984 7.7955-19.525 10.125-29.711 5.9028-10.186-4.2225-16.825-14.166-16.821-25.192 0.0055214-15.051 12.209-27.25 27.26-27.25z" fill="#FDAE76" fill-rule="nonzero"/>
<path d="m90.65 234.21c0.020232 11.031-6.6097 20.987-16.796 25.222-10.186 4.2345-21.92 1.9128-29.726-5.8817-7.8059-7.7944-10.145-19.525-5.9253-29.717s14.166-16.837 25.197-16.833c15.034-1.6e-5 27.228 12.176 27.25 27.21z" stroke="#6E7F89" stroke-linejoin="round" stroke-width="2"/>
<path d="m69.77 241.73c-1.1756 1.032-2.6437 1.6717-4.2 1.83v3.9h-3.5v-3.92c-1.2363-0.18511-2.4453-0.52094-3.6-1-1.0833-0.46574-2.0938-1.0855-3-1.84l1.87-3.77c0.98286 0.84827 2.1019 1.5244 3.31 2 1.0642 0.48163 2.2125 0.75002 3.38 0.79 0.59329 0.03234 1.1834-0.1065 1.7-0.4 0.39985-0.2426 0.63708-0.68262 0.62-1.15 0.0077535-0.40334-0.16011-0.79016-0.46-1.06-0.3405-0.29512-0.73422-0.52253-1.16-0.67-0.47-0.16-1.12-0.36-2-0.59-1.0701-0.28382-2.1193-0.64134-3.14-1.07-0.82834-0.36346-1.5559-0.92286-2.12-1.63-0.62279-0.83816-0.93397-1.8672-0.88-2.91-0.037618-1.3719 0.4903-2.6989 1.46-3.67 1.098-1.0349 2.5011-1.6873 4-1.86v-3.71h3.5v3.69c1.0495 0.11782 2.0826 0.35261 3.08 0.7 0.9436 0.3158 1.8465 0.7421 2.69 1.27l-1.82 3.85c-0.99566-0.58565-2.0518-1.0618-3.15-1.42-0.89868-0.33062-1.8433-0.51955-2.8-0.56-0.49187-0.026861-0.98114 0.08765-1.41 0.33-0.34524 0.21024-0.54253 0.59709-0.51 1-7.894e-4 0.38044 0.15898 0.74356 0.44 1 0.32469 0.28613 0.70159 0.50684 1.11 0.65 0.44 0.17 1.09 0.39 2 0.65 1.0803 0.29878 2.1393 0.66961 3.17 1.11 0.8482 0.37221 1.588 0.95372 2.15 1.69 0.62557 0.87147 0.93912 1.9284 0.89 3 0.024275 1.4306-0.56547 2.803-1.62 3.77z" fill="#6E7F89" fill-rule="nonzero"/>
<circle cx="63.4" cy="234.22" r="21.57" stroke="#E8955D" stroke-linejoin="round" stroke-width="2"/>
<path d="m12.38 279.13c8.9812-6.3887 20.926-6.7382 30.266-0.88546 9.3393 5.8527 14.233 16.755 12.4 27.623-1.8333 10.868-10.033 19.562-20.775 22.027-10.742 2.4653-21.912-1.7834-28.301-10.765-4.1916-5.8883-5.8712-13.201-4.669-20.328 1.2022-7.1272 5.1877-13.484 11.079-17.672z" fill="#FDAE76" fill-rule="nonzero"/>
<path d="m50.38 285.53c6.3915 8.9794 6.7444 20.925 0.8942 30.266-5.8502 9.3411-16.751 14.238-27.62 12.408-10.869-1.8305-19.565-10.028-22.032-20.77-2.4678-10.742 1.7784-21.913 10.759-28.303 12.262-8.7194 29.27-5.8549 38 6.4z" stroke="#6E7F89" stroke-linejoin="round" stroke-width="2"/>
<path d="m37.73 303.76c-0.36644 1.5204-1.1901 2.892-2.36 3.93l2.26 3.17-2.86 2-2.27-3.19c-1.1167 0.55922-2.2993 0.97582-3.52 1.24-1.1635 0.26513-2.3598 0.35612-3.55 0.27l-0.66-4.16c1.2954 0.13484 2.6043 0.0469 3.87-0.26 1.1455-0.22756 2.2358-0.67589 3.21-1.32 0.50155-0.31524 0.9037-0.76592 1.16-1.3 0.18594-0.43507 0.12083-0.9368-0.17-1.31-0.22842-0.33622-0.59525-0.55265-1-0.59-0.44756-0.048108-0.90023-0.003862-1.33 0.13-0.47 0.13-1.12 0.35-1.94 0.65-1.0339 0.38807-2.093 0.70547-3.17 0.95-0.88848 0.18146-1.8075 0.14716-2.68-0.1-0.99292-0.32021-1.8422-0.97838-2.4-1.86-0.82755-1.0965-1.1675-2.4852-0.94-3.84 0.29877-1.4842 1.0707-2.8316 2.2-3.84l-2.17-3.05 2.85-2 2.14 3c0.92382-0.50907 1.8993-0.91805 2.91-1.22 0.95302-0.2871 1.9364-0.46163 2.93-0.52l0.75 4.19c-1.1498 0.10189-2.2859 0.32308-3.39 0.66-0.92268 0.25594-1.7999 0.65404-2.6 1.18-0.43187 0.25435-0.77958 0.62987-1 1.08-0.15154 0.3589-0.098042 0.7716 0.14 1.08 0.22754 0.33411 0.59658 0.54446 1 0.57 0.42977 0.046003 0.86438 0.008654 1.28-0.11 0.46-0.11 1.11-0.31 2-0.6 1.0564-0.37924 2.1351-0.69317 3.23-0.94 0.90774-0.17749 1.8452-0.12942 2.73 0.14 1.015 0.34551 1.8848 1.0216 2.47 1.92 0.86537 1.1591 1.1863 2.6363 0.88 4.05z" fill="#6E7F89" fill-rule="nonzero"/>
<circle cx="28.18" cy="301.33" r="21.57" stroke="#E8955D" stroke-linejoin="round" stroke-width="2"/>
<path d="m205 358.07c-0.18753-0.49514-0.28244-1.0205-0.28-1.55v-230.11c0-2 1.23-3.59 2.76-3.59h-16.14c-1.53 0-2.76 1.61-2.76 3.59v230.11c-0.00244 0.52946 0.09247 1.0549 0.28 1.55v7.29c0 2.9823 2.4177 5.4 5.4 5.4h80.9v-12.69h-70.16z" fill="#000" fill-rule="nonzero" opacity=".09"/>
<path d="m380.21 175.76c-14.809 0.005554-28.367-8.3035-35.084-21.501-6.7171-13.198-5.4558-29.049 3.2639-41.019-12.634 9.0908-18.724 24.773-15.538 40.008 3.1869 15.235 15.052 27.161 30.271 30.426s30.932-2.7459 40.087-15.333c-6.6945 4.8326-14.743 7.4293-23 7.42z" fill="#000" fill-rule="nonzero" opacity=".09"/>
<path d="m117.53 94.24l-8.43-47.84c-2.7917-15.867 5.6086-31.59 20.35-38.09-0.88 0.08-1.76 0.19-2.64 0.35-19.029 3.3571-31.737 21.499-28.39 40.53l8.43 47.81 68.92-12.14-0.16-0.88-58.08 10.26z" fill="#000" fill-rule="nonzero" opacity=".09"/>
<path d="m123.92 226.94l-12.3-69.84c-1.723-9.7776 0.5103-19.839 6.2082-27.97s14.393-13.663 24.172-15.38l34.33-6.05c-3.0084-0.20056-6.03-0.039409-9 0.48l-41.13 7.25c-20.357 3.5905-33.949 23.003-30.36 43.36l12.3 69.84c3.5863 20.342 22.974 33.934 43.32 30.37l6.8-1.2c-17.183-1.1613-31.356-13.898-34.34-30.86z" fill="#000" fill-rule="nonzero" opacity=".09"/>
</g>
</svg>
