<svg height="33" viewBox="0 0 106 33" width="106" xmlns="http://www.w3.org/2000/svg"><path d="m55.8653709 8.29174417c0 1.18929621-.960673 2.14693703-2.1529133 2.14693703s-2.1522517-.95764082-2.1522517-2.14693703c0-1.18929622.9272612-2.14693707 2.1522517-2.14693707 1.2259829.03299934 2.1529133.99097018 2.1529133 2.14693707zm-8.8749782 4.32753343v.5286494s-1.0261735-1.3219535-3.2118371-1.3219535c-3.6091401 0-6.4243356 2.7419151-6.4243356 6.5404692 0 3.7658847 2.7821144 6.5404692 6.4243356 6.5404692 2.2187446 0 3.2118371-1.354293 3.2118371-1.354293v.5613188c0 .2643247.1991478.4619908.463796.4619908h2.6818789v-12.4206216h-2.6818789c-.2646482.00099-.463796.2326453-.463796.4639707zm0 7.9604308c-.4962155.7269755-1.4899695 1.3546229-2.681879 1.3546229-2.1191707 0-3.7421259-1.3212936-3.7421259-3.5678886 0-2.2462651 1.6229552-3.5675587 3.7421259-3.5675587 1.1591592 0 2.2187446.6606468 2.681879 1.3542929zm5.1328523-8.4234115h3.178756v12.4206216h-3.178756zm47.486162-.3306534c-2.1856636 0-3.2124987 1.3219535-3.2124987 1.3219535v-6.96979056h-3.178756v18.39911206h2.6825406c.264979 0 .4631344-.2313254.4631344-.4626508v-.5613188s1.0268351 1.354293 3.211837 1.354293c3.6098017 0 6.4243357-2.7739246 6.4243357-6.5398092 0-3.7658847-2.814534-6.5417892-6.390593-6.5417892zm-.5299581 10.0753585c-1.2256521 0-2.1856635-.6269875-2.6825406-1.3542929v-4.4265315c.4968771-.6606468 1.5564624-1.3542929 2.6825406-1.3542929 2.1191711 0 3.7417951 1.3212936 3.7417951 3.5675586 0 2.2462651-1.622294 3.5675587-3.7417951 3.5675587zm-7.5166712-4.6901962v7.399112h-3.1794177v-7.0361193c0-2.047609-.6622821-2.8739125-2.4493193-2.8739125-.9600114 0-1.9537655.4956501-2.5839591 1.2226255v8.654737h-3.1780944v-12.4206216h2.5158122c.264979 0 .463796.2313253.463796.4626507v.5286494c.9272613-.9583008 2.1522517-1.3219535 3.3772422-1.3219535 1.3910572 0 2.5502165.396982 3.4774777 1.1896262 1.1254166.9249715 1.5564624 2.1139377 1.5564624 4.1952061zm-19.1076019-5.3851623c-2.1850019 0-3.2118371 1.3219535-3.2118371 1.3219535v-6.96979056h-3.178756v18.39911206h2.681879c.264979 0 .463796-.2313254.463796-.4626508v-.5613188s1.0268351 1.354293 3.211837 1.354293c3.6098018 0 6.4243357-2.7739246 6.4243357-6.5398092.033081-3.7662147-2.7814528-6.5417892-6.3912546-6.5417892zm-.5299581 10.0753585c-1.2249905 0-2.1850019-.6269875-2.681879-1.3542929v-4.4265315c.4968771-.6606468 1.5564624-1.3542929 2.681879-1.3542929 2.1198323 0 3.7421259 1.3212936 3.7421259 3.5675586 0 2.2462651-1.6222936 3.5675587-3.7421259 3.5675587zm-8.6093376-10.0753585c.9600114 0 1.4568885.1656567 1.4568885.1656567v2.9395812s-2.6491288-.8919722-4.3045034.9913002v8.6874062h-3.1794176v-12.4532909h2.6825405c.2649791 0 .4631344.2313253.4631344.4626507v.5286494c.5967818-.6939761 1.8882651-1.3219535 2.8813576-1.3219535zm-33.0145354 11.6279774c-.1654051-.396322-.331141-.8256435-.4965462-1.1892962-.2653098-.5943181-.5302889-1.1562969-.7615253-1.6846163l-.033081-.0329993c-2.2852374-4.9551809-4.7352184-9.9757005-7.3185159-14.93022143l-.099243-.19865603c-.2717043-.51397462-.5364866-1.0315608-.7942755-1.55261894-.3314719-.5949781-.6622822-1.22196556-1.1922403-1.81694367-1.0595853-1.32129357-2.5829667-2.04826903-4.2052603-2.04826903-1.6560363 0-3.1460058.72697546-4.2383413 1.98194036-.4968771.59431811-.86143 1.22196556-1.19224029 1.81694366-.25844178.52073106-.52321984 1.03830895-.79427549 1.55261895l-.09957389.19865603c-2.54988566 4.9545209-5.03327844 9.9753705-7.31818506 14.9302214l-.03341184.0656687c-.2315672.5293094-.49687705 1.0906282-.76185608 1.6846163-.16540514.3636527-.33081028.7599748-.49621542 1.1892962-.43071499 1.2219656-.56336992 2.3782624-.39730315 3.5678886.36422212 2.4775905 2.01959677 4.5578689 4.3048342 5.4835004.86109916.3636527 1.75527936.5286494 2.68220977.5286494.26497903 0 .59578931-.0329993.86109916-.0663287 1.09299717-.1319973 2.21874459-.4949901 3.31174169-1.1226375 1.3576454-.7599748 2.6491288-1.849613 4.1060173-3.4352313 1.4568885 1.5856183 2.7814528 2.6752565 4.1060172 3.4352313 1.093328.6276474 2.2187446.9906402 3.3114109 1.1226375.2649791.0336594.596451.0663287.86143.0663287.9272612 0 1.8541916-.1649967 2.6818789-.5286494 2.3183185-.9256315 3.9406121-3.0389092 4.3051651-5.4835004.2629941-1.1559668.13067-2.3116037-.2997142-3.5342293zm-14.9340993 1.7176157c-1.7883604-2.2462651-2.9475196-4.3602028-3.344492-6.1434872-.1654051-.7599748-.198817-1.4206215-.0992431-2.0152696.0658313-.5286495.2649791-.9913002.5299581-1.3876223.6292012-.8913122 1.6887865-1.4532909 2.9141078-1.4532909 1.2256521 0 2.3183184.5286494 2.9144386 1.4532909.264979.3963221.4634652.8593028.5302888 1.3876223.0989123.5949781.0658313 1.2882942-.0995739 2.0152696-.3986263 1.750285-1.5577856 3.8645528-3.3454843 6.1434872zm13.211901 1.5526189c-.2315672 1.7176157-1.3907264 3.2045659-3.01302 3.8652127-.7946063.3299934-1.6560363.4293214-2.5164739.3299934-.8276873-.099328-1.6560362-.3636527-2.5164738-.8586428-1.1922402-.6613068-2.3841497-1.6846163-3.7752069-3.2045659 2.1853327-2.6752565 3.5098971-5.1201776 4.0067741-7.299784.231898-1.0242995.2653099-1.948941.1654052-2.8082439-.1319933-.8256434-.4303842-1.5856182-.8938494-2.246265-1.0271659-1.4869503-2.7493643-2.3452631-4.6693871-2.3452631-1.9200229 0-3.6422213.8919721-4.6687256 2.3452631-.4634652.6606468-.76185604 1.4206216-.89418015 2.246265-.13232411.8593029-.09957389 1.8169437.16540514 2.8082439.49654621 2.1796064 1.85419161 4.6571968 4.00644331 7.3327833-1.3576454 1.5196196-2.5829667 2.5439191-3.7752069 3.2045659-.86109919.4956501-1.6884557.7599748-2.51614303.8586429-.89384938.099328-1.75527936-.0329994-2.51680462-.3299934-1.62229363-.6606468-2.78145286-2.1475971-3.01302005-3.8652127-.09924309-.8256435-.03341184-1.651287.29806006-2.5762585.09891227-.3306534.26497904-.6606468.43038418-1.0569689.231898-.5286494.49621542-1.0906282.76152527-1.6519469l.03341183-.0656687c2.28457581-4.9221816 4.73488757-9.9430312 7.28477326-14.83155339l.0992431-.19865603c.2653098-.4949901.5302888-1.02363952.7949371-1.51928961.264979-.52864943.5627083-1.02429951.9272612-1.45395092.6953632-.79198416 1.6222936-1.22196556 2.6491287-1.22196556s1.9537655.4299814 2.6491288 1.22196556c.3645529.43064139.6622821.92629147.9272612 1.45395092.2653098.49565009.5302889 1.02429951.7946063 1.51928961l.0995739.19865603c2.5110029 4.90883389 4.9287756 9.86456969 7.252023 14.86455269v.0329994c.2653098.5293094.496877 1.1232975.7618561 1.6526069.1654051.3956621.3311411.7256555.4303841 1.0563089.2643175.8579828.3635605 1.6842863.2309056 2.5429291z" fill="#6e7f89" transform=""/></svg>