<svg height="20" viewBox="0 0 102 20" width="102" xmlns="http://www.w3.org/2000/svg"><path d="m452.511893 49.7137646c-.842222 0-1.44934.2736074-2.064955.5523595v6.3074693c.58965.0556569.927671.0556569 1.487107.0556569 2.021522 0 2.298644-.9171695 2.298644-2.1977457v-3.0124877c0-.9456995-.316778-1.7052523-1.720796-1.7052523zm-13.425513-.3442309c-1.402602 0-1.722684.7628268-1.722684 1.7075908v.5308452h3.44348v-.5308452c0-.944764-.320082-1.7075908-1.720796-1.7075908zm-26.007859 6.5651747c0 .7473925.355962 1.1355877 1.141532 1.1355877.842694 0 1.341702-.2722043 1.956845-.5518919v-1.4961882h-1.842597c-.872437 0-1.25578.1608905-1.25578.9124924zm52.493009-6.2209438c-1.404963 0-1.891696.7595528-1.891696 1.7052523v3.451195c0 .9480379.486733 1.7099293 1.891696 1.7099293 1.401186 0 1.891695-.7618914 1.891695-1.7099293v-3.451195c-.000472-.9456995-.490982-1.7052523-1.891695-1.7052523zm-59.378081 10.0907347h-4.12991v-9.903185h-2.063539v-3.4123755h2.064011v-2.0494832c0-2.7842477 1.164665-4.4394556 4.475013-4.4394556h2.756106v3.4133109h-1.722684c-1.288826 0-1.373804.4770591-1.373804 1.3671016l-.005193 1.7080586h3.120565l-.364931 3.4123754h-2.755634zm14.114303.0257238h-3.442064l-.148711-.862448c-1.571613.862448-2.974215 1.0022918-3.899526 1.0022918-2.524306 0-3.867896-1.6706422-3.867896-3.9811047 0-2.7257846 1.567836-3.698611 4.372568-3.698611h2.854775v-.5893082c0-1.3914223-.160986-1.7997287-2.320832-1.7997287h-3.531291l.345104-3.4123755h3.85987c4.738916 0 5.778003 1.4830924 5.778003 5.2396988zm11.704717-9.6786867c-2.141907-.3638745-2.75705-.443852-3.787639-.443852-1.851095 0-2.410531.4045648-2.410531 1.9620223v2.9460737c0 1.5574575.559436 1.9638931 2.410531 1.9638931 1.030589 0 1.645732-.0813806 3.787639-.4466582v3.3286563c-1.876116.4167251-3.098377.5261681-4.131327.5261681-4.433941 0-6.196281-2.3099949-6.196281-5.6470699v-2.3904401c0-3.3398812 1.76234-5.6540854 6.196281-5.6540854 1.03295 0 2.255211.1099107 4.131327.5285066zm12.924145 4.1892334h-7.57339v.2750106c0 1.5574575.559907 1.9638931 2.41053 1.9638931 1.663672 0 2.679154-.0813806 4.817284-.4466582v3.3286563c-2.062122.4167251-3.136616.5261681-5.159555.5261681-4.434413 0-6.197697-2.3099949-6.197697-5.6470699v-2.7332678c0-2.9198822 1.308182-5.3112577 5.852122-5.3112577s5.850706 2.363781 5.850706 5.3112577zm13.425041.0631402c0 3.2252935-.930505 5.5778495-6.567351 5.5778495-2.035685 0-3.22962-.1772602-5.476332-.5196202v-18.43693l4.128494-.6823816v6.4491839c.892264-.3283289 2.047015-.4952996 3.097904-.4952996 4.128966 0 4.816812 1.8338712 4.816812 4.7808803v3.3263177zm13.234313.0701558c0 2.7823768-1.159472 5.4810345-6.010747 5.4810345-4.853636 0-6.034825-2.6986577-6.034825-5.4810345v-2.6864974c0-2.78378 1.181189-5.4829054 6.034825-5.4829054 4.851275 0 6.010747 2.6991254 6.010747 5.4829054zm13.225343 0c0 2.7823768-1.160888 5.4810345-6.011219 5.4810345-4.853636 0-6.034824-2.6986577-6.034824-5.4810345v-2.6864974c0-2.78378 1.181188-5.4829054 6.034824-5.4829054 4.850331 0 6.011219 2.6991254 6.011219 5.4829054zm13.572335 5.3304335h-4.475013l-3.784807-6.2592956v6.2592956h-4.12991v-18.7797577l4.12991-.6823816v12.0897059l3.784807-5.9431271h4.475013l-4.131798 6.4856648zm-19.597717-10.0907347c-1.402602 0-1.889335.7595528-1.889335 1.7052523v3.451195c0 .9480379.486733 1.7099293 1.889335 1.7099293 1.400714 0 1.896416-.7618914 1.896416-1.7099293v-3.451195c0-.9456995-.495702-1.7052523-1.896416-1.7052523zm21.954901 7.7550161c.695399 0 1.24917.5617137 1.24917 1.2632711 0 .7123147-.554243 1.2679482-1.254363 1.2679482-.696817 0-1.261917-.5556335-1.261917-1.2679482 0-.7015574.5651-1.2632711 1.261917-1.2632711zm-.005193.1964361c-.56038 0-1.018787.4775268-1.018787 1.066835 0 .6000655.458879 1.0715121 1.02398 1.0715121.565573.0056125 1.01737-.4714466 1.01737-1.0658996s-.451797-1.0724475-1.01737-1.0724475zm-.237466 1.8020672h-.226606v-1.4096627c.118968-.0163697.232272-.0327394.402227-.0327394.215276 0 .355961.0448997.442355.106169.083562.0622048.128411.1571489.128411.2913802 0 .1861466-.12369.2979281-.276177.3432955v.0107572c.124161.0229175.208667.1342313.237465.3414246.033047.2193537.06751.3030728.089698.3489079h-.237465c-.033519-.0458351-.067982-.1744539-.096308-.3601328-.033046-.179131-.124633-.2464805-.305919-.2464805h-.157208v.607081zm0-.7801319h.16429c.186007 0 .34416-.0678172.34416-.2422711 0-.1234741-.089699-.2464806-.34416-.2464806-.074119 0-.125578.0056125-.16429.0107573z" fill="#6e7f89" transform="translate(-400 -40)"/></svg>