<svg xmlns="http://www.w3.org/2000/svg" viewBox="0 0 567 170" version="1" fill="#6e7f89"><path d="M88 1a84 84 0 1 0 0 168A84 84 0 0 0 88 1zm38 121c-1 3-4 3-7 2a96 96 0 0 0-73-8 5 5 0 1 1-3-10c32-8 60-5 82 9 2 1 3 5 1 7zm11-23c-2 3-6 4-9 2-23-13-57-17-84-9a7 7 0 0 1-4-13c31-9 69-5 94 11 4 2 5 6 3 9zm1-23c-27-17-72-18-98-10a8 8 0 1 1-4-15c29-9 78-7 110 11a8 8 0 0 1-8 14zM232 79c-14-4-17-6-17-11s5-8 11-8c7 0 13 2 20 7h1l7-10v-1c-8-7-17-10-27-10-16 0-27 9-27 23s9 19 26 23c14 3 16 6 16 11s-5 8-12 8c-9 0-16-2-24-9h-1l-8 9v2c9 8 20 12 32 12 17 0 28-9 28-23 0-12-7-19-25-23zM295 64c-7 0-13 3-18 9v-7h-15v74l1 1h13l1-1v-23c5 5 11 8 18 8 13 0 27-10 27-30s-13-31-27-31zm12 31c0 10-6 17-15 17s-16-7-16-17 7-18 16-18 15 8 15 18zM357 64c-17 0-31 14-31 31s14 30 31 30c18 0 31-13 31-30s-13-31-31-31zm0 48c-9 0-16-7-16-17s7-17 16-17 17 7 17 17-7 17-17 17zM426 66h-15V51l-1-1h-12l-1 1v15h-7-1v12l1 1h7v28c0 12 5 18 17 18l12-3v-12a1 1 0 0 0-1 0l-8 1c-4 0-6-1-6-6V79h15l1-1V66h-1zM475 66v-2c0-5 2-8 7-8l7 2a1 1 0 0 0 1-1V46v-1l-11-2c-12 0-18 7-18 20v2h-7l-1 1v12l1 1h7v44l1 1h13V79h13l18 44c-2 5-4 6-7 6l-7-2-1-1v1l-5 10 1 1c4 2 8 3 14 3 9 0 14-4 19-16l22-58a1 1 0 0 0 0-1h-14-1l-14 40-15-40h-23zM447 66h-14v57l1 1h12l1-1V66h-1zM440 40a9 9 0 1 0 0 18 9 9 0 0 0 0-18zM554 84c-6 0-10-4-10-9a9 9 0 0 1 19 0c0 5-4 9-9 9zm0-18c-5 0-9 4-9 9 0 4 4 8 9 8 4 0 8-4 8-8 0-5-4-9-8-9zm2 9l2 4h-2l-2-3h-2v3h-2V69h4c2 0 4 2 4 4l-2 2zm-2-4h-2v3h2l2-1-2-2z"/></svg>
