<svg xmlns="http://www.w3.org/2000/svg" viewBox="0 0 612 200"><path fill="#6e7f89" d="M76 110v40H66v-40H53v-9h37v9zM71 39l6 18h18L80 68l6 17-15-11-15 11 6-17-15-11h18l6-18z"/><path fill="#6e7f89" d="M71 184l-52-21V18h104v145zm-43-28l43 18 43-18V27H28zM205 71h-45v9h17v51h11V80h17v-9zM264 71c13 0 19 8 19 18 0 7-2 12-7 14v1c5 3 7 7 7 13v14h-11v-14c0-4-1-10-8-10h-16v24h-10V71zm0 27c7 0 8-3 8-9s-2-9-8-9h-16v18zM319 101c0-23 3-31 23-31s23 8 23 31c0 24-3 31-23 31s-23-7-23-31zm10 0c0 20 2 22 13 22s12-2 12-22-1-22-12-22-13 2-13 22zM396 101c0-23 3-31 23-31s23 8 23 31c0 24-2 31-23 31s-23-7-23-31zm11 0c0 20 2 22 12 22s13-2 13-22-2-22-13-22-12 2-12 22zM503 71c13 0 19 7 19 19s-6 20-19 20h-16v21h-10V71zm0 30c7 0 8-4 8-11s-2-10-8-10h-16v21zM560 110c0 11 2 13 12 13s13-2 13-8c0-12-36-6-36-27 0-10 6-18 23-18 20 0 23 7 23 22h-11c0-11-2-13-12-13s-12 2-12 9c0 11 35 5 35 26 0 11-2 18-23 18s-23-7-23-22z"/></svg>
