<svg xmlns="http://www.w3.org/2000/svg" viewBox="0 0 960 172"><path d="M247 56h-30V43h74v13h-30v73h-14V56m58-13h16l20 65 19-65h13l19 65 20-65h16l-27 86h-16l-18-63h-1l-18 63h-16l-27-86m172-1c25 0 44 17 44 44s-19 45-44 45-44-18-44-45 19-44 44-44m0 76c17 0 29-12 29-32s-12-32-29-32c-16 0-29 12-29 32s13 32 29 32m171-75h15v86h-15V43m78-1c12 0 22 3 31 9l-9 10c-7-4-14-7-21-7-18 0-30 13-30 31 0 20 11 33 30 33 6 0 12-2 17-4V93h-22V82h35v39c-8 6-19 10-31 10-27 0-44-18-44-46 0-25 17-43 44-43m52 1h15l29 41 28-41h15v86h-14V65l-29 41-29-41v64h-15V43m133 0h17l32 86h-16l-6-18h-37l-6 18h-16zm-6 56h28l-14-40-14 40m-334 12c8 4 16 7 25 7 11 0 17-5 17-12 0-20-48-7-48-40 0-13 11-24 30-24 12 0 23 2 32 8l-10 9c-7-3-13-4-21-4-10 0-16 5-16 11 0 19 48 6 48 40 0 14-10 25-32 25-13 0-26-5-35-10l10-10" fill="#6e7f89"/><path d="M86 0L0 86l86 86 86-86L86 0" fill="#6e7f89"/><path d="M41 111c-1-28 32-24 32-39 0-4-3-8-11-8-6 0-12 3-16 7l-6-6c5-5 13-9 22-9 14 0 21 7 21 16 0 21-32 17-32 35h31v8H41v-4m66-3c-6 0-10-4-10-11 0-10 7-20 15-20 6 0 10 5 10 13 0 10-7 18-15 18zm41-38h-35c-15 0-26 11-26 27 0 12 8 19 19 19 15 0 26-11 26-27 0-5-2-9-4-12h12l8-7" fill="#f4f5f8"/></svg>
