<svg width="50" height="60" viewBox="0 0 50 60" fill="none" xmlns="http://www.w3.org/2000/svg">
<path d="M26.7099 46.9345C25.3785 47.6553 23.8387 47.893 22.352 47.6071C20.8652 47.3213 19.5233 46.5295 18.5542 45.3663C17.5851 44.2031 17.0486 42.7403 17.0359 41.2264C17.0231 39.7125 17.5349 38.2409 18.4843 37.0615" fill="#E6EDF2"/>
<path d="M26.7099 46.9345C25.3785 47.6553 23.8387 47.893 22.352 47.6071C20.8652 47.3213 19.5233 46.5295 18.5542 45.3663C17.5851 44.2031 17.0486 42.7403 17.0359 41.2264C17.0231 39.7125 17.5349 38.2409 18.4843 37.0615" stroke="#6E7F89" stroke-width="0.5" stroke-linejoin="round"/>
<path d="M23.8498 53.395H16.8958C16.2328 53.395 15.6953 53.932 15.6953 54.5944C15.6953 55.2568 16.2328 55.7938 16.8958 55.7938H23.8498C24.5128 55.7938 25.0503 55.2568 25.0503 54.5944C25.0503 53.932 24.5128 53.395 23.8498 53.395Z" fill="#E6EDF2" stroke="#6E7F89" stroke-width="0.5" stroke-linejoin="round"/>
<path d="M41.848 10.5796V58.5439C41.848 58.7556 41.764 58.9586 41.6143 59.1083C41.4646 59.2579 41.2616 59.342 41.0499 59.342H1.80033C1.58846 59.342 1.38523 59.258 1.2352 59.1084C1.08517 58.9588 1.00059 58.7558 1 58.5439V10.5796H41.848ZM38.291 38.4289C38.291 38.1386 38.1758 37.8602 37.9708 37.6547C37.7657 37.4492 37.4875 37.3335 37.1972 37.3329H25.8058C25.6619 37.3329 25.5194 37.3613 25.3864 37.4163C25.2534 37.4714 25.1326 37.5521 25.0308 37.6539C24.9291 37.7557 24.8483 37.8765 24.7933 38.0095C24.7382 38.1425 24.7098 38.285 24.7098 38.4289V38.4289C24.7098 38.7196 24.8253 38.9984 25.0308 39.2039C25.2364 39.4095 25.5152 39.5249 25.8058 39.5249H37.1928C37.4831 39.5243 37.7613 39.4086 37.9663 39.2031C38.1714 38.9976 38.2866 38.7192 38.2866 38.4289H38.291ZM38.291 23.0425C38.2913 22.8981 38.2631 22.7551 38.2081 22.6216C38.153 22.4881 38.0721 22.3667 37.9701 22.2645C37.8681 22.1623 37.747 22.0812 37.6136 22.0259C37.4802 21.9706 37.3372 21.9421 37.1928 21.9421H23.6072C23.4626 21.942 23.3195 21.9704 23.186 22.0257C23.0524 22.081 22.9312 22.1621 22.8291 22.2644C22.7257 22.3658 22.6437 22.4869 22.5879 22.6206C22.5322 22.7542 22.5038 22.8977 22.5045 23.0425C22.5074 23.3354 22.6258 23.6153 22.834 23.8214C23.0421 24.0274 23.3232 24.143 23.616 24.143H37.1972C37.4878 24.1395 37.7655 24.0224 37.9707 23.8167C38.176 23.611 38.2926 23.3331 38.2955 23.0425H38.291ZM37.8842 43.1242C37.8842 42.8313 37.7686 42.5502 37.5626 42.3421C37.3565 42.134 37.0766 42.0156 36.7837 42.0126H20.3325C20.1753 41.9914 20.0155 42.004 19.8637 42.0497C19.7118 42.0953 19.5715 42.1729 19.4522 42.2772C19.3328 42.3816 19.2371 42.5102 19.1716 42.6546C19.106 42.7989 19.0721 42.9557 19.0721 43.1142C19.0721 43.2727 19.106 43.4294 19.1716 43.5738C19.2371 43.7182 19.3328 43.8468 19.4522 43.9511C19.5715 44.0555 19.7118 44.1331 19.8637 44.1787C20.0155 44.2243 20.1753 44.237 20.3325 44.2158H36.7837C37.0766 44.2128 37.3565 44.0944 37.5626 43.8863C37.7686 43.6781 37.8842 43.3971 37.8842 43.1042V43.1242ZM37.2595 28.1135C37.259 27.7913 37.1631 27.4765 36.9838 27.2088C36.8044 26.9411 36.5498 26.7326 36.252 26.6096C35.9542 26.4866 35.6266 26.4546 35.3106 26.5178C34.9947 26.5809 34.7045 26.7363 34.4769 26.9643C34.2492 27.1922 34.0942 27.4826 34.0315 27.7987C33.9688 28.1147 34.0012 28.4422 34.1246 28.7399C34.248 29.0375 34.4569 29.2919 34.7248 29.4708C34.9927 29.6498 35.3077 29.7453 35.6299 29.7453C35.8443 29.7459 36.0566 29.7041 36.2547 29.6223C36.4528 29.5404 36.6328 29.4202 36.7843 29.2686C36.9358 29.1169 37.0557 28.9367 37.1373 28.7385C37.2188 28.5403 37.2604 28.3279 37.2595 28.1135V28.1135ZM36.1146 50.2983C36.1154 49.9753 36.0204 49.6592 35.8416 49.3903C35.6627 49.1213 35.408 48.9115 35.1098 48.7873C34.8116 48.6632 34.4832 48.6304 34.1663 48.693C33.8495 48.7557 33.5583 48.9109 33.3297 49.1392C33.1012 49.3675 32.9455 49.6584 32.8824 49.9752C32.8193 50.292 32.8517 50.6204 32.9754 50.9188C33.0991 51.2172 33.3086 51.4722 33.5774 51.6514C33.8461 51.8306 34.162 51.9261 34.485 51.9256C34.6995 51.9253 34.9118 51.8828 35.1098 51.8004C35.3078 51.7179 35.4876 51.5973 35.639 51.4453C35.7903 51.2934 35.9102 51.113 35.9918 50.9147C36.0734 50.7164 36.1151 50.5039 36.1146 50.2894V50.2983ZM32.831 33.6714V33.478C32.831 33.2115 32.7251 32.9559 32.5367 32.7674C32.3482 32.579 32.0926 32.4731 31.8261 32.4731H6.61566C6.34916 32.4731 6.09356 32.579 5.90512 32.7674C5.71667 32.9559 5.6108 33.2115 5.6108 33.478V33.6714C5.6108 33.9379 5.71667 34.1935 5.90512 34.3819C6.09356 34.5704 6.34916 34.6762 6.61566 34.6762H31.8261C32.0926 34.6762 32.3482 34.5704 32.5367 34.3819C32.7251 34.1935 32.831 33.9379 32.831 33.6714ZM31.0525 28.1802C31.0496 27.8896 30.933 27.6117 30.7277 27.4061C30.5225 27.2004 30.2448 27.0832 29.9542 27.0798H23.6072C23.45 27.0585 23.2902 27.0712 23.1384 27.1168C22.9865 27.1625 22.8462 27.24 22.7269 27.3444C22.6075 27.4487 22.5118 27.5774 22.4463 27.7217C22.3807 27.8661 22.3468 28.0228 22.3468 28.1813C22.3468 28.3399 22.3807 28.4966 22.4463 28.6409C22.5118 28.7853 22.6075 28.914 22.7269 29.0183C22.8462 29.1226 22.9865 29.2002 23.1384 29.2459C23.2902 29.2915 23.45 29.3041 23.6072 29.2829H29.9498C30.0943 29.2833 30.2375 29.2549 30.3711 29.1996C30.5047 29.1443 30.6259 29.063 30.7279 28.9605C30.9308 28.7548 31.0456 28.4781 31.048 28.1891L31.0525 28.1802ZM30.7101 18.3072L28.4403 15.0459L26.1704 18.3072H30.7101ZM30.45 50.2805C30.45 49.9267 30.3095 49.5874 30.0593 49.3373C29.8092 49.0871 29.4699 48.9466 29.1161 48.9466H26.0615C25.7077 48.9466 25.3685 49.0871 25.1183 49.3373C24.8682 49.5874 24.7276 49.9267 24.7276 50.2805C24.7276 50.6343 24.8682 50.9735 25.1183 51.2237C25.3685 51.4738 25.7077 51.6144 26.0615 51.6144H29.1205C29.4743 51.6144 29.8136 51.4738 30.0637 51.2237C30.3139 50.9735 30.4544 50.6343 30.4544 50.2805H30.45ZM24.2808 16.6866C24.2808 16.3643 24.1852 16.0492 24.0061 15.7812C23.8271 15.5132 23.5726 15.3044 23.2748 15.181C22.977 15.0577 22.6494 15.0254 22.3333 15.0883C22.0172 15.1512 21.7268 15.3064 21.4989 15.5343C21.271 15.7622 21.1158 16.0525 21.0529 16.3687C20.9901 16.6848 21.0223 17.0124 21.1457 17.3102C21.269 17.6079 21.4779 17.8624 21.7459 18.0415C22.0138 18.2206 22.3289 18.3161 22.6512 18.3161C23.0834 18.3161 23.4979 18.1444 23.8035 17.8388C24.1091 17.5332 24.2808 17.1188 24.2808 16.6866ZM22.5022 38.4222C22.4994 38.1313 22.3825 37.8531 22.1767 37.6473C21.971 37.4416 21.6928 37.3247 21.4018 37.3218H6.71126C6.44465 37.3578 6.20014 37.4893 6.0231 37.6919C5.84605 37.8944 5.74848 38.1543 5.74848 38.4234C5.74848 38.6924 5.84605 38.9523 6.0231 39.1549C6.20014 39.3574 6.44465 39.4889 6.71126 39.5249H21.404C21.6969 39.522 21.9768 39.4036 22.1828 39.1954C22.3889 38.9873 22.5045 38.7062 22.5045 38.4134L22.5022 38.4222ZM20.9594 25.5814C20.9607 25.4696 20.9381 25.3589 20.8933 25.2566C20.8484 25.1542 20.7823 25.0626 20.6993 24.9878L17.8603 22.4156C17.7838 22.3418 17.6932 22.284 17.5939 22.2459C17.4947 22.2077 17.3888 22.1899 17.2825 22.1935C17.1762 22.1971 17.0717 22.222 16.9752 22.2667C16.8788 22.3115 16.7923 22.3752 16.7209 22.454C16.6495 22.5328 16.5947 22.6252 16.5597 22.7256C16.5247 22.8261 16.5103 22.9325 16.5172 23.0386C16.5242 23.1447 16.5524 23.2484 16.6002 23.3434C16.648 23.4384 16.7144 23.5228 16.7954 23.5917L18.9786 25.5658L16.731 27.5533C16.5836 27.6954 16.4969 27.8889 16.4888 28.0934C16.4807 28.2979 16.552 28.4977 16.6877 28.6509C16.8235 28.8041 17.0131 28.899 17.2171 28.9156C17.4211 28.9323 17.6237 28.8696 17.7825 28.7405L20.6948 26.1683C20.7785 26.0951 20.8457 26.0049 20.8917 25.9037C20.9377 25.8024 20.9615 25.6925 20.9616 25.5814H20.9594ZM18.614 16.6888C18.614 16.335 18.4734 15.9957 18.2233 15.7456C17.9731 15.4954 17.6339 15.3549 17.2801 15.3549H14.2299C13.9009 15.3879 13.5958 15.542 13.374 15.7873C13.1521 16.0325 13.0293 16.3514 13.0293 16.6821C13.0293 17.0128 13.1521 17.3317 13.374 17.577C13.5958 17.8222 13.9009 17.9763 14.2299 18.0093H17.289C17.6427 18.0093 17.982 17.8688 18.2322 17.6187C18.4823 17.3685 18.6229 17.0292 18.6229 16.6755L18.614 16.6888ZM17.1756 42.9219C17.1727 42.6309 17.0558 42.3527 16.8501 42.1469C16.6443 41.9412 16.3661 41.8243 16.0751 41.8214H6.71126C6.44465 41.8574 6.20014 41.9889 6.0231 42.1915C5.84605 42.3941 5.74848 42.654 5.74848 42.923C5.74848 43.192 5.84605 43.4519 6.0231 43.6545C6.20014 43.8571 6.44465 43.9886 6.71126 44.0246H16.0774C16.3702 44.0216 16.6501 43.9032 16.8562 43.6951C17.0622 43.487 17.1778 43.2059 17.1778 42.913L17.1756 42.9219ZM15.2303 22.2956C15.3027 22.148 15.3414 21.9863 15.3437 21.822C15.3466 21.6822 15.3085 21.5447 15.2343 21.4262C15.16 21.3077 15.0528 21.2135 14.9258 21.1551C14.7426 21.0708 14.5335 21.0623 14.3441 21.1314C14.1546 21.2005 14.0001 21.3417 13.9142 21.5241L10.4439 29.0028C10.3954 29.1024 10.3711 29.2121 10.3728 29.3229C10.3727 29.4684 10.4146 29.6108 10.4935 29.7331C10.5724 29.8553 10.6848 29.9522 10.8174 30.0121C11.1976 30.1899 11.6533 30.0254 11.7645 29.7898L15.2303 22.2956ZM11.3332 16.6866C11.3332 16.3328 11.1926 15.9935 10.9425 15.7434C10.6923 15.4932 10.3531 15.3527 9.99929 15.3527H6.94914C6.59537 15.3527 6.25609 15.4932 6.00593 15.7434C5.75578 15.9935 5.61525 16.3328 5.61525 16.6866C5.61525 17.0403 5.75578 17.3796 6.00593 17.6298C6.25609 17.8799 6.59537 18.0205 6.94914 18.0205H10.0082C10.3619 18.0205 10.7012 17.8799 10.9514 17.6298C11.2015 17.3796 11.3421 17.0403 11.3421 16.6866H11.3332ZM9.13671 28.6715C9.27372 28.5143 9.3431 28.3093 9.32978 28.1011C9.31646 27.893 9.22151 27.6985 9.06557 27.56L6.82019 25.5725L9.00554 23.5983C9.0866 23.5295 9.153 23.4451 9.20079 23.35C9.24858 23.255 9.27679 23.1514 9.28374 23.0453C9.2907 22.9392 9.27625 22.8327 9.24127 22.7323C9.20629 22.6319 9.15148 22.5395 9.0801 22.4607C9.00872 22.3818 8.92222 22.3182 8.82575 22.2734C8.72928 22.2287 8.62479 22.2038 8.51851 22.2002C8.41222 22.1966 8.3063 22.2144 8.20704 22.2526C8.10777 22.2907 8.01718 22.3484 7.94066 22.4223L5.09948 24.9878C5.01691 25.0629 4.95108 25.1546 4.90627 25.2569C4.86146 25.3592 4.83866 25.4697 4.83937 25.5814C4.83959 25.6927 4.86372 25.8028 4.91012 25.904C4.95653 26.0053 5.02414 26.0954 5.10837 26.1683L8.01847 28.7405C8.16234 28.8684 8.34834 28.9389 8.5409 28.9383C8.65343 28.9385 8.76472 28.9148 8.86742 28.8688C8.97012 28.8228 9.0619 28.7556 9.13671 28.6715Z" fill="#E6EDF2"/>
<path d="M41.848 7.38476V10.5794H1V7.38476C1.00029 7.27995 1.02122 7.17622 1.0616 7.0795C1.10198 6.98279 1.16102 6.89496 1.23533 6.82106C1.30965 6.74715 1.3978 6.68861 1.49474 6.64877C1.59168 6.60894 1.69552 6.58858 1.80033 6.58887H41.0499C41.1546 6.58858 41.2584 6.60895 41.3552 6.64881C41.452 6.68868 41.54 6.74726 41.6142 6.8212C41.6883 6.89513 41.7471 6.98296 41.7873 7.07967C41.8274 7.17638 41.848 7.28005 41.848 7.38476V7.38476ZM10.2038 8.54969C10.2038 8.40327 10.1604 8.26013 10.079 8.13839C9.9977 8.01665 9.88208 7.92176 9.74681 7.86573C9.61154 7.8097 9.46269 7.79504 9.31908 7.8236C9.17548 7.85217 9.04357 7.92268 8.94003 8.02621C8.8365 8.12974 8.76599 8.26165 8.73743 8.40526C8.70886 8.54886 8.72352 8.69772 8.77955 8.83299C8.83558 8.96826 8.93047 9.08388 9.05221 9.16523C9.17396 9.24657 9.31709 9.28999 9.46351 9.28999C9.56081 9.29029 9.65721 9.27134 9.74716 9.23424C9.83711 9.19714 9.91884 9.14262 9.98764 9.07381C10.0564 9.00501 10.111 8.92329 10.1481 8.83333C10.1852 8.74338 10.2041 8.64699 10.2038 8.54969V8.54969ZM7.16922 8.54969C7.16922 8.40327 7.1258 8.26013 7.04446 8.13839C6.96311 8.01665 6.84749 7.92176 6.71222 7.86573C6.57695 7.8097 6.4281 7.79504 6.28449 7.8236C6.14089 7.85217 6.00898 7.92268 5.90544 8.02621C5.80191 8.12974 5.7314 8.26165 5.70284 8.40526C5.67427 8.54886 5.68893 8.69772 5.74496 8.83299C5.80099 8.96826 5.89588 9.08388 6.01762 9.16523C6.13937 9.24657 6.2825 9.28999 6.42891 9.28999C6.52621 9.29029 6.62262 9.27134 6.71257 9.23424C6.80252 9.19714 6.88425 9.14262 6.95305 9.07381C7.02185 9.00501 7.07637 8.92329 7.11347 8.83333C7.15057 8.74338 7.16952 8.64699 7.16922 8.54969V8.54969ZM4.13463 8.54969C4.13463 8.40327 4.09121 8.26013 4.00987 8.13839C3.92852 8.01665 3.8129 7.92176 3.67763 7.86573C3.54236 7.8097 3.3935 7.79504 3.2499 7.8236C3.10629 7.85217 2.97439 7.92268 2.87085 8.02621C2.76732 8.12974 2.6968 8.26165 2.66824 8.40526C2.63968 8.54886 2.65434 8.69772 2.71037 8.83299C2.7664 8.96826 2.86129 9.08388 2.98303 9.16523C3.10478 9.24657 3.2479 9.28999 3.39432 9.28999C3.49162 9.29029 3.58803 9.27134 3.67798 9.23424C3.76793 9.19714 3.84965 9.14262 3.91845 9.07381C3.98726 9.00501 4.04178 8.92329 4.07888 8.83333C4.11598 8.74338 4.13493 8.64699 4.13463 8.54969V8.54969Z" fill="#C4D4DD"/>
<path d="M38.2877 38.4175C38.2877 38.7078 38.1725 38.9863 37.9675 39.1918C37.7624 39.3972 37.4842 39.513 37.1939 39.5136H25.8069C25.5163 39.5136 25.2375 39.3981 25.032 39.1925C24.8264 38.987 24.7109 38.7082 24.7109 38.4175V38.4175C24.7109 38.1269 24.8264 37.8481 25.032 37.6425C25.2375 37.437 25.5163 37.3215 25.8069 37.3215H37.1939C37.4842 37.3221 37.7624 37.4379 37.9675 37.6433C38.1725 37.8488 38.2877 38.1272 38.2877 38.4175V38.4175Z" fill="#7EB5BD"/>
<path d="M37.1884 21.9419C37.3328 21.9419 37.4758 21.9704 37.6092 22.0257C37.7426 22.081 37.8637 22.1621 37.9657 22.2643C38.0677 22.3666 38.1486 22.4879 38.2036 22.6214C38.2587 22.7549 38.2869 22.8979 38.2866 23.0424C38.2837 23.3329 38.1672 23.6108 37.9619 23.8165C37.7566 24.0222 37.479 24.1393 37.1884 24.1428H23.6072C23.3143 24.1428 23.0332 24.0272 22.8251 23.8212C22.6169 23.6151 22.4985 23.3352 22.4956 23.0424C22.4949 22.8975 22.5233 22.7541 22.5791 22.6204C22.6348 22.4868 22.7168 22.3657 22.8202 22.2643C22.9223 22.162 23.0436 22.0808 23.1771 22.0255C23.3106 21.9702 23.4538 21.9418 23.5983 21.9419H37.1884Z" fill="#C4D4DD"/>
<path d="M36.7773 42.0215C37.0702 42.0244 37.3501 42.1428 37.5561 42.351C37.7622 42.5591 37.8778 42.8402 37.8778 43.1331C37.8778 43.4259 37.7622 43.707 37.5561 43.9152C37.3501 44.1233 37.0702 44.2417 36.7773 44.2446H20.3261C20.0594 44.2086 19.8149 44.0771 19.6379 43.8746C19.4609 43.672 19.3633 43.4121 19.3633 43.1431C19.3633 42.874 19.4609 42.6141 19.6379 42.4116C19.8149 42.209 20.0594 42.0775 20.3261 42.0415L36.7773 42.0215Z" fill="#7EB5BD"/>
<path d="M35.6313 26.4773C35.9537 26.4769 36.2691 26.5721 36.5374 26.751C36.8057 26.9299 37.015 27.1844 37.1386 27.4822C37.2622 27.7801 37.2946 28.1079 37.2318 28.4242C37.169 28.7405 37.0138 29.0311 36.7857 29.2591C36.5577 29.4872 36.2672 29.6424 35.9508 29.7052C35.6345 29.768 35.3067 29.7356 35.0088 29.612C34.711 29.4883 34.4565 29.2791 34.2776 29.0108C34.0987 28.7425 34.0035 28.4271 34.0039 28.1046C34.0036 27.8908 34.0455 27.6791 34.1272 27.4815C34.2089 27.284 34.3287 27.1044 34.4799 26.9533C34.6311 26.8021 34.8106 26.6822 35.0081 26.6006C35.2057 26.5189 35.4175 26.477 35.6313 26.4773V26.4773Z" fill="#7EB5BD"/>
<path d="M34.4873 48.6575C34.8094 48.6579 35.1241 48.7538 35.3918 48.933C35.6594 49.1123 35.8679 49.3668 35.991 49.6645C36.114 49.9621 36.1461 50.2896 36.0832 50.6055C36.0202 50.9214 35.8651 51.2115 35.6373 51.4393C35.4095 51.6671 35.1194 51.8222 34.8035 51.8852C34.4876 51.9481 34.1601 51.916 33.8625 51.793C33.5648 51.6699 33.3103 51.4614 33.131 51.1938C32.9518 50.9261 32.8559 50.6114 32.8555 50.2893C32.8555 49.8565 33.0274 49.4414 33.3334 49.1354C33.6394 48.8294 34.0545 48.6575 34.4873 48.6575V48.6575Z" fill="#7EB5BD"/>
<path d="M31.8247 32.4819H6.61424C6.05927 32.4819 5.60938 32.9318 5.60938 33.4868V33.6802C5.60938 34.2352 6.05927 34.6851 6.61424 34.6851H31.8247C32.3797 34.6851 32.8296 34.2352 32.8296 33.6802V33.4868C32.8296 32.9318 32.3797 32.4819 31.8247 32.4819Z" fill="#C4D4DD"/>
<path d="M29.9507 27.0886C30.2173 27.1246 30.4618 27.2561 30.6388 27.4587C30.8159 27.6612 30.9134 27.9212 30.9134 28.1902C30.9134 28.4592 30.8159 28.7191 30.6388 28.9217C30.4618 29.1243 30.2173 29.2557 29.9507 29.2917H23.608C23.4509 29.313 23.2911 29.3003 23.1392 29.2547C22.9874 29.2091 22.8471 29.1315 22.7277 29.0271C22.6083 28.9228 22.5127 28.7941 22.4471 28.6498C22.3816 28.5054 22.3477 28.3487 22.3477 28.1902C22.3477 28.0316 22.3816 27.8749 22.4471 27.7306C22.5127 27.5862 22.6083 27.4576 22.7277 27.3532C22.8471 27.2489 22.9874 27.1713 23.1392 27.1257C23.2911 27.08 23.4509 27.0674 23.608 27.0886H29.9507Z" fill="#C4D4DD"/>
<path d="M28.4339 15.0547L30.7037 18.316H26.1641L28.4339 15.0547Z" fill="#7EB5BD"/>
<path d="M29.12 48.9599C29.449 48.9929 29.7541 49.147 29.9759 49.3922C30.1978 49.6375 30.3206 49.9564 30.3206 50.2871C30.3206 50.6178 30.1978 50.9367 29.9759 51.182C29.7541 51.4272 29.449 51.5813 29.12 51.6143H26.0609C25.7072 51.6143 25.3679 51.4738 25.1177 51.2236C24.8676 50.9735 24.7271 50.6342 24.7271 50.2804C24.7271 49.9267 24.8676 49.5874 25.1177 49.3372C25.3679 49.0871 25.7072 48.9465 26.0609 48.9465L29.12 48.9599Z" fill="#7EB5BD"/>
<path d="M22.6508 15.0547C22.9737 15.0538 23.2896 15.1488 23.5586 15.3275C23.8275 15.5063 24.0373 15.7608 24.1615 16.0589C24.2857 16.357 24.3187 16.6853 24.2562 17.0021C24.1937 17.3189 24.0387 17.6101 23.8106 17.8387C23.5826 18.0674 23.2919 18.2233 22.9752 18.2866C22.6586 18.3499 22.3302 18.3179 22.0318 18.1945C21.7334 18.0711 21.4783 17.862 21.2988 17.5935C21.1193 17.3251 21.0234 17.0094 21.0234 16.6865C21.0231 16.4725 21.065 16.2605 21.1466 16.0627C21.2283 15.8649 21.348 15.6851 21.4992 15.5336C21.6503 15.382 21.8297 15.2618 22.0273 15.1796C22.2249 15.0974 22.4368 15.055 22.6508 15.0547Z" fill="#7EB5BD"/>
<path d="M21.4046 37.3215C21.6225 37.3215 21.8355 37.3862 22.0166 37.5074C22.1976 37.6286 22.3387 37.8009 22.4218 38.0023C22.5049 38.2038 22.5263 38.4253 22.4833 38.639C22.4404 38.8526 22.3349 39.0487 22.1804 39.2023C22.0789 39.3047 21.958 39.386 21.8248 39.4413C21.6916 39.4966 21.5488 39.525 21.4046 39.5247H6.7118C6.44519 39.4886 6.20068 39.3572 6.02364 39.1546C5.84659 38.952 5.74902 38.6921 5.74902 38.4231C5.74902 38.1541 5.84659 37.8942 6.02364 37.6916C6.20068 37.489 6.44519 37.3575 6.7118 37.3215H21.4046Z" fill="#C4D4DD"/>
<path d="M20.7018 24.9876C20.7842 25.0622 20.8502 25.1533 20.8953 25.255C20.9404 25.3566 20.9637 25.4666 20.9637 25.5778C20.9637 25.6891 20.9404 25.7991 20.8953 25.9007C20.8502 26.0024 20.7842 26.0935 20.7018 26.1681L17.7894 28.7403C17.6306 28.8694 17.4281 28.9322 17.224 28.9155C17.02 28.8988 16.8304 28.8039 16.6947 28.6507C16.559 28.4975 16.4877 28.2977 16.4957 28.0932C16.5038 27.8887 16.5905 27.6952 16.7379 27.5531L18.9855 25.5656L16.8024 23.5915C16.7213 23.5226 16.6549 23.4382 16.6071 23.3432C16.5593 23.2482 16.5311 23.1446 16.5242 23.0384C16.5172 22.9323 16.5316 22.8259 16.5666 22.7255C16.6016 22.625 16.6564 22.5327 16.7278 22.4538C16.7992 22.375 16.8857 22.3113 16.9822 22.2666C17.0786 22.2218 17.1831 22.1969 17.2894 22.1933C17.3957 22.1897 17.5016 22.2076 17.6009 22.2457C17.7001 22.2839 17.7907 22.3416 17.8672 22.4154L20.7018 24.9876Z" fill="#D4F4F2"/>
<path d="M17.291 15.3591C17.62 15.3922 17.9251 15.5462 18.1469 15.7915C18.3688 16.0367 18.4916 16.3556 18.4916 16.6863C18.4916 17.0171 18.3688 17.336 18.1469 17.5812C17.9251 17.8264 17.62 17.9805 17.291 18.0136H14.2319C13.9029 17.9805 13.5978 17.8264 13.376 17.5812C13.1541 17.336 13.0312 17.0171 13.0312 16.6863C13.0312 16.3556 13.1541 16.0367 13.376 15.7915C13.5978 15.5462 13.9029 15.3922 14.2319 15.3591H17.291Z" fill="#C4D4DD"/>
<path d="M16.0779 41.8215C16.3445 41.8575 16.589 41.989 16.7661 42.1916C16.9431 42.3942 17.0407 42.6541 17.0407 42.9231C17.0407 43.1921 16.9431 43.452 16.7661 43.6546C16.589 43.8572 16.3445 43.9887 16.0779 44.0247H6.7118C6.44519 43.9887 6.20068 43.8572 6.02364 43.6546C5.84659 43.452 5.74902 43.1921 5.74902 42.9231C5.74902 42.6541 5.84659 42.3942 6.02364 42.1916C6.20068 41.989 6.44519 41.8575 6.7118 41.8215H16.0779Z" fill="#C4D4DD"/>
<path d="M15.3466 21.8219C15.3443 21.9861 15.3056 22.1479 15.2332 22.2954L11.7585 29.7696C11.6473 30.0141 11.1916 30.1787 10.8114 29.9919C10.6788 29.932 10.5664 29.8351 10.4875 29.7129C10.4086 29.5906 10.3667 29.4482 10.3668 29.3027C10.3651 29.1919 10.3894 29.0823 10.4379 28.9826L13.9105 21.5062C13.9964 21.3237 14.1508 21.1826 14.3403 21.1135C14.5297 21.0443 14.7388 21.0528 14.922 21.1371C15.0531 21.1957 15.1637 21.2923 15.2394 21.4143C15.3151 21.5364 15.3524 21.6783 15.3466 21.8219Z" fill="#FDAE76"/>
<path d="M10.008 15.3591C10.3371 15.3922 10.6421 15.5462 10.864 15.7915C11.0859 16.0367 11.2087 16.3556 11.2087 16.6863C11.2087 17.0171 11.0859 17.336 10.864 17.5812C10.6421 17.8265 10.3371 17.9805 10.008 18.0136H6.94899C6.68818 18.0099 6.43415 17.9299 6.21836 17.7833C6.00256 17.6368 5.83447 17.4302 5.73487 17.1891C5.63527 16.9481 5.60853 16.6831 5.65797 16.427C5.70741 16.1709 5.83086 15.9349 6.01304 15.7482C6.13559 15.6247 6.28141 15.5267 6.44206 15.4599C6.60271 15.3932 6.77502 15.3589 6.94899 15.3591H10.008Z" fill="#C4D4DD"/>
<path d="M9.46297 9.29458C9.87183 9.29458 10.2033 8.96313 10.2033 8.55427C10.2033 8.14541 9.87183 7.81396 9.46297 7.81396C9.05411 7.81396 8.72266 8.14541 8.72266 8.55427C8.72266 8.96313 9.05411 9.29458 9.46297 9.29458Z" fill="#D4F4F2"/>
<path d="M9.06655 27.5531C9.18719 27.6595 9.27255 27.8001 9.31125 27.9563C9.34995 28.1124 9.34016 28.2766 9.28318 28.4271C9.22619 28.5775 9.12472 28.707 8.99229 28.7983C8.85986 28.8896 8.70274 28.9384 8.54188 28.9381C8.34932 28.9387 8.16332 28.8683 8.01945 28.7403L5.10935 26.1681C5.02512 26.0952 4.95751 26.0051 4.9111 25.9039C4.8647 25.8026 4.84057 25.6926 4.84035 25.5812C4.83964 25.4695 4.86244 25.359 4.90725 25.2567C4.95206 25.1545 5.01789 25.0628 5.10046 24.9876L7.94164 22.4154C8.01816 22.3416 8.10875 22.2839 8.20802 22.2457C8.30728 22.2076 8.4132 22.1897 8.51949 22.1933C8.62577 22.1969 8.73026 22.2218 8.82673 22.2666C8.9232 22.3113 9.0097 22.375 9.08108 22.4538C9.15246 22.5327 9.20727 22.625 9.24225 22.7255C9.27723 22.8259 9.29168 22.9323 9.28472 23.0384C9.27777 23.1446 9.24956 23.2482 9.20177 23.3432C9.15398 23.4382 9.08758 23.5226 9.00652 23.5915L6.82117 25.5656L9.06655 27.5531Z" fill="#D4F4F2"/>
<path d="M6.42781 7.81617C6.57432 7.81617 6.71754 7.85964 6.83933 7.94109C6.96113 8.02253 7.05601 8.13828 7.11198 8.27368C7.16794 8.40909 7.18247 8.55805 7.15373 8.70172C7.12498 8.84538 7.05425 8.97729 6.9505 9.08073C6.84674 9.18418 6.71462 9.25451 6.57087 9.28282C6.42712 9.31114 6.27819 9.29616 6.14296 9.23979C6.00773 9.18341 5.89226 9.08818 5.81118 8.96615C5.73011 8.84411 5.68706 8.70076 5.6875 8.55425C5.6875 8.45714 5.70666 8.36098 5.7439 8.27128C5.78113 8.18159 5.8357 8.10013 5.90447 8.03156C5.97324 7.96299 6.05487 7.90867 6.14468 7.87171C6.23448 7.83475 6.33069 7.81587 6.42781 7.81617V7.81617Z" fill="#D4F4F2"/>
<path d="M3.39265 9.29458C3.80151 9.29458 4.13296 8.96313 4.13296 8.55427C4.13296 8.14541 3.80151 7.81396 3.39265 7.81396C2.98379 7.81396 2.65234 8.14541 2.65234 8.55427C2.65234 8.96313 2.98379 9.29458 3.39265 9.29458Z" fill="#D4F4F2"/>
<path d="M41.848 10.5794V58.5437C41.848 58.7554 41.764 58.9584 41.6143 59.1081C41.4646 59.2578 41.2616 59.3419 41.0499 59.3419H1.80033C1.58846 59.3419 1.38523 59.2578 1.2352 59.1082C1.08517 58.9586 1.00059 58.7556 1 58.5437V7.38476C1.00029 7.27995 1.02122 7.17622 1.0616 7.0795C1.10198 6.98279 1.16102 6.89496 1.23533 6.82106C1.30965 6.74715 1.3978 6.68861 1.49474 6.64877C1.59168 6.60894 1.69552 6.58858 1.80033 6.58887H41.0499C41.1546 6.58858 41.2584 6.60895 41.3552 6.64881C41.452 6.68868 41.54 6.74726 41.6142 6.8212C41.6883 6.89513 41.7471 6.98296 41.7873 7.07967C41.8274 7.17638 41.848 7.28005 41.848 7.38476V10.5794Z" stroke="#6E7F89" stroke-width="0.5" stroke-linecap="round" stroke-linejoin="round"/>
<path d="M1 10.5796H41.848" stroke="#6E7F89" stroke-width="0.5" stroke-linecap="round" stroke-linejoin="round"/>
<path d="M3.39265 9.29458C3.80151 9.29458 4.13296 8.96313 4.13296 8.55427C4.13296 8.14541 3.80151 7.81396 3.39265 7.81396C2.98379 7.81396 2.65234 8.14541 2.65234 8.55427C2.65234 8.96313 2.98379 9.29458 3.39265 9.29458Z" stroke="#6E7F89" stroke-width="0.5" stroke-linecap="round" stroke-linejoin="round"/>
<path d="M7.16811 8.54961C7.16855 8.69612 7.12551 8.83947 7.04443 8.96151C6.96335 9.08354 6.84788 9.17877 6.71265 9.23514C6.57742 9.29152 6.4285 9.3065 6.28474 9.27819C6.14099 9.24987 6.00887 9.17954 5.90512 9.0761C5.80136 8.97265 5.73063 8.84074 5.70189 8.69708C5.67314 8.55341 5.68767 8.40445 5.74364 8.26905C5.79961 8.13364 5.89449 8.01789 6.01628 7.93645C6.13807 7.855 6.28129 7.81152 6.4278 7.81152C6.62376 7.81152 6.81173 7.88921 6.9505 8.02757C7.08927 8.16592 7.16752 8.35365 7.16811 8.54961Z" stroke="#6E7F89" stroke-width="0.5" stroke-linecap="round" stroke-linejoin="round"/>
<path d="M9.46297 9.29458C9.87183 9.29458 10.2033 8.96313 10.2033 8.55427C10.2033 8.14541 9.87183 7.81396 9.46297 7.81396C9.05411 7.81396 8.72266 8.14541 8.72266 8.55427C8.72266 8.96313 9.05411 9.29458 9.46297 9.29458Z" stroke="#6E7F89" stroke-width="0.5" stroke-linecap="round" stroke-linejoin="round"/>
<path d="M37.1884 24.1428H23.6072C23.3143 24.1428 23.0332 24.0272 22.8251 23.8212C22.6169 23.6151 22.4985 23.3352 22.4956 23.0424C22.4949 22.8975 22.5233 22.7541 22.5791 22.6204C22.6348 22.4868 22.7168 22.3657 22.8202 22.2643C22.9223 22.162 23.0436 22.0808 23.1771 22.0255C23.3106 21.9702 23.4538 21.9418 23.5983 21.9419H37.1795C37.3239 21.9419 37.4669 21.9704 37.6003 22.0257C37.7337 22.081 37.8548 22.1621 37.9568 22.2643C38.0588 22.3666 38.1397 22.4879 38.1948 22.6214C38.2498 22.7549 38.278 22.8979 38.2777 23.0424C38.2748 23.3329 38.1583 23.6108 37.953 23.8165C37.7477 24.0222 37.4701 24.1393 37.1795 24.1428H37.1884Z" stroke="#6E7F89" stroke-width="0.5" stroke-linecap="round" stroke-linejoin="round"/>
<path d="M31.8247 32.4819H6.61424C6.05927 32.4819 5.60938 32.9318 5.60938 33.4868V33.6802C5.60938 34.2352 6.05927 34.6851 6.61424 34.6851H31.8247C32.3797 34.6851 32.8296 34.2352 32.8296 33.6802V33.4868C32.8296 32.9318 32.3797 32.4819 31.8247 32.4819Z" stroke="#6E7F89" stroke-width="0.5" stroke-linecap="round" stroke-linejoin="round"/>
<path d="M21.4046 39.5247H6.7118C6.44519 39.4886 6.20068 39.3572 6.02364 39.1546C5.84659 38.952 5.74902 38.6921 5.74902 38.4231C5.74902 38.1541 5.84659 37.8942 6.02364 37.6916C6.20068 37.489 6.44519 37.3575 6.7118 37.3215H21.4046C21.6225 37.3215 21.8355 37.3862 22.0166 37.5074C22.1976 37.6286 22.3387 37.8009 22.4218 38.0023C22.5049 38.2038 22.5263 38.4253 22.4833 38.639C22.4404 38.8526 22.3349 39.0487 22.1804 39.2023C22.0789 39.3047 21.958 39.386 21.8248 39.4413C21.6916 39.4966 21.5488 39.525 21.4046 39.5247V39.5247Z" stroke="#6E7F89" stroke-width="0.5" stroke-linecap="round" stroke-linejoin="round"/>
<path d="M16.0779 44.0247H6.7118C6.44519 43.9887 6.20068 43.8572 6.02364 43.6546C5.84659 43.452 5.74902 43.1921 5.74902 42.9231C5.74902 42.6541 5.84659 42.3942 6.02364 42.1916C6.20068 41.989 6.44519 41.8575 6.7118 41.8215H16.0779C16.3445 41.8575 16.589 41.989 16.7661 42.1916C16.9431 42.3942 17.0407 42.6541 17.0407 42.9231C17.0407 43.1921 16.9431 43.452 16.7661 43.6546C16.589 43.8572 16.3445 43.9887 16.0779 44.0247V44.0247Z" stroke="#6E7F89" stroke-width="0.5" stroke-linecap="round" stroke-linejoin="round"/>
<path d="M29.9507 29.2917H23.608C23.4509 29.313 23.2911 29.3003 23.1392 29.2547C22.9874 29.2091 22.8471 29.1315 22.7277 29.0271C22.6083 28.9228 22.5127 28.7941 22.4471 28.6498C22.3816 28.5054 22.3477 28.3487 22.3477 28.1902C22.3477 28.0316 22.3816 27.8749 22.4471 27.7306C22.5127 27.5862 22.6083 27.4576 22.7277 27.3532C22.8471 27.2489 22.9874 27.1713 23.1392 27.1257C23.2911 27.08 23.4509 27.0674 23.608 27.0886H29.9507C30.2173 27.1246 30.4618 27.2561 30.6388 27.4587C30.8159 27.6612 30.9134 27.9212 30.9134 28.1902C30.9134 28.4592 30.8159 28.7191 30.6388 28.9217C30.4618 29.1243 30.2173 29.2557 29.9507 29.2917Z" stroke="#6E7F89" stroke-width="0.5" stroke-linecap="round" stroke-linejoin="round"/>
<path d="M6.42969 51.9165H14.0529" stroke="#6E7F89" stroke-width="0.5" stroke-linecap="round" stroke-linejoin="round"/>
<path d="M6.11719 49.6758H17.5886" stroke="#6E7F89" stroke-width="0.5" stroke-linecap="round" stroke-linejoin="round"/>
<path d="M8.54188 28.9381C8.34932 28.9387 8.16332 28.8683 8.01945 28.7403L5.10935 26.1681C5.02512 26.0952 4.95751 26.0051 4.9111 25.9039C4.8647 25.8026 4.84057 25.6926 4.84035 25.5812C4.83964 25.4695 4.86244 25.359 4.90725 25.2567C4.95206 25.1545 5.01789 25.0628 5.10046 24.9876L7.94164 22.4154C8.01816 22.3416 8.10875 22.2839 8.20802 22.2457C8.30728 22.2076 8.4132 22.1897 8.51949 22.1933C8.62577 22.1969 8.73026 22.2218 8.82673 22.2666C8.9232 22.3113 9.0097 22.375 9.08108 22.4538C9.15246 22.5327 9.20727 22.625 9.24225 22.7255C9.27723 22.8259 9.29168 22.9323 9.28472 23.0384C9.27777 23.1446 9.24956 23.2482 9.20177 23.3432C9.15398 23.4382 9.08758 23.5226 9.00652 23.5915L6.82117 25.5656L9.06655 27.5531C9.18719 27.6595 9.27255 27.8001 9.31125 27.9563C9.34995 28.1124 9.34016 28.2766 9.28318 28.4271C9.22619 28.5775 9.12472 28.707 8.99229 28.7983C8.85986 28.8896 8.70274 28.9384 8.54188 28.9381V28.9381Z" stroke="#6E7F89" stroke-width="0.5" stroke-linecap="round" stroke-linejoin="round"/>
<path d="M15.2332 22.2954L11.7585 29.7696C11.6473 30.0141 11.1916 30.1787 10.8114 29.9919C10.6788 29.932 10.5664 29.8351 10.4875 29.7129C10.4086 29.5906 10.3667 29.4482 10.3668 29.3027C10.3651 29.1919 10.3894 29.0823 10.4379 28.9826L13.9105 21.5062C13.9964 21.3237 14.1508 21.1826 14.3403 21.1135C14.5297 21.0443 14.7388 21.0528 14.922 21.1371C15.049 21.1955 15.1563 21.2898 15.2305 21.4082C15.3047 21.5267 15.3428 21.6643 15.34 21.8041C15.3424 21.9738 15.3059 22.1419 15.2332 22.2954Z" stroke="#6E7F89" stroke-width="0.5" stroke-linecap="round" stroke-linejoin="round"/>
<path d="M17.2602 28.9381C17.4534 28.9386 17.6401 28.8682 17.7849 28.7403L20.6972 26.1681C20.7797 26.0935 20.8456 26.0024 20.8908 25.9007C20.9359 25.7991 20.9592 25.6891 20.9592 25.5778C20.9592 25.4666 20.9359 25.3566 20.8908 25.255C20.8456 25.1533 20.7797 25.0622 20.6972 24.9876L17.8583 22.4154C17.7817 22.3416 17.6911 22.2839 17.5919 22.2457C17.4926 22.2076 17.3867 22.1897 17.2804 22.1933C17.1741 22.1969 17.0696 22.2218 16.9732 22.2666C16.8767 22.3113 16.7902 22.375 16.7188 22.4538C16.6474 22.5327 16.5926 22.625 16.5576 22.7255C16.5227 22.8259 16.5082 22.9323 16.5152 23.0384C16.5221 23.1446 16.5503 23.2482 16.5981 23.3432C16.6459 23.4382 16.7123 23.5226 16.7934 23.5915L18.9765 25.5656L16.7289 27.5531C16.6081 27.6596 16.5227 27.8005 16.4841 27.9568C16.4454 28.1132 16.4554 28.2776 16.5127 28.4281C16.5699 28.5786 16.6717 28.7081 16.8045 28.7992C16.9373 28.8904 17.0947 28.9388 17.2558 28.9381H17.2602Z" stroke="#6E7F89" stroke-width="0.5" stroke-linecap="round" stroke-linejoin="round"/>
<path d="M10.008 18.0136H6.94899C6.68818 18.0099 6.43415 17.9299 6.21836 17.7833C6.00256 17.6368 5.83447 17.4302 5.73487 17.1891C5.63527 16.9481 5.60853 16.6831 5.65797 16.427C5.70741 16.1709 5.83086 15.9349 6.01304 15.7482C6.13559 15.6247 6.28141 15.5267 6.44206 15.4599C6.60271 15.3932 6.77502 15.3589 6.94899 15.3591H10.008C10.3371 15.3922 10.6421 15.5462 10.864 15.7915C11.0859 16.0367 11.2087 16.3556 11.2087 16.6863C11.2087 17.0171 11.0859 17.336 10.864 17.5812C10.6421 17.8265 10.3371 17.9805 10.008 18.0136V18.0136Z" stroke="#6E7F89" stroke-width="0.5" stroke-linecap="round" stroke-linejoin="round"/>
<path d="M17.291 18.0136H14.2319C13.9029 17.9805 13.5978 17.8264 13.376 17.5812C13.1541 17.336 13.0312 17.0171 13.0312 16.6863C13.0312 16.3556 13.1541 16.0367 13.376 15.7915C13.5978 15.5462 13.9029 15.3922 14.2319 15.3591H17.291C17.62 15.3922 17.9251 15.5462 18.1469 15.7915C18.3688 16.0367 18.4916 16.3556 18.4916 16.6863C18.4916 17.0171 18.3688 17.336 18.1469 17.5812C17.9251 17.8264 17.62 17.9805 17.291 18.0136V18.0136Z" stroke="#6E7F89" stroke-width="0.5" stroke-linecap="round" stroke-linejoin="round"/>
<path d="M24.2826 16.6865C24.2821 17.0087 24.1862 17.3235 24.0069 17.5912C23.8275 17.8589 23.5729 18.0674 23.2751 18.1904C22.9773 18.3134 22.6497 18.3454 22.3337 18.2822C22.0178 18.2191 21.7276 18.0637 21.4999 17.8357C21.2723 17.6078 21.1173 17.3174 21.0546 17.0014C20.9919 16.6853 21.0243 16.3578 21.1477 16.0601C21.2711 15.7625 21.48 15.5081 21.7479 15.3292C22.0158 15.1502 22.3308 15.0547 22.653 15.0547C22.8673 15.0544 23.0795 15.0964 23.2775 15.1784C23.4755 15.2603 23.6553 15.3805 23.8067 15.5321C23.9581 15.6837 24.0781 15.8637 24.1598 16.0618C24.2414 16.2599 24.2832 16.4722 24.2826 16.6865V16.6865Z" stroke="#6E7F89" stroke-width="0.5" stroke-linecap="round" stroke-linejoin="round"/>
<path d="M28.4339 15.0547L26.1641 18.316H30.7037L28.4339 15.0547Z" stroke="#6E7F89" stroke-width="0.5" stroke-linecap="round" stroke-linejoin="round"/>
<path d="M29.12 51.6143H26.0609C25.7072 51.6143 25.3679 51.4738 25.1177 51.2236C24.8676 50.9735 24.7271 50.6342 24.7271 50.2804C24.7271 49.9267 24.8676 49.5874 25.1177 49.3372C25.3679 49.0871 25.7072 48.9465 26.0609 48.9465H29.12C29.449 48.9796 29.7541 49.1336 29.9759 49.3789C30.1978 49.6241 30.3206 49.943 30.3206 50.2738C30.3206 50.6045 30.1978 50.9234 29.9759 51.1686C29.7541 51.4139 29.449 51.5679 29.12 51.601V51.6143Z" stroke="#6E7F89" stroke-width="0.5" stroke-linecap="round" stroke-linejoin="round"/>
<path d="M36.1151 50.2893C36.1151 50.6121 36.0194 50.9277 35.84 51.1961C35.6606 51.4645 35.4056 51.6736 35.1073 51.797C34.809 51.9205 34.4808 51.9527 34.1642 51.8895C33.8476 51.8264 33.5568 51.6708 33.3287 51.4423C33.1006 51.2139 32.9454 50.9229 32.8826 50.6062C32.8199 50.2896 32.8526 49.9614 32.9764 49.6633C33.1003 49.3651 33.3098 49.1104 33.5784 48.9314C33.847 48.7524 34.1627 48.657 34.4856 48.6575C34.6998 48.6572 34.9121 48.6992 35.11 48.7811C35.308 48.8631 35.4879 48.9833 35.6393 49.1349C35.7907 49.2865 35.9107 49.4665 35.9923 49.6646C36.074 49.8627 36.1157 50.075 36.1151 50.2893Z" stroke="#6E7F89" stroke-width="0.5" stroke-linecap="round" stroke-linejoin="round"/>
<path d="M37.1939 39.5248H25.8069C25.5163 39.5248 25.2375 39.4093 25.032 39.2038C24.8264 38.9982 24.7109 38.7195 24.7109 38.4288V38.4288C24.7109 38.2848 24.7393 38.1423 24.7944 38.0093C24.8494 37.8764 24.9302 37.7556 25.032 37.6538C25.1337 37.552 25.2545 37.4713 25.3875 37.4162C25.5205 37.3611 25.663 37.3328 25.8069 37.3328H37.1939C37.4842 37.3334 37.7624 37.4491 37.9675 37.6546C38.1725 37.86 38.2877 38.1385 38.2877 38.4288V38.4288C38.2877 38.7191 38.1725 38.9975 37.9675 39.203C37.7624 39.4085 37.4842 39.5242 37.1939 39.5248V39.5248Z" stroke="#6E7F89" stroke-width="0.5" stroke-linecap="round" stroke-linejoin="round"/>
<path d="M36.7773 44.2246H20.3261C20.0594 44.1886 19.8149 44.0571 19.6379 43.8546C19.4609 43.652 19.3633 43.3921 19.3633 43.1231C19.3633 42.854 19.4609 42.5941 19.6379 42.3916C19.8149 42.189 20.0594 42.0575 20.3261 42.0215H36.7773C37.0702 42.0244 37.3501 42.1428 37.5561 42.351C37.7622 42.5591 37.8778 42.8402 37.8778 43.1331C37.8778 43.4259 37.7622 43.707 37.5561 43.9152C37.3501 44.1233 37.0702 44.2417 36.7773 44.2446V44.2246Z" stroke="#6E7F89" stroke-width="0.5" stroke-linecap="round" stroke-linejoin="round"/>
<path d="M37.2586 28.1132C37.2591 28.4356 37.1639 28.7509 36.9851 29.0191C36.8063 29.2874 36.552 29.4966 36.2542 29.6203C35.9565 29.744 35.6288 29.7766 35.3125 29.7139C34.9963 29.6513 34.7057 29.4963 34.4776 29.2685C34.2495 29.0407 34.094 28.7503 34.031 28.4341C33.9679 28.118 34.0001 27.7902 34.1233 27.4923C34.2466 27.1944 34.4555 26.9398 34.7235 26.7606C34.9915 26.5815 35.3067 26.4858 35.6291 26.4858C35.843 26.4855 36.0548 26.5274 36.2525 26.6091C36.4502 26.6907 36.6299 26.8106 36.7812 26.9617C36.9326 27.1128 37.0526 27.2923 37.1346 27.4899C37.2165 27.6875 37.2586 27.8993 37.2586 28.1132V28.1132Z" stroke="#6E7F89" stroke-width="0.5" stroke-linecap="round" stroke-linejoin="round"/>
<path d="M40.2503 18.5006C45.0829 18.5006 49.0006 14.5829 49.0006 9.75029C49.0006 4.91764 45.0829 1 40.2503 1C35.4176 1 31.5 4.91764 31.5 9.75029C31.5 14.5829 35.4176 18.5006 40.2503 18.5006Z" fill="#D4F4F2" stroke="#6E7F89" stroke-width="0.5" stroke-linecap="round" stroke-linejoin="round"/>
<path d="M45.6266 7.8094C45.7208 7.82338 45.8092 7.86338 45.8819 7.9249C45.9546 7.98641 46.0086 8.06701 46.038 8.15759C46.0673 8.24818 46.0708 8.34516 46.048 8.43761C46.0252 8.53007 45.977 8.61432 45.9089 8.68087L43.6413 10.8885C43.5832 10.9454 43.5396 11.0156 43.5145 11.093C43.4893 11.1704 43.4832 11.2528 43.4968 11.3331L44.0304 14.4455C44.0469 14.5394 44.0368 14.6361 44.0011 14.7246C43.9653 14.8131 43.9055 14.8897 43.8283 14.9458C43.7511 15.0019 43.6598 15.0351 43.5646 15.0418C43.4694 15.0485 43.3743 15.0283 43.2901 14.9835L40.4889 13.5118C40.4159 13.4734 40.3346 13.4534 40.2521 13.4534C40.1696 13.4534 40.0884 13.4734 40.0154 13.5118L37.2142 14.9968C37.13 15.0416 37.0348 15.0618 36.9397 15.0551C36.8445 15.0485 36.7531 15.0152 36.676 14.9591C36.5988 14.903 36.5389 14.8264 36.5032 14.7379C36.4675 14.6495 36.4573 14.5528 36.4739 14.4588L37.0075 11.3464C37.021 11.2662 37.015 11.1838 36.9898 11.1064C36.9646 11.0289 36.9211 10.9588 36.863 10.9018L34.5953 8.69421C34.5272 8.62765 34.4791 8.54341 34.4563 8.45096C34.4335 8.3585 34.437 8.26152 34.4663 8.17093C34.4956 8.08034 34.5497 7.99975 34.6224 7.93823C34.6951 7.87672 34.7835 7.83671 34.8777 7.82274L38.0101 7.37811C38.092 7.36668 38.1699 7.33538 38.2369 7.28695C38.304 7.23851 38.3581 7.1744 38.3947 7.10022L39.7953 4.26126C39.8373 4.1759 39.9023 4.10401 39.983 4.05373C40.0638 4.00346 40.157 3.97681 40.2521 3.97681C40.3473 3.97681 40.4405 4.00346 40.5212 4.05373C40.602 4.10401 40.667 4.1759 40.709 4.26126L42.1096 7.10022C42.1461 7.1744 42.2003 7.23851 42.2673 7.28695C42.3344 7.33538 42.4123 7.36668 42.4942 7.37811L45.6266 7.8094Z" fill="#FDAE76"/>
<path d="M40.709 4.23675L42.1096 7.0757C42.1461 7.14989 42.2003 7.214 42.2673 7.26243C42.3344 7.31087 42.4123 7.34217 42.4942 7.3536L45.6266 7.79823C45.7208 7.8122 45.8092 7.8522 45.8819 7.91372C45.9546 7.97524 46.0086 8.05583 46.038 8.14642C46.0673 8.23701 46.0708 8.33399 46.048 8.42644C46.0252 8.5189 45.977 8.60314 45.9089 8.6697L43.6413 10.8773C43.5832 10.9342 43.5396 11.0044 43.5145 11.0819C43.4893 11.1593 43.4832 11.2416 43.4968 11.3219L44.0304 14.4343C44.0469 14.5283 44.0368 14.625 44.0011 14.7134C43.9653 14.8019 43.9055 14.8785 43.8283 14.9346C43.7511 14.9907 43.6598 15.024 43.5646 15.0306C43.4694 15.0373 43.3743 15.0171 43.2901 14.9723L40.4889 13.5006C40.4159 13.4622 40.3346 13.4422 40.2521 13.4422C40.1696 13.4422 40.0884 13.4622 40.0154 13.5006L37.2142 14.9968C37.13 15.0415 37.0348 15.0618 36.9397 15.0551C36.8445 15.0484 36.7531 15.0151 36.676 14.9591C36.5988 14.903 36.5389 14.8263 36.5032 14.7379C36.4675 14.6494 36.4573 14.5527 36.4739 14.4588L37.0075 11.3464C37.021 11.2661 37.015 11.1837 36.9898 11.1063C36.9646 11.0289 36.9211 10.9587 36.863 10.9017L34.5953 8.69415C34.5272 8.6276 34.4791 8.54335 34.4563 8.4509C34.4335 8.35845 34.437 8.26146 34.4663 8.17088C34.4956 8.08029 34.5497 7.9997 34.6224 7.93818C34.6951 7.87666 34.7835 7.83666 34.8777 7.82268L38.0101 7.37805C38.092 7.36663 38.1699 7.33533 38.2369 7.28689C38.304 7.23845 38.3581 7.17434 38.3947 7.10016L39.7953 4.26121C39.8349 4.17467 39.898 4.10098 39.9774 4.04849C40.0568 3.99601 40.1494 3.96684 40.2445 3.96429C40.3397 3.96175 40.4336 3.98593 40.5157 4.03409C40.5978 4.08225 40.6648 4.15246 40.709 4.23675V4.23675Z" stroke="#6E7F89" stroke-width="0.5" stroke-linecap="round" stroke-linejoin="round"/>
<path opacity="0.09" d="M40.2488 18.5007C38.6342 18.5013 37.051 18.055 35.6744 17.2114C34.2978 16.3677 33.1815 15.1595 32.4491 13.7206C31.7168 12.2817 31.3969 10.6682 31.525 9.05868C31.6531 7.4492 32.2241 5.90656 33.1748 4.60156C32.1468 5.34121 31.2917 6.29516 30.6684 7.39754C30.0451 8.49992 29.6685 9.72445 29.5646 10.9866C29.4608 12.2487 29.6321 13.5183 30.0668 14.7078C30.5015 15.8972 31.1891 16.9781 32.0823 17.8759C32.9755 18.7736 34.0529 19.4668 35.2401 19.9075C36.4273 20.3483 37.6961 20.5261 38.9587 20.4286C40.2213 20.3312 41.4478 19.9608 42.5533 19.3432C43.6589 18.7255 44.6172 17.8752 45.362 16.8511C43.8737 17.9255 42.0843 18.5027 40.2488 18.5007Z" fill="black"/>
</svg>
