<svg height="20" viewBox="0 0 20 20" width="20" xmlns="http://www.w3.org/2000/svg"><path d="m9.00054744 46c-.62198452 0-1.24545703.2380805-1.71752542.7120094l-6.57101343 6.5710212c-.47392839.4735569-.71200859 1.0955422-.71200859 1.7175274 0 .6190092.2380802 1.2424825.71200859 1.7160394l6.57101343 6.5725092c.47355639.4724409 1.0970289.7108934 1.71752542.7108934.61900851 0 1.24248106-.2384525 1.71603746-.7108934l6.5725014-6.5725092c.4679764-.4690929.7064286-1.0854981.7108926-1.7000434v-.001488c.002604-.6260772-.2354762-1.2555025-.7108926-1.7320354l-6.5725014-6.5710212c-.4735564-.4739289-1.09554095-.7120094-1.71603746-.7120094zm0 .7495815c.43003235 0 .8559727.1629363 1.18742496.492901l1.9091056 1.9091078-3.09504256 3.0954182-3.09653056-3.0954182 1.90947758-1.9091078c.32810427-.3299647.75404462-.492901 1.18556498-.492901zm-3.627003 2.9309939 3.09801856 3.0980222-5.3184884 5.3199826-1.91059357-1.9135718c-.32996428-.3284767-.49290041-.7559055-.49290041-1.1844504 0-.4315209.16293613-.8574617.49290041-1.1870544zm7.25400596 0 3.0559826 3.0574741-3.1155026 3.0764461-3.03552253-3.035898zm3.586455 3.5894351.5434924.5434931c.3325683.3325687.4955045.7629736.4925285 1.1970984-.0029761.4259409-.1655402.8489057-.4925285 1.1758944l-1.9079895 1.9091078-1.7495175-1.7510075zm-7.21196996.0375721 5.31848836 5.3184947-4.1355274 4.1314402c-.32847626.3295927-.75590461.492529-1.18444896.492529-.43003236 0-.85746071-.1629363-1.18556498-.492529l-4.13143542-4.1284642z" fill="#ff7c6e" fill-rule="evenodd" stroke="#ff7c6e" stroke-width=".5" transform="translate(1 -45)"/></svg>