<svg height="18" viewBox="0 0 18 18" width="18" xmlns="http://www.w3.org/2000/svg"><path d="m1.14444969 90c-.62621634 0-1.14444969.5182333-1.14444969 1.1444497v15.7115253c0 .625792.51823335 1.144025 1.14444969 1.144025h15.71152571c.6257913 0 1.1440246-.516533 1.1440246-1.144025v-15.7115253c0-.6262164-.5165328-1.1444497-1.1440246-1.1444497zm.47554091 1.35h14.7604182c.1497729 0 .2695912.1202177.2695912.2699906v14.7604184c0 .149773-.1198183.269591-.2695912.269591h-14.7604182c-.14977289 0-.2699906-.119818-.2699906-.269591v-14.7604184c0-.1497729.12021771-.2699906.2699906-.2699906zm5.62252239 5.892513v5.388521c0 .827303-.31247048 1.039868-.85706188 1.039868-.56797355 0-.96334436-.353708-1.2256495-.813698l-1.34511101.813698c.39026925.825177 1.34511101 1.715399 2.67194143 1.715399 1.46627302 0 2.47128011-.780538 2.47128011-2.492536v-5.651252zm5.33708081 0c-1.459471 0-2.3947568.9348606-2.3947568 2.1622107 0 1.3298063.7839396 1.9594233 1.9649504 2.4627773l.4085499.176004c.7452527.325224 1.1125649.52461 1.1125649 1.085782 0 .466792-.3537081.805621-1.0330656.805621-.8056212 0-1.1873879-.547993-1.5376949-1.121068l-1.28559281.857062c.47997161.94974 1.34213511 1.715399 2.86154941 1.715399 1.5525743 0 2.7102031-.807321 2.7102031-2.278696 0-1.366367-.7839396-1.974303-2.1753897-2.570335l-.4085499-.173028c-.7010392-.305243-1.0062824-.5029288-1.0062824-.9931036 0-.3966462.3052432-.7023146.7835144-.7023146.4701936 0 .772461.1993859 1.0513462.7023146l1.2736892-.8166745c-.5365139-.9501654-1.2851677-1.3119509-2.3250354-1.3119509z" fill="#ff7c6e" fill-rule="evenodd" transform="translate(0 -90)"/></svg>