<svg height="18" viewBox="0 0 18 18" width="18" xmlns="http://www.w3.org/2000/svg"><path d="m16.875 9.29492188c.2695326.04687523.5244129.17870985.7646484.39550781.2402356.21679796.3603516.48339681.3603516.79980471v1.125c0 .304689-.120116.5507803-.3603516.7382812-.2402355.187501-.4951158.3164059-.7646484.3867188l-1.4589844.3515625c-.058594.1757821-.1201168.3427726-.1845703.5009765-.0644534.158204-.1376949.3134758-.2197265.4658204l.7734374 1.3007812c.1523446.2343762.2460936.5039047.28125.8085938.0351565.304689-.0585926.5683582-.28125.7910156l-.7910156.7910156c-.2226573.2226574-.4921859.3251954-.8085937.3076172-.3164079-.0175782-.5917957-.1025383-.8261719-.2548828l-1.265625-.8085938c-.1640633.0820317-.3281242.1582028-.4921875.2285156-.1640633.0703129-.3398428.1347654-.5273437.1933594l-.3164063 1.4589844c-.0468752.2695326-.1787099.5244129-.3955078.7646484-.216798.2402356-.48339687.3603516-.7998047.3603516h-1.125c-.30468902 0-.55078031-.120116-.73828125-.3603516-.18750094-.2402355-.3164059-.4951158-.38671875-.7646484l-.3515625-1.4414062c-.18750094-.0585941-.37499906-.1259762-.5625-.2021485-.18750094-.0761722-.36913975-.1611323-.54492188-.2548828l-1.30078124.8261719c-.22265737.1523445-.49511558.2373046-.81738282.2548828-.32226723.0175782-.58886613-.0849598-.79980468-.3076172l-.80859376-.7910156c-.21093855-.2226574-.2988283-.4863266-.26367187-.7910156.03515643-.3046891.12304617-.5742176.26367187-.8085938l.82617188-1.3710938c-.07031285-.1406257-.13769499-.2841789-.20214844-.430664-.06445344-.1464851-.12011695-.301757-.16699218-.4658203l-1.45898438-.3515625c-.2695326-.0703129-.52441286-.1992178-.76464844-.3867188-.24023557-.1875009-.36035156-.4335922-.36035156-.7382812v-1.125c0-.3164079.12011599-.58300675.36035156-.79980471.24023558-.21679796.49511584-.34863258.76464844-.39550781l1.44140625-.31640626c.04687523-.16406332.1054684-.32812417.17578125-.4921875.07031285-.16406332.14062465-.32226486.2109375-.47460937l-.82617188-1.37109375c-.1406257-.23437617-.22851544-.50390473-.26367187-.80859375s.05273332-.56835826.26367187-.79101563l.80859376-.79101562c.21093855-.22265736.47753745-.3251954.79980468-.30761719.32226724.01757822.59472545.1025383.81738282.25488281l1.30078124.82617188c.17578213-.09375047.35449128-.17871056.53613282-.25488281.18164153-.07617226.36621-.1435544.55371094-.20214844l.36914062-1.44140625c.05859404-.2695326.18163969-.52441286.36914062-.76464844.18750094-.24023557.43945155-.36035156.75585938-.36035156h1.125c.31640783 0 .5800771.12011599.7910156.36035156.2109386.24023558.3457029.48925653.4042969.74707032l.3164063 1.4765625c.1757821.05859404.3486319.12304652.5185546.19335937.1699228.07031285.3369133.14648396.5009766.22851563l1.265625-.80859376c.2343762-.15234451.509764-.23730459.8261719-.25488281.3164078-.01757821.5859364.08495983.8085937.30761719l.7910156.79101562c.2226574.22265737.3164065.48632661.28125.79101563-.0351564.30468902-.1289054.57421758-.28125.80859375l-.7734374 1.30078125c.0820316.16406332.1611324.33105384.2373046.50097656.0761723.16992273.1376951.34863188.1845704.53613281zm0 2.23242192.0175781-1.0019532c-.0117188-.0117188-.0410154-.0322264-.0878906-.0615234s-.0996091-.0498046-.1582031-.0615234l-2.0917969-.47460942-.1933594-.61523438c-.0351564-.1406257-.0820309-.2812493-.140625-.421875-.058594-.1406257-.1289058-.28710861-.2109375-.43945312l-.28125-.5625 1.1074219-1.84570313c.0351564-.04687523.0615233-.09374977.0791016-.140625.0175782-.04687523.0263671-.08203113.0263671-.10546875l-.7382812-.72070312c-.0351564 0-.073242.00585931-.1142578.01757812s-.0791014.02929676-.1142578.05273438l-1.8105469 1.16015624-.5800781-.29882812c-.1406257-.07031285-.2812493-.13769499-.421875-.20214844-.1406257-.06445344-.2871086-.11425763-.4394532-.14941406l-.6152343-.2109375-.45703128-2.12695312c-.0117188-.04687524-.02929675-.09082011-.05273437-.13183594l-.03515625-.06152344h-1.03710938c-.02343761.02343762-.04687488.05859352-.0703125.10546875-.02343761.04687523-.04101556.1054684-.05273437.17578125l-.50976563 2.0390625-.59765624.19335938c-.15234452.04687523-.30468674.10253874-.45703126.16699218-.15234451.06445345-.30468673.1376949-.45703124.21972656l-.58007813.29882813-1.88085937-1.1953125-.08789063-.04394531c-.03515643-.01757822-.07031232-.03222651-.10546875-.04394532l-.73828125.73828126c0 .03515642.00878897.07617164.02636719.12304687.01757821.04687523.04394513.09960908.07910156.15820313l1.14257812 1.8984375-.28125.54492187c-.07031285.15234451-.13183567.29296811-.18457031.421875s-.09667951.25781186-.13183593.38671875l-.19335938.61523438-2.12695312.47460942c-.03515643.0117188-.07324199.0292967-.11425782.0527343s-.06738275.0351563-.07910156.0351563v1.0371094c.02343762.0234376.05859352.0439452.10546875.0615234s.1054684.0322265.17578125.0439453l2.05664062.5273437.19335938.5976563c.03515643.1171881.0791013.2373041.13183594.3603516s.11425746.2490228.18457031.3779297l.26367187.5449218-1.14257812 1.9160156c-.03515643.0468753-.06152335.0937498-.07910156.140625-.01757822.0468753-.02636719.0878905-.02636719.1230469l.73828125.7207031c.03515643 0 .07324198-.0087889.11425781-.0263671.04101583-.0175783.07910139-.0380859.11425781-.0615235l1.84570313-1.1777344.58007813.2988282c.15234451.0820316.30468673.1552731.45703124.2197265.15234452.0644535.30468674.120117.45703126.1669922l.59765624.1933594.52734376 2.0742187c.0117188.0585941.02636709.1083983.04394531.1494141.01757821.0410158.03808582.0732421.06152343.0966797h1.01953126c.0117188-.0117188.03222641-.0410154.06152343-.0878906.02929702-.0468753.04980463-.0937498.06152344-.140625l.45703125-2.0917969.6152344-.2109375c.1406257-.0468752.2812493-.0996091.421875-.1582031.1406257-.0585941.2812493-.1230465.421875-.1933594l.5800781-.2988281 1.8457031 1.1777344.0878906.0439453c.0351565.0175782.0703124.0322265.1054688.0439453l.7382812-.7382813c0-.0351564-.0087889-.0761716-.0263671-.1230469-.0175783-.0468752-.0439452-.099609-.0791016-.1582031l-1.1074219-1.828125.28125-.5625c.0703129-.1289069.1318357-.2607415.1845703-.3955078.0527347-.1347663.1025389-.2724602.1494141-.4130859l.1933594-.5800782 2.0917968-.5273437c.0585941-.0117188.1083983-.0263671.1494141-.0439453s.0732421-.0380858.0966797-.0615234zm-7.875-3.9023438c.93750469 0 1.7373014.32812172 2.3994141.984375.6621126.65625328.993164 1.4531203.993164 2.390625s-.3310514 1.7343717-.993164 2.390625c-.6621127.6562533-1.46190941.984375-2.3994141.984375-.92578588 0-1.71972325-.3281217-2.38183594-.984375-.66211268-.6562533-.99316406-1.4531203-.99316406-2.390625s.33105138-1.73437172.99316406-2.390625c.66211269-.65625328 1.45605006-.984375 2.38183594-.984375zm0 5.625c.62109686 0 1.151365-.2197244 1.5908203-.6591797s.6591797-.9697234.6591797-1.5908203-.2197244-1.15136499-.6591797-1.59082031-.96972344-.65917969-1.5908203-.65917969-1.15136499.21972437-1.59082031.65917969-.65917969.96972341-.65917969 1.59082031.21972437 1.151365.65917969 1.5908203.96972345.6591797 1.59082031.6591797z" fill="#ff7c6e" fill-rule="evenodd" transform="translate(0 -2)"/></svg>