<svg height="11" viewBox="0 0 18 11" width="18" xmlns="http://www.w3.org/2000/svg"><path d="m6.14732143 103.716912c-.18750094.188726-.41517723.283088-.68303572.283088-.26785848 0-.49553477-.094362-.68303571-.283088l-4.5-4.529412c-.18750094-.1887264-.28125-.4178908-.28125-.6875s.09374906-.4987736.28125-.6875l4.5-4.5294118c.18750094-.1887264.41517723-.2830882.68303571-.2830882.26785849 0 .49553478.0943618.68303572.2830882.18750094.1887265.28125.4178908.28125.6875s-.09374906.4987736-.28125.6875l-3.81696429 3.8419118 3.81696429 3.841912c.18750094.188726.28125.417891.28125.6875s-.09374906.498773-.28125.6875zm7.07142857 0c-.1875009.188726-.4151772.283088-.6830357.283088s-.4955348-.094362-.6830357-.283088c-.187501-.188727-.28125-.417891-.28125-.6875s.093749-.498774.28125-.6875l3.8169643-3.841912-3.8169643-3.8419118c-.187501-.1887264-.28125-.4178908-.28125-.6875s.093749-.4987735.28125-.6875c.1875009-.1887264.4151772-.2830882.6830357-.2830882s.4955348.0943618.6830357.2830882l4.5 4.5294118c.1875009.1887264.28125.4178908.28125.6875s-.0937491.4987736-.28125.6875z" fill="#ff7c6e" fill-rule="evenodd" transform="translate(0 -93)"/></svg>