<svg xmlns="http://www.w3.org/2000/svg" width="30" height="30" viewBox="0 0 30 30"><defs><style>.cls-1{fill:#7eb5bd;}.cls-2{fill:#6e7f89;}.cls-3{fill:#ff7c6e;}</style></defs><title>star 30x30--</title><path class="cls-1" d="M6.55 8l-1.19.93-.06.07a11 11 0 1 0 15.11 16.12l1.25-1z"/><path class="cls-2" d="M12.86 29a11.93 11.93 0 0 1-8.16-20.63l.12-.11 1.82-1.44 16.36 17.39-2 1.59a11.79 11.79 0 0 1-8.14 3.2zm-6.86-19.4a10.18 10.18 0 0 0 7 17.6 10.1 10.1 0 0 0 7-2.76l.57-.45-14.11-14.8z"/><path class="cls-3" d="M17.48 9.69a2.69 2.69 0 1 1-2.69 2.69 2.66 2.66 0 0 1 2.69-2.69z"/><path class="cls-2" d="M17.48 15.72a3.35 3.35 0 1 1 3.34-3.34 3.31 3.31 0 0 1-3.34 3.34zm0-5.37a2 2 0 1 0 2 2 2 2 0 0 0-2-2zM13.73 16.56a.47.47 0 0 1-.31-.81l1.75-1.69a.5.5 0 0 1 .68 0 .49.49 0 0 1 0 .69l-1.74 1.69a.93.93 0 0 1-.38.12zM23.78 13.13a.7.7 0 0 1-.68-.69 5.64 5.64 0 0 0-5.62-5.62.69.69 0 1 1 0-1.37 7.08 7.08 0 0 1 7.05 7.05.8.8 0 0 1-.75.63zM28.28 12.88a.7.7 0 0 1-.69-.69 9.82 9.82 0 0 0-9.8-9.8.7.7 0 0 1-.69-.69.7.7 0 0 1 .69-.7 11.28 11.28 0 0 1 11.21 11.25.8.8 0 0 1-.72.63z"/></svg>