<svg viewBox="0 0 640 605" xmlns="http://www.w3.org/2000/svg"><path d="m507.66 487.35a31.33 31.33 0 0 1 -11.14 24 8.53 8.53 0 1 1 -11-13 14.34 14.34 0 1 0 -17.25.92 8.53 8.53 0 1 1 -9.55 14.14 31.38 31.38 0 0 1 9-56.19 31.17 31.17 0 0 1 16.88-.09 31.42 31.42 0 0 1 23.06 30.22z" fill="#80b4bb"/><path d="m484.67 456.74-.1.34a31.17 31.17 0 0 0 -16.88.09l-.07-.25a58.21 58.21 0 0 0 -48.94-53.11v-17.22a75.54 75.54 0 0 1 65.99 70.15z" fill="#e6ecf0"/><path d="m424.64 275.55v14.52a30.56 30.56 0 0 1 -30.47 30.46h-148.34a30.55 30.55 0 0 1 -30.46-30.46v-14.52h6.26a24.41 24.41 0 0 0 24.4-24.4v-21.73a24.4 24.4 0 0 0 -24.4-24.42h-6.26v-22.88a30.55 30.55 0 0 1 30.46-30.46h148.34a30.56 30.56 0 0 1 30.47 30.46v22.88h-6.19a24.38 24.38 0 0 0 -24.38 24.39v21.73a24.39 24.39 0 0 0 24.38 24.4zm-41-27.9a7.48 7.48 0 1 0 -7.47 7.48 7.46 7.46 0 0 0 7.43-7.48zm-37.3 8h-47.78a23.88 23.88 0 0 0 23.87 23.89 23.85 23.85 0 0 0 23.87-23.89zm-74.95-8a7.48 7.48 0 1 0 -7.47 7.48 7.47 7.47 0 0 0 7.43-7.48z" fill="#e6ecf0"/><path d="m424.64 205v70.52h-6.19a24.39 24.39 0 0 1 -24.38-24.4v-21.7a24.38 24.38 0 0 1 24.38-24.42z" fill="#80b4bb"/><path d="m418.68 432.4v8.28a9.72 9.72 0 0 1 -9.72 9.71h-177.96a9.72 9.72 0 0 1 -9.72-9.71v-63a9.71 9.71 0 0 1 9.72-9.68h178a9.71 9.71 0 0 1 9.72 9.7v8.09h-101a10.09 10.09 0 0 0 -10.09 10.09v26.5a10.08 10.08 0 0 0 10.07 10.02zm-130.68 0v-26.74h-50v26.74zm0-42.4a5.85 5.85 0 1 0 -5.86 5.84 5.85 5.85 0 0 0 5.86-5.84zm-19.16 0a5.85 5.85 0 1 0 -5.85 5.84 5.85 5.85 0 0 0 5.8-5.84zm-19.15 0a5.85 5.85 0 1 0 -5.86 5.84 5.85 5.85 0 0 0 5.81-5.84z" fill="#e6ecf0"/><path d="m418.68 403.81v28.59h-101a10.08 10.08 0 0 1 -10.09-10.07v-26.5a10.09 10.09 0 0 1 10.09-10.09h101z" fill="#d4eded"/><circle cx="376.13" cy="247.65" fill="#6f7f88" r="7.47"/><path d="m381.4 97.05v54.44h-45.51v-18.29c.89-.53 1.77-1.08 2.62-1.69a31.92 31.92 0 1 0 -35.69.89 32.17 32.17 0 0 0 5.67 2.89v16.2h-49.89v-54.44c0-30.73 27.5-55.65 61.4-55.65a64.55 64.55 0 0 1 43.42 16.29c11.11 10.08 17.98 23.99 17.98 39.36z" fill="#d4eded"/><path d="m365 320.53a7.9 7.9 0 0 1 0 15.79h-90a7.92 7.92 0 0 1 -7.9-7.9 7.9 7.9 0 0 1 7.9-7.89z" fill="#80b4bb"/><path d="m365 336.33a7.9 7.9 0 1 1 0 15.8h-90a7.9 7.9 0 0 1 0-15.8z" fill="#80b4bb"/><path d="m365 352.15a7.9 7.9 0 0 1 0 15.8h-90a7.9 7.9 0 1 1 0-15.8z" fill="#80b4bb"/><path d="m366.76 450.39v15.66a22.37 22.37 0 0 1 -22.36 22.36h-48.8a22.37 22.37 0 0 1 -22.36-22.36v-15.66z" fill="#f9ac76"/><path d="m308.49 140.82h27.39v10.67h-27.39z" fill="#80b4bb"/><path d="m329.42 97.83a7.56 7.56 0 1 1 -7.54 7.56 7.56 7.56 0 0 1 7.54-7.56z" fill="#f9ac76"/><path d="m327.56 275.45a13.43 13.43 0 0 0 -23.66-6.72l-1.26.24a23.85 23.85 0 0 1 -4.08-13.36h47.74a23.89 23.89 0 0 1 -18.67 23.32v-.16a13.2 13.2 0 0 0 -.07-3.32z" fill="#6f7f88"/><path d="m327.56 275.45a13.2 13.2 0 0 1 0 3.32v.16a24.09 24.09 0 0 1 -5.2.57 23.84 23.84 0 0 1 -19.72-10.5l1.26-.24a13.43 13.43 0 0 1 23.66 6.72z" fill="#f27a6e"/><path d="m335.89 140.82h-27.4v-5.53a31.92 31.92 0 1 1 43.42-29.78 31.85 31.85 0 0 1 -13.4 26c-.85.61-1.73 1.16-2.62 1.69zm-21.56-27.88a7.56 7.56 0 0 0 7.55-7.55 7.55 7.55 0 1 0 7.54-7.56 7.55 7.55 0 0 0 -7.54 7.56 7.55 7.55 0 1 0 -7.55 7.55z" fill="#f9ac76"/><path d="m321.88 105.39a7.55 7.55 0 1 1 -7.55-7.56 7.56 7.56 0 0 1 7.55 7.56z" fill="#f9ac76"/><path d="m274.76 405.66h13.19v26.74h-13.19z" fill="#e6ecf0"/><path d="m282.09 384.15a5.84 5.84 0 1 1 -5.84 5.84 5.85 5.85 0 0 1 5.84-5.84z" fill="#d4eded"/><path d="m262.2 405.66h12.56v26.74h-12.56z" fill="#c3d4dc"/><circle cx="263.88" cy="247.65" fill="#6f7f88" r="7.47"/><path d="m262.94 384.15a5.84 5.84 0 1 1 -5.84 5.85 5.85 5.85 0 0 1 5.84-5.85z" fill="#d4eded"/><path d="m249.64 405.66h12.56v26.74h-12.56z" fill="#e6ecf0"/><path d="m237.94 405.66h11.69v26.74h-11.69z" fill="#c3d4dc"/><path d="m243.78 384.15a5.84 5.84 0 1 1 -5.84 5.84 5.85 5.85 0 0 1 5.84-5.84z" fill="#d4eded"/><path d="m246 229.42v21.73a24.41 24.41 0 0 1 -24.4 24.4h-6.26v-70.55h6.26a24.4 24.4 0 0 1 24.4 24.42z" fill="#80b4bb"/><path d="m221.63 276.94h-7.63v-73.31h7.66a25.82 25.82 0 0 1 25.79 25.79v21.73a25.82 25.82 0 0 1 -25.82 25.79zm-4.87-2.79h4.87a23 23 0 0 0 23-23v-21.73a23 23 0 0 0 -23-23h-4.87z" fill="#6f7f88"/><path d="m221.32 386.59v17.22a58.23 58.23 0 0 0 -48.94 53.11l-.07.25a31.09 31.09 0 0 0 -16.86-.09l-.1-.34a75.5 75.5 0 0 1 65.97-70.15z" fill="#e6ecf0"/><path d="m195.1 487.35a31.38 31.38 0 0 1 -13.82 26 8.53 8.53 0 0 1 -9.55-14.14 14.32 14.32 0 1 0 -17.25-.92 8.53 8.53 0 1 1 -11 13 31.38 31.38 0 0 1 12-54.25 31.09 31.09 0 0 1 16.86.09 31.4 31.4 0 0 1 22.76 30.22z" fill="#80b4bb"/><g fill="#6f7f88"><path d="m394.17 321.93h-29.17a1.4 1.4 0 0 1 0-2.79h29.13a29.1 29.1 0 0 0 29.07-29.07v-107.95a29.1 29.1 0 0 0 -29.07-29.07h-148.3a29.1 29.1 0 0 0 -29.07 29.07v22.88a1.4 1.4 0 0 1 -2.79 0v-22.88a31.89 31.89 0 0 1 31.86-31.86h148.34a31.89 31.89 0 0 1 31.83 31.86v108a31.89 31.89 0 0 1 -31.83 31.81z"/><path d="m275 321.93h-29.17a31.89 31.89 0 0 1 -31.83-31.86v-14.52a1.4 1.4 0 1 1 2.79 0v14.52a29.1 29.1 0 0 0 29.07 29.07h29.14a1.4 1.4 0 0 1 0 2.79z"/><path d="m365 337.71h-90a9.28 9.28 0 0 1 -6.57-15.85 9.2 9.2 0 0 1 6.57-2.72h90a9.29 9.29 0 1 1 0 18.57zm-90-15.78a6.5 6.5 0 1 0 0 13h90a6.5 6.5 0 1 0 0-13z"/><path d="m365 353.53h-90a9.3 9.3 0 0 1 0-18.59h90a9.31 9.31 0 0 1 9.3 9.29 9.32 9.32 0 0 1 -9.3 9.3zm-90-15.8a6.51 6.51 0 1 0 0 13h90a6.51 6.51 0 1 0 0-13z"/><path d="m365 369.34a1.4 1.4 0 0 1 0-2.79 6.51 6.51 0 1 0 0-13h-90a6.51 6.51 0 1 0 0 13 1.4 1.4 0 0 1 0 2.79 9.31 9.31 0 0 1 -9.3-9.29 9.32 9.32 0 0 1 9.3-9.3h90a9.31 9.31 0 0 1 9.3 9.3 9.34 9.34 0 0 1 -9.3 9.29z"/><path d="m381.4 152.88h-45.51a1.4 1.4 0 1 1 0-2.79h44.11v-53c0-14.47-6.22-28.08-17.51-38.32a63 63 0 0 0 -42.49-15.98c-33.08 0-60 24.34-60 54.26v53h48.49a1.4 1.4 0 1 1 0 2.79h-49.89a1.39 1.39 0 0 1 -1.39-1.39v-54.4c0-31.46 28.17-57 62.79-57a65.79 65.79 0 0 1 44.36 16.66c11.89 10.78 18.43 25.12 18.43 40.39v54.44a1.39 1.39 0 0 1 -1.39 1.34z"/><path d="m273.24 451.78h-42.24a11.12 11.12 0 0 1 -11.12-11.1v-63a11.12 11.12 0 0 1 11.12-11.13h178a11.12 11.12 0 0 1 11.12 11.1v8.09a1.4 1.4 0 0 1 -2.79 0v-8.09a8.33 8.33 0 0 0 -8.33-8.31h-178a8.33 8.33 0 0 0 -8.33 8.31v63a8.33 8.33 0 0 0 8.33 8.35h42.2a1.4 1.4 0 0 1 0 2.79z"/><path d="m409 451.78h-42.2a1.4 1.4 0 0 1 0-2.79h42.2a8.33 8.33 0 0 0 8.33-8.31v-8.28a1.4 1.4 0 1 1 2.79 0v8.28a11.12 11.12 0 0 1 -11.12 11.1z"/><path d="m221.63 276.94h-6.26a1.4 1.4 0 1 1 0-2.79h6.26a23 23 0 0 0 23-23v-21.73a23 23 0 0 0 -23-23h-6.26a1.4 1.4 0 1 1 0-2.79h6.26a25.82 25.82 0 0 1 25.79 25.79v21.73a25.82 25.82 0 0 1 -25.79 25.79z"/><path d="m424.73 276.94h-6.28a25.81 25.81 0 0 1 -25.77-25.79v-21.73a25.81 25.81 0 0 1 25.77-25.79h6.19a1.44 1.44 0 0 1 1.44 1.4 1.35 1.35 0 0 1 -1.35 1.39h-6.28a23 23 0 0 0 -23 23v21.73a23 23 0 0 0 23 23h6.19a1.43 1.43 0 0 1 1.44 1.4 1.35 1.35 0 0 1 -1.35 1.39z"/><path d="m243.78 397.22a7.24 7.24 0 1 1 7.22-7.22 7.24 7.24 0 0 1 -7.22 7.22zm0-11.68a4.45 4.45 0 1 0 4.46 4.45 4.44 4.44 0 0 0 -4.46-4.45z"/><path d="m262.94 397.22a7.24 7.24 0 1 1 7.25-7.23 7.25 7.25 0 0 1 -7.25 7.23zm0-11.68a4.45 4.45 0 1 0 4.46 4.46 4.45 4.45 0 0 0 -4.46-4.46z"/><path d="m282.09 397.22a7.24 7.24 0 1 1 7.25-7.23 7.25 7.25 0 0 1 -7.25 7.23zm0-11.68a4.45 4.45 0 1 0 4.46 4.45 4.44 4.44 0 0 0 -4.46-4.45z"/><path d="m288 433.8h-50a1.4 1.4 0 0 1 -1.39-1.4v-26.74a1.4 1.4 0 0 1 1.39-1.4h50a1.4 1.4 0 0 1 1.39 1.4v26.74a1.4 1.4 0 0 1 -1.39 1.4zm-48.66-2.8h47.21v-23.95h-47.21z"/><path d="m249.64 433.8a1.4 1.4 0 0 1 -1.4-1.4v-26.74a1.4 1.4 0 1 1 2.79 0v26.74a1.4 1.4 0 0 1 -1.39 1.4z"/><path d="m262.2 433.8a1.4 1.4 0 0 1 -1.4-1.4v-26.74a1.4 1.4 0 1 1 2.79 0v26.74a1.4 1.4 0 0 1 -1.39 1.4z"/><path d="m274.76 433.8a1.4 1.4 0 0 1 -1.4-1.4v-26.74a1.4 1.4 0 1 1 2.79 0v26.74a1.4 1.4 0 0 1 -1.39 1.4z"/><path d="m418.68 433.8h-101a11.5 11.5 0 0 1 -11.49-11.47v-26.51a11.5 11.5 0 0 1 11.49-11.48h101a1.4 1.4 0 1 1 0 2.79h-101a8.7 8.7 0 0 0 -8.69 8.69v26.51a8.69 8.69 0 0 0 8.71 8.67h101a1.4 1.4 0 0 1 0 2.8z"/><path d="m344.4 489.81h-48.8a23.79 23.79 0 0 1 -23.76-23.76v-15.66a1.4 1.4 0 0 1 1.4-1.4h93.52a1.4 1.4 0 0 1 1.4 1.4v15.66a23.79 23.79 0 0 1 -23.76 23.76zm-69.77-38v14.27a21 21 0 0 0 21 21h48.8a21 21 0 0 0 21-21v-14.3z"/><path d="m172.38 458.32h-.1a1.41 1.41 0 0 1 -1.29-1.5 59.52 59.52 0 0 1 50.1-54.39 1.4 1.4 0 0 1  .46 2.76 56.73 56.73 0 0 0 -47.78 51.81 1.39 1.39 0 0 1 -1.39 1.32z"/><path d="m155.35 458.14h-.09a1.4 1.4 0 0 1 -1.31-1.48 77 77 0 0 1 67.19-71.45 1.41 1.41 0 0 1 1.56 1.21 1.38 1.38 0 0 1 -1.2 1.56 74.18 74.18 0 0 0 -64.76 68.85 1.39 1.39 0 0 1 -1.39 1.31z"/><path d="m176.52 516.22a9.92 9.92 0 0 1 -5.52-18.15 12.93 12.93 0 1 0 -15.57-.84 9.92 9.92 0 1 1 -12.8 15.17 32.78 32.78 0 1 1 39.48 2.12 10 10 0 0 1 -5.59 1.7zm-12.79-44.61a15.73 15.73 0 0 1 8.78 28.77 7.17 7.17 0 0 0 -3 4.56 7.06 7.06 0 0 0 1.1 5.34 7.28 7.28 0 0 0 9.9 1.92 30 30 0 0 0 -8.57-53.69 30 30 0 0 0 -27.54 51.75 7.16 7.16 0 0 0 10.06-.85 7.13 7.13 0 0 0 -.86-10 15.74 15.74 0 0 1 10.15-27.76z"/><path d="m467.62 458.32a1.39 1.39 0 0 1 -1.39-1.29 56.74 56.74 0 0 0 -47.77-51.84 1.4 1.4 0 1 1  .45-2.76 59.52 59.52 0 0 1 50.09 54.39 1.4 1.4 0 0 1 -1.29 1.5z"/><path d="m484.67 458.14a1.4 1.4 0 0 1 -1.4-1.32 74.2 74.2 0 0 0 -64.76-68.82 1.38 1.38 0 0 1 -1.21-1.56 1.42 1.42 0 0 1 1.56-1.21 77 77 0 0 1 67.2 71.45 1.39 1.39 0 0 1 -1.31 1.48z"/><path d="m463.5 516.22a10 10 0 0 1 -5.55-1.7 32.77 32.77 0 1 1 39.47-2.12 9.92 9.92 0 1 1 -12.8-15.17 12.94 12.94 0 1 0 -15.57.84 9.93 9.93 0 0 1 -5.55 18.15zm12.79-58.87a29.09 29.09 0 0 0 -8.21 1.16 30 30 0 0 0 -8.56 53.7 7.29 7.29 0 0 0 9.89-1.93 7.13 7.13 0 0 0 -1.91-9.9 15.71 15.71 0 1 1 18.93-1 7.13 7.13 0 1 0 9.2 10.89 30 30 0 0 0 -11.42-51.83 29 29 0 0 0 -7.92-1.09z"/><path d="m322.43 280.89a25.25 25.25 0 0 1 -20.95-11.14 25.29 25.29 0 0 1 -4.32-14.14 1.4 1.4 0 0 1 1.4-1.4h47.74a1.4 1.4 0 0 1 1.4 1.4 25.24 25.24 0 0 1 -25.27 25.28zm-18.63-12.7a22.47 22.47 0 0 0 41.06-11.19h-44.86a22.34 22.34 0 0 0 3.8 11.18z"/><path d="m327.6 280.17h-.15a1.4 1.4 0 0 1 -1.24-1.54 12.34 12.34 0 0 0 0-3 12 12 0 0 0 -21.2-6 1.4 1.4 0 0 1 -2.16-1.78 14.83 14.83 0 0 1 26.15 11.07 1.4 1.4 0 0 1 -1.4 1.25z"/><path d="m335.89 152.88h-27.4a1.4 1.4 0 0 1 -1.4-1.39v-15.26a33.87 33.87 0 0 1 -5-2.65 33.3 33.3 0 1 1 37.26-.93c-.67.47-1.35.92-2.05 1.34v17.5a1.39 1.39 0 0 1 -1.41 1.39zm-26-2.79h24.6v-16.89a1.39 1.39 0 0 1  .69-1.2c.86-.51 1.7-1 2.52-1.63a30.52 30.52 0 1 0 -34.13.86 31.86 31.86 0 0 0 5.43 2.77 1.4 1.4 0 0 1  .89 1.3z"/><path d="m321.88 141.71a1.39 1.39 0 0 1 -1.4-1.39v-32.77a1.4 1.4 0 0 1 2.79 0v32.77a1.39 1.39 0 0 1 -1.39 1.39z"/><path d="m314.33 114.33a8.95 8.95 0 1 1 8.94-8.94 8.95 8.95 0 0 1 -8.94 8.94zm0-15.1a6.16 6.16 0 1 0 6.15 6.16 6.17 6.17 0 0 0 -6.15-6.16z"/><path d="m329.42 114.33a8.95 8.95 0 1 1 8.94-8.94 8.95 8.95 0 0 1 -8.94 8.94zm0-15.1a6.16 6.16 0 1 0 6.15 6.16 6.17 6.17 0 0 0 -6.15-6.16z"/><path d="m335.89 142.21h-27.4a1.4 1.4 0 1 1 0-2.79h27.4a1.4 1.4 0 0 1 0 2.79z"/><path d="m320 64.62a1.4 1.4 0 0 1 -1.4-1.4v-7.64a1.4 1.4 0 1 1 2.8 0v7.64a1.4 1.4 0 0 1 -1.4 1.4z"/><path d="m300.89 69a1.41 1.41 0 0 1 -1.26-.79l-3.34-6.87a1.4 1.4 0 0 1 2.52-1.22l3.34 6.88a1.4 1.4 0 0 1 -.65 1.86 1.33 1.33 0 0 1 -.61.14z"/><path d="m338.88 68.91a1.46 1.46 0 0 1 -.6-.14 1.39 1.39 0 0 1 -.65-1.86l3.29-6.91a1.4 1.4 0 0 1 2.52 1.2l-3.3 6.89a1.39 1.39 0 0 1 -1.26.82z"/><path d="m286.88 79.84a1.37 1.37 0 0 1 -.91-.34l-5.8-5a1.41 1.41 0 0 1 -.15-2 1.39 1.39 0 0 1 2-.15l5.8 5a1.4 1.4 0 0 1 -.91 2.46z"/><path d="m351.69 78.24a1.39 1.39 0 0 1 -1-2.41l5.55-5.25a1.39 1.39 0 1 1 1.92 2l-5.55 5.26a1.38 1.38 0 0 1 -.92.4z"/></g><path d="m335.36 42.91a67.69 67.69 0 0 0 -14.21-1.52c-33.91 0-61.4 24.92-61.4 55.66v54.44h28.42v-54.44c0-26.3 20.13-48.33 47.19-54.14z" opacity=".08"/><path d="m251.66 290.06v-107.94a30.56 30.56 0 0 1 30.47-30.46h-36.3a30.56 30.56 0 0 0 -30.47 30.46v107.94a30.56 30.56 0 0 0 30.47 30.47h36.3a30.56 30.56 0 0 1 -30.47-30.47z" opacity=".08"/><path d="m252 440.68v-63a9.72 9.72 0 0 1 9.72-9.72h-30.72a9.72 9.72 0 0 0 -9.71 9.72v63a9.71 9.71 0 0 0 9.71 9.71h30.72a9.72 9.72 0 0 1 -9.72-9.71z" opacity=".08"/><path d="m301.16 466.05v-15.66h-27.92v15.66a22.37 22.37 0 0 0 22.37 22.36h27.92a22.37 22.37 0 0 1 -22.37-22.36z" opacity=".08"/><path d="m292.19 328.42a7.92 7.92 0 0 1 7.9-7.89h-25.09a7.9 7.9 0 1 0 0 15.79h25.13a7.93 7.93 0 0 1 -7.94-7.9z" opacity=".08"/><path d="m292.29 344.21a7.91 7.91 0 0 1 7.89-7.89h-25.13a7.9 7.9 0 0 0 0 15.79h25.13a7.91 7.91 0 0 1 -7.89-7.9z" opacity=".08"/><path d="m293.2 360.16a7.92 7.92 0 0 1 7.89-7.9h-25.09a7.9 7.9 0 0 0 0 15.79h25.13a7.91 7.91 0 0 1 -7.93-7.89z" opacity=".08"/><ellipse cx="323.53" cy="552.18" opacity=".08" rx="67.6" ry="12.82"/><path d="m418.69 438.28a1.4 1.4 0 0 1 -1.4-1.4v-59.22a1.4 1.4 0 1 1 2.79 0v59.22a1.4 1.4 0 0 1 -1.39 1.4z" fill="#6f7f88"/><path d="m0 0h640v605h-640z" fill="none"/></svg>