<svg viewBox="0 0 640 605" xmlns="http://www.w3.org/2000/svg"><path d="m499.43 444.63a32.47 32.47 0 0 1 -11.55 24.86 8.83 8.83 0 0 1 -11.4-13.5 14.85 14.85 0 1 0 -17.87 1 8.83 8.83 0 0 1 -4.95 16.15 8.73 8.73 0 0 1 -4.93-1.5 32.51 32.51 0 0 1 9.27-58.27 32.35 32.35 0 0 1 17.49-.09 32.55 32.55 0 0 1 23.94 31.35z" fill="#98b9c7"/><path d="m475.6 412.93-.11.35a32.35 32.35 0 0 0 -17.49.09l-.07-.25a60.31 60.31 0 0 0 -50.69-55v-17.87a78.26 78.26 0 0 1 68.36 72.68z" fill="#f27a6e"/><path d="m433.83 155.51c15.47 0 28 33.91 28 75.75s-12.53 75.74-28 75.74h-231.45c15.48 0 28-33.92 28-75.75s-12.54-75.75-28-75.75h231.45zm-26.59 63.12a7.74 7.74 0 1 0 -7.74 7.74 7.75 7.75 0 0 0 7.74-7.74zm-38.66 8.26h-49.46a24.73 24.73 0 0 0 24.73 24.73 25.22 25.22 0 0 0 5.39-.59 24.74 24.74 0 0 0 19.34-24.14zm-77.66-8.26a7.74 7.74 0 1 0 -7.74 7.74 7.75 7.75 0 0 0 7.74-7.74z" fill="#c3d4dc"/><path d="m407.24 358.09v29.05a56.94 56.94 0 0 1 -56.6 56.93v-.18h-64.83a56.94 56.94 0 0 1 -52.38-56.75v-47.66h33.75v.18h106.3v-.18h33.76zm-72.4 5.3a6.12 6.12 0 1 0 -6.13 6.11 6.12 6.12 0 0 0 6.13-6.11zm-23.16 0a6.11 6.11 0 1 0 -6.11 6.11 6.11 6.11 0 0 0 6.11-6.11zm-21.63-.26a5.86 5.86 0 0 0 -5.84-5.86h-26.57a5.85 5.85 0 1 0 0 11.7h26.57a5.87 5.87 0 0 0 5.84-5.84z" fill="#c3d4dc"/><circle cx="399.5" cy="218.63" fill="#6f7f88" r="7.74"/><path d="m335 58.19 28 28a28 28 0 0 0 -28-28zm16.93 28a16.92 16.92 0 0 0 -16.93-16.92zm-22.2 4.9a7.07 7.07 0 0 0 5.27 2.31 7.26 7.26 0 1 0 -5.27-2.31zm-18.94 40.82a10.12 10.12 0 0 0 -10.11-10.12h-1.68a10.13 10.13 0 0 0 -10.12 10.12v23.6h-30.61v-56.4c0-31.86 28.47-57.66 63.61-57.66a66.81 66.81 0 0 1 45 16.88c11.51 10.44 18.64 24.85 18.64 40.78v56.4h-74.77zm-7.37-15.63a27.58 27.58 0 0 0 39 1.21l1.86-1.45-19.11-20.25-18.74-19.94-1.85 1.43a27.59 27.59 0 0 0 -1.2 39z" fill="#d4eded"/><path d="m267.18 307.01h106.31v32.48h-106.31z" fill="#98b9c7"/><path d="m363 86.19-28-28a28 28 0 0 1 28 28z" fill="#d4eded"/><path d="m351.89 86.19-16.89-16.92a16.92 16.92 0 0 1 16.89 16.92z" fill="#d4eded"/><path d="m350.64 444.07v19.83a18.87 18.87 0 0 1 -18.86 18.86h-27.33a18.86 18.86 0 0 1 -18.86-18.86v-20h .22c1.51.12 3 .18 4.55.18h60.28z" fill="#f27a6e"/><path d="m349.16 247.44a13.9 13.9 0 0 0 -24.49-7l-1.33.25a24.63 24.63 0 0 1 -4.22-13.82h49.46a24.74 24.74 0 0 1 -19.34 24.13v-.15a13.69 13.69 0 0 0 -.08-3.41z" fill="#6f7f88"/><path d="m349.16 247.44a13.69 13.69 0 0 1 0 3.44v.15a25.22 25.22 0 0 1 -5.39.59 24.72 24.72 0 0 1 -20.51-10.91l1.33-.25a13.9 13.9 0 0 1 24.49 7z" fill="#f27a6e"/><path d="m325.17 95.79 19.05 20.21-1.86 1.45a27.59 27.59 0 0 1 -37.78-40.21l1.85-1.43z" fill="#7fb5bc"/><path d="m335 79a7.22 7.22 0 0 1 0 14.43 7.26 7.26 0 0 1 -7.22-7.21 7.23 7.23 0 0 1 7.22-7.22z" fill="#f27a6e"/><path d="m328.71 357.27a6.12 6.12 0 1 1 -6.11 6.12 6.12 6.12 0 0 1 6.11-6.12z" fill="#98b9c7"/><path d="m310.75 131.91v23.6h-21.89v-23.6a10.13 10.13 0 0 1 10.14-10.12h1.66a10.12 10.12 0 0 1 10.09 10.12z" fill="#7fb5bc"/><path d="m305.57 357.27a6.12 6.12 0 1 1 -6.11 6.12 6.11 6.11 0 0 1 6.11-6.12z" fill="#98b9c7"/><circle cx="283.18" cy="218.63" fill="#6f7f88" r="7.74"/><path d="m284.21 357.27a5.85 5.85 0 0 1 0 11.7h-26.57a5.85 5.85 0 0 1 0-11.7z" fill="#98b9c7"/><path d="m246.2 148.37v7.14h-28.09v-7.14a11.66 11.66 0 0 1 11.66-11.66h4.77a11.66 11.66 0 0 1 11.66 11.66z" fill="#98b9c7"/><circle cx="232.15" cy="102.73" fill="#f27a6e" r="8.02"/><path d="m233.43 339.48v17.85h-.67a60.31 60.31 0 0 0 -50.69 55l-.08.24a32.35 32.35 0 0 0 -17.49-.09l-.1-.34a78.29 78.29 0 0 1 68.36-72.7z" fill="#f27a6e"/><path d="m202.38 155.51c15.48 0 28 33.91 28 75.75s-12.52 75.74-28 75.74-28-33.92-28-75.75 12.53-75.74 28-75.74zm15.73 75.75c0-23.48-7-42.5-15.73-42.5s-15.72 19-15.72 42.5 7 42.5 15.72 42.5 15.73-19.03 15.73-42.5z" fill="#98b9c7"/><ellipse cx="202.38" cy="231.26" fill="#e6ecf0" rx="15.72" ry="42.5"/><path d="m205.61 443.88a32.46 32.46 0 0 1 -14.34 26.95 8.7 8.7 0 0 1 -4.93 1.52 8.83 8.83 0 0 1 -5-16.15 14.87 14.87 0 1 0 -17.87-1 8.83 8.83 0 0 1 -11.4 13.5 32.51 32.51 0 0 1 12.38-56.21 32.35 32.35 0 0 1 17.49.09 32.54 32.54 0 0 1 23.67 31.3z" fill="#98b9c7"/><g fill="#6f7f88"><path d="m385.5 157a1.45 1.45 0 0 1 -1.45-1.45v-56.44c0-15-6.45-29.09-18.16-39.71a65.24 65.24 0 0 0 -44-16.51c-34.28 0-62.16 25.22-62.16 56.22v56.4a1.45 1.45 0 0 1 -2.9 0v-56.4c-.01-32.59 29.17-59.11 65.05-59.11a68.08 68.08 0 0 1 45.95 17.26c12.33 11.18 19.11 26 19.11 41.85v56.4a1.44 1.44 0 0 1 -1.44 1.49z"/><path d="m202.38 308.45c-16.52 0-29.46-33.91-29.46-77.19s12.94-77.19 29.46-77.19 29.47 33.9 29.47 77.19-12.95 77.19-29.47 77.19zm0-151.49c-14.4 0-26.57 34-26.57 74.3s12.17 74.3 26.57 74.3 26.57-34 26.57-74.3-12.16-74.26-26.57-74.26z"/><path d="m433.83 308.45a1.45 1.45 0 1 1 0-2.89c14.4 0 26.57-34 26.57-74.3s-12.17-74.26-26.57-74.26a1.45 1.45 0 1 1 0-2.89c16.52 0 29.46 33.9 29.46 77.19s-12.94 77.15-29.46 77.15z"/><path d="m433.83 157h-123.08a1.45 1.45 0 0 1 0-2.89h123.08a1.45 1.45 0 1 1 0 2.89z"/><path d="m288.86 157h-42.66a1.45 1.45 0 1 1 0-2.89h42.66a1.45 1.45 0 1 1 0 2.89z"/><path d="m218.11 157h-15.73a1.45 1.45 0 0 1 0-2.89h15.73a1.45 1.45 0 0 1 0 2.89z"/><path d="m433.83 308.45h-60.34a1.45 1.45 0 1 1 0-2.89h60.34a1.45 1.45 0 1 1 0 2.89z"/><path d="m267.18 308.45h-64.8a1.45 1.45 0 0 1 0-2.89h64.8a1.45 1.45 0 0 1 0 2.89z"/><path d="m350.64 445.51h-60.28c-1.57 0-3.12-.05-4.66-.18a58.62 58.62 0 0 1 -53.7-58.19v-47.66a1.43 1.43 0 0 1 1.44-1.44h173.8a1.44 1.44 0 0 1 1.45 1.44v47.66a58.51 58.51 0 0 1 -58.05 58.37zm-115.76-104.58v46.21a55.72 55.72 0 0 0 51.05 55.31c1.46.12 2.94.17 4.43.17h60.27a55.61 55.61 0 0 0 55.17-55.48v-46.21z"/><path d="m373.49 341.11h-106.31a1.45 1.45 0 0 1 -1.45-1.45v-32.66a1.45 1.45 0 0 1 1.45-1.45h106.31a1.44 1.44 0 0 1 1.44 1.45v32.65a1.44 1.44 0 0 1 -1.44 1.46zm-104.87-2.9h103.38v-29.76h-103.38z"/><path d="m284.21 370.42h-26.58a7.3 7.3 0 0 1 0-14.6h26.58a7.31 7.31 0 0 1 7.29 7.31 7.32 7.32 0 0 1 -7.29 7.29zm-26.58-11.71a4.41 4.41 0 0 0 0 8.81h26.58a4.44 4.44 0 0 0 4.4-4.39 4.42 4.42 0 0 0 -4.4-4.42z"/><path d="m305.57 371a7.57 7.57 0 1 1 7.56-7.56 7.57 7.57 0 0 1 -7.56 7.56zm0-12.24a4.67 4.67 0 1 0 4.66 4.68 4.68 4.68 0 0 0 -4.66-4.73z"/><path d="m328.72 371a7.57 7.57 0 1 1 7.56-7.56 7.57 7.57 0 0 1 -7.56 7.56zm0-12.24a4.67 4.67 0 1 0 4.67 4.68 4.68 4.68 0 0 0 -4.67-4.73z"/><path d="m202.38 275.21c-9.63 0-17.17-19.31-17.17-43.95s7.54-43.95 17.17-43.95 17.17 19.31 17.17 43.95-7.55 43.95-17.17 43.95zm0-85c-6.89 0-14.27 16.5-14.27 41.06s7.38 41.06 14.27 41.06 14.28-16.5 14.28-41.06-7.38-41.07-14.28-41.07z"/><path d="m246.2 157h-28.09a1.45 1.45 0 0 1 -1.45-1.45v-7.14a13.12 13.12 0 0 1 13.11-13.1h4.77a13.12 13.12 0 0 1 13.1 13.1v7.14a1.44 1.44 0 0 1 -1.44 1.45zm-26.65-2.89h25.2v-5.7a10.22 10.22 0 0 0 -10.21-10.21h-4.77a10.23 10.23 0 0 0 -10.22 10.21z"/><path d="m232.15 138.16a1.44 1.44 0 0 1 -1.44-1.45v-25.95a1.45 1.45 0 1 1 2.89 0v26a1.45 1.45 0 0 1 -1.45 1.4z"/><path d="m232.15 112.21a9.47 9.47 0 1 1 9.47-9.47 9.48 9.48 0 0 1 -9.47 9.47zm0-16a6.58 6.58 0 1 0 6.58 6.58 6.59 6.59 0 0 0 -6.58-6.63z"/><path d="m343.85 253.07a26.18 26.18 0 0 1 -26.18-26.18 1.45 1.45 0 0 1 1.45-1.45h49.46a1.45 1.45 0 0 1 1.45 1.45 26.19 26.19 0 0 1 -26.18 26.18zm-23.24-24.74a23.09 23.09 0 0 0 3.93 11.57 23.29 23.29 0 0 0 19.31 10.27 23.23 23.23 0 0 0 23.24-21.84z"/><path d="m349.21 252.33h-.15a1.45 1.45 0 0 1 -1.29-1.58 12.8 12.8 0 0 0 0-3.1 12.46 12.46 0 0 0 -22-6.26 1.45 1.45 0 1 1 -2.23-1.84 15.35 15.35 0 0 1 27.05 7.7 16 16 0 0 1 0 3.79 1.45 1.45 0 0 1 -1.38 1.29z"/><path d="m331.78 484.21h-27.33a20.33 20.33 0 0 1 -20.3-20.31v-20a1.43 1.43 0 0 1 1.44-1.44h65.05a1.43 1.43 0 0 1 1.44 1.44v20a20.33 20.33 0 0 1 -20.3 20.31zm-44.78-38.87v18.56a17.43 17.43 0 0 0 17.41 17.41h27.33a17.43 17.43 0 0 0 17.41-17.41v-18.56z"/><path d="m323.52 126.41a29 29 0 0 1 -21.2-9.14 29 29 0 0 1 1.27-41l2-1.52a1.45 1.45 0 0 1 1.94.15l37.79 40.19a1.46 1.46 0 0 1  .39 1.1 1.41 1.41 0 0 1 -.56 1l-1.85 1.45a28.71 28.71 0 0 1 -19.78 7.77zm-19.09-11.12a26.16 26.16 0 0 0 36.94 1.14l.71-.55-35.81-38.08-.8.62a26.16 26.16 0 0 0 -1 36.87z"/><path d="m335 94.85a8.71 8.71 0 0 1 -8.66-8.66 8.66 8.66 0 1 1 8.66 8.66zm0-14.43a5.78 5.78 0 0 0 -5.77 5.77 5.8 5.8 0 0 0 5.77 5.81 5.77 5.77 0 1 0 0-11.53z"/><path d="m325.17 97.23a1.44 1.44 0 0 1 -1.05-2.45l4.52-4.69a1.45 1.45 0 0 1 2.09 2l-4.52 4.7a1.46 1.46 0 0 1 -1.04.44z"/><path d="m351.89 87.63a1.44 1.44 0 0 1 -1.45-1.44 15.5 15.5 0 0 0 -15.44-15.47 1.45 1.45 0 1 1 0-2.9 18.39 18.39 0 0 1 18.37 18.37 1.43 1.43 0 0 1 -1.48 1.44z"/><path d="m363 87.63a1.43 1.43 0 0 1 -1.44-1.44 26.59 26.59 0 0 0 -26.56-26.56 1.45 1.45 0 1 1 0-2.89 29.49 29.49 0 0 1 29.46 29.45 1.44 1.44 0 0 1 -1.46 1.44z"/><path d="m310.75 157h-21.89a1.45 1.45 0 0 1 -1.45-1.45v-23.6a11.58 11.58 0 0 1 11.59-11.61h1.66a11.58 11.58 0 0 1 11.56 11.57v23.6a1.45 1.45 0 0 1 -1.47 1.49zm-20.44-2.89h19v-22.2a8.69 8.69 0 0 0 -8.67-8.68h-1.64a8.69 8.69 0 0 0 -8.67 8.68z"/><path d="m457.93 414.57a1.45 1.45 0 0 1 -1.44-1.34 58.78 58.78 0 0 0 -49.49-53.71 1.45 1.45 0 0 1  .47-2.86 61.68 61.68 0 0 1 51.91 56.34 1.47 1.47 0 0 1 -1.34 1.55z"/><path d="m475.6 414.38a1.45 1.45 0 0 1 -1.45-1.36 76.86 76.86 0 0 0 -67.09-71.34 1.45 1.45 0 0 1  .37-2.87 79.76 79.76 0 0 1 69.61 74 1.43 1.43 0 0 1 -1.35 1.53z"/><path d="m453.66 474.55a10.24 10.24 0 0 1 -5.74-1.75 34 34 0 1 1 40.89-2.2 10.28 10.28 0 0 1 -13.26-15.71 13.41 13.41 0 1 0 -16.13.86 10.28 10.28 0 0 1 -5.76 18.8zm13.25-61a30.46 30.46 0 0 0 -8.5 1.19 31.07 31.07 0 0 0 -8.86 55.64 7.6 7.6 0 0 0 10.25-2 7.4 7.4 0 0 0 -2-10.26 16.3 16.3 0 1 1 19.61-1 7.39 7.39 0 0 0 9.53 11.29 31.05 31.05 0 0 0 -11.83-53.71 30.22 30.22 0 0 0 -8.2-1.13z"/><path d="m182.07 413.82h-.07a1.45 1.45 0 0 1 -1.34-1.54 61.67 61.67 0 0 1 51.9-56.37 1.44 1.44 0 0 1  .47 2.85 58.79 58.79 0 0 0 -49.48 53.73 1.45 1.45 0 0 1 -1.48 1.33z"/><path d="m164.4 413.63h-.09a1.43 1.43 0 0 1 -1.35-1.53 79.78 79.78 0 0 1 69.61-74 1.45 1.45 0 0 1  .37 2.87 76.87 76.87 0 0 0 -67.09 71.35 1.45 1.45 0 0 1 -1.45 1.31z"/><path d="m186.34 473.8a10.28 10.28 0 0 1 -5.76-18.8 13.42 13.42 0 1 0 -16.13-.88 10.29 10.29 0 0 1 -5.76 18.11 10.17 10.17 0 0 1 -7.5-2.4 34 34 0 0 1 31.21-58.61l.19.07a33.95 33.95 0 0 1 9.49 60.71 10.14 10.14 0 0 1 -5.74 1.8zm-13.25-46.22a16.3 16.3 0 0 1 9.11 29.82 7.39 7.39 0 0 0 -2 10.26 7.58 7.58 0 0 0 10.24 2 31.05 31.05 0 0 0 -8.84-55.66l-.2-.07a31.07 31.07 0 0 0 -28.35 53.68 7.39 7.39 0 0 0 10.41-.87 7.4 7.4 0 0 0 -.88-10.42 16.29 16.29 0 0 1 10.51-28.75z"/></g><path d="m335.06 43a70.33 70.33 0 0 0 -14.72-1.57c-35.13 0-63.61 25.82-63.61 57.67v56.4h29.44v-56.39c0-27.25 20.83-50.11 48.89-56.11z" opacity=".08"/><path d="m267.18 307h38.39v32.65h-38.39z" opacity=".08"/><path d="m268.15 387.13v-47.64h-34.72v47.64a56.93 56.93 0 0 0 56.93 56.93h34.72a56.93 56.93 0 0 1 -56.93-56.93z" opacity=".08"/><path d="m308.74 463.9v-20h-23.15v20a18.85 18.85 0 0 0 18.86 18.85h23.15a18.85 18.85 0 0 1 -18.86-18.85z" opacity=".08"/><path d="m268 231.26c0-41.84-12.54-75.75-28-75.75h-37.61c15.47 0 28 33.91 28 75.75s-12.53 75.74-28 75.74h37.61c15.47 0 28-33.91 28-75.74z" opacity=".08"/><ellipse cx="202.39" cy="231.26" opacity=".08" rx="28.01" ry="75.75"/><ellipse cx="316.71" cy="551.72" opacity=".08" rx="70.04" ry="13.28"/><path d="m0 0h640v605h-640z" fill="none"/></svg>