<svg viewBox="0 0 640 605" xmlns="http://www.w3.org/2000/svg"><path d="m433.92 248.71v11a61.38 61.38 0 0 1 -1 10.84h-18.06a18.07 18.07 0 0 1 0-36.13h18.14a117.37 117.37 0 0 1  .92 14.29z" fill="#7fb5bc"/><path d="m433 234.46h-18.14a18.07 18.07 0 1 0 0 36.13h18.14a60.54 60.54 0 0 1 -59.56 49.69h-104.44a60.54 60.54 0 0 1 -59.56-49.69h18.09a18.07 18.07 0 0 0 0-36.13h-18.18a112.71 112.71 0 0 1 48.13-78.77h127.43a114.47 114.47 0 0 1 16 13.29 112.55 112.55 0 0 1 32.09 65.48zm-46.3 20.34a7.76 7.76 0 1 0 -7.76 7.75 7.77 7.77 0 0 0 7.8-7.75zm-116.5 0a7.76 7.76 0 1 0 -7.76 7.75 7.76 7.76 0 0 0 7.8-7.75z" fill="#c3d4dc"/><path d="m410.49 344.92v46.36a56.5 56.5 0 0 1 -56.49 56.51h-61.07a56.51 56.51 0 0 1 -56.5-56.51v-46.36zm-15.13 43.22a5.57 5.57 0 0 0 -5.56-5.56h-24.58a5.58 5.58 0 0 0 -3.93 1.63 5.49 5.49 0 0 0 -1.64 3.93 5.59 5.59 0 0 0 5.57 5.57h24.58a5.58 5.58 0 0 0 5.56-5.57zm-.63-19.94a5.58 5.58 0 0 0 -5.57-5.57h-24.58a5.52 5.52 0 0 0 -3.93 1.63 5.56 5.56 0 0 0 3.93 9.5h24.58a5.6 5.6 0 0 0 5.57-5.56z" fill="#c3d4dc"/><path d="m389.8 382.58a5.57 5.57 0 0 1 0 11.13h-24.58a5.59 5.59 0 0 1 -5.57-5.57 5.49 5.49 0 0 1 1.64-3.93 5.58 5.58 0 0 1 3.93-1.63z" fill="#d4eded"/><path d="m389.16 362.63a5.57 5.57 0 0 1 0 11.13h-24.58a5.56 5.56 0 0 1 -3.93-9.5 5.52 5.52 0 0 1 3.93-1.63z" fill="#d4eded"/><circle cx="378.98" cy="254.8" fill="#6f7f88" r="7.76"/><path d="m384.91 99.2v56.49a112.71 112.71 0 0 0 -127.41 0v-56.49c0-31.89 28.52-57.75 63.71-57.75a66.94 66.94 0 0 1 45.05 16.91c11.51 10.46 18.65 24.91 18.65 40.84z" fill="#d4eded"/><path d="m384.89 155.69h-127.41a112.71 112.71 0 0 1 127.41 0z" fill="#d4eded"/><path d="m376.77 320.28v24.56h-106.3v-24.56h102.92z" fill="#f27a6e"/><path d="m351.39 448v20.91a17.34 17.34 0 0 1 -17.34 17.33h-21.19a17.32 17.32 0 0 1 -17.32-17.33v-20.91z" fill="#f27a6e"/><circle cx="262.48" cy="254.8" fill="#6f7f88" r="7.76"/><path d="m227.53 234.46a18.07 18.07 0 0 1 0 36.13h-18.09a61.38 61.38 0 0 1 -1-10.84v-11a117.37 117.37 0 0 1  .88-14.25z" fill="#7fb5bc"/><path d="m236.43 344.92v17.71c-30.7 1.56-55.49 25.31-57.7 55.85l-.08.25a32.42 32.42 0 0 0 -17.51-.09l-.11-.35a78.44 78.44 0 0 1 75.4-73.37z" fill="#7fb5bc"/><path d="m202.31 450.05a32.54 32.54 0 0 1 -14.37 27 8.84 8.84 0 1 1 -9.89-14.66 14.88 14.88 0 1 0 -17.9-1 8.85 8.85 0 0 1 -11.41 13.52 32.55 32.55 0 0 1 12.4-56.3 32.42 32.42 0 0 1 17.51.09 32.62 32.62 0 0 1 23.66 31.35z" fill="#f27a6e"/><g fill="#6f7f88"><path d="m373.39 321.73a1.45 1.45 0 1 1 0-2.9 59 59 0 0 0 58.13-48.5 59.72 59.72 0 0 0 1-10.58v-11a115.27 115.27 0 0 0 -.87-14.07 111.76 111.76 0 0 0 -31.77-64.68 112.93 112.93 0 0 0 -15.79-13.11 1.45 1.45 0 1 1 1.64-2.39 114.18 114.18 0 0 1 48.74 79.78 117.2 117.2 0 0 1  .9 14.43v11a62 62 0 0 1 -62 62z"/><path d="m270.47 321.73h-1.47a62 62 0 0 1 -62-62v-11a117.2 117.2 0 0 1  .9-14.43 114.22 114.22 0 0 1 48.74-79.78 1.45 1.45 0 1 1 1.64 2.39 111.32 111.32 0 0 0 -47.51 77.75 115.27 115.27 0 0 0 -.87 14.07v11a59.72 59.72 0 0 0 1 10.58 59 59 0 0 0 58.1 48.52h1.47a1.45 1.45 0 1 1 0 2.9z"/><path d="m227.53 272h-18.09a1.52 1.52 0 0 1 -1.53-1.45 1.37 1.37 0 0 1 1.35-1.45h18.27a16.62 16.62 0 0 0 0-33.23h-18.18a1.45 1.45 0 0 1 0-2.9h18.18a19.52 19.52 0 0 1 0 39z"/><path d="m433.17 272h-18.31a19.52 19.52 0 0 1 0-39h18.14a1.45 1.45 0 0 1 0 2.9h-18.14a16.62 16.62 0 1 0 0 33.23h18.14a1.55 1.55 0 0 1 1.56 1.45 1.36 1.36 0 0 1 -1.39 1.42z"/><path d="m376.77 346.29h-106.3a1.45 1.45 0 0 1 -1.45-1.45v-24.56a1.45 1.45 0 0 1 1.45-1.45h106.3a1.45 1.45 0 0 1 1.45 1.45v24.56a1.45 1.45 0 0 1 -1.45 1.45zm-104.85-2.9h103.4v-21.66h-103.4z"/><path d="m178.73 419.93h-.11a1.45 1.45 0 0 1 -1.34-1.54c2.25-31 27.64-55.6 59.07-57.2a1.45 1.45 0 0 1  .15 2.89c-30 1.53-54.19 25-56.33 54.51a1.44 1.44 0 0 1 -1.44 1.34z"/><path d="m161 419.74h-.1a1.44 1.44 0 0 1 -1.35-1.53 79.67 79.67 0 0 1 76.78-74.73c1.08-.06 2.18-.08 3.28-.08h29.79a1.45 1.45 0 0 1 0 2.9h-29.75c-1.05 0-2.09 0-3.14.07a76.8 76.8 0 0 0 -74 72 1.45 1.45 0 0 1 -1.51 1.37z"/><path d="m183 480a10.29 10.29 0 0 1 -5.76-18.83 13.44 13.44 0 1 0 -16.16-.88 10.3 10.3 0 0 1 -13.28 15.74 34 34 0 1 1 40.95 2.2 10.19 10.19 0 0 1 -5.75 1.77zm-13.27-46.3a16.33 16.33 0 0 1 9.13 29.87 7.39 7.39 0 0 0 -2 10.27 7.6 7.6 0 0 0 10.27 2 31.11 31.11 0 0 0 -8.87-55.72 31.11 31.11 0 0 0 -28.58 53.71 7.4 7.4 0 1 0 9.54-11.31 16.32 16.32 0 0 1 10.52-28.8z"/><path d="m384.91 157.14h-127.43a1.45 1.45 0 0 1 -1.45-1.45v-56.49c-.03-32.64 29.24-59.2 65.17-59.2a68.14 68.14 0 0 1 46 17.29c12.35 11.19 19.15 26.08 19.15 41.91v56.49a1.45 1.45 0 0 1 -1.44 1.45zm-126-2.9h124.55v-55c0-15-6.46-29.13-18.19-39.77a65.31 65.31 0 0 0 -44.07-16.57c-34.34 0-62.27 25.26-62.27 56.3z"/><path d="m354 449.24h-61.07a58 58 0 0 1 -58-58v-46.32a1.45 1.45 0 0 1 1.45-1.45h174.11a1.45 1.45 0 0 1 1.45 1.45v46.36a58 58 0 0 1 -57.94 57.96zm-116.13-102.87v44.91a55.13 55.13 0 0 0 55.06 55.07h61.07a55.12 55.12 0 0 0 55-55.07v-44.91z"/><path d="m389.16 375.21h-24.59a7 7 0 0 1 -4.95-12 6.86 6.86 0 0 1 4.95-2.07h24.59a7 7 0 0 1 0 14zm-24.59-11.14a4 4 0 0 0 -2.88 1.21 4.11 4.11 0 0 0 2.88 7h24.59a4.14 4.14 0 0 0 2.91-1.21 4.08 4.08 0 0 0 1.21-2.9 4.14 4.14 0 0 0 -4.12-4.13z"/><path d="m389.8 395.16h-24.58a7 7 0 0 1 -7-7 6.94 6.94 0 0 1 2.07-4.95 7 7 0 0 1 5-2.05h24.51a7 7 0 0 1 0 14zm-24.58-11.16a4.19 4.19 0 0 0 -2.92 1.22 4.07 4.07 0 0 0 -1.2 2.89 4.13 4.13 0 0 0 4.12 4.13h24.58a4.12 4.12 0 0 0 0-8.24z"/><path d="m334.05 487.7h-21.19a18.79 18.79 0 0 1 -18.77-18.78v-20.92a1.44 1.44 0 0 1 1.45-1.44h55.85a1.44 1.44 0 0 1 1.45 1.44v20.91a18.8 18.8 0 0 1 -18.79 18.79zm-37.05-38.24v19.46a15.89 15.89 0 0 0 15.87 15.88h21.19a15.9 15.9 0 0 0 15.89-15.88v-19.46z"/></g><path d="m236.23 265v-15.45a112.52 112.52 0 0 1 50.33-93.85h-29.56a112.59 112.59 0 0 0 -50.28 93.85v15.45c0 33.43 27.1 56.11 60.53 56.11h29.49c-33.41.02-60.51-22.66-60.51-56.11z" opacity=".08"/><path d="m270.24 321.13h32.22v22.97h-32.22z" opacity=".08"/><path d="m336.61 42.68a70 70 0 0 0 -14.75-1.58c-35.19 0-63.71 25.86-63.71 57.76v56.49h29.49v-56.49c0-27.29 20.89-50.15 48.97-56.18z" opacity=".08"/><path d="m313 471.76v-24h-17.7v24a14.23 14.23 0 0 0 14.27 14.24h17.69a14.23 14.23 0 0 1 -14.26-14.24z" opacity=".08"/><path d="m265.32 388.14v-41.85h-29.49v41.85a61 61 0 0 0 61 61h29.49a61 61 0 0 1 -61-61z" opacity=".08"/><path d="m295.58 263.06h49.55a24.77 24.77 0 0 1 -19.38 24.18v-.15a14.25 14.25 0 0 0 0-3.45 13.91 13.91 0 0 0 -15.75-11.89 13.75 13.75 0 0 0 -8.84 4.92l-1.32.24a24.76 24.76 0 0 1 -4.26-13.85z" fill="#6f7f88"/><path d="m325.68 283.64a14.25 14.25 0 0 1 0 3.45v.15a24.82 24.82 0 0 1 -25.94-10.33l1.32-.24a13.75 13.75 0 0 1 8.84-4.92 13.91 13.91 0 0 1 15.78 11.89z" fill="#f27a6e"/><path d="m320.35 289.28a26.22 26.22 0 0 1 -21.74-11.56 26.11 26.11 0 0 1 -4.48-14.66 1.45 1.45 0 0 1 1.45-1.45h49.55a1.44 1.44 0 0 1 1.44 1.45 26.38 26.38 0 0 1 -20.51 25.6 26.84 26.84 0 0 1 -5.71.62zm-19.35-13.18a23.34 23.34 0 0 0 19.34 10.28 23.26 23.26 0 0 0 23.28-21.87h-46.55a23.3 23.3 0 0 0 3.93 11.59z" fill="#6f7f88"/><path d="m325.72 288.54h-.15a1.46 1.46 0 0 1 -1.29-1.6 12.81 12.81 0 0 0 0-3.1 12.5 12.5 0 0 0 -22-6.25 1.45 1.45 0 1 1 -2.23-1.84 15.38 15.38 0 0 1 27.1 7.7 15.53 15.53 0 0 1  .05 3.8 1.44 1.44 0 0 1 -1.48 1.29z" fill="#6f7f88"/><path d="m354.49 86.27-28.06-28a28.05 28.05 0 0 1 28.06 28z" fill="#d4eded"/><path d="m343.39 86.27-17-17a17 17 0 0 1 17 17z" fill="#d4eded"/><path d="m316.62 95.88 19.07 20.29-1.84 1.44a27.63 27.63 0 0 1 -37.85-40.27l1.84-1.43z" fill="#7fb5bc"/><path d="m326.43 79a7.23 7.23 0 0 1 0 14.45 7.24 7.24 0 0 1 -7.23-7.22 7.24 7.24 0 0 1 7.23-7.23z" fill="#f27a6e"/><path d="m302.19 132.06v23.64h-21.93v-23.64a10.14 10.14 0 0 1 10.13-10.14h1.67a10.14 10.14 0 0 1 10.13 10.14z" fill="#7fb5bc"/><path d="m315 126.55a29.06 29.06 0 0 1 -21.22-9.15 29.11 29.11 0 0 1 1.22-41.11l2-1.52a1.45 1.45 0 0 1 1.94.15l37.83 40.26a1.39 1.39 0 0 1  .39 1.1 1.45 1.45 0 0 1 -.55 1l-1.84 1.44a28.78 28.78 0 0 1 -19.77 7.83zm-19.11-11.14a26.21 26.21 0 0 0 37 1.15l.7-.55-35.89-38.14-.8.62a26.19 26.19 0 0 0 -1 36.92z" fill="#6f7f88"/><path d="m326.43 94.94a8.68 8.68 0 1 1 8.67-8.67 8.64 8.64 0 0 1 -8.67 8.67zm0-14.45a5.79 5.79 0 0 0 -5.78 5.78 5.79 5.79 0 0 0 5.78 5.73 5.78 5.78 0 1 0 0-11.55z" fill="#6f7f88"/><path d="m316.62 97.33a1.45 1.45 0 0 1 -1-2.45l4.51-4.71a1.45 1.45 0 0 1 2.09 2l-4.51 4.7a1.44 1.44 0 0 1 -1.09.46z" fill="#6f7f88"/><path d="m343.39 87.71a1.44 1.44 0 0 1 -1.45-1.44 15.52 15.52 0 0 0 -15.51-15.5 1.45 1.45 0 1 1 0-2.89 18.42 18.42 0 0 1 18.41 18.39 1.44 1.44 0 0 1 -1.45 1.44z" fill="#6f7f88"/><path d="m354.49 87.71a1.44 1.44 0 0 1 -1.49-1.44 26.64 26.64 0 0 0 -26.61-26.6 1.45 1.45 0 1 1 0-2.9 29.54 29.54 0 0 1 29.51 29.5 1.44 1.44 0 0 1 -1.41 1.44z" fill="#6f7f88"/><path d="m302.19 157.15h-21.93a1.45 1.45 0 0 1 -1.45-1.45v-23.64a11.6 11.6 0 0 1 11.58-11.59h1.67a11.6 11.6 0 0 1 11.58 11.59v23.64a1.45 1.45 0 0 1 -1.45 1.45zm-20.48-2.9h19v-22.19a8.69 8.69 0 0 0 -8.68-8.69h-1.67a8.7 8.7 0 0 0 -8.68 8.69z" fill="#6f7f88"/><path d="m336.61 42.68a70 70 0 0 0 -14.75-1.58c-35.19 0-63.71 25.86-63.71 57.76v56.49h29.49v-56.49c0-27.29 20.89-50.15 48.97-56.18z" opacity=".08"/><path d="m502.84 450.84a32.5 32.5 0 0 1 -11.59 24.89 8.84 8.84 0 1 1 -11.41-13.51 14.88 14.88 0 1 0 -17.88 1 8.86 8.86 0 0 1 -5 16.2 8.73 8.73 0 0 1 -4.95-1.54 32.57 32.57 0 0 1 18.22-59.57 32 32 0 0 1 8.58 1.16 32.63 32.63 0 0 1 24.03 31.37z" fill="#f27a6e"/><path d="m479 419.08-.12.35a32 32 0 0 0 -8.58-1.16 32.41 32.41 0 0 0 -8.92 1.24l-.09-.23a60.36 60.36 0 0 0 -50.76-55.11v-17.87a78.4 78.4 0 0 1 68.47 72.78z" fill="#7fb5bc"/><path d="m461.26 420.73a1.44 1.44 0 0 1 -1.44-1.34 58.81 58.81 0 0 0 -49.55-53.79 1.44 1.44 0 0 1 -1.22-1.43v-17.87a1.45 1.45 0 0 1 1.63-1.44 79.88 79.88 0 0 1 69.73 74.14 1.45 1.45 0 0 1 -1.35 1.54 1.43 1.43 0 0 1 -1.54-1.36 77 77 0 0 0 -65.52-71.18v15a61.68 61.68 0 0 1 50.76 56.23 1.45 1.45 0 0 1 -1.34 1.55z" fill="#6f7f88"/><path d="m457 480.82a10.16 10.16 0 0 1 -5.79-1.79 34 34 0 0 1 9.79-60.91 34 34 0 0 1 31.24 58.71 10.09 10.09 0 0 1 -7.48 2.4 10.22 10.22 0 0 1 -7-3.61 10.33 10.33 0 0 1 1.21-14.5 13.43 13.43 0 1 0 -16.13.86 10.31 10.31 0 0 1 -5.84 18.84zm13.26-61.1a31 31 0 0 0 -8.52 1.19 31.13 31.13 0 0 0 -8.89 55.73 7.55 7.55 0 0 0 10.28-2 7.45 7.45 0 0 0 -2-10.27 16.33 16.33 0 1 1 19.63-1.05 7.4 7.4 0 0 0 4.18 13 7.31 7.31 0 0 0 5.36-1.73 31.09 31.09 0 0 0 -11.84-53.79 30.54 30.54 0 0 0 -8.19-1.08z" fill="#6f7f88"/><ellipse cx="323.62" cy="551.7" opacity=".08" rx="70.15" ry="13.3"/><path d="m0 0h640v605h-640z" fill="none"/></svg>