<svg viewBox="0 0 640 605" xmlns="http://www.w3.org/2000/svg"><path d="m499.81 438.92a32.39 32.39 0 0 1 -11.54 24.82 8.82 8.82 0 0 1 -11.38-13.48 14.83 14.83 0 1 0 -17.83 1 8.82 8.82 0 1 1 -9.88 14.61 32.46 32.46 0 0 1 9.26-58.14 32.27 32.27 0 0 1 17.47-.09 32.5 32.5 0 0 1 23.9 31.28z" fill="#f9ac76"/><path d="m476 407.25-.1.36a32.27 32.27 0 0 0 -17.47.09l-.07-.25a60.24 60.24 0 0 0 -50.62-55v-17.35a2 2 0 0 0 0-.43 78.18 78.18 0 0 1 68.26 72.58z" fill="#c3d4dc"/><path d="m444.68 186.43v30.79a6.88 6.88 0 0 1 -6.9 6.88h-16.2v-44.55h16.2a6.89 6.89 0 0 1 6.9 6.88z" fill="#c3d4dc"/><path d="m421.58 224.1v8.9a64.71 64.71 0 0 1 -64.51 64.52h-74.14a64.71 64.71 0 0 1 -64.51-64.52v-47.42a30.31 30.31 0 0 1 30.22-30.23h142.72a30.31 30.31 0 0 1 30.22 30.23zm-37.25-10.29a7.73 7.73 0 1 0 -7.74 7.73 7.74 7.74 0 0 0 7.74-7.73zm-38.59 8.25h-49.4a24.7 24.7 0 0 0 24.66 24.69 25.12 25.12 0 0 0 5.38-.58 24.72 24.72 0 0 0 19.36-24.11zm-77.56-8.25a7.73 7.73 0 1 0 -7.73 7.73 7.74 7.74 0 0 0 7.73-7.73z" fill="#e6ecf0"/><path d="m354.79 345.36h-77a21.43 21.43 0 0 0 -21.36 21.38v32.88a21.44 21.44 0 0 0 21.41 21.38h85.16a21.44 21.44 0 0 0 21.36-21.38v-32.88a21.43 21.43 0 0 0 -21.36-21.38zm53 7.13v78.51a11 11 0 0 1 -11 11h-153.58a11 11 0 0 1 -11-11v-95.9a2.69 2.69 0 0 1 0-.49 10.92 10.92 0 0 1 10.93-10.45h153.65a10.92 10.92 0 0 1 10.93 10.51 2 2 0 0 1 0 .43z" fill="#98b9c7"/><path d="m383.53 99v56.32h-47.1v-18.89c.94-.53 1.85-1.12 2.72-1.73a33 33 0 1 0 -36.93.92 32.57 32.57 0 0 0 5.86 3v16.76h-51.6v-56.38c0-31.8 28.43-57.59 63.53-57.59a66.8 66.8 0 0 1 44.91 16.87c11.5 10.45 18.61 24.84 18.61 40.72z" fill="#d4eded"/><path d="m376.59 206.07a7.74 7.74 0 1 1 -7.71 7.74 7.74 7.74 0 0 1 7.71-7.74z" fill="#6f7f88"/><path d="m370.64 441.91v16.18a23.13 23.13 0 0 1 -23.14 23.14h-50.5a23.14 23.14 0 0 1 -23.14-23.14v-16.18z" fill="#f9ac76"/><path d="m359.61 311.1a6.54 6.54 0 0 1 6.53 6.53 6.56 6.56 0 0 1 -6.53 6.53h-75.34a6.53 6.53 0 0 1 0-13.06z" fill="#c3d4dc"/><path d="m359.1 297.48a6.53 6.53 0 1 1 0 13h-75.36a6.53 6.53 0 1 1 0-13z" fill="#c3d4dc"/><path d="m353 107.78a33 33 0 0 1 -13.88 26.92c-.87.61-1.78 1.2-2.72 1.73v7.9h-28.32v-5.74a32.57 32.57 0 0 1 -5.86-3 33 33 0 1 1 50.78-27.81zm-15.47-.12a7.82 7.82 0 0 0 -15.63 0 7.81 7.81 0 1 0 -7.8 7.81 7.8 7.8 0 0 0 7.8-7.81 7.82 7.82 0 0 0 15.63 0z" fill="#f9ac76"/><path d="m296.34 222.06h49.4a24.72 24.72 0 0 1 -19.32 24.11v-.15a13.68 13.68 0 0 0 -.05-3.44 13.89 13.89 0 0 0 -24.47-7l-1.31.25a24.59 24.59 0 0 1 -4.25-13.77z" fill="#6f7f88"/><path d="m308.08 144.33h28.35v11.03h-28.35z" fill="#98b9c7"/><path d="m329.75 99.85a7.81 7.81 0 1 1 -7.82 7.81 7.81 7.81 0 0 1 7.82-7.81z" fill="#f9ac76"/><path d="m326.34 242.58a13.68 13.68 0 0 1  .05 3.44v.15a25.12 25.12 0 0 1 -5.38.58 24.67 24.67 0 0 1 -20.48-10.89l1.31-.25a13.89 13.89 0 0 1 24.47 7z" fill="#f27a6e"/><circle cx="314.13" cy="107.66" fill="#f9ac76" r="7.81"/><path d="m300.45 419.59v1.41h-22.61a21.44 21.44 0 0 1 -21.36-21.38v-32.88a21.43 21.43 0 0 1 21.36-21.38h22.61zm-8.45-52.93a4.39 4.39 0 0 0 -4.39-4.38h-17.5a4.35 4.35 0 0 0 -3.1 1.3 4.31 4.31 0 0 0 -1.28 3.08 4.39 4.39 0 0 0 4.38 4.37h17.49a4.42 4.42 0 0 0 3.11-1.28 4.35 4.35 0 0 0 1.29-3.09zm0 17.34a4.4 4.4 0 0 0 -4.39-4.39h-17.5a4.38 4.38 0 1 0 0 8.75h17.49a4.46 4.46 0 0 0 3.11-1.28 4.36 4.36 0 0 0 1.29-3.08zm-11 21a4.82 4.82 0 1 0 -4.82 4.82 4.82 4.82 0 0 0 4.82-4.82z" fill="#c3d4dc"/><path d="m287.6 362.28a4.38 4.38 0 1 1 0 8.75h-17.49a4.39 4.39 0 0 1 -4.38-4.37 4.31 4.31 0 0 1 1.28-3.08 4.35 4.35 0 0 1 3.1-1.3z" fill="#98b9c7"/><path d="m287.6 379.61a4.38 4.38 0 0 1 3.11 7.47 4.46 4.46 0 0 1 -3.11 1.28h-17.49a4.38 4.38 0 1 1 0-8.75z" fill="#98b9c7"/><circle cx="276.21" cy="404.96" fill="#98b9c7" r="4.82"/><circle cx="260.45" cy="213.81" fill="#6f7f88" r="7.73"/><path d="m232.28 334.61a2.69 2.69 0 0 0 0 .49v17.35a60.23 60.23 0 0 0 -50.62 54.95l-.07.24a32.27 32.27 0 0 0 -17.47-.09l-.1-.34a78.18 78.18 0 0 1 68.26-72.6z" fill="#c3d4dc"/><path d="m218.42 185.58v37.23h-16.2a6.88 6.88 0 0 1 -6.88-6.89v-30.78a6.89 6.89 0 0 1 6.88-6.9h16.2z" fill="#c3d4dc"/><path d="m205.14 438.86a32.41 32.41 0 0 1 -14.32 26.92 8.69 8.69 0 0 1 -4.92 1.52 8.82 8.82 0 0 1 -4.9-16.13 14.85 14.85 0 1 0 -17.85-1 8.82 8.82 0 0 1 -11.38 13.48 32.46 32.46 0 0 1 12.36-56.13 32.27 32.27 0 0 1 17.47.09 32.48 32.48 0 0 1 23.54 31.25z" fill="#f9ac76"/><path d="m357.07 298.92a1.45 1.45 0 0 1 0-2.89 63.14 63.14 0 0 0 63.07-63.03v-8.9a1.45 1.45 0 0 1 2.89 0v8.9a66 66 0 0 1 -65.96 65.92z" fill="#6f7f88"/><path d="m421.58 187a1.43 1.43 0 0 1 -1.44-1.44 28.81 28.81 0 0 0 -28.78-28.78h-7.83a1.45 1.45 0 0 1 0-2.89h7.83a31.71 31.71 0 0 1 31.64 31.69 1.44 1.44 0 0 1 -1.42 1.42z" fill="#6f7f88"/><path d="m218.42 187a1.44 1.44 0 0 1 -1.45-1.44 31.71 31.71 0 0 1 31.67-31.67h7.84a1.45 1.45 0 0 1 0 2.89h-7.84a28.81 28.81 0 0 0 -28.78 28.78 1.43 1.43 0 0 1 -1.44 1.44z" fill="#6f7f88"/><path d="m283.74 298.92h-.81a66 66 0 0 1 -66-66v-10.11a1.45 1.45 0 1 1 2.89 0v10.19a63.14 63.14 0 0 0 63.11 63h .81a1.45 1.45 0 0 1 0 2.89z" fill="#6f7f88"/><path d="m383.53 156.8h-47.1a1.45 1.45 0 1 1 0-2.89h45.66v-54.91c0-15-6.44-29-18.14-39.65a65.16 65.16 0 0 0 -43.95-16.46c-34.24 0-62.09 25.18-62.09 56.14v54.88h50.16a1.45 1.45 0 1 1 0 2.89h-51.6a1.44 1.44 0 0 1 -1.44-1.45v-56.35c0-32.55 29.14-59 65-59a68 68 0 0 1 45.88 17.23c12.29 11.17 19.09 26.01 19.09 41.77v56.32a1.45 1.45 0 0 1 -1.47 1.48z" fill="#6f7f88"/><path d="m336.43 156.8h-28.35a1.45 1.45 0 0 1 -1.44-1.45v-15.78a34.48 34.48 0 1 1 33.35-3.7c-.68.49-1.39 1-2.12 1.39v18.09a1.44 1.44 0 0 1 -1.44 1.45zm-26.9-2.89h25.47v-17.48a1.47 1.47 0 0 1  .74-1.26 26.46 26.46 0 0 0 2.59-1.65 31.58 31.58 0 1 0 -35.31.89 32 32 0 0 0 5.6 2.84 1.44 1.44 0 0 1  .93 1.34z" fill="#6f7f88"/><path d="m321.93 145.26a1.44 1.44 0 0 1 -1.44-1.45v-33.91a1.45 1.45 0 1 1 2.89 0v33.91a1.45 1.45 0 0 1 -1.45 1.45z" fill="#6f7f88"/><path d="m314.13 116.91a9.25 9.25 0 1 1 9.25-9.25 9.26 9.26 0 0 1 -9.25 9.25zm0-15.61a6.36 6.36 0 1 0 6.36 6.36 6.37 6.37 0 0 0 -6.36-6.36z" fill="#6f7f88"/><path d="m329.76 116.91a9.25 9.25 0 1 1 9.25-9.25 9.27 9.27 0 0 1 -9.25 9.25zm0-15.61a6.36 6.36 0 1 0 6.36 6.36 6.37 6.37 0 0 0 -6.36-6.36z" fill="#6f7f88"/><path d="m336.43 145.77h-28.35a1.45 1.45 0 0 1 0-2.89h28.35a1.45 1.45 0 0 1 0 2.89z" fill="#6f7f88"/><path d="m320.01 56.13v7.9" fill="none" stroke="#6f7f88" stroke-linecap="round" stroke-linejoin="round"/><path d="m296.78 61.48 3.45 7.1" fill="none" stroke="#6f7f88" stroke-linecap="round" stroke-linejoin="round"/><path d="m342.96 61.35-3.43 7.12" fill="none" stroke="#6f7f88" stroke-linecap="round" stroke-linejoin="round"/><g fill="#6f7f88"><path d="m285.72 81.23a1.46 1.46 0 0 1 -.94-.35l-6-5.14a1.45 1.45 0 0 1 1.89-2.2l6 5.15a1.44 1.44 0 0 1 -.94 2.54z"/><path d="m352.79 79.58a1.44 1.44 0 0 1 -1-2.49l5.73-5.44a1.45 1.45 0 0 1 2 2.1l-5.73 5.44a1.47 1.47 0 0 1 -1 .39z"/><path d="m396.8 443.35h-26.16a1.45 1.45 0 0 1 0-2.89h26.16a9.51 9.51 0 0 0 9.5-9.51v-95.85c0-.09 0-.29 0-.38a9.44 9.44 0 0 0 -9.48-9.12h-37.21a1.45 1.45 0 0 1 0-2.89h37.19a12.3 12.3 0 0 1 12.36 11.91 1.82 1.82 0 0 1 0 .48v95.9a12.41 12.41 0 0 1 -12.36 12.35z"/><path d="m273.87 443.35h-30.67a12.41 12.41 0 0 1 -12.39-12.35v-95.9a4.4 4.4 0 0 1  .05-.73 12.27 12.27 0 0 1 12.34-11.66h41.07a1.45 1.45 0 0 1 0 2.89h-41.07a9.45 9.45 0 0 0 -9.48 9.07v.43 95.9a9.51 9.51 0 0 0 9.5 9.51h30.67a1.45 1.45 0 1 1 0 2.89z"/><path d="m359.1 312h-75.36a8 8 0 0 1 0-16h75.36a8 8 0 0 1 0 16zm-75.36-13.06a5.09 5.09 0 0 0 0 10.17h75.36a5.09 5.09 0 0 0 0-10.17z"/><path d="m359.61 325.6h-75.34a8 8 0 0 1 -8-8 7.86 7.86 0 0 1 2.33-5.62 8 8 0 0 1 5.64-2.35h75.34a8 8 0 0 1 0 15.94zm-75.34-13.05a5.08 5.08 0 1 0 0 10.16h75.34a5.08 5.08 0 1 0 0-10.16z"/><path d="m321 248.2a26.14 26.14 0 0 1 -21.68-11.53 26 26 0 0 1 -4.47-14.61 1.45 1.45 0 0 1 1.45-1.45h49.4a1.45 1.45 0 0 1 1.44 1.45 26.31 26.31 0 0 1 -20.45 25.52 26.66 26.66 0 0 1 -5.69.62zm-19.29-13.15a23.24 23.24 0 0 0 19.29 10.26 23.26 23.26 0 0 0 23.21-21.81h-46.38a23.14 23.14 0 0 0 3.92 11.55z"/><path d="m326.39 247.46h-.15a1.45 1.45 0 0 1 -1.29-1.58 12.72 12.72 0 0 0 0-3.09 12.45 12.45 0 0 0 -21.95-6.26 1.45 1.45 0 0 1 -2.23-1.84 15.39 15.39 0 0 1 9.74-5.42 15.34 15.34 0 0 1 17.28 13.11 15.43 15.43 0 0 1  .06 3.79 1.45 1.45 0 0 1 -1.46 1.29z"/><path d="m218.42 224.25h-16.2a8.34 8.34 0 0 1 -8.33-8.33v-30.78a8.35 8.35 0 0 1 8.33-8.34h16.2a1.44 1.44 0 0 1 1.44 1.44v44.57a1.44 1.44 0 0 1 -1.44 1.44zm-16.2-44.56a5.45 5.45 0 0 0 -5.44 5.45v30.78a5.45 5.45 0 0 0 5.44 5.44h14.78v-41.67z"/><path d="m437.78 225.54h-16.2a1.43 1.43 0 0 1 -1.44-1.44v-44.55a1.43 1.43 0 0 1 1.44-1.44h16.2a8.34 8.34 0 0 1 8.34 8.32v30.79a8.34 8.34 0 0 1 -8.34 8.32zm-14.78-2.88h14.75a5.45 5.45 0 0 0 5.45-5.44v-30.79a5.45 5.45 0 0 0 -5.45-5.43h-14.75z"/><path d="m347.5 482.68h-50.5a24.61 24.61 0 0 1 -24.58-24.59v-16.18a1.44 1.44 0 0 1 1.44-1.45h96.77a1.45 1.45 0 0 1 1.45 1.45v16.18a24.62 24.62 0 0 1 -24.58 24.59zm-72.18-39.33v14.74a21.72 21.72 0 0 0 21.68 21.7h50.5a21.73 21.73 0 0 0 21.7-21.7v-14.74z"/><path d="m363 422.45h-85.16a22.84 22.84 0 0 1 -22.84-22.83v-32.88a22.83 22.83 0 0 1 22.8-22.82h85.2a22.83 22.83 0 0 1 22.8 22.82v32.88a22.84 22.84 0 0 1 -22.8 22.83zm-85.16-75.65a20 20 0 0 0 -19.92 19.94v32.88a20 20 0 0 0 19.92 19.94h85.16a19.94 19.94 0 0 0 19.91-19.94v-32.88a20 20 0 0 0 -19.91-19.94z"/><path d="m300.45 421a1.44 1.44 0 0 1 -1.44-1.44v-74.2a1.45 1.45 0 0 1 2.89 0v74.23a1.44 1.44 0 0 1 -1.45 1.41z"/><path d="m287.6 372.47h-17.49a5.82 5.82 0 1 1 0-11.63h17.49a5.82 5.82 0 1 1 0 11.63zm-17.49-8.74a3 3 0 0 0 -2.94 2.93 2.93 2.93 0 0 0 2.94 2.92h17.49a3 3 0 0 0 2.09-.85 2.93 2.93 0 0 0 -2.09-5z"/><path d="m287.6 389.81h-17.49a5.82 5.82 0 1 1 0-11.64h17.49a5.83 5.83 0 0 1 4.13 9.94 5.89 5.89 0 0 1 -4.13 1.7zm-17.49-8.75a2.93 2.93 0 1 0 0 5.86h17.49a3 3 0 0 0 2.09-.87 2.85 2.85 0 0 0  .85-2.06 2.94 2.94 0 0 0 -2.94-2.93z"/><path d="m276.21 411.23a6.27 6.27 0 1 1 6.27-6.27 6.27 6.27 0 0 1 -6.27 6.27zm0-9.65a3.38 3.38 0 1 0 3.38 3.38 3.39 3.39 0 0 0 -3.38-3.38z"/><path d="m300.45 369.58h83.87v2.89h-83.87z"/><path d="m384.59 396.63h-83.89v-2.89h83.63z"/><path d="m326.72 345.36h2.89v75.64h-2.89z"/><path d="m356.24 420.9h-2.89v-75.54l2.89-.09z"/><path d="m458.36 408.89a1.43 1.43 0 0 1 -1.43-1.34 58.68 58.68 0 0 0 -49.42-53.64 1.44 1.44 0 1 1  .47-2.84 61.54 61.54 0 0 1 51.83 56.27 1.45 1.45 0 0 1 -1.34 1.55z"/><path d="m476 408.7a1.44 1.44 0 0 1 -1.44-1.36 76.8 76.8 0 0 0 -67-71.24 1.44 1.44 0 0 1 -1.25-1.61 1.46 1.46 0 0 1 1.62-1.25 79.67 79.67 0 0 1 69.52 73.93 1.43 1.43 0 0 1 -1.35 1.52z"/><path d="m454.1 468.8a10.28 10.28 0 0 1 -5.73-1.76 33.92 33.92 0 1 1 40.83-2.2 10.1 10.1 0 0 1 -7.48 2.39 10.27 10.27 0 0 1 -5.72-18.08 13.38 13.38 0 1 0 -16.09.88 10.27 10.27 0 0 1 -5.77 18.77zm13.23-60.91a30.34 30.34 0 0 0 -8.49 1.19 31 31 0 0 0 -8.84 55.57 7.56 7.56 0 0 0 10.24-2 7.41 7.41 0 0 0 -2-10.25 16.28 16.28 0 1 1 19.57-1.06 7.4 7.4 0 0 0 -.87 10.4 7.36 7.36 0 0 0 10.39.87 31 31 0 0 0 -11.81-53.61 30.15 30.15 0 0 0 -8.19-1.11z"/><path d="m181.64 408.85h-.11a1.45 1.45 0 0 1 -1.34-1.54 61.55 61.55 0 0 1 51.81-56.31 1.44 1.44 0 0 1  .47 2.85 58.68 58.68 0 0 0 -49.42 53.64 1.43 1.43 0 0 1 -1.41 1.36z"/><path d="m164 408.66h-.09a1.44 1.44 0 0 1 -1.35-1.53 79.68 79.68 0 0 1 69.52-73.94 1.46 1.46 0 0 1 1.62 1.25 1.44 1.44 0 0 1 -1.25 1.61 76.81 76.81 0 0 0 -67 71.26 1.44 1.44 0 0 1 -1.45 1.35z"/><path d="m185.9 468.74a10.26 10.26 0 0 1 -5.75-18.74 13.4 13.4 0 1 0 -16.11-.88 10.29 10.29 0 0 1 1.22 14.48 10.26 10.26 0 0 1 -14.46 1.21 33.91 33.91 0 0 1 31.2-58.56l.17.07a33.89 33.89 0 0 1 9.46 60.68 10.17 10.17 0 0 1 -5.73 1.74zm-13.23-46.16a16.28 16.28 0 0 1 9.1 29.78 7.39 7.39 0 0 0 -2 10.25 7.56 7.56 0 0 0 10.24 2 31 31 0 0 0 -8.84-55.61h-.17a31 31 0 0 0 -28.31 53.6 7.38 7.38 0 1 0 9.52-11.27 16.27 16.27 0 0 1 10.49-28.72z"/></g><path d="m334.7 43a69.48 69.48 0 0 0 -14.7-1.55c-35.08 0-63.52 25.78-63.52 57.58v56.33h29.4v-56.36c0-27.18 20.83-50 48.82-56z" opacity=".08"/><path d="m302.77 458.09v-16.19h-28.89v16.19a23.14 23.14 0 0 0 23.12 23.15h28.89a23.14 23.14 0 0 1 -23.12-23.15z" opacity=".08"/><path d="m264 431v-95.9a11 11 0 0 1 10.95-11h-31.74a11 11 0 0 0 -11 11v95.9a11 11 0 0 0 11 10.95h31.79a11 11 0 0 1 -11-10.95z" opacity=".08"/><path d="m247.31 233v-47.42a30.31 30.31 0 0 1 30.22-30.22h-28.89a30.31 30.31 0 0 0 -30.22 30.22v47.42a64.7 64.7 0 0 0 64.51 64.51h28.9a64.7 64.7 0 0 1 -64.52-64.51z" opacity=".08"/><ellipse cx="322.26" cy="551.74" opacity=".08" rx="69.95" ry="13.26"/><path d="m300.32 304a6.55 6.55 0 0 1 6.53-6.53h-23.11a6.53 6.53 0 1 0 0 13h23.11a6.54 6.54 0 0 1 -6.53-6.47z" opacity=".08"/><path d="m300.32 317.71a6.55 6.55 0 0 1 6.53-6.53h-23.11a6.53 6.53 0 1 0 0 13.05h23.11a6.54 6.54 0 0 1 -6.53-6.52z" opacity=".08"/><path d="m0 0h640v605h-640z" fill="none"/></svg>