<svg viewBox="0 0 640 605" xmlns="http://www.w3.org/2000/svg"><path d="m494.63 429.83a30.06 30.06 0 0 1 -10.68 23 8.18 8.18 0 1 1 -10.55-12.5 13.75 13.75 0 1 0 -16.54.89 8.18 8.18 0 0 1 -9.16 13.56 30.1 30.1 0 0 1 8.6-53.9 29.82 29.82 0 0 1 16.19-.08 30.09 30.09 0 0 1 22.14 29.03z" fill="#98b9c7"/><path d="m420.24 169.31v101.69a22.44 22.44 0 0 1 -22.38 22.37h-173.86a21.73 21.73 0 0 0 21.34-21.68v-24h11.66a15.33 15.33 0 0 0 0-30.69h-11.66v-48.39a21.7 21.7 0 0 0 -21.34-21.61 2.06 2.06 0 0 1  .35 0h173.51a22.44 22.44 0 0 1 22.38 22.31zm-.67 47.69h-11.57a15.33 15.33 0 1 0 0 30.65h11.61zm-30.65-16.89a7.17 7.17 0 1 0 -7.17 7.16 7.17 7.17 0 0 0 7.17-7.13zm-35.77 7.64h-45.8a22.88 22.88 0 0 0 22.89 22.89 23.5 23.5 0 0 0 5-.54 22.89 22.89 0 0 0 17.91-22.32zm-71.9-7.64a7.17 7.17 0 1 0 -7.17 7.16 7.16 7.16 0 0 0 7.17-7.13z" fill="#c3d4dc"/><path d="m419.57 217v30.65h-11.57a15.33 15.33 0 0 1 0-30.65z" fill="#e6ecf0"/><path d="m409.3 333.82c0-.2 0-.41 0-.61a72.44 72.44 0 0 1 63.28 67.28l-.09.33a29.82 29.82 0 0 0 -16.19.08l-.07-.23a55.83 55.83 0 0 0 -46.93-50.94z" fill="#c3d4dc"/><path d="m409.3 405v25.08a11.07 11.07 0 0 1 -11.07 11.06h-156.46a11.08 11.08 0 0 1 -11.07-11.06v-25.08z" fill="#e6ecf0"/><path d="m409.3 349.73v55.27h-178.6v-71.18a11.08 11.08 0 0 1 11.07-11.08h156.46a11.07 11.07 0 0 1 11 10.47v.61zm-17.48-4.81a6.06 6.06 0 0 0 -6.05-6h-26.94a6 6 0 1 0 0 12.07h26.94a6 6 0 0 0 6.05-6zm0 22a6.06 6.06 0 0 0 -6.05-6h-26.94a6 6 0 1 0 0 12.07h26.94a6 6 0 0 0 6.05-6zm-.95 23.3a6.45 6.45 0 1 0 -6.45 6.45 6.46 6.46 0 0 0 6.45-6.47z" fill="#80b4bb"/><path d="m385.77 338.88a6 6 0 1 1 0 12.07h-26.94a6.06 6.06 0 0 1 -6.05-6 6.08 6.08 0 0 1 6.05-6z" fill="#c3d4dc"/><path d="m385.77 360.86a6 6 0 1 1 0 12.07h-26.94a6.06 6.06 0 0 1 -6.05-6 6.08 6.08 0 0 1 6.05-6z" fill="#c3d4dc"/><path d="m384.42 383.74a6.46 6.46 0 1 1 -6.42 6.46 6.46 6.46 0 0 1 6.42-6.46z" fill="#e6ecf0"/><circle cx="381.75" cy="200.14" fill="#6f7f88" r="7.17"/><path d="m323 87.3a6.68 6.68 0 1 0 -1.78-4.54 6.64 6.64 0 0 0 1.78 4.54zm4.89-30.46 25.92 25.92a25.93 25.93 0 0 0 -25.89-25.92zm-22.41 68.25a9.37 9.37 0 0 0 -9.37-9.38h-1.52a9.38 9.38 0 0 0 -9.38 9.38v21.84h-28.29v-52.2c0-29.49 26.36-53.38 58.89-53.38a61.8 61.8 0 0 1 41.63 15.65c10.66 9.66 17.25 23 17.25 37.75v52.2h-69.18zm-6.83-14.47a25.55 25.55 0 0 0 36.1 1.11l1.7-1.33-17.6-18.75-17.35-18.46-1.7 1.33a25.55 25.55 0 0 0 -1.12 36.1zm44.9-27.86a15.66 15.66 0 0 0 -15.63-15.66z" fill="#d4eded"/><path d="m271.56 293.4h95.33v29.34h-95.33z" fill="#f27a6e"/><path d="m354 441.11v18.52a17.46 17.46 0 0 1 -17.46 17.46h-25.31a17.47 17.47 0 0 1 -17.46-17.46v-18.52z" fill="#f27a6e"/><path d="m353.84 82.76-25.92-25.92a25.93 25.93 0 0 1 25.92 25.92z" fill="#d4eded"/><path d="m343.58 82.76-15.66-15.66a15.66 15.66 0 0 1 15.66 15.66z" fill="#d4eded"/><path d="m318.85 91.65 17.63 18.75-1.7 1.33a25.54 25.54 0 1 1 -35-37.21l1.7-1.33z" fill="#7fb5bc"/><path d="m353.15 207.78a22.89 22.89 0 0 1 -17.91 22.34v-.13a12.64 12.64 0 0 0 0-3.19 12.87 12.87 0 0 0 -22.68-6.44l-1.22.23a22.79 22.79 0 0 1 -3.91-12.8z" fill="#6f7f88"/><path d="m335.2 230v .13a23.5 23.5 0 0 1 -5 .54 22.86 22.86 0 0 1 -19-10.09l1.22-.23a12.87 12.87 0 0 1 22.68 6.44 12.64 12.64 0 0 1 0 3.19z" fill="#f27a6e"/><path d="m327.92 76.08a6.68 6.68 0 1 1 -6.67 6.68 6.68 6.68 0 0 1 6.67-6.68z" fill="#f27a6e"/><path d="m305.51 125.09v21.84h-20.27v-21.84a9.38 9.38 0 0 1 9.38-9.38h1.52a9.37 9.37 0 0 1 9.37 9.38z" fill="#7fb5bc"/><circle cx="274.08" cy="200.14" fill="#6f7f88" r="7.17"/><path d="m257 217a15.33 15.33 0 1 1 0 30.65h-11.66v-30.65z" fill="#e6ecf0"/><path d="m245.34 247.68v24a21.73 21.73 0 0 1 -21.34 21.71 22.43 22.43 0 0 1 -22-22.39v-101.69a22.43 22.43 0 0 1 22-22.31 21.7 21.7 0 0 1 21.34 21.66v79.07zm-15.79 22.32v-98.09a7.75 7.75 0 1 0 -15.5 0v98.09a7.75 7.75 0 1 0 15.5 0z" fill="#98b9c7"/><path d="m230.7 335.21v16.52a55.84 55.84 0 0 0 -46.93 50.94l-.07.22a30 30 0 0 0 -16.17-.08l-.1-.32a72.42 72.42 0 0 1 63.27-67.28z" fill="#c3d4dc"/><path d="m229.55 171.91v98.09a7.75 7.75 0 1 1 -15.5 0v-98.09a7.75 7.75 0 0 1 15.5 0z" fill="#c3d4dc"/><path d="m202 271a22.43 22.43 0 0 0 22 22.36h-.34a21.74 21.74 0 0 1 -21.66-21.65z" fill="#fff"/><path d="m202 168.61a21.75 21.75 0 0 1 21.68-21.68 1.94 1.94 0 0 1  .34 0 22.43 22.43 0 0 0 -22 22.36z" fill="#fff"/><path d="m205.56 431.83a30.12 30.12 0 0 1 -13.26 25 8.18 8.18 0 0 1 -9.16-13.56 13.74 13.74 0 1 0 -16.54-.89 8.18 8.18 0 1 1 -10.55 12.5 30.11 30.11 0 0 1 11.48-52 30 30 0 0 1 16.17.08 30.13 30.13 0 0 1 21.86 28.87z" fill="#98b9c7"/><g fill="#6f7f88"><path d="m456.23 402a1.34 1.34 0 0 1 -1.34-1.25 54.39 54.39 0 0 0 -45.81-49.71 1.34 1.34 0 1 1  .43-2.64 57.06 57.06 0 0 1 48.05 52.16 1.33 1.33 0 0 1 -1.24 1.43z"/><path d="m472.58 401.83a1.34 1.34 0 0 1 -1.33-1.26 71.16 71.16 0 0 0 -62.13-66 1.34 1.34 0 0 1  .34-2.66 73.84 73.84 0 0 1 64.46 68.53 1.34 1.34 0 0 1 -1.26 1.41z"/><path d="m452.28 457.54a9.61 9.61 0 0 1 -5.33-1.63 31.44 31.44 0 1 1 37.86-2 9.52 9.52 0 1 1 -12.28-14.54 12.41 12.41 0 1 0 -14.93.79 9.53 9.53 0 0 1 -5.32 17.42zm12.26-56.46a27.82 27.82 0 0 0 -7.87 1.11 28.76 28.76 0 0 0 -8.21 51.5 7 7 0 0 0 9.49-1.85 6.85 6.85 0 0 0 -1.83-9.5 15.08 15.08 0 1 1 18.15-1 6.84 6.84 0 1 0 8.83 10.45 28.76 28.76 0 0 0 -11-49.71 27.76 27.76 0 0 0 -7.56-1z"/><path d="m224.18 148.28a1.42 1.42 0 0 1 -1.42-1.17 1.27 1.27 0 0 1 1.07-1.49 4.53 4.53 0 0 1  .52 0h32.57a1.34 1.34 0 0 1 0 2.68h-32.74z"/><path d="m271.56 294.74h-47.21a4 4 0 0 1 -.49 0 1.34 1.34 0 0 1 -1.19-1.47 1.31 1.31 0 0 1 1.47-1.19h47.42a1.34 1.34 0 1 1 0 2.68z"/><path d="m397.86 294.74h-31a1.34 1.34 0 1 1 0-2.68h31a21.06 21.06 0 0 0 21-21v-101.75a21.07 21.07 0 0 0 -21-21h-23.17a1.34 1.34 0 1 1 0-2.68h23.17a23.75 23.75 0 0 1 23.72 23.72v101.65a23.74 23.74 0 0 1 -23.72 23.74z"/><path d="m398.23 442.45h-44.23a1.34 1.34 0 1 1 0-2.67h44.25a9.75 9.75 0 0 0 9.73-9.73v-96.23c0-.17 0-.35 0-.52a9.73 9.73 0 0 0 -9.72-9.22h-31.37a1.34 1.34 0 0 1 0-2.68h31.34a12.42 12.42 0 0 1 12.39 11.74v.68 96.23a12.41 12.41 0 0 1 -12.39 12.4z"/><path d="m293.77 442.45h-52a12.41 12.41 0 0 1 -12.4-12.4v-96.23a12.42 12.42 0 0 1 12.4-12.42h29.79a1.34 1.34 0 0 1 0 2.68h-29.79a9.75 9.75 0 0 0 -9.73 9.74v96.23a9.75 9.75 0 0 0 9.73 9.73h52a1.34 1.34 0 1 1 0 2.67z"/><path d="m223.66 294.74a23.05 23.05 0 0 1 -23-23v-103.13a23.05 23.05 0 0 1 23-23 4.71 4.71 0 0 1  .53 0 23 23 0 0 1 22.49 23v48.39a1.34 1.34 0 0 1 -2.68 0v-48.39a20.35 20.35 0 0 0 -20-20.32l-.32-1.36v1.34a20.36 20.36 0 0 0 -20.34 20.34v103.1a20.37 20.37 0 0 0 20.34 20.35h.32a20.42 20.42 0 0 0 20-20.34v-24a1.34 1.34 0 1 1 2.68 0v24a23.12 23.12 0 0 1 -22.66 23z"/><path d="m374.69 148.27h-69.18a1.34 1.34 0 1 1 0-2.68h67.84v-50.86c0-13.88-6-26.93-16.81-36.76a60.3 60.3 0 0 0 -40.73-15.28c-31.73 0-57.55 23.34-57.55 52v50.86h27a1.34 1.34 0 0 1 0 2.68h-28.34a1.33 1.33 0 0 1 -1.33-1.34v-52.16c0-30.18 27-54.72 60.22-54.72a63 63 0 0 1 42.53 16c11.41 10.32 17.66 24.08 17.66 38.72v52.2a1.34 1.34 0 0 1 -1.31 1.34z"/><path d="m317.32 120a26.87 26.87 0 0 1 -19.62-8.47 26.92 26.92 0 0 1 1.18-38l1.8-1.4a1.34 1.34 0 0 1 1.8.14l35 37.2a1.34 1.34 0 0 1 -.15 2l-1.7 1.34a26.67 26.67 0 0 1 -18.31 7.19zm-17.66-10.3a24.24 24.24 0 0 0 34.2 1.06l.64-.51-33.14-35.25-.74.57a24.22 24.22 0 0 0 -1 34.13z"/><path d="m327.93 90.78a8 8 0 1 1 8-8 8 8 0 0 1 -8 8zm0-13.36a5.34 5.34 0 1 0 5.32 5.34 5.35 5.35 0 0 0 -5.32-5.34z"/><path d="m318.85 93a1.32 1.32 0 0 1 -.93-.37 1.34 1.34 0 0 1 0-1.89l4.19-4.35a1.34 1.34 0 1 1 1.89 1.84l-4.19 4.34a1.29 1.29 0 0 1 -.96.43z"/><path d="m343.58 84.1a1.34 1.34 0 0 1 -1.34-1.34 14.33 14.33 0 0 0 -14.31-14.32 1.34 1.34 0 1 1 0-2.68 17 17 0 0 1 17 17 1.34 1.34 0 0 1 -1.35 1.34z"/><path d="m353.84 84.1a1.34 1.34 0 0 1 -1.34-1.34 24.6 24.6 0 0 0 -24.57-24.58 1.34 1.34 0 0 1 0-2.68 27.29 27.29 0 0 1 27.25 27.26 1.34 1.34 0 0 1 -1.34 1.34z"/><path d="m305.51 148.27h-20.27a1.34 1.34 0 0 1 -1.34-1.34v-21.84a10.73 10.73 0 0 1 10.72-10.72h1.52a10.72 10.72 0 0 1 10.71 10.72v21.84a1.34 1.34 0 0 1 -1.34 1.34zm-18.93-2.68h17.59v-20.5a8 8 0 0 0 -8-8h-1.52a8.05 8.05 0 0 0 -8 8z"/><path d="m257 249h-11.66a1.34 1.34 0 0 1 -1.34-1.34v-30.66a1.34 1.34 0 0 1 1.34-1.34h11.66a16.67 16.67 0 1 1 0 33.34zm-10.27-2.68h10.27a14 14 0 0 0 0-28h-10.32z"/><path d="m330.24 232a24.22 24.22 0 0 1 -20.09-10.68 24.12 24.12 0 0 1 -4.15-13.54 1.34 1.34 0 0 1 1.34-1.34h45.8a1.34 1.34 0 0 1 1.34 1.34 24.35 24.35 0 0 1 -18.78 23.6l-.18.06a24.7 24.7 0 0 1 -5.28.56zm-17.87-12.18a21.57 21.57 0 0 0 22.41 9l .17-.05a21.66 21.66 0 0 0 16.82-19.69h-43a21.36 21.36 0 0 0 3.64 10.71z"/><path d="m335.2 231.4a1.4 1.4 0 0 1 -1.34-1.41 12.07 12.07 0 0 0 0-3 11.53 11.53 0 0 0 -20.32-5.78 1.34 1.34 0 0 1 -2.07-1.71 14.22 14.22 0 0 1 25 7.12 13.85 13.85 0 0 1 0 3.52 1.27 1.27 0 0 1 -1.27 1.26z"/><path d="m366.89 324.08h-95.33a1.34 1.34 0 0 1 -1.34-1.34v-29.34a1.34 1.34 0 0 1 1.34-1.34h95.33a1.33 1.33 0 0 1 1.33 1.34v29.34a1.33 1.33 0 0 1 -1.33 1.34zm-94-2.68h92.65v-26.66h-92.64z"/><path d="m385.77 352.29h-26.94a7.4 7.4 0 0 1 -7.39-7.38 7.41 7.41 0 0 1 7.39-7.37h26.94a7.39 7.39 0 0 1 7.39 7.37 7.3 7.3 0 0 1 -2.16 5.22 7.4 7.4 0 0 1 -5.23 2.16zm-26.94-12.07a4.67 4.67 0 0 0 -3.32 1.38 4.61 4.61 0 0 0 -1.39 3.31 4.7 4.7 0 0 0 4.71 4.7h26.94a4.73 4.73 0 0 0 3.34-1.38 4.65 4.65 0 0 0 1.38-3.32 4.72 4.72 0 0 0 -4.72-4.69z"/><path d="m385.77 374.27h-26.94a7.39 7.39 0 0 1 -7.39-7.37 7.43 7.43 0 0 1 7.39-7.38h26.94a7.39 7.39 0 0 1 7.39 7.38 7.37 7.37 0 0 1 -7.39 7.37zm-26.94-12.07a4.67 4.67 0 0 0 -3.32 1.38 4.62 4.62 0 0 0 -1.39 3.32 4.7 4.7 0 0 0 4.71 4.69h26.94a4.7 4.7 0 1 0 0-9.39z"/><path d="m384.42 398a7.8 7.8 0 1 1 7.79-7.79 7.8 7.8 0 0 1 -7.79 7.79zm0-12.91a5.12 5.12 0 1 0 5.11 5.12 5.12 5.12 0 0 0 -5.11-5.13z"/><path d="m336.52 478.43h-25.29a18.81 18.81 0 0 1 -18.79-18.8v-18.52a1.32 1.32 0 0 1 1.33-1.33h60.23a1.33 1.33 0 0 1 1.34 1.33v18.52a18.82 18.82 0 0 1 -18.82 18.8zm-41.41-36v17.18a16.14 16.14 0 0 0 16.12 16.12h25.29a16.14 16.14 0 0 0 16.12-16.12v-17.16z"/><path d="m221.81 279.1a9.11 9.11 0 0 1 -9.1-9.1v-98.09a9.09 9.09 0 0 1 18.18 0v98.09a9.1 9.1 0 0 1 -9.08 9.1zm0-113.6a6.42 6.42 0 0 0 -6.42 6.41v98.09a6.41 6.41 0 1 0 12.82 0v-98.09a6.42 6.42 0 0 0 -6.4-6.41z"/><path d="m419.57 249h-11.57a16.67 16.67 0 0 1 0-33.33h11.61a1.34 1.34 0 0 1 1.34 1.34v30.65a1.34 1.34 0 0 1 -1.38 1.34zm-11.57-30.63a14 14 0 1 0 0 28h10.27v-28z"/><path d="m409.29 406.31h-178.58a1.34 1.34 0 0 1 0-2.68h178.58a1.34 1.34 0 0 1 0 2.68z"/><path d="m183.77 404h-.09a1.34 1.34 0 0 1 -1.24-1.44 57.06 57.06 0 0 1 48.05-52.16 1.32 1.32 0 0 1 1.54 1.1 1.34 1.34 0 0 1 -1.11 1.54 54.39 54.39 0 0 0 -45.81 49.72 1.34 1.34 0 0 1 -1.34 1.24z"/><path d="m167.43 403.83h-.08a1.35 1.35 0 0 1 -1.26-1.42 73.81 73.81 0 0 1 64.45-68.53 1.34 1.34 0 0 1  .33 2.66 71.12 71.12 0 0 0 -62.1 66 1.35 1.35 0 0 1 -1.34 1.29z"/><path d="m187.74 459.54a9.53 9.53 0 0 1 -5.35-17.41 12.4 12.4 0 1 0 -14.92-.8 9.52 9.52 0 1 1 -12.28 14.54 31.45 31.45 0 0 1 12-54.36 31.89 31.89 0 0 1 16.9.09l.19.07a31.44 31.44 0 0 1 8.79 56.24 9.51 9.51 0 0 1 -5.33 1.63zm-12.28-42.78a15.08 15.08 0 0 1 8.43 27.59 6.85 6.85 0 0 0 -1.83 9.49 7 7 0 0 0 9.5 1.85 28.77 28.77 0 0 0 -8.22-51.5l-.19-.07a28.77 28.77 0 0 0 -36.44 27.71 28.77 28.77 0 0 0 10.21 22 6.84 6.84 0 1 0 8.82-10.45 15.09 15.09 0 0 1 9.72-26.62z"/></g><path d="m273.55 430v-96.18a11.08 11.08 0 0 1 11.08-11.08h-42.85a11.08 11.08 0 0 0 -11.08 11.08v96.18a11.08 11.08 0 0 0 11.08 11.08h42.85a11.08 11.08 0 0 1 -11.08-11.08z" opacity=".08"/><path d="m271.56 293.4h29.35v29.35h-29.35z" opacity=".08"/><path d="m315.2 459.63v-18.51h-21.42v18.51a17.46 17.46 0 0 0 17.46 17.46h21.42a17.46 17.46 0 0 1 -17.46-17.46z" opacity=".08"/><path d="m243.42 146h-18.18-.35a21.74 21.74 0 0 1 21.34 21.67v103.1a21.73 21.73 0 0 1 -21.34 21.66h.35 18.18a22.44 22.44 0 0 0 22.38-22.38v-101.68a22.44 22.44 0 0 0 -22.38-22.37z" opacity=".08"/><path d="m330.59 41.45a64.9 64.9 0 0 0 -13.59-1.45c-32.52 0-58.89 23.9-58.89 53.38v52.21h27.26v-52.21c-.04-25.23 19.27-46.38 45.22-51.93z" opacity=".08"/><ellipse cx="328.88" cy="552.71" opacity=".08" rx="64.84" ry="12.29"/><path d="m0 0h640v605h-640z" fill="none"/></svg>