<svg height="128" viewBox="0 0 128 128" width="128" xmlns="http://www.w3.org/2000/svg"><g fill="none" fill-rule="evenodd"><path d="m27.8634653 107.135635c.1821413.180753.1820323.473702-.0002435.654321l-.0042191.004181c-.0210231.020832-.0440052.039624-.0686332.056121l-9.0625853 6.070423c-.2135318.143031-.5035602.087325-.6477965-.124422-.1442363-.211748-.0880611-.499352.1254708-.642383l9.0399779-6.05528c.1831589-.142835.4492353-.130467.6180289.037039z" fill="#fff" fill-rule="nonzero"/><path d="m101.655186 59c-.287979-.0007872-.541877-.1923285-.626286-.4724707-.084408-.2801423.020357-.5835597.258421-.7484332l9.717768-6.6837804c.299067-.1825696.686223-.0955192.881828.1982751.195605.2937942.131462.6919044-.146098.9067766l-9.717768 6.6837804c-.108375.0753908-.236581.1157668-.367865.1158522z" fill="#fff"/><path d="m27.3274083 59c-.1347715-.0000874-.2663831-.0414306-.3776375-.1186273l-9.6837049-6.6522522c-.2849332-.2200191-.3507797-.6276656-.1499788-.9284972.200801-.3008316.5982427-.3899673.9052539-.2030244l9.6837049 6.6522522c.2443889.1688228.3519368.4795081.265286.7663608-.0866507.2868526-.3472942.482982-.6429236.4837881z" fill="#fff"/><path d="m121.07872 38.2029268c4.73896 1.215103 7.594819 6.0379664 6.378919 10.7724716-1.2159 4.7345051-6.043176 7.5879988-10.782327 6.3736367-4.73915-1.2143621-7.595765-6.036779-6.380606-10.7714741.583661-2.2741553 2.047821-4.2234664 4.070289-5.4189852 2.022467-1.1955188 4.437521-1.5392838 6.713725-.955649z" fill="#ff7c6e"/><path d="m27.5074048 107.178049c-6.6626496-9.9395842-9.0227434-22.1469277-6.544427-33.8503783s9.5847666-21.9100118 19.7058457-28.3023048v-.0439025h47.3767128c15.3011427 9.6361392 23.2185977 27.5844914 20.0132097 45.3686401-3.205387 17.7841485-16.8923172 31.8460345-34.596903 35.5446925-17.7045858 3.698657-35.8846865-3.705902-45.9544382-18.716747zm60.5469205-48.95561c.0106882-1.0677449-.6248968-2.0363052-1.6092614-2.4523337-.9843646-.4160284-2.1227443-.1972105-2.8823057.5540332-.7595615.7512438-.9900193 1.8862738-.5835049 2.8738245.4065145.9875508 1.3695691 1.6322275 2.4383938 1.6322809 1.4459621.0000722 2.6222185-1.1633035 2.6366782-2.6078049zm3.9550173 33.2868293c0-11.4848781-12.3572319-20.7965854-27.6060208-20.7965854s-27.6235986 9.3117073-27.6235986 20.7965854c0 11.4848777 12.3572318 20.7965857 27.6060207 20.7965857 15.248789 0 27.6060208-9.311708 27.6060208-20.7965857zm-36.1224914-33.2648781c-.0024191-1.4295499-1.1618096-2.587827-2.5927336-2.5902439h-9.8787543c-1.3892364.0571754-2.486015 1.1989692-2.486015 2.5880488 0 1.3890797 1.0967786 2.5308734 2.486015 2.5880488h9.8787543c1.4292137-.0024078 2.587899-1.1580185 2.5927336-2.5858537z" fill="#ff7c6e" fill-rule="nonzero"/><path d="m88.0543253 25.0936585v19.8878049h-27.1929412v-11.8185366c0-.9698659-.7869874-1.7560975-1.7577855-1.7560975h-5.3129066c-.9707981 0-1.7577854.7862316-1.7577854 1.7560975v11.8185366h-11.4256056v-19.8878049c-.1163614-8.5380263 4.3763423-16.47770727 11.7588127-20.7806315 7.3824705-4.30292423 16.5117727-4.30292423 23.8942432 0 7.3824704 4.30292423 11.8751741 12.2426052 11.7588127 20.7806315zm-15.2971281 5.1014635-13.183391-14.0048781-.6415917.5004878c-3.8710573 3.6369972-4.0579667 9.7204645-.4174738 13.5878047 3.6404928 3.8673402 9.7298074 4.0540703 13.6008648.4170734zm-.4921799-10.7824391c.0017781-1.0178668-.610591-1.9364959-1.5513713-2.3272482-.9407804-.3907522-2.0245489-.1766123-2.7456113.5425004-.7210623.7191127-.9373007 1.801465-.5478168 2.742023.389484.940558 1.307925 1.5539428 2.3267717 1.5539443.6674181.0011657 1.3079-.2628937 1.7802486-.7339651.4723485-.4710715.7377801-1.1104762.7377791-1.7772544z" fill="#d4f4f2" fill-rule="nonzero"/><path d="m85.4396194 55.6102439c1.4440622 0 2.6147059 1.1695196 2.6147059 2.6121951 0 1.4426756-1.1706437 2.6121951-2.6147059 2.6121951s-2.6147059-1.1695195-2.6147059-2.6121951c.0119432-1.4377042 1.1756198-2.6002633 2.6147059-2.6121951z" fill="#7eb5bd"/><path d="m85.0133564 89.8804878c1.6212328 0 2.9355017 1.3130069 2.9355017 2.9326829 0 1.6196761-1.3142689 2.932683-2.9355017 2.932683s-2.9355017-1.3130069-2.9355017-2.932683c0-1.619676 1.3142689-2.9326829 2.9355017-2.9326829z" fill="#6e7f89"/><path d="m55.0519031 102.800976c2.1740036 2.987982 5.6495269 4.754275 9.3470242 4.750244.5705443-.00067 1.1403232-.041749 1.7050519-.122927 5.6733447-.847576 9.8721824-5.714447 9.8743599-11.4453662h-23.1588491c-.0051521 2.4527592.7773056 4.8425032 2.2324131 6.8180492zm9.3470242-32.0882931c15.248789 0 27.6060208 9.3117073 27.6060208 20.7965854 0 11.4848777-12.3572318 20.7965857-27.6060208 20.7965857-15.2487889 0-27.6060207-9.311708-27.6060207-20.7965857 0-11.4848781 12.3440484-20.7965854 27.5928373-20.7965854zm23.5631142 22.1004878c.001778-1.1865574-.7123056-2.2572667-1.8090855-2.7125739s-2.3601116-.2054841-3.2005707.6329109c-.840459.8383951-1.0924146 2.100138-.6383134 3.1965456s1.5247687 1.8114088 2.7124679 1.8114101c1.614369-.0072415 2.9199179-1.3154594 2.9223183-2.9282927zm-41.2552249 0c.001778-1.1865574-.7123056-2.2572667-1.8090855-2.7125739s-2.3601117-.2054841-3.2005707.6329109c-.840459.8383951-1.0924146 2.100138-.6383134 3.1965456s1.5247686 1.8114088 2.7124679 1.8114101c1.6178023-.0024177 2.9286872-1.3120438 2.9311072-2.9282927z" fill="#d4f4f2" fill-rule="nonzero"/><path d="m52.8063304 95.9829268h23.1588253c-.0021775 5.7309192-4.2010152 10.5977902-9.8743599 11.4453662.695054-2.88811-.8082777-5.853702-3.5499825-7.002978-2.7417048-1.1492764-5.913077-.143242-7.4889102 2.375661-1.4598056-1.973922-2.2469305-4.3638068-2.2455727-6.8180492z" fill="#6e7f89"/><path d="m59.5825952 16.1902439 13.183391 14.0048781-.6415917.5004878c-2.5041351 2.3527246-6.0744214 3.1920744-9.3659667 2.2018746-3.2915452-.9901999-5.8042853-3.6595146-6.5916955-7.0024391-.7874101-3.3429244.2701361-6.851589 2.7742712-9.2043136z" fill="#7eb5bd"/><path d="m69.7469896 16.9014634c1.3882413 0 2.5136332 1.1243113 2.5136332 2.5112195 0 1.3869083-1.1253919 2.5112195-2.5136332 2.5112195s-2.5136332-1.1243112-2.5136332-2.5112195c0-1.3869082 1.1253919-2.5112195 2.5136332-2.5112195z" fill="#ff7c6e"/><path d="m61.7051211 100.114146c3.2242664.822102 5.1845436 4.084788 4.3944637 7.314147-.5647287.081178-1.1345077.122257-1.7050519.122927-3.6959486.002624-7.1695363-1.763515-9.3426298-4.750244 1.3933718-2.249961 4.086229-3.3374416 6.653218-2.68683z" fill="#ff7c6e"/><path d="m60.8613841 33.1629268v11.8185366h-8.8108997v-11.8185366c0-.9698659.7869874-1.7560975 1.7577855-1.7560975h5.3304844c.9570416.0191262 1.7228212.7997837 1.7226298 1.7560975z" fill="#7eb5bd"/><path d="m53.2941176 55.6541463c1.3892365.0571754 2.4860151 1.1989692 2.4860151 2.5880488 0 1.3890797-1.0967786 2.5308734-2.4860151 2.5880488h-9.8787543c-1.3892364-.0571754-2.486015-1.1989691-2.486015-2.5880488 0-1.3890796 1.0967786-2.5308734 2.486015-2.5880488z" fill="#7eb5bd"/><path d="m43.7581315 89.8804878c1.1876979-.0017763 2.2594363.7116217 2.7151811 1.8073484.4557449 1.0957267.2056817 2.3578453-.6335192 3.1974973s-2.1021566 1.0913656-3.199618.6377004c-1.0974614-.4536651-1.8131498-1.5233044-1.8131512-2.7098632-.0000018-1.6179631 1.3115909-2.9302608 2.9311073-2.9326829z" fill="#6e7f89"/><path d="m18.714083 44.577561c.8904644 3.4677942-.397893 7.1299987-3.2642289 9.2786938s-6.74607638 2.3606584-9.82985077.5370381c-3.08377439-1.8236204-4.76418051-5.3236313-4.25753774-8.8677542s3.10054245-6.4342821 6.57199808-7.3226119c4.73857023-1.2125787 9.56412693 1.6410619 10.77961933 6.3746342z" fill="#ff7c6e"/><path d="m18.714083 115.444878c.8904644 3.467794-.397893 7.129999-3.2642289 9.278694s-6.74607638 2.360658-9.82985077.537038-4.76418051-5.323631-4.25753774-8.867754 3.10054245-6.434282 6.57199808-7.322612c4.73857023-1.212579 9.56412693 1.641062 10.77961933 6.374634z" fill="#ff7c6e"/><g fill="#6e7f89" fill-rule="nonzero"><path d="m87.78661 45.4013985c-.227125-.1429692-.2953209-.4429488-.1523198-.6700233.143001-.2270744.4430475-.2952551.6701724-.1522859 16.9048214 10.6411406 24.7300434 31.1674137 19.1938324 50.3474651-5.53618 19.1799406-23.0995582 32.3917936-43.0799677 32.4066056-19.9804091.014812-37.5633935-13.170985-43.1280593-32.3426958-5.564698-19.1718218 2.2300238-39.709675 19.1190194-50.3758684.2269126-.143306.5270598-.0755704.6703977.1512917.1433379.226862.0755872.5269425-.1513254.6702484-16.5229823 10.4350389-24.1486675 30.5275073-18.7046607 49.2835169 5.444039 18.7561202 22.6461272 31.6562762 42.1939076 31.6417852 19.5477801-.014492 36.7306854-12.940138 42.1468554-31.7043089 5.416139-18.7640606-2.239386-38.8452009-18.777852-49.2557306z"/><path d="m64.3857439 112.791715c-15.4896728 0-28.0919901-9.493769-28.0919901-21.2824467 0-11.7886782 12.6023173-21.2824466 28.0919901-21.2824466 15.4896729 0 28.0919902 9.4937684 28.0919902 21.2824466 0 11.7886777-12.6023173 21.2824467-28.0919902 21.2824467zm0-.971723c15.0030957 0 27.1200514-9.128128 27.1200514-20.3107237s-12.1169557-20.3107242-27.1200514-20.3107242c-15.0030956 0-27.1200513 9.1281285-27.1200513 20.3107242s12.1169557 20.3107237 27.1200513 20.3107237z"/><path d="m52.0680623 44.4956022c.2683935 0 .4859694.2175275.4859694.4858612s-.2175759.4858612-.4859694.4858612h-11.4256056c-.2683934 0-.4859693-.2175275-.4859693-.4858612l.0000451-19.8811853c-.1187496-8.7132555 4.466131-16.81583495 11.9999796-21.20699104 7.5337282-4.39108589 16.8500296-4.39108589 24.3837578 0 7.5338486 4.39115609 12.1187292 12.49373554 12.0000247 21.20037144v19.8878049c0 .2683337-.2175759.4858612-.4859693.4858612h-27.1929412c-.2683935 0-.4859694-.2175275-.4859694-.4858612s.2175759-.4858612.4859694-.4858612h26.7069729l.000044-19.4085632c.1139733-8.3627973-4.2865536-16.13957969-11.5176458-20.35427206-7.2312126-4.21476257-16.1735158-4.21476257-23.4047284 0-7.2310922 4.21469237-11.6316191 11.99147476-11.5176007 20.36089156v19.4019437z"/><path d="m58.598831 16.3547874.0344383-.0295517.6415917-.5004878c.1978918-.1543699.4808123-.1326696.6528358.050073l13.183391 14.004878c.196093.2083121.1706354.5400717-.0549454.716041l-.6245262.4871755c-4.0724665 3.7971618-10.4550529 3.5858775-14.2668215-.4762634-3.8115979-4.05821-3.6174681-10.4326758.4340363-14.2518646zm.2745637 13.5867676c3.4499166 3.6766048 9.2297981 3.8632348 12.9100003.4170083l.0332653-.0284496.2212614-.1725998-12.5144147-13.2942162-.2742093.2139031c-3.645755 3.4533007-3.8155335 9.2022616-.375903 12.8643542z"/><path d="m69.7461429 16.415603c1.2158681-.0021181 2.3131658.7282969 2.7795167 1.8503187.4664025 1.1221458.2096702 2.4145309-.6502595 3.2736349-.8597955.8589699-2.1530089 1.1153736-3.2759017.6495565-1.1228862-.4658143-1.8540612-1.5620037-1.8521114-2.7768541.0002293-1.6551274 1.3431894-2.9966568 2.9987559-2.996656zm-2.0268171 2.9970799-.0000008.0008478c-.0014338.8215128.4930425 1.5629354 1.2526664 1.8780552.759748.3151713 1.6347615.1416835 2.2163979-.4393943.5815022-.5809439.7550746-1.4547036.4397381-2.2133907-.3153881-.7588112-1.0576697-1.2529101-1.8811378-1.2514763-1.119928 0-2.0276638.9068641-2.0276638 2.0253583z"/><path d="m67.7055976 21.0117978c.1279469-.1250528.3330663-.1227297.4581469.0051887.1250807.1279184.1227571.3329921-.0051898.4580449l-1.6215571 1.5848781c-.1279469.1250528-.3330663.1227297-.458147-.0051887-.1250806-.1279184-.122757-.3329921.0051899-.4580449z"/><path d="m76.099568 19.4390244c0 .2683337-.2175759.4858612-.4859694.4858612s-.4859694-.2175275-.4859694-.4858612c0-2.9879108-2.4246539-5.4102364-5.4157953-5.4102364-.2683935 0-.4859694-.2175274-.4859694-.4858612 0-.2683337.2175759-.4858612.4859694-.4858612 3.5277679 0 6.3877341 2.85722 6.3877341 6.3819588z"/><path d="m80.2874919 19.2195122c0 .2683338-.217576.4858612-.4859695.4858612-.2683934 0-.4859693-.2175275-.4859693-.4858613.0000003-2.4590082-.9780707-4.8172629-2.7189675-6.5557057-1.7409657-1.7385115-4.1021193-2.71466185-6.5637375-2.71355601-.2683934.00012057-.4860671-.21730913-.4861877-.48564282-.0001206-.2683337.2173575-.48595888.485751-.48607945 2.7193169-.0012216 5.3276981 1.07713778 7.2510303 2.99775878 1.9234016 1.9206903 3.0040505 4.5262735 3.0040502 7.2432253z"/><path d="m52.0504844 45.4673246c-.2681113 0-.4855701-.2170874-.4859688-.4851387l-.0175784-11.8192591c0-1.2382799 1.0046435-2.2419587 2.2437548-2.2419587h5.3129066c1.2391113 0 2.2437549 1.0036788 2.2437549 2.2419587v11.8185366c0 .2683337-.2175759.4858612-.4859694.4858612zm8.3249303-.9717224v-11.3326754c0-.7014518-.5693312-1.2702363-1.2718161-1.2702363h-5.3129066c-.7024848 0-1.271816.5687845-1.2718166 1.2695139l.0168563 11.3333978z"/><path d="m8.05496425 109.540932c-3.2810513.839606-5.73259481 3.57115-6.21141782 6.920665-.4788155 3.349463 1.10931695 6.657283 4.02386433 8.380829 2.91469029 1.723631 6.58175714 1.523286 9.29091194-.507581 2.7090092-2.030758 3.9266092-5.491832 3.0850549-8.769152-1.1487702-4.473732-5.7096536-7.170856-10.18841335-6.024761zm7.68642125 15.571366c-3.0235171 2.266523-7.11593111 2.490106-10.3687896.566496-3.2530014-1.923694-5.02568119-5.615896-4.49121115-9.354679.53446253-3.738731 3.27071838-6.787506 6.93257834-7.724559 4.99838071-1.279063 10.08861081 1.731095 11.37082541 6.724508.9393744 3.658267-.4197404 7.521602-3.443403 9.788234z"/><path d="m55.2941633 58.2421951c0-1.1284435-.8911193-2.0561371-2.0000457-2.1021876l-9.8587662-.0004111c-1.1289144.0464616-2.0200337.9741552-2.0200337 2.1025987 0 1.1284436.8911193 2.0561372 2.0000456 2.1021876h9.8682469c1.1244188-.0512489 2.0105531-.9769048 2.0105531-2.1021876zm-1.9800576 3.0734988-.0199881.0004112-9.8987423-.0004112c-1.6495586-.0678892-2.9519964-1.4237831-2.9519964-3.0734988s1.3024378-3.0056096 2.9719844-3.0739099l9.8987424.0004111c1.6495585.0678892 2.9519964 1.4237831 2.9519964 3.0734988s-1.3024379 3.0056096-2.9519964 3.0734988z"/><path d="m87.5683728 58.2264909-.0000169-.004069c.00002-.5669727-.2266517-1.1104894-.6296764-1.5097718-.4030946-.3993517-.9492061-.6213287-1.5210156-.616545-.8715915.0000302-1.6569348.5254935-1.9887009 1.3304772-.3317152.8048601-.1444582 1.7301343.4742438 2.3430913.6188369.6130907 1.54695.7924988 2.3501106.4542393.8030354-.3382068 1.322316-1.1270175 1.3150554-1.997422zm-.9377343 2.8929311c-1.1658808.4910229-2.5131022.2305994-3.4115599-.6595156-.8985926-.8902487-1.1706147-2.2343639-.6887564-3.4035251.4818074-1.1690375 1.6220429-1.9319547 2.8832441-1.9319815.826779-.0069412 1.6221062.3163341 2.2092414.8980175.5867233.5812752.9169737 1.3724768.9174864 2.1980043.0097209 1.2635205-.744275 2.4081881-1.9096556 2.8990004z"/><path d="m55.3127804 102.608909.0011183.001528c2.1129543 2.904076 5.4909295 4.620794 9.0846484 4.616875.5552431-.000651 1.1097413-.040628 1.6575517-.11937 5.4075068-.807861 9.4368527-5.372088 9.5935281-10.8011077h-22.5021488c.0611527 2.2695807.8153262 4.4692627 2.1653023 6.3020747zm-2.8172692-6.6266624c.0003752-.1786232.1453155-.3232272.3239788-.3232272h23.1588491c.1789771 0 .3240476.1450933.3239796.3240305-.0022385 5.8913171-4.3185273 10.8943251-10.1522318 11.7658531-.5798742.083356-1.1649339.125536-1.7508062.126224-3.8009332.004144-7.3737267-1.811422-9.6088162-4.882847-1.4958676-2.031226-2.3002505-4.4882295-2.2949533-7.0100334z"/><path d="m18.2433776 44.6983755c-1.1487702-4.4737317-5.7096536-7.1708551-10.18841335-6.0247607-3.2810513.8396062-5.73259481 3.5711502-6.21141782 6.9206652-.4788155 3.3494626 1.10931695 6.6572825 4.02386433 8.3808288 2.91469029 1.7236308 6.58175714 1.5232865 9.29091194-.5075806 2.7090092-2.0307581 3.9266092-5.4918322 3.0850549-8.7691527zm.9414109-.241629c.9393744 3.6582678-.4197404 7.5216027-3.443403 9.7882348-3.0235171 2.2665231-7.11593111 2.4901056-10.3687896.5664956-3.2530014-1.9236944-5.02568119-5.6158962-4.49121115-9.3546795.53446253-3.7387307 3.27071838-6.7875051 6.93257834-7.7245585 4.99838071-1.2790631 10.08861081 1.7310946 11.37082541 6.7245076z"/><path d="m109.823986 44.4568045c1.284388-4.9941462 6.375848-8.0038046 11.37546-6.7245077 4.998923 1.2817591 8.011573 6.3694042 6.728894 11.3639317-1.282644 4.9943969-6.374687 8.0043997-11.373681 6.7234556-4.999123-1.2809777-8.012569-6.3681516-6.730673-11.3628796zm6.971979 10.4215817c4.479309 1.14778 9.041817-1.5492047 10.190973-6.023818 1.149122-4.4744827-1.549947-9.0325646-6.028712-10.1809516-4.479859-1.1463028-9.042054 1.5504634-10.19283 6.0248174-1.148344 4.4746249 1.55143 9.0322156 6.030569 10.1799522z"/><path d="m66.4001631 108.17235c-.0167869.1781-.1748062.308873-.352946.29209-.1781397-.016783-.3089421-.174767-.2921553-.352867.0001592-.001689.0001592-.003388 0-.005077-.0032937-.034944-.0008844-.070192.0071335-.104364.6392403-2.724393-.7830833-5.51193-3.3655611-6.595755-2.5825842-1.08387-5.5710758-.147303-7.0711859 2.215972-.0958748.151041-.296067.195779-.4471418.099926-.1510749-.095854-.1958234-.296001-.0999486-.447042 1.6694772-2.630096 4.9951299-3.6723268 7.8690743-2.466177 2.8602299 1.200393 4.4418335 4.27891 3.7557028 7.297276.0000882.022029-.0009024.044061-.0029719.066018z"/></g></g></svg>