<svg xmlns="http://www.w3.org/2000/svg" width="396" height="230" viewBox="0 0 396 230" fill="none"><style>.a{fill-opacity:0.5;fill:#D5F4F2;}.b{fill:#98BAC8;}.c{stroke-linejoin:round;stroke-width:1.5;stroke:#6E7F89;}</style><mask mask-type="alpha" maskUnits="userSpaceOnUse" x="8" y="4" width="388" height="214"><rect x="8" y="4" width="388" height="214" rx="8" fill="white"/></mask><g mask="url(#mask0)"><path d="M16.5 43.2837C33.3447 43.2837 47 29.5649 47 12.6419 47-4.28117 33.3447-18 16.5-18 -0.344679-18-14-4.28117-14 12.6419 -14 29.5649-0.344679 43.2837 16.5 43.2837Z" class="a"/><path d="M283.5 313.535C334.586 313.535 376 271.928 376 220.605 376 169.281 334.586 127.674 283.5 127.674 232.414 127.674 191 169.281 191 220.605 191 271.928 232.414 313.535 283.5 313.535Z" class="a"/><path d="M294 39.2651C294.791 39.2651 295.564 39.5008 296.222 39.9424 296.88 40.384 297.393 41.0116 297.696 41.7459 297.998 42.4802 298.077 43.2882 297.923 44.0677 297.769 44.8473 297.388 45.5633 296.828 46.1253 296.269 46.6873 295.556 47.0701 294.78 47.2251 294.004 47.3802 293.2 47.3006 292.469 46.9965 291.738 46.6923 291.114 46.1772 290.674 45.5164 290.235 44.8555 290 44.0785 290 43.2837 290 42.2179 290.421 41.1958 291.172 40.4422 291.922 39.6885 292.939 39.2651 294 39.2651Z" class="b"/><path d="M298 43.2938C298 44.0886 297.765 44.8655 297.326 45.5264 296.886 46.1872 296.262 46.7023 295.531 47.0064 294.8 47.3106 293.996 47.3902 293.22 47.2351 292.444 47.0801 291.731 46.6973 291.172 46.1353 290.612 45.5733 290.231 44.8573 290.077 44.0777 289.923 43.2982 290.002 42.4902 290.304 41.7559 290.607 41.0216 291.12 40.394 291.778 39.9524 292.436 39.5108 293.209 39.2751 294 39.2751 295.061 39.2751 296.078 39.6985 296.828 40.4522 297.579 41.2058 298 42.228 298 43.2938Z" class="c"/><path d="M79 53.3303C79.7911 53.3303 80.5645 53.566 81.2223 54.0076 81.8801 54.4491 82.3928 55.0768 82.6955 55.8111 82.9983 56.5454 83.0775 57.3534 82.9231 58.1329 82.7688 58.9125 82.3878 59.6285 81.8284 60.1905 81.269 60.7525 80.5563 61.1353 79.7804 61.2903 79.0044 61.4454 78.2002 61.3658 77.4693 61.0616 76.7384 60.7575 76.1136 60.2424 75.6741 59.5816 75.2346 58.9207 75 58.1437 75 57.3489 75 56.2831 75.4214 55.261 76.1716 54.5073 76.9217 53.7537 77.9391 53.3303 79 53.3303Z" class="b"/><path d="M83 57.3589C83 58.1537 82.7654 58.9307 82.3259 59.5916 81.8864 60.2524 81.2616 60.7675 80.5307 61.0716 79.7998 61.3758 78.9956 61.4554 78.2196 61.3003 77.4437 61.1453 76.731 60.7625 76.1716 60.2005 75.6122 59.6385 75.2312 58.9225 75.0769 58.1429 74.9225 57.3634 75.0017 56.5554 75.3045 55.8211 75.6072 55.0868 76.1199 54.4592 76.7777 54.0176 77.4355 53.576 78.2089 53.3403 79 53.3403 80.0609 53.3403 81.0783 53.7637 81.8284 54.5174 82.5786 55.271 83 56.2931 83 57.3589Z" class="c"/><path d="M273 206C273.791 206 274.564 206.236 275.222 206.677 275.88 207.119 276.393 207.746 276.696 208.481 276.998 209.215 277.077 210.023 276.923 210.803 276.769 211.582 276.388 212.298 275.828 212.86 275.269 213.422 274.556 213.805 273.78 213.96 273.004 214.115 272.2 214.035 271.469 213.731 270.738 213.427 270.114 212.912 269.674 212.251 269.235 211.59 269 210.813 269 210.019 269 208.953 269.421 207.931 270.172 207.177 270.922 206.423 271.939 206 273 206Z" class="b"/><path d="M277 210.029C277 210.823 276.765 211.6 276.326 212.261 275.886 212.922 275.262 213.437 274.531 213.741 273.8 214.045 272.996 214.125 272.22 213.97 271.444 213.815 270.731 213.432 270.172 212.87 269.612 212.308 269.231 211.592 269.077 210.813 268.923 210.033 269.002 209.225 269.304 208.491 269.607 207.756 270.12 207.129 270.778 206.687 271.436 206.246 272.209 206.01 273 206.01 274.061 206.01 275.078 206.433 275.828 207.187 276.579 207.941 277 208.963 277 210.029Z" class="c"/><path d="M31 114.614C31.7911 114.614 32.5645 114.85 33.2223 115.291 33.8801 115.733 34.3928 116.36 34.6955 117.095 34.9983 117.829 35.0775 118.637 34.9231 119.417 34.7688 120.196 34.3878 120.912 33.8284 121.474 33.269 122.036 32.5563 122.419 31.7804 122.574 31.0044 122.729 30.2002 122.649 29.4693 122.345 28.7384 122.041 28.1136 121.526 27.6741 120.865 27.2346 120.204 27 119.427 27 118.633 27 117.567 27.4214 116.545 28.1716 115.791 28.9217 115.037 29.9391 114.614 31 114.614Z" class="b"/><path d="M35 118.643C35 119.437 34.7654 120.214 34.3259 120.875 33.8864 121.536 33.2616 122.051 32.5307 122.355 31.7998 122.659 30.9956 122.739 30.2196 122.584 29.4437 122.429 28.731 122.046 28.1716 121.484 27.6122 120.922 27.2312 120.206 27.0769 119.427 26.9225 118.647 27.0017 117.839 27.3045 117.105 27.6072 116.37 28.1199 115.743 28.7777 115.301 29.4355 114.86 30.2089 114.624 31 114.624 32.0609 114.624 33.0783 115.047 33.8284 115.801 34.5786 116.555 35 117.577 35 118.643Z" class="c"/><path d="M367 65.386C367.791 65.386 368.564 65.6217 369.222 66.0632 369.88 66.5048 370.393 67.1324 370.696 67.8667 370.998 68.601 371.077 69.4091 370.923 70.1886 370.769 70.9681 370.388 71.6842 369.828 72.2462 369.269 72.8082 368.556 73.1909 367.78 73.346 367.004 73.501 366.2 73.4215 365.469 73.1173 364.738 72.8131 364.114 72.2981 363.674 71.6372 363.235 70.9764 363 70.1994 363 69.4046 363 68.3388 363.421 67.3166 364.172 66.563 364.922 65.8094 365.939 65.386 367 65.386Z" class="b"/><path d="M371 69.4146C371 70.2094 370.765 70.9864 370.326 71.6472 369.886 72.3081 369.262 72.8231 368.531 73.1273 367.8 73.4315 366.996 73.511 366.22 73.356 365.444 73.2009 364.731 72.8182 364.172 72.2562 363.612 71.6942 363.231 70.9781 363.077 70.1986 362.923 69.419 363.002 68.611 363.304 67.8767 363.607 67.1424 364.12 66.5148 364.778 66.0732 365.436 65.6317 366.209 65.396 367 65.396 368.061 65.396 369.078 65.8194 369.828 66.573 370.579 67.3267 371 68.3488 371 69.4146Z" class="c"/><path d="M98.5293 98.5396V103.081 107.632" class="c"/><path d="M94 103.081H98.53 103.05" class="c"/><path d="M132.529 25.2V29.741 34.292" class="c"/><path d="M128 29.741H132.53 137.05" class="c"/><path d="M339.529 105.572V110.113 114.664" class="c"/><path d="M335 110.113H339.53 344.05" class="c"/><path d="M44.5293 8.1582V12.6992 17.2503" class="c"/><path d="M40 12.6992H44.53 49.05" class="c"/><path d="M352.529 12.1396V16.6807 21.2317" class="c"/><path d="M348 16.6807H352.53 357.05" class="c"/></g></svg>
