<svg xmlns="http://www.w3.org/2000/svg" width="507" height="175"><g fill="none" fill-rule="evenodd" transform="translate(0 1)"><circle cx="17.22" cy="39.94" r="16.91" fill="#D5F4F2"/><circle cx="212.03" cy="53.16" r="8.45" fill="#D5F4F2"/><circle cx="152.31" cy="158.33" r="8.45" fill="#D5F4F2"/><circle cx="19.94" cy="76.52" r="5.77" fill="#D5F4F2"/><circle cx="74.66" cy="54.19" r="19.27" fill="#D5F4F2"/><circle cx="72.31" cy="132.57" r="13.94" fill="#D5F4F2"/><circle cx="63.32" cy="93.44" r="29.19" fill="#D5F4F2"/><path fill="#D5F4F2" d="M80.37 144.2c-.194437 10.451317 5.269998 20.193024 14.290088 25.475618 9.020091 5.282594 20.189733 5.282594 29.209824 0 9.02009-5.282594 14.484525-15.024301 14.290088-25.475618v-1.14c7.486312 1.956216 15.456597.323918 21.571198-4.417738C165.8458 133.900606 169.41091 126.587616 169.38 118.85c0-.52 0-1-.08-1.54 4.775505 3.038864 10.719236 3.601451 15.980095 1.512551 5.260859-2.088899 9.199731-6.575516 10.589905-12.062551a8.529993 8.529993 0 0 0 3.71.85c4.788309 0 8.67-3.881691 8.67-8.67v-.21h26.55V75h-26.58v-.21c-.01037-2.96573-1.537673-5.71989-4.047826-7.29938-2.510153-1.57949-5.654001-1.764608-8.332174-.49062-1.392664-5.485259-5.332546-9.969277-10.593053-12.056057-5.260506-2.08678-11.202824-1.522911-15.976947 1.516057 0-.51.08-1 .08-1.55.027795-7.735862-3.538625-15.045956-9.65278-19.785307-6.114154-4.73935-14.082613-6.370451-21.56722-4.414693v-1.15c-.292991-15.748762-13.143512-28.362436-28.895-28.362436-15.751487 0-28.60201 12.613674-28.895 28.362436"/><path fill="#C4D4DD" d="M505.33 85.71l.24.24a116.000025 116.000025 0 0 1-9.92 8.76c-.64.51-1.3 1-2 1.56s-1.09.85-1.67 1.29l-1.58 1.17-2.37 1.7-1.87 1.3-1.93 1.27c-.44.3-.89.58-1.35.88-.46.3-.9.58-1.37.87-.5-6-.77-12.33-.77-18.82s.27-12.8.77-18.81c.47.3.93.58 1.37.88.44.3.91.57 1.35.87l1.3.87c2.15 1.45 4.16 2.88 6 4.25l1.08.82 1.05.8 1.93 1.51c.65.53 1.27 1 1.86 1.53.3.23.58.47.85.7 2.32 1.94 4.11 3.57 5.35 4.73l.63.59c.37.35.66.64.87.85l.18.19z"/><path fill="#98BAC8" d="M484.23 103l1.94-1.29c-.63.45-1.28.88-1.94 1.29zM482.88 103.9c-.44.29-.9.58-1.37.87.49-.29.93-.58 1.37-.87zM426 49.28c21.59 0 41.15 8.85 55.48 17.86-.5 6-.77 12.32-.77 18.81 0 6.49.27 12.8.77 18.82-14.33 9-33.89 17.87-55.48 17.87V49.28z"/><path fill="#FF7C6E" fill-rule="nonzero" d="M426 49.28v73.36h-98V49.28h98zM405.44 86c.028335-8.123867-4.843558-15.463574-12.340916-18.592096-7.497357-3.128523-16.141278-1.42874-21.895781 4.305693-5.754504 5.734432-7.484476 14.372362-4.382168 21.880604C369.923443 101.102443 377.246083 105.999951 385.37 106c11.057076.000067 20.031435-8.942992 20.07-20z"/><path fill="#80B5BC" fill-rule="nonzero" d="M385.37 65.89c11.079143.000022 20.06261 8.977553 20.069956 20.056693.007345 11.07914-8.964209 20.068576-20.043342 20.083289C374.31748 106.044696 365.322081 97.079122 365.3 86c-.010622-5.329822 2.099199-10.444987 5.864206-14.217498 3.765007-3.77251 8.875961-5.892513 14.205794-5.892502zM398.14 86c-.000002-5.169937-3.114832-9.83062-7.891618-11.808134-4.776787-1.977514-10.274476-.882277-13.928743 2.77485-3.654266 3.657129-4.745199 9.155674-2.763947 13.930911 1.981252 4.775237 6.644372 7.886418 11.814308 7.882373 3.388548.000001 6.638164-1.346778 9.033291-3.743781C396.798418 92.639216 398.142654 89.388547 398.14 86z"/><circle cx="385.37" cy="85.95" r="12.78" fill="#D5F4F2"/><path fill="#98BAC8" d="M336.33 49.28h-89.72V9.4s59.02 0 89.72 39.88zM328 122.64h8.37c-30 38.93-86.95 39.85-89.61 39.86h-.11v-39.86H328zM327.96 49.28v73.36h-30.97V49.28z"/><path fill="#C4D4DD" d="M296.99 87.69v34.95h-50.37V87.69zM296.99 49.28v38.41h-50.37V49.28z"/><path fill="#80B5BC" d="M246.61 87.69v29.24l-3.1-1.59c-1.028309-.527322-1.676427-1.584372-1.68-2.74V59.31c.003573-1.155628.651691-2.212678 1.68-2.74l3.1-1.6v32.72z"/><path fill="#E6EDF2" d="M190.25 78.59c2.579427.11746 4.610284 2.2429 4.610284 4.825s-2.030857 4.70754-4.610284 4.825h-22.72c-2.579427-.11746-4.610284-2.2429-4.610284-4.825s2.030857-4.70754 4.610284-4.825h22.72z"/><path fill="#FFF" d="M148.29 118.62c2.209139 0 4 1.790861 4 4s-1.790861 4-4 4-4-1.790861-4-4 1.790861-4 4-4z"/><path fill="#E6EDF2" d="M144.35 11.76c2.50185 0 4.53 2.02815 4.53 4.53s-2.02815 4.53-4.53 4.53h-7.52a28.37999 28.37999 0 0 0-4.8-9.06h12.32z"/><path fill="#98BAC8" d="M142 54.81c2.209139 0 4 1.790861 4 4s-1.790861 4-4 4-4-1.790861-4-4 1.790861-4 4-4z"/><path fill="#E6EDF2" d="M136.83 20.82H119.4c-2.49568-.005473-4.519012-2.024338-4.53-4.52.010906-2.498946 2.031084-4.523583 4.53-4.54H132a28.379989 28.379989 0 0 1 4.83 9.06z"/><path fill="#98BAC8" d="M108.97 126.77l8.47 12.16h-16.93z"/><path fill="#C4D4DD" d="M115.14 71.07c.515053.464068.80634 1.126748.8 1.82-.003093.691852-.305842 1.348417-.83 1.8l-8.9 7.87c-.444043.385538-1.011943.5985-1.6.6-.695641.007752-1.360135-.287984-1.82-.81-.426396-.481039-.643887-1.111958-.60449-1.753565.039397-.641607.332444-1.241178.81449-1.666435l6.87-6.07-6.68-6.06c-.641292-.582343-.923194-1.462575-.739516-2.309122.183678-.846546.805031-1.530796 1.63-1.795.82497-.264203 1.728224-.068221 2.369516.514122l8.69 7.86z"/><path fill="#98BAC8" d="M98.75 61.39a3.43 3.43 0 0 1-.36 1.44L87.77 85.71c-.66183.922428-1.89771 1.223966-2.91.71-.814151-.38686-1.332128-1.208613-1.33-2.11a2.28 2.28 0 0 1 .21-1l10.63-22.88c.538917-1.167607 1.921892-1.67783 3.09-1.14.811053.379277 1.318341 1.205095 1.29 2.1z"/><path fill="#E6EDF2" d="M80.46 103.79l5.81 10.05-5.81 10.05H68.85l-5.8-10.05 5.8-10.05z"/><path fill="#FFF" d="M80.36 30.27c2.610597-.004044 4.9662 1.565963 5.967101 3.977069 1.000902 2.411106.449703 5.187789-1.39627 7.033762-1.845973 1.845973-4.622656 2.397172-7.033762 1.39627-2.411106-1.0009-3.981113-3.356504-3.977069-5.967101.005506-3.55443 2.88557-6.434494 6.44-6.44z"/><path fill="#C4D4DD" d="M79.53 78.93c.752241.667594 1.013154 1.73087.655386 2.670844-.357767.939974-1.25963 1.560682-2.265386 1.559156-.591338.000008-1.162891-.212994-1.61-.6l-8.91-7.87c-.517503-.459271-.813669-1.11809-.813669-1.81s.296166-1.350729.813669-1.81l8.69-7.86c.991351-.900224 2.524776-.826351 3.425.165.900224.991351.826351 2.524776-.165 3.425l-6.69 6.06 6.87 6.07z"/><path stroke="#6E7F89" stroke-linecap="round" stroke-linejoin="round" stroke-width="1.5" d="M336.33 49.28h89.7M426.03 122.64h-89.7M505.15 85.54l.18.17M503.65 84.1l.63.59M497.45 78.67c.3.23.58.47.85.7M493.66 75.63c.68.52 1.32 1 1.93 1.51M491.53 74l1.08.82M484.23 68.89c.44.28.87.58 1.3.87M482.88 103.9c-.44.29-.9.58-1.37.87-14.33 9-33.89 17.87-55.48 17.87V49.28c21.59 0 41.15 8.85 55.48 17.86.47.28.93.58 1.37.88M486.17 101.73c-.63.43-1.28.86-1.94 1.29M490.41 98.73c-.76.56-1.55 1.12-2.37 1.7M495.65 94.71c-.64.51-1.3 1-2 1.56s-1.11.86-1.67 1.29M385.37 65.89c-11.079143.000022-20.06261 8.977553-20.069956 20.056693-.007345 11.07914 8.964209 20.068576 20.043342 20.083289C396.42252 106.044696 405.417919 97.079122 405.44 86c.010622-5.329822-2.099199-10.444987-5.864206-14.217498-3.765007-3.77251-8.875961-5.892513-14.205794-5.892502z"/><circle cx="385.37" cy="85.95" r="12.78" stroke="#6E7F89" stroke-linecap="round" stroke-linejoin="round" stroke-width="1.5"/><path stroke="#6E7F89" stroke-linecap="round" stroke-linejoin="round" stroke-width="1.5" d="M481.51 104.77c-.5-6-.77-12.33-.77-18.82s.27-12.8.77-18.81c.47.3.93.58 1.37.88.44.3.91.57 1.35.87l1.3.87c2.15 1.45 4.16 2.88 6 4.25l1.08.82 1.05.8 1.93 1.51c.65.53 1.27 1 1.86 1.53.3.23.58.47.85.7 2.32 1.94 4.11 3.57 5.35 4.73l.63.59c.37.35.66.64.87.85l.18.17.24.24a116.000025 116.000025 0 0 1-9.92 8.76c-.64.51-1.3 1-2 1.56s-1.09.85-1.67 1.29l-1.58 1.17-2.37 1.7-1.87 1.3-1.93 1.27c-.44.3-.89.58-1.35.88-.46.3-.88.6-1.37.89zM296.99 122.64V49.28M246.61 116.93l-3.1-1.59c-1.028309-.527322-1.676427-1.584372-1.68-2.74V59.31c.003573-1.155628.651691-2.212678 1.68-2.74l3.1-1.6v62-.04zM336.33 122.64h-89.72v39.86h.11c2.66-.01 59.63-.93 89.61-39.86zM328 49.28h8.37C305.67 9.4 246.65 9.4 246.65 9.4v39.88M234.8 75.01h-26.58M132 11.76c-7.586324-9.726246-20.511088-13.563023-32.175544-9.551461C88.159999 6.2201 80.329169 17.195002 80.33 29.53M208.22 74.8c0-4.788309-3.881691-8.67-8.67-8.67a8.53 8.53 0 0 0-3.71.85c-1.392993-5.487486-5.333838-9.97367-10.596016-12.062307C179.981805 52.829056 174.037081 53.39151 169.26 56.43c0-.52.09-1 .09-1.54.047142-7.743418-3.513801-15.06731-9.633052-19.812573C153.597697 30.332166 145.61789 28.706618 138.13 30.68v-1.15a29.160014 29.160014 0 0 0-1.33-8.71M234.8 98.73h-26.58M208.220005 98.94c.003323 2.97284-1.518459 5.739598-4.03095 7.328678-2.512492 1.58908-5.664468 1.778341-8.349055.501322-1.399359 5.483008-5.341476 9.963361-10.601758 12.049266-5.260283 2.085906-11.201571 1.524707-15.978242-1.509266 0 .51.09 1 .09 1.55.027795 7.735862-3.538625 15.045956-9.65278 19.785307-6.114154 4.73935-14.082613 6.370451-21.56722 4.414693v1.14c0 15.961029-12.938971 28.9-28.9 28.9-15.96103 0-28.9-12.938971-28.9-28.9"/><path stroke="#6E7F89" stroke-linejoin="round" stroke-width="1.5" d="M152.31 122.64c0 2.209139-1.790861 4-4 4s-4-1.790861-4-4 1.790861-4 4-4 4 1.790861 4 4zM146 58.82c0 2.209139-1.790861 4-4 4s-4-1.790861-4-4 1.790861-4 4-4 4 1.790861 4 4zM86.82 36.71c.005519 3.56223-2.877764 6.454463-6.439995 6.459984-3.56223.005522-6.454465-2.877759-6.45999-6.43999C73.914492 33.167765 76.79777 30.275528 80.36 30.27c3.559964-.000017 6.448978 2.880053 6.46 6.44zM190.25 88.24h-22.72c-2.579427-.11746-4.610284-2.2429-4.610284-4.825s2.030857-4.70754 4.610284-4.825h22.72c2.579427.11746 4.610284 2.2429 4.610284 4.825s-2.030857 4.70754-4.610284 4.825z"/><path stroke="#6E7F89" stroke-linecap="round" stroke-linejoin="round" stroke-width="1.5" d="M98.39 62.83L87.77 85.71c-.66183.922428-1.89771 1.223966-2.91.71-.814151-.38686-1.332128-1.208613-1.33-2.11a2.28 2.28 0 0 1 .21-1l10.63-22.88c.538917-1.167607 1.921892-1.67783 3.09-1.14.80426.37636 1.310279 1.192266 1.29 2.08a3.43 3.43 0 0 1-.36 1.46zM77.92 83.16c-.591338.000008-1.162891-.212994-1.61-.6l-8.91-7.87c-.517503-.459271-.813669-1.11809-.813669-1.81s.296166-1.350729.813669-1.81l8.69-7.86c.991351-.900224 2.524776-.826351 3.425.165.900224.991351.826351 2.524776-.165 3.425l-6.69 6.06 6.88 6.07c.752241.667594 1.013154 1.73087.655386 2.670844-.357767.939974-1.25963 1.560682-2.265386 1.559156h-.01zM104.61 83.16c.588057-.0015 1.155957-.214462 1.6-.6l8.9-7.87c.524158-.451583.826907-1.108148.83-1.8.00634-.693252-.284947-1.355932-.8-1.82l-8.69-7.86c-.641292-.582343-1.544546-.778325-2.369516-.514122-.824969.264204-1.446322.948454-1.63 1.795-.183678.846547.098224 1.72678.739516 2.309122l6.68 6.06-6.87 6.07c-.482046.425257-.775093 1.024828-.81449 1.666435-.039397.641607.178094 1.272526.60449 1.753565.459865.522016 1.124359.817752 1.82.81z"/><path stroke="#6E7F89" stroke-linejoin="round" stroke-width="1.5" d="M108.97 126.77l-8.46 12.16h16.93z"/><path stroke="#6E7F89" stroke-linecap="round" stroke-linejoin="round" stroke-width="1.5" d="M140.93 83.16v9.05M136.4 87.69h9.05M58.8 143.16v9.03M54.28 147.67h9.05M178.89 32.79v9.05M174.36 37.31h9.05"/><path stroke="#6E7F89" stroke-linejoin="round" stroke-width="1.5" d="M132 11.76h12.32c2.50185 0 4.53 2.02815 4.53 4.53s-2.02815 4.53-4.53 4.53H119.4c-2.49568-.005473-4.519012-2.024338-4.53-4.52.010906-2.498946 2.031084-4.523583 4.53-4.54H132zM80.46 103.79H68.85l-5.8 10.05 5.8 10.05h11.61l5.81-10.05z"/><path stroke="#6E7F89" stroke-linecap="round" stroke-linejoin="round" stroke-width="1.5" d="M296.99 87.69h-50.38"/><path fill="#FFF" d="M112.81 98.93h8.05v8.06h-8.05z"/><path stroke="#6E7F89" stroke-linecap="round" stroke-linejoin="round" stroke-width="1.5" d="M112.81 98.93h8.05v8.06h-8.05z"/><path fill="#E6EDF2" d="M25.28 47.17h14.04v14.04H25.28z"/><path stroke="#6E7F89" stroke-linecap="round" stroke-linejoin="round" stroke-width="1.5" d="M25.28 47.17h14.04v14.04H25.28z"/><path fill="#98BAC8" d="M24.42 101.05c2.587604.005523 4.68183 2.105717 4.679988 4.693326-.00184 2.587609-2.099053 4.684821-4.686662 4.686662-2.587609.001841-4.687803-2.092384-4.693326-4.679988 0-1.246518.495177-2.441981 1.376598-3.323402S23.173482 101.05 24.42 101.05z"/><path stroke="#6E7F89" stroke-linecap="round" stroke-linejoin="round" stroke-width="1.5" d="M29.12 105.75c0 2.595738-2.104262 4.7-4.7 4.7-2.595738 0-4.7-2.104262-4.7-4.7 0-2.595738 2.104262-4.7 4.7-4.7 1.246517 0 2.44198.495177 3.323402 1.376598.88142.881421 1.376598 2.076884 1.376598 3.323402z"/><path fill="#C4D4DD" d="M47.21 100.94a3.369998 3.369998 0 0 1-.35 1.44l-10.59 22.79c-.662705.908411-1.88507 1.204485-2.89.7-.831967-.374208-1.370618-1.197798-1.38-2.11a2.22 2.22 0 0 1 .22-1L42.85 100c.550177-1.14999 1.919651-1.647981 3.08-1.12.800808.368253 1.304523 1.17892 1.28 2.06z"/><path stroke="#6E7F89" stroke-linecap="round" stroke-linejoin="round" stroke-width="1.5" d="M46.86 102.38l-10.59 22.79c-.662705.908411-1.88507 1.204485-2.89.7-.831967-.374208-1.370618-1.197798-1.38-2.11a2.22 2.22 0 0 1 .22-1L42.85 100c.550177-1.14999 1.919651-1.647981 3.08-1.12.80423.369682 1.308595 1.185334 1.28 2.07a3.370002 3.370002 0 0 1-.35 1.43z"/><g opacity=".07" style="mix-blend-mode:multiply" fill="#000"><path d="M426 122.63H246.62v-14.27H426c43.93 0 79.54-22.41 79.54-22.41S470 122.63 426 122.63z"/><path d="M505.57 86S470 63.55 426 63.55H246.62V49.27H426c44 0 79.57 36.73 79.57 36.73z"/></g><path fill="#E6EDF2" stroke="#6E7F89" stroke-linejoin="round" stroke-width="1.5" d="M246.62 43.16v85.16"/><path fill="#C4D4DD" stroke="#6E7F89" stroke-linejoin="round" stroke-width="1.5" d="M236.55 64.38h5.28v42.28h-5.28c-2.209139 0-4-1.790861-4-4V68.35c.016481-2.197414 1.802524-3.970062 4-3.97z"/><path fill="#000" d="M237.21 63.76h3.69v43.67h-3.69z" opacity=".08"/><path stroke="#6E7F89" stroke-linecap="round" stroke-linejoin="round" stroke-width="1.5" d="M246.62 49.27h95.39M327.95 122.63V49.27"/><path stroke="#6E7F89" stroke-linejoin="round" stroke-width="1.5" d="M256.4 48.9v74.08M266.4 48.9v74.08M276.4 48.9v74.08M286.4 49.9v74.08"/></g></svg>
