<svg xmlns="http://www.w3.org/2000/svg" viewBox="0 0 455.73 455.73"><path fill="#50abf1" d="M0 0h455.73v455.73H0z"/><path fill="#fff" d="M60.38 337.82a195.17 195.17 0 00104.87 30.37c108.35 0 196.18-87.84 196.18-196.18 0-2.7-.05-5.39-.16-8.07 3.92-3.08 28.16-22.5 34.1-35 0 0-19.68 8.18-38.95 10.11h-.12s.04-.01.1-.06c1.78-1.18 26.6-18.08 29.95-38.2 0 0-13.92 7.43-33.41 13.93-3.23 1.07-6.6 2.12-10.09 3.1a68.64 68.64 0 00-50.25-21.78 68.82 68.82 0 00-67.06 84.4c-5.31-.22-86.23-4.76-141.28-71.43 0 0-32.9 44.92 19.6 91.1 0 0-15.96-.63-29.73-8.86 0 0-5.06 54.42 54.4 68.33 0 0-11.7 4.43-30.36 1.27 0 0 10.44 43.97 63.27 48.08 0 0-41.78 37.74-101.08 28.89h.02z"/></svg>
