<svg viewBox="0 0 123 124" version="1" xmlns="http://www.w3.org/2000/svg"><g transform="translate(2 2)" fill="none" fill-rule="evenodd"><ellipse fill="#FFF" cx="60" cy="60" rx="60" ry="60"/><path d="M60 121A61 61 0 1 1 60-1a61 61 0 0 1 0 122zm0-2A59 59 0 1 0 60 1a59 59 0 0 0 0 118z" fill="#80B5BC" fill-rule="nonzero"/><g transform="translate(24 22)"><path fill="#80B5BC" d="M6 23H3l-2 2v14l2 1h3l-1-9zM67 23h3l2 2v14l-2 1h-3l1-9z"/><path d="M16 69h42l3-2 3-7 2-18v-8l-1-12-5-10-12-8-12-3-10 2-9 5-8 9-3 8 1 18 2 17 2 7 5 2z" fill="#CDD9E0"/><ellipse fill="#D4F4F2" cx="36" cy="32" rx="26" ry="24"/><path fill="#FF7C6E" d="M25 69l4-14 3-4h5l3 1 3 6 3 11z"/><path d="M33 57h5l1-1-1-1h-5l-1 1 1 1zM33 61h5l1-1h-7l1 1zM33 65h5l1-1-1-1h-5l-1 1 1 1zM36 15h-2l-1 1 1 1h2l1-1-1-1zM31 16l-3 1-1 1h1l3-1 1-1h-1zM25 19c-5 3-8 9-8 15a1 1 0 1 0 2 0c0-5 2-11 7-14v-1h-1z" fill="#6E7F89" fill-rule="nonzero"/><path d="M68 21h-2a32 32 0 0 0-60 0H5V10a3 3 0 1 0-2 0v12c-2 0-3 2-3 4v11c0 3 2 5 4 5h1l3 21c0 4 4 7 8 7h40c4 0 8-3 8-7l3-21h1c2 0 4-2 4-5V26c0-3-2-5-4-5zM4 6a1 1 0 1 1 0 2 1 1 0 0 1 0-2zm0 33l-2-2V26l2-2h1v15H4zm39 15a8 8 0 0 0-15 0c-9-1-16-9-16-18v-2a24 24 0 0 1 48 0v2c0 10-8 17-17 18zm-13 2a6 6 0 0 1 11 0l4 12H27l3-12zm32 6c0 4-3 6-6 6h-9l-3-12c10-1 18-9 18-20v-2a26 26 0 0 0-52 0v2c0 10 7 19 18 20l-4 12h-8c-3 0-6-2-6-6L7 35a29 29 0 1 1 58 0l-3 27zm8-25l-2 2h-1v-4-11h1l2 2v11z" fill="#6E7F89" fill-rule="nonzero"/></g></g></svg>
