<svg viewBox="0 0 123 124" version="1" xmlns="http://www.w3.org/2000/svg"><g transform="translate(2 2)" fill="none" fill-rule="evenodd"><ellipse fill="#FFF" cx="60" cy="60" rx="60" ry="60"/><path d="M60 121A61 61 0 1 1 60-1a61 61 0 0 1 0 122zm0-2A59 59 0 1 0 60 1a59 59 0 0 0 0 118z" fill="#80B5BC" fill-rule="nonzero"/><path d="M75 79l4 16a1 1 0 0 1-1 2H42a2 2 0 0 1-1-2l4-16 1-1h28l1 1z" fill="#CDD9E0"/><path d="M46 80l-3 15h34l-4-15H46zm29-1l4 16a1 1 0 0 1-1 2H42a2 2 0 0 1-1-2l4-16 1-1h28l1 1z" fill="#6E7F89" fill-rule="nonzero"/><g transform="translate(34 17)"><path d="M17 12l5 2h6l6-2 2 6 3 11v8l-3 13-5 10-1 1h-5l-4-1-5-8-3-7-2-13 3-13 3-7z" fill="#D4F4F2"/><path fill="#FF7C6E" d="M14 47l6 2h10l8-2-3 7-4 6-4 2-6-2-4-5-3-7z"/><path fill="#C3D4DD" d="M11 34l-4 1-4 4-2 6 1 6 2 3h1l6-5 3-2-2-9zM40 34l4 1 4 4 2 6-1 6-2 3h-1l-6-5-3-2 2-9z"/><ellipse fill="#FF7C6E" cx="26" cy="31" rx="6" ry="6"/><path fill="#80B5BC" d="M25 2l5 5 4 6-6 1h-6l-5-2z"/><path d="M26 38a7 7 0 1 0 0-14 7 7 0 0 0 0 14zm0-12a5 5 0 1 1 0 10 5 5 0 0 1 0-10z" fill="#6E7F89" fill-rule="nonzero"/><path d="M45 54l2 1 2-1c4-6 3-13-2-18l-7-3c0-12-5-23-14-32V0l-1 1c-9 9-14 20-14 32l-6 3c-5 5-6 12-3 18l2 1h1l2-1 6-6 6 12c1 2 4 2 7 2 1 0 5 0 6-2 3-3 5-8 6-12l7 6zm2-1h-1l-8-7h1v-4l1-7c2 0 4 1 5 3 4 4 5 10 2 15zM26 3l6 9c-4 2-9 2-13 0l7-9zm-8 10c5 3 11 3 15 0a42 42 0 0 1 4 32c-7 4-16 4-23 0v-3c-2-10-1-20 4-29zM5 53l-1-1c-3-4-2-11 2-14l5-4a56 56 0 0 0 2 11h-1l1 1-8 7zm25 6l-4 2-5-2-6-12c7 4 15 4 21 0-1 5-3 9-6 12z" fill="#6E7F89" fill-rule="nonzero"/></g></g></svg>
