<svg height="396.29401" viewBox="10637.101 3889.342 378.04564 396.29402" width="378.04565" xmlns="http://www.w3.org/2000/svg" xmlns:xlink="http://www.w3.org/1999/xlink"><clipPath id="a"><path d="m400.2 431.361h-60.6v-43.1a30.387 30.387 0 0 1 30.358-30.361 30.387 30.387 0 0 1 30.358 30.358v43.1z" transform="translate(-339.6 -357.9)"/></clipPath><g stroke="#6e7f89" stroke-linejoin="round" stroke-miterlimit="10" stroke-width="1.2"><circle cx="10939.308" cy="4054.94001" fill="#f1f2f2" r="3.013" stroke-linecap="round"/><path d="m381.079 323.813h-61.179v-42.524a30.56 30.56 0 0 1 30.589-30.589 30.56 30.56 0 0 1 30.589 30.589z" fill="#e6edf2" transform="translate(10493.227 3639.24201)"/><g fill="none"><path d="m10868.165 3921.57401h-3.013000000001"/><path d="m10823.092 3921.57401h-3.013000000001"/><path d="m10865.036 3909.75601-2.549000000001 1.506"/><path d="m10825.293 3912.18801-2.665000000001-1.39"/><path d="m10830.507 3905.46801-1.969999999999-2.317"/><path d="m10856.693 3900.95001-1.621999999999 2.665"/><path d="m10837.575 3898.40001.927 2.897"/><path d="m10846.845 3897.58901-.348 3.013"/></g><path d="m466.389 582.318v-144.718a19.681 19.681 0 0 0 -19.7-19.7h-102.889v164.3z" fill="#e6edf2" transform="translate(10497.019 3665.77501)"/><path d="m0 0h19.813999v10.544h-19.813999z" fill="#98bac8" transform="matrix(-1 0 0 -1 10916.046 4111.77601)"/><path d="m391.592 439.3h-69.406a26.159 26.159 0 0 0 -26.186 26.186v111h134.292a17.06 17.06 0 0 0 17.033-17.033v-87.478a32.637 32.637 0 0 0 -32.675-32.675z" fill="#c4d4dd" transform="translate(10489.434 3669.17101)"/><path d="m408.005 406h4.4a10.335 10.335 0 0 0 10.312-10.312v-43.455a35.6 35.6 0 0 0 -35.456-35.456h-69.861s-20.625 1.043-24.8-20.277v99.184a10.335 10.335 0 0 0 10.312 10.316z" fill="#80b5bc" transform="translate(10488.894 3646.51001)"/><path d="m316.546 530.835h61.294a5.44 5.44 0 0 0 5.446-5.446v-47.043a5.44 5.44 0 0 0 -5.446-5.446h-61.294a5.44 5.44 0 0 0 -5.446 5.446v47.043a5.44 5.44 0 0 0 5.446 5.446z" fill="#ff7c6e" transform="translate(10491.83 3674.50301)"/><path d="m316.562 524.693h61.179a5.563 5.563 0 0 0 5.562-5.562v-7.531h-72.303v7.531a5.638 5.638 0 0 0 5.562 5.562z" fill="#80b5bc" transform="translate(10491.814 3680.64401)"/><path d="m337.454 504.313c.7 1.043 1.39 1.97 2.086 2.9a.526.526 0 0 0  .579 0c1.043-.464 2.086-1.043 3.129-1.506a.744.744 0 0 1 1.043.116c.579.464 1.159.927 1.854 1.39a.813.813 0 0 1  .463 1.043c-.232 1.274-.463 2.549-.579 3.824 1.275.464 2.433.811 3.708 1.275.579-1.159 1.275-2.317 1.854-3.476a.875.875 0 0 1  .811-.464h2.549a.637.637 0 0 1  .579.348c.7 1.159 1.275 2.433 1.97 3.708 1.159-.348 2.317-.7 3.476-1.159.116 0 .232-.232.232-.463-.116-1.275-.348-2.433-.463-3.708 0-.348 0-.463.232-.7.7-.464 1.39-1.043 2.086-1.506a.435.435 0 0 1  .7 0c1.159.7 2.433 1.275 3.592 1.97.811-1.043 1.622-2.086 2.317-3.129-.927-.927-1.738-1.854-2.665-2.781a.9.9 0 0 1 -.232-1.159 16.891 16.891 0 0 0  .811-2.2.9.9 0 0 1  .464-.464c1.159-.116 2.433-.348 3.592-.579a.547.547 0 0 0  .579-.579v-2.9c0-.348-.116-.579-.463-.579-1.159-.232-2.317-.463-3.476-.579a.547.547 0 0 1 -.579-.579c-.232-.811-.463-1.506-.7-2.317a.727.727 0 0 1  .232-.927l2.781-2.781c-.7-1.043-1.39-1.97-2.086-2.9a.526.526 0 0 0 -.579 0c-1.043.464-2.086.927-3.128 1.506a.6.6 0 0 1 -.927-.116c-.579-.464-1.159-.927-1.854-1.39-.463-.232-.463-.579-.348-1.043.232-1.275.463-2.549.579-3.824-1.275-.464-2.433-.811-3.708-1.275-.579 1.159-1.275 2.317-1.854 3.476a.875.875 0 0 1 -.811.464h-2.549c-.232 0-.463-.116-.463-.348-.7-1.159-1.275-2.433-1.97-3.708-1.159.348-2.317.7-3.476 1.159-.116 0-.232.232-.232.463.116 1.275.348 2.433.463 3.708 0 .348 0 .464-.232.7-.7.464-1.39 1.043-2.086 1.506a.434.434 0 0 1 -.7 0c-1.159-.7-2.433-1.275-3.592-1.97-.811 1.043-1.622 2.086-2.317 3.128.927.927 1.738 1.854 2.665 2.781a.9.9 0 0 1  .232 1.159c-.348.811-.463 1.275-.811 2.317a.517.517 0 0 1 -.463.348c-1.159.232-2.433.348-3.592.579-.348.116-.579.232-.579.579v2.9c0 .348.116.463.463.579a33.217 33.217 0 0 0 3.592.579.547.547 0 0 1  .579.579c.232.811.464 1.506.7 2.317a.726.726 0 0 1 -.232.927 20.159 20.159 0 0 0 -3.246 2.781z" fill="#c4d4dd" transform="translate(10495.718 3675.18501)"/><path d="m346.141 495.487a6.022 6.022 0 0 1 3.94-7.647 6.083 6.083 0 1 1 3.708 11.587 6.066 6.066 0 0 1 -7.648-3.94z" fill="#ff7c6e" transform="translate(10497.343 3676.82701)"/><circle cx="10865.036" cy="4198.50101" fill="#e6edf2" r="2.549"/><path d="m0 0h11.239v4.866h-11.239z" fill="#c4d4dd" transform="matrix(-1 0 0 -1 10857.157 4201.05401)"/><path d="m408.908 487.833v57.934h-57.008v30.821h69.753a16.689 16.689 0 0 0 16.685-16.688v-87.6a32.884 32.884 0 0 0 -32.907-32.9h-25.954" fill="none" transform="translate(10498.305 3669.18701)"/><path d="m177.19 596.979h346.8a8.753 8.753 0 0 0 8.69-8.69v-21.9a8.753 8.753 0 0 0 -8.69-8.69h-346.8a8.753 8.753 0 0 0 -8.69 8.69v21.9a8.678 8.678 0 0 0 8.69 8.69z" fill="#98bac8" stroke-linecap="round" transform="translate(10469.201 3687.96001)"/><path d="m10771.53 4245.77601h-52.605" fill="none"/><path d="m329.5 541.049a12.55 12.55 0 0 1 12.282-9.849h13.672v9.733z" fill="#f8e3d5" transform="translate(10494.75 3683.75501)"/><circle cx="10973.953" cy="4259.79601" fill="#c4d4dd" r="3.824"/><path d="m410.176 574.263h42.64a3.486 3.486 0 0 0 3.476-3.476v-.811a3.486 3.486 0 0 0 -3.476-3.476h-42.64a3.486 3.486 0 0 0 -3.476 3.476v.811a3.486 3.486 0 0 0 3.476 3.476z" fill="#e6edf2" transform="translate(10507.001 3689.35601)"/><path d="m0 0h164.186v98.720001h-164.186z" fill="#e6edf2" stroke-linecap="round" transform="matrix(-1 0 0 -1 10823.956 4224.81601)"/><path d="m181.8 560.672h197.093v-20.972h-197.093z" fill="#e6edf2" transform="translate(10471.312 3685.10301)"/><circle cx="10730.28" cy="4175.44301" fill="#c4d4dd" r="10.428"/><path d="m365.9 456.049h-28.273a32.34 32.34 0 0 1 -32.327-32.327v-61.295a32.34 32.34 0 0 1 32.327-32.327h36.035a32.34 32.34 0 0 1 32.327 32.327v49.708c0 2.549-.116 5.1-.232 7.647l-.463 6.257c-1.159 16.106-13.9 29.2-30.01 30.01h-29.893" fill="#f8e3d5" transform="translate(10490.91 3651.84201)"/></g><circle cx="10808.607" cy="4060.73301" fill="#6e7f89" r="5.098"/><circle cx="10869.207" cy="4060.38501" fill="#6e7f89" r="5.098"/><g stroke="#6e7f89" stroke-linejoin="round" stroke-miterlimit="10" stroke-width="1.2"><path d="m372.52 330.1h-34.877a32.39 32.39 0 0 0 -32.443 32.443v15.411h56.312a42.768 42.768 0 0 0 19-4.4 34.836 34.836 0 0 0 13.441-11.819l8.922-12.861a37.146 37.146 0 0 0 -5.909-8.343 32.986 32.986 0 0 0 -24.446-10.431z" fill="#80b5bc" transform="translate(10490.894 3651.84201)"/><path d="m10907.212 4101.287011000001v-30.242001" fill="none"/><circle cx="10907.328" cy="4065.83101" fill="#ff7c6e" r="5.33"/><path d="m356.05 304.1a26.188 26.188 0 0 1  .116-3.013 13.691 13.691 0 0 1 3.824-7.879 15.926 15.926 0 0 0 4.287-8.574 14.845 14.845 0 0 0 -2.9-11.587 16.393 16.393 0 0 0 -9.617-6.489c-1.159-.232-2.2-.348-3.129-.463-7.068.463-12.166 3.476-14.947 9.849-2.549 6.141-1.506 11.935 2.9 16.917a16.825 16.825 0 0 1 3.94 7.184c.232.927.463 3.013.579 4.055z" fill="#fdae76" transform="translate(10495.198 3641.68601)"/><path d="m340.186 305.968h14.484a2.077 2.077 0 0 0 2.086-2.086v-2.9a2.077 2.077 0 0 0 -2.086-2.086h-14.484a2.077 2.077 0 0 0 -2.086 2.086v2.9a2.077 2.077 0 0 0 2.086 2.086z" fill="#98bac8" transform="translate(10496.115 3646.89101)"/><path d="m340.086 312.068h14.484a2.077 2.077 0 0 0 2.086-2.086v-2.9a2.077 2.077 0 0 0 -2.087-2.082h-14.483a2.077 2.077 0 0 0 -2.086 2.086v2.9a2.077 2.077 0 0 0 2.086 2.082z" fill="#98bac8" transform="translate(10496.099 3647.85901)"/><path d="m10843.716 3945.79101v-17.844" fill="none"/><path d="m10825.756 3934.20401-2.665000000001 1.506" fill="none"/><path d="m10865.615 3934.66701-2.665000000001-1.39" fill="none"/><path d="m429.193 466.069c.579 2.549-5.1 2.433-7.879 2.2-8.458-.811-14.715-8.922-13.9-17.38a15.528 15.528 0 0 1 3.708-8.69s13.9 4.288 18.071 23.87z" fill="#80b5bc" transform="translate(10507.102 3669.63101)"/><path d="m0 0h6.489v14.136h-6.489z" fill="#e6edf2" stroke-linecap="round" transform="matrix(-1 0 0 -1 10886.553 4245.76301)"/><path d="m0 0h6.489v14.136h-6.489z" fill="#e6edf2" stroke-linecap="round" transform="matrix(-1 0 0 -1 10871.584 4245.60301)"/><circle cx="10895.393" cy="4237.664010000001" fill="#80b5bc" r="3.128"/><path d="m0 0h87.364998v22.363001h-87.364998z" fill="#c4d4dd" transform="matrix(-1 0 0 -1 10735.248 4276.69301)"/><path d="m10717.535 4254.23401v22.363001" fill="none"/><path d="m242.5 572.9h6.952a2.2 2.2 0 0 0 2.2-2.2 2.2 2.2 0 0 0 -2.2-2.2h-6.952a2.2 2.2 0 0 0 -2.2 2.2 2.2 2.2 0 0 0 2.2 2.2z" fill="#ff7c6e" transform="translate(10480.595 3689.67401)"/><path d="m242.5 579.9h6.952a2.2 2.2 0 0 0 2.2-2.2 2.2 2.2 0 0 0 -2.2-2.2h-6.952a2.2 2.2 0 0 0 -2.2 2.2 2.2 2.2 0 0 0 2.2 2.2z" fill="#ff7c6e" transform="translate(10480.595 3690.78401)"/><path d="m10710.814 4254.23401v22.363001" fill="none"/><path d="m10704.673 4254.23401v22.363001" fill="none"/><path d="m10698.416 4254.23401v22.363001" fill="none"/><path d="m10692.275 4254.23401v22.363001" fill="none"/><path d="m10686.018 4254.23401v22.363001" fill="none"/><path d="m10679.877 4254.23401v22.363001" fill="none"/><path d="m10673.62 4254.23401v22.363001" fill="none"/><path d="m10667.479 4254.23401v22.363001" fill="none"/><path d="m10661.338 4254.23401v22.363001" fill="none"/><path d="m10655.081 4254.23401v22.363001" fill="none"/><circle cx="10986.93" cy="4259.79601" fill="#c4d4dd" r="3.824"/></g><g clip-path="url(#a)" transform="translate(10835.953 4014.15401)"><path d="m368.183 324v-34.529s.116-37.078-21.783-38.121l7.879-4.751 33.6 17.033-1.041 60.368z" opacity=".1" transform="translate(-338.521 -375.562)"/></g><path d="m394.3 538.555h7.416v-57.355h-1.738a5.687 5.687 0 0 0 -5.678 5.678z" opacity=".07" transform="translate(10505.033 3675.82001)"/><path d="m329.8 533.123h6.373v-72.65a6.354 6.354 0 0 0 -6.373-6.373z" opacity=".1" transform="translate(10494.798 3671.52001)"/><path d="m10913.701 4270.45601h77.053001v14.484h-77.053001z" fill="#e6edf2" stroke="#6e7f89" stroke-linejoin="round" stroke-miterlimit="10" stroke-width="1.2"/><path d="m0 0h14.947v9.849h-14.947z" fill="#98bac8" stroke="#6e7f89" stroke-linejoin="round" stroke-miterlimit="10" stroke-width="1.2" transform="matrix(-1 0 0 -1 10984.627 4285.03601)"/><path d="m0 0h14.947v9.849h-14.947z" fill="#98bac8" stroke="#6e7f89" stroke-linejoin="round" stroke-miterlimit="10" stroke-width="1.2" transform="matrix(-1 0 0 -1 10963.389 4284.83701)"/><circle cx="10937.57" cy="4278.45101" fill="#80b5bc" r="3.36" stroke="#6e7f89" stroke-linejoin="round" stroke-miterlimit="10" stroke-width="1.2"/><circle cx="10924.245" cy="4277.75501" fill="#80b5bc" r="3.36" stroke="#6e7f89" stroke-linejoin="round" stroke-miterlimit="10" stroke-width="1.2"/><circle cx="10796.094" cy="3934.66801" r="3.013" style="fill:#f1f2f2;stroke:#6e7f89;stroke-width:1.2;stroke-linecap:round;stroke-linejoin:round;stroke-miterlimit:10"/><path d="m10771.53 4079.61901v13.209" style="fill:none;stroke:#6e7f89;stroke-width:1.2;stroke-linecap:round;stroke-linejoin:round;stroke-miterlimit:10"/><path d="m10778.134 4086.22401h-13.209000000001" style="fill:none;stroke:#6e7f89;stroke-width:1.2;stroke-linecap:round;stroke-linejoin:round;stroke-miterlimit:10"/><circle cx="10847.192" cy="3926.20901" fill="none" r="3.244" stroke="#6e7f89" stroke-linejoin="round" stroke-miterlimit="10" stroke-width="1.2"/><circle cx="10840.355" cy="3926.32501" fill="none" r="3.244" stroke="#6e7f89" stroke-linejoin="round" stroke-miterlimit="10" stroke-width="1.2"/><path d="m458.6 430.933a2.955 2.955 0 0 0 2.9-2.433 14.931 14.931 0 0 0 -2.549-11.7 15.654 15.654 0 0 0 -10.081-6.489 2.832 2.832 0 0 0 -3.36 2.317 2.981 2.981 0 0 0 2.317 3.36 10.225 10.225 0 0 1 6.373 4.055 9.873 9.873 0 0 1 1.622 7.416 2.916 2.916 0 0 0 2.317 3.36c.111.114.227.114.461.114z" fill="#80b5bc" stroke="#6e7f89" stroke-linejoin="round" stroke-miterlimit="10" stroke-width="1.2" transform="translate(10513.154 3664.56101)"/><path d="m470.8 436.55a2.955 2.955 0 0 0 2.9-2.433 30.207 30.207 0 0 0 -24.332-35.108 2.832 2.832 0 0 0 -3.36 2.318 2.981 2.981 0 0 0 2.317 3.36 24.433 24.433 0 0 1 19.575 28.387 2.916 2.916 0 0 0 2.317 3.36 1.045 1.045 0 0 0  .583.116z" fill="#80b5bc" stroke="#6e7f89" stroke-linejoin="round" stroke-miterlimit="10" stroke-width="1.2" transform="translate(10513.233 3662.76801)"/><path d="m483.438 439.143a2.955 2.955 0 0 0 2.9-2.433 41.523 41.523 0 0 0 -33.37-48.2 2.89 2.89 0 0 0 -3.36 2.317 2.981 2.981 0 0 0 2.317 3.36 35.742 35.742 0 0 1 28.736 41.481 2.916 2.916 0 0 0 2.317 3.36c.113-.001.344.115.46.115z" fill="#80b5bc" stroke="#6e7f89" stroke-linejoin="round" stroke-miterlimit="10" stroke-width="1.2" transform="translate(10513.804 3661.10101)"/><path d="m497.038 446.947a2.955 2.955 0 0 0 2.9-2.433 59.768 59.768 0 0 0 -47.97-69.406 2.832 2.832 0 0 0 -3.36 2.317 2.982 2.982 0 0 0 2.317 3.36 53.872 53.872 0 0 1 43.335 62.569 2.916 2.916 0 0 0 2.317 3.36.878.878 0 0 0  .461.233z" fill="#80b5bc" stroke="#6e7f89" stroke-linejoin="round" stroke-miterlimit="10" stroke-width="1.2" transform="translate(10513.646 3658.97501)"/></svg>