<svg viewBox="0 0 123 124" version="1" xmlns="http://www.w3.org/2000/svg"><g transform="translate(1 2)" fill="none" fill-rule="evenodd"><ellipse fill="#FFF" cx="60" cy="60" rx="60" ry="60"/><path d="M60 121A61 61 0 1 1 60-1a61 61 0 0 1 0 122zm0-2A59 59 0 1 0 60 1a59 59 0 0 0 0 118z" fill="#80B5BC" fill-rule="nonzero"/><path d="M21 94l1 1s0 1 0 0l1-1 2-4a7 7 0 0 1 7-2h2c1-3 3-4 5-4 4 0 6 3 6 6v1h3c3 0 6 2 6 5v1h1v-1c0-4-3-7-7-7h-1c-1-4-4-7-8-7-3 0-5 1-7 4a10 10 0 0 0-5 0c-1-3-4-6-7-6-4-1-7 1-9 4l1 2 1-1c1-2 3-3 6-3s6 2 6 5l-4 7zM101 93l1 1 1-1c0-4-4-8-8-8-3 0-5 1-6 3-2-3-5-5-9-5-5 0-8 2-10 6-3 1-7 3-8 6a1 1 0 0 0 0 2h1l1-1c1-3 4-5 7-5h1v-1a8 8 0 0 1 15 2v3a1 1 0 0 0 1 1l1-1v-3-1c1-2 4-4 6-4 3 0 6 3 6 6z" fill="#6E7F89" fill-rule="nonzero"/><g transform="translate(33 17)"><path d="M17 12l5 2h6l6-2 2 6 3 11v8l-3 13-5 10-1 1h-5l-4-1-5-8-3-7-2-13 3-13 3-7z" fill="#D4F4F2"/><path fill="#FF7C6E" d="M15 46l6 3h9l8-3-3 8-4 6-3 2-7-2-4-5-2-8z"/><path fill="#C3D4DD" d="M11 34l-4 1-4 4-2 6 1 6 2 3h1l6-5 3-2-2-9zM40 34l4 1 4 4 2 6-1 6-2 3h-1l-6-5-3-2 2-9z"/><ellipse fill="#FF7C6E" cx="26" cy="31" rx="6" ry="6"/><path fill="#80B5BC" d="M25 2l5 5 4 6-6 1h-6l-5-2z"/><path d="M26 38a7 7 0 1 0 0-14 7 7 0 0 0 0 14zm0-12a5 5 0 1 1 0 10 5 5 0 0 1 0-10z" fill="#6E7F89" fill-rule="nonzero"/><path d="M45 54l2 1 2-1c4-6 3-13-2-18l-7-3c0-12-5-23-14-32V0l-1 1c-9 9-14 20-14 32l-6 3c-5 5-6 12-3 18l2 1h1l2-1 6-6 6 12c1 2 4 2 7 2 1 0 5 0 6-2 3-3 5-8 6-12l7 6zm2-1h-1l-8-7h1v-4l1-7c2 0 4 1 5 3 4 4 5 10 2 15zM26 3l6 9c-4 2-9 2-13 0l7-9zm-8 10c5 3 11 3 15 0a42 42 0 0 1 4 32c-7 4-16 4-23 0v-3c-2-10-1-20 4-29zM5 53l-1-1c-3-4-2-11 2-14l5-4a56 56 0 0 0 2 11h-1l1 1-8 7zm25 6l-4 2-5-2-6-12c7 4 15 4 21 0-1 5-3 9-6 12z" fill="#6E7F89" fill-rule="nonzero"/></g><path d="M58 83v7l1 1a1 1 0 0 0 1-1v-7a1 1 0 0 0-1-1 1 1 0 0 0-1 1zM67 81v5h1l1-1v-4l-1-1h-1v1zM48 81v4l1 1 1-1v-4l-1-1-1 1z" fill="#FF7C6E" fill-rule="nonzero"/></g></svg>
