<?xml version="1.0" encoding="UTF-8"?>
<svg version="1.1" viewBox="0 0 248 183" xmlns="http://www.w3.org/2000/svg">
<g fill="none" fill-rule="evenodd">
<g transform="translate(1 1)">
<path d="m216.89 58.69c0.52871 0.75633 0.81154 1.6572 0.81 2.58 0.004781 1.8155-1.0725 3.4593-2.7391 4.1795-1.6666 0.72016-3.602 0.37818-4.9209-0.86951 2.4867-2.04 4.77-4.0033 6.85-5.89z" fill="#C4D4DD" fill-rule="nonzero"/>
<path d="m213.16 56.73c1.4988 0.0038861 2.8973 0.75376 3.73 2-2.0733 1.88-4.3567 3.8433-6.85 5.89-1.3595-1.2763-1.8004-3.254-1.1117-4.9869 0.68872-1.7328 2.367-2.8684 4.2317-2.8631v-0.04z" fill="#C4D4DD" fill-rule="nonzero"/>
<polygon points="213.16 9.3 208.27 14.07 209.42 20.8 203.38 17.62 197.33 20.8 198.49 14.07 193.6 9.3 200.35 8.32 203.38 2.2 206.4 8.32" fill="#FDAE76" fill-rule="nonzero"/>
<path d="m211.61 148.84c2.79e-4 0.4093-0.056947 0.81662-0.17 1.21-2.82-0.52-5.78-1.1267-8.88-1.82 0.34916-2.3452 2.4407-4.0291 4.8064-3.8697 2.3657 0.15945 4.2123 2.1088 4.2436 4.4797z" fill="#C4D4DD" fill-rule="nonzero"/>
<path d="m202.56 148.23c3.1 0.66667 6.06 1.2733 8.88 1.82-0.59923 2.1972-2.7336 3.6104-4.9903 3.3042-2.2567-0.30613-3.9375-2.2368-3.9297-4.5142-0.00194-0.20405 0.011431-0.40795 0.04-0.61z" fill="#C4D4DD" fill-rule="nonzero"/>
<path d="m120.05 122.55c24.21 9.17 47 16.56 66.43 21.73v33.94c0 1.5077-1.2223 2.73-2.73 2.73h-134.33c-1.5077 0-2.73-1.2223-2.73-2.73v-21.08c20.5-7.86 46.11-19.82 73.36-34.59zm46.73 22.92c0-3.0817-2.4983-5.58-5.58-5.58s-5.58 2.4983-5.58 5.58 2.4983 5.58 5.58 5.58c1.4799 0 2.8992-0.58789 3.9457-1.6343s1.6343-2.4657 1.6343-3.9457zm-19.4 0c-0.0055-2.5051-2.0349-4.5345-4.54-4.54h-10.46c-2.5074 0-4.54 2.0326-4.54 4.54s2.0326 4.54 4.54 4.54h10.46c2.5074 0 4.54-2.0326 4.54-4.54z" fill="#E6EDF2" fill-rule="nonzero"/>
<path d="m186.48 106.41v37.87c-19.39-5.17-42.22-12.56-66.43-21.73l5.34-2.92c23.13-12.75 44.07-25.69 61.09-37.46v24.24zm-11.08 14.44v-1c0.002667-0.86277-0.33889-1.691-0.94896-2.301-0.61007-0.61007-1.4383-0.95163-2.301-0.94896h-28.36c-0.86277-0.002667-1.691 0.33889-2.301 0.94896-0.61007 0.61007-0.95163 1.4383-0.94896 2.301v1c0 1.7949 1.4551 3.25 3.25 3.25h28.36c0.86195 0 1.6886-0.34241 2.2981-0.9519s0.9519-1.4361 0.9519-2.2981z" fill="#E6EDF2" fill-rule="nonzero"/>
<path d="m186.48 3.14v10.93h-139.79v-10.93c0-1.5077 1.2223-2.73 2.73-2.73h134.33c1.5077 0 2.73 1.2223 2.73 2.73zm-108.3 4c0-1.3973-1.1327-2.53-2.53-2.53s-2.53 1.1327-2.53 2.53 1.1327 2.53 2.53 2.53 2.53-1.1327 2.53-2.53zm-10.38 0c0.0040438-1.0291-0.61332-1.959-1.5634-2.3547-0.95004-0.39571-2.045-0.17903-2.7727 0.54869-0.72772 0.72772-0.94439 1.8226-0.54869 2.7727s1.3256 1.5674 2.3547 1.5634c1.3973 0 2.53-1.1327 2.53-2.53zm-10.39 0c0-1.3973-1.1327-2.53-2.53-2.53s-2.53 1.1327-2.53 2.53 1.1327 2.53 2.53 2.53 2.53-1.1327 2.53-2.53z" fill="#C4D4DD" fill-rule="nonzero"/>
<path d="m175.4 119.81v1c0 1.7949-1.4551 3.25-3.25 3.25h-28.36c-1.7949 0-3.25-1.4551-3.25-3.25v-1c-0.002667-0.86277 0.33889-1.691 0.94896-2.301 0.61007-0.61007 1.4383-0.95163 2.301-0.94896h28.36c0.86277-0.002667 1.691 0.33889 2.301 0.94896 0.61007 0.61007 0.95163 1.4383 0.94896 2.301z" fill="#7EB5BD" fill-rule="nonzero"/>
<path d="m170.53 53c1.3914-0.071732 2.7089 0.62977 3.4262 1.8242 0.71724 1.1945 0.71724 2.6871 0 3.8816-0.71724 1.1945-2.0348 1.896-3.4262 1.8242h-46.48c-0.99895 0.0026568-1.9579-0.39231-2.6652-1.0977-0.7073-0.70542-1.1048-1.6633-1.1048-2.6623 0.010935-2.0776 1.6924-3.7591 3.77-3.77h46.48z" fill="#C4D4DD" fill-rule="nonzero"/>
<path d="m165.21 68.48c3.0817 0 5.58 2.4983 5.58 5.58s-2.4983 5.58-5.58 5.58-5.58-2.4983-5.58-5.58c-0.002661-1.4807 0.58438-2.9016 1.6314-3.9486 1.047-1.047 2.4679-1.6341 3.9486-1.6314z" fill="#7EB5BD" fill-rule="nonzero"/>
<circle cx="161.2" cy="145.47" r="5.58" fill="#7EB5BD" fill-rule="nonzero"/>
<rect x="62.47" y="89.03" width="93.15" height="7.54" rx="3.44" fill="#C4D4DD" fill-rule="nonzero"/>
<path d="m145.76 70.57c2.0821 0 3.77 1.6879 3.77 3.77s-1.6879 3.77-3.77 3.77h-21.71c-2.0821 0-3.77-1.6879-3.77-3.77s1.6879-3.77 3.77-3.77h21.71z" fill="#C4D4DD" fill-rule="nonzero"/>
<polygon points="140.58 29.39 148.35 40.55 132.81 40.55" fill="#7EB5BD" fill-rule="nonzero"/>
<path d="m142.84 140.93c2.5074 0 4.54 2.0326 4.54 4.54s-2.0326 4.54-4.54 4.54h-10.46c-2.5074 0-4.54-2.0326-4.54-4.54s2.0326-4.54 4.54-4.54h10.46z" fill="#7EB5BD" fill-rule="nonzero"/>
<path d="m120.79 29.39c3.0778 4.45e-5 5.5744 2.4922 5.5799 5.5701 0.005487 3.0778-2.4822 5.5789-5.56 5.5899-3.0778 0.011017-5.5833-2.4722-5.5999-5.55-0.010674-1.4859 0.57282-2.9145 1.6207-3.968 1.0479-1.0535 2.4733-1.6447 3.9593-1.642z" fill="#7EB5BD" fill-rule="nonzero"/>
<path d="m116.51 105.59c2.0821 0 3.77 1.6879 3.77 3.77s-1.6879 3.77-3.77 3.77h-20.23c-6.06-2.5067-11.927-5.02-17.6-7.54h37.83z" fill="#C4D4DD" fill-rule="nonzero"/>
<path d="m115.48 120.8l4.57 1.75c-27.25 14.77-52.86 26.73-73.36 34.59v-66.8c9.58 4.94 20.34 10.08 32 15.25h-12.46c-0.99769-0.001781-1.955 0.39408-2.66 1.1-1.0703 1.0806-1.3888 2.6974-0.80813 4.1031 0.58063 1.4057 1.9472 2.3266 3.4681 2.3369h30.05c6.22 2.57 12.64 5.14 19.2 7.67zm-13.43 4c0-0.99987-0.3972-1.9588-1.1042-2.6658-0.70701-0.70701-1.6659-1.1042-2.6658-1.1042h-32c-0.99769-0.001781-1.955 0.39408-2.66 1.1-1.0703 1.0806-1.3888 2.6974-0.80813 4.1031 0.58063 1.4057 1.9472 2.3266 3.4681 2.3369h32.05c1.0007 0.002665 1.9611-0.39368 2.6687-1.1013 0.70759-0.70759 1.1039-1.6681 1.1013-2.6687h-0.05z" fill="#E6EDF2" fill-rule="nonzero"/>
<path d="m114.11 63.38c0.56739 0.51082 0.89398 1.2366 0.9 2-0.016011 0.76541-0.34922 1.4898-0.92 2l-10 8.79c-0.72525 0.64308-1.7385 0.85039-2.658 0.54385-0.91955-0.30655-1.6057-1.0804-1.8-2.03-0.1943-0.94962 0.13278-1.9308 0.85803-2.5738l7.69-6.79-7.47-6.77c-0.99044-1.0281-1.0135-2.6483-0.052647-3.7041 0.96082-1.0558 2.576-1.1853 3.6926-0.29589l9.76 8.83z" fill="#D4F4F2" fill-rule="nonzero"/>
<path d="m102.43 30.43c2.5074 1e-7 4.54 2.0326 4.54 4.54s-2.0326 4.54-4.54 4.54h-10.43c-2.5074-1e-7 -4.54-2.0326-4.54-4.54s2.0326-4.54 4.54-4.54h10.43z" fill="#C4D4DD" fill-rule="nonzero"/>
<path d="m98.28 121c1.3469 0 2.5915 0.71856 3.2649 1.885s0.67345 2.6036 0 3.77-1.918 1.885-3.2649 1.885h-32c-2.0821 0-3.77-1.6879-3.77-3.77s1.6879-3.77 3.77-3.77h32z" fill="#C4D4DD" fill-rule="nonzero"/>
<path d="m96.28 113.13h-30c-2.0821 0-3.77-1.6879-3.77-3.77s1.6879-3.77 3.77-3.77h12.45c5.6267 2.5067 11.477 5.02 17.55 7.54z" fill="#C4D4DD" fill-rule="nonzero"/>
<path d="m95.78 52.55c-0.0082143 0.56224-0.14143 1.1156-0.39 1.62l-11.89 25.59c-0.68531 0.89956-1.8675 1.2627-2.9396 0.90308s-1.7962-1.3622-1.8004-2.4931c0.0017121-0.37625 0.083526-0.74782 0.24-1.09l11.89-25.58c0.61028-1.3001 2.1535-1.8666 3.46-1.27 0.89877 0.4166 1.4617 1.3299 1.43 2.32z" fill="#FDAE76" fill-rule="nonzero"/>
<path d="m77.51 30.43c2.5074 1e-7 4.54 2.0326 4.54 4.54s-2.0326 4.54-4.54 4.54h-10.51c-2.5074-1e-7 -4.54-2.0326-4.54-4.54s2.0326-4.54 4.54-4.54h10.51z" fill="#C4D4DD" fill-rule="nonzero"/>
<circle cx="75.65" cy="7.14" r="2.53" fill="#D4F4F2" fill-rule="nonzero"/>
<path d="m74.29 72.16c0.73955 0.63745 1.079 1.6234 0.88867 2.5811-0.19036 0.95762-0.88112 1.7388-1.8082 2.045s-1.9472 0.089921-2.6704-0.56603l-10-8.79c-0.57532-0.51593-0.90402-1.2522-0.90402-2.025s0.3287-1.5091 0.90402-2.025l9.73-8.8c1.1167-0.88937 2.7318-0.75995 3.6926 0.29589 0.96082 1.0558 0.93779 2.676-0.052647 3.7041l-7.47 6.77 7.69 6.81z" fill="#D4F4F2" fill-rule="nonzero"/>
<path d="m65.27 4.61c1.396 0.0055177 2.5237 1.1407 2.52 2.5366-0.0036748 1.396-1.1373 2.5252-2.5333 2.5233-1.396-0.001832-2.5267-1.134-2.5267-2.53-5.3e-6 -0.67273 0.26792-1.3178 0.74455-1.7925 0.47663-0.47476 1.1227-0.74013 1.7954-0.73748z" fill="#D4F4F2" fill-rule="nonzero"/>
<path d="m62.47 93.13c0 1.8999 1.5401 3.44 3.44 3.44h86.27c1.8999 0 3.44-1.5401 3.44-3.44v-0.66c0-1.8999-1.5401-3.44-3.44-3.44h-86.27c-1.8999 0-3.44 1.5401-3.44 3.44v0.66zm16.21 12.46c-11.65-5.17-22.41-10.31-32-15.25v-76.27h139.8v68.1c-17 11.77-38 24.71-61.09 37.46l-5.34 2.92-4.57-1.75c-6.56-2.53-13-5.1-19.2-7.67h20.23c2.0821 0 3.77-1.6879 3.77-3.77s-1.6879-3.77-3.77-3.77h-37.83zm95.61-48.86c-0.016476-2.0649-1.6951-3.7301-3.76-3.73h-46.48c-2.0776 0.010935-3.7591 1.6924-3.77 3.77-4e-6 0.99895 0.39751 1.9568 1.1048 2.6623 0.7073 0.70542 1.6662 1.1004 2.6652 1.0977h46.48c2.0766 0 3.76-1.6834 3.76-3.76v-0.04zm-3.51 17.33c0.004044-2.2587-1.354-4.2971-3.44-5.1633-2.086-0.86624-4.4885-0.38948-6.0856 1.2077s-2.0739 3.9996-1.2077 6.0856 2.9046 3.444 5.1633 3.44c3.0762 0 5.57-2.4938 5.57-5.57zm-21.25 0.28c0-2.0821-1.6879-3.77-3.77-3.77h-21.71c-2.0821 0-3.77 1.6879-3.77 3.77s1.6879 3.77 3.77 3.77h21.71c1.0007 0.0026649 1.9611-0.39367 2.6687-1.1013 0.70759-0.70759 1.1039-1.6681 1.1013-2.6687zm-1.18-33.79l-7.77-11.16-7.77 11.16h15.54zm-22-5.58c-4e-6 -2.2578-1.3606-4.2931-3.4469-5.1562s-4.4872-0.38385-6.0822 1.2141c-1.5951 1.5979-2.07 3.9996-1.2032 6.0844 0.86683 2.0848 2.9046 3.4417 5.1624 3.4377 3.0723 0.0055357 5.569-2.4777 5.58-5.55l-0.01-0.03zm-11.35 30.44c-0.006024-0.76343-0.33261-1.4892-0.9-2l-9.72-8.8c-1.1167-0.88937-2.7318-0.75995-3.6926 0.29589-0.96082 1.0558-0.93779 2.676 0.052647 3.7041l7.47 6.77-7.69 6.79c-0.72525 0.64308-1.0523 1.6242-0.85803 2.5738 0.1943 0.94962 0.88045 1.7235 1.8 2.03 0.91955 0.30655 1.9328 0.099232 2.658-0.54385l10-8.79c0.56359-0.52434 0.88259-1.2602 0.88-2.03zm-8-30.41c-0.0055-2.5051-2.0349-4.5345-4.54-4.54h-10.46c-2.5074 0-4.54 2.0326-4.54 4.54s2.0326 4.54 4.54 4.54h10.47c2.5035-0.0055143 4.53-2.0365 4.53-4.54zm-11.58 19.2c0.24857-0.50438 0.38179-1.0578 0.39-1.62 0.031698-0.99012-0.53123-1.9034-1.43-2.32-1.3065-0.59658-2.8497-0.030134-3.46 1.27l-11.92 25.55c-0.15647 0.34218-0.23829 0.71375-0.24 1.09 0.0042197 1.1309 0.72823 2.1334 1.8004 2.4931s2.2543-0.0035216 2.9396-0.90308l11.92-25.56zm-13.37-19.2c-0.0054997-2.5051-2.0349-4.5345-4.54-4.54h-10.51c-2.5074 0-4.54 2.0326-4.54 4.54s2.0326 4.54 4.54 4.54h10.47c1.211 0.01067 2.3761-0.46294 3.2362-1.3155 0.86009-0.85257 1.3439-2.0134 1.3438-3.2245zm-7.52 41c0.47696-0.53931 0.71971-1.2462 0.67468-1.9648-0.045027-0.71855-0.37413-1.3897-0.91468-1.8652l-7.68-6.79 7.47-6.77c0.99044-1.0281 1.0135-2.6483 0.052647-3.7041-0.96082-1.0558-2.576-1.1853-3.6926-0.29589l-9.73 8.8c-0.57532 0.51593-0.90402 1.2522-0.90402 2.025s0.3287 1.5091 0.90402 2.025l10 8.79c1.1225 0.99023 2.8341 0.88744 3.83-0.23l-0.01-0.02z" fill="#E6EDF2" fill-rule="nonzero"/>
<circle cx="54.88" cy="7.14" r="2.53" fill="#D4F4F2" fill-rule="nonzero"/>
<path d="m35.2 161.31c0.23285 0.54694 0.35194 1.1356 0.35 1.73 0.027114 2.3385-1.7229 4.3167-4.0472 4.5749-2.3243 0.25826-4.4659-1.2875-4.9528-3.5749 2.7267-0.78667 5.61-1.6967 8.65-2.73z" fill="#C4D4DD" fill-rule="nonzero"/>
<path d="m31 158.5c1.8409-0.003752 3.501 1.1069 4.2 2.81-3.04 1.0333-5.9167 1.9433-8.63 2.73-0.072263-0.32845-0.10914-0.6637-0.11-1 0-2.5074 2.0326-4.54 4.54-4.54z" fill="#C4D4DD" fill-rule="nonzero"/>
<polygon points="28.16 103.39 23.27 108.16 24.42 114.89 18.38 111.71 12.33 114.89 13.49 108.16 8.6 103.39 15.35 102.41 18.38 96.29 21.4 102.41" fill="#FDAE76" fill-rule="nonzero"/>
<path d="m19.6 71.64c0.0050617 0.94964-0.29656 1.8756-0.86 2.64-2.76-1.8133-5.2333-3.5567-7.42-5.23 1.1288-1.6404 3.1949-2.3538 5.0954-1.7593 1.9005 0.59448 3.1918 2.358 3.1846 4.3493z" fill="#C4D4DD" fill-rule="nonzero"/>
<path d="m18.74 74.28c-1.4654 1.9881-4.2513 2.44-6.2701 1.0171-2.0188-1.4229-2.5297-4.1986-1.1499-6.2471 2.18 1.6733 4.6533 3.4167 7.42 5.23z" fill="#C4D4DD" fill-rule="nonzero"/>
<path d="m186.48 144.28v33.94c0 1.5077-1.2223 2.73-2.73 2.73h-134.33c-1.5077 0-2.73-1.2223-2.73-2.73v-175.08c0-1.5077 1.2223-2.73 2.73-2.73h134.33c1.5077 0 2.73 1.2223 2.73 2.73v141.14z" stroke="#6E7F89" stroke-linecap="round" stroke-linejoin="round" stroke-width="1.54"/>
<path d="m46.69 14.07h139.79" stroke="#6E7F89" stroke-linecap="round" stroke-linejoin="round" stroke-width="1.54"/>
<circle cx="54.88" cy="7.14" r="2.53" stroke="#6E7F89" stroke-linecap="round" stroke-linejoin="round" stroke-width="1.54"/>
<path d="m67.8 7.14c0.0040438 1.0291-0.61332 1.959-1.5634 2.3547-0.95004 0.39571-2.045 0.17903-2.7727-0.54869-0.72772-0.72772-0.94439-1.8226-0.54869-2.7727s1.3256-1.5674 2.3547-1.5634c0.671 0 1.3145 0.26655 1.789 0.74102 0.47447 0.47447 0.74102 1.118 0.74102 1.789v0z" stroke="#6E7F89" stroke-linecap="round" stroke-linejoin="round" stroke-width="1.54"/>
<circle cx="75.65" cy="7.14" r="2.53" stroke="#6E7F89" stroke-linecap="round" stroke-linejoin="round" stroke-width="1.54"/>
<path d="m170.53 60.49h-46.48c-0.99895 0.0026568-1.9579-0.39231-2.6652-1.0977-0.7073-0.70542-1.1048-1.6633-1.1048-2.6623 0.032619-2.0619 1.7078-3.7194 3.77-3.73h46.48c1.3914-0.071732 2.7089 0.62977 3.4262 1.8242 0.71724 1.1945 0.71724 2.6871 0 3.8816-0.71724 1.1945-2.0348 1.896-3.4262 1.8242v-0.04z" stroke="#6E7F89" stroke-linecap="round" stroke-linejoin="round" stroke-width="1.54"/>
<rect x="62.47" y="89.03" width="93.15" height="7.54" rx="3.44" stroke="#6E7F89" stroke-linecap="round" stroke-linejoin="round" stroke-width="1.54"/>
<path d="m78.68 105.59h37.83c2.0821 0 3.77 1.6879 3.77 3.77s-1.6879 3.77-3.77 3.77h-50.28c-2.0821 0-3.77-1.6879-3.77-3.77s1.6879-3.77 3.77-3.77h12.45z" stroke="#6E7F89" stroke-linecap="round" stroke-linejoin="round" stroke-width="1.54"/>
<path d="m98.28 128.53h-32c-2.0821 0-3.77-1.6879-3.77-3.77s1.6879-3.77 3.77-3.77h32.05c2.0821 0 3.77 1.6879 3.77 3.77s-1.6879 3.77-3.77 3.77h-0.05z" stroke="#6E7F89" stroke-linecap="round" stroke-linejoin="round" stroke-width="1.54"/>
<path d="m145.76 78.11h-21.71c-2.0821 0-3.77-1.6879-3.77-3.77s1.6879-3.77 3.77-3.77h21.71c2.0821 0 3.77 1.6879 3.77 3.77s-1.6879 3.77-3.77 3.77v0z" stroke="#6E7F89" stroke-linecap="round" stroke-linejoin="round" stroke-width="1.54"/>
<path d="m65.27 165.55h26.09" stroke="#6E7F89" stroke-linecap="round" stroke-linejoin="round" stroke-width="1.54"/>
<path d="m64.19 157.87h39.26" stroke="#6E7F89" stroke-linecap="round" stroke-linejoin="round" stroke-width="1.54"/>
<path d="m72.5 76.9c-0.66315 0.0020753-1.3039-0.23997-1.8-0.68l-10-8.79c-0.57532-0.51593-0.90402-1.2522-0.90402-2.025s0.3287-1.5091 0.90402-2.025l9.73-8.8c1.1167-0.88937 2.7318-0.75995 3.6926 0.29589 0.96082 1.0558 0.93779 2.676-0.052647 3.7041l-7.47 6.77 7.68 6.79c0.84302 0.74556 1.1375 1.9346 0.73993 2.9874s-1.4045 1.7504-2.5299 1.7526l0.01 0.02z" stroke="#6E7F89" stroke-linecap="round" stroke-linejoin="round" stroke-width="1.54"/>
<path d="m95.39 54.17l-11.89 25.59c-0.68531 0.89956-1.8675 1.2627-2.9396 0.90308s-1.7962-1.3622-1.8004-2.4931c0.0017121-0.37625 0.083526-0.74782 0.24-1.09l11.89-25.58c0.61028-1.3001 2.1535-1.8666 3.46-1.27 0.89877 0.4166 1.4617 1.3299 1.43 2.32-0.0082143 0.56224-0.14143 1.1156-0.39 1.62v0z" stroke="#6E7F89" stroke-linecap="round" stroke-linejoin="round" stroke-width="1.54"/>
<path d="m102.33 76.9c0.66315 0.0020753 1.3039-0.23997 1.8-0.68l10-8.79c0.57078-0.51022 0.90399-1.2346 0.92-2-0.006024-0.76343-0.33261-1.4892-0.9-2l-9.72-8.8c-1.1167-0.88937-2.7318-0.75995-3.6926 0.29589-0.96082 1.0558-0.93779 2.676 0.052647 3.7041l7.47 6.77-7.69 6.79c-0.84439 0.74678-1.1383 1.9383-0.73815 2.9921s1.4109 1.7499 2.5382 1.7479l-0.04-0.03z" stroke="#6E7F89" stroke-linecap="round" stroke-linejoin="round" stroke-width="1.54"/>
<path d="m77.51 39.51h-10.51c-2.5074-1e-7 -4.54-2.0326-4.54-4.54s2.0326-4.54 4.54-4.54h10.47c2.5074 1e-7 4.54 2.0326 4.54 4.54s-2.0326 4.54-4.54 4.54h0.04z" stroke="#6E7F89" stroke-linecap="round" stroke-linejoin="round" stroke-width="1.54"/>
<path d="m102.43 39.51h-10.43c-2.5074-1e-7 -4.54-2.0326-4.54-4.54s2.0326-4.54 4.54-4.54h10.47c2.5074 1e-7 4.54 2.0326 4.54 4.54s-2.0326 4.54-4.54 4.54h-0.04z" stroke="#6E7F89" stroke-linecap="round" stroke-linejoin="round" stroke-width="1.54"/>
<path d="m126.36 35c-4e-6 2.2578-1.3606 4.2931-3.4469 5.1562s-4.4872 0.38385-6.0822-1.2141c-1.5951-1.5979-2.07-3.9996-1.2032-6.0844 0.86683-2.0848 2.9046-3.4417 5.1624-3.4377 1.479-2.4e-6 2.8973 0.58821 3.9421 1.6349 1.0449 1.0467 1.6305 2.4661 1.6279 3.9451z" stroke="#6E7F89" stroke-linecap="round" stroke-linejoin="round" stroke-width="1.54"/>
<polygon points="140.58 29.39 132.81 40.55 148.35 40.55" stroke="#6E7F89" stroke-linecap="round" stroke-linejoin="round" stroke-width="1.54"/>
<path d="m142.84 150h-10.46c-2.5074 0-4.54-2.0326-4.54-4.54s2.0326-4.54 4.54-4.54h10.46c2.5074 0 4.54 2.0326 4.54 4.54s-2.0326 4.54-4.54 4.54v0z" stroke="#6E7F89" stroke-linecap="round" stroke-linejoin="round" stroke-width="1.54"/>
<circle cx="161.2" cy="145.47" r="5.58" stroke="#6E7F89" stroke-linecap="round" stroke-linejoin="round" stroke-width="1.54"/>
<path d="m172.15 124.1h-28.36c-1.7949 0-3.25-1.4551-3.25-3.25v-1c-0.002667-0.86277 0.33889-1.691 0.94896-2.301 0.61007-0.61007 1.4383-0.95163 2.301-0.94896h28.36c0.86277-0.002667 1.691 0.33889 2.301 0.94896 0.61007 0.61007 0.95163 1.4383 0.94896 2.301v1c0 1.7949-1.4551 3.25-3.25 3.25v0z" stroke="#6E7F89" stroke-linecap="round" stroke-linejoin="round" stroke-width="1.54"/>
<path d="m26.57 164c-14.45 4.19-23.91 4.83-26 1.05-3.57-6.4 15.14-24.05 46.11-45.25" stroke="#6E7F89" stroke-linecap="round" stroke-linejoin="round" stroke-width="1.54"/>
<path d="m210 64.58c-6.57 5.4-14.51 11.33-23.56 17.59-17 11.77-38 24.71-61.09 37.46l-5.34 2.92c-27.25 14.77-52.86 26.73-73.36 34.59-4 1.56-7.88 3-11.49 4.17" stroke="#6E7F89" stroke-linecap="round" stroke-linejoin="round" stroke-width="1.54"/>
<path d="m186.48 45.49c24.4-9.19 41.12-12.32 44-7.13 2 3.64-3.11 10.89-13.56 20.33" stroke="#6E7F89" stroke-linecap="round" stroke-linejoin="round" stroke-width="1.54"/>
<path d="m170.78 74.06c-4e-6 2.2578-1.3606 4.2931-3.4469 5.1562s-4.4872 0.38385-6.0822-1.2141c-1.5951-1.5979-2.07-3.9996-1.2032-6.0844 0.86683-2.0848 2.9046-3.4417 5.1624-3.4377 1.479-2.4e-6 2.8973 0.58821 3.9421 1.6349 1.0449 1.0467 1.6305 2.4661 1.6279 3.9451v0z" stroke="#6E7F89" stroke-linecap="round" stroke-linejoin="round" stroke-width="1.54"/>
<path d="m211.44 150.05c19.44 3.68 32.05 3.59 33.86-1.12 2.13-5.52-11-16.3-33.75-29.07l-25.07-13.45" stroke="#6E7F89" stroke-linecap="round" stroke-linejoin="round" stroke-width="1.54"/>
<path d="m18.74 74.28c9.0481 5.8359 18.394 11.197 28 16.06 9.58 4.94 20.34 10.08 32 15.25 5.66 2.5067 11.527 5.02 17.6 7.54 6.22 2.57 12.64 5.14 19.2 7.67l4.57 1.75c24.21 9.17 47 16.56 66.43 21.73 5.67 1.51 11.05 2.83 16.08 3.95" stroke="#6E7F89" stroke-linecap="round" stroke-linejoin="round" stroke-width="1.54"/>
<path d="m46.69 56c-26.41-6.16-44.14-7.17-46.32-1.52-1.25 3.25 2.78 8.32 11 14.54" stroke="#6E7F89" stroke-linecap="round" stroke-linejoin="round" stroke-width="1.54"/>
<polygon points="18.38 96.29 21.4 102.41 28.16 103.39 23.27 108.16 24.42 114.89 18.38 111.71 12.33 114.89 13.49 108.16 8.6 103.39 15.35 102.41" stroke="#6E7F89" stroke-linecap="round" stroke-linejoin="round" stroke-width="1.54"/>
<polygon points="203.38 2.2 206.4 8.32 213.16 9.3 208.27 14.07 209.42 20.8 203.38 17.62 197.33 20.8 198.49 14.07 193.6 9.3 200.35 8.32" stroke="#6E7F89" stroke-linecap="round" stroke-linejoin="round" stroke-width="1.54"/>
<path d="m11.32 69.05c1.1288-1.6404 3.1949-2.3538 5.0954-1.7593 1.9005 0.59448 3.1918 2.358 3.1846 4.3493 0.0050617 0.94964-0.29656 1.8756-0.86 2.64-1.4654 1.9881-4.2513 2.44-6.2701 1.0171-2.0188-1.4229-2.5297-4.1986-1.1499-6.2471v0z" stroke="#6E7F89" stroke-linecap="round" stroke-linejoin="round" stroke-width="1.54"/>
<path d="m216.89 58.69c0.52871 0.75633 0.81154 1.6572 0.81 2.58 0.004044 1.8421-1.103 3.5049-2.8042 4.2117-1.7011 0.70682-3.6606 0.31817-4.9632-0.9844-1.3026-1.3026-1.6912-3.262-0.9844-4.9632s2.3696-2.8082 4.2117-2.8042c1.4913-0.0050911 2.8882 0.72896 3.73 1.96v0z" stroke="#6E7F89" stroke-linecap="round" stroke-linejoin="round" stroke-width="1.54"/>
<path d="m202.56 148.23c0.34916-2.3452 2.4407-4.0291 4.8064-3.8697 2.3657 0.15945 4.2123 2.1088 4.2436 4.4797 2.79e-4 0.4093-0.056947 0.81662-0.17 1.21-0.59923 2.1972-2.7336 3.6104-4.9903 3.3042-2.2567-0.30613-3.9375-2.2368-3.9297-4.5142-0.00194-0.20405 0.011431-0.40795 0.04-0.61v0z" stroke="#6E7F89" stroke-linecap="round" stroke-linejoin="round" stroke-width="1.54"/>
<path d="m35.2 161.31c0.23285 0.54694 0.35194 1.1356 0.35 1.73 0.027114 2.3385-1.7229 4.3167-4.0472 4.5749-2.3243 0.25826-4.4659-1.2875-4.9528-3.5749-0.072263-0.32845-0.10914-0.6637-0.11-1-0.0029524-2.1698 1.5299-4.0384 3.6584-4.4598s4.2577 0.72243 5.0816 2.7298h0.02z" stroke="#6E7F89" stroke-linecap="round" stroke-linejoin="round" stroke-width="1.54"/>
<path d="m183.76 0.42h-16c1.5094-1.0052e-5 2.7345 1.2206 2.74 2.73v175.07c0 0.72669-0.28868 1.4236-0.80253 1.9375-0.51385 0.51385-1.2108 0.80253-1.9375 0.80253h16c1.5094-0.005509 2.73-1.2306 2.73-2.74v-175.07c0-1.5077-1.2223-2.73-2.73-2.73z" fill="#000" fill-rule="nonzero" opacity=".09"/>
</g>
</g>
</svg>
