<?xml version="1.0" encoding="UTF-8"?>
<svg version="1.1" viewBox="0 0 275 174" xmlns="http://www.w3.org/2000/svg">
<g fill="none" fill-rule="evenodd">
<g transform="translate(1 1)">
<circle cx="268.61" cy="120.36" r="3.71" fill="#C4D4DD" fill-rule="nonzero"/>
<path d="m251.33 101.69c2.049 0 3.71 1.661 3.71 3.71s-1.661 3.71-3.71 3.71-3.71-1.661-3.71-3.71c0.005495-2.0467 1.6633-3.7045 3.71-3.71z" fill="#C4D4DD" fill-rule="nonzero"/>
<path d="m251.33 130.87c2.049 0 3.71 1.661 3.71 3.71s-1.661 3.71-3.71 3.71-3.71-1.661-3.71-3.71c0.005495-2.0467 1.6633-3.7045 3.71-3.71z" fill="#C4D4DD" fill-rule="nonzero"/>
<circle cx="249.71" cy="65.12" r="3.71" fill="#C4D4DD" fill-rule="nonzero"/>
<path d="m235.3 35.81v104.64c4e-6 4.0996-3.3204 7.4245-7.42 7.43h-179.13c-4.0996-0.005518-7.42-3.3304-7.42-7.43v-66.39c11.048 3.4074 23.057 1.3703 32.363-5.4898 9.3059-6.8601 14.804-17.729 14.817-29.29 0.0054265-3.669-0.54757-7.3174-1.64-10.82l0.65-0.07h140.36c4.098 0 7.42 3.322 7.42 7.42zm-10.91 75.08c-0.037543-2.1586-1.7813-3.8979-3.94-3.93h-77.54c-2.1548 0.03739-3.8926 1.7752-3.93 3.93 0.032058 2.1587 1.7714 3.9025 3.93 3.94h77.54c2.1625-0.032202 3.9078-1.7775 3.94-3.94zm-0.91-60.7v-0.32c-0.005495-2.0854-1.6946-3.7745-3.78-3.78h-57.79c-2.0854 0.005495-3.7745 1.6946-3.78 3.78v0.32c0.010935 2.0831 1.6969 3.7691 3.78 3.78h57.79c2.0831-0.010935 3.7691-1.6969 3.78-3.78zm0.63 77.85c-0.037543-2.1586-1.7813-3.8979-3.94-3.93h-77.53c-1.4532-0.073279-2.8284 0.66029-3.577 1.908s-0.74857 2.8064 0 4.0541 2.1238 1.9813 3.577 1.908h77.53c2.1625-0.032202 3.9078-1.7775 3.94-3.94zm-10-29.47l-6.73-9.66-6.74 9.66h13.47zm-7.11-28.85v-1.33c-0.005491-1.8037-1.4663-3.2645-3.27-3.27h-42.33c-1.8037 0.0054907-3.2645 1.4663-3.27 3.27v1.33c-8e-6 1.8076 1.4624 3.2745 3.27 3.28h42.36c1.7959-0.021902 3.2401-1.484 3.24-3.28zm-12 24c0.004044-1.9594-1.1737-3.7279-2.9832-4.4797s-3.8937-0.33825-5.2792 1.0473c-1.3855 1.3855-1.799 3.4697-1.0473 5.2792 0.7517 1.8095 2.5202 2.9872 4.4797 2.9832 2.6597 2.28e-5 4.819-2.1503 4.83-4.81v-0.02zm-16.8 0c-0.032202-2.1625-1.7775-3.9078-3.94-3.94h-9.07c-2.1625 0.032202-3.9078 1.7775-3.94 3.94 0.032202 2.1625 1.7775 3.9078 3.94 3.94h9.07c2.1625-0.032202 3.9078-1.7775 3.94-3.94zm-21.6 0c-0.032202-2.1625-1.7775-3.9078-3.94-3.94h-9.07c-1.0416-8.191e-4 -2.0398 0.4172-2.77 1.16-1.1308 1.1218-1.4726 2.8151-0.86561 4.2877 0.607 1.4726 2.0428 2.4332 3.6356 2.4323h9.07c2.1625-0.032202 3.9078-1.7775 3.94-3.94zm-4-36.93c0.003583-0.80346-0.33453-1.5706-0.93-2.11l-10.09-9.13c-1.1515-1.0438-2.9312-0.95651-3.975 0.195s-0.95651 2.9312 0.195 3.975l7.76 7-8 7c-1.1479 1.0347-1.2491 2.8006-0.22701 3.9597 1.0221 1.1591 2.7868 1.2797 3.957 0.27027l10.35-9.14c0.59002-0.50292 0.94788-1.2259 0.99-2l-0.03-0.02zm-20.36-11.67c0.25266-0.52114 0.38914-1.0909 0.4-1.67 0.033698-1.03-0.55352-1.9798-1.49-2.41-1.3533-0.62499-2.9573-0.039696-3.59 1.31l-12.34 26.56c-0.62499 1.3533-0.039695 2.9573 1.31 3.59 1.1696 0.58703 2.5923 0.23982 3.36-0.82l12.35-26.56zm-2.34 48.6c-0.04214-2.1395-1.7607-3.8669-3.9-3.92h-70.9c-2.1625 0.032202-3.9078 1.7775-3.94 3.94 0.032202 2.1625 1.7775 3.9078 3.94 3.94h70.9c1.0446 0.0012529 2.0461-0.41662 2.78-1.16 0.73596-0.73808 1.1495-1.7377 1.15-2.78l-0.03-0.02zm-0.48 17.15c-0.037543-2.1586-1.7813-3.8979-3.94-3.93h-70.9c-2.1587 0.032058-3.9025 1.7714-3.94 3.93 0.032202 2.1625 1.7775 3.9078 3.94 3.94h70.9c2.1625-0.032202 3.9078-1.7775 3.94-3.94zm-0.42 17.13c-0.037543-2.1586-1.7813-3.8979-3.94-3.93h-70.9c-1.4532-0.073279-2.8284 0.66029-3.577 1.908s-0.74857 2.8064 0 4.0541 2.1238 1.9813 3.577 1.908h70.84c2.1859 2.46e-4 3.9672-1.7543 4-3.94zm-18.37-60.25c0.50083-0.56197 0.7562-1.3008 0.70924-2.0521-0.046955-0.75129-0.39233-1.4526-0.95924-1.9479l-8-7 7.76-7c1.1515-1.0438 1.2388-2.8235 0.195-3.975s-2.8235-1.2388-3.975-0.195l-10.09 9.13c-0.59684 0.53492-0.93787 1.2985-0.93787 2.1s0.34103 1.5651 0.93787 2.1l10.36 9.09c0.56313 0.49828 1.3014 0.75197 2.0519 0.70506s1.4514-0.39054 1.9481-0.95506z" fill="#E6EDF2" fill-rule="nonzero"/>
<path d="m220.45 107c2.1587 0.032058 3.9025 1.7714 3.94 3.93-0.032202 2.1625-1.7775 3.9078-3.94 3.94h-77.54c-2.1586-0.037543-3.8979-1.7813-3.93-3.94 0.03739-2.1548 1.7752-3.8926 3.93-3.93h77.54z" fill="#7EB5BD" fill-rule="nonzero"/>
<path d="m223.48 49.87v0.32c0.005542 2.0948-1.6852 3.799-3.78 3.81h-57.79c-2.0831-0.010935-3.7691-1.6969-3.78-3.78v-0.32c0.005495-2.0854 1.6946-3.7745 3.78-3.78h57.79c2.0737 0.0053562 3.7581 1.6764 3.78 3.75z" fill="#7EB5BD" fill-rule="nonzero"/>
<path d="m220.17 124.11c2.1587 0.032058 3.9025 1.7714 3.94 3.93-0.032202 2.1625-1.7775 3.9078-3.94 3.94h-77.53c-1.4532 0.073279-2.8284-0.66029-3.577-1.908s-0.74857-2.8064 0-4.0541 2.1238-1.9813 3.577-1.908h77.53z" fill="#7EB5BD" fill-rule="nonzero"/>
<polygon points="207.35 88.91 214.08 98.57 200.61 98.57" fill="#D4F4F2" fill-rule="nonzero"/>
<rect x="158.13" y="65.12" width="48.9" height="7.87" rx="3.27" fill="#7EB5BD" fill-rule="nonzero"/>
<path d="m190.19 88.91c2.6662 0.0055201 4.8237 2.1704 4.82 4.8367-0.003678 2.6662-2.1671 4.8252-4.8333 4.8233-2.6662-0.0018362-4.8267-2.1638-4.8267-4.83-3e-6 -1.2827 0.51024-2.5128 1.4182-3.4189 0.90796-0.90609 2.1391-1.4138 3.4218-1.4111z" fill="#D4F4F2" fill-rule="nonzero"/>
<path d="m174.28 89.8c2.1625 0.032202 3.9078 1.7775 3.94 3.94-0.032202 2.1625-1.7775 3.9078-3.94 3.94h-9.07c-1.5946 0.0049519-3.0341-0.95415-3.6437-2.4277-0.60958-1.4735-0.26834-3.1693 0.86372-4.2923 0.73263-0.74528 1.7349-1.1635 2.78-1.16h9.07z" fill="#D4F4F2" fill-rule="nonzero"/>
<path d="m152.68 89.8c2.1625 0.032202 3.9078 1.7775 3.94 3.94-0.032202 2.1625-1.7775 3.9078-3.94 3.94h-9.07c-1.5928 8.858e-4 -3.0286-0.9597-3.6356-2.4323-0.60701-1.4726-0.26515-3.1659 0.86561-4.2877 0.7302-0.7428 1.7284-1.1608 2.77-1.16h9.07z" fill="#D4F4F2" fill-rule="nonzero"/>
<path d="m151.7 54.7c0.59684 0.53492 0.93787 1.2985 0.93787 2.1s-0.34103 1.5651-0.93787 2.1l-10.37 9.1c-1.1702 1.0094-2.9349 0.88886-3.957-0.27027-1.0221-1.1591-0.92088-2.925 0.22701-3.9597l8-7-7.76-7c-0.7449-0.67523-1.073-1.6966-0.86066-2.6793 0.21232-0.98272 0.93278-1.7775 1.89-2.085 0.95722-0.30749 2.0058-0.080944 2.7507 0.59429l10.08 9.1z" fill="#D4F4F2" fill-rule="nonzero"/>
<path d="m132.67 43.47c-0.010861 0.57906-0.14734 1.1489-0.4 1.67l-12.35 26.56c-0.7677 1.0598-2.1904 1.407-3.36 0.82-1.3497-0.63272-1.935-2.2367-1.31-3.59l12.34-26.56c0.63272-1.3497 2.2367-1.935 3.59-1.31 0.93648 0.43019 1.5237 1.38 1.49 2.41z" fill="#C4D4DD" fill-rule="nonzero"/>
<path d="m126 89.8c1.5946-0.0049519 3.0341 0.95415 3.6437 2.4277 0.60958 1.4735 0.26834 3.1693-0.86372 4.2923-0.73392 0.74338-1.7354 1.1613-2.78 1.16h-70.9c-1.5946 0.0049519-3.0341-0.95415-3.6437-2.4277s-0.26834-3.1693 0.86372-4.2923c0.73263-0.74528 1.7349-1.1635 2.78-1.16h70.9z" fill="#C4D4DD" fill-rule="nonzero"/>
<path d="m125.51 107c2.1587 0.032058 3.9025 1.7714 3.94 3.93-0.032202 2.1625-1.7775 3.9078-3.94 3.94h-70.9c-1.595 0.01078-3.0375-0.94594-3.648-2.4195-0.61051-1.4736-0.26729-3.1701 0.86798-4.2905 0.73392-0.74338 1.7354-1.1613 2.78-1.16h70.9z" fill="#C4D4DD" fill-rule="nonzero"/>
<path d="m125 124.11c2.1669-8.2e-4 3.9404 1.7239 4 3.89 0 2.2091-1.7909 4-4 4h-70.9c-1.4532 0.073279-2.8284-0.66029-3.577-1.908s-0.74857-2.8064 0-4.0541 2.1238-1.9813 3.577-1.908l70.9-0.02z" fill="#C4D4DD" fill-rule="nonzero"/>
<circle cx="113.74" cy="10.86" r="3.71" fill="#C4D4DD" fill-rule="nonzero"/>
<path d="m110.36 63.81c1.1479 1.0347 1.2491 2.8006 0.22701 3.9597-1.0221 1.1591-2.7868 1.2797-3.957 0.27027l-10.34-9.14c-0.59684-0.53492-0.93787-1.2985-0.93787-2.1s0.34103-1.5651 0.93787-2.1l10.09-9.13c0.7449-0.67523 1.7934-0.90177 2.7507-0.59429 0.95722 0.30749 1.6777 1.1023 1.89 2.085s-0.11576 2.0041-0.86066 2.6793l-7.76 7 7.96 7.07z" fill="#D4F4F2" fill-rule="nonzero"/>
<path d="m86.87 28.46c3.4357 11.05 1.414 23.076-5.4462 32.395-6.8602 9.3193-17.742 14.823-29.314 14.825-18.687-0.0027326-34.336-14.155-36.211-32.748-1.875-18.593 10.633-35.585 28.943-39.318 18.31-3.7338 36.473 7.0038 42.028 24.846zm-18.8 2.19c2.0158-2.0158 2.0158-5.2842-1e-7 -7.3-2.0158-2.0158-5.2842-2.0158-7.3-1e-7l-8.66 8.65-8.67-8.66c-2.0158-2.0158-5.2842-2.0158-7.3 0s-2.0158 5.2842 0 7.3l8.67 8.67-8.67 8.69c-2.0158 2.0158-2.0158 5.2842 1e-7 7.3 2.0158 2.0158 5.2842 2.0158 7.3 1e-7l8.67-8.66 8.66 8.66c2.0158 2.0158 5.2842 2.0158 7.3-1e-7 2.0158-2.0158 2.0158-5.2842 1e-7 -7.3l-8.66-8.66 8.66-8.69z" fill="#FF7C6E" fill-rule="nonzero"/>
<path d="m68.07 23.35c0.97096 0.96649 1.5168 2.28 1.5168 3.65s-0.54586 2.6835-1.5168 3.65l-8.66 8.67 8.66 8.66c2.0158 2.0158 2.0158 5.2842-1e-7 7.3-2.0158 2.0158-5.2842 2.0158-7.3 1e-7l-8.66-8.66-8.67 8.66c-1.304 1.304-3.2047 1.8133-4.986 1.336-1.7813-0.4773-3.1727-1.8687-3.65-3.65-0.4773-1.7813 0.031973-3.682 1.336-4.986l8.67-8.66-8.67-8.67c-2.0158-2.0158-2.0158-5.2842 0-7.3s5.2842-2.0158 7.3 0l8.67 8.65 8.66-8.66c0.96782-0.96964 2.2821-1.5137 3.6521-1.5118 1.37 0.0018767 2.6828 0.54954 3.6479 1.5218z" fill="#D4F4F2" fill-rule="nonzero"/>
<circle cx="24.52" cy="101.02" r="3.71" fill="#C4D4DD" fill-rule="nonzero"/>
<path d="m14.19 131.63c1.5064-0.004044 2.8666 0.90082 3.4449 2.2918s0.26072 2.9934-0.80448 4.0586-2.6677 1.3828-4.0586 0.80448c-1.391-0.57835-2.2958-1.9385-2.2918-3.4449 0.0054945-2.0467 1.6633-3.7045 3.71-3.71z" fill="#C4D4DD" fill-rule="nonzero"/>
<path d="m3.86 97.31c1.5015 0.0040688 2.8524 0.91272 3.4223 2.3018 0.56989 1.3891 0.24633 2.9847-0.81965 4.0421-1.066 1.0574-2.6642 1.368-4.0486 0.78689-1.3844-0.58112-2.2821-1.9394-2.274-3.4408 0.016475-2.0428 1.6772-3.6901 3.72-3.69z" fill="#C4D4DD" fill-rule="nonzero"/>
<path d="m86.87 28.46c3.4357 11.05 1.414 23.076-5.4462 32.395-6.8602 9.3193-17.742 14.823-29.314 14.825-18.687-0.0027326-34.336-14.155-36.211-32.748-1.875-18.593 10.633-35.585 28.943-39.318 18.31-3.7338 36.473 7.0038 42.028 24.846z" stroke="#6E7F89" stroke-linecap="round" stroke-linejoin="round" stroke-width="1.54"/>
<path d="m41.33 74.06v66.39c-3.7e-6 4.0996 3.3204 7.4245 7.42 7.43h179.13c4.0996-0.005518 7.42-3.3304 7.42-7.43v-104.64c0-4.098-3.322-7.42-7.42-7.42h-140.36" stroke="#6E7F89" stroke-linecap="round" stroke-linejoin="round" stroke-width="1.54"/>
<path d="m219.7 54h-57.79c-2.0831-0.010935-3.7691-1.6969-3.78-3.78v-0.32c0.005495-2.0854 1.6946-3.7745 3.78-3.78h57.79c2.0854 0.005495 3.7745 1.6946 3.78 3.78v0.32c-0.010935 2.0831-1.6969 3.7691-3.78 3.78v0z" stroke="#6E7F89" stroke-linecap="round" stroke-linejoin="round" stroke-width="1.54"/>
<path d="m126 97.68h-70.9c-1.5946 0.0049519-3.0341-0.95415-3.6437-2.4277s-0.26834-3.1693 0.86372-4.2923c0.73263-0.74528 1.7349-1.1635 2.78-1.16h70.9c1.5946-0.0049519 3.0341 0.95415 3.6437 2.4277 0.60958 1.4735 0.26834 3.1693-0.86372 4.2923-0.73392 0.74338-1.7354 1.1613-2.78 1.16z" stroke="#6E7F89" stroke-linecap="round" stroke-linejoin="round" stroke-width="1.54"/>
<path d="m125.51 114.83h-70.9c-1.595 0.01078-3.0375-0.94594-3.648-2.4195-0.61051-1.4736-0.26729-3.1701 0.86798-4.2905 0.73392-0.74338 1.7354-1.1613 2.78-1.16h70.9c2.1587 0.032058 3.9025 1.7714 3.94 3.93-0.032202 2.1625-1.7775 3.9078-3.94 3.94v0z" stroke="#6E7F89" stroke-linecap="round" stroke-linejoin="round" stroke-width="1.54"/>
<path d="m125 132h-70.9c-1.4532 0.073279-2.8284-0.66029-3.577-1.908s-0.74857-2.8064 0-4.0541 2.1238-1.9813 3.577-1.908h70.9c2.1594-0.001141 3.9298 1.7118 4 3.87 0 2.2091-1.7909 4-4 4z" stroke="#6E7F89" stroke-linecap="round" stroke-linejoin="round" stroke-width="1.54"/>
<rect x="158.13" y="65.12" width="48.9" height="7.87" rx="3.27" stroke="#6E7F89" stroke-linecap="round" stroke-linejoin="round" stroke-width="1.54"/>
<path d="m220.45 114.83h-77.54c-2.1586-0.037543-3.8979-1.7813-3.93-3.94 0.03739-2.1548 1.7752-3.8926 3.93-3.93h77.54c2.1587 0.032058 3.9025 1.7714 3.94 3.93-0.032202 2.1625-1.7775 3.9078-3.94 3.94v0z" stroke="#6E7F89" stroke-linecap="round" stroke-linejoin="round" stroke-width="1.54"/>
<path d="m220.17 132h-77.53c-1.4532 0.073279-2.8284-0.66029-3.577-1.908s-0.74857-2.8064 0-4.0541 2.1238-1.9813 3.577-1.908h77.53c2.1587 0.032058 3.9025 1.7714 3.94 3.93-0.032202 2.1625-1.7775 3.9078-3.94 3.94v0z" stroke="#6E7F89" stroke-linecap="round" stroke-linejoin="round" stroke-width="1.54"/>
<path d="m152.68 97.68h-9.07c-1.5928 8.858e-4 -3.0286-0.9597-3.6356-2.4323-0.60701-1.4726-0.26515-3.1659 0.86561-4.2877 0.7302-0.7428 1.7284-1.1608 2.77-1.16h9.07c2.1625 0.032202 3.9078 1.7775 3.94 3.94-0.032202 2.1625-1.7775 3.9078-3.94 3.94z" stroke="#6E7F89" stroke-linecap="round" stroke-linejoin="round" stroke-width="1.54"/>
<path d="m174.28 97.68h-9.07c-1.5946 0.0049519-3.0341-0.95415-3.6437-2.4277-0.60958-1.4735-0.26834-3.1693 0.86372-4.2923 0.73263-0.74528 1.7349-1.1635 2.78-1.16h9.07c2.1625 0.032202 3.9078 1.7775 3.94 3.94-0.032202 2.1625-1.7775 3.9078-3.94 3.94v0z" stroke="#6E7F89" stroke-linecap="round" stroke-linejoin="round" stroke-width="1.54"/>
<path d="m108.5 68.74c-0.68768 0.0016185-1.3524-0.24721-1.87-0.7l-10.34-9.14c-0.59684-0.53492-0.93787-1.2985-0.93787-2.1s0.34103-1.5651 0.93787-2.1l10.09-9.13c0.7449-0.67523 1.7934-0.90177 2.7507-0.59429 0.95722 0.30749 1.6777 1.1023 1.89 2.085s-0.11576 2.0041-0.86066 2.6793l-7.76 7 8 7c0.87503 0.77586 1.1804 2.0113 0.76758 3.1055-0.41281 1.0942-1.4581 1.82-2.6276 1.8245l-0.04 0.07z" stroke="#6E7F89" stroke-linecap="round" stroke-linejoin="round" stroke-width="1.54"/>
<path d="m132.27 45.14l-12.35 26.56c-0.7677 1.0598-2.1904 1.407-3.36 0.82-1.3497-0.63272-1.935-2.2367-1.31-3.59l12.34-26.56c0.63272-1.3497 2.2367-1.935 3.59-1.31 0.93648 0.43019 1.5237 1.38 1.49 2.41-0.010861 0.57906-0.14734 1.1489-0.4 1.67v0z" stroke="#6E7F89" stroke-linecap="round" stroke-linejoin="round" stroke-width="1.54"/>
<path d="m139.47 68.74c0.68474 0.0019469 1.3464-0.24709 1.86-0.7l10.35-9.14c0.59684-0.53492 0.93787-1.2985 0.93787-2.1s-0.34103-1.5651-0.93787-2.1l-10.09-9.13c-1.1515-1.0438-2.9312-0.95651-3.975 0.195s-0.95651 2.9312 0.195 3.975l7.76 7-8 7c-0.87638 0.77708-1.1812 2.015-0.76578 3.1101 0.4154 1.0951 1.4645 1.8195 2.6358 1.8199l0.03 0.07z" stroke="#6E7F89" stroke-linecap="round" stroke-linejoin="round" stroke-width="1.54"/>
<path d="m195 93.74c0.004044 1.9594-1.1737 3.7279-2.9832 4.4797s-3.8937 0.33825-5.2792-1.0473c-1.3855-1.3855-1.799-3.4697-1.0473-5.2792 0.7517-1.8095 2.5202-2.9872 4.4797-2.9832 2.6675 0 4.83 2.1625 4.83 4.83v0z" stroke="#6E7F89" stroke-linecap="round" stroke-linejoin="round" stroke-width="1.54"/>
<polygon points="207.35 88.91 200.61 98.57 214.08 98.57" stroke="#6E7F89" stroke-linecap="round" stroke-linejoin="round" stroke-width="1.54"/>
<polyline points="251.24 109.27 251.24 113.2 251.24 130.82" stroke="#6E7F89" stroke-linecap="round" stroke-linejoin="round" stroke-width="1.54"/>
<path d="m251.24 113.2s0 9.13 13.57 8.06" stroke="#6E7F89" stroke-linecap="round" stroke-linejoin="round" stroke-width="1.54"/>
<path d="m255.05 105.4c0.004047 1.5055-0.89973 2.865-2.2895 3.444-1.3897 0.57894-2.9914 0.26314-4.0574-0.79998-1.066-1.0631-1.3861-2.6639-0.8109-4.0552 0.57519-1.3913 1.9323-2.2987 3.4378-2.2987 2.0506-7e-6 3.7145 1.6594 3.72 3.71z" stroke="#6E7F89" stroke-linecap="round" stroke-linejoin="round" stroke-width="1.54"/>
<circle cx="249.71" cy="65.12" r="3.71" stroke="#6E7F89" stroke-linecap="round" stroke-linejoin="round" stroke-width="1.54"/>
<circle cx="113.74" cy="10.86" r="3.71" stroke="#6E7F89" stroke-linecap="round" stroke-linejoin="round" stroke-width="1.54"/>
<circle cx="268.61" cy="120.36" r="3.71" stroke="#6E7F89" stroke-linecap="round" stroke-linejoin="round" stroke-width="1.54"/>
<path d="m255.05 134.58c0.004047 1.5055-0.89973 2.865-2.2895 3.444-1.3897 0.57894-2.9914 0.26314-4.0574-0.79998-1.066-1.0631-1.3861-2.6639-0.8109-4.0552 0.57519-1.3913 1.9323-2.2987 3.4378-2.2987 2.0506-7e-6 3.7145 1.6594 3.72 3.71z" stroke="#6E7F89" stroke-linecap="round" stroke-linejoin="round" stroke-width="1.54"/>
<polyline points="166.72 7.27 173.48 7.27 180.24 7.27" stroke="#6E7F89" stroke-linecap="round" stroke-linejoin="round" stroke-width="1.54"/>
<polyline points="173.48 0.31 173.48 7.27 173.48 14.76" stroke="#6E7F89" stroke-linecap="round" stroke-linejoin="round" stroke-width="1.54"/>
<polyline points="71.85 164.21 78.61 164.21 85.38 164.21" stroke="#6E7F89" stroke-linecap="round" stroke-linejoin="round" stroke-width="1.54"/>
<polyline points="78.61 157.26 78.61 164.21 78.61 171.71" stroke="#6E7F89" stroke-linecap="round" stroke-linejoin="round" stroke-width="1.54"/>
<path d="m24.43 105v4.87c0 3.25-2.58 6-6.25 7.23-2.37 0.77-4 2.46-4 4.42" stroke="#6E7F89" stroke-linecap="round" stroke-linejoin="round" stroke-width="1.54"/>
<path d="m4 105v4.88c0 3.25 2.58 6 6.25 7.22 2.36 0.77 4 2.46 4 4.42v9.87" stroke="#6E7F89" stroke-linecap="round" stroke-linejoin="round" stroke-width="1.54"/>
<circle cx="24.52" cy="101.02" r="3.71" stroke="#6E7F89" stroke-linecap="round" stroke-linejoin="round" stroke-width="1.54"/>
<path d="m17.9 135.34c0 2.049-1.661 3.71-3.71 3.71s-3.71-1.661-3.71-3.71 1.661-3.71 3.71-3.71c2.0467 0.005495 3.7045 1.6633 3.71 3.71z" stroke="#6E7F89" stroke-linecap="round" stroke-linejoin="round" stroke-width="1.54"/>
<path d="m7.57 101c0.0040441 1.5064-0.90082 2.8666-2.2918 3.4449-1.391 0.57835-2.9934 0.26072-4.0586-0.80448-1.0652-1.0652-1.3828-2.6677-0.80448-4.0586 0.57835-1.391 1.9385-2.2958 3.4449-2.2918 2.0467 0.0054945 3.7045 1.6633 3.71 3.71v0z" stroke="#6E7F89" stroke-linecap="round" stroke-linejoin="round" stroke-width="1.54"/>
<path d="m60.77 23.35l-8.66 8.65-8.67-8.66c-2.0158-2.0158-5.2842-2.0158-7.3 0s-2.0158 5.2842 0 7.3l8.67 8.67-8.67 8.69c-2.0158 2.0158-2.0158 5.2842 1e-7 7.3 2.0158 2.0158 5.2842 2.0158 7.3 1e-7l8.67-8.66 8.66 8.66c2.0158 2.0158 5.2842 2.0158 7.3-1e-7 2.0158-2.0158 2.0158-5.2842 1e-7 -7.3l-8.66-8.66 8.66-8.67c2.0158-2.0158 2.0158-5.2842-1e-7 -7.3-2.0158-2.0158-5.2842-2.0158-7.3-1e-7v-0.02z" stroke="#6E7F89" stroke-width="1.54"/>
<path d="m227.88 28.39h-15c4.098 0 7.42 3.322 7.42 7.42v104.65c0 4.098-3.322 7.42-7.42 7.42h15c4.098 0 7.42-3.322 7.42-7.42v-104.65c0-4.098-3.322-7.42-7.42-7.42z" fill="#000" fill-rule="nonzero" opacity=".07"/>
<path d="m81 17.15c10.997 14.492 9.6052 34.878-3.2585 47.742-12.864 12.864-33.249 14.255-47.742 3.2585 8.5796 11.307 22.949 16.596 36.812 13.548 13.863-3.0471 24.69-13.874 27.737-27.737 3.0471-13.863-2.2415-28.232-13.548-36.812z" fill="#000" fill-rule="nonzero" opacity=".07"/>
</g>
</g>
</svg>
