<?xml version="1.0" encoding="UTF-8"?>
<svg version="1.1" viewBox="0 0 161 198" xmlns="http://www.w3.org/2000/svg">
<g fill="none" fill-rule="evenodd">
<g transform="translate(1 1)">
<path d="m135.64 36.51v142.27c1.2e-5 1.305-1.055 2.3645-2.36 2.37h-116.43c-1.3089 0-2.37-1.0611-2.37-2.37v-142.27h121.16zm-12.64 24.31l3.49-3.4-4.82-0.7-2.15-4.37-2.16 4.37-4.82 0.7 3.49 3.4-0.82 4.8 4.31-2.27 4.3 2.27-0.82-4.8zm2.08 87.24v-6.53h-61.73v6.53h61.73zm0-12.35v-6.53h-96.92v6.53h96.92zm0-12.35v-6.53h-96.92v6.53h96.92zm0-12.35v-6.53h-96.92v6.52l96.92 0.01zm0-31v-6.53h-46.81v6.52l46.81 0.01zm-20.08-19.19l3.49-3.4-4.82-0.7-2.16-4.37-2.15 4.37-4.82 0.7 3.49 3.4-0.82 4.8 4.3-2.27 4.31 2.27-0.82-4.8zm-1.39 31.18v-6.53h-25.34v6.53h25.34zm-16.61-31.18l3.48-3.4-4.81-0.7-2.16-4.37-2.15 4.37-4.82 0.7 3.49 3.4-0.83 4.8 4.31-2.27 4.31 2.27-0.82-4.8zm-16 7.73c4.033e-4 -10.835-7.3797-20.277-17.894-22.893s-21.458 2.2659-26.536 11.837-2.9819 21.371 5.0805 28.609c8.0624 7.2379 20.019 8.0533 28.989 1.9769 6.4789-4.3887 10.36-11.705 10.36-19.53zm-13.53 87.33c-5.31e-5 -7.1732-5.8102-12.991-12.983-13s-12.998 5.7935-13.017 12.967c-0.018375 7.1732 5.7768 13.006 12.95 13.033 3.4495 0.002653 6.7587-1.3658 9.1989-3.8041 2.4401-2.4383 3.8111-5.7464 3.8111-9.1959h0.04z" fill="#E6EDF2" fill-rule="nonzero"/>
<path d="m135.64 27v9.47h-121.16v-9.47c0.0055064-1.305 1.065-2.36 2.37-2.36h116.43c1.3034 0 2.36 1.0566 2.36 2.36zm-93.86 3.47c0.0040437-0.89162-0.53048-1.6975-1.3535-2.0406s-1.7717-0.15549-2.4021 0.47499-0.81807 1.5792-0.47499 2.4021 1.149 1.3575 2.0406 1.3535c1.1919-0.0051101 2.1629-0.95842 2.19-2.15v-0.04zm-9 0c0.0040487-0.89072-0.52939-1.696-1.3511-2.0397-0.82175-0.34367-1.7696-0.15792-2.4009 0.47048-0.63127 0.6284-0.82133 1.5754-0.48141 2.3988 0.33992 0.82331 1.1427 1.3604 2.0335 1.3604 1.1958 3.089e-4 2.1728-0.95454 2.2-2.15v-0.04zm-9 0c0.0040487-0.89072-0.52939-1.696-1.3511-2.0397-0.82175-0.34367-1.7696-0.15792-2.4009 0.47048-0.63127 0.6284-0.82133 1.5754-0.48141 2.3988 0.33992 0.82331 1.1427 1.3604 2.0335 1.3604 1.1958 3.089e-4 2.1728-0.95454 2.2-2.15v-0.04z" fill="#C4D4DD" fill-rule="nonzero"/>
<polygon points="126.49 57.42 123 60.82 123.82 65.62 119.52 63.35 115.21 65.62 116.03 60.82 112.54 57.42 117.36 56.72 119.52 52.35 121.67 56.72" fill="#FDAE76" fill-rule="nonzero"/>
<rect x="63.35" y="141.53" width="61.73" height="6.53" fill="#7EB5BD" fill-rule="nonzero"/>
<rect x="28.16" y="129.18" width="96.92" height="6.53" fill="#C4D4DD" fill-rule="nonzero"/>
<rect x="28.16" y="116.83" width="96.92" height="6.53" fill="#C4D4DD" fill-rule="nonzero"/>
<rect x="28.16" y="104.48" width="96.92" height="6.53" fill="#C4D4DD" fill-rule="nonzero"/>
<rect x="78.27" y="73.48" width="46.81" height="6.53" fill="#7EB5BD" fill-rule="nonzero"/>
<path d="m119.52 181.15v11.18c0.05062 1.5999-1.2004 2.9403-2.8 3h-113.6c-1.5981-0.05967-2.8463-1.4018-2.79-3v-144.33c-0.056259-1.5982 1.1919-2.9403 2.79-3h11.36v133.78c0 1.3089 1.0611 2.37 2.37 2.37h102.67z" fill="#C4D4DD" fill-rule="nonzero"/>
<polygon points="108.49 57.42 105 60.82 105.82 65.62 101.51 63.35 97.21 65.62 98.03 60.82 94.54 57.42 99.36 56.72 101.51 52.35 103.67 56.72" fill="#FDAE76" fill-rule="nonzero"/>
<rect x="78.27" y="85.48" width="25.34" height="6.53" fill="#7EB5BD" fill-rule="nonzero"/>
<polygon points="90.48 57.42 87 60.82 87.82 65.62 83.51 63.35 79.2 65.62 80.03 60.82 76.54 57.42 81.36 56.72 83.51 52.35 85.67 56.72" fill="#FDAE76" fill-rule="nonzero"/>
<path d="m47.37 45c10.363 5.694e-4 19.511 6.7637 22.551 16.671 3.0396 9.9068-0.74193 20.637-9.3211 26.449l-0.13-0.18c-0.58665-2.85-3.0903-4.8988-6-4.91h-4.87c4.3198-0.010992 7.819-3.5102 7.83-7.83v-1.2h1.57c0.97391 0.028069 1.7874-0.73623 1.82-1.71v-9.4c-0.12498-3.7043-3.2255-6.6079-6.93-6.49h-12.25c-6.5 0-6.94-3.69-6.94-3.69v19.6c0.032623 0.97377 0.84609 1.7381 1.82 1.71h1v1.14c0.010992 4.3198 3.5102 7.819 7.83 7.83h-5.13c-2.7417 1.659e-4 -5.1521 1.8151-5.91 4.45h-1c-8.0904-6.0872-11.394-16.658-8.2103-26.269 3.184-9.6109 12.146-16.118 22.27-16.171z" fill="#D4F4F2" fill-rule="nonzero"/>
<path d="m60.82 62.89v9.42c-0.043285 0.96586-0.85359 1.7183-1.82 1.69h-1.57v-6.18c-0.021922-4.3137-3.5163-7.8036-7.83-7.82h-4.29c-3.1452 0.010273-5.9815 1.8946-7.21 4.79-0.40499 0.94854-0.61581 1.9686-0.62 3v6.21h-1c-0.97391 0.028069-1.7874-0.73623-1.82-1.71v-19.58s0.44 3.69 6.94 3.69h12.25c1.7859-0.067492 3.5252 0.57922 4.8332 1.7971s2.0769 2.9067 2.1368 4.6929z" fill="#7EB5BD" fill-rule="nonzero"/>
<path d="m60.47 87.9l0.13 0.18c-8.317 5.6357-19.291 5.3828-27.34-0.63h1c0.75786-2.6349 3.1683-4.4498 5.91-4.45h14.27c2.9179-0.0039717 5.4369 2.043 6.03 4.9z" fill="#C4D4DD" fill-rule="nonzero"/>
<path d="m57.43 74v1.14c0.0055319 4.3315-3.4985 7.849-7.83 7.86h-4.29c-4.3198-0.010992-7.819-3.5102-7.83-7.83v-7.32c0.0041932-1.0314 0.21501-2.0515 0.62-3l0.36 0.11c5.5763 3.7447 12.379 5.202 19 4.07l-0.03 4.97zm-2.89 2.23c0.32635-0.43518 0.245-1.0514-0.18312-1.387-0.42811-0.33558-1.0459-0.2674-1.3906 0.15344-0.34465 0.42085-0.28969 1.04 0.1237 1.3935 0.20742 0.1818 0.48072 0.26987 0.75526 0.24336 0.27454-0.026507 0.52594-0.16523 0.69474-0.38336v-0.02zm-11.77 0.1c0.35622-0.44459 0.28459-1.0938-0.16-1.45s-1.0938-0.28459-1.45 0.16c-0.23044 0.2876-0.28994 0.67629-0.15609 1.0197 0.13385 0.34336 0.44071 0.58924 0.805 0.645 0.36429 0.055764 0.73065-0.087052 0.96109-0.37465z" fill="#F9E3D4" fill-rule="nonzero"/>
<path d="m57.43 67.84v1.16c-6.621 1.132-13.424-0.32525-19-4.07l-0.36-0.11c1.2235-2.9172 4.0766-4.8167 7.24-4.82h4.29c4.3214 0.01648 7.819 3.5185 7.83 7.84z" fill="#7EB5BD" fill-rule="nonzero"/>
<path d="m54.38 74.79c0.41533 0.35094 0.47414 0.96943 0.13238 1.3924-0.34175 0.42292-0.95881 0.49527-1.3891 0.16286-0.43031-0.3324-0.51616-0.94772-0.19326-1.3852 0.16427-0.22257 0.4134-0.36715 0.68814-0.39936 0.27475-0.032212 0.55056 0.050825 0.76186 0.22936z" fill="#6E7F89" fill-rule="nonzero"/>
<path d="m44.38 142.84c7.1797 0 13 5.8203 13 13s-5.8203 13-13 13-13-5.8203-13-13 5.8203-13 13-13z" fill="#7EB5BD" fill-rule="nonzero"/>
<path d="m42.61 74.9c0.44459 0.35622 0.51622 1.0054 0.16 1.45s-1.0054 0.51622-1.45 0.16-0.51622-1.0054-0.16-1.45 1.0054-0.51622 1.45-0.16z" fill="#6E7F89" fill-rule="nonzero"/>
<path d="m39.59 28.31c1.215 0 2.2 0.98497 2.2 2.2s-0.98497 2.2-2.2 2.2-2.2-0.98497-2.2-2.2 0.98497-2.2 2.2-2.2z" fill="#D4F4F2" fill-rule="nonzero"/>
<path d="m30.58 28.31c0.89072-0.0040487 1.696 0.52939 2.0397 1.3511 0.34367 0.82175 0.15792 1.7696-0.47048 2.4009-0.6284 0.63127-1.5754 0.82133-2.3988 0.48141-0.82331-0.33992-1.3604-1.1427-1.3604-2.0335-1.25e-5 -1.2111 0.97888-2.1945 2.19-2.2z" fill="#D4F4F2" fill-rule="nonzero"/>
<path d="m21.58 28.31c0.89072-0.0040487 1.696 0.52939 2.0397 1.3511 0.34367 0.82175 0.15792 1.7696-0.47048 2.4009-0.6284 0.63127-1.5754 0.82133-2.3988 0.48141-0.82331-0.33992-1.3604-1.1427-1.3604-2.0335-1.25e-5 -1.2111 0.97888-2.1945 2.19-2.2z" fill="#D4F4F2" fill-rule="nonzero"/>
<path d="m135.64 36.51v142.27c1.2e-5 1.305-1.055 2.3645-2.36 2.37h-116.43c-1.3089 0-2.37-1.0611-2.37-2.37v-151.78c0.0055064-1.305 1.065-2.36 2.37-2.36h116.43c1.3034 0 2.36 1.0566 2.36 2.36v9.51z" stroke="#6E7F89" stroke-linecap="round" stroke-linejoin="round" stroke-width="1.54"/>
<path d="m14.48 36.51h121.16" stroke="#6E7F89" stroke-linecap="round" stroke-linejoin="round" stroke-width="1.54"/>
<path d="m33.26 87.45c-9.2682-6.9246-12.144-19.55-6.7881-29.806 5.3556-10.255 17.36-15.11 28.339-11.461 10.979 3.6492 17.688 14.724 15.839 26.145-1.8491 11.421-11.711 19.813-23.28 19.811-5.0867 0.003607-10.038-1.642-14.11-4.69v0z" stroke="#6E7F89" stroke-linecap="round" stroke-linejoin="round" stroke-width="1.44"/>
<polygon points="83.51 52.35 85.67 56.72 90.48 57.42 87 60.82 87.82 65.62 83.51 63.35 79.2 65.62 80.03 60.82 76.54 57.42 81.36 56.72" stroke="#6E7F89" stroke-linecap="round" stroke-linejoin="round" stroke-width="1.44"/>
<polygon points="101.51 52.35 103.67 56.72 108.49 57.42 105 60.82 105.82 65.62 101.51 63.35 97.21 65.62 98.03 60.82 94.54 57.42 99.36 56.72" stroke="#6E7F89" stroke-linecap="round" stroke-linejoin="round" stroke-width="1.44"/>
<polygon points="119.52 52.35 121.67 56.72 126.49 57.42 123 60.82 123.82 65.62 119.52 63.35 115.21 65.62 116.03 60.82 112.54 57.42 117.36 56.72" stroke="#6E7F89" stroke-linecap="round" stroke-linejoin="round" stroke-width="1.44"/>
<path d="m23.78 30.51c0 1.215-0.98497 2.2-2.2 2.2s-2.2-0.98497-2.2-2.2 0.98497-2.2 2.2-2.2c0.58429-0.0026741 1.1454 0.22825 1.5586 0.64141 0.41316 0.41316 0.64409 0.97429 0.64141 1.5586v0z" stroke="#6E7F89" stroke-linecap="round" stroke-linejoin="round" stroke-width="1.54"/>
<path d="m32.78 30.51c0 1.215-0.98497 2.2-2.2 2.2s-2.2-0.98497-2.2-2.2 0.98497-2.2 2.2-2.2c0.58429-0.0026741 1.1454 0.22825 1.5586 0.64141 0.41316 0.41316 0.64409 0.97429 0.64141 1.5586z" stroke="#6E7F89" stroke-linecap="round" stroke-linejoin="round" stroke-width="1.54"/>
<path d="m41.78 30.51c-9.2e-6 0.89072-0.53711 1.6936-1.3604 2.0335-0.82331 0.33992-1.7704 0.14986-2.3988-0.48141-0.6284-0.63127-0.81415-1.5792-0.47048-2.4009 0.34367-0.82175 1.1489-1.3552 2.0397-1.3511 0.58256-6.1e-6 1.1411 0.2321 1.5521 0.64497 0.41099 0.41287 0.64055 0.97248 0.63789 1.555z" stroke="#6E7F89" stroke-linecap="round" stroke-linejoin="round" stroke-width="1.54"/>
<rect x="78.27" y="73.48" width="46.81" height="6.53" stroke="#6E7F89" stroke-linecap="round" stroke-linejoin="round" stroke-width="1.54"/>
<rect x="28.16" y="104.48" width="96.92" height="6.53" stroke="#6E7F89" stroke-linecap="round" stroke-linejoin="round" stroke-width="1.54"/>
<rect x="28.16" y="116.83" width="96.92" height="6.53" stroke="#6E7F89" stroke-linecap="round" stroke-linejoin="round" stroke-width="1.54"/>
<rect x="28.16" y="129.18" width="96.92" height="6.53" stroke="#6E7F89" stroke-linecap="round" stroke-linejoin="round" stroke-width="1.54"/>
<rect x="63.35" y="141.53" width="61.73" height="6.53" stroke="#6E7F89" stroke-linecap="round" stroke-linejoin="round" stroke-width="1.54"/>
<rect x="78.27" y="85.48" width="25.34" height="6.53" stroke="#6E7F89" stroke-linecap="round" stroke-linejoin="round" stroke-width="1.54"/>
<path d="m49.6 83c4.3198-0.010992 7.819-3.5102 7.83-7.83v-7.32c-0.0054715-4.3254-3.5047-7.8335-7.83-7.85h-4.29c-3.1452 0.010273-5.9815 1.8946-7.21 4.79-0.40499 0.94854-0.61581 1.9686-0.62 3v7.32c0.010992 4.3198 3.5102 7.819 7.83 7.83" stroke="#6E7F89" stroke-linecap="round" stroke-linejoin="round" stroke-width="1.44"/>
<path d="m38.46 64.91c5.5763 3.7447 12.379 5.202 19 4.07" stroke="#6E7F89" stroke-linecap="round" stroke-linejoin="round" stroke-width="1.44"/>
<path d="m60.47 87.9c-0.58665-2.85-3.0903-4.8988-6-4.91h-14.29c-2.7417 1.659e-4 -5.1521 1.8151-5.91 4.45" stroke="#6E7F89" stroke-linecap="round" stroke-linejoin="round" stroke-width="1.44"/>
<path d="m36.52 74c-0.97391 0.028069-1.7874-0.73623-1.82-1.71v-19.58s0.44 3.69 6.94 3.69h12.25c3.7045-0.11793 6.805 2.7857 6.93 6.49v9.42c-0.043285 0.96586-0.85359 1.7183-1.82 1.69h-0.74" stroke="#6E7F89" stroke-linecap="round" stroke-linejoin="round" stroke-width="1.44"/>
<path d="m57.43 155.88c-5.31e-5 7.1732-5.8102 12.991-12.983 13s-12.998-5.7935-13.017-12.967c-0.018375-7.1732 5.7768-13.006 12.95-13.033 3.4565-0.013294 6.7759 1.3505 9.2247 3.7899s3.8253 5.7536 3.8253 9.2101z" stroke="#6E7F89" stroke-linecap="round" stroke-linejoin="round" stroke-width="1.54"/>
<path d="m63.35 155.88h49.05" stroke="#6E7F89" stroke-linecap="round" stroke-linejoin="round" stroke-width="1.54"/>
<path d="m63.35 164.88h34.03" stroke="#6E7F89" stroke-linecap="round" stroke-linejoin="round" stroke-width="1.54"/>
<path d="m14.48 45h-11.36c-1.5981 0.05967-2.8463 1.4018-2.79 3v144.33c-0.056259 1.5982 1.1919 2.9403 2.79 3h113.6c1.5996-0.059707 2.8506-1.4001 2.8-3v-11.18" stroke="#6E7F89" stroke-linecap="round" stroke-linejoin="round" stroke-width="1.54"/>
<path d="m145.89 4.95l-6.71 10.28" stroke="#6E7F89" stroke-linecap="round" stroke-linejoin="round" stroke-width="1.54"/>
<path d="m157.66 19.47l-11.46 4.43" stroke="#6E7F89" stroke-linecap="round" stroke-linejoin="round" stroke-width="1.54"/>
<path d="m127.86 0.03l0.57 12.27" stroke="#6E7F89" stroke-linecap="round" stroke-linejoin="round" stroke-width="1.54"/>
<path d="m110.32 6.61l7.64 9.62" stroke="#6E7F89" stroke-linecap="round" stroke-linejoin="round" stroke-width="1.54"/>
<path d="m146.73 35.42l11.81 3.36" stroke="#6E7F89" stroke-linecap="round" stroke-linejoin="round" stroke-width="1.54"/>
<path d="m14.48 45v133.9c-0.0026599 0.59582 0.23216 1.1681 0.65253 1.5904 0.42037 0.42225 0.99164 0.65962 1.5875 0.65961h102.79v8.09h-106.78c-2.3472 0-4.25-1.9028-4.25-4.25v-139.99h6z" fill="#000" fill-rule="nonzero" opacity=".07"/>
<path d="m67.63 56.47c6.0323 10.128 3.6624 23.154-5.5505 30.508-9.2128 7.3541-22.44 6.7786-30.98-1.348 4.7076 7.9038 13.581 12.35 22.73 11.39 9.1493-0.96033 16.906-7.1518 19.87-15.861 2.9639-8.709 0.59462-18.347-6.0695-24.689z" fill="#000" fill-rule="nonzero" opacity=".07"/>
</g>
</g>
</svg>
