<?xml version="1.0" encoding="UTF-8"?>
<svg version="1.1" viewBox="0 0 267 205" xmlns="http://www.w3.org/2000/svg">
<g fill="none" fill-rule="evenodd">
<g transform="translate(1 1)">
<path d="m192.78 52.55h-10.78v34.05c-16.665-15.348-20.777-40.053-9.9823-59.972 10.795-19.919 33.738-29.961 55.695-24.378 21.957 5.5828 37.317 25.365 37.287 48.02 0 1.33 0 2.64-0.15 4h-17.1v-10.27h-11.36v-22.17h-32.28v30.72h-11.33zm0-13.47c1.9464-4.2e-6 3.7009-1.173 4.4448-2.9716 0.74391-1.7986 0.33055-3.8683-1.0472-5.2431-1.3777-1.3749-3.4482-1.7839-5.2453-1.0363-1.797 0.74765-2.9664 2.5046-2.9624 4.451-3e-6 1.2748 0.50708 2.4972 1.4094 3.3977 0.90234 0.90046 2.1258 1.405 3.4006 1.4023z" fill="#D4F4F2" fill-rule="nonzero"/>
<path d="m264.87 54.22c-1.274 16.119-10.343 30.599-24.29 38.78l-0.23-0.38v-12.62h-6.43v16.25c-1.7736 0.71674-3.5905 1.3213-5.44 1.81l-0.16-0.6v-17.9h-35.54v14.68c-3.9273-2.038-7.5631-4.5942-10.81-7.6v-34h22.14v-30.81h32.28v22.17h11.36v10.22h17.12zm-10 12.42v-0.12c-0.005483-1.4668-1.1932-2.6545-2.66-2.66h-36.59c-1.4534 0.021859-2.6202 1.2064-2.62 2.66v0.12c0 1.4636 1.1864 2.65 2.65 2.65h36.57c1.4535-0.016384 2.6246-1.1965 2.63-2.65h0.02zm-13.38-10.92v-4.72h-28.49v4.68l28.49 0.04zm-10.49-24.72c0-1.5022-1.2178-2.72-2.72-2.72h-15.97c-1.4999 0.0054843-2.7145 1.2201-2.72 2.72 0.005509 1.4983 1.2217 2.71 2.72 2.71h15.95c1.5039 0.005549 2.729-1.2062 2.74-2.71zm0 12c0-1.5022-1.2178-2.72-2.72-2.72h-15.97c-1.4999 0.0054843-2.7145 1.2201-2.72 2.72 0.005509 1.4983 1.2217 2.71 2.72 2.71h15.95c1.5039 0.005549 2.729-1.2062 2.74-2.71zm-23.37 23.38c0-1.8888-1.5312-3.42-3.42-3.42s-3.42 1.5312-3.42 3.42 1.5312 3.42 3.42 3.42c0.90704 0 1.7769-0.36032 2.4183-1.0017 0.64138-0.64137 1.0017-1.5113 1.0017-2.4183zm-12 0c0-1.8888-1.5312-3.42-3.42-3.42s-3.42 1.5312-3.42 3.42 1.5312 3.42 3.42 3.42c0.90704 0 1.7769-0.36032 2.4183-1.0017 0.64138-0.64137 1.0017-1.5113 1.0017-2.4183z" fill="#C4D4DD" fill-rule="nonzero"/>
<path d="m254.85 66.52v0.12c-0.005508 1.4652-1.1948 2.65-2.66 2.65h-36.57c-1.4518-0.016437-2.6201-1.1981-2.62-2.65v-0.12c-1e-5 -1.4652 1.1848-2.6545 2.65-2.66h36.57c1.4551 0.021792 2.6247 1.2048 2.63 2.66z" fill="#E6EDF2" fill-rule="nonzero"/>
<path d="m197.82 171.41h-7.55v23c-12.941-10.28-18.374-27.37-13.745-43.237s18.4-27.353 34.84-29.061 32.277 6.7029 40.069 21.279 5.988 32.418-4.5639 45.139v-29.63h-12.95v-19.65h-26.29v32.16h-9.81zm0-14.89c1.9464 0.004047 3.7033-1.1653 4.451-2.9624s0.3386-3.8676-1.0363-5.2453c-1.3749-1.3777-3.4445-1.7911-5.2431-1.0472s-2.9716 2.4984-2.9716 4.4448c-6e-6 2.6526 2.1474 4.8045 4.8 4.81z" fill="#D4F4F2" fill-rule="nonzero"/>
<path d="m246.86 158.9v29.59c-14.129 17.025-39.273 19.637-56.6 5.88v-23h17.36v-32.12h26.29v19.65h12.95zm-4.4 22.48c1e-5 -1.4983-1.2117-2.7145-2.71-2.72h-16c-0.72006 0.005011-1.4094 0.29225-1.92 0.8-0.77511 0.77779-1.0065 1.9454-0.58668 2.96 0.41985 1.0146 1.4086 1.6773 2.5067 1.68h16c1.496-0.01095 2.7046-1.2239 2.71-2.72zm-8.68 11.07c0-1.5022-1.2178-2.72-2.72-2.72h-27.68c-0.72183-0.003834-1.4145 0.28476-1.92 0.8-0.77511 0.77779-1.0065 1.9454-0.58668 2.96 0.41985 1.0146 1.4086 1.6773 2.5067 1.68h27.68c0.72093-6.65e-4 1.4119-0.28856 1.92-0.8 0.50775-0.51058 0.79499-1.1999 0.8-1.92zm-4.15-25c0-1.5022-1.2178-2.72-2.72-2.72h-12.45c-1.5022 0-2.72 1.2178-2.72 2.72s1.2178 2.72 2.72 2.72h12.45c0.72093-6.65e-4 1.4119-0.28856 1.92-0.8 0.52791-0.51759 0.81758-1.2309 0.8-1.97v0.05zm-0.2-10.51c1e-5 -1.4983-1.2117-2.7145-2.71-2.72h-12.46c-0.72183-0.003834-1.4145 0.28476-1.92 0.8-0.77822 0.77518-1.0116 1.9435-0.59079 2.9581 0.42076 1.0146 1.4124 1.6749 2.5108 1.6719h12.46c1.4922-0.010892 2.6991-1.2178 2.71-2.71zm-0.19-10.52c-0.010893-1.4977-1.2223-2.7091-2.72-2.72h-12.46c-1.496 0.01095-2.7046 1.2239-2.71 2.72-1e-5 1.4983 1.2117 2.7145 2.71 2.72h12.46c0.72183 0.003834 1.4145-0.28476 1.92-0.8 0.5239-0.52027 0.81283-1.2318 0.8-1.97v0.05zm-13.78 35c0.02196-1.8886-1.4912-3.4375-3.3798-3.4595-1.8886-0.022046-3.4376 1.4911-3.4597 3.3797-0.022132 1.8886 1.4909 3.4376 3.3795 3.4598 0.91395 0.01069 1.7942-0.3449 2.4442-0.98744 0.65005-0.64254 1.0159-1.5185 1.0158-2.4326v0.04zm-12 0c0.02196-1.8886-1.4912-3.4375-3.3798-3.4595-1.8886-0.022046-3.4376 1.4911-3.4597 3.3797-0.022132 1.8886 1.4909 3.4376 3.3795 3.4598 0.91395 0.01069 1.7942-0.3449 2.4442-0.98744 0.65005-0.64254 1.0159-1.5185 1.0158-2.4326v0.04z" fill="#C4D4DD" fill-rule="nonzero"/>
<path d="m239.75 178.66c1.5022 0 2.72 1.2178 2.72 2.72s-1.2178 2.72-2.72 2.72h-16c-1.5022 0-2.72-1.2178-2.72-2.72s1.2178-2.72 2.72-2.72h16z" fill="#E6EDF2" fill-rule="nonzero"/>
<rect x="212.97" y="51.04" width="28.52" height="4.68" fill="#E6EDF2" fill-rule="nonzero"/>
<path d="m240.35 92.57l0.23 0.38c-2.133 1.2589-4.3595 2.3522-6.66 3.27v-16.22h6.43v12.57z" fill="#E6EDF2" fill-rule="nonzero"/>
<path d="m231.06 189.73c1.5022 0 2.72 1.2178 2.72 2.72s-1.2178 2.72-2.72 2.72h-27.68c-1.0981-0.002683-2.0868-0.66536-2.5067-1.68-0.41985-1.0146-0.18844-2.1822 0.58668-2.96 0.50555-0.51524 1.1982-0.80383 1.92-0.8h27.68z" fill="#7EB5BD" fill-rule="nonzero"/>
<path d="m228.26 28.29c1.4356 0.087163 2.5552 1.2768 2.5552 2.715s-1.1196 2.6278-2.5552 2.715h-15.95c-0.72139 0-1.4132-0.28657-1.9233-0.79667-0.5101-0.5101-0.79667-1.2019-0.79667-1.9233 0.005484-1.4999 1.2201-2.7145 2.72-2.72l15.95 0.01z" fill="#7EB5BD" fill-rule="nonzero"/>
<path d="m228.26 40.29c1.4356 0.087163 2.5552 1.2768 2.5552 2.715s-1.1196 2.6278-2.5552 2.715h-15.95c-1.5022 0-2.72-1.2178-2.72-2.72 0.005484-1.4999 1.2201-2.7145 2.72-2.72l15.95 0.01z" fill="#7EB5BD" fill-rule="nonzero"/>
<path d="m226.91 164.68c1.5022 0 2.72 1.2178 2.72 2.72 0.003834 0.72183-0.28476 1.4145-0.8 1.92-0.50811 0.51144-1.1991 0.79934-1.92 0.8h-12.45c-1.5022 0-2.72-1.2178-2.72-2.72s1.2178-2.72 2.72-2.72h12.45z" fill="#7EB5BD" fill-rule="nonzero"/>
<path d="m226.72 154.17c1.4983 0.005509 2.71 1.2217 2.71 2.72-0.010892 1.4922-1.2178 2.6991-2.71 2.71h-12.46c-1.0984 0.00304-2.09-0.65726-2.5108-1.6719-0.42076-1.0146-0.18743-2.1829 0.59079-2.9581 0.50555-0.51524 1.1982-0.80383 1.92-0.8h12.46z" fill="#7EB5BD" fill-rule="nonzero"/>
<path d="m226.52 143.65c1.0981 0.002683 2.0868 0.66536 2.5067 1.68 0.41985 1.0146 0.18844 2.1822-0.58668 2.96-0.50555 0.51524-1.1982 0.80383-1.92 0.8h-12.46c-1.0963-0.006692-2.0813-0.67084-2.4986-1.6846-0.4173-1.0137-0.18523-2.1789 0.58863-2.9554 0.50441-0.51086 1.1921-0.79889 1.91-0.8h12.46z" fill="#7EB5BD" fill-rule="nonzero"/>
<path d="m228.32 97.43l0.16 0.6c-11.959 3.2364-24.697 1.8734-35.7-3.82v-14.68h35.54v17.9z" fill="#7EB5BD" fill-rule="nonzero"/>
<path d="m212 178c1.3842-0.004047 2.6343 0.82664 3.1668 2.1043 0.5325 1.2776 0.24238 2.7503-0.73495 3.7305-0.97732 0.98019-2.4491 1.2746-3.7283 0.74587-1.2792-0.52876-2.1135-1.7764-2.1135-3.1606-8e-6 -1.8849 1.5251-3.4145 3.41-3.42z" fill="#E6EDF2" fill-rule="nonzero"/>
<path d="m204.21 63c1.3842 5.9e-6 2.6319 0.83435 3.1606 2.1135 0.52876 1.2792 0.23432 2.751-0.74587 3.7283-0.98019 0.97732-2.4528 1.2674-3.7305 0.73495-1.2776-0.5325-2.1083-1.7826-2.1043-3.1668 0.005511-1.8849 1.5351-3.41 3.42-3.41z" fill="#E6EDF2" fill-rule="nonzero"/>
<path d="m200 178c1.3842-0.004047 2.6343 0.82664 3.1668 2.1043 0.5325 1.2776 0.24238 2.7503-0.73495 3.7305-0.97732 0.98019-2.4491 1.2746-3.7283 0.74587-1.2792-0.52876-2.1135-1.7764-2.1135-3.1606-8e-6 -1.8849 1.5251-3.4145 3.41-3.42z" fill="#E6EDF2" fill-rule="nonzero"/>
<path d="m197.82 146.91c1.9473-0.004044 3.7049 1.1664 4.4519 2.9647 0.74706 1.7983 0.33617 3.8696-1.0408 5.2465s-3.4482 1.7878-5.2465 1.0408c-1.7983-0.74706-2.9687-2.5047-2.9647-4.4519 0-1.273 0.50571-2.4939 1.4059-3.3941 0.90018-0.90017 2.1211-1.4059 3.3941-1.4059z" fill="#FF7C6E" fill-rule="nonzero"/>
<path d="m192.78 29.47c1.9481-0.012151 3.7112 1.152 4.4652 2.9484 0.75396 1.7964 0.34987 3.8701-1.0234 5.252s-3.4445 1.7989-5.2455 1.0562c-1.8011-0.7427-2.9763-2.4985-2.9763-4.4467-0.005538-2.6471 2.1329-4.799 4.78-4.81z" fill="#FF7C6E" fill-rule="nonzero"/>
<path d="m192.21 63c1.3842 5.9e-6 2.6319 0.83435 3.1606 2.1135 0.52876 1.2792 0.23432 2.751-0.74587 3.7283-0.98019 0.97732-2.4528 1.2674-3.7305 0.73495-1.2776-0.5325-2.1083-1.7826-2.1043-3.1668 0.005511-1.8849 1.5351-3.41 3.42-3.41z" fill="#E6EDF2" fill-rule="nonzero"/>
<path d="m105.85 185.39l0.34 1.09c-6.2371 3.0091-12.87 5.1169-19.7 6.26l-0.14-0.85v-5.09c3e-6 -1.174-0.46705-2.2998-1.2981-3.129-0.83107-0.8292-1.9579-1.2937-3.1319-1.291h-20.06c-1.174-0.002656-2.3008 0.46185-3.1319 1.291-0.83107 0.8292-1.2981 1.955-1.2981 3.129v4.47l-1.83 0.18c-5.9275-1.5321-11.639-3.8033-17-6.76l0.26-0.47c1.9424-6.7379 8.1078-11.378 15.12-11.38h36.51c7.4434 0.02524 13.851 5.261 15.36 12.55z" fill="#C4D4DD" fill-rule="nonzero"/>
<path d="m104.19 121.39v24.12c-0.005514 2.4096-1.9604 4.36-4.37 4.36h-1.76v-15.8c-0.043847-11.027-8.9725-19.956-20-20h-11c-8.0442 0.012395-15.306 4.8197-18.46 12.22-1.0531 2.4587-1.5974 5.1052-1.6 7.78v15.8h-1c-2.4096 6e-6 -4.3645-1.9504-4.37-4.36v-50.16s1 9.44 16.61 9.44h29.33c4.4052-0.002653 8.6311 1.7448 11.748 4.8579 3.1169 3.1131 4.8694 7.3369 4.872 11.742z" fill="#7EB5BD" fill-rule="nonzero"/>
<path d="m78 114c11.027 0.043847 19.956 8.9725 20 20v3c-16.905 2.8819-34.272-0.84123-48.51-10.4l-1-0.29c3.1401-7.469 10.458-12.322 18.56-12.31h10.95z" fill="#7EB5BD" fill-rule="nonzero"/>
<path d="m90.27 151.86c1.1403 0.9085 1.3283 2.5694 0.41986 3.7098-0.90846 1.1404-2.5694 1.3284-3.7098 0.41997-1.1404-0.90843-1.3285-2.5693-0.42009-3.7098 0.91134-1.1353 2.5679-1.3229 3.71-0.42z" fill="#6E7F89" fill-rule="nonzero"/>
<path d="m49.55 126.58c14.235 9.5657 31.602 13.296 48.51 10.42v15.83c-0.049282 11.025-8.9748 19.951-20 20h-11c-11.025-0.049282-19.951-8.9748-20-20v-18.76c-0.0036883-2.6734 0.53377-5.3198 1.58-7.78l0.91 0.29zm41.14 29c0.67078-0.83404 0.7716-1.9905 0.25528-2.9281-0.51633-0.93753-1.5476-1.4705-2.6111-1.3495-1.0634 0.12104-1.9486 0.87219-2.241 1.9018-0.29243 1.0296 0.065725 2.1338 0.90678 2.7958 1.1388 0.88945 2.7802 0.70262 3.69-0.42zm-30.13 0.27c0.66782-0.83333 0.76782-1.9869 0.25337-2.9227-0.51445-0.93582-1.542-1.4695-2.6035-1.3522s-1.9477 0.86252-2.2454 1.8881c-0.29769 1.0256 0.051788 2.1295 0.88545 2.7969 1.1395 0.90519 2.7957 0.72216 3.71-0.41z" fill="#F9E3D4" fill-rule="nonzero"/>
<path d="m86.35 191.89l0.14 0.85c-4.0943 0.68317-8.2392 1.0177-12.39 1-6.2401 0.004441-12.456-0.77841-18.5-2.33l1.83-0.18v-4.43c-3e-6 -1.174 0.46705-2.2998 1.2981-3.129 0.83107-0.8292 1.9579-1.2937 3.1319-1.291h20.06c1.174-0.002656 2.3008 0.46185 3.1319 1.291 0.83107 0.8292 1.2981 1.955 1.2981 3.129v5.09z" fill="#7EB5BD" fill-rule="nonzero"/>
<path d="m76.93 82.77c1.7086-0.0032249 3.1041 1.3644 3.1354 3.0727 0.031276 1.7083-1.3132 3.1261-3.0208 3.1854-1.7076 0.059318-3.1472-1.2617-3.2346-2.9681-0.010041-0.025722-0.010041-0.054278 0-0.08v-0.16c0.038055-1.6957 1.4238-3.0504 3.12-3.05z" fill="#FDAE76" fill-rule="nonzero"/>
<path d="m73.81 104.78h-5.66v-8.07c-6.4756-2.6938-10.149-9.5847-8.7752-16.462 1.3735-6.8777 7.4116-11.829 14.425-11.829s13.052 4.9515 14.425 11.829c1.3735 6.8777-2.2996 13.769-8.7752 16.462v8.07h-5.64zm-6.27-18.88c0.07037 1.6656 1.4301 2.9859 3.0971 3.0072 1.667 0.02127 3.06-1.2639 3.1729-2.9272-0.010041 0.025722-0.010041 0.054278 0 0.08 0.065389 1.7261 1.5007 3.0821 3.2277 3.0494 1.727-0.0327 3.11-1.4421 3.11-3.1694s-1.3829-3.1367-3.11-3.1694c-1.727-0.0327-3.1623 1.3233-3.2277 3.0494-0.11284-1.6633-1.5059-2.9485-3.1729-2.9272-1.667 0.021269-3.0268 1.3416-3.0971 3.0072z" fill="#FDAE76" fill-rule="nonzero"/>
<path d="m67.54 85.9c0.07037-1.6656 1.4301-2.9859 3.0971-3.0072 1.667-0.02127 3.06 1.2639 3.1729 2.9272-0.013125 0.052526-0.013125 0.10747 0 0.16-0.11284 1.6633-1.5059 2.9485-3.1729 2.9272-1.667-0.021269-3.0268-1.3416-3.0971-3.0072z" fill="#FDAE76" fill-rule="nonzero"/>
<path d="m68.15 104.78h11.3v-8.07c6.4697-2.6935 10.138-9.5796 8.7649-16.452-1.3734-6.8721-7.407-11.819-14.415-11.819s-13.042 4.947-14.415 11.819c-1.3734 6.8721 2.2953 13.758 8.7649 16.452v8.07zm-21.15 48.03c0.049282 11.025 8.9748 19.951 20 20h-13.07c-7.0122 0.001821-13.178 4.6421-15.12 11.38l-0.26 0.47c-29.962-16.418-44.789-51.214-35.878-84.196 8.9109-32.982 39.243-55.577 73.396-54.673 34.153 0.90381 63.248 25.071 70.402 58.479 7.154 33.408-9.4926 67.37-40.281 82.181l-0.34-1.09c-1.5123-7.3073-7.9478-12.548-15.41-12.55h-12.44c11.025-0.049282 19.951-8.9748 20-20v-2.94h1.76c2.4096 6e-6 4.3645-1.9504 4.37-4.36v-24.12c-0.00552-9.1695-7.4405-16.6-16.61-16.6h-29.27c-15.56 0-16.61-9.44-16.61-9.44v50.16c0.0054987 2.4057 1.9543 4.3545 4.36 4.36h1v2.94z" fill="#D4F4F2" fill-rule="nonzero"/>
<path d="m60.15 152.13c1.1362 0.91073 1.3205 2.5695 0.41179 3.7073-0.90868 1.1379-2.5671 1.3251-3.7066 0.41849-1.1395-0.90662-1.3297-2.5647-0.42519-3.7058 0.91209-1.1417 2.5763-1.3296 3.72-0.42z" fill="#6E7F89" fill-rule="nonzero"/>
<path d="m38.55 184.69c-29.962-16.418-44.789-51.214-35.878-84.196 8.9109-32.982 39.243-55.577 73.396-54.673 34.153 0.90381 63.248 25.071 70.402 58.479 7.154 33.408-9.4926 67.37-40.281 82.181-10.014 4.8079-20.981 7.3028-32.09 7.3-6.2401 0.004441-12.456-0.77841-18.5-2.33-5.9447-1.5282-11.673-3.7994-17.05-6.76z" stroke="#6E7F89" stroke-linecap="round" stroke-linejoin="round" stroke-width="1.54"/>
<path d="m94.65 82.77h3.41" stroke="#6E7F89" stroke-linecap="round" stroke-linejoin="round" stroke-width="1.54"/>
<path d="m49.43 82.77h3.41" stroke="#6E7F89" stroke-linecap="round" stroke-linejoin="round" stroke-width="1.54"/>
<path d="m73.8 61.68v-3.94" stroke="#6E7F89" stroke-linecap="round" stroke-linejoin="round" stroke-width="1.54"/>
<path d="m78 172.84c11.025-0.049282 19.951-8.9748 20-20v-18.77c-0.043847-11.027-8.9725-19.956-20-20h-11c-8.0224 0.03634-15.255 4.8397-18.4 12.22-1.0531 2.4587-1.5974 5.1052-1.6 7.78v18.74c0.049282 11.025 8.9748 19.951 20 20" stroke="#6E7F89" stroke-linecap="round" stroke-linejoin="round" stroke-width="1.54"/>
<path d="m49.55 126.58c14.235 9.5657 31.602 13.296 48.51 10.42" stroke="#6E7F89" stroke-linecap="round" stroke-linejoin="round" stroke-width="1.54"/>
<path d="m105.85 185.39c-1.5123-7.3073-7.9478-12.548-15.41-12.55h-36.51c-7.0122 0.001821-13.178 4.6421-15.12 11.38" stroke="#6E7F89" stroke-linecap="round" stroke-linejoin="round" stroke-width="1.54"/>
<path d="m59.1 83.13c-0.00292-7.3812 5.4647-13.622 12.782-14.589 7.3175-0.9673 14.219 3.6381 16.134 10.767 1.9151 7.1284-1.7492 14.572-8.5663 17.402v8.07h-11.3v-8.07c-5.4848-2.2806-9.0564-7.6399-9.05-13.58z" stroke="#6E7F89" stroke-linecap="round" stroke-linejoin="round" stroke-width="1.54"/>
<polyline points="73.81 104.79 73.81 104.78 73.81 86.06" stroke="#6E7F89" stroke-linecap="round" stroke-linejoin="round" stroke-width="1.54"/>
<path d="m73.81 85.82c-0.013125 0.052526-0.013125 0.10747 0 0.16-0.010041 0.025722-0.010041 0.054278 0 0.08 0.065389 1.7261 1.5007 3.0821 3.2277 3.0494 1.727-0.0327 3.11-1.4421 3.11-3.1694s-1.3829-3.1367-3.11-3.1694c-1.727-0.0327-3.1623 1.3233-3.2277 3.0494v0z" stroke="#6E7F89" stroke-linecap="round" stroke-linejoin="round" stroke-width="1.54"/>
<path d="m73.81 85.82c-0.043784-1.7125-1.4561-3.0716-3.169-3.0497-1.7129 0.021894-3.09 1.4167-3.09 3.1297s1.3771 3.1079 3.09 3.1297c1.7129 0.021894 3.1252-1.3373 3.169-3.0497v-0.16 0z" stroke="#6E7F89" stroke-linecap="round" stroke-linejoin="round" stroke-width="1.54"/>
<path d="m91.36 65.23l-2.85 3.2" stroke="#6E7F89" stroke-linecap="round" stroke-linejoin="round" stroke-width="1.54"/>
<path d="m58.39 68.77l-2.65-3.01" stroke="#6E7F89" stroke-linecap="round" stroke-linejoin="round" stroke-width="1.54"/>
<path d="m46 149.87c-2.4096 6e-6 -4.3645-1.9504-4.37-4.36v-50.16s1 9.44 16.61 9.44h29.33c9.1695-2e-6 16.604 7.4305 16.61 16.6v24.12c-0.005514 2.4096-1.9604 4.36-4.37 4.36h-1.76" stroke="#6E7F89" stroke-linecap="round" stroke-linejoin="round" stroke-width="1.54"/>
<path d="m57.43 191.27v-4.47c-3e-6 -1.174 0.46705-2.2998 1.2981-3.129 0.83107-0.8292 1.9579-1.2937 3.1319-1.291h20.06c1.174-0.002656 2.3008 0.46185 3.1319 1.291 0.83107 0.8292 1.2981 1.955 1.2981 3.129v5.09" stroke="#6E7F89" stroke-linecap="round" stroke-linejoin="round" stroke-width="1.54"/>
<path d="m182 86.6c-16.665-15.348-20.777-40.053-9.9823-59.972 10.795-19.919 33.738-29.961 55.695-24.378 21.957 5.5828 37.317 25.365 37.287 48.02 0 1.33 0 2.64-0.15 4-1.2854 16.097-10.345 30.554-24.27 38.73-2.133 1.2589-4.3595 2.3522-6.66 3.27-1.7736 0.71674-3.5905 1.3213-5.44 1.81-11.959 3.2364-24.697 1.8734-35.7-3.82-3.9273-2.038-7.5631-4.5942-10.81-7.6" stroke="#6E7F89" stroke-linecap="round" stroke-linejoin="round" stroke-width="1.54"/>
<path d="m176.48 151.22c5.9175-20.555 26.724-33.034 47.644-28.574 20.92 4.46 34.829 24.339 31.848 45.521-2.9804 21.182-21.835 36.451-43.173 34.965-21.339-1.4862-37.894-19.222-37.909-40.612-0.003558-3.8227 0.53171-7.6267 1.59-11.3v0z" stroke="#6E7F89" stroke-linecap="round" stroke-linejoin="round" stroke-width="1.54"/>
<polyline points="144.87 140.89 145.04 140.95 176.48 151.22 176.49 151.22" stroke="#6E7F89" stroke-linecap="round" stroke-linejoin="round" stroke-width="1.54"/>
<path d="m136.66 79.53l31.89-13.77" stroke="#6E7F89" stroke-linecap="round" stroke-linejoin="round" stroke-width="1.54"/>
<polyline points="181.97 86.61 181.97 86.6 181.97 52.55 192.78 52.55 204.11 52.55 204.11 21.83 236.39 21.83 236.39 44.03 247.75 44.03 247.75 54.22 264.87 54.22" stroke="#6E7F89" stroke-linecap="round" stroke-linejoin="round" stroke-width="1.54"/>
<path d="m192.78 52.55v-13.47" stroke="#6E7F89" stroke-linecap="round" stroke-linejoin="round" stroke-width="1.54"/>
<path d="m197.58 34.28c-4e-6 1.9464-1.173 3.7009-2.9716 4.4448-1.7986 0.74391-3.8683 0.33055-5.2431-1.0472s-1.7839-3.4482-1.0363-5.2453c0.74765-1.797 2.5046-2.9664 4.451-2.9624 1.2748-2.8e-6 2.4972 0.50708 3.3977 1.4094s1.405 2.1258 1.4023 3.4006v0z" stroke="#6E7F89" stroke-linecap="round" stroke-linejoin="round" stroke-width="1.54"/>
<path d="m228.26 33.72h-15.95c-1.5022 0-2.72-1.2178-2.72-2.72 0.005484-1.4999 1.2201-2.7145 2.72-2.72h15.95c1.4356 0.087163 2.5552 1.2768 2.5552 2.715s-1.1196 2.6278-2.5552 2.715v0.01z" stroke="#6E7F89" stroke-linecap="round" stroke-linejoin="round" stroke-width="1.54"/>
<path d="m228.26 45.72h-15.95c-1.5022 0-2.72-1.2178-2.72-2.72 0.005484-1.4999 1.2201-2.7145 2.72-2.72h15.95c1.4356 0.087163 2.5552 1.2768 2.5552 2.715s-1.1196 2.6278-2.5552 2.715v0.01z" stroke="#6E7F89" stroke-linecap="round" stroke-linejoin="round" stroke-width="1.54"/>
<path d="m239.75 184.1h-16c-1.5022 0-2.72-1.2178-2.72-2.72s1.2178-2.72 2.72-2.72h16c1.5022 0 2.72 1.2178 2.72 2.72s-1.2178 2.72-2.72 2.72v0z" stroke="#6E7F89" stroke-linecap="round" stroke-linejoin="round" stroke-width="1.54"/>
<path d="m226.52 149.09h-12.46c-1.0963-0.006692-2.0813-0.67084-2.4986-1.6846-0.4173-1.0137-0.18523-2.1789 0.58863-2.9554 0.50441-0.51086 1.1921-0.79889 1.91-0.8h12.46c1.0981 0.002683 2.0868 0.66536 2.5067 1.68 0.41985 1.0146 0.18844 2.1822-0.58668 2.96-0.50555 0.51524-1.1982 0.80383-1.92 0.8z" stroke="#6E7F89" stroke-linecap="round" stroke-linejoin="round" stroke-width="1.54"/>
<path d="m226.72 159.6h-12.46c-1.0984 0.00304-2.09-0.65726-2.5108-1.6719-0.42076-1.0146-0.18743-2.1829 0.59079-2.9581 0.50555-0.51524 1.1982-0.80383 1.92-0.8h12.46c1.4983 0.005509 2.71 1.2217 2.71 2.72-0.010892 1.4922-1.2178 2.6991-2.71 2.71v0z" stroke="#6E7F89" stroke-linecap="round" stroke-linejoin="round" stroke-width="1.54"/>
<path d="m226.91 170.12h-12.45c-1.5022 0-2.72-1.2178-2.72-2.72s1.2178-2.72 2.72-2.72h12.45c0.72139 0 1.4132 0.28657 1.9233 0.79667s0.79667 1.2019 0.79667 1.9233c0.003834 0.72183-0.28476 1.4145-0.8 1.92-0.50811 0.51144-1.1991 0.79934-1.92 0.8z" stroke="#6E7F89" stroke-linecap="round" stroke-linejoin="round" stroke-width="1.54"/>
<path d="m231.06 195.17h-27.68c-1.0981-0.002683-2.0868-0.66536-2.5067-1.68-0.41985-1.0146-0.18844-2.1822 0.58668-2.96 0.50555-0.51524 1.1982-0.80383 1.92-0.8h27.68c1.5022 0 2.72 1.2178 2.72 2.72s-1.2178 2.72-2.72 2.72v0z" stroke="#6E7F89" stroke-linecap="round" stroke-linejoin="round" stroke-width="1.54"/>
<path d="m252.19 69.29h-36.57c-1.4518-0.016437-2.6201-1.1981-2.62-2.65v-0.12c-1e-5 -1.4652 1.1848-2.6545 2.65-2.66h36.57c1.4668 0.0054834 2.6545 1.1932 2.66 2.66v0.12c-0.00262 0.70897-0.28816 1.3876-0.79322 1.8851-0.50506 0.49755-1.1879 0.77289-1.8968 0.76489v0z" stroke="#6E7F89" stroke-linecap="round" stroke-linejoin="round" stroke-width="1.54"/>
<polyline points="192.78 94.21 192.78 79.53 228.32 79.53 228.32 97.43" stroke="#6E7F89" stroke-linecap="round" stroke-linejoin="round" stroke-width="1.54"/>
<polyline points="233.92 96.22 233.92 79.97 240.35 79.97 240.35 92.57" stroke="#6E7F89" stroke-linecap="round" stroke-linejoin="round" stroke-width="1.54"/>
<path d="m195.63 66.38c0.016221 1.3868-0.80667 2.6461-2.0833 3.188-1.2766 0.54198-2.7541 0.25933-3.7405-0.71555-0.98642-0.97489-1.2864-2.449-0.75951-3.7319 0.52692-1.2829 1.7764-2.1205 3.1633-2.1206 1.8733-1.281e-4 3.3981 1.5068 3.42 3.38v0z" stroke="#6E7F89" stroke-linecap="round" stroke-linejoin="round" stroke-width="1.54"/>
<path d="m207.63 66.38c0.016221 1.3868-0.80667 2.6461-2.0833 3.188-1.2766 0.54198-2.7541 0.25933-3.7405-0.71555-0.98642-0.97489-1.2864-2.449-0.75951-3.7319 0.52692-1.2829 1.7764-2.1205 3.1633-2.1206 1.8733-1.281e-4 3.3981 1.5068 3.42 3.38v0z" stroke="#6E7F89" stroke-linecap="round" stroke-linejoin="round" stroke-width="1.54"/>
<rect x="212.97" y="51.04" width="28.52" height="4.68" stroke="#6E7F89" stroke-linecap="round" stroke-linejoin="round" stroke-width="1.54"/>
<polyline points="190.27 194.36 190.27 171.41 197.82 171.41 207.63 171.41 207.63 139.25 233.92 139.25 233.92 158.9 246.86 158.9 246.86 188.49" stroke="#6E7F89" stroke-linecap="round" stroke-linejoin="round" stroke-width="1.54"/>
<path d="m197.82 171.41v-14.73" stroke="#6E7F89" stroke-linecap="round" stroke-linejoin="round" stroke-width="1.54"/>
<path d="m202.63 151.71c0.004047 1.9464-1.1653 3.7033-2.9624 4.451s-3.8676 0.3386-5.2453-1.0363c-1.3777-1.3749-1.7911-3.4445-1.0472-5.2431s2.4984-2.9716 4.4448-2.9716c2.6526-6e-6 4.8045 2.1474 4.81 4.8v0z" stroke="#6E7F89" stroke-linecap="round" stroke-linejoin="round" stroke-width="1.54"/>
<path d="m203.46 181.38c0.02196 1.8886-1.4912 3.4375-3.3798 3.4595-1.8886 0.022046-3.4376-1.4911-3.4597-3.3797-0.022132-1.8886 1.4909-3.4376 3.3795-3.4598 0.90706-0.010671 1.7812 0.33946 2.4301 0.97334 0.64889 0.63389 1.0194 1.4996 1.0299 2.4067v0z" stroke="#6E7F89" stroke-linecap="round" stroke-linejoin="round" stroke-width="1.54"/>
<path d="m215.46 181.38c0.02196 1.8886-1.4912 3.4375-3.3798 3.4595-1.8886 0.022046-3.4376-1.4911-3.4597-3.3797-0.022132-1.8886 1.4909-3.4376 3.3795-3.4598 0.90706-0.010671 1.7812 0.33946 2.4301 0.97334 0.64889 0.63389 1.0194 1.4996 1.0299 2.4067v0z" stroke="#6E7F89" stroke-linecap="round" stroke-linejoin="round" stroke-width="1.54"/>
<path d="m46.25 174.84c1.54-1.26 7.68-2 7.68-2-3.45 10.45-12.29 6.28-12.29 6.28 1.4033-1.5639 2.9464-2.9965 4.61-4.28z" fill="#7EB5BD" fill-rule="nonzero"/>
<path d="m46.25 174.84c-1.6636 1.2835-3.2067 2.7161-4.61 4.28 0 0 8.84 4.17 12.29-6.28 0 0-6.14 0.74-7.68 2z" stroke="#6E7F89" stroke-linecap="round" stroke-linejoin="round" stroke-width="1.54"/>
<path d="m97.89 174.84c-1.54-1.26-7.68-2-7.68-2 3.45 10.45 12.29 6.28 12.29 6.28-1.4033-1.5639-2.9464-2.9965-4.61-4.28z" fill="#7EB5BD" fill-rule="nonzero"/>
<path d="m97.89 174.84c1.6636 1.2835 3.2067 2.7161 4.61 4.28 0 0-8.84 4.17-12.29-6.28 0 0 6.14 0.74 7.68 2z" stroke="#6E7F89" stroke-linecap="round" stroke-linejoin="round" stroke-width="1.54"/>
<path d="m215.55 0.79c-2.3421 0.0037197-4.6811 0.17079-7 0.5 24.431 3.428 42.605 24.329 42.605 49s-18.173 45.572-42.605 49c2.3189 0.32921 4.6579 0.49628 7 0.5 27.338 0 49.5-22.162 49.5-49.5s-22.162-49.5-49.5-49.5z" fill="#000" fill-rule="nonzero" opacity=".07"/>
<path d="m215.29 121.85c-1.9138 0.004673-3.8251 0.14167-5.72 0.41 19.896 2.8559 34.668 19.9 34.668 40s-14.772 37.144-34.668 40c1.8949 0.26833 3.8062 0.40533 5.72 0.41 22.073-0.34722 39.784-18.34 39.784-40.415s-17.712-40.068-39.784-40.415v0.01z" fill="#000" fill-rule="nonzero" opacity=".07"/>
<path d="m74.1 45.72c-2.5048 1.313e-4 -5.008 0.12696-7.5 0.38 37.905 3.6997 66.811 35.565 66.811 73.65 0 38.085-28.907 69.95-66.811 73.65 27.06 2.5132 53.321-10.009 68.403-32.617 15.082-22.608 16.557-51.664 3.8436-75.684-12.714-24.02-37.571-39.138-64.746-39.379z" fill="#000" fill-rule="nonzero" opacity=".07"/>
</g>
</g>
</svg>
